<?xml version="1.0" encoding="utf-8"?>
<!-- Generator: Adobe Illustrator 22.0.1, SVG Export Plug-In . SVG Version: 6.00 Build 0)  -->
<svg version="1.1" id="welcome" xmlns="http://www.w3.org/2000/svg" xmlns:xlink="http://www.w3.org/1999/xlink" x="0px" y="0px"
	 viewBox="0 0 130 60" style="enable-background:new 0 0 130 60;" xml:space="preserve">
<style type="text/css">
	.st0{opacity:0.5;enable-background:new    ;}
	.st1{fill:#FFFFFF;}
</style>
<path id="bg" class="st0" d="M21,6.5v36c0,3.2-2.9,5.1-6.1,4.9c-7.1-0.6-12.3-4.8-12.3-4.8s4.2,15.9,28.5,15.9h92.4c2.7,0,5-2.2,5-5
	v-47c0-2.8-2.2-5-5-5H26C23.2,1.5,21,3.7,21,6.5z"/>
<path id="border" class="st1" d="M123.5,0H26c-3.6,0-6.5,2.9-6.5,6.5v36c0,0.9-0.3,1.7-1,2.3c-0.8,0.8-2.1,1.2-3.5,1.1
	c-6.5-0.5-11.4-4.4-11.5-4.5L0,38.5L1.2,43c0.2,0.7,4.8,17,30,17h92.4c3.6,0,6.5-2.9,6.5-6.5v-47C130,2.9,127.1,0,123.5,0z
	 M127,53.5c0,1.9-1.6,3.5-3.5,3.5H31.1c-15,0-21.9-6.1-24.9-10.5c2.3,1.1,5.2,2.1,8.6,2.4c2.2,0.2,4.3-0.5,5.8-1.9
	c1.3-1.2,1.9-2.8,1.9-4.5v-36C22.5,4.6,24.1,3,26,3h97.5c1.9,0,3.5,1.6,3.5,3.5V53.5z"/>
<g id="text">
	<path d="M42.4,15.4h-2.2c0,0.2,0.1,0.4,0.1,0.7c0,0.3,0,0.5-0.1,0.7c0,0.2,0.1,0.4,0.1,0.7c0,0.3,0,0.5-0.1,0.7
		c0,0.2,0.1,0.4,0.1,0.7c0,0.3,0,0.5-0.1,0.7c0,0.2,0.1,0.4,0.1,0.7c0,0.3,0,0.5-0.1,0.7c0,0.2,0.1,0.4,0.1,0.7c0,0.3,0,0.5-0.1,0.7
		c0,0.2,0.1,0.4,0.1,0.7c0,0.3,0,0.5-0.1,0.7h-1.5c0-0.2-0.1-0.4-0.1-0.7c0-0.3,0-0.5,0.1-0.7c0-0.2-0.1-0.4-0.1-0.7
		c0-0.3,0-0.5,0.1-0.7c0-0.2-0.1-0.5-0.1-0.7c0-0.3,0-0.5,0.1-0.7c0-0.2-0.1-0.5-0.1-0.7c0-0.3,0-0.5,0.1-0.7c0-0.2-0.1-0.4-0.1-0.7
		c0-0.3,0-0.5,0.1-0.7c0-0.2-0.1-0.5-0.1-0.7c0-0.3,0-0.5,0.1-0.7h-2.2c0-0.2-0.1-0.5-0.1-0.7c0-0.3,0-0.5,0.1-0.7h5.8
		c0,0.2,0.1,0.4,0.1,0.7C42.4,14.9,42.4,15.2,42.4,15.4z"/>
	<path d="M45.3,18.3h0.5c0,0.2,0.1,0.4,0.1,0.7c0,0.3,0,0.5-0.1,0.7h-0.5c0,0.2,0.1,0.4,0.1,0.7c0,0.3,0,0.5-0.1,0.7
		c0,0.2,0.1,0.4,0.1,0.7c0,0.3,0,0.5-0.1,0.7c0,0.2,0.1,0.4,0.1,0.7c0,0.3,0,0.5-0.1,0.7h-1.5c0-0.2-0.1-0.4-0.1-0.7
		c0-0.3,0-0.5,0.1-0.7c0-0.2-0.1-0.4-0.1-0.7c0-0.3,0-0.5,0.1-0.7c0-0.2-0.1-0.5-0.1-0.7c0-0.3,0-0.5,0.1-0.7c0-0.2-0.1-0.5-0.1-0.7
		c0-0.3,0-0.5,0.1-0.7c0-0.2-0.1-0.4-0.1-0.7c0-0.3,0-0.5,0.1-0.7c0-0.2-0.1-0.5-0.1-0.7c0-0.3,0-0.5,0.1-0.7c0-0.2-0.1-0.5-0.1-0.7
		c0-0.3,0-0.5,0.1-0.7h1.5c0,0.2,0.1,0.4,0.1,0.7c0,0.3,0,0.5-0.1,0.7c0,0.2,0.1,0.4,0.1,0.7c0,0.3,0,0.5-0.1,0.7
		c0,0.2,0.1,0.4,0.1,0.7C45.4,17.8,45.3,18.1,45.3,18.3z M49.7,20.5c0,0.3,0,0.5-0.1,0.7c0,0.2,0.1,0.4,0.1,0.7c0,0.3,0,0.5-0.1,0.7
		c0,0.2,0.1,0.4,0.1,0.7c0,0.3,0,0.5-0.1,0.7h-1.5c0-0.2-0.1-0.4-0.1-0.7c0-0.3,0-0.5,0.1-0.7c0-0.2-0.1-0.4-0.1-0.7
		c0-0.3,0-0.5,0.1-0.7c0-0.2-0.1-0.5-0.1-0.7c0-0.3,0-0.5,0.1-0.7c0-0.2-0.1-0.5-0.1-0.7c0-0.3,0-0.5,0.1-0.7h-2.4
		c0-0.2-0.1-0.4-0.1-0.7c0-0.3,0-0.5,0.1-0.7h2.9c0,0.2,0.1,0.4,0.1,0.7c0,0.3,0,0.5-0.1,0.7h0.9c0,0.2,0.1,0.4,0.1,0.7
		c0,0.3,0,0.5-0.1,0.7C49.7,19.9,49.7,20.2,49.7,20.5z"/>
	<path d="M56.3,23.4c0,0.3,0,0.5-0.1,0.7h-4.4c0-0.2-0.1-0.4-0.1-0.7c0-0.3,0-0.5,0.1-0.7h1.5c0-0.2-0.1-0.4-0.1-0.7
		c0-0.3,0-0.5,0.1-0.7c0-0.2-0.1-0.5-0.1-0.7c0-0.3,0-0.5,0.1-0.7c0-0.2-0.1-0.5-0.1-0.7c0-0.3,0-0.5,0.1-0.7h-1.1
		c0-0.2-0.1-0.4-0.1-0.7c0-0.3,0-0.5,0.1-0.7h2.6c0,0.2,0.1,0.4,0.1,0.7c0,0.3,0,0.5-0.1,0.7c0,0.2,0.1,0.4,0.1,0.7
		c0,0.3,0,0.5-0.1,0.7c0,0.2,0.1,0.4,0.1,0.7c0,0.3,0,0.5-0.1,0.7c0,0.2,0.1,0.4,0.1,0.7c0,0.3,0,0.5-0.1,0.7h1.5
		C56.3,22.9,56.3,23.1,56.3,23.4z M53.3,15.4c0-0.2-0.1-0.5-0.1-0.7c0-0.3,0-0.5,0.1-0.7h1.5c0,0.2,0.1,0.4,0.1,0.7
		c0,0.3,0,0.5-0.1,0.7H53.3z"/>
	<path d="M63.9,22.7h-0.7c0,0.2,0.1,0.4,0.1,0.7c0,0.3,0,0.5-0.1,0.7h-4c0-0.2-0.1-0.4-0.1-0.7c0-0.3,0-0.5,0.1-0.7h3.3
		c0-0.2-0.1-0.4-0.1-0.7c0-0.3,0-0.5,0.1-0.7h-2.9c0-0.2-0.1-0.5-0.1-0.7c0-0.3,0-0.5,0.1-0.7h-0.7c0-0.2-0.1-0.5-0.1-0.7
		c0-0.3,0-0.5,0.1-0.7h0.7c0-0.2-0.1-0.4-0.1-0.7c0-0.3,0-0.5,0.1-0.7h4c0,0.2,0.1,0.4,0.1,0.7c0,0.3,0,0.5-0.1,0.7h-3.3
		c0,0.2,0.1,0.4,0.1,0.7c0,0.3,0,0.5-0.1,0.7h2.9c0,0.2,0.1,0.4,0.1,0.7c0,0.3,0,0.5-0.1,0.7h0.7c0,0.2,0.1,0.4,0.1,0.7
		C64,22.2,64,22.5,63.9,22.7z"/>
	<path d="M78.2,23.4c0,0.3,0,0.5-0.1,0.7h-4.4c0-0.2-0.1-0.4-0.1-0.7c0-0.3,0-0.5,0.1-0.7h1.5c0-0.2-0.1-0.4-0.1-0.7
		c0-0.3,0-0.5,0.1-0.7c0-0.2-0.1-0.5-0.1-0.7c0-0.3,0-0.5,0.1-0.7c0-0.2-0.1-0.5-0.1-0.7c0-0.3,0-0.5,0.1-0.7h-1.1
		c0-0.2-0.1-0.4-0.1-0.7c0-0.3,0-0.5,0.1-0.7h2.6c0,0.2,0.1,0.4,0.1,0.7c0,0.3,0,0.5-0.1,0.7c0,0.2,0.1,0.4,0.1,0.7
		c0,0.3,0,0.5-0.1,0.7c0,0.2,0.1,0.4,0.1,0.7c0,0.3,0,0.5-0.1,0.7c0,0.2,0.1,0.4,0.1,0.7c0,0.3,0,0.5-0.1,0.7h1.5
		C78.2,22.9,78.2,23.1,78.2,23.4z M75.2,15.4c0-0.2-0.1-0.5-0.1-0.7c0-0.3,0-0.5,0.1-0.7h1.5c0,0.2,0.1,0.4,0.1,0.7
		c0,0.3,0,0.5-0.1,0.7H75.2z"/>
	<path d="M85.8,22.7h-0.7c0,0.2,0.1,0.4,0.1,0.7c0,0.3,0,0.5-0.1,0.7h-4c0-0.2-0.1-0.4-0.1-0.7c0-0.3,0-0.5,0.1-0.7h3.3
		c0-0.2-0.1-0.4-0.1-0.7c0-0.3,0-0.5,0.1-0.7h-2.9c0-0.2-0.1-0.5-0.1-0.7c0-0.3,0-0.5,0.1-0.7h-0.7c0-0.2-0.1-0.5-0.1-0.7
		c0-0.3,0-0.5,0.1-0.7h0.7c0-0.2-0.1-0.4-0.1-0.7c0-0.3,0-0.5,0.1-0.7h4c0,0.2,0.1,0.4,0.1,0.7c0,0.3,0,0.5-0.1,0.7h-3.3
		c0,0.2,0.1,0.4,0.1,0.7c0,0.3,0,0.5-0.1,0.7h2.9c0,0.2,0.1,0.4,0.1,0.7c0,0.3,0,0.5-0.1,0.7h0.7c0,0.2,0.1,0.4,0.1,0.7
		C85.9,22.2,85.9,22.5,85.8,22.7z"/>
	<path d="M95.8,18.3h0.5c0,0.2,0.1,0.4,0.1,0.7c0,0.3,0,0.5-0.1,0.7c0,0.2,0.1,0.4,0.1,0.7c0,0.3,0,0.5-0.1,0.7
		c0,0.2,0.1,0.4,0.1,0.7c0,0.3,0,0.5-0.1,0.7c0,0.2,0.1,0.4,0.1,0.7c0,0.3,0,0.5-0.1,0.7h-1.5c0-0.2-0.1-0.4-0.1-0.7
		c0-0.3,0-0.5,0.1-0.7c0-0.2-0.1-0.4-0.1-0.7c0-0.3,0-0.5,0.1-0.7c0-0.2-0.1-0.5-0.1-0.7c0-0.3,0-0.5,0.1-0.7c0-0.2-0.1-0.5-0.1-0.7
		c0-0.3,0-0.5,0.1-0.7c0-0.2-0.1-0.4-0.1-0.7c0-0.3,0-0.5,0.1-0.7h0.9c0,0.2,0.1,0.4,0.1,0.7C95.9,17.8,95.9,18.1,95.8,18.3z
		 M97.9,18.3h0.5c0,0.2,0.1,0.4,0.1,0.7c0,0.3,0,0.5-0.1,0.7c0,0.2,0.1,0.4,0.1,0.7c0,0.3,0,0.5-0.1,0.7c0,0.2,0.1,0.4,0.1,0.7
		c0,0.3,0,0.5-0.1,0.7c0,0.2,0.1,0.4,0.1,0.7c0,0.3,0,0.5-0.1,0.7h-1.1c0-0.2-0.1-0.4-0.1-0.7c0-0.3,0-0.5,0.1-0.7
		c0-0.2-0.1-0.4-0.1-0.7c0-0.3,0-0.5,0.1-0.7c0-0.2-0.1-0.5-0.1-0.7c0-0.3,0-0.5,0.1-0.7c0-0.2-0.1-0.5-0.1-0.7c0-0.3,0-0.5,0.1-0.7
		h-0.9c0-0.2-0.1-0.4-0.1-0.7c0-0.3,0-0.5,0.1-0.7h1.5c0,0.2,0.1,0.4,0.1,0.7C97.9,17.8,97.9,18.1,97.9,18.3z M100.8,20.5
		c0,0.3,0,0.5-0.1,0.7c0,0.2,0.1,0.4,0.1,0.7c0,0.3,0,0.5-0.1,0.7c0,0.2,0.1,0.4,0.1,0.7c0,0.3,0,0.5-0.1,0.7h-1.5
		c0-0.2-0.1-0.4-0.1-0.7c0-0.3,0-0.5,0.1-0.7c0-0.2-0.1-0.4-0.1-0.7c0-0.3,0-0.5,0.1-0.7c0-0.2-0.1-0.5-0.1-0.7c0-0.3,0-0.5,0.1-0.7
		c0-0.2-0.1-0.5-0.1-0.7c0-0.3,0-0.5,0.1-0.7h-0.9c0-0.2-0.1-0.4-0.1-0.7c0-0.3,0-0.5,0.1-0.7h1.6c0,0.2,0.1,0.4,0.1,0.7
		c0,0.3,0,0.5-0.1,0.7h0.7c0,0.2,0.1,0.4,0.1,0.7c0,0.3,0,0.5-0.1,0.7C100.8,19.9,100.8,20.2,100.8,20.5z"/>
	<path d="M108.1,18.3h-0.5c0,0.2,0.1,0.4,0.1,0.7c0,0.3,0,0.5-0.1,0.7H107c0,0.2,0.1,0.4,0.1,0.7c0,0.3,0,0.5-0.1,0.7h-0.4
		c0,0.2,0.1,0.4,0.1,0.7c0,0.3,0,0.5-0.1,0.7h-0.5c0,0.2,0.1,0.4,0.1,0.7c0,0.3,0,0.5-0.1,0.7h-0.4c0,0.2,0.1,0.4,0.1,0.7
		c0,0.3,0,0.5-0.1,0.7H105c0,0.2,0.1,0.4,0.1,0.7c0,0.3,0,0.5-0.1,0.7h-2.2c0-0.2-0.1-0.5-0.1-0.7c0-0.3,0-0.5,0.1-0.7h1.5
		c0-0.2-0.1-0.5-0.1-0.7c0-0.3,0-0.5,0.1-0.7c0-0.2-0.1-0.4-0.1-0.7c0-0.3,0-0.5,0.1-0.7h-0.7c0-0.2-0.1-0.4-0.1-0.7
		c0-0.3,0-0.5,0.1-0.7h-0.4c0-0.2-0.1-0.5-0.1-0.7c0-0.3,0-0.5,0.1-0.7h-0.5c0-0.2-0.1-0.5-0.1-0.7c0-0.3,0-0.5,0.1-0.7H102
		c0-0.2-0.1-0.4-0.1-0.7c0-0.3,0-0.5,0.1-0.7h1.5c0,0.2,0.1,0.4,0.1,0.7c0,0.3,0,0.5-0.1,0.7h0.5c0,0.2,0.1,0.4,0.1,0.7
		c0,0.3,0,0.5-0.1,0.7h0.5c0,0.2,0.1,0.4,0.1,0.7c0,0.3,0,0.5-0.1,0.7c0,0.2,0.1,0.4,0.1,0.7c0,0.3,0,0.5-0.1,0.7h0.5
		c0-0.2-0.1-0.4-0.1-0.7c0-0.3,0-0.5,0.1-0.7h0.4c0-0.2-0.1-0.5-0.1-0.7c0-0.3,0-0.5,0.1-0.7h0.5c0-0.2-0.1-0.5-0.1-0.7
		c0-0.3,0-0.5,0.1-0.7h0.5c0-0.2-0.1-0.4-0.1-0.7c0-0.3,0-0.5,0.1-0.7h1.5c0,0.2,0.1,0.4,0.1,0.7C108.1,17.8,108.1,18.1,108.1,18.3z
		"/>
	<path d="M42.4,40.2h-0.7c0,0.2,0.1,0.4,0.1,0.7c0,0.3,0,0.5-0.1,0.7h0.7c0,0.2,0.1,0.4,0.1,0.7c0,0.3,0,0.5-0.1,0.7
		c0,0.2,0.1,0.4,0.1,0.7c0,0.3,0,0.5-0.1,0.7h-0.7c0,0.2,0.1,0.4,0.1,0.7c0,0.3,0,0.5-0.1,0.7h-5.1c0-0.2-0.1-0.5-0.1-0.7
		c0-0.3,0-0.5,0.1-0.7c0-0.2-0.1-0.5-0.1-0.7c0-0.3,0-0.5,0.1-0.7c0-0.2-0.1-0.4-0.1-0.7c0-0.3,0-0.5,0.1-0.7c0-0.2-0.1-0.4-0.1-0.7
		c0-0.3,0-0.5,0.1-0.7c0-0.2-0.1-0.5-0.1-0.7c0-0.3,0-0.5,0.1-0.7c0-0.2-0.1-0.5-0.1-0.7c0-0.3,0-0.5,0.1-0.7c0-0.2-0.1-0.5-0.1-0.7
		c0-0.3,0-0.5,0.1-0.7h5.1c0,0.2,0.1,0.4,0.1,0.7c0,0.3,0,0.5-0.1,0.7h0.7c0,0.2,0.1,0.4,0.1,0.7c0,0.3,0,0.5-0.1,0.7
		c0,0.2,0.1,0.4,0.1,0.7C42.4,39.7,42.4,40,42.4,40.2z M40.8,39.5c0-0.3,0-0.5,0.1-0.7c0-0.2-0.1-0.5-0.1-0.7c0-0.3,0-0.5,0.1-0.7
		H38c0,0.2,0.1,0.4,0.1,0.7c0,0.3,0,0.5-0.1,0.7c0,0.2,0.1,0.4,0.1,0.7c0,0.3,0,0.5-0.1,0.7h2.9C40.9,40,40.8,39.7,40.8,39.5z
		 M40.8,42.4c0-0.3,0-0.5,0.1-0.7H38c0,0.2,0.1,0.4,0.1,0.7c0,0.3,0,0.5-0.1,0.7c0,0.2,0.1,0.4,0.1,0.7c0,0.3,0,0.5-0.1,0.7h2.9
		c0-0.2-0.1-0.5-0.1-0.7c0-0.3,0-0.5,0.1-0.7C40.9,42.9,40.8,42.7,40.8,42.4z"/>
	<path d="M49.7,44.6c0,0.2,0.1,0.4,0.1,0.7c0,0.3,0,0.5-0.1,0.7h-1.5c0-0.2-0.1-0.5-0.1-0.7c0-0.3,0-0.5,0.1-0.7
		c0-0.2-0.1-0.5-0.1-0.7c0-0.3,0-0.5,0.1-0.7h-2.9c0,0.2,0.1,0.4,0.1,0.7c0,0.3,0,0.5-0.1,0.7c0,0.2,0.1,0.4,0.1,0.7
		c0,0.3,0,0.5-0.1,0.7h-1.5c0-0.2-0.1-0.5-0.1-0.7c0-0.3,0-0.5,0.1-0.7c0-0.2-0.1-0.5-0.1-0.7c0-0.3,0-0.5,0.1-0.7h0.5
		c0-0.2-0.1-0.4-0.1-0.7c0-0.3,0-0.5,0.1-0.7c0-0.2-0.1-0.4-0.1-0.7c0-0.3,0-0.5,0.1-0.7h0.4c0-0.2-0.1-0.5-0.1-0.7
		c0-0.3,0-0.5,0.1-0.7h0.5c0-0.2-0.1-0.5-0.1-0.7c0-0.3,0-0.5,0.1-0.7h0.4c0-0.2-0.1-0.5-0.1-0.7c0-0.3,0-0.5,0.1-0.7h2.2
		c0,0.2,0.1,0.4,0.1,0.7c0,0.3,0,0.5-0.1,0.7h0.4c0,0.2,0.1,0.4,0.1,0.7c0,0.3,0,0.5-0.1,0.7h0.5c0,0.2,0.1,0.4,0.1,0.7
		c0,0.3,0,0.5-0.1,0.7h0.4c0,0.2,0.1,0.4,0.1,0.7c0,0.3,0,0.5-0.1,0.7c0,0.2,0.1,0.4,0.1,0.7c0,0.3,0,0.5-0.1,0.7h0.5
		c0,0.2,0.1,0.4,0.1,0.7C49.7,44.1,49.7,44.4,49.7,44.6z M47.6,40.9c0-0.3,0-0.5,0.1-0.7h-0.4c0-0.2-0.1-0.5-0.1-0.7
		c0-0.3,0-0.5,0.1-0.7h-1.1c0,0.2,0.1,0.4,0.1,0.7c0,0.3,0,0.5-0.1,0.7h-0.4c0,0.2,0.1,0.4,0.1,0.7c0,0.3,0,0.5-0.1,0.7h1.8
		C47.6,41.4,47.6,41.2,47.6,40.9z"/>
	<path d="M57,37.3h-2.2c0,0.2,0.1,0.4,0.1,0.7c0,0.3,0,0.5-0.1,0.7c0,0.2,0.1,0.4,0.1,0.7c0,0.3,0,0.5-0.1,0.7
		c0,0.2,0.1,0.4,0.1,0.7c0,0.3,0,0.5-0.1,0.7c0,0.2,0.1,0.4,0.1,0.7c0,0.3,0,0.5-0.1,0.7c0,0.2,0.1,0.4,0.1,0.7c0,0.3,0,0.5-0.1,0.7
		c0,0.2,0.1,0.4,0.1,0.7c0,0.3,0,0.5-0.1,0.7h-1.5c0-0.2-0.1-0.5-0.1-0.7c0-0.3,0-0.5,0.1-0.7c0-0.2-0.1-0.5-0.1-0.7
		c0-0.3,0-0.5,0.1-0.7c0-0.2-0.1-0.4-0.1-0.7c0-0.3,0-0.5,0.1-0.7c0-0.2-0.1-0.4-0.1-0.7c0-0.3,0-0.5,0.1-0.7c0-0.2-0.1-0.5-0.1-0.7
		c0-0.3,0-0.5,0.1-0.7c0-0.2-0.1-0.5-0.1-0.7c0-0.3,0-0.5,0.1-0.7h-2.2c0-0.2-0.1-0.5-0.1-0.7c0-0.3,0-0.5,0.1-0.7H57
		c0,0.2,0.1,0.4,0.1,0.7C57,36.8,57,37.1,57,37.3z"/>
	<path d="M64.3,43.1c0,0.2,0.1,0.4,0.1,0.7c0,0.3,0,0.5-0.1,0.7h-0.7c0,0.2,0.1,0.4,0.1,0.7c0,0.3,0,0.5-0.1,0.7h-3.6
		c0-0.2-0.1-0.5-0.1-0.7c0-0.3,0-0.5,0.1-0.7h-0.7c0-0.2-0.1-0.5-0.1-0.7c0-0.3,0-0.5,0.1-0.7h-0.7c0-0.2-0.1-0.4-0.1-0.7
		c0-0.3,0-0.5,0.1-0.7c0-0.2-0.1-0.4-0.1-0.7c0-0.3,0-0.5,0.1-0.7c0-0.2-0.1-0.5-0.1-0.7c0-0.3,0-0.5,0.1-0.7h0.7
		c0-0.2-0.1-0.5-0.1-0.7c0-0.3,0-0.5,0.1-0.7h0.7c0-0.2-0.1-0.5-0.1-0.7c0-0.3,0-0.5,0.1-0.7h3.6c0,0.2,0.1,0.4,0.1,0.7
		c0,0.3,0,0.5-0.1,0.7h0.7c0,0.2,0.1,0.4,0.1,0.7c0,0.3,0,0.5-0.1,0.7h-1.5c0-0.2-0.1-0.5-0.1-0.7c0-0.3,0-0.5,0.1-0.7h-2.2
		c0,0.2,0.1,0.4,0.1,0.7c0,0.3,0,0.5-0.1,0.7h-0.7c0,0.2,0.1,0.4,0.1,0.7c0,0.3,0,0.5-0.1,0.7c0,0.2,0.1,0.4,0.1,0.7
		c0,0.3,0,0.5-0.1,0.7c0,0.2,0.1,0.4,0.1,0.7c0,0.3,0,0.5-0.1,0.7h0.7c0,0.2,0.1,0.4,0.1,0.7c0,0.3,0,0.5-0.1,0.7h2.2
		c0-0.2-0.1-0.5-0.1-0.7c0-0.3,0-0.5,0.1-0.7H64.3z"/>
	<path d="M71.6,44.6c0,0.2,0.1,0.4,0.1,0.7c0,0.3,0,0.5-0.1,0.7h-1.5c0-0.2-0.1-0.5-0.1-0.7c0-0.3,0-0.5,0.1-0.7
		c0-0.2-0.1-0.5-0.1-0.7c0-0.3,0-0.5,0.1-0.7h-2.9c0,0.2,0.1,0.4,0.1,0.7c0,0.3,0,0.5-0.1,0.7c0,0.2,0.1,0.4,0.1,0.7
		c0,0.3,0,0.5-0.1,0.7h-1.5c0-0.2-0.1-0.5-0.1-0.7c0-0.3,0-0.5,0.1-0.7c0-0.2-0.1-0.5-0.1-0.7c0-0.3,0-0.5,0.1-0.7h0.5
		c0-0.2-0.1-0.4-0.1-0.7c0-0.3,0-0.5,0.1-0.7c0-0.2-0.1-0.4-0.1-0.7c0-0.3,0-0.5,0.1-0.7h0.4c0-0.2-0.1-0.5-0.1-0.7
		c0-0.3,0-0.5,0.1-0.7h0.5c0-0.2-0.1-0.5-0.1-0.7c0-0.3,0-0.5,0.1-0.7h0.4c0-0.2-0.1-0.5-0.1-0.7c0-0.3,0-0.5,0.1-0.7h2.2
		c0,0.2,0.1,0.4,0.1,0.7c0,0.3,0,0.5-0.1,0.7h0.4c0,0.2,0.1,0.4,0.1,0.7c0,0.3,0,0.5-0.1,0.7h0.5c0,0.2,0.1,0.4,0.1,0.7
		c0,0.3,0,0.5-0.1,0.7H71c0,0.2,0.1,0.4,0.1,0.7c0,0.3,0,0.5-0.1,0.7c0,0.2,0.1,0.4,0.1,0.7c0,0.3,0,0.5-0.1,0.7h0.5
		c0,0.2,0.1,0.4,0.1,0.7C71.6,44.1,71.6,44.4,71.6,44.6z M69.5,40.9c0-0.3,0-0.5,0.1-0.7h-0.4c0-0.2-0.1-0.5-0.1-0.7
		c0-0.3,0-0.5,0.1-0.7h-1.1c0,0.2,0.1,0.4,0.1,0.7c0,0.3,0,0.5-0.1,0.7h-0.4c0,0.2,0.1,0.4,0.1,0.7c0,0.3,0,0.5-0.1,0.7h1.8
		C69.5,41.4,69.5,41.2,69.5,40.9z"/>
	<path d="M78.9,38c0,0.3,0,0.5-0.1,0.7c0,0.2,0.1,0.4,0.1,0.7c0,0.3,0,0.5-0.1,0.7h-0.5c0,0.2,0.1,0.4,0.1,0.7c0,0.3,0,0.5-0.1,0.7
		h-0.5c0,0.2,0.1,0.4,0.1,0.7c0,0.3,0,0.5-0.1,0.7h-0.4c0,0.2,0.1,0.4,0.1,0.7c0,0.3,0,0.5-0.1,0.7h-0.7c0,0.2,0.1,0.4,0.1,0.7
		c0,0.3,0,0.5-0.1,0.7h-1.5c0-0.2-0.1-0.5-0.1-0.7c0-0.3,0-0.5,0.1-0.7h-0.7c0-0.2-0.1-0.5-0.1-0.7c0-0.3,0-0.5,0.1-0.7h-0.4
		c0-0.2-0.1-0.4-0.1-0.7c0-0.3,0-0.5,0.1-0.7h-0.5c0-0.2-0.1-0.4-0.1-0.7c0-0.3,0-0.5,0.1-0.7H73c0-0.2-0.1-0.5-0.1-0.7
		c0-0.3,0-0.5,0.1-0.7c0-0.2-0.1-0.5-0.1-0.7c0-0.3,0-0.5,0.1-0.7c0-0.2-0.1-0.5-0.1-0.7c0-0.3,0-0.5,0.1-0.7h1.5
		c0,0.2,0.1,0.4,0.1,0.7c0,0.3,0,0.5-0.1,0.7c0,0.2,0.1,0.4,0.1,0.7c0,0.3,0,0.5-0.1,0.7c0,0.2,0.1,0.4,0.1,0.7c0,0.3,0,0.5-0.1,0.7
		H75c0,0.2,0.1,0.4,0.1,0.7c0,0.3,0,0.5-0.1,0.7h0.5c0,0.2,0.1,0.4,0.1,0.7c0,0.3,0,0.5-0.1,0.7h0.7c0-0.2-0.1-0.4-0.1-0.7
		c0-0.3,0-0.5,0.1-0.7h0.5c0-0.2-0.1-0.4-0.1-0.7c0-0.3,0-0.5,0.1-0.7h0.5c0-0.2-0.1-0.5-0.1-0.7c0-0.3,0-0.5,0.1-0.7
		c0-0.2-0.1-0.5-0.1-0.7c0-0.3,0-0.5,0.1-0.7c0-0.2-0.1-0.5-0.1-0.7c0-0.3,0-0.5,0.1-0.7h1.5c0,0.2,0.1,0.4,0.1,0.7
		c0,0.3,0,0.5-0.1,0.7C78.9,37.5,78.9,37.7,78.9,38z"/>
	<path d="M82.5,41.6c0,0.2,0.1,0.4,0.1,0.7c0,0.3,0,0.5-0.1,0.7c0,0.2,0.1,0.4,0.1,0.7c0,0.3,0,0.5-0.1,0.7h2.9
		c0,0.2,0.1,0.4,0.1,0.7c0,0.3,0,0.5-0.1,0.7h-4.4c0-0.2-0.1-0.5-0.1-0.7c0-0.3,0-0.5,0.1-0.7c0-0.2-0.1-0.5-0.1-0.7
		c0-0.3,0-0.5,0.1-0.7c0-0.2-0.1-0.4-0.1-0.7c0-0.3,0-0.5,0.1-0.7c0-0.2-0.1-0.4-0.1-0.7c0-0.3,0-0.5,0.1-0.7c0-0.2-0.1-0.5-0.1-0.7
		c0-0.3,0-0.5,0.1-0.7c0-0.2-0.1-0.5-0.1-0.7c0-0.3,0-0.5,0.1-0.7c0-0.2-0.1-0.5-0.1-0.7c0-0.3,0-0.5,0.1-0.7h4.4
		c0,0.2,0.1,0.4,0.1,0.7c0,0.3,0,0.5-0.1,0.7h-2.9c0,0.2,0.1,0.4,0.1,0.7c0,0.3,0,0.5-0.1,0.7c0,0.2,0.1,0.4,0.1,0.7
		c0,0.3,0,0.5-0.1,0.7h2.9c0,0.2,0.1,0.4,0.1,0.7c0,0.3,0,0.5-0.1,0.7H82.5z"/>
	<path class="st1" d="M42.4,13.4h-2.2c0,0.2,0.1,0.4,0.1,0.7c0,0.3,0,0.5-0.1,0.7c0,0.2,0.1,0.4,0.1,0.7c0,0.3,0,0.5-0.1,0.7
		c0,0.2,0.1,0.4,0.1,0.7c0,0.3,0,0.5-0.1,0.7c0,0.2,0.1,0.4,0.1,0.7c0,0.3,0,0.5-0.1,0.7c0,0.2,0.1,0.4,0.1,0.7c0,0.3,0,0.5-0.1,0.7
		c0,0.2,0.1,0.4,0.1,0.7c0,0.3,0,0.5-0.1,0.7h-1.5c0-0.2-0.1-0.4-0.1-0.7c0-0.3,0-0.5,0.1-0.7c0-0.2-0.1-0.4-0.1-0.7
		c0-0.3,0-0.5,0.1-0.7c0-0.2-0.1-0.5-0.1-0.7c0-0.3,0-0.5,0.1-0.7c0-0.2-0.1-0.5-0.1-0.7c0-0.3,0-0.5,0.1-0.7c0-0.2-0.1-0.4-0.1-0.7
		c0-0.3,0-0.5,0.1-0.7c0-0.2-0.1-0.5-0.1-0.7c0-0.3,0-0.5,0.1-0.7h-2.2c0-0.2-0.1-0.5-0.1-0.7c0-0.3,0-0.5,0.1-0.7h5.8
		c0,0.2,0.1,0.4,0.1,0.7C42.4,12.9,42.4,13.2,42.4,13.4z"/>
	<path class="st1" d="M45.3,16.3h0.5c0,0.2,0.1,0.4,0.1,0.7c0,0.3,0,0.5-0.1,0.7h-0.5c0,0.2,0.1,0.4,0.1,0.7c0,0.3,0,0.5-0.1,0.7
		c0,0.2,0.1,0.4,0.1,0.7c0,0.3,0,0.5-0.1,0.7c0,0.2,0.1,0.4,0.1,0.7c0,0.3,0,0.5-0.1,0.7h-1.5c0-0.2-0.1-0.4-0.1-0.7
		c0-0.3,0-0.5,0.1-0.7c0-0.2-0.1-0.4-0.1-0.7c0-0.3,0-0.5,0.1-0.7c0-0.2-0.1-0.5-0.1-0.7c0-0.3,0-0.5,0.1-0.7c0-0.2-0.1-0.5-0.1-0.7
		c0-0.3,0-0.5,0.1-0.7c0-0.2-0.1-0.4-0.1-0.7c0-0.3,0-0.5,0.1-0.7c0-0.2-0.1-0.5-0.1-0.7c0-0.3,0-0.5,0.1-0.7c0-0.2-0.1-0.5-0.1-0.7
		c0-0.3,0-0.5,0.1-0.7h1.5c0,0.2,0.1,0.4,0.1,0.7c0,0.3,0,0.5-0.1,0.7c0,0.2,0.1,0.4,0.1,0.7c0,0.3,0,0.5-0.1,0.7
		c0,0.2,0.1,0.4,0.1,0.7C45.4,15.8,45.3,16.1,45.3,16.3z M49.7,18.5c0,0.3,0,0.5-0.1,0.7c0,0.2,0.1,0.4,0.1,0.7c0,0.3,0,0.5-0.1,0.7
		c0,0.2,0.1,0.4,0.1,0.7c0,0.3,0,0.5-0.1,0.7h-1.5c0-0.2-0.1-0.4-0.1-0.7c0-0.3,0-0.5,0.1-0.7c0-0.2-0.1-0.4-0.1-0.7
		c0-0.3,0-0.5,0.1-0.7c0-0.2-0.1-0.5-0.1-0.7c0-0.3,0-0.5,0.1-0.7c0-0.2-0.1-0.5-0.1-0.7c0-0.3,0-0.5,0.1-0.7h-2.4
		c0-0.2-0.1-0.4-0.1-0.7c0-0.3,0-0.5,0.1-0.7h2.9c0,0.2,0.1,0.4,0.1,0.7c0,0.3,0,0.5-0.1,0.7h0.9c0,0.2,0.1,0.4,0.1,0.7
		c0,0.3,0,0.5-0.1,0.7C49.7,17.9,49.7,18.2,49.7,18.5z"/>
	<path class="st1" d="M56.3,21.4c0,0.3,0,0.5-0.1,0.7h-4.4c0-0.2-0.1-0.4-0.1-0.7c0-0.3,0-0.5,0.1-0.7h1.5c0-0.2-0.1-0.4-0.1-0.7
		c0-0.3,0-0.5,0.1-0.7c0-0.2-0.1-0.5-0.1-0.7c0-0.3,0-0.5,0.1-0.7c0-0.2-0.1-0.5-0.1-0.7c0-0.3,0-0.5,0.1-0.7h-1.1
		c0-0.2-0.1-0.4-0.1-0.7c0-0.3,0-0.5,0.1-0.7h2.6c0,0.2,0.1,0.4,0.1,0.7c0,0.3,0,0.5-0.1,0.7c0,0.2,0.1,0.4,0.1,0.7
		c0,0.3,0,0.5-0.1,0.7c0,0.2,0.1,0.4,0.1,0.7c0,0.3,0,0.5-0.1,0.7c0,0.2,0.1,0.4,0.1,0.7c0,0.3,0,0.5-0.1,0.7h1.5
		C56.3,20.9,56.3,21.1,56.3,21.4z M53.3,13.4c0-0.2-0.1-0.5-0.1-0.7c0-0.3,0-0.5,0.1-0.7h1.5c0,0.2,0.1,0.4,0.1,0.7
		c0,0.3,0,0.5-0.1,0.7H53.3z"/>
	<path class="st1" d="M63.9,20.7h-0.7c0,0.2,0.1,0.4,0.1,0.7c0,0.3,0,0.5-0.1,0.7h-4c0-0.2-0.1-0.4-0.1-0.7c0-0.3,0-0.5,0.1-0.7h3.3
		c0-0.2-0.1-0.4-0.1-0.7c0-0.3,0-0.5,0.1-0.7h-2.9c0-0.2-0.1-0.5-0.1-0.7c0-0.3,0-0.5,0.1-0.7h-0.7c0-0.2-0.1-0.5-0.1-0.7
		c0-0.3,0-0.5,0.1-0.7h0.7c0-0.2-0.1-0.4-0.1-0.7c0-0.3,0-0.5,0.1-0.7h4c0,0.2,0.1,0.4,0.1,0.7c0,0.3,0,0.5-0.1,0.7h-3.3
		c0,0.2,0.1,0.4,0.1,0.7c0,0.3,0,0.5-0.1,0.7h2.9c0,0.2,0.1,0.4,0.1,0.7c0,0.3,0,0.5-0.1,0.7h0.7c0,0.2,0.1,0.4,0.1,0.7
		C64,20.2,64,20.5,63.9,20.7z"/>
	<path class="st1" d="M78.2,21.4c0,0.3,0,0.5-0.1,0.7h-4.4c0-0.2-0.1-0.4-0.1-0.7c0-0.3,0-0.5,0.1-0.7h1.5c0-0.2-0.1-0.4-0.1-0.7
		c0-0.3,0-0.5,0.1-0.7c0-0.2-0.1-0.5-0.1-0.7c0-0.3,0-0.5,0.1-0.7c0-0.2-0.1-0.5-0.1-0.7c0-0.3,0-0.5,0.1-0.7h-1.1
		c0-0.2-0.1-0.4-0.1-0.7c0-0.3,0-0.5,0.1-0.7h2.6c0,0.2,0.1,0.4,0.1,0.7c0,0.3,0,0.5-0.1,0.7c0,0.2,0.1,0.4,0.1,0.7
		c0,0.3,0,0.5-0.1,0.7c0,0.2,0.1,0.4,0.1,0.7c0,0.3,0,0.5-0.1,0.7c0,0.2,0.1,0.4,0.1,0.7c0,0.3,0,0.5-0.1,0.7h1.5
		C78.2,20.9,78.2,21.1,78.2,21.4z M75.2,13.4c0-0.2-0.1-0.5-0.1-0.7c0-0.3,0-0.5,0.1-0.7h1.5c0,0.2,0.1,0.4,0.1,0.7
		c0,0.3,0,0.5-0.1,0.7H75.2z"/>
	<path class="st1" d="M85.8,20.7h-0.7c0,0.2,0.1,0.4,0.1,0.7c0,0.3,0,0.5-0.1,0.7h-4c0-0.2-0.1-0.4-0.1-0.7c0-0.3,0-0.5,0.1-0.7h3.3
		c0-0.2-0.1-0.4-0.1-0.7c0-0.3,0-0.5,0.1-0.7h-2.9c0-0.2-0.1-0.5-0.1-0.7c0-0.3,0-0.5,0.1-0.7h-0.7c0-0.2-0.1-0.5-0.1-0.7
		c0-0.3,0-0.5,0.1-0.7h0.7c0-0.2-0.1-0.4-0.1-0.7c0-0.3,0-0.5,0.1-0.7h4c0,0.2,0.1,0.4,0.1,0.7c0,0.3,0,0.5-0.1,0.7h-3.3
		c0,0.2,0.1,0.4,0.1,0.7c0,0.3,0,0.5-0.1,0.7h2.9c0,0.2,0.1,0.4,0.1,0.7c0,0.3,0,0.5-0.1,0.7h0.7c0,0.2,0.1,0.4,0.1,0.7
		C85.9,20.2,85.9,20.5,85.8,20.7z"/>
	<path class="st1" d="M95.8,16.3h0.5c0,0.2,0.1,0.4,0.1,0.7c0,0.3,0,0.5-0.1,0.7c0,0.2,0.1,0.4,0.1,0.7c0,0.3,0,0.5-0.1,0.7
		c0,0.2,0.1,0.4,0.1,0.7c0,0.3,0,0.5-0.1,0.7c0,0.2,0.1,0.4,0.1,0.7c0,0.3,0,0.5-0.1,0.7h-1.5c0-0.2-0.1-0.4-0.1-0.7
		c0-0.3,0-0.5,0.1-0.7c0-0.2-0.1-0.4-0.1-0.7c0-0.3,0-0.5,0.1-0.7c0-0.2-0.1-0.5-0.1-0.7c0-0.3,0-0.5,0.1-0.7c0-0.2-0.1-0.5-0.1-0.7
		c0-0.3,0-0.5,0.1-0.7c0-0.2-0.1-0.4-0.1-0.7c0-0.3,0-0.5,0.1-0.7h0.9c0,0.2,0.1,0.4,0.1,0.7C95.9,15.8,95.9,16.1,95.8,16.3z
		 M97.9,16.3h0.5c0,0.2,0.1,0.4,0.1,0.7c0,0.3,0,0.5-0.1,0.7c0,0.2,0.1,0.4,0.1,0.7c0,0.3,0,0.5-0.1,0.7c0,0.2,0.1,0.4,0.1,0.7
		c0,0.3,0,0.5-0.1,0.7c0,0.2,0.1,0.4,0.1,0.7c0,0.3,0,0.5-0.1,0.7h-1.1c0-0.2-0.1-0.4-0.1-0.7c0-0.3,0-0.5,0.1-0.7
		c0-0.2-0.1-0.4-0.1-0.7c0-0.3,0-0.5,0.1-0.7c0-0.2-0.1-0.5-0.1-0.7c0-0.3,0-0.5,0.1-0.7c0-0.2-0.1-0.5-0.1-0.7c0-0.3,0-0.5,0.1-0.7
		h-0.9c0-0.2-0.1-0.4-0.1-0.7c0-0.3,0-0.5,0.1-0.7h1.5c0,0.2,0.1,0.4,0.1,0.7C97.9,15.8,97.9,16.1,97.9,16.3z M100.8,18.5
		c0,0.3,0,0.5-0.1,0.7c0,0.2,0.1,0.4,0.1,0.7c0,0.3,0,0.5-0.1,0.7c0,0.2,0.1,0.4,0.1,0.7c0,0.3,0,0.5-0.1,0.7h-1.5
		c0-0.2-0.1-0.4-0.1-0.7c0-0.3,0-0.5,0.1-0.7c0-0.2-0.1-0.4-0.1-0.7c0-0.3,0-0.5,0.1-0.7c0-0.2-0.1-0.5-0.1-0.7c0-0.3,0-0.5,0.1-0.7
		c0-0.2-0.1-0.5-0.1-0.7c0-0.3,0-0.5,0.1-0.7h-0.9c0-0.2-0.1-0.4-0.1-0.7c0-0.3,0-0.5,0.1-0.7h1.6c0,0.2,0.1,0.4,0.1,0.7
		c0,0.3,0,0.5-0.1,0.7h0.7c0,0.2,0.1,0.4,0.1,0.7c0,0.3,0,0.5-0.1,0.7C100.8,17.9,100.8,18.2,100.8,18.5z"/>
	<path class="st1" d="M108.1,16.3h-0.5c0,0.2,0.1,0.4,0.1,0.7c0,0.3,0,0.5-0.1,0.7H107c0,0.2,0.1,0.4,0.1,0.7c0,0.3,0,0.5-0.1,0.7
		h-0.4c0,0.2,0.1,0.4,0.1,0.7c0,0.3,0,0.5-0.1,0.7h-0.5c0,0.2,0.1,0.4,0.1,0.7c0,0.3,0,0.5-0.1,0.7h-0.4c0,0.2,0.1,0.4,0.1,0.7
		c0,0.3,0,0.5-0.1,0.7H105c0,0.2,0.1,0.4,0.1,0.7c0,0.3,0,0.5-0.1,0.7h-2.2c0-0.2-0.1-0.5-0.1-0.7c0-0.3,0-0.5,0.1-0.7h1.5
		c0-0.2-0.1-0.5-0.1-0.7c0-0.3,0-0.5,0.1-0.7c0-0.2-0.1-0.4-0.1-0.7c0-0.3,0-0.5,0.1-0.7h-0.7c0-0.2-0.1-0.4-0.1-0.7
		c0-0.3,0-0.5,0.1-0.7h-0.4c0-0.2-0.1-0.5-0.1-0.7c0-0.3,0-0.5,0.1-0.7h-0.5c0-0.2-0.1-0.5-0.1-0.7c0-0.3,0-0.5,0.1-0.7H102
		c0-0.2-0.1-0.4-0.1-0.7c0-0.3,0-0.5,0.1-0.7h1.5c0,0.2,0.1,0.4,0.1,0.7c0,0.3,0,0.5-0.1,0.7h0.5c0,0.2,0.1,0.4,0.1,0.7
		c0,0.3,0,0.5-0.1,0.7h0.5c0,0.2,0.1,0.4,0.1,0.7c0,0.3,0,0.5-0.1,0.7c0,0.2,0.1,0.4,0.1,0.7c0,0.3,0,0.5-0.1,0.7h0.5
		c0-0.2-0.1-0.4-0.1-0.7c0-0.3,0-0.5,0.1-0.7h0.4c0-0.2-0.1-0.5-0.1-0.7c0-0.3,0-0.5,0.1-0.7h0.5c0-0.2-0.1-0.5-0.1-0.7
		c0-0.3,0-0.5,0.1-0.7h0.5c0-0.2-0.1-0.4-0.1-0.7c0-0.3,0-0.5,0.1-0.7h1.5c0,0.2,0.1,0.4,0.1,0.7C108.1,15.8,108.1,16.1,108.1,16.3z
		"/>
	<path class="st1" d="M42.4,38.2h-0.7c0,0.2,0.1,0.4,0.1,0.7c0,0.3,0,0.5-0.1,0.7h0.7c0,0.2,0.1,0.4,0.1,0.7c0,0.3,0,0.5-0.1,0.7
		c0,0.2,0.1,0.4,0.1,0.7c0,0.3,0,0.5-0.1,0.7h-0.7c0,0.2,0.1,0.4,0.1,0.7c0,0.3,0,0.5-0.1,0.7h-5.1c0-0.2-0.1-0.5-0.1-0.7
		c0-0.3,0-0.5,0.1-0.7c0-0.2-0.1-0.5-0.1-0.7c0-0.3,0-0.5,0.1-0.7c0-0.2-0.1-0.4-0.1-0.7c0-0.3,0-0.5,0.1-0.7c0-0.2-0.1-0.4-0.1-0.7
		c0-0.3,0-0.5,0.1-0.7c0-0.2-0.1-0.5-0.1-0.7c0-0.3,0-0.5,0.1-0.7c0-0.2-0.1-0.5-0.1-0.7c0-0.3,0-0.5,0.1-0.7c0-0.2-0.1-0.5-0.1-0.7
		c0-0.3,0-0.5,0.1-0.7h5.1c0,0.2,0.1,0.4,0.1,0.7c0,0.3,0,0.5-0.1,0.7h0.7c0,0.2,0.1,0.4,0.1,0.7c0,0.3,0,0.5-0.1,0.7
		c0,0.2,0.1,0.4,0.1,0.7C42.4,37.7,42.4,38,42.4,38.2z M40.8,37.5c0-0.3,0-0.5,0.1-0.7c0-0.2-0.1-0.5-0.1-0.7c0-0.3,0-0.5,0.1-0.7
		H38c0,0.2,0.1,0.4,0.1,0.7c0,0.3,0,0.5-0.1,0.7c0,0.2,0.1,0.4,0.1,0.7c0,0.3,0,0.5-0.1,0.7h2.9C40.9,38,40.8,37.7,40.8,37.5z
		 M40.8,40.4c0-0.3,0-0.5,0.1-0.7H38c0,0.2,0.1,0.4,0.1,0.7c0,0.3,0,0.5-0.1,0.7c0,0.2,0.1,0.4,0.1,0.7c0,0.3,0,0.5-0.1,0.7h2.9
		c0-0.2-0.1-0.5-0.1-0.7c0-0.3,0-0.5,0.1-0.7C40.9,40.9,40.8,40.7,40.8,40.4z"/>
	<path class="st1" d="M49.7,42.6c0,0.2,0.1,0.4,0.1,0.7c0,0.3,0,0.5-0.1,0.7h-1.5c0-0.2-0.1-0.5-0.1-0.7c0-0.3,0-0.5,0.1-0.7
		c0-0.2-0.1-0.5-0.1-0.7c0-0.3,0-0.5,0.1-0.7h-2.9c0,0.2,0.1,0.4,0.1,0.7c0,0.3,0,0.5-0.1,0.7c0,0.2,0.1,0.4,0.1,0.7
		c0,0.3,0,0.5-0.1,0.7h-1.5c0-0.2-0.1-0.5-0.1-0.7c0-0.3,0-0.5,0.1-0.7c0-0.2-0.1-0.5-0.1-0.7c0-0.3,0-0.5,0.1-0.7h0.5
		c0-0.2-0.1-0.4-0.1-0.7c0-0.3,0-0.5,0.1-0.7c0-0.2-0.1-0.4-0.1-0.7c0-0.3,0-0.5,0.1-0.7h0.4c0-0.2-0.1-0.5-0.1-0.7
		c0-0.3,0-0.5,0.1-0.7h0.5c0-0.2-0.1-0.5-0.1-0.7c0-0.3,0-0.5,0.1-0.7h0.4c0-0.2-0.1-0.5-0.1-0.7c0-0.3,0-0.5,0.1-0.7h2.2
		c0,0.2,0.1,0.4,0.1,0.7c0,0.3,0,0.5-0.1,0.7h0.4c0,0.2,0.1,0.4,0.1,0.7c0,0.3,0,0.5-0.1,0.7h0.5c0,0.2,0.1,0.4,0.1,0.7
		c0,0.3,0,0.5-0.1,0.7h0.4c0,0.2,0.1,0.4,0.1,0.7c0,0.3,0,0.5-0.1,0.7c0,0.2,0.1,0.4,0.1,0.7c0,0.3,0,0.5-0.1,0.7h0.5
		c0,0.2,0.1,0.4,0.1,0.7C49.7,42.1,49.7,42.4,49.7,42.6z M47.6,38.9c0-0.3,0-0.5,0.1-0.7h-0.4c0-0.2-0.1-0.5-0.1-0.7
		c0-0.3,0-0.5,0.1-0.7h-1.1c0,0.2,0.1,0.4,0.1,0.7c0,0.3,0,0.5-0.1,0.7h-0.4c0,0.2,0.1,0.4,0.1,0.7c0,0.3,0,0.5-0.1,0.7h1.8
		C47.6,39.4,47.6,39.2,47.6,38.9z"/>
	<path class="st1" d="M57,35.3h-2.2c0,0.2,0.1,0.4,0.1,0.7c0,0.3,0,0.5-0.1,0.7c0,0.2,0.1,0.4,0.1,0.7c0,0.3,0,0.5-0.1,0.7
		c0,0.2,0.1,0.4,0.1,0.7c0,0.3,0,0.5-0.1,0.7c0,0.2,0.1,0.4,0.1,0.7c0,0.3,0,0.5-0.1,0.7c0,0.2,0.1,0.4,0.1,0.7c0,0.3,0,0.5-0.1,0.7
		c0,0.2,0.1,0.4,0.1,0.7c0,0.3,0,0.5-0.1,0.7h-1.5c0-0.2-0.1-0.5-0.1-0.7c0-0.3,0-0.5,0.1-0.7c0-0.2-0.1-0.5-0.1-0.7
		c0-0.3,0-0.5,0.1-0.7c0-0.2-0.1-0.4-0.1-0.7c0-0.3,0-0.5,0.1-0.7c0-0.2-0.1-0.4-0.1-0.7c0-0.3,0-0.5,0.1-0.7c0-0.2-0.1-0.5-0.1-0.7
		c0-0.3,0-0.5,0.1-0.7c0-0.2-0.1-0.5-0.1-0.7c0-0.3,0-0.5,0.1-0.7h-2.2c0-0.2-0.1-0.5-0.1-0.7c0-0.3,0-0.5,0.1-0.7H57
		c0,0.2,0.1,0.4,0.1,0.7C57,34.8,57,35.1,57,35.3z"/>
	<path class="st1" d="M64.3,41.1c0,0.2,0.1,0.4,0.1,0.7c0,0.3,0,0.5-0.1,0.7h-0.7c0,0.2,0.1,0.4,0.1,0.7c0,0.3,0,0.5-0.1,0.7h-3.6
		c0-0.2-0.1-0.5-0.1-0.7c0-0.3,0-0.5,0.1-0.7h-0.7c0-0.2-0.1-0.5-0.1-0.7c0-0.3,0-0.5,0.1-0.7h-0.7c0-0.2-0.1-0.4-0.1-0.7
		c0-0.3,0-0.5,0.1-0.7c0-0.2-0.1-0.4-0.1-0.7c0-0.3,0-0.5,0.1-0.7c0-0.2-0.1-0.5-0.1-0.7c0-0.3,0-0.5,0.1-0.7h0.7
		c0-0.2-0.1-0.5-0.1-0.7c0-0.3,0-0.5,0.1-0.7h0.7c0-0.2-0.1-0.5-0.1-0.7c0-0.3,0-0.5,0.1-0.7h3.6c0,0.2,0.1,0.4,0.1,0.7
		c0,0.3,0,0.5-0.1,0.7h0.7c0,0.2,0.1,0.4,0.1,0.7c0,0.3,0,0.5-0.1,0.7h-1.5c0-0.2-0.1-0.5-0.1-0.7c0-0.3,0-0.5,0.1-0.7h-2.2
		c0,0.2,0.1,0.4,0.1,0.7c0,0.3,0,0.5-0.1,0.7h-0.7c0,0.2,0.1,0.4,0.1,0.7c0,0.3,0,0.5-0.1,0.7c0,0.2,0.1,0.4,0.1,0.7
		c0,0.3,0,0.5-0.1,0.7c0,0.2,0.1,0.4,0.1,0.7c0,0.3,0,0.5-0.1,0.7h0.7c0,0.2,0.1,0.4,0.1,0.7c0,0.3,0,0.5-0.1,0.7h2.2
		c0-0.2-0.1-0.5-0.1-0.7c0-0.3,0-0.5,0.1-0.7H64.3z"/>
	<path class="st1" d="M71.6,42.6c0,0.2,0.1,0.4,0.1,0.7c0,0.3,0,0.5-0.1,0.7h-1.5c0-0.2-0.1-0.5-0.1-0.7c0-0.3,0-0.5,0.1-0.7
		c0-0.2-0.1-0.5-0.1-0.7c0-0.3,0-0.5,0.1-0.7h-2.9c0,0.2,0.1,0.4,0.1,0.7c0,0.3,0,0.5-0.1,0.7c0,0.2,0.1,0.4,0.1,0.7
		c0,0.3,0,0.5-0.1,0.7h-1.5c0-0.2-0.1-0.5-0.1-0.7c0-0.3,0-0.5,0.1-0.7c0-0.2-0.1-0.5-0.1-0.7c0-0.3,0-0.5,0.1-0.7h0.5
		c0-0.2-0.1-0.4-0.1-0.7c0-0.3,0-0.5,0.1-0.7c0-0.2-0.1-0.4-0.1-0.7c0-0.3,0-0.5,0.1-0.7h0.4c0-0.2-0.1-0.5-0.1-0.7
		c0-0.3,0-0.5,0.1-0.7h0.5c0-0.2-0.1-0.5-0.1-0.7c0-0.3,0-0.5,0.1-0.7h0.4c0-0.2-0.1-0.5-0.1-0.7c0-0.3,0-0.5,0.1-0.7h2.2
		c0,0.2,0.1,0.4,0.1,0.7c0,0.3,0,0.5-0.1,0.7h0.4c0,0.2,0.1,0.4,0.1,0.7c0,0.3,0,0.5-0.1,0.7h0.5c0,0.2,0.1,0.4,0.1,0.7
		c0,0.3,0,0.5-0.1,0.7H71c0,0.2,0.1,0.4,0.1,0.7c0,0.3,0,0.5-0.1,0.7c0,0.2,0.1,0.4,0.1,0.7c0,0.3,0,0.5-0.1,0.7h0.5
		c0,0.2,0.1,0.4,0.1,0.7C71.6,42.1,71.6,42.4,71.6,42.6z M69.5,38.9c0-0.3,0-0.5,0.1-0.7h-0.4c0-0.2-0.1-0.5-0.1-0.7
		c0-0.3,0-0.5,0.1-0.7h-1.1c0,0.2,0.1,0.4,0.1,0.7c0,0.3,0,0.5-0.1,0.7h-0.4c0,0.2,0.1,0.4,0.1,0.7c0,0.3,0,0.5-0.1,0.7h1.8
		C69.5,39.4,69.5,39.2,69.5,38.9z"/>
	<path class="st1" d="M78.9,36c0,0.3,0,0.5-0.1,0.7c0,0.2,0.1,0.4,0.1,0.7c0,0.3,0,0.5-0.1,0.7h-0.5c0,0.2,0.1,0.4,0.1,0.7
		c0,0.3,0,0.5-0.1,0.7h-0.5c0,0.2,0.1,0.4,0.1,0.7c0,0.3,0,0.5-0.1,0.7h-0.4c0,0.2,0.1,0.4,0.1,0.7c0,0.3,0,0.5-0.1,0.7h-0.7
		c0,0.2,0.1,0.4,0.1,0.7c0,0.3,0,0.5-0.1,0.7h-1.5c0-0.2-0.1-0.5-0.1-0.7c0-0.3,0-0.5,0.1-0.7h-0.7c0-0.2-0.1-0.5-0.1-0.7
		c0-0.3,0-0.5,0.1-0.7h-0.4c0-0.2-0.1-0.4-0.1-0.7c0-0.3,0-0.5,0.1-0.7h-0.5c0-0.2-0.1-0.4-0.1-0.7c0-0.3,0-0.5,0.1-0.7H73
		c0-0.2-0.1-0.5-0.1-0.7c0-0.3,0-0.5,0.1-0.7c0-0.2-0.1-0.5-0.1-0.7c0-0.3,0-0.5,0.1-0.7c0-0.2-0.1-0.5-0.1-0.7c0-0.3,0-0.5,0.1-0.7
		h1.5c0,0.2,0.1,0.4,0.1,0.7c0,0.3,0,0.5-0.1,0.7c0,0.2,0.1,0.4,0.1,0.7c0,0.3,0,0.5-0.1,0.7c0,0.2,0.1,0.4,0.1,0.7
		c0,0.3,0,0.5-0.1,0.7H75c0,0.2,0.1,0.4,0.1,0.7c0,0.3,0,0.5-0.1,0.7h0.5c0,0.2,0.1,0.4,0.1,0.7c0,0.3,0,0.5-0.1,0.7h0.7
		c0-0.2-0.1-0.4-0.1-0.7c0-0.3,0-0.5,0.1-0.7h0.5c0-0.2-0.1-0.4-0.1-0.7c0-0.3,0-0.5,0.1-0.7h0.5c0-0.2-0.1-0.5-0.1-0.7
		c0-0.3,0-0.5,0.1-0.7c0-0.2-0.1-0.5-0.1-0.7c0-0.3,0-0.5,0.1-0.7c0-0.2-0.1-0.5-0.1-0.7c0-0.3,0-0.5,0.1-0.7h1.5
		c0,0.2,0.1,0.4,0.1,0.7c0,0.3,0,0.5-0.1,0.7C78.9,35.5,78.9,35.7,78.9,36z"/>
	<path class="st1" d="M82.5,39.6c0,0.2,0.1,0.4,0.1,0.7c0,0.3,0,0.5-0.1,0.7c0,0.2,0.1,0.4,0.1,0.7c0,0.3,0,0.5-0.1,0.7h2.9
		c0,0.2,0.1,0.4,0.1,0.7c0,0.3,0,0.5-0.1,0.7h-4.4c0-0.2-0.1-0.5-0.1-0.7c0-0.3,0-0.5,0.1-0.7c0-0.2-0.1-0.5-0.1-0.7
		c0-0.3,0-0.5,0.1-0.7c0-0.2-0.1-0.4-0.1-0.7c0-0.3,0-0.5,0.1-0.7c0-0.2-0.1-0.4-0.1-0.7c0-0.3,0-0.5,0.1-0.7c0-0.2-0.1-0.5-0.1-0.7
		c0-0.3,0-0.5,0.1-0.7c0-0.2-0.1-0.5-0.1-0.7c0-0.3,0-0.5,0.1-0.7c0-0.2-0.1-0.5-0.1-0.7c0-0.3,0-0.5,0.1-0.7h4.4
		c0,0.2,0.1,0.4,0.1,0.7c0,0.3,0,0.5-0.1,0.7h-2.9c0,0.2,0.1,0.4,0.1,0.7c0,0.3,0,0.5-0.1,0.7c0,0.2,0.1,0.4,0.1,0.7
		c0,0.3,0,0.5-0.1,0.7h2.9c0,0.2,0.1,0.4,0.1,0.7c0,0.3,0,0.5-0.1,0.7H82.5z"/>
</g>
</svg>
