<?xml version="1.0" encoding="utf-8"?>
<!-- Generator: Adobe Illustrator 22.0.1, SVG Export Plug-In . SVG Version: 6.00 Build 0)  -->
<svg version="1.1" id="BELIDAYS" xmlns="http://www.w3.org/2000/svg" xmlns:xlink="http://www.w3.org/1999/xlink" x="0px" y="0px"
	 viewBox="0 0 100 100" style="enable-background:new 0 0 100 100;" xml:space="preserve">
<style type="text/css">
	.st0{fill:url(#sky_1_);}
	.st1{fill:url(#water_1_);}
	.st2{opacity:0.3;fill:url(#SVGID_16_);enable-background:new    ;}
	.st3{opacity:0.3;fill:url(#SVGID_17_);enable-background:new    ;}
	.st4{opacity:0.3;fill:url(#SVGID_18_);enable-background:new    ;}
	.st5{opacity:0.3;fill:url(#SVGID_19_);enable-background:new    ;}
	.st6{opacity:0.3;fill:url(#SVGID_20_);enable-background:new    ;}
	.st7{opacity:0.3;fill:url(#SVGID_21_);enable-background:new    ;}
	.st8{opacity:0.3;fill:url(#SVGID_22_);enable-background:new    ;}
	.st9{opacity:0.3;fill:url(#SVGID_23_);enable-background:new    ;}
	.st10{opacity:0.3;fill:url(#SVGID_24_);enable-background:new    ;}
	.st11{opacity:0.3;fill:url(#SVGID_25_);enable-background:new    ;}
	.st12{opacity:0.3;fill:url(#SVGID_26_);enable-background:new    ;}
	.st13{opacity:0.3;fill:url(#SVGID_27_);enable-background:new    ;}
	.st14{opacity:0.3;fill:url(#SVGID_28_);enable-background:new    ;}
	.st15{opacity:0.3;fill:url(#SVGID_29_);enable-background:new    ;}
	.st16{opacity:0.3;fill:url(#SVGID_30_);enable-background:new    ;}
	.st17{opacity:0.3;fill:url(#SVGID_31_);enable-background:new    ;}
	.st18{opacity:0.3;fill:url(#SVGID_32_);enable-background:new    ;}
	.st19{opacity:0.3;fill:url(#SVGID_33_);enable-background:new    ;}
	.st20{opacity:0.3;fill:url(#SVGID_34_);enable-background:new    ;}
	.st21{opacity:0.3;fill:url(#SVGID_35_);enable-background:new    ;}
	.st22{opacity:0.3;fill:url(#SVGID_36_);enable-background:new    ;}
	.st23{opacity:0.3;fill:url(#SVGID_37_);enable-background:new    ;}
	.st24{opacity:0.3;fill:url(#SVGID_38_);enable-background:new    ;}
	.st25{opacity:0.3;fill:url(#SVGID_39_);enable-background:new    ;}
	.st26{opacity:0.3;fill:url(#SVGID_40_);enable-background:new    ;}
	.st27{opacity:0.3;fill:url(#SVGID_41_);enable-background:new    ;}
	.st28{opacity:0.3;fill:url(#SVGID_42_);enable-background:new    ;}
	.st29{opacity:0.3;fill:url(#SVGID_43_);enable-background:new    ;}
	.st30{opacity:0.3;fill:url(#SVGID_44_);enable-background:new    ;}
	.st31{opacity:0.3;fill:url(#SVGID_45_);enable-background:new    ;}
	.st32{opacity:0.3;fill:url(#SVGID_46_);enable-background:new    ;}
	.st33{opacity:0.3;fill:url(#SVGID_47_);enable-background:new    ;}
	.st34{opacity:0.3;fill:url(#SVGID_48_);enable-background:new    ;}
	.st35{opacity:0.3;fill:url(#SVGID_49_);enable-background:new    ;}
	.st36{opacity:0.3;fill:url(#SVGID_50_);enable-background:new    ;}
	.st37{opacity:0.3;fill:url(#SVGID_51_);enable-background:new    ;}
	.st38{opacity:0.3;fill:url(#SVGID_52_);enable-background:new    ;}
	.st39{opacity:0.3;fill:url(#SVGID_53_);enable-background:new    ;}
	.st40{fill:#CAFFFF;}
	.st41{fill:#3D86AA;}
	.st42{clip-path:url(#SVGID_56_);}
	.st43{clip-path:url(#SVGID_57_);fill:url(#SVGID_58_);}
	.st44{fill:url(#SVGID_59_);}
	.st45{clip-path:url(#SVGID_62_);}
	.st46{clip-path:url(#SVGID_63_);fill:url(#SVGID_64_);}
	.st47{fill:url(#SVGID_65_);}
	.st48{clip-path:url(#SVGID_68_);}
	.st49{clip-path:url(#SVGID_69_);fill:url(#SVGID_70_);}
	.st50{fill:url(#SVGID_71_);}
	.st51{clip-path:url(#SVGID_74_);}
	.st52{clip-path:url(#SVGID_75_);fill:url(#SVGID_76_);}
	.st53{fill:url(#SVGID_77_);}
	.st54{fill:url(#SVGID_78_);}
	.st55{clip-path:url(#SVGID_81_);}
	.st56{clip-path:url(#SVGID_82_);fill:url(#SVGID_83_);}
	.st57{clip-path:url(#SVGID_86_);}
	.st58{clip-path:url(#SVGID_87_);fill:url(#SVGID_88_);}
	.st59{clip-path:url(#SVGID_91_);}
	.st60{clip-path:url(#SVGID_92_);fill:url(#SVGID_93_);}
	.st61{clip-path:url(#SVGID_96_);}
	.st62{clip-path:url(#SVGID_97_);fill:url(#SVGID_98_);}
	.st63{clip-path:url(#SVGID_101_);}
	.st64{clip-path:url(#SVGID_102_);fill:url(#SVGID_103_);}
	.st65{clip-path:url(#SVGID_106_);}
	.st66{clip-path:url(#SVGID_107_);fill:url(#SVGID_108_);}
	.st67{clip-path:url(#SVGID_111_);}
	.st68{clip-path:url(#SVGID_112_);fill:url(#SVGID_113_);}
	.st69{clip-path:url(#SVGID_116_);}
	.st70{clip-path:url(#SVGID_117_);fill:url(#SVGID_118_);}
	.st71{fill:url(#SVGID_119_);}
	.st72{clip-path:url(#SVGID_122_);}
	.st73{clip-path:url(#SVGID_123_);fill:url(#SVGID_124_);}
	.st74{fill:url(#SVGID_125_);}
	.st75{clip-path:url(#SVGID_128_);}
	.st76{clip-path:url(#SVGID_129_);fill:url(#SVGID_130_);}
	.st77{fill:url(#SVGID_131_);}
	.st78{clip-path:url(#SVGID_134_);}
	.st79{clip-path:url(#SVGID_135_);fill:url(#SVGID_136_);}
	.st80{fill:url(#SVGID_137_);}
	.st81{fill:url(#SVGID_138_);}
	.st82{opacity:0.8;fill:#A6EEF4;enable-background:new    ;}
	.st83{fill:#A6EEF4;}
	.st84{opacity:0.8;fill:#C2F6FF;enable-background:new    ;}
	.st85{opacity:0.3;fill:url(#SVGID_139_);enable-background:new    ;}
	.st86{opacity:0.3;fill:url(#SVGID_140_);enable-background:new    ;}
	.st87{opacity:8.000000e-02;fill:url(#shadow_2_);enable-background:new    ;}
	.st88{fill:#B6623D;}
	.st89{fill:#87C03B;}
	.st90{fill:#FFC36C;}
	.st91{opacity:8.000000e-02;fill:url(#shadow_4_);enable-background:new    ;}
	.st92{opacity:0.4;fill:#3A1F64;}
</style>
<linearGradient id="sky_1_" gradientUnits="userSpaceOnUse" x1="50" y1="101.6115" x2="50" y2="57.1713" gradientTransform="matrix(1 0 0 -1 0 102)">
	<stop  offset="0" style="stop-color:#14D2ED"/>
	<stop  offset="1" style="stop-color:#9DEBFF"/>
</linearGradient>
<rect id="sky" class="st0" width="100" height="47.3"/>
<linearGradient id="water_1_" gradientUnits="userSpaceOnUse" x1="50" y1="14.1921" x2="50" y2="57.8493" gradientTransform="matrix(1 0 0 -1 0 102)">
	<stop  offset="0" style="stop-color:#148CED"/>
	<stop  offset="1" style="stop-color:#6BB8E2"/>
</linearGradient>
<rect id="water" y="44.2" class="st1" width="100" height="55.8"/>
<g id="waves">
	
		<linearGradient id="SVGID_16_" gradientUnits="userSpaceOnUse" x1="65.25" y1="25.7413" x2="65.25" y2="27.27" gradientTransform="matrix(1 0 0 -1 0 102)">
		<stop  offset="0" style="stop-color:#4CB8FF"/>
		<stop  offset="1" style="stop-color:#8BE1FF"/>
	</linearGradient>
	<path class="st2" d="M51.8,75.7L67.9,76c0.1,0,0.1,0,0.2,0c3.6,0.1,7.1,0.3,10.6-0.2c-3-0.1-6.3,0.7-9.1-0.5
		c-0.1,0-0.2-0.1-0.3-0.1c-0.1,0-0.2-0.1-0.4-0.1l0,0C63.2,75.9,57.5,75.7,51.8,75.7z"/>
	
		<linearGradient id="SVGID_17_" gradientUnits="userSpaceOnUse" x1="65.05" y1="15.43" x2="65.05" y2="17.1025" gradientTransform="matrix(1 0 0 -1 0 102)">
		<stop  offset="0" style="stop-color:#4CB8FF"/>
		<stop  offset="1" style="stop-color:#8BE1FF"/>
	</linearGradient>
	<path class="st3" d="M46.9,85.8c1.2-0.1,2.4,0,3.5,0.1c-0.1,0-0.2,0-0.2,0c0.1,0,0.2,0,0.3,0c-0.1,0-0.2,0-0.4,0H50
		c7.5,0.5,14.9,0.1,22.4,0.4c0.1,0,0.1,0,0.2,0c3.6,0.1,7.1,0.3,10.6-0.2c-3-0.1-6.3,0.7-9.1-0.5c-0.1,0-0.2-0.1-0.3-0.1
		c-0.1,0-0.2-0.1-0.4-0.1l0,0C67.8,86.2,62,86,56.3,86c3.3-0.2,6.6,0,9.8-0.6c-1.2-0.2-2.4,0-3.5-0.1h-0.1c-0.5,0-1,0-1.5,0h-0.1
		c-0.9,0-1.8,0-2.7,0h-0.1c-0.6,0-1.1,0-1.6,0h-0.1C53.2,85.5,49.9,84.8,46.9,85.8z"/>
	
		<linearGradient id="SVGID_18_" gradientUnits="userSpaceOnUse" x1="48.85" y1="16.1732" x2="48.85" y2="16.255" gradientTransform="matrix(1 0 0 -1 0 102)">
		<stop  offset="0" style="stop-color:#4CB8FF"/>
		<stop  offset="1" style="stop-color:#8BE1FF"/>
	</linearGradient>
	<path class="st4" d="M48.5,85.8c0.2,0,0.5,0,0.7,0.1C49,85.8,48.8,85.8,48.5,85.8z"/>
	
		<linearGradient id="SVGID_19_" gradientUnits="userSpaceOnUse" x1="51.7" y1="15.8744" x2="51.7" y2="16.138" gradientTransform="matrix(1 0 0 -1 0 102)">
		<stop  offset="0" style="stop-color:#4CB8FF"/>
		<stop  offset="1" style="stop-color:#8BE1FF"/>
	</linearGradient>
	<path class="st5" d="M50.5,85.9c0.8,0.1,1.6,0.1,2.4,0.2C52.1,86,51.3,86,50.5,85.9z"/>
	
		<linearGradient id="SVGID_20_" gradientUnits="userSpaceOnUse" x1="84.95" y1="36.6" x2="84.95" y2="36.6" gradientTransform="matrix(1 0 0 -1 0 102)">
		<stop  offset="0" style="stop-color:#4CB8FF"/>
		<stop  offset="1" style="stop-color:#8BE1FF"/>
	</linearGradient>
	<path class="st6" d="M84.5,65.4c0.1,0,0.2,0,0.3,0c0.2,0,0.4,0,0.6,0C85.1,65.4,84.8,65.4,84.5,65.4z"/>
	
		<linearGradient id="SVGID_21_" gradientUnits="userSpaceOnUse" x1="68.25" y1="41.8002" x2="68.25" y2="41.882" gradientTransform="matrix(1 0 0 -1 0 102)">
		<stop  offset="0" style="stop-color:#4CB8FF"/>
		<stop  offset="1" style="stop-color:#8BE1FF"/>
	</linearGradient>
	<path class="st7" d="M67.9,60.1c0.2,0,0.5,0,0.7,0.1C68.4,60.2,68.1,60.2,67.9,60.1z"/>
	
		<linearGradient id="SVGID_22_" gradientUnits="userSpaceOnUse" x1="42.3722" y1="16.8887" x2="42.3722" y2="17.1933" gradientTransform="matrix(1 0 0 -1 0 102)">
		<stop  offset="0" style="stop-color:#4CB8FF"/>
		<stop  offset="1" style="stop-color:#8BE1FF"/>
	</linearGradient>
	<path class="st8" d="M44.1,85.1C44.2,85.1,44.1,85,44.1,85.1L44.1,85.1c-1.2-0.1-2.3-0.2-3.5-0.2C41.8,84.9,43,85.1,44.1,85.1z"/>
	
		<linearGradient id="SVGID_23_" gradientUnits="userSpaceOnUse" x1="88.5" y1="22.8" x2="88.5" y2="22.8" gradientTransform="matrix(1 0 0 -1 0 102)">
		<stop  offset="0" style="stop-color:#4CB8FF"/>
		<stop  offset="1" style="stop-color:#8BE1FF"/>
	</linearGradient>
	<path class="st9" d="M89.9,79.2L89.9,79.2c-0.8,0-1.6,0-2.4,0c-0.1,0-0.2,0-0.4,0C88.1,79.2,89,79.2,89.9,79.2z"/>
	
		<linearGradient id="SVGID_24_" gradientUnits="userSpaceOnUse" x1="92.75" y1="36.5" x2="92.75" y2="36.5" gradientTransform="matrix(1 0 0 -1 0 102)">
		<stop  offset="0" style="stop-color:#4CB8FF"/>
		<stop  offset="1" style="stop-color:#8BE1FF"/>
	</linearGradient>
	<path class="st10" d="M92.5,65.5c0.2,0,0.3,0,0.5,0C92.8,65.5,92.7,65.5,92.5,65.5z"/>
	
		<linearGradient id="SVGID_25_" gradientUnits="userSpaceOnUse" x1="71.1" y1="41.5014" x2="71.1" y2="41.765" gradientTransform="matrix(1 0 0 -1 0 102)">
		<stop  offset="0" style="stop-color:#4CB8FF"/>
		<stop  offset="1" style="stop-color:#8BE1FF"/>
	</linearGradient>
	<path class="st11" d="M69.9,60.3c0.8,0.1,1.6,0.1,2.4,0.2C71.5,60.4,70.7,60.3,69.9,60.3z"/>
	
		<linearGradient id="SVGID_26_" gradientUnits="userSpaceOnUse" x1="40.2" y1="17.2" x2="40.2" y2="17.2" gradientTransform="matrix(1 0 0 -1 0 102)">
		<stop  offset="0" style="stop-color:#4CB8FF"/>
		<stop  offset="1" style="stop-color:#8BE1FF"/>
	</linearGradient>
	<path class="st12" d="M39.7,84.8c0.3,0,0.7,0,1,0C40.3,84.8,40,84.8,39.7,84.8z"/>
	
		<linearGradient id="SVGID_27_" gradientUnits="userSpaceOnUse" x1="31" y1="21.6" x2="31" y2="21.6" gradientTransform="matrix(1 0 0 -1 0 102)">
		<stop  offset="0" style="stop-color:#4CB8FF"/>
		<stop  offset="1" style="stop-color:#8BE1FF"/>
	</linearGradient>
	<path class="st13" d="M29.2,80.4L29.2,80.4c0.7,0,1.4,0,2.1,0c0.2,0,0.3,0,0.5,0c0.5,0,0.9,0,1.4,0c-0.1,0-0.1,0-0.2,0
		c0.1,0,0.1,0,0.2,0c-0.1,0-0.2,0-0.3,0c-1.4,0-2.7,0-4.1,0h0.1C29,80.4,29.1,80.4,29.2,80.4z"/>
	
		<linearGradient id="SVGID_28_" gradientUnits="userSpaceOnUse" x1="23.15" y1="10.856" x2="23.15" y2="11.1546" gradientTransform="matrix(1 0 0 -1 0 102)">
		<stop  offset="0" style="stop-color:#4CB8FF"/>
		<stop  offset="1" style="stop-color:#8BE1FF"/>
	</linearGradient>
	<path class="st14" d="M25.1,90.9c-1.3,0.1-2.6,0.2-3.9,0.2C22.5,91.1,23.8,91,25.1,90.9z"/>
	
		<linearGradient id="SVGID_29_" gradientUnits="userSpaceOnUse" x1="21.55" y1="25.5641" x2="21.55" y2="25.9776" gradientTransform="matrix(1 0 0 -1 0 102)">
		<stop  offset="0" style="stop-color:#4CB8FF"/>
		<stop  offset="1" style="stop-color:#8BE1FF"/>
	</linearGradient>
	<path class="st15" d="M17.7,76.1c2.6,0.2,5.1,0.4,7.7,0.3C22.9,76.4,20.3,76.3,17.7,76.1z"/>
	
		<linearGradient id="SVGID_30_" gradientUnits="userSpaceOnUse" x1="26.65" y1="25.7239" x2="26.65" y2="25.9014" gradientTransform="matrix(1 0 0 -1 0 102)">
		<stop  offset="0" style="stop-color:#4CB8FF"/>
		<stop  offset="1" style="stop-color:#8BE1FF"/>
	</linearGradient>
	<path class="st16" d="M26,76.1c0.4,0,0.7,0.1,1.1,0.1c0.1,0,0.1,0,0.2,0C26.8,76.2,26.4,76.2,26,76.1z"/>
	
		<linearGradient id="SVGID_31_" gradientUnits="userSpaceOnUse" x1="25.25" y1="25.8545" x2="25.25" y2="25.9734" gradientTransform="matrix(1 0 0 -1 0 102)">
		<stop  offset="0" style="stop-color:#4CB8FF"/>
		<stop  offset="1" style="stop-color:#8BE1FF"/>
	</linearGradient>
	<path class="st17" d="M24.6,76.1c0.5,0,0.9,0.1,1.3,0.1C25.5,76.1,25.1,76.1,24.6,76.1z"/>
	
		<linearGradient id="SVGID_32_" gradientUnits="userSpaceOnUse" x1="19.25" y1="31.1891" x2="19.25" y2="31.4344" gradientTransform="matrix(1 0 0 -1 0 102)">
		<stop  offset="0" style="stop-color:#4CB8FF"/>
		<stop  offset="1" style="stop-color:#8BE1FF"/>
	</linearGradient>
	<path class="st18" d="M20.8,70.6c-0.2,0-0.4,0-0.7,0c-0.8,0.1-1.6,0.1-2.4,0.2C18.8,70.8,19.8,70.7,20.8,70.6z"/>
	
		<linearGradient id="SVGID_33_" gradientUnits="userSpaceOnUse" x1="23.1" y1="25.9224" x2="23.1" y2="26.2285" gradientTransform="matrix(1 0 0 -1 0 102)">
		<stop  offset="0" style="stop-color:#4CB8FF"/>
		<stop  offset="1" style="stop-color:#8BE1FF"/>
	</linearGradient>
	<path class="st19" d="M24.6,76.1c-1-0.1-2-0.1-3-0.2c0.5,0.1,1.1,0.1,1.6,0.2C23.7,76,24.2,76,24.6,76.1z"/>
	
		<linearGradient id="SVGID_34_" gradientUnits="userSpaceOnUse" x1="16.55" y1="31.0693" x2="16.55" y2="31.247" gradientTransform="matrix(1 0 0 -1 0 102)">
		<stop  offset="0" style="stop-color:#4CB8FF"/>
		<stop  offset="1" style="stop-color:#8BE1FF"/>
	</linearGradient>
	<path class="st20" d="M17.8,70.8c-0.8,0-1.7,0-2.5,0.1C16.1,70.9,17,70.8,17.8,70.8z"/>
	
		<linearGradient id="SVGID_35_" gradientUnits="userSpaceOnUse" x1="59.1278" y1="9.6363" x2="59.1278" y2="10.9294" gradientTransform="matrix(1 0 0 -1 0 102)">
		<stop  offset="0" style="stop-color:#4CB8FF"/>
		<stop  offset="1" style="stop-color:#8BE1FF"/>
	</linearGradient>
	<path class="st21" d="M43.3,91.5C43.3,91.6,43.2,91.6,43.3,91.5c2.7,0.1,5.3,0.8,8.1,0.7c7.9-0.2,15.9,0.5,23.6-0.9
		c-8.2,0-16.3-0.1-24.4,0.1c-0.1,0-0.4,0.2-0.6,0.3C47.7,91.8,45.5,91.2,43.3,91.5z"/>
	
		<linearGradient id="SVGID_36_" gradientUnits="userSpaceOnUse" x1="33.65" y1="3.1893" x2="33.65" y2="5.1024" gradientTransform="matrix(1 0 0 -1 0 102)">
		<stop  offset="0" style="stop-color:#4CB8FF"/>
		<stop  offset="1" style="stop-color:#8BE1FF"/>
	</linearGradient>
	<path class="st22" d="M34.9,97.9c1.2-0.2,2.4-0.3,3.6-0.3c0.1,0,0.1,0,0.2,0c3.4-0.2,6.8-0.3,10.2,0.1c-2.5,0.1-5.1-0.2-7.6,0.3
		c3.3,0.3,6.7,0,10-0.4c-4.6-0.2-9.2-0.3-13.9-0.3c-0.1,0-0.1,0-0.2,0c-2.7,0-5.4,0.1-8.1,0c-0.1,0-0.1,0-0.2,0c-2.5,0-5.1,0-7.6,0
		c1.2,0.3,2.4,0.4,3.6,0.5c0.1,0,0.1,0,0.2,0c0.8,0.1,1.7,0,2.5,0.1c-3.8,0.8-7.8,0.4-11.6,0.7c0.1,0,0.2,0,0.2,0
		C22.4,98.5,28.5,98.8,34.9,97.9z"/>
	
		<linearGradient id="SVGID_37_" gradientUnits="userSpaceOnUse" x1="74.15" y1="4.0411" x2="74.15" y2="5.2475" gradientTransform="matrix(1 0 0 -1 0 102)">
		<stop  offset="0" style="stop-color:#4CB8FF"/>
		<stop  offset="1" style="stop-color:#8BE1FF"/>
	</linearGradient>
	<path class="st23" d="M71.5,97.9c3.7,0,7.5,0,11.2,0c1.8,0,3.7-0.6,5.5-0.4c-9.3-0.7-18.7-0.2-28.1-0.3
		C63.8,98.1,67.6,97.6,71.5,97.9C71.5,97.9,71.5,97.9,71.5,97.9z"/>
	
		<linearGradient id="SVGID_38_" gradientUnits="userSpaceOnUse" x1="26.3" y1="25.6243" x2="26.3" y2="25.7692" gradientTransform="matrix(1 0 0 -1 0 102)">
		<stop  offset="0" style="stop-color:#4CB8FF"/>
		<stop  offset="1" style="stop-color:#8BE1FF"/>
	</linearGradient>
	<path class="st24" d="M27.2,76.3c-0.1,0-0.1,0-0.2,0c-0.5,0-1.1,0.1-1.6,0.1C26,76.3,26.6,76.3,27.2,76.3z"/>
	
		<linearGradient id="SVGID_39_" gradientUnits="userSpaceOnUse" x1="15.3722" y1="36.2536" x2="15.3722" y2="37.5127" gradientTransform="matrix(1 0 0 -1 0 102)">
		<stop  offset="0" style="stop-color:#4CB8FF"/>
		<stop  offset="1" style="stop-color:#8BE1FF"/>
	</linearGradient>
	<path class="st25" d="M30.7,64.9c-6.9,0.2-13.8-0.2-20.7-0.1c-0.1,0-0.1,0-0.2,0c-3,0-6,0.1-9,0.3c-0.3,0-0.5,0-0.8,0.1v0.5
		c4.7-0.2,9.4,0,14.1,0c0.1,0,0.1,0,0.2,0C19.8,65.6,25.3,65.4,30.7,64.9C30.8,64.9,30.7,64.9,30.7,64.9z"/>
	
		<linearGradient id="SVGID_40_" gradientUnits="userSpaceOnUse" x1="2.6" y1="30.657" x2="2.6" y2="31.4995" gradientTransform="matrix(1 0 0 -1 0 102)">
		<stop  offset="0" style="stop-color:#4CB8FF"/>
		<stop  offset="1" style="stop-color:#8BE1FF"/>
	</linearGradient>
	<path class="st26" d="M0,70.7v0.6c1.7,0,3.5,0.1,5.2-0.1C3.5,70.8,1.7,70.7,0,70.7z"/>
	
		<linearGradient id="SVGID_41_" gradientUnits="userSpaceOnUse" x1="10.45" y1="31.3018" x2="10.45" y2="31.8128" gradientTransform="matrix(1 0 0 -1 0 102)">
		<stop  offset="0" style="stop-color:#4CB8FF"/>
		<stop  offset="1" style="stop-color:#8BE1FF"/>
	</linearGradient>
	<path class="st27" d="M12.5,70.5c-0.1,0-0.1,0-0.2,0C8.2,70.2,4.1,70.3,0,70.3v0.2c4.2,0,8.4,0,12.6,0.2c0.1,0,0.1,0,0.2,0
		c2.5-0.1,4.9,0,7.4,0c0.2,0,0.4,0,0.6-0.1c0.1,0,0.1,0,0.1,0C18.1,70.5,15.3,70.5,12.5,70.5z"/>
	
		<linearGradient id="SVGID_42_" gradientUnits="userSpaceOnUse" x1="13.2" y1="25.5862" x2="13.2" y2="27.6608" gradientTransform="matrix(1 0 0 -1 0 102)">
		<stop  offset="0" style="stop-color:#4CB8FF"/>
		<stop  offset="1" style="stop-color:#8BE1FF"/>
	</linearGradient>
	<path class="st28" d="M11.1,75.4c5.1,0.2,10.1,1,15.3,0.8c-1.1-0.1-2.1-0.1-3.1-0.2c-0.7,0-1.4-0.1-2.1-0.2c0.2,0,0.3,0,0.5,0.1
		c-0.4,0-0.7-0.1-1.1-0.2c-3.9-0.9-7.7-0.9-11.5-0.9c-0.1,0-0.1,0-0.2,0c-2.2,0-4.4,0.1-6.6,0H2.2c-0.1,0-0.3,0-0.4,0H1.7
		c-0.6,0-1.1,0-1.7,0v0.7c2.6,0.2,5.2,0.2,7.7,0.2c0.1,0,0.1,0,0.2,0c1.6,0,3.3-0.1,4.9,0s3.3,0.3,4.9,0.4c-2-0.2-3.9-0.4-5.9-0.6
		c0.3,0,0.5,0,0.7,0c-1.5-0.2-3,0-4.5,0C9.1,75.4,10.1,75.3,11.1,75.4z"/>
	
		<linearGradient id="SVGID_43_" gradientUnits="userSpaceOnUse" x1="20.2" y1="20.5548" x2="20.2" y2="22.222" gradientTransform="matrix(1 0 0 -1 0 102)">
		<stop  offset="0" style="stop-color:#4CB8FF"/>
		<stop  offset="1" style="stop-color:#8BE1FF"/>
	</linearGradient>
	<path class="st29" d="M33.2,80.4c0.3,0,0.6,0,0.9,0C33.7,80.4,33.4,80.4,33.2,80.4c0,0,0.1,0,0.2,0c-0.7,0-1.4,0-2.1,0
		c-1,0-1.9,0-2.9,0c0.3,0,0.5,0,0.8,0c-0.1,0-0.2,0-0.3,0c-0.1,0-0.1,0-0.2,0c0,0,0,0,0.1,0c-7.8,0-15.6-0.1-23.4,0.1
		c-0.1,0-0.1,0-0.2,0c-0.9,0-1.8,0.1-2.7,0.2S0.8,80.8,0,80.8V81c2.8,0.2,5.7,0.2,8.5,0.2c0.1,0,0.1,0,0.2,0c3.2-0.1,6.3,0,9.4,0
		c0.1,0,0.1,0,0.2,0c0.4,0,0.9,0,1.3,0h0.1c0.1,0,0.2,0,0.3,0h0.1c0.9,0,1.8,0,2.7,0h0.1c0.9,0,1.7,0,2.5,0h0.1c1.6,0,3.2,0.1,4.8,0
		c0.1,0,0.3-0.1,0.4-0.1c3.3-0.5,6.5-0.4,9.7-1C38,80.3,35.6,80.4,33.2,80.4z"/>
	
		<linearGradient id="SVGID_44_" gradientUnits="userSpaceOnUse" x1="19.95" y1="16.0448" x2="19.95" y2="17.4665" gradientTransform="matrix(1 0 0 -1 0 102)">
		<stop  offset="0" style="stop-color:#4CB8FF"/>
		<stop  offset="1" style="stop-color:#8BE1FF"/>
	</linearGradient>
	<path class="st30" d="M34.8,84.9c-4.2,0.2-8.3,0.1-12.5,0c-0.1,0-0.1,0-0.2,0c-2.3,0-4.7,0-7-0.1H15c-0.4,0-0.7,0-1.1,0h-0.1
		c-2.3,0-4.7,0-7,0l0,0l0,0l0,0l-0.1,0.1c-2.2,0.5-4.4,0.5-6.6,0.6v0.2c8.1,0,16.3-0.3,24.4-0.2c0.1,0,0.1,0,0.2,0
		c4.7,0,9.5-0.1,14.3-0.7c0.3,0,0.5,0,0.8-0.1C38,84.8,36.4,84.8,34.8,84.9z"/>
	
		<linearGradient id="SVGID_45_" gradientUnits="userSpaceOnUse" x1="15.85" y1="10.6495" x2="15.85" y2="11.8303" gradientTransform="matrix(1 0 0 -1 0 102)">
		<stop  offset="0" style="stop-color:#4CB8FF"/>
		<stop  offset="1" style="stop-color:#8BE1FF"/>
	</linearGradient>
	<path class="st31" d="M29.9,90.4c-5,0.2-10.1,0.4-15.1,0.3c3.6,0.6,7.3,0.2,10.9,0.1c-1.8,0.1-3.7,0.2-5.6,0.3c-1.6,0-3.1,0-4.6,0
		s-2.9-0.1-4.4-0.2c-3.2-0.3-6.3-0.5-9.5-0.5c-0.1,0-0.1,0-0.2,0c-0.5,0-0.9,0-1.4,0v0.8c2.8,0.1,5.7-0.1,8.5-0.1
		c2.4,0,4.8,0.1,7.2,0.1c5.3,0.3,10.7-0.5,16-0.7C31.1,90.4,30.5,90.4,29.9,90.4z"/>
	
		<linearGradient id="SVGID_46_" gradientUnits="userSpaceOnUse" x1="92.3" y1="17.0255" x2="92.3" y2="18.1981" gradientTransform="matrix(1 0 0 -1 0 102)">
		<stop  offset="0" style="stop-color:#4CB8FF"/>
		<stop  offset="1" style="stop-color:#8BE1FF"/>
	</linearGradient>
	<path class="st32" d="M100,84c-0.4,0-0.7,0-1.1,0h-0.1c-0.6,0-1.3,0-1.9,0h-0.1c-4.1,0-8.2,0-12.3,0c0.8,0.8,2.2,0.4,3.1,0.8
		c0.1,0,0.1,0,0.1,0c4.1,0,8.2,0,12.4,0L100,84L100,84z"/>
	
		<linearGradient id="SVGID_47_" gradientUnits="userSpaceOnUse" x1="87.4" y1="22.2201" x2="87.4" y2="23.9469" gradientTransform="matrix(1 0 0 -1 0 102)">
		<stop  offset="0" style="stop-color:#4CB8FF"/>
		<stop  offset="1" style="stop-color:#8BE1FF"/>
	</linearGradient>
	<path class="st33" d="M99.4,78.9c0-0.1-0.1-0.1-0.1-0.2c0,0,0,0-0.1-0.1l-0.1-0.1c-0.1-0.1-0.1-0.1-0.2-0.1h-2c0,0-0.1,0-0.2,0
		c-1.8,0-3.5,0-5.2,0h-0.1h-0.1c-0.9,0-1.8,0-2.7,0h-0.1h-0.1c-0.9,0-1.8,0-2.6,0h-0.1c-0.1,0-0.2,0-0.2,0h-0.1c-2.5,0-5,0-7.5,0
		h-0.1c-0.5,0-1,0-1.4,0h-0.1c-0.4,0-0.9,0-1.4,0c4,0.9,8,0.5,12,0.8c0.1,0,0.1,0,0.1,0c0.1,0,0.3,0,0.4,0c0.8,0,1.6,0,2.4,0
		c0.6,0,1.3,0,1.9,0c-0.6,0-1.3,0-1.9,0c3.4,0.1,6.7,0.3,10.1,0.4v-0.5C99.8,79.1,99.7,79.1,99.4,78.9
		C99.5,78.9,99.4,78.9,99.4,78.9z"/>
	
		<linearGradient id="SVGID_48_" gradientUnits="userSpaceOnUse" x1="97.2" y1="30.2913" x2="97.2" y2="31.1038" gradientTransform="matrix(1 0 0 -1 0 102)">
		<stop  offset="0" style="stop-color:#4CB8FF"/>
		<stop  offset="1" style="stop-color:#8BE1FF"/>
	</linearGradient>
	<path class="st34" d="M100,71.1c-0.4,0-0.7,0-1.1,0h-0.1c-0.6,0-1.2,0-1.9,0h-0.1c-0.8,0.1-1.6-0.2-2.4,0.1
		c1.8,0.3,3.7,0.4,5.5,0.4L100,71.1L100,71.1z"/>
	
		<linearGradient id="SVGID_49_" gradientUnits="userSpaceOnUse" x1="95.15" y1="30.0601" x2="95.15" y2="30.4918" gradientTransform="matrix(1 0 0 -1 0 102)">
		<stop  offset="0" style="stop-color:#4CB8FF"/>
		<stop  offset="1" style="stop-color:#8BE1FF"/>
	</linearGradient>
	<path class="st35" d="M100,71.8c-3.2,0-6.5-0.1-9.7-0.2c0.1,0,0.3,0,0.4,0.1c0,0-0.2,0-0.2,0.1l0.1,0.1
		C93.7,71.9,96.8,71.9,100,71.8L100,71.8z"/>
	
		<linearGradient id="SVGID_50_" gradientUnits="userSpaceOnUse" x1="85.8" y1="35.6529" x2="85.8" y2="36.8452" gradientTransform="matrix(1 0 0 -1 0 102)">
		<stop  offset="0" style="stop-color:#4CB8FF"/>
		<stop  offset="1" style="stop-color:#8BE1FF"/>
	</linearGradient>
	<path class="st36" d="M100,66c-2.9-0.4-5.8-0.3-8.8-0.5c0.4-0.1,0.9-0.1,1.3,0c-0.1,0-0.3,0-0.4,0h0.1c-0.1,0-0.2,0-0.2,0
		c-0.1,0-0.1,0-0.2,0c0,0,0,0,0.1,0c-2.4-0.1-4.7,0-7,0c-1.3,0-2.7,0.1-4,0.1c1.2-0.1,2.5-0.1,3.7-0.1c-0.1,0-0.2,0-0.3,0
		c0.4,0,0.8,0,1.2,0c0.5,0,1,0,1.5,0c-2.1,0-4.2,0-6.3,0.1c-3,0.1-6.1,0.2-9.1,0.2c2.6,0.4,5.4,0.1,8,0.5c0.1,0,0.1,0,0.1,0
		c4.5,0,9,0,13.6,0h0.1c0.5,0,1,0,1.4,0h0.1c0.9,0,1.8,0,2.7,0h0.1c0.4,0,0.8,0,1.1,0h0.1c0.4,0,0.7,0,1.1,0L100,66L100,66z"/>
	
		<linearGradient id="SVGID_51_" gradientUnits="userSpaceOnUse" x1="83.15" y1="41.0576" x2="83.15" y2="42.7293" gradientTransform="matrix(1 0 0 -1 0 102)">
		<stop  offset="0" style="stop-color:#4CB8FF"/>
		<stop  offset="1" style="stop-color:#8BE1FF"/>
	</linearGradient>
	<path class="st37" d="M100,60.5c-2.2,0.1-4.5,0.3-6.5-0.5c-0.1,0-0.2-0.1-0.3-0.1c-0.1,0-0.2-0.1-0.4-0.1l0,0
		c-5.7,0.9-11.4,0.7-17.1,0.6c3.3-0.2,6.6,0,9.8-0.6c-1.2-0.2-2.4,0-3.5-0.1h-0.1c-0.5,0-1,0-1.5,0h-0.1c-0.9,0-1.8,0-2.7,0h-0.1
		c-0.6,0-1.1,0-1.6,0h-0.1c-3.2,0.2-6.5-0.5-9.5,0.5c1.2-0.1,2.4,0,3.5,0.1c-0.1,0-0.2,0-0.2,0c0.1,0,0.2,0,0.3,0
		c-0.1,0-0.2,0-0.4,0h-0.1c7.5,0.5,14.9,0.1,22.4,0.4c0.1,0,0.1,0,0.2,0c2.7,0.1,5.4,0.2,8,0L100,60.5L100,60.5z"/>
	
		<linearGradient id="SVGID_52_" gradientUnits="userSpaceOnUse" x1="99.25" y1="45.5129" x2="99.25" y2="46.0422" gradientTransform="matrix(1 0 0 -1 0 102)">
		<stop  offset="0" style="stop-color:#4CB8FF"/>
		<stop  offset="1" style="stop-color:#8BE1FF"/>
	</linearGradient>
	<path class="st38" d="M100,56.1c-0.2,0-0.4,0-0.6,0h-0.1c-0.3,0.1-0.6-0.1-0.9,0.1c0.6,0.2,1.1,0.2,1.7,0.3L100,56.1L100,56.1z"/>
	
		<linearGradient id="SVGID_53_" gradientUnits="userSpaceOnUse" x1="89.95" y1="49.7651" x2="89.95" y2="52.2156" gradientTransform="matrix(1 0 0 -1 0 102)">
		<stop  offset="0" style="stop-color:#4CB8FF"/>
		<stop  offset="1" style="stop-color:#8BE1FF"/>
	</linearGradient>
	<path class="st39" d="M100,50.9c-3.2,0.1-6.4,0.2-9.6,0.4c0.7-0.1,1.5-0.2,2.2-0.3c2.4-0.2,4.8-0.1,7.2-0.6c-1-0.1-2,0-3.1,0h-0.1
		c-0.9,0-1.8,0-2.7,0h-0.1c-2,0-4-0.4-5.8,0.2c-2.3,0.7-5,1.1-7.4,1.1c-0.1,0-0.1,0-0.1,0c-0.2,0-0.4,0-0.6,0
		c0.6,0.1,1.3,0.2,1.9,0.2c-0.1,0-0.1,0-0.2,0l0,0c0.1,0,0.2,0,0.3,0c0.4,0,0.8,0,1.3,0c0.7,0.1,1.3,0.1,2,0c-0.5,0-1,0-1.5,0
		c0.7,0,1.3,0,2-0.1c1.5-0.2,3-0.3,4.4-0.4c-0.5,0.1-1,0.1-1.5,0.2c0.7-0.1,1.3-0.1,2-0.2c3.1-0.2,6.2-0.2,9.3-0.2L100,50.9
		L100,50.9z"/>
</g>
<g id="belidays_x5F_text">
	<path class="st40" d="M50.5,78.2c-0.2,0.8-0.4,1.6-0.6,2.4c-0.1,0.2-0.1,0.4-0.1,0.6s-0.1,0.4-0.1,0.6s0,0.4,0,0.5s0,0.1,0,0.2l0,0
		l0,0l0,0l0,0l0,0l0,0l0,0h0.1c0.1,0,0.2,0,0.2,0c0.2,0,0.4,0,0.6,0c0.2,0,0.4-0.1,0.6-0.1c0.1,0,0.2,0,0.3-0.1c0.1,0,0.2,0,0.3-0.1
		c0.8-0.2,1.6-0.4,2.4-0.5c-0.2,0.1-0.4,0.2-0.5,0.3c-0.2,0.1-0.4,0.2-0.6,0.3c-0.4,0.2-0.8,0.4-1.2,0.5c-0.1,0-0.2,0.1-0.3,0.1
		S51.4,83,51.3,83c-0.2,0.1-0.4,0.1-0.6,0.2c-0.2,0-0.4,0.1-0.7,0.1c-0.1,0-0.2,0-0.4,0c-0.1,0-0.1,0-0.2,0h-0.1l0,0l0,0l0,0
		c0,0,0,0-0.1,0C49.1,83.1,49,83.1,49,83c-0.1-0.1-0.1-0.2-0.1-0.2v-0.1v-0.1v-0.1v-0.1c0-0.1,0-0.2,0-0.4c0-0.1,0-0.2,0.1-0.3
		c0-0.2,0.1-0.4,0.2-0.6c0-0.1,0.1-0.2,0.1-0.3c0-0.1,0.1-0.2,0.1-0.3c0.2-0.4,0.3-0.8,0.6-1.1c0.1-0.2,0.2-0.4,0.3-0.5
		C50.2,78.5,50.3,78.3,50.5,78.2z"/>
	<path class="st40" d="M50.8,76c0,0.2-0.1,0.4-0.1,0.5s0,0.2,0,0.2v0.1l0,0l0,0l0,0l0,0l0,0l0,0l0,0l0,0h0.1c0.1,0,0.2,0,0.3,0
		c0.2,0,0.3-0.1,0.5-0.1c-0.1,0.1-0.3,0.2-0.5,0.3c-0.1,0-0.2,0.1-0.3,0.1h-0.1h-0.1h-0.1c0,0,0,0-0.1-0.1c0,0,0,0,0-0.1l0,0l0,0
		l0,0c0-0.1,0-0.1,0-0.2s0.1-0.2,0.1-0.3C50.6,76.3,50.7,76.1,50.8,76z"/>
	<path class="st40" d="M46.8,74.8c-0.5,1.3-1.1,2.6-1.6,3.8l-0.4,0.9c-0.1,0.3-0.3,0.6-0.4,1c-0.1,0.3-0.3,0.6-0.4,1
		c-0.1,0.3-0.2,0.6-0.3,1c-0.1,0.3-0.2,0.6-0.3,0.9c0,0.2,0,0.3,0,0.4l0,0l0,0l0,0l0,0l0,0l0,0l0,0l0,0l0,0l0,0l0,0l0,0
		c0,0,0.1,0,0.2,0c0.1,0,0.1,0,0.2,0c0.2,0,0.3,0,0.5,0s0.3,0,0.5-0.1c0.2,0,0.3-0.1,0.5-0.1c0.7-0.1,1.3-0.3,2-0.5
		c0.3-0.1,0.7-0.2,1-0.3c0.2-0.1,0.3-0.1,0.5-0.2s0.3-0.1,0.5-0.2c-0.3,0.2-0.6,0.4-0.9,0.6c-0.3,0.2-0.6,0.3-0.9,0.5
		c-0.6,0.3-1.3,0.6-2,0.8c-0.2,0.1-0.3,0.1-0.5,0.1s-0.3,0.1-0.5,0.1s-0.4,0.1-0.6,0.1c-0.1,0-0.2,0-0.3,0s-0.2,0-0.3-0.1l0,0l0,0
		h-0.1c-0.1,0-0.1-0.1-0.2-0.2c0,0,0,0,0-0.1c0,0,0,0,0-0.1c0,0,0,0,0-0.1l0,0l0,0l0,0l0,0v-0.1c0-0.1,0-0.2,0-0.3
		c0-0.1,0-0.2,0-0.3c0-0.2,0.1-0.4,0.1-0.5c0-0.2,0.1-0.3,0.2-0.5c0.1-0.3,0.2-0.7,0.4-1c0.1-0.3,0.3-0.6,0.4-1
		c0.1-0.3,0.3-0.6,0.4-0.9c0.1-0.2,0.2-0.3,0.2-0.5l0.2-0.5c0.3-0.6,0.7-1.2,1-1.8c0.2-0.3,0.4-0.6,0.5-0.9
		C46.4,75.3,46.6,75,46.8,74.8z"/>
	<path class="st40" d="M61.7,71.4c-0.5,1.3-1,2.6-1.5,3.9l-0.4,1c-0.1,0.3-0.2,0.6-0.4,1c-0.1,0.3-0.2,0.6-0.4,1
		c-0.1,0.3-0.2,0.6-0.3,1c-0.1,0.3-0.2,0.6-0.2,1c0,0.2,0,0.3,0,0.4l0,0l0,0l0,0l0,0l0,0l0,0l0,0l0,0l0,0l0,0l0,0l0,0
		c0,0,0.1,0,0.2,0c0.1,0,0.1,0,0.2,0c0.2,0,0.3,0,0.5,0s0.3-0.1,0.5-0.1s0.3-0.1,0.5-0.1c0.7-0.2,1.3-0.4,2-0.6
		c0.3-0.1,0.7-0.2,1-0.3c0.2-0.1,0.3-0.1,0.5-0.2s0.3-0.1,0.5-0.2c-0.3,0.2-0.6,0.4-0.9,0.6s-0.6,0.3-0.9,0.5
		c-0.6,0.3-1.3,0.6-1.9,0.8C60.4,80.9,60.2,81,60,81s-0.3,0.1-0.5,0.1s-0.4,0.1-0.6,0.1c-0.1,0-0.2,0-0.3,0s-0.2,0-0.3,0l0,0h-0.1
		h-0.1C58,81.1,58,81,57.9,81c0,0,0,0,0-0.1c0,0,0,0,0-0.1c0,0,0,0,0-0.1l0,0l0,0l0,0l0,0v-0.1c0-0.1,0-0.2,0-0.3c0-0.1,0-0.2,0-0.3
		c0-0.2,0.1-0.4,0.1-0.5c0-0.2,0.1-0.3,0.1-0.5c0.1-0.3,0.2-0.7,0.3-1s0.3-0.7,0.4-1c0.1-0.3,0.3-0.6,0.4-1c0.1-0.2,0.1-0.3,0.2-0.5
		l0.2-0.5c0.3-0.6,0.6-1.2,1-1.8c0.2-0.3,0.3-0.6,0.5-0.9C61.3,72,61.5,71.7,61.7,71.4z"/>
	<path class="st40" d="M36.4,84.2c0.8-0.7,1.7-1.5,2.5-2.3c0.2-0.2,0.4-0.4,0.6-0.6c0.2-0.2,0.4-0.4,0.5-0.6
		c0.1-0.1,0.1-0.2,0.2-0.3c0-0.1,0.1-0.1,0.1-0.2s0-0.1,0-0.1l0,0l0,0l0,0l0,0l0,0l0,0l0,0l0,0l0,0l0,0h-0.1c0,0-0.1,0-0.2,0
		c-0.1,0-0.2,0.1-0.4,0.1c-0.1,0-0.2,0.1-0.4,0.2s-0.5,0.2-0.7,0.4c-0.5,0.3-0.9,0.6-1.4,0.9c-0.4,0.3-0.9,0.7-1.3,1
		c-0.4,0.4-0.8,0.7-1.2,1.1s-0.7,0.8-1.1,1.2l0,0l0,0c0,0,0,0-0.1,0.1l-0.1,0.1c-0.1,0.1-0.1,0.2-0.1,0.2s0,0,0,0.1l0,0
		c0,0,0.1,0.1,0.2,0.1c0.1,0,0.2,0.1,0.3,0.1s0.3,0,0.4,0c0.3,0,0.5,0,0.8,0s0.5,0,0.8-0.1c0.3,0,0.5-0.1,0.8-0.1
		c1.1-0.2,2.2-0.4,3.3-0.6c0.5-0.1,1.1-0.2,1.6-0.4c0.3-0.1,0.5-0.1,0.8-0.2l0.8-0.2c-0.3,0.1-0.5,0.2-0.8,0.3
		c-0.3,0.1-0.5,0.2-0.8,0.3c-0.5,0.2-1.1,0.4-1.6,0.5c-1.1,0.3-2.2,0.6-3.3,0.9c-0.3,0.1-0.6,0.1-0.8,0.2c-0.3,0-0.6,0.1-0.8,0.1
		c-0.3,0-0.6,0.1-0.9,0.1c-0.1,0-0.3,0-0.5,0s-0.3,0-0.5-0.1c-0.1,0-0.2-0.1-0.3-0.1s-0.2-0.1-0.3-0.2s-0.2-0.2-0.2-0.3
		c0-0.1-0.1-0.2,0-0.4c0-0.1,0-0.2,0.1-0.3c0-0.1,0.1-0.2,0.1-0.2c0-0.1,0.1-0.1,0.1-0.2c0,0,0-0.1,0.1-0.1l0,0l0,0
		c0.3-0.5,0.7-0.9,1.1-1.3c0.8-0.8,1.7-1.5,2.6-2.2c0.5-0.3,1-0.6,1.5-0.9c0.3-0.1,0.5-0.3,0.8-0.4c0.1-0.1,0.3-0.1,0.4-0.2
		c0.1,0,0.3-0.1,0.4-0.1c0.1,0,0.2,0,0.3,0s0.2,0,0.3,0l0,0l0,0c0,0,0.1,0,0.1,0.1l0,0l0,0c0,0,0,0.1,0.1,0.1c0,0,0,0,0,0.1
		c0,0,0,0,0,0.1V80v0.1v0.1c0,0.2-0.1,0.4-0.2,0.5c-0.1,0.1-0.2,0.3-0.3,0.4c-0.2,0.2-0.4,0.4-0.6,0.6c-0.2,0.2-0.4,0.4-0.6,0.6
		c-0.4,0.4-0.9,0.7-1.3,1c-0.2,0.2-0.5,0.3-0.7,0.5C36.9,83.9,36.7,84,36.4,84.2z"/>
	<path class="st40" d="M57.5,78.6c-0.1-0.2-0.3-0.3-0.5-0.4C56.9,78,56.7,78,56.5,78c-0.1,0-0.2,0-0.3,0.1c-0.1,0-0.2,0.1-0.2,0.1
		c-0.1,0.1-0.2,0.1-0.2,0.2c-0.1,0.1-0.1,0.1-0.2,0.2c-0.1,0.1-0.1,0.1-0.2,0.2c-0.1,0.1-0.1,0.2-0.2,0.2c-0.1,0.2-0.2,0.3-0.3,0.5
		s-0.2,0.3-0.3,0.5s-0.1,0.4-0.2,0.5c0,0.2,0,0.3,0,0.5c0,0.1,0,0.1,0.1,0.2c0,0.1,0.1,0.1,0.1,0.1s0,0,0.1,0l0,0l0,0l0,0l0,0
		c0,0,0,0,0.1,0s0.2,0,0.3,0s0.2,0,0.3,0s0.2,0,0.3,0c0.4-0.1,0.8-0.2,1.2-0.4c0.2-0.1,0.4-0.2,0.6-0.3c0.2-0.1,0.4-0.2,0.6-0.3
		c-0.1,0.2-0.3,0.3-0.5,0.5c-0.2,0.1-0.3,0.3-0.5,0.4c-0.4,0.3-0.7,0.5-1.2,0.7c-0.1,0-0.2,0.1-0.3,0.1s-0.2,0-0.4,0
		c-0.1,0-0.3,0-0.4,0h-0.1l0,0l0,0l0,0c0,0,0,0-0.1,0s-0.2-0.1-0.2-0.1c-0.2-0.1-0.3-0.2-0.3-0.4c-0.1-0.1-0.1-0.3-0.2-0.4
		c-0.1-0.3,0-0.5,0-0.8c0.1-0.5,0.3-0.9,0.6-1.3c0.1-0.2,0.3-0.4,0.4-0.5c0.1-0.1,0.2-0.2,0.2-0.2c0.1-0.1,0.2-0.2,0.3-0.2
		c0.1-0.1,0.2-0.1,0.3-0.2s0.2-0.1,0.3-0.2c0.2-0.1,0.5-0.2,0.7-0.2c0.1,0,0.3,0,0.4,0.1c0.1,0.1,0.2,0.1,0.3,0.2s0.2,0.2,0.2,0.3
		C57.5,78.3,57.5,78.4,57.5,78.6z"/>
	<path class="st40" d="M69,74.8c0,0.4-0.1,0.7-0.2,1s-0.1,0.7-0.2,1s-0.2,0.6-0.2,1c0,0.2-0.1,0.3-0.1,0.4s0,0.1,0,0.2l0,0l0,0l0,0
		l0,0l0,0l0,0l0,0l-0.1-0.1l0,0l0,0h0.1c0.1,0,0.1,0,0.2,0c0.2,0,0.3,0,0.5,0s0.3,0,0.5,0s0.3,0,0.5-0.1c0.3,0,0.7-0.1,1-0.2
		s0.7-0.1,1-0.2c-0.1,0.1-0.3,0.2-0.4,0.3c-0.1,0-0.2,0.1-0.2,0.1c-0.1,0-0.2,0.1-0.2,0.1c-0.3,0.1-0.6,0.3-1,0.4
		c-0.3,0.1-0.7,0.2-1,0.3c-0.2,0-0.4,0.1-0.5,0.1s-0.2,0-0.3,0c-0.1,0-0.1,0-0.2,0s-0.1,0-0.2-0.1c0,0-0.1,0-0.1-0.1
		c-0.1,0-0.1-0.1-0.1-0.2l0,0l0,0l0,0l0,0l0,0v-0.1c0-0.1,0-0.2,0-0.3c0-0.2,0-0.4,0.1-0.6c0.1-0.4,0.2-0.7,0.3-1
		c0.1-0.3,0.3-0.6,0.4-0.9C68.6,75.4,68.7,75.1,69,74.8z"/>
	<path class="st40" d="M67.8,76.2c-0.1-0.2-0.3-0.3-0.4-0.4c-0.2-0.1-0.3-0.1-0.5-0.1s-0.3,0.1-0.5,0.2c-0.1,0-0.1,0.1-0.2,0.2
		s-0.1,0.1-0.2,0.2s-0.1,0.1-0.2,0.2s-0.1,0.1-0.2,0.2c-0.1,0.2-0.2,0.3-0.3,0.5c-0.1,0.2-0.2,0.3-0.3,0.5c-0.1,0.2-0.1,0.3-0.2,0.5
		c0,0.2-0.1,0.3-0.1,0.5c0,0.1,0,0.2,0,0.2V79v0.1c0,0.1,0.1,0.1,0.1,0.1s0,0,0.1,0l0,0l0,0l0,0c0,0,0,0,0.1,0
		c0.2,0,0.3,0.1,0.5,0.1c0.4,0,0.7-0.1,1.1-0.2s0.7-0.3,1.1-0.5c-0.1,0.2-0.3,0.3-0.4,0.5c-0.2,0.1-0.3,0.3-0.5,0.4
		c-0.1,0.1-0.2,0.1-0.3,0.2c-0.1,0.1-0.2,0.1-0.3,0.1C66,79.9,65.8,80,65.5,80c-0.2,0-0.5,0-0.7,0h-0.1l0,0l0,0l0,0
		c-0.1,0-0.1-0.1-0.2-0.1c-0.1-0.1-0.3-0.2-0.3-0.3c-0.1-0.1-0.1-0.3-0.2-0.4c0-0.1-0.1-0.3-0.1-0.4c0-0.3,0-0.5,0.1-0.7
		s0.2-0.4,0.3-0.6c0.1-0.2,0.2-0.4,0.4-0.6c0.1-0.2,0.3-0.3,0.4-0.5c0.1-0.1,0.2-0.1,0.2-0.2c0.1-0.1,0.2-0.1,0.3-0.2
		c0.1-0.1,0.2-0.1,0.3-0.2c0.1-0.1,0.2-0.1,0.3-0.2c0.1,0,0.2-0.1,0.3-0.1c0.1,0,0.2,0,0.4,0c0.1,0,0.2,0.1,0.4,0.1
		c0.1,0.1,0.2,0.1,0.3,0.2c0.1,0.1,0.1,0.2,0.2,0.3C67.8,76,67.8,76.1,67.8,76.2z"/>
	<path class="st40" d="M80.6,77.5c-1.4,0.3-2.9,0.6-4.3,1c-0.4,0.1-0.8,0.2-1.3,0.3c0-0.2,0.1-0.5,0.1-0.7c0.1-0.4,0.1-0.8,0.2-1.1
		c0.5-0.4,1-0.8,1.4-1.3c0.3-0.3,0.5-0.6,0.8-0.9c0.1-0.2,0.2-0.3,0.3-0.5c0.1-0.2,0.2-0.4,0.3-0.6c0-0.1,0-0.1,0.1-0.2v-0.1v-0.1
		c0-0.1,0-0.1,0-0.2s0-0.2-0.1-0.3L78,72.7c0,0-0.1-0.1-0.2-0.1c-0.1-0.1-0.2-0.1-0.3-0.1c-0.1,0-0.2,0-0.2,0c-0.1,0-0.1,0-0.2,0.1
		c-0.2,0.1-0.4,0.2-0.6,0.4c-0.2,0.1-0.3,0.3-0.5,0.4c-0.6,0.6-1,1.4-1.3,2.1c-0.1,0.2-0.1,0.4-0.2,0.6c0,0.2-0.1,0.4-0.1,0.6v0.1
		c-0.3,0.2-0.6,0.4-0.9,0.6c-0.2,0.1-0.3,0.2-0.5,0.2c-0.2,0.1-0.3,0.1-0.5,0.2h-0.1h-0.1c0,0,0,0-0.1,0s-0.1,0-0.2,0
		s-0.1-0.1-0.1-0.1c0-0.1-0.1-0.1-0.1-0.2c0-0.2,0-0.4,0-0.6s0-0.4,0-0.6c0-0.4,0.1-0.8,0.2-1.2c0.1-0.4,0.2-0.8,0.3-1.1
		c-0.2,0.4-0.3,0.7-0.4,1.1s-0.2,0.8-0.3,1.1c0,0.2-0.1,0.4-0.1,0.6s0,0.4,0,0.6c0,0.1,0,0.2,0.1,0.3c0,0.1,0.1,0.1,0.1,0.2
		s0.1,0.1,0.2,0.1c0.1,0.1,0.3,0.1,0.4,0.1h0.1h0.1c0.1,0,0.1,0,0.2,0c0.4-0.1,0.8-0.2,1.2-0.4c0.2-0.1,0.4-0.2,0.6-0.3
		c0,0.1,0,0.2-0.1,0.4c-0.1,0.4-0.1,0.7-0.2,1.1c-0.7,0.2-1.4,0.4-2.1,0.7c-0.7,0.2-1.4,0.5-2.1,0.8s-1.4,0.6-2,0.9
		c-0.7,0.3-1.3,0.7-1.9,1.1c-0.3,0.2-0.6,0.4-0.9,0.7c-0.1,0.1-0.3,0.3-0.4,0.4l-0.1,0.1l-0.1,0.1l-0.1,0.1l0,0l0,0l0,0l0,0
		c-0.2,0.4-0.3,0.8-0.3,1.3c0,0.2,0.1,0.5,0.1,0.7c0.1,0.2,0.2,0.4,0.3,0.6c0.3,0.4,0.6,0.6,1,0.8c0.4,0.2,0.8,0.3,1.2,0.4
		c0.4,0.1,0.8,0.1,1.2,0.1c0.4,0,0.8-0.1,1.2-0.1c0.1,0,0.2,0,0.3-0.1h0.1c0,0,0.1,0,0.2,0c0.2,0,0.4-0.1,0.6-0.2
		c0.4-0.2,0.8-0.4,1.1-0.6c0.3-0.3,0.6-0.6,0.9-0.9s0.5-0.7,0.7-1c0.2-0.4,0.4-0.7,0.5-1.1c0.2-0.4,0.3-0.8,0.4-1.1
		c0.3-0.8,0.5-1.5,0.6-2.3c0.1-0.4,0.2-0.8,0.2-1.2c0-0.1,0-0.1,0-0.2c0.5-0.1,0.9-0.3,1.4-0.4C77.8,78.2,79.2,77.8,80.6,77.5z
		 M77.6,73.1L77.6,73.1L77.6,73.1z M76.1,74.8c0.2-0.3,0.4-0.6,0.6-0.9c0.1-0.1,0.2-0.3,0.4-0.4c0.1-0.1,0.3-0.2,0.4-0.3h0.1l0,0
		l0,0l0,0c0,0,0,0,0,0.1v0.1c-0.1,0.2-0.1,0.3-0.2,0.5s-0.2,0.3-0.3,0.5c-0.2,0.3-0.4,0.6-0.7,0.9c-0.2,0.3-0.5,0.6-0.8,0.8
		c0-0.1,0.1-0.2,0.1-0.3C75.8,75.5,75.9,75.2,76.1,74.8z M74,80.3c-0.1,0.4-0.2,0.8-0.3,1.1c-0.1,0.4-0.2,0.7-0.3,1.1
		c-0.1,0.4-0.3,0.7-0.4,1.1c-0.1,0.3-0.3,0.7-0.5,1c-0.4,0.7-0.8,1.2-1.4,1.7c-0.3,0.2-0.6,0.4-0.9,0.5c-0.2,0.1-0.3,0.1-0.5,0.2
		h-0.1h-0.1c-0.1,0-0.2,0-0.3,0.1c-0.7,0.1-1.5,0.2-2.2,0.1c-0.4-0.1-0.7-0.2-1-0.3c-0.3-0.2-0.6-0.4-0.8-0.6
		C65.1,86.2,65,86,65,85.9c-0.1-0.2-0.1-0.3-0.1-0.5c0-0.3,0.1-0.7,0.2-1l0,0l0,0l0,0l0,0l0,0c0,0,0-0.1,0.1-0.1l0.1-0.1l0.1-0.1
		c0.1-0.1,0.2-0.3,0.4-0.4c0.3-0.2,0.5-0.5,0.8-0.7c0.6-0.4,1.2-0.8,1.8-1.1c0.6-0.3,1.3-0.7,2-0.9c0.7-0.3,1.3-0.6,2-0.8
		c0.6-0.2,1.3-0.5,1.9-0.7C74.1,79.7,74,80,74,80.3z"/>
	<path class="st40" d="M83,73.7c0.3-0.3,0.7-0.5,1-0.7c0.2-0.1,0.3-0.2,0.5-0.3c0.1-0.1,0.2-0.1,0.2-0.2l0.1-0.1v-0.1l0,0
		c0,0,0,0-0.1,0c0,0-0.1,0-0.1-0.1c-0.1,0-0.2,0-0.3,0c-0.2,0-0.4,0-0.6,0.1c-0.4,0.1-0.8,0.2-1.1,0.4c-0.2,0.1-0.4,0.2-0.5,0.3
		c-0.2,0.1-0.3,0.2-0.5,0.3c-0.2,0.1-0.3,0.2-0.5,0.4c-0.1,0.1-0.1,0.1-0.2,0.2s-0.1,0.1-0.2,0.2c-0.2,0.3-0.4,0.7-0.5,1
		c-0.1,0.4-0.1,0.8-0.1,1.1c0.1,0.4,0.2,0.7,0.5,1s0.6,0.4,1,0.6c0.4,0.1,0.8,0.3,1.2,0.4c0.2,0.1,0.4,0.2,0.6,0.3
		c0.2,0.1,0.4,0.2,0.6,0.4c0.2,0.2,0.3,0.4,0.4,0.6s0.2,0.5,0.2,0.7s0,0.5-0.1,0.7s-0.2,0.4-0.3,0.6c-0.2,0.4-0.5,0.7-0.8,1
		c-0.2,0.1-0.3,0.3-0.5,0.4L82.8,83h-0.4c-0.1,0.1-0.2,0.1-0.2,0.2c-0.7,0.5-1.4,1-2.1,1.4s-1.4,0.9-2.2,1.2c-1.5,0.8-3,1.4-4.5,2
		s-3.1,1.1-4.7,1.6s-3.2,0.8-4.8,1.2c-1.6,0.4-3.2,0.7-4.8,1l-4.8,0.9l-4.8,0.9l-4.8,0.9c-3.2,0.6-6.5,1.2-9.7,1.8
		c-3.2,0.6-6.5,1.2-9.7,1.7c3.2-0.7,6.4-1.4,9.6-2.1c3.2-0.7,6.4-1.4,9.6-2l4.8-1l4.8-1l4.8-1c1.6-0.3,3.2-0.7,4.8-1
		c1.6-0.4,3.2-0.7,4.8-1.2c1.6-0.4,3.1-0.9,4.7-1.5c1.5-0.6,3-1.2,4.5-2c0.7-0.4,1.4-0.8,2.1-1.2c0.7-0.4,1.4-0.9,2-1.3
		c0.1-0.1,0.2-0.1,0.2-0.2l0.1-0.1l0.1-0.1c0.2-0.1,0.3-0.2,0.4-0.4c0.3-0.3,0.5-0.6,0.7-0.9s0.3-0.7,0.3-1s-0.1-0.7-0.4-0.9
		c-0.2-0.3-0.6-0.4-1-0.6S81.4,78,81,77.9c-0.2-0.1-0.4-0.2-0.6-0.3c-0.2-0.1-0.4-0.3-0.5-0.4c-0.2-0.2-0.3-0.4-0.4-0.6
		s-0.2-0.4-0.2-0.6c-0.1-0.4,0-0.9,0.1-1.3s0.3-0.8,0.6-1.1c0.1-0.1,0.1-0.2,0.2-0.2c0.1-0.1,0.2-0.1,0.2-0.2
		c0.2-0.1,0.3-0.2,0.5-0.4c0.4-0.2,0.7-0.4,1.1-0.6s0.8-0.3,1.2-0.4c0.2,0,0.4-0.1,0.6-0.1c0.1,0,0.2,0,0.3,0.1
		c0.1,0,0.2,0.1,0.3,0.2v0.1v0.1c0,0.1-0.1,0.1-0.1,0.1c-0.1,0.1-0.2,0.1-0.2,0.2c-0.2,0.1-0.4,0.2-0.5,0.3
		C83.7,73.3,83.3,73.5,83,73.7z"/>
	<path class="st40" d="M25.1,67.4c-0.2,2.7-0.6,5.3-1.3,7.9c-0.7,2.6-1.6,5.1-2.7,7.6c-1.1,2.4-2.4,4.8-4,7
		c-1.5,2.2-3.2,4.3-5.1,6.2c1.7-2.1,3.2-4.3,4.6-6.5c1.4-2.3,2.7-4.6,3.8-7c1.1-2.4,2.1-4.9,2.8-7.4C24,72.6,24.6,70.1,25.1,67.4z"
		/>
	<path class="st40" d="M23.4,79c1.4-1.1,2.9-2,4.5-2.8c0.8-0.4,1.6-0.7,2.5-1l0.2-0.1l0.2-0.1l0.3-0.1c0.1,0,0.2-0.1,0.3-0.1
		l0.3-0.1c0.2-0.1,0.4-0.1,0.6-0.2c0.2-0.1,0.4-0.1,0.7-0.2c0.4-0.1,0.9-0.2,1.4-0.2s0.9,0,1.4,0.1s0.9,0.3,1.4,0.5
		c0.2,0.1,0.4,0.3,0.6,0.5l0.1,0.1c0,0,0,0,0.1,0.1l0.1,0.1l0.1,0.1v0.1v0.1l0,0l0,0l0.1,0.2c0,0.1,0,0.1,0.1,0.2
		c0,0.1,0,0.1,0.1,0.2v0.1v0.1c0,0.1,0,0.1,0,0.2V77c0,0.1,0,0.1,0,0.2s0,0.1,0,0.2s0,0.2,0,0.4V78v0.1v0.1c0,0.2-0.1,0.5-0.2,0.7
		V79v0.1c0,0.1,0,0.1-0.1,0.2L38,79.4v0.1c-0.1,0.2-0.2,0.4-0.4,0.6c-0.1,0.2-0.3,0.4-0.4,0.5c-0.2,0.2-0.3,0.3-0.5,0.5
		c-0.7,0.6-1.3,1.2-2,1.8l-0.5,0.4c-0.2,0.1-0.3,0.3-0.5,0.4L33,84.2l-0.3,0.2c-0.1,0.1-0.2,0.1-0.3,0.2L32,85
		c-0.1,0.1-0.2,0.1-0.3,0.2l-0.3,0.2c-0.4,0.2-0.7,0.5-1.1,0.7l-0.6,0.4c-0.1,0.1-0.2,0.1-0.3,0.2l-0.3,0.2l-0.6,0.3
		c-0.2,0.1-0.4,0.2-0.6,0.3c-3.1,1.7-6.4,3.2-9.8,4.1c3.3-1.3,6.5-2.8,9.5-4.7c0.2-0.1,0.4-0.2,0.6-0.3l0.6-0.4l0.3-0.2
		c0.1-0.1,0.2-0.1,0.3-0.2l0.5-0.4c0.4-0.2,0.7-0.5,1.1-0.7l0.3-0.2c0.1-0.1,0.2-0.1,0.3-0.2l0.5-0.4c0.1-0.1,0.2-0.1,0.3-0.2
		l0.3-0.2l0.5-0.4c0.2-0.1,0.3-0.3,0.5-0.4l0.5-0.4c0.7-0.6,1.4-1.1,2-1.7c0.2-0.2,0.3-0.3,0.4-0.5c0.1-0.2,0.3-0.3,0.4-0.5
		c0.1-0.2,0.2-0.3,0.3-0.5l0.1-0.1l0.1-0.1c0,0,0-0.1,0.1-0.1v-0.1c0,0,0,0,0-0.1c0.1-0.2,0.1-0.4,0.2-0.6v-0.1c0,0,0,0,0-0.1v-0.1
		c0-0.1,0-0.2,0-0.3v-0.1v-0.1v-0.1V77c0,0,0,0,0-0.1v-0.1v-0.1v-0.1l-0.1-0.1l0,0l0,0v-0.1v-0.1v-0.1v-0.1c0,0,0,0,0-0.1l-0.1-0.1
		c-0.1-0.1-0.3-0.3-0.4-0.4c-0.3-0.2-0.7-0.4-1.1-0.5c-0.4-0.1-0.8-0.1-1.2-0.1S34,75,33.6,75c-0.2,0-0.4,0.1-0.6,0.1
		c-0.2,0.1-0.4,0.1-0.6,0.2c-0.4,0.1-0.8,0.2-1.3,0.4c-0.8,0.3-1.7,0.6-2.5,0.9C26.5,77.2,24.9,78,23.4,79z"/>
	<path class="st40" d="M17.5,73.8c1.2-1,2.5-2,3.8-2.9c0.2-0.1,0.3-0.2,0.5-0.3l0.5-0.3c0.2-0.1,0.3-0.2,0.5-0.3l0.5-0.3
		c0.7-0.4,1.4-0.8,2.1-1.2l0.5-0.3l0.5-0.3c0.4-0.2,0.7-0.4,1.1-0.5c0.1,0,0.2-0.1,0.3-0.1l0.3-0.1l0.6-0.2c0.2-0.1,0.4-0.2,0.6-0.2
		l0.3-0.1c0.1,0,0.2-0.1,0.3-0.1l0.6-0.2l0.3-0.1c0.1,0,0.2-0.1,0.3-0.1l0.6-0.2h0.1c0,0,0.1,0,0.2,0c0.1,0,0.2-0.1,0.3-0.1
		c0.4-0.1,0.8-0.2,1.3-0.2c0.2,0,0.4,0,0.7,0c0.2,0,0.4,0.1,0.7,0.1c0.1,0,0.1,0,0.2,0.1c0.1,0,0.1,0,0.2,0.1c0.1,0,0.2,0.1,0.3,0.2
		s0.2,0.2,0.3,0.2l0.1,0.1c0,0.1,0.1,0.1,0.1,0.2c0.1,0.2,0.2,0.4,0.3,0.7c0.1,0.2,0.1,0.5,0.1,0.7s-0.1,0.5-0.1,0.7
		c-0.1,0.2-0.2,0.4-0.3,0.6c-0.2,0.4-0.5,0.7-0.8,1c-0.1,0.2-0.3,0.3-0.4,0.4c-0.1,0.1-0.3,0.3-0.4,0.4c-0.3,0.3-0.6,0.6-0.9,0.8
		c-0.6,0.5-1.2,1.1-1.8,1.6c-2.5,2.1-5.2,3.9-8,5.4c2.7-1.8,5.2-3.7,7.6-5.9l0.4-0.4l0.4-0.4l0.2-0.2l0.2-0.2
		c0.1-0.1,0.3-0.3,0.4-0.4c0.3-0.3,0.6-0.6,0.8-0.8c0.1-0.1,0.3-0.3,0.4-0.4c0.1-0.1,0.3-0.3,0.4-0.4c0.3-0.3,0.5-0.6,0.6-0.9
		c0.1-0.2,0.2-0.3,0.2-0.5s0.1-0.3,0.1-0.5c0-0.3-0.1-0.7-0.2-0.9c0,0,0-0.1-0.1-0.1l-0.1-0.1c-0.1-0.1-0.1-0.1-0.2-0.1
		c-0.1,0-0.1-0.1-0.2-0.1h-0.1h-0.1c-0.2,0-0.3-0.1-0.5-0.1s-0.4,0-0.6,0c-0.4,0-0.7,0.1-1.1,0.1c-0.1,0-0.2,0-0.3,0.1H32h-0.1
		L31.3,67c-0.1,0-0.2,0.1-0.3,0.1l-0.3,0.1L30.2,67c-1.5,0.6-3,1.2-4.4,1.9c-0.4,0.2-0.7,0.4-1.1,0.5c-0.2,0.1-0.4,0.2-0.5,0.3
		L23.7,70l-0.5,0.3c-0.2,0.1-0.3,0.2-0.5,0.3c-0.3,0.2-0.7,0.4-1,0.6C20.2,72,18.9,72.9,17.5,73.8z"/>
</g>
<g id="smile_x5F_wave">
	<path class="st40" d="M61.5,58.7c-0.8-0.4-1.7-0.3-2.3,0l0,0c-0.1,0,0,0.1,0,0.1c1.2-0.2,2.5,0.5,2.9,1.7c0.3,0.8,0.2,1.7-0.2,2.4
		c0.3-0.2,0.6-0.5,0.7-0.9C63.3,60.9,62.8,59.4,61.5,58.7z"/>
	<path class="st40" d="M60.6,55.6c-1.3,0-2.5,0.6-3.1,1.6l0,0c0,0.1,0.1,0.1,0.1,0.1c0.1,0,0.2-0.1,0.2-0.1c0.3-0.2,0.5-0.2,0.8-0.3
		c2.1-0.7,4.4,0.4,5.2,2.6c0.1,0.4,0.2,0.8,0.2,1.2v0.1c0,0.1,0,0.3,0,0.4c0.3-0.5,0.4-1.1,0.4-1.6C64.4,57.4,62.7,55.7,60.6,55.6z"
		/>
	<path class="st40" d="M60.8,61.1c-0.4-0.4-1-0.6-1.4-0.4l0,0v0.1l0,0c0.9,0.4,0,1.3-1.1,1.9c-6.4,3.5-16.9,2.2-22.8-2.5
		c1.3,1.8,4.2,5.5,14.5,6.2c0.3,0,0.6,0,0.9,0l0,0c0,0,0,0,0.1,0c0,0,0,0,0.1,0c7.4,0,9.7-2.5,9.9-2.7
		C61.5,62.9,61.5,61.8,60.8,61.1z"/>
</g>
<g id="watercraft">
	<path class="st41" d="M54.9,54.2c0.6,0.1,1.2,0.2,1.8,0.3c0.2,0,0.2,0.1,0.1,0.3l0,0c-0.1,0.3-0.3,0.7-0.4,1c0,0.1-0.1,0.1-0.1,0.2
		c-0.2,0.3-0.5,0.4-0.9,0.3c-0.4-0.1-0.9-0.2-1.3-0.2c-0.7-0.1-1.5-0.2-2.2-0.4c-1.6-0.4-3.1-1.1-4.5-1.9c-0.2-0.1-0.3-0.2-0.4-0.4
		c-0.1-0.2-0.1-0.2-0.3-0.3s-0.3-0.4,0-0.6c0.1-0.1,0.2-0.1,0.2-0.1c0.4-0.1,0.8-0.1,1.2-0.2c0.9-0.2,1.8-0.4,2.7-0.6l0,0l-0.1-0.1
		c0-0.1,0-0.2,0-0.3c0.1,0,0.1-0.1,0.2-0.1c0.1-0.1,0.3-0.1,0.4-0.3c0.1-0.2,0.3-0.4,0.4-0.6c0.1-0.1,0.1-0.2,0.2-0.3
		c0-0.2,0.1-0.3,0.2-0.5v-0.1c0-0.2-0.1-0.3-0.1-0.5s0-0.3,0.2-0.4c0.2-0.2,0.5-0.1,0.6,0.2v0.1l0.1,0.1c0.1,0,0.1,0,0.2,0
		c0.3,0,0.6,0.1,0.9,0.3l0.1,0.1c0.1,0.1,0.2,0.1,0.4,0.1c0.1-0.1,0.3,0,0.4,0v0.1l0,0h-0.1c-0.1-0.1-0.2-0.1-0.3,0
		c0,0-0.1,0-0.1,0.1c0,0-0.1,0.1,0,0.1c0.1,0.1,0.2,0.1,0.3,0.1s0.3,0,0.4,0c0.1,0,0.1,0,0.1,0.1s-0.1,0-0.1,0c-0.1,0-0.2,0-0.3,0
		c0,0-0.1,0-0.1,0.1s0.1,0.3,0.1,0.4l0,0c0.1,0.2,0.2,0.3,0.3,0.5s0.1,0.3,0,0.5c-0.1,0.3-0.2,0.5-0.3,0.8c0,0.1,0,0.1-0.1,0.1h-0.1
		c0,0,0,0,0,0.1c0,0.2,0.1,0.3,0.3,0.3H55c0.2,0,0.2,0.1,0.3,0.3c0,0.1,0,0.1,0.1,0.2c0,0.1,0,0.2-0.2,0.2c-0.1,0-0.2,0-0.3,0
		c0,0-0.1,0-0.1,0.1s0,0.2,0.1,0.2s0.1,0.1,0.2,0.1v0.1c0,0.1-0.1,0.1-0.1,0.2C55,54,54.9,54.1,54.9,54.2
		C54.7,54.1,54.7,54.2,54.9,54.2C54.8,54.2,54.8,54.2,54.9,54.2z M52.4,51.9c0.2-0.3,0.5-0.6,0.8-0.8V51c-0.1,0-0.2-0.1-0.2-0.2
		h-0.1c-0.1,0.1-0.2,0.1-0.3,0.2c0,0-0.1,0.1-0.1,0.2c0,0,0,0-0.1,0s-0.1,0.1-0.1,0.1l0,0c-0.2,0-0.3,0.1-0.5,0h-0.1l-0.1,0.1
		c0,0.1,0,0.1,0.1,0.1c0.3,0,0.5,0.1,0.7,0.3C52.4,51.9,52.4,51.9,52.4,51.9z M52.1,50.2c-0.1,0.2-0.3,0.4-0.5,0.6
		c0,0.1,0,0.1,0.1,0.1s0.1,0,0.2-0.1c0.1,0,0.2,0,0.2-0.1h0.1c0.1-0.1,0.2-0.2,0.4-0.3v-0.1C52.4,50.3,52.3,50.3,52.1,50.2
		C52.2,50.2,52.1,50.2,52.1,50.2z"/>
</g>
<g id="sun">
	<g>
		<g>
			<defs>
				<polygon id="SVGID_54_" points="1,1 2,1 1,2 				"/>
			</defs>
			<defs>
				<polygon id="SVGID_55_" points="-1,-1 -2,-1 -1,-2 				"/>
			</defs>
			<clipPath id="SVGID_56_">
				<use xlink:href="#SVGID_54_"  style="overflow:visible;"/>
			</clipPath>
			<clipPath id="SVGID_57_" class="st42">
				<use xlink:href="#SVGID_55_"  style="overflow:visible;"/>
			</clipPath>
			
				<linearGradient id="SVGID_58_" gradientUnits="userSpaceOnUse" x1="82.7069" y1="91.6913" x2="82.5517" y2="81.2177" gradientTransform="matrix(1 0 0 -1 0 102)">
				<stop  offset="0" style="stop-color:#999999"/>
				<stop  offset="1" style="stop-color:#000000"/>
			</linearGradient>
			<path class="st43" d="M82.6,10.6c-0.2,0-0.3,0-0.5,0l-0.5,10.3h1.9L83,10.6C82.9,10.6,82.8,10.6,82.6,10.6z"/>
		</g>
	</g>
	
		<linearGradient id="SVGID_59_" gradientUnits="userSpaceOnUse" x1="82.7069" y1="91.6913" x2="82.5517" y2="81.2177" gradientTransform="matrix(1 0 0 -1 0 102)">
		<stop  offset="0" style="stop-color:#FBFD91"/>
		<stop  offset="1" style="stop-color:#F3FFFF"/>
	</linearGradient>
	<path class="st44" d="M82.6,10.6c-0.2,0-0.3,0-0.5,0l-0.5,10.3h1.9L83,10.6C82.9,10.6,82.8,10.6,82.6,10.6z"/>
	<g>
		<g>
			<defs>
				<polygon id="SVGID_60_" points="1,1 2,1 1,2 				"/>
			</defs>
			<defs>
				<polygon id="SVGID_61_" points="-1,-1 -2,-1 -1,-2 				"/>
			</defs>
			<clipPath id="SVGID_62_">
				<use xlink:href="#SVGID_60_"  style="overflow:visible;"/>
			</clipPath>
			<clipPath id="SVGID_63_" class="st45">
				<use xlink:href="#SVGID_61_"  style="overflow:visible;"/>
			</clipPath>
			
				<linearGradient id="SVGID_64_" gradientUnits="userSpaceOnUse" x1="-1959.1156" y1="769.2626" x2="-1959.2012" y2="763.4869" gradientTransform="matrix(0.9207 -0.3904 -0.3904 -0.9207 2189.8745 -46.7966)">
				<stop  offset="0" style="stop-color:#999999"/>
				<stop  offset="1" style="stop-color:#000000"/>
			</linearGradient>
			<path class="st46" d="M85.8,10c-0.1,0-0.2,0.1-0.2,0.1l1.9,5.3l1-0.4L86,9.9C85.9,9.9,85.8,10,85.8,10z"/>
		</g>
	</g>
	
		<linearGradient id="SVGID_65_" gradientUnits="userSpaceOnUse" x1="-1959.1156" y1="769.2626" x2="-1959.2012" y2="763.4869" gradientTransform="matrix(0.9207 -0.3904 -0.3904 -0.9207 2189.8745 -46.7966)">
		<stop  offset="0" style="stop-color:#FBFD91"/>
		<stop  offset="1" style="stop-color:#F3FFFF"/>
	</linearGradient>
	<path class="st47" d="M85.8,10c-0.1,0-0.2,0.1-0.2,0.1l1.9,5.3l1-0.4L86,9.9C85.9,9.9,85.8,10,85.8,10z"/>
	<g>
		<g>
			<defs>
				<polygon id="SVGID_66_" points="1,1 2,1 1,2 				"/>
			</defs>
			<defs>
				<polygon id="SVGID_67_" points="-1,-1 -2,-1 -1,-2 				"/>
			</defs>
			<clipPath id="SVGID_68_">
				<use xlink:href="#SVGID_66_"  style="overflow:visible;"/>
			</clipPath>
			<clipPath id="SVGID_69_" class="st48">
				<use xlink:href="#SVGID_67_"  style="overflow:visible;"/>
			</clipPath>
			
				<linearGradient id="SVGID_70_" gradientUnits="userSpaceOnUse" x1="-3518.6042" y1="2118.4219" x2="-3518.7595" y2="2107.9482" gradientTransform="matrix(0.7071 -0.7071 -0.7071 -0.7071 4074.1641 -982.1678)">
				<stop  offset="0" style="stop-color:#999999"/>
				<stop  offset="1" style="stop-color:#000000"/>
			</linearGradient>
			<path class="st49" d="M88.3,8.3c-0.1,0.1-0.2,0.2-0.3,0.3l6.9,7.6l1.4-1.4L88.6,8C88.5,8.1,88.4,8.2,88.3,8.3z"/>
		</g>
	</g>
	
		<linearGradient id="SVGID_71_" gradientUnits="userSpaceOnUse" x1="-3518.6042" y1="2118.4219" x2="-3518.7595" y2="2107.9482" gradientTransform="matrix(0.7071 -0.7071 -0.7071 -0.7071 4074.1641 -982.1678)">
		<stop  offset="0" style="stop-color:#FBFD91"/>
		<stop  offset="1" style="stop-color:#F3FFFF"/>
	</linearGradient>
	<path class="st50" d="M88.3,8.3c-0.1,0.1-0.2,0.2-0.3,0.3l6.9,7.6l1.4-1.4L88.6,8C88.5,8.1,88.4,8.2,88.3,8.3z"/>
	<g>
		<g>
			<defs>
				<polygon id="SVGID_72_" points="1,1 2,1 1,2 				"/>
			</defs>
			<defs>
				<polygon id="SVGID_73_" points="-1,-1 -2,-1 -1,-2 				"/>
			</defs>
			<clipPath id="SVGID_74_">
				<use xlink:href="#SVGID_72_"  style="overflow:visible;"/>
			</clipPath>
			<clipPath id="SVGID_75_" class="st51">
				<use xlink:href="#SVGID_73_"  style="overflow:visible;"/>
			</clipPath>
			
				<linearGradient id="SVGID_76_" gradientUnits="userSpaceOnUse" x1="-4483.085" y1="4040.9104" x2="-4483.1709" y2="4035.134" gradientTransform="matrix(0.375 -0.927 -0.927 -0.375 5516.9805 -2634.957)">
				<stop  offset="0" style="stop-color:#999999"/>
				<stop  offset="1" style="stop-color:#000000"/>
			</linearGradient>
			<path class="st52" d="M90.1,5.6C90,5.7,90,5.8,90,5.9l5.1,2.4l0.4-1l-5.4-1.9C90.1,5.5,90.1,5.5,90.1,5.6z"/>
		</g>
	</g>
	
		<linearGradient id="SVGID_77_" gradientUnits="userSpaceOnUse" x1="-4483.085" y1="4040.9104" x2="-4483.1709" y2="4035.134" gradientTransform="matrix(0.375 -0.927 -0.927 -0.375 5516.9805 -2634.957)">
		<stop  offset="0" style="stop-color:#FBFD91"/>
		<stop  offset="1" style="stop-color:#F3FFFF"/>
	</linearGradient>
	<path class="st53" d="M90.1,5.6C90,5.7,90,5.8,90,5.9l5.1,2.4l0.4-1l-5.4-1.9C90.1,5.5,90.1,5.5,90.1,5.6z"/>
	
		<linearGradient id="SVGID_78_" gradientUnits="userSpaceOnUse" x1="90.6298" y1="99.35" x2="100.0091" y2="99.35" gradientTransform="matrix(1 0 0 -1 0 102)">
		<stop  offset="0" style="stop-color:#FBFD91;stop-opacity:0.6"/>
		<stop  offset="1" style="stop-color:#F3FFFF;stop-opacity:0"/>
	</linearGradient>
	<path class="st54" d="M98.8,3.5V1.8l-8.1,0.4c0,0.2,0,0.3,0,0.5s0,0.3,0,0.5L98.8,3.5z"/>
	<g>
		<g>
			<defs>
				<polygon id="SVGID_79_" points="1,1 2,1 1,2 				"/>
			</defs>
			<defs>
				<polygon id="SVGID_80_" points="-1,-1 -2,-1 -1,-2 				"/>
			</defs>
			<clipPath id="SVGID_81_">
				<use xlink:href="#SVGID_79_"  style="overflow:visible;"/>
			</clipPath>
			<clipPath id="SVGID_82_" class="st55">
				<use xlink:href="#SVGID_80_"  style="overflow:visible;"/>
			</clipPath>
			
				<linearGradient id="SVGID_83_" gradientUnits="userSpaceOnUse" x1="-3955.0725" y1="8139.5259" x2="-3955.1582" y2="8133.75" gradientTransform="matrix(-0.3904 -0.9207 -0.9207 0.3904 6039.8066 -6819.6123)">
				<stop  offset="0" style="stop-color:#999999"/>
				<stop  offset="1" style="stop-color:#000000"/>
			</linearGradient>
			<path class="st56" d="M90-0.5c0,0.1,0.1,0.2,0.1,0.2l5.3-1.9l-0.4-1l-5.1,2.5C89.9-0.7,90-0.6,90-0.5z"/>
		</g>
	</g>
	<g>
		<g>
			<defs>
				<polygon id="SVGID_84_" points="1,1 2,1 1,2 				"/>
			</defs>
			<defs>
				<polygon id="SVGID_85_" points="-1,-1 -2,-1 -1,-2 				"/>
			</defs>
			<clipPath id="SVGID_86_">
				<use xlink:href="#SVGID_84_"  style="overflow:visible;"/>
			</clipPath>
			<clipPath id="SVGID_87_" class="st57">
				<use xlink:href="#SVGID_85_"  style="overflow:visible;"/>
			</clipPath>
			
				<linearGradient id="SVGID_88_" gradientUnits="userSpaceOnUse" x1="-2605.3201" y1="9699.7988" x2="-2605.4751" y2="9689.3252" gradientTransform="matrix(-0.7071 -0.7071 -0.7071 0.7071 5104.4355 -8703.9014)">
				<stop  offset="0" style="stop-color:#999999"/>
				<stop  offset="1" style="stop-color:#000000"/>
			</linearGradient>
			<path class="st58" d="M88.3-3.1c0.1,0.1,0.2,0.2,0.3,0.3l7.6-6.9L94.9-11L88-3.4C88.1-3.3,88.2-3.2,88.3-3.1z"/>
		</g>
	</g>
	<g>
		<g>
			<defs>
				<polygon id="SVGID_89_" points="1,1 2,1 1,2 				"/>
			</defs>
			<defs>
				<polygon id="SVGID_90_" points="-1,-1 -2,-1 -1,-2 				"/>
			</defs>
			<clipPath id="SVGID_91_">
				<use xlink:href="#SVGID_89_"  style="overflow:visible;"/>
			</clipPath>
			<clipPath id="SVGID_92_" class="st59">
				<use xlink:href="#SVGID_90_"  style="overflow:visible;"/>
			</clipPath>
			
				<linearGradient id="SVGID_93_" gradientUnits="userSpaceOnUse" x1="-682.8369" y1="10664.4805" x2="-682.9225" y2="10658.7041" gradientTransform="matrix(-0.927 -0.375 -0.375 0.927 3451.6462 -10146.7178)">
				<stop  offset="0" style="stop-color:#999999"/>
				<stop  offset="1" style="stop-color:#000000"/>
			</linearGradient>
			<path class="st60" d="M85.6-4.8c0.1,0,0.2,0.1,0.2,0.1l2.4-5.1l-1-0.4l-1.9,5.4C85.5-4.9,85.6-4.8,85.6-4.8z"/>
		</g>
	</g>
	<g>
		<g>
			<defs>
				<polygon id="SVGID_94_" points="1,1 2,1 1,2 				"/>
			</defs>
			<defs>
				<polygon id="SVGID_95_" points="-1,-1 -2,-1 -1,-2 				"/>
			</defs>
			<clipPath id="SVGID_96_">
				<use xlink:href="#SVGID_94_"  style="overflow:visible;"/>
			</clipPath>
			<clipPath id="SVGID_97_" class="st61">
				<use xlink:href="#SVGID_95_"  style="overflow:visible;"/>
			</clipPath>
			
				<linearGradient id="SVGID_98_" gradientUnits="userSpaceOnUse" x1="1374.3734" y1="10813.2734" x2="1374.2183" y2="10802.7998" gradientTransform="matrix(-1 0 0 1 1456.8658 -10818.3408)">
				<stop  offset="0" style="stop-color:#999999"/>
				<stop  offset="1" style="stop-color:#000000"/>
			</linearGradient>
			<path class="st62" d="M82.6-5.4c0.2,0,0.3,0,0.5,0l0.5-10.3h-1.9l0.5,10.3C82.3-5.4,82.5-5.4,82.6-5.4z"/>
		</g>
	</g>
	<g>
		<g>
			<defs>
				<polygon id="SVGID_99_" points="1,1 2,1 1,2 				"/>
			</defs>
			<defs>
				<polygon id="SVGID_100_" points="-1,-1 -2,-1 -1,-2 				"/>
			</defs>
			<clipPath id="SVGID_101_">
				<use xlink:href="#SVGID_99_"  style="overflow:visible;"/>
			</clipPath>
			<clipPath id="SVGID_102_" class="st63">
				<use xlink:href="#SVGID_100_"  style="overflow:visible;"/>
			</clipPath>
			
				<linearGradient id="SVGID_103_" gradientUnits="userSpaceOnUse" x1="3415.1777" y1="10135.4375" x2="3415.092" y2="10129.6621" gradientTransform="matrix(-0.9207 0.3904 0.3904 0.9207 -733.0088 -10669.5439)">
				<stop  offset="0" style="stop-color:#999999"/>
				<stop  offset="1" style="stop-color:#000000"/>
			</linearGradient>
			<path class="st64" d="M79.5-4.8c0.1,0,0.2-0.1,0.2-0.1l-1.9-5.3l-1,0.4l2.5,5.1C79.3-4.7,79.4-4.7,79.5-4.8z"/>
		</g>
	</g>
	<g>
		<g>
			<defs>
				<polygon id="SVGID_104_" points="1,1 2,1 1,2 				"/>
			</defs>
			<defs>
				<polygon id="SVGID_105_" points="-1,-1 -2,-1 -1,-2 				"/>
			</defs>
			<clipPath id="SVGID_106_">
				<use xlink:href="#SVGID_104_"  style="overflow:visible;"/>
			</clipPath>
			<clipPath id="SVGID_107_" class="st65">
				<use xlink:href="#SVGID_105_"  style="overflow:visible;"/>
			</clipPath>
			
				<linearGradient id="SVGID_108_" gradientUnits="userSpaceOnUse" x1="4976.0269" y1="8786.4854" x2="4975.8716" y2="8776.0117" gradientTransform="matrix(-0.7071 0.7071 0.7071 0.7071 -2617.2983 -9734.1729)">
				<stop  offset="0" style="stop-color:#999999"/>
				<stop  offset="1" style="stop-color:#000000"/>
			</linearGradient>
			<path class="st66" d="M77-3.1c0.1-0.1,0.2-0.2,0.3-0.3L70.4-11L69-9.6l7.6,6.9C76.7-2.8,76.8-2.9,77-3.1z"/>
		</g>
	</g>
	<g>
		<g>
			<defs>
				<polygon id="SVGID_109_" points="1,1 2,1 1,2 				"/>
			</defs>
			<defs>
				<polygon id="SVGID_110_" points="-1,-1 -2,-1 -1,-2 				"/>
			</defs>
			<clipPath id="SVGID_111_">
				<use xlink:href="#SVGID_109_"  style="overflow:visible;"/>
			</clipPath>
			<clipPath id="SVGID_112_" class="st67">
				<use xlink:href="#SVGID_110_"  style="overflow:visible;"/>
			</clipPath>
			
				<linearGradient id="SVGID_113_" gradientUnits="userSpaceOnUse" x1="5940.6914" y1="6864.311" x2="5940.606" y2="6858.5352" gradientTransform="matrix(-0.375 0.927 0.927 0.375 -4060.1145 -8081.3838)">
				<stop  offset="0" style="stop-color:#999999"/>
				<stop  offset="1" style="stop-color:#000000"/>
			</linearGradient>
			<path class="st68" d="M75.2-0.4c0-0.1,0.1-0.2,0.1-0.2L70.2-3l-0.4,1l5.4,1.9C75.1-0.2,75.2-0.3,75.2-0.4z"/>
		</g>
	</g>
	<g>
		<g>
			<defs>
				<polygon id="SVGID_114_" points="1,1 2,1 1,2 				"/>
			</defs>
			<defs>
				<polygon id="SVGID_115_" points="-1,-1 -2,-1 -1,-2 				"/>
			</defs>
			<clipPath id="SVGID_116_">
				<use xlink:href="#SVGID_114_"  style="overflow:visible;"/>
			</clipPath>
			<clipPath id="SVGID_117_" class="st69">
				<use xlink:href="#SVGID_115_"  style="overflow:visible;"/>
			</clipPath>
			
				<linearGradient id="SVGID_118_" gradientUnits="userSpaceOnUse" x1="6089.3096" y1="4806.6777" x2="6089.1543" y2="4796.2041" gradientTransform="matrix(0 1 1 0 -4731.7378 -6086.6035)">
				<stop  offset="0" style="stop-color:#999999"/>
				<stop  offset="1" style="stop-color:#000000"/>
			</linearGradient>
			<path class="st70" d="M74.6,2.6c0-0.2,0-0.3,0-0.5L64.4,1.6v1.9L74.7,3C74.6,2.9,74.6,2.8,74.6,2.6z"/>
		</g>
	</g>
	
		<linearGradient id="SVGID_119_" gradientUnits="userSpaceOnUse" x1="6089.3096" y1="4806.6777" x2="6089.1543" y2="4796.2041" gradientTransform="matrix(0 1 1 0 -4731.7378 -6086.6035)">
		<stop  offset="0" style="stop-color:#FBFD91"/>
		<stop  offset="1" style="stop-color:#F3FFFF"/>
	</linearGradient>
	<path class="st71" d="M74.6,2.6c0-0.2,0-0.3,0-0.5L64.4,1.6v1.9L74.7,3C74.6,2.9,74.6,2.8,74.6,2.6z"/>
	<g>
		<g>
			<defs>
				<polygon id="SVGID_120_" points="1,1 2,1 1,2 				"/>
			</defs>
			<defs>
				<polygon id="SVGID_121_" points="-1,-1 -2,-1 -1,-2 				"/>
			</defs>
			<clipPath id="SVGID_122_">
				<use xlink:href="#SVGID_120_"  style="overflow:visible;"/>
			</clipPath>
			<clipPath id="SVGID_123_" class="st72">
				<use xlink:href="#SVGID_121_"  style="overflow:visible;"/>
			</clipPath>
			
				<linearGradient id="SVGID_124_" gradientUnits="userSpaceOnUse" x1="5411.0415" y1="2765.1763" x2="5410.9561" y2="2759.4004" gradientTransform="matrix(0.3904 0.9207 0.9207 -0.3904 -4582.9409 -3896.7288)">
				<stop  offset="0" style="stop-color:#999999"/>
				<stop  offset="1" style="stop-color:#000000"/>
			</linearGradient>
			<path class="st73" d="M75.2,5.7c0-0.1-0.1-0.2-0.1-0.2l-5.3,1.9l0.4,1L75.4,6C75.3,5.9,75.3,5.8,75.2,5.7z"/>
		</g>
	</g>
	
		<linearGradient id="SVGID_125_" gradientUnits="userSpaceOnUse" x1="5411.0415" y1="2765.1763" x2="5410.9561" y2="2759.4004" gradientTransform="matrix(0.3904 0.9207 0.9207 -0.3904 -4582.9409 -3896.7288)">
		<stop  offset="0" style="stop-color:#FBFD91"/>
		<stop  offset="1" style="stop-color:#F3FFFF"/>
	</linearGradient>
	<path class="st74" d="M75.2,5.7c0-0.1-0.1-0.2-0.1-0.2l-5.3,1.9l0.4,1L75.4,6C75.3,5.9,75.3,5.8,75.2,5.7z"/>
	<g>
		<g>
			<defs>
				<polygon id="SVGID_126_" points="1,1 2,1 1,2 				"/>
			</defs>
			<defs>
				<polygon id="SVGID_127_" points="-1,-1 -2,-1 -1,-2 				"/>
			</defs>
			<clipPath id="SVGID_128_">
				<use xlink:href="#SVGID_126_"  style="overflow:visible;"/>
			</clipPath>
			<clipPath id="SVGID_129_" class="st75">
				<use xlink:href="#SVGID_127_"  style="overflow:visible;"/>
			</clipPath>
			
				<linearGradient id="SVGID_130_" gradientUnits="userSpaceOnUse" x1="4062.6716" y1="1205.1086" x2="4062.5166" y2="1194.6348" gradientTransform="matrix(0.7071 0.7071 0.7071 -0.7071 -3647.5698 -2012.4391)">
				<stop  offset="0" style="stop-color:#999999"/>
				<stop  offset="1" style="stop-color:#000000"/>
			</linearGradient>
			<path class="st76" d="M77,8.3c-0.1-0.1-0.2-0.2-0.3-0.3L69,14.8l1.4,1.4l6.9-7.6C77.2,8.5,77.1,8.4,77,8.3z"/>
		</g>
	</g>
	
		<linearGradient id="SVGID_131_" gradientUnits="userSpaceOnUse" x1="4062.6716" y1="1205.1086" x2="4062.5166" y2="1194.6348" gradientTransform="matrix(0.7071 0.7071 0.7071 -0.7071 -3647.5698 -2012.4391)">
		<stop  offset="0" style="stop-color:#FBFD91"/>
		<stop  offset="1" style="stop-color:#F3FFFF"/>
	</linearGradient>
	<path class="st77" d="M77,8.3c-0.1-0.1-0.2-0.2-0.3-0.3L69,14.8l1.4,1.4l6.9-7.6C77.2,8.5,77.1,8.4,77,8.3z"/>
	<g>
		<g>
			<defs>
				<polygon id="SVGID_132_" points="1,1 2,1 1,2 				"/>
			</defs>
			<defs>
				<polygon id="SVGID_133_" points="-1,-1 -2,-1 -1,-2 				"/>
			</defs>
			<clipPath id="SVGID_134_">
				<use xlink:href="#SVGID_132_"  style="overflow:visible;"/>
			</clipPath>
			<clipPath id="SVGID_135_" class="st78">
				<use xlink:href="#SVGID_133_"  style="overflow:visible;"/>
			</clipPath>
			
				<linearGradient id="SVGID_136_" gradientUnits="userSpaceOnUse" x1="2140.5352" y1="240.74" x2="2140.4495" y2="234.9637" gradientTransform="matrix(0.927 0.375 0.375 -0.927 -1994.7804 -569.623)">
				<stop  offset="0" style="stop-color:#999999"/>
				<stop  offset="1" style="stop-color:#000000"/>
			</linearGradient>
			<path class="st79" d="M79.6,10.1c-0.1,0-0.2-0.1-0.2-0.1L77,15.1l1,0.4l1.9-5.4C79.8,10.1,79.7,10.1,79.6,10.1z"/>
		</g>
	</g>
	
		<linearGradient id="SVGID_137_" gradientUnits="userSpaceOnUse" x1="2140.5352" y1="240.74" x2="2140.4495" y2="234.9637" gradientTransform="matrix(0.927 0.375 0.375 -0.927 -1994.7804 -569.623)">
		<stop  offset="0" style="stop-color:#FBFD91"/>
		<stop  offset="1" style="stop-color:#F3FFFF"/>
	</linearGradient>
	<path class="st80" d="M79.6,10.1c-0.1,0-0.2-0.1-0.2-0.1L77,15.1l1,0.4l1.9-5.4C79.8,10.1,79.7,10.1,79.6,10.1z"/>
	<linearGradient id="SVGID_138_" gradientUnits="userSpaceOnUse" x1="79.2793" y1="-2.1987" x2="90.2749" y2="13.9992">
		<stop  offset="0" style="stop-color:#FBF394"/>
		<stop  offset="0.8494" style="stop-color:#F4D544"/>
		<stop  offset="1" style="stop-color:#F3D036"/>
	</linearGradient>
	<path class="st81" d="M76.8,0c-0.4,0.8-0.6,1.7-0.6,2.6c0,3.5,2.9,6.4,6.4,6.4C86.1,9,89,6.1,89,2.6c0-0.9-0.2-1.8-0.6-2.6H76.8z"
		/>
</g>
<g id="clouds">
	<path class="st82" d="M65.4,9.2c2.2-0.2,4.3-0.2,6.5,0c0.8,0,1.6,0.2,2.4,0.2c-0.3-0.1-0.7-0.1-1.1-0.2c0.2-0.1,0.4,0.1,0.6,0
		c-15.3-0.9-30.6-1.1-46-1.6c1.7,0.3,3.4,0.3,5.1,0.6c-5.8,0-11.5-0.5-17.3,0.1c16.7,0.1,33.3,0.9,50,1.4c-0.1,0-0.3,0.1-0.4,0.1
		c1.2-0.1,2.4-0.1,3.6-0.3C67.7,9.2,66.6,9.3,65.4,9.2z"/>
	<path class="st40" d="M100,39c-6.8-0.2-13.6-0.3-20.4-0.6c1.7,0.3,3.4,0.3,5.1,0.6c-5.8,0-11.5-0.5-17.3,0.1
		c10.9,0.1,21.7,0.4,32.6,0.8C100,39.9,100,39,100,39z"/>
	<path class="st83" d="M94.3,35.7c1.9,0.4,3.8,0.5,5.7,0.6V19.6c-8.1,0-16.2,0.1-24.4,1c-0.7,0.1-14.4,0-15.1,0c-0.2,0-0.4,0-0.6,0
		c-8.8,0.1-4.7,0.1-13.6-0.2c-4.1-0.1-3.2-0.2-7.2,0.8c-0.5,0.1-1.1,0.3-1.5,0.6c-0.5,0.3-0.7,1-0.4,1.6l0,0c0.2,0.4,0.6,0.6,1,0.6
		c0,0,0,0,0.1,0c11.4,0.3,22.8,0.8,34.2,1.3c0.2,0,0.4,0,0.6,0c-0.2,0-0.4,0-0.6,0c-10.3,0.1-20.5-0.8-30.8-0.4c-1,0-2.1,0-3.1,0.3
		c0.3,0.3,0.7,0.4,1.1,0.5c1.6,0.6,3.3,0.6,4.8,1.7c0.2,0.1,0.2,0.4,0,0.5c-1.3,0.6-2.6,0.7-3.9,1c-0.2,0-0.4,0.1-0.6,0.1
		c-2.1,0.5-4.2,1.1-6.2,1.9c-0.2,0-0.3,0.1-0.3,0.3c-0.2,0.7,0.5,1.2,1,1.3c5.1,1.6,10.4,2,15.6,2.3c6.3,0.4,12.6,0.3,19,0
		c4.2-0.1,8.4,0.3,12.6,0.1c-0.2-0.2-0.5,0-0.6-0.2c1.9-0.1,3.8,0.2,5.7,0c-0.7-0.3-1.5-0.3-2.2-0.5C87.9,34.2,90.9,35,94.3,35.7z"
		/>
	<path class="st82" d="M100,12.8c-4.2-0.2-8.3-0.1-12.5,0.1c-3.7,0.2-7.3,0.6-11,0.6c-0.1,0-0.3,0-0.4,0c-0.6,0-1.3,0-1.9,0
		c0,0,0,0-0.1,0c-0.5-0.1-0.9-0.2-1.4-0.2c-0.2,0-0.4,0-0.6,0c-0.1,0-0.3,0-0.4,0c-3.1,0-6.2-0.1-9.4-0.1c-0.1,0-0.3,0-0.4,0
		c-3,0.1-6.1-0.2-9,0.6c5.6,1.3,11.4,1.9,17.2,2.1c0.1,0,0.3,0,0.4,0c0.3,0,0.5,0,0.8,0c0.1,0,0.3,0,0.4,0c1-0.1,2-0.2,3-0.2
		c0.1,0,0.3,0,0.4,0c4.3-0.4,8.6-0.8,12.9-1.3c4-0.4,8-0.4,12-0.4V12.8z"/>
	<path class="st84" d="M100,1c-1.8,0.4-3.9,0.9-5.8,1.3c-0.1,0-0.3,0-0.4,0.1c-0.4,0.1-0.8,0.1-1.2,0.2c-0.2,0-0.4,0.1-0.5,0.1
		c-0.2,0-0.4,0.1-0.5,0.1c-6,0.8-10.9,0.8-16.3,0.8c-4.8,0-9.5-1-14.3-1.3c-1-0.1-2.1-0.3-3.2-0.1C70.2,5,82.9,5.4,95.6,4.4
		c0.2,0,0.4,0,0.6,0s0.4,0,0.6,0C97.9,4,99,4,100,3.9V1z"/>
	<path class="st82" d="M5.2,3.3c-0.2,0-0.4,0-0.6,0C3,3.3,1.5,3.3,0,3.2v2.1c3.3,0,6.6-0.1,9.9-0.3c0.2,0,0.4,0,0.6,0
		c4.9-0.1,9.8-0.3,14.7-0.8C18.6,3.4,11.8,3.6,5.2,3.3z"/>
	<path class="st82" d="M45.4,11.2c3.2-0.2,6.4-0.4,9.6-0.7c-0.8-0.1-1.5,0-2.3,0c-0.7,0-1.4,0-2.1,0c0.7,0,1.4,0,2,0
		c-0.1,0-0.2,0-0.3,0c0.1,0,0.2,0,0.4,0c-0.2,0-0.3,0-0.5,0c0.7-0.1,1.5,0,2.2-0.3c-11-0.4-21.9-1-32.8-0.9C14.3,9.3,7.2,9.5,0,9.4
		v2.7c8.3-0.3,16.6-0.5,24.8-0.7c6.2-0.2,12.4,0.2,18.7-0.1c2.5,0.2,5,0,7.4,0.3c0,0,0.1,0,0.2,0c1.1-0.2,2.2-0.2,3.3-0.3
		C51.4,11.3,48.4,11.4,45.4,11.2z"/>
	<path class="st40" d="M69.2,20c-0.8-0.1-1.6-0.2-2.4-0.3c-0.2,0-0.4,0-0.6-0.1c-3.5-0.4-7.1-0.5-10.7-0.8c-1.6-0.2-3.2-0.5-4.8-1
		c0.6-0.2,1.2-0.1,1.7-0.3c-0.2-0.2-0.4-0.1-0.6-0.1c1.4-0.3,3.1,0,4.4-0.7C41.3,15.2,26,16.1,11,15.8c-3.7-0.1-7.3-0.2-11-0.2v7.1
		c8-0.6,15.9-1.1,23.9-1c0.2,0,0.4,0,0.5,0c1.6-0.1,3.2-0.2,4.9-0.3c13.8-1,39,0.8,41.2-0.7l0,0C70.6,20,69.7,20,69.2,20z"/>
	<path class="st40" d="M73.2,40c-12.8,0.1-25.6,0.7-38.3-0.7c-0.2,0-0.4-0.1-0.6-0.1c-0.6-0.1-1.2-0.2-1.8-0.2
		c-0.6,0-1.3-0.2-1.6-0.7c2.4-0.8,4.9-1.5,7.4-1.7c0.2,0,0.4,0,0.5,0c7.6-0.4,15.1-0.3,22.7-0.8c0.2,0,0.4,0,0.6,0
		c4.9-0.1,9.8-0.3,14.7-0.8c-6.6-0.7-13.4-0.6-20.1-0.8c-0.2,0-0.4,0-0.6,0c-7.2-0.1-14.4-0.2-21.6-0.3c-0.2,0-0.4,0-0.6,0
		c-1.7,0-3.3-0.1-4.9-0.1c-0.2,0-0.4,0-0.5,0c-4.1-0.1-8.2-0.1-12.3,0.1c-0.2,0-0.4,0-0.6,0c-5.3,0.3-10.5,0.3-15.7,0v8.3
		c4.9,0.2,9.8,0.5,14.7,0.8c0.2,0,0.4,0,0.6,0c1.9,0.1,3.7,0,5.5,0.1c5.4,0.3,10.8,0.5,16.2,0.6c0.2,0,0.4,0,0.6,0
		c13-0.7,26-1,39-1.4c6.2-0.2,12.4,0.2,18.7-0.1c1.6,0.1,3.2,0.1,4.8,0.2v-1.7C91.1,40.3,82.2,39.9,73.2,40z"/>
	
		<linearGradient id="SVGID_139_" gradientUnits="userSpaceOnUse" x1="7.2" y1="50.2835" x2="7.2" y2="51.7103" gradientTransform="matrix(1 0 0 -1 0 102)">
		<stop  offset="0" style="stop-color:#4CB8FF"/>
		<stop  offset="1" style="stop-color:#8BE1FF"/>
	</linearGradient>
	<path class="st85" d="M14.5,51.5c-1.2-0.4-2.4-0.4-3.6-0.6c-1.9-0.3-3.8-0.3-5.7-0.3H5.1c-0.1,0-0.1,0-0.2,0H4.8
		c-0.1,0-0.1,0-0.2,0s-0.1,0-0.2,0c-1.6,0-1.6,0-3.2,0c-0.1,0-0.1,0-0.2,0c-0.4,0-0.7,0-1.1,0.1v0.5c0.1,0,0.3,0,0.4,0h0.1
		c2.6,0.2,3.5,0.3,6.2,0.3c0.1,0,0.1,0,0.2,0c0.4,0,0.7,0,1.1,0C10.1,51.6,12.3,51.5,14.5,51.5C14.4,51.6,14.5,51.6,14.5,51.5z"/>
	
		<linearGradient id="SVGID_140_" gradientUnits="userSpaceOnUse" x1="8.15" y1="44.0997" x2="8.15" y2="45.6285" gradientTransform="matrix(1 0 0 -1 0 102)">
		<stop  offset="0" style="stop-color:#4CB8FF"/>
		<stop  offset="1" style="stop-color:#8BE1FF"/>
	</linearGradient>
	<path class="st86" d="M7.2,56.9c-0.1,0-0.2-0.1-0.3-0.1c-0.1,0-0.2-0.1-0.4-0.1l0,0C4.4,57,2.2,57.2,0,57.3v0.2
		c1.8,0,3.7,0.1,5.5,0.1c0.1,0,0.1,0,0.2,0c3.6,0.1,7.1,0.3,10.6-0.2C13.3,57.3,10,58.1,7.2,56.9z"/>
</g>
<g id="right_x5F_eye">
	
		<linearGradient id="shadow_2_" gradientUnits="userSpaceOnUse" x1="-157.2808" y1="56.3619" x2="-157.2808" y2="43.4057" gradientTransform="matrix(-1 0 0 -1 -85.0308 102)">
		<stop  offset="0" style="stop-color:#000000"/>
		<stop  offset="1" style="stop-color:#0077BA"/>
	</linearGradient>
	<path id="shadow_1_" class="st87" d="M72.6,56.6C72.6,56.5,72.6,56.5,72.6,56.6c0.7-0.1,1.6-0.2,2.4-0.3l-0.1-0.1
		c0.3-0.4,0.9-0.2,1.3-0.5c-0.2-0.1-0.4-0.2-0.6-0.3c0.3-0.2,0.6-0.1,0.9-0.3c-0.1,0-0.2,0-0.2-0.1c0.4-0.2,0.9,0,1.4-0.2
		c-0.1,0-0.2-0.1-0.3-0.1c0.5-0.2,1-0.4,1.6-0.5c0.3-0.1,0-0.3,0-0.4c0.4-0.2,0.8-0.2,1.2-0.4c0,0-0.1-0.1-0.2-0.1s-0.1,0-0.2-0.1
		c-0.1,0-0.1,0-0.2,0c-0.4-0.1-0.7-0.1-1.1-0.3c0.5-0.1,1-0.1,1.5-0.3v-0.1h0.1c0,0-0.1,0-0.1-0.1c0.3-0.2,0.6-0.1,0.9-0.3
		c0-0.1-0.1-0.2-0.1-0.2c0.3-0.3,0.8-0.2,1.2-0.5c0.1-0.1,0.1-0.1,0.2-0.2c0.1-0.1,0.1-0.1,0.2-0.2c-0.5-0.4-1.2-0.2-1.7-0.5
		c0.7-0.3,1.6,0,2.2-0.4c0.5-0.4,1.1-0.4,1.6-0.5c-0.2-0.4-0.8-0.3-1-0.6c-0.2-0.4-0.6-0.5-0.9-0.7c0.3-0.3,0.7-0.2,1-0.3
		c0.1,0,0.1-0.1,0.1-0.1c0-0.2,0-0.3,0-0.5L69,44.6l-8.5,1.1c0,0.2,0,0.3,0,0.5c0.1,0,0.1,0.1,0.2,0.1c0.2,0,0.4,0.1,0.6,0.1
		c-0.1,0.2-0.4,0.2-0.5,0.5c0,0,0.1,0.1,0.1,0.2c-0.3,0.3-0.5,0.5-0.9,0.6c0.8,0.2,1.7,0.2,2.5,0.2c0.2,0,0.6-0.2,0.7,0.2
		c-0.6,0.2-1.3,0.1-1.9,0.4c0.1,0.2,0.2,0.2,0.3,0.3c-0.3,0.1-0.6,0.1-0.9,0.4c0.6,0.4,1.3,0.2,1.9,0.5c-0.2,0-0.4,0.1-0.6,0.1
		c0.8,0,1.6-0.1,2.4,0c-0.3,0.3-0.9,0.3-1.3,0.5c-0.1,0.1-0.1,0.3-0.3,0.4c0.3,0.1,0.7-0.1,1,0.2c-0.6,0.1-1.2,0-1.7,0.4
		c0.1,0.1,0.3,0.2,0.3,0.2c-0.3,0.3-0.9,0-1.3,0.2c0.7,0.5,1.7,0.4,2.5,0.7c-0.3,0.3-0.9,0-0.9,0.5c0.1,0.4,0.9,0.3,1.4,0.5
		c0,0.1-0.2,0.1-0.1,0.2c0.2,0.2,0.6,0,0.8,0.3c-0.4,0.2-0.9,0.1-1.1,0.5c0.3,0,0.6,0.1,0.9,0.1c-0.2,0-0.4,0-0.6,0
		c1,0.6,2.3,0.9,3.5,1.1h-0.1c0.8,0.2,1.5,0.3,2.3,0.4c-0.4,0.2-0.9-0.2-1.2-0.1c-0.2,0.1-0.1,0.5,0.2,0.5c1.1,0.3,2.2,0.4,3.4,0.4
		C72.3,56.4,72.5,56.5,72.6,56.6L72.6,56.6z"/>
	<g id="palm_x5F_small_1_">
		<path id="stem_3_" class="st88" d="M74,37.5c0,0.4,0,0.8,0,1.2h0.2H74c0,0.1,0,0.3,0,0.4h0.1H74c0,0.2-0.1,0.4-0.1,0.5h0.2
			l-0.2,0.1c0,0.1-0.1,0.3-0.1,0.4H74l-0.2,0.1c-0.1,0.2-0.1,0.3-0.2,0.5h0.2l-0.3,0.1c-0.1,0.1-0.1,0.3-0.2,0.4h0.3l-0.4,0.1
			c-0.1,0.2-0.2,0.3-0.3,0.5h0.3l-0.4,0.1c-0.1,0.2-0.3,0.4-0.4,0.6h0.5l-0.6,0.2c-0.1,0.2-0.3,0.3-0.4,0.5l0.7,0.1l-1,0.3
			c-0.2,0.2-0.3,0.3-0.3,0.3l1.5,0.6c0-0.1,0.2-0.5,0.3-1L72.7,43l0.5,0.3c0.1-0.2,0.1-0.4,0.2-0.6l-0.3-0.4l0.4,0.2
			c0.1-0.3,0.2-0.5,0.2-0.6l-0.3-0.3l0.3,0.2c0.1-0.2,0.1-0.5,0.2-0.7l0-0.1l0.2,0.1c0-0.2,0.1-0.3,0.1-0.5L74,40.5l0.2,0.1
			c0-0.2,0.1-0.4,0.1-0.5L74.2,40l0.1,0.1c0-0.2,0-0.3,0.1-0.5l-0.1-0.1h0.1c0-0.2,0-0.3,0-0.5l-0.1-0.1h0.1c0-0.9-0.2-1.3-0.2-1.3
			C74.1,37.5,74,37.5,74,37.5z"/>
		<path id="leafs" class="st89" d="M74.7,36.3c0.1-0.1,0.3-0.2,0.5-0.3l-0.1-0.1c0,0,0.1,0,0.2,0s0.2-0.1,0.3-0.1
			c-0.1,0-0.1-0.1-0.2-0.1c0,0,0.2,0,0.4,0.1c0.4-0.1,0.8,0,0.8,0c-1.2-1.3-2.4,0.5-2.4,0.5c-2.1-2.1-3.3,0-3.3,0
			c0.3-0.2,0.8-0.3,1.2-0.2c0.1-0.2,0.3-0.2,0.3-0.2c-0.1,0.1-0.2,0.2-0.2,0.3c0.1,0,0.2,0,0.3,0.1c0.1-0.1,0.3-0.2,0.3-0.2
			c-0.1,0-0.1,0.1-0.1,0.2h0.1c0.1-0.1,0.2-0.1,0.2-0.1l-0.1,0.1c0.2,0.1,0.4,0.1,0.5,0.2c0.1,0,0.1,0,0.1,0h-0.1c0.1,0,0.1,0,0.1,0
			c-2.8,0-2.4,2.4-2.4,2.4c0.2-0.4,0.5-0.6,0.8-0.8c0.1-0.3,0.3-0.6,0.3-0.6c-0.1,0.1-0.1,0.3-0.1,0.4c0.1-0.1,0.2-0.1,0.3-0.2
			c0-0.2,0.2-0.4,0.2-0.4c-0.1,0.1-0.1,0.3-0.1,0.3c0.1,0,0.1,0,0.1-0.1s0.2-0.3,0.2-0.3c0,0.1,0,0.2,0,0.2c0.1,0,0.2-0.1,0.2-0.1
			c-1.1,1.1-0.4,2.8-0.4,2.8c0-0.5,0.2-1.5,0.4-1.7c-0.1-0.1-0.1-0.2-0.1-0.2c0,0.1,0.1,0.1,0.1,0.1c0-0.1,0.1-0.2,0.1-0.2
			c0-0.2,0.1-0.3,0.1-0.3c0,0.1,0,0.1,0,0.2c0.1-0.1,0.2-0.3,0.3-0.4c0-0.1,0-0.3,0-0.3c0,0.1,0,0.2,0.1,0.2
			c0.2-0.2,0.4-0.2,0.4-0.2s0.1,0,0.3,0.1c0.1,0,0.1,0.1,0.1,0.1s0.1-0.1,0.1-0.2c0,0,0,0.2,0,0.3c0.1,0.1,0.2,0.3,0.3,0.4
			c0,0,0.1-0.1,0.2-0.1c0,0,0,0.1-0.1,0.2c0.3,0.8,0,1.9,0,1.9c1.5-1.5,0-3,0-3c0.3,0,0.5,0,0.8,0.1c0-0.1,0-0.2-0.1-0.3
			c0,0,0.2,0.1,0.3,0.3c0.1,0,0.2,0.1,0.2,0.1c0-0.1,0-0.3-0.1-0.3c0,0,0.3,0.2,0.4,0.5c0.5,0.3,0.8,0.6,0.8,0.6
			C77,36,74.7,36.3,74.7,36.3z"/>
	</g>
	<g id="palm_x5F_big_1_">
		<path id="stem_4_" class="st88" d="M70.9,28.5c0,0-0.7,0.7-1.3,2.6h0.2l-0.3,0.1c-0.1,0.3-0.2,0.7-0.3,1h0.3l-0.3,0.1
			c-0.1,0.3-0.2,0.7-0.3,1.1h0.3l-0.4,0.2c-0.1,0.4-0.1,0.8-0.2,1.2H69L68.6,35c0,0.3-0.1,0.7-0.1,1h0.4l-0.5,0.2
			c-0.1,0.5-0.1,1-0.1,1.5l0.8-0.1l-0.9,0.5c0,0.2,0,0.7,0,1.3l0.9-0.1l-1,0.5c0,0.5,0,1,0,1.5l1.2-0.2L68.2,42c0,1.1,0,2,0,2.3h3.7
			c0,0-0.1-0.3-0.3-0.8l-1.8-1.3l1.5,0.4c-0.1-0.4-0.3-0.8-0.4-1.3l-1.2-0.9l1.1,0.3c-0.1-0.5-0.3-1-0.4-1.5l-0.8-0.5l0.7,0.2
			C70.1,38.4,70,38,70,37.5L69.2,37l0.7,0.2c0-0.3-0.1-0.7-0.1-1l-0.6-0.4l0.5,0.1c0-0.3,0-0.7,0-1.1l-0.5-0.3l0.5,0.1
			c0-0.3,0.1-0.6,0.1-1l-0.4-0.3l0.5,0.1c0.1-0.4,0.1-0.8,0.2-1.2L69.9,32l0.3,0.1c0.1-0.3,0.1-0.6,0.2-0.9L70.2,31l0.3,0.1
			c0.2-0.8,0.6-1.6,1-2.5C71.3,28.4,70.9,28.5,70.9,28.5z"/>
		<path id="leafs_4_" class="st89" d="M76.9,27.3c0.9,0.2,1.8,0.6,2.3,1.3c0,0-0.9-5.3-7-2.5c0,0-1.3-5-4.7-3c0,0,0.8,0.1,1.7,0.6
			c0.4-0.1,0.8,0.1,0.8,0.1c-0.1,0-0.4,0-0.5,0.1c0.2,0.1,0.4,0.3,0.6,0.5c0.2,0,0.4,0.1,0.4,0.1c-0.1,0-0.2,0-0.3,0
			c0.3,0.3,0.6,0.6,0.8,1c0,0-4.7-2.5-6.5,2.2c0,0,1-0.5,2.2-0.7c0.4-0.5,1.1-0.7,1.1-0.7c-0.2,0.1-0.4,0.4-0.5,0.6
			c0.2,0,0.4,0,0.6,0c0.3-0.3,0.8-0.5,0.8-0.5c-0.2,0.1-0.3,0.3-0.4,0.5c0.6,0,1.1,0.1,1.7,0.4c0,0-4.3,1.9-2.3,6.2
			c0,0,0.1-2.6,1.4-4C69,29.2,69,28.9,69,28.9c0,0.2,0.2,0.4,0.2,0.4c0.3-0.3,0.6-0.5,1-0.6c0-0.3,0.2-0.6,0.2-0.6
			c-0.1,0.2,0,0.4,0,0.5c0.1,0,0.2-0.1,0.4-0.1c0,0,0.4-0.1,0.6,0.1c0,0,0.3,0.3,0.7,0.8c0.1-0.1,0.3-0.3,0.3-0.4c0,0,0,0.4-0.2,0.7
			c0.2,0.3,0.3,0.6,0.4,1c0.1-0.1,0.2-0.3,0.2-0.4c0,0,0.1,0.4-0.1,0.7c0,0.2,0.1,0.4,0.1,0.6c0.1,0,0.2-0.1,0.3-0.2
			c0,0-0.1,0.3-0.3,0.4c0.1,0.6-0.2,2.9-0.6,4c0,0,2.9-3,1.4-6.2c0,0,0.2,0.1,0.4,0.3c0-0.1,0.1-0.3,0.1-0.5c0,0,0.2,0.3,0.1,0.7
			c0.1,0.1,0.2,0.1,0.3,0.2c0.1-0.1,0.2-0.5,0.1-0.7c0,0,0.2,0.5,0.2,1c0.2,0.2,0.4,0.4,0.6,0.6c0.1-0.2,0.2-0.6,0.2-0.9
			c0,0,0.4,0.7,0.2,1.4c0.5,0.6,0.8,1.4,1,2.3c0,0,2.6-4.8-3.3-6.9c0,0,0.1,0,0.3,0L73.7,27c0,0,0.1,0,0.2,0.1c0.3,0,0.7,0,1.1,0
			c0-0.1,0-0.2-0.1-0.3c0,0,0.2,0.1,0.3,0.3c0.1,0,0.2,0,0.3,0c0-0.2-0.1-0.4-0.2-0.5c0,0,0.3,0.2,0.4,0.5c0.2,0,0.5,0.1,0.7,0.1
			c0-0.2,0-0.5-0.2-0.7C76.4,26.5,76.8,26.9,76.9,27.3z"/>
	</g>
	<path id="beach_1_" class="st90" d="M60.5,45.6c0,0,5.4-5.8,22.8,1.7C83.3,47.3,71.3,45.2,60.5,45.6z"/>
</g>
<g id="left_x5F_eye">
	
		<linearGradient id="shadow_4_" gradientUnits="userSpaceOnUse" x1="28.95" y1="56.3619" x2="28.95" y2="43.4057" gradientTransform="matrix(1 0 0 -1 0 102)">
		<stop  offset="0" style="stop-color:#000000"/>
		<stop  offset="1" style="stop-color:#0077BA"/>
	</linearGradient>
	<path id="shadow_3_" class="st91" d="M28.4,56.6C28.4,56.5,28.4,56.5,28.4,56.6c-0.7-0.1-1.6-0.2-2.4-0.3l0.1-0.1
		c-0.3-0.4-0.9-0.2-1.3-0.5c0.2-0.1,0.4-0.2,0.6-0.3c-0.3-0.2-0.6-0.1-0.9-0.3c0.1,0,0.2,0,0.2-0.1c-0.4-0.2-0.9,0-1.4-0.2
		c0.1,0,0.2-0.1,0.3-0.1c-0.5-0.2-1-0.4-1.6-0.5c-0.3-0.1,0-0.3,0-0.4c-0.4-0.2-0.8-0.2-1.2-0.4c0,0,0.1-0.1,0.2-0.1s0.1,0,0.2-0.1
		c0.1,0,0.1,0,0.2,0c0.4-0.1,0.7-0.1,1.1-0.3c-0.5-0.1-1-0.1-1.5-0.3v-0.1h-0.1c0,0,0.1,0,0.1-0.1c-0.3-0.2-0.6-0.1-0.9-0.3
		c0-0.1,0.1-0.2,0.1-0.2c-0.3-0.3-0.8-0.2-1.2-0.5c-0.1-0.1-0.1-0.1-0.2-0.2c0.3,0,0.2-0.1,0.2-0.2c0.5-0.4,1.2-0.2,1.7-0.5
		c-0.7-0.3-1.6,0-2.2-0.4c-0.5-0.4-1.1-0.4-1.6-0.5c0.2-0.4,0.8-0.3,1-0.6c0.2-0.4,0.6-0.5,0.9-0.7c-0.3-0.3-0.7-0.2-1-0.3
		c-0.1,0-0.1-0.1-0.1-0.1c0-0.2,0-0.3,0-0.5L32,44.6l8.5,1.1c0,0.2,0,0.3,0,0.5c-0.1,0-0.1,0.1-0.2,0.1c-0.2,0-0.4,0.1-0.6,0.1
		c0.1,0.2,0.4,0.2,0.5,0.5c0,0-0.1,0.1-0.1,0.2c0.3,0.3,0.5,0.5,0.9,0.6c-0.8,0.2-1.7,0.2-2.5,0.2c-0.2,0-0.6-0.2-0.7,0.2
		c0.6,0.2,1.3,0.1,1.9,0.4c-0.1,0.2-0.2,0.2-0.3,0.3c0.3,0.1,0.6,0.1,0.9,0.4c-0.6,0.4-1.3,0.2-1.9,0.5c0.2,0,0.4,0.1,0.6,0.1
		c-0.8,0-1.6-0.1-2.4,0c0.3,0.3,0.9,0.3,1.3,0.5c0.1,0.1,0.1,0.3,0.3,0.4c-0.3,0.1-0.7-0.1-1,0.2c0.6,0.1,1.2,0,1.7,0.4
		c-0.1,0.1-0.3,0.2-0.3,0.2c0.3,0.3,0.9,0,1.3,0.2c-0.7,0.5-1.7,0.4-2.5,0.7c0.3,0.3,0.9,0,0.9,0.5c-0.1,0.4-0.9,0.3-1.4,0.5
		c0,0.1,0.2,0.1,0.1,0.2c-0.2,0.2-0.6,0-0.8,0.3c0.4,0.2,0.9,0.1,1.1,0.5c-0.3,0-0.6,0.1-0.9,0.1c0.2,0,0.4,0,0.6,0
		c-1,0.6-2.3,0.9-3.5,1.1h0.1c-0.8,0.2-1.5,0.3-2.3,0.4c0.4,0.2,0.9-0.2,1.2-0.1c0.2,0.1,0.1,0.5-0.2,0.5c-1.1,0.3-2.2,0.4-3.4,0.4
		C28.7,56.4,28.5,56.5,28.4,56.6L28.4,56.6z"/>
	<g id="palm_x5F_small">
		<path id="stem_2_" class="st88" d="M27.9,37.6c0,0-0.2,0.4-0.2,1.3h0.1L27.7,39c0,0.1,0,0.3,0,0.5h0.1l-0.1,0.1
			c0,0.2,0,0.3,0.1,0.5l0.1-0.1v0c0,0.2,0.1,0.4,0.1,0.5l0.2-0.1L28,40.7c0,0.1,0.1,0.3,0.1,0.5l0.2-0.1l-0.2,0.2
			c0.1,0.2,0.1,0.4,0.2,0.7l0.3-0.2L28.3,42c0,0.1,0.1,0.3,0.2,0.6l0.4-0.2l-0.3,0.4c0.1,0.2,0.1,0.4,0.2,0.6l0.5-0.3l-0.4,0.5
			c0.2,0.4,0.3,0.9,0.3,1l1.5-0.6c0,0-0.1-0.1-0.3-0.3l-1-0.3l0.7-0.1c-0.1-0.1-0.2-0.3-0.4-0.5l-0.6-0.2h0.5
			c-0.1-0.2-0.3-0.4-0.4-0.6l-0.3,0h0.3c-0.1-0.2-0.2-0.3-0.3-0.5l-0.4-0.1h0.3c-0.1-0.1-0.1-0.3-0.2-0.4l-0.3-0.1h0.2
			c-0.1-0.1-0.1-0.3-0.2-0.5l-0.2-0.1h0.2c0-0.1-0.1-0.3-0.1-0.4L28,39.8h0.2c0-0.2-0.1-0.3-0.1-0.5H28h0.1c0-0.1,0-0.3,0-0.4h-0.2
			h0.2c0-0.4,0-0.8,0-1.2C28.2,37.5,28.1,37.5,27.9,37.6z"/>
		<path id="leafs_2_" class="st89" d="M28.9,36.6c0,0,0,0,0.1,0C28.9,36.5,28.9,36.5,28.9,36.6c0-0.1,0.1-0.1,0.2-0.1
			s0.3-0.1,0.5-0.2l-0.1-0.1c0,0,0.1,0,0.2,0.1h0.1c0-0.1-0.1-0.1-0.1-0.2c0,0,0.1,0,0.3,0.2c0.1,0,0.2-0.1,0.3-0.1
			c0-0.1-0.1-0.2-0.2-0.3c0,0,0.2,0.1,0.3,0.2c0.4-0.1,0.9,0,1.2,0.2c0,0-1.2-2.1-3.3,0c0,0-1.3-1.9-2.4-0.5c0,0,0.3-0.1,0.8,0
			c0.2-0.1,0.4-0.1,0.4-0.1c-0.1,0-0.1,0.1-0.2,0.1c0.1,0,0.2,0.1,0.3,0.1c0.1,0,0.2,0,0.2,0s-0.1,0-0.1,0.1
			c0.2,0.1,0.3,0.2,0.5,0.3c0,0-2.3-0.3-2.4,1.9c0,0,0.3-0.4,0.8-0.6c0.1-0.3,0.4-0.5,0.4-0.5c-0.1,0.1-0.1,0.2-0.1,0.3
			c0.1,0,0.2-0.1,0.2-0.1C26.8,37.1,27,37,27,37c-0.1,0.1-0.1,0.2-0.1,0.3c0.2-0.1,0.5-0.1,0.8-0.1c0,0-1.5,1.5,0,3
			c0,0-0.3-1.1,0-1.9c-0.1-0.1-0.1-0.2-0.1-0.2c0,0.1,0.1,0.1,0.2,0.1c0.1-0.1,0.2-0.3,0.3-0.4c0-0.1,0-0.3,0-0.3
			c0,0.1,0.1,0.2,0.1,0.2l0.1-0.1c0.2-0.1,0.3-0.1,0.3-0.1s0.2,0.1,0.4,0.2c0,0,0.1-0.1,0.1-0.2c0,0,0.1,0.2,0,0.3
			c0.1,0.1,0.2,0.2,0.3,0.4c0-0.1,0-0.1,0-0.2c0,0,0.1,0.2,0.1,0.3s0.1,0.1,0.1,0.2l0.1-0.1c0,0,0,0.1-0.1,0.2
			c0.1,0.2,0.3,1.2,0.4,1.7c0,0,0.8-1.7-0.4-2.8c0,0,0.1,0,0.2,0.1v-0.2c0,0,0.1,0.1,0.2,0.3c0,0,0.1,0,0.1,0.1c0-0.1,0-0.2-0.1-0.3
			c0,0,0.2,0.2,0.2,0.4c0.1,0,0.2,0.1,0.3,0.2c0-0.1,0-0.3-0.1-0.4c0,0,0.3,0.3,0.3,0.6c0.3,0.2,0.6,0.5,0.8,0.8
			C31.3,38.9,31.6,36.5,28.9,36.6z"/>
	</g>
	<g id="palm_x5F_big">
		<path id="stem" class="st88" d="M30.7,28.6c0.4,0.9,0.7,1.7,1,2.5L32,31l-0.3,0.2c0.1,0.3,0.2,0.6,0.2,0.9l0.3-0.1l-0.3,0.2
			c0.1,0.4,0.2,0.8,0.2,1.2l0.5-0.1l-0.4,0.3c0,0.3,0.1,0.6,0.1,1l0.5-0.1l-0.5,0.3c0,0.4,0,0.7,0,1.1l0.5-0.1l-0.6,0.4
			c0,0.4,0,0.7-0.1,1l0.7-0.2L32,37.6c0,0.4-0.1,0.8-0.2,1.3l0.7-0.2l-0.8,0.5c-0.1,0.5-0.2,1-0.4,1.5l1.1-0.3l-1.2,0.9
			c-0.1,0.5-0.3,0.9-0.4,1.3l1.5-0.4l-1.8,1.3c-0.2,0.5-0.3,0.8-0.3,0.8H34c0-0.3,0-1.3,0-2.3l-1.2-0.7l1.2,0.2c0-0.5,0-1,0-1.5
			l-1-0.5l0.9,0.1c0-0.6,0-1.1,0-1.3L33,37.8l0.8,0.1c0-0.5-0.1-1.1-0.1-1.5l-0.5-0.2h0.4c0-0.4-0.1-0.7-0.1-1L33.1,35h0.4
			c-0.1-0.4-0.1-0.9-0.2-1.2l-0.4-0.2h0.3c-0.1-0.4-0.2-0.8-0.3-1.1l-0.3-0.1h0.3c-0.1-0.4-0.2-0.7-0.3-1l-0.3-0.1h0.2
			c-0.7-1.9-1.3-2.6-1.3-2.6C30.9,28.4,30.7,28.6,30.7,28.6z"/>
		<path id="leafs_3_" class="st89" d="M31.2,25.5c0.2-0.4,0.5-0.8,0.8-1c-0.1,0-0.2-0.1-0.3,0c0,0,0.2-0.1,0.4-0.1
			c0.2-0.2,0.4-0.3,0.6-0.5c-0.1-0.1-0.4-0.1-0.5-0.1c0,0,0.4-0.2,0.8-0.1c0.9-0.4,1.7-0.6,1.7-0.6c-3.5-1.9-4.7,3-4.7,3
			c-6.1-2.8-7,2.5-7,2.5c0.5-0.7,1.4-1.1,2.3-1.3c0.1-0.4,0.5-0.8,0.5-0.8c-0.2,0.2-0.2,0.6-0.2,0.7c0.3,0,0.5-0.1,0.7-0.1
			c0.2-0.3,0.4-0.5,0.4-0.5c-0.1,0.1-0.1,0.3-0.2,0.5c0.1,0,0.2,0,0.3,0c0.1-0.2,0.3-0.3,0.3-0.3c0,0-0.1,0.2-0.1,0.3
			c0.5,0,0.8,0,1.1,0c0.1-0.1,0.2-0.1,0.2-0.1l-0.1,0.1c0.2,0,0.3,0,0.3,0c-5.9,2.1-3.3,6.9-3.3,6.9c0.2-0.9,0.5-1.7,1-2.3
			c-0.1-0.7,0.2-1.4,0.2-1.4c-0.1,0.3,0.1,0.7,0.2,0.9c0.2-0.2,0.4-0.4,0.6-0.6c-0.1-0.5,0.2-1,0.2-1c-0.1,0.2,0.1,0.6,0.1,0.7
			c0.1-0.1,0.2-0.2,0.3-0.2c0-0.3,0.1-0.7,0.1-0.7c0,0.2,0,0.4,0.1,0.5c0.3-0.2,0.4-0.3,0.4-0.3c-1.6,3.2,1.4,6.2,1.4,6.2
			c-0.4-1.1-0.6-3.4-0.6-4c-0.2-0.1-0.3-0.4-0.3-0.4c0.1,0.1,0.2,0.2,0.3,0.2c0-0.2,0.1-0.4,0.1-0.6c-0.2-0.3-0.1-0.7-0.1-0.7
			c0,0.1,0.1,0.3,0.2,0.4c0.1-0.4,0.3-0.7,0.4-1c-0.2-0.3-0.2-0.7-0.2-0.7c0,0.2,0.2,0.4,0.3,0.4c0.3-0.6,0.7-0.8,0.7-0.8
			s0.2-0.1,0.6-0.1c0.1,0,0.3,0,0.4,0.1c0-0.1,0.1-0.4,0-0.5c0,0,0.2,0.3,0.2,0.6c0.4,0.1,0.7,0.4,1,0.6c0.1-0.1,0.2-0.3,0.2-0.4
			c0,0,0.1,0.3-0.1,0.6c1.3,1.5,1.4,4,1.4,4c2.1-4.3-2.3-6.2-2.3-6.2c0.5-0.2,1.1-0.3,1.7-0.4c-0.1-0.2-0.2-0.4-0.4-0.5
			c0,0,0.5,0.1,0.8,0.5c0.2,0,0.4,0,0.6,0c-0.1-0.2-0.3-0.5-0.5-0.6c0,0,0.7,0.2,1.1,0.7c1.3,0.2,2.2,0.7,2.2,0.7
			C35.9,23.1,31.2,25.5,31.2,25.5z"/>
	</g>
	<path id="beach_3_" class="st90" d="M40.5,45.6c0,0-5.4-5.8-22.8,1.7C17.7,47.3,29.7,45.2,40.5,45.6z"/>
</g>
<rect class="st92" width="100" height="100"/>
</svg>
