<svg xmlns="http://www.w3.org/2000/svg" viewBox="0 0 317.5 375"><defs><style>.cls-1{fill:#3a2168;}.cls-2{fill:#4b2a7f;}.cls-3{fill:#2a184c;}.cls-4{fill:#5a3393;}.cls-5,.cls-9{opacity:0.1;}.cls-6{fill:#ef717a;}.cls-7{fill:#3b2066;}.cls-8{fill:#6e44b2;}.cls-9{fill:#fff;}.cls-10{fill:#8d6ce0;}</style></defs><title>Ресурс 15</title><g id="Слой_2" data-name="Слой 2"><g id="castle_dev"><path id="castle_back" class="cls-1" d="M260.26,120.64v14.53a7.25,7.25,0,0,1-7.25,7.27h-14.5a7.25,7.25,0,0,1-7.24-7.27V120.64a7.27,7.27,0,0,0-7.25-7.27h-14.5a7.26,7.26,0,0,0-7.25,7.27v14.53a7.26,7.26,0,0,1-7.25,7.27h-14.5a7.25,7.25,0,0,1-7.25-7.27V120.64a7.27,7.27,0,0,0-7.25-7.27h-14.5a7.26,7.26,0,0,0-7.25,7.27v14.53a7.26,7.26,0,0,1-7.25,7.27h-14.5a7.26,7.26,0,0,1-7.25-7.27V120.64a7.27,7.27,0,0,0-7.25-7.27H93.52a7.27,7.27,0,0,0-7.25,7.27v14.53A7.25,7.25,0,0,1,79,142.44H64.52a7.26,7.26,0,0,1-7.25-7.27V120.64A7.26,7.26,0,0,0,50,113.37H35.52a7.27,7.27,0,0,0-7.25,7.27V345.93h261V120.64a7.26,7.26,0,0,0-7.25-7.27h-14.5A7.27,7.27,0,0,0,260.26,120.64Z"/><polygon id="castle_top" class="cls-2" points="231.26 94.48 158.77 7.27 86.27 94.48 86.27 210.76 231.26 210.76 231.26 94.48"/><g id="castle_top_window"><path id="light_1" class="cls-3" d="M158.77,69.77h0a21.75,21.75,0,0,1,21.75,21.75v36.39a0,0,0,0,1,0,0H137a0,0,0,0,1,0,0V91.52a21.75,21.75,0,0,1,21.75-21.75Z"/><rect id="brick" class="cls-4" x="128.32" y="122.09" width="60.9" height="11.63" rx="5.81" ry="5.81"/></g><path id="castle_top_shadow" class="cls-5" d="M158.77,14.53l-72.5,87.21v14.54L153.2,35.77a7.24,7.24,0,0,1,11.14,0l66.93,80.51V101.74Z"/><path id="castle_top_roof" class="cls-6" d="M235.62,106.1a7.23,7.23,0,0,1-5.55-2.58L164.32,25.17a7.23,7.23,0,0,0-11.1,0L87.47,103.52a7.26,7.26,0,1,1-11.1-9.36l76.7-91.39A7.57,7.57,0,0,1,156.13.49a7.27,7.27,0,0,1,8.19,2.1l76.84,91.57a7.27,7.27,0,0,1-.88,10.24A7.17,7.17,0,0,1,235.62,106.1Z"/><path id="castle_front" class="cls-4" d="M260.26,149.71v14.53a7.25,7.25,0,0,1-7.25,7.27h-14.5a7.25,7.25,0,0,1-7.24-7.27V149.71a7.27,7.27,0,0,0-7.25-7.27h-14.5a7.26,7.26,0,0,0-7.25,7.27v14.53a7.26,7.26,0,0,1-7.25,7.27h-14.5a7.25,7.25,0,0,1-7.25-7.27V149.71a7.27,7.27,0,0,0-7.25-7.27h-14.5a7.26,7.26,0,0,0-7.25,7.27v14.53a7.26,7.26,0,0,1-7.25,7.27h-14.5a7.26,7.26,0,0,1-7.25-7.27V149.71a7.27,7.27,0,0,0-7.25-7.27H93.52a7.27,7.27,0,0,0-7.25,7.27v14.53A7.25,7.25,0,0,1,79,171.51H64.52a7.26,7.26,0,0,1-7.25-7.27V149.71A7.26,7.26,0,0,0,50,142.44H35.52a7.27,7.27,0,0,0-7.25,7.27V375h261V149.71a7.26,7.26,0,0,0-7.25-7.27h-14.5A7.27,7.27,0,0,0,260.26,149.71Z"/><rect id="entrance_ground" class="cls-7" x="115.27" y="345.93" width="87" height="29.07"/><path id="entrance" class="cls-3" d="M158.77,229.65h0a43.5,43.5,0,0,1,43.5,43.5v72.78a0,0,0,0,1,0,0h-87a0,0,0,0,1,0,0V273.15A43.5,43.5,0,0,1,158.77,229.65Z"/><g id="door_bricks_shadow" class="cls-5"><path d="M114.54,279.8H107.3a3.64,3.64,0,0,1-3.63-3.63h0a3.63,3.63,0,0,1,3.63-3.63h7.24a3.62,3.62,0,0,1,3.63,3.63h0A3.63,3.63,0,0,1,114.54,279.8Zm7.26,10.9h0a3.64,3.64,0,0,0-3.63-3.63H103.68a3.63,3.63,0,0,0-3.63,3.63h0a3.62,3.62,0,0,0,3.63,3.63h14.49A3.63,3.63,0,0,0,121.8,290.7Zm-3.63,14.54h0a3.62,3.62,0,0,0-3.63-3.63H107.3a3.63,3.63,0,0,0-3.63,3.63h0a3.64,3.64,0,0,0,3.63,3.63h7.24A3.63,3.63,0,0,0,118.17,305.24Zm3.63,14.53h0a3.64,3.64,0,0,0-3.63-3.63H103.68a3.63,3.63,0,0,0-3.63,3.63h0a3.62,3.62,0,0,0,3.63,3.63h14.49A3.63,3.63,0,0,0,121.8,319.77Zm-3.63,14.54h0a3.62,3.62,0,0,0-3.63-3.63H107.3a3.63,3.63,0,0,0-3.63,3.63h0a3.64,3.64,0,0,0,3.63,3.63h7.24A3.63,3.63,0,0,0,118.17,334.31Zm3.63,14.53h0a3.64,3.64,0,0,0-3.63-3.63H103.68a3.63,3.63,0,0,0-3.63,3.63h0a3.62,3.62,0,0,0,3.63,3.63h14.49A3.63,3.63,0,0,0,121.8,348.84Zm-3.63,14.54h0a3.62,3.62,0,0,0-3.63-3.63H107.3a3.63,3.63,0,0,0-3.63,3.63h0A3.64,3.64,0,0,0,107.3,367h7.24A3.63,3.63,0,0,0,118.17,363.38ZM203,279.8h7.24a3.64,3.64,0,0,0,3.63-3.63h0a3.63,3.63,0,0,0-3.63-3.63H203a3.62,3.62,0,0,0-3.63,3.63h0A3.63,3.63,0,0,0,203,279.8Zm-3.63,14.53h14.49a3.62,3.62,0,0,0,3.63-3.63h0a3.63,3.63,0,0,0-3.63-3.63H199.37a3.64,3.64,0,0,0-3.63,3.63h0A3.63,3.63,0,0,0,199.37,294.33ZM203,308.87h7.24a3.64,3.64,0,0,0,3.63-3.63h0a3.63,3.63,0,0,0-3.63-3.63H203a3.62,3.62,0,0,0-3.63,3.63h0A3.63,3.63,0,0,0,203,308.87Zm-3.63,14.53h14.49a3.62,3.62,0,0,0,3.63-3.63h0a3.63,3.63,0,0,0-3.63-3.63H199.37a3.64,3.64,0,0,0-3.63,3.63h0A3.63,3.63,0,0,0,199.37,323.4ZM203,337.94h7.24a3.64,3.64,0,0,0,3.63-3.63h0a3.63,3.63,0,0,0-3.63-3.63H203a3.62,3.62,0,0,0-3.63,3.63h0A3.63,3.63,0,0,0,203,337.94Zm-3.63,14.53h14.49a3.62,3.62,0,0,0,3.63-3.63h0a3.63,3.63,0,0,0-3.63-3.63H199.37a3.64,3.64,0,0,0-3.63,3.63h0A3.63,3.63,0,0,0,199.37,352.47ZM203,367h7.24a3.64,3.64,0,0,0,3.63-3.63h0a3.63,3.63,0,0,0-3.63-3.63H203a3.62,3.62,0,0,0-3.63,3.63h0A3.63,3.63,0,0,0,203,367Z"/></g><g id="door_bricks"><rect class="cls-8" x="103.67" y="269.62" width="14.5" height="7.27" rx="3.63" ry="3.63"/><rect class="cls-8" x="100.05" y="284.16" width="21.75" height="7.27" rx="3.63" ry="3.63"/><rect class="cls-8" x="103.67" y="298.69" width="14.5" height="7.27" rx="3.63" ry="3.63"/><rect class="cls-8" x="100.05" y="313.23" width="21.75" height="7.27" rx="3.63" ry="3.63"/><rect class="cls-8" x="103.67" y="327.76" width="14.5" height="7.27" rx="3.63" ry="3.63"/><rect class="cls-8" x="100.05" y="342.3" width="21.75" height="7.27" rx="3.63" ry="3.63"/><rect class="cls-8" x="103.67" y="356.83" width="14.5" height="7.27" rx="3.63" ry="3.63"/><rect class="cls-8" x="199.37" y="269.62" width="14.5" height="7.27" rx="3.63" ry="3.63" transform="translate(413.23 546.51) rotate(180)"/><rect class="cls-8" x="195.74" y="284.16" width="21.75" height="7.27" rx="3.63" ry="3.63" transform="translate(413.23 575.58) rotate(180)"/><rect class="cls-8" x="199.37" y="298.69" width="14.5" height="7.27" rx="3.63" ry="3.63" transform="translate(413.23 604.65) rotate(180)"/><rect class="cls-8" x="195.74" y="313.23" width="21.75" height="7.27" rx="3.63" ry="3.63" transform="translate(413.23 633.72) rotate(180)"/><rect class="cls-8" x="199.37" y="327.76" width="14.5" height="7.27" rx="3.63" ry="3.63" transform="translate(413.23 662.79) rotate(180)"/><rect class="cls-8" x="195.74" y="342.3" width="21.75" height="7.27" rx="3.63" ry="3.63" transform="translate(413.23 691.86) rotate(-180)"/><rect class="cls-8" x="199.37" y="356.83" width="14.5" height="7.27" rx="3.63" ry="3.63" transform="translate(413.23 720.93) rotate(-180)"/></g><g id="castle_bricks"><rect class="cls-9" x="65.25" y="191.13" width="21.75" height="7.27" rx="3.63" ry="3.63"/><rect class="cls-9" x="243.59" y="342.3" width="29" height="7.27" rx="3.63" ry="3.63"/><rect class="cls-9" x="261.96" y="276.16" width="21.75" height="7.27" rx="3.63" ry="3.63"/><rect class="cls-9" x="217.01" y="226.02" width="21.75" height="7.27" rx="3.63" ry="3.63"/><rect class="cls-9" x="145.96" y="201.79" width="29" height="7.27" rx="3.63" ry="3.63"/><rect class="cls-9" x="86.75" y="242.73" width="14.5" height="7.27" rx="3.63" ry="3.63"/><rect class="cls-9" x="62.11" y="342.3" width="21.75" height="7.27" rx="3.63" ry="3.63"/><rect class="cls-9" x="159.74" y="187.5" width="21.75" height="7.27" rx="3.63" ry="3.63"/><rect class="cls-9" x="228.61" y="239.34" width="14.5" height="7.27" rx="3.63" ry="3.63"/><rect class="cls-9" x="256.16" y="187.5" width="21.75" height="7.27" rx="3.63" ry="3.63"/><rect class="cls-9" x="46.88" y="276.89" width="21.75" height="7.27" rx="3.63" ry="3.63"/></g><g id="tower_left"><path id="back_shadow" class="cls-5" d="M43.7,142.44H50a7.26,7.26,0,0,1,7.26,7.26V375a0,0,0,0,1,0,0H43.7a0,0,0,0,1,0,0V142.44A0,0,0,0,1,43.7,142.44Z"/><polygon id="back" class="cls-8" points="50.02 110.22 28.27 84.3 6.53 110.22 6.53 375 50.02 375 50.02 110.22"/><g id="bricks"><rect class="cls-9" x="17.4" y="347.94" width="21.75" height="7.27" rx="3.63" ry="3.63"/><rect class="cls-9" x="25.13" y="279.8" width="21.75" height="7.27" rx="3.63" ry="3.63"/><rect class="cls-9" x="13.17" y="215.12" width="21.75" height="7.27" rx="3.63" ry="3.63"/><rect class="cls-9" x="25.86" y="228.56" width="14.5" height="7.27" rx="3.63" ry="3.63"/></g><path id="roof_shadow" class="cls-5" d="M28.27,84.3,6.53,110.22v14.53l19.53-23.27a2.89,2.89,0,0,1,4.43,0L50,124.75V110.22Z"/><path id="roof" class="cls-6" d="M52.92,116.76a3.61,3.61,0,0,1-2.75-1.27l-19.69-23a2.91,2.91,0,0,0-4.41,0L6.51,115.34a3.76,3.76,0,0,1-4.95.77,3.64,3.64,0,0,1-.69-5.35L25.52,81.94a3.75,3.75,0,0,1,5.51,0l24.49,28.64a3.82,3.82,0,0,1-.35,5.4A3.64,3.64,0,0,1,52.92,116.76Z"/><path class="cls-9" d="M13.77,313.23H6.53v7.26h7.24a3.63,3.63,0,1,0,0-7.26Z"/><path id="light_1-2" data-name="light_1" class="cls-3" d="M28.27,142.44h0a7.25,7.25,0,0,1,7.25,7.25v21.82a0,0,0,0,1,0,0H21a0,0,0,0,1,0,0V149.69a7.25,7.25,0,0,1,7.25-7.25Z"/><rect id="brick_shadow" class="cls-5" x="16.67" y="172.97" width="23.2" height="5.81" rx="2.9" ry="2.9"/><rect id="brick-2" data-name="brick" class="cls-10" x="16.67" y="171.51" width="23.2" height="5.81" rx="2.9" ry="2.9"/></g><g id="tower_right"><path id="back_shadow-2" data-name="back_shadow" class="cls-5" d="M260.26,142.44H273.8a0,0,0,0,1,0,0v225.3a7.26,7.26,0,0,1-7.26,7.26h-6.27a0,0,0,0,1,0,0V142.44a0,0,0,0,1,0,0Z" transform="translate(534.06 517.44) rotate(-180)"/><polygon id="back-2" data-name="back" class="cls-8" points="267.48 110.22 289.23 84.3 310.98 110.22 310.98 375 267.48 375 267.48 110.22"/><g id="bricks_копия_" data-name="bricks (копия)"><rect class="cls-9" x="278.35" y="347.94" width="21.75" height="7.27" rx="3.63" ry="3.63" transform="translate(578.45 703.14) rotate(180)"/><rect class="cls-9" x="270.62" y="279.8" width="21.75" height="7.27" rx="3.63" ry="3.63" transform="translate(562.99 566.86) rotate(-180)"/><rect class="cls-9" x="282.58" y="215.12" width="21.75" height="7.27" rx="3.63" ry="3.63" transform="translate(586.91 437.5) rotate(-180)"/><rect class="cls-9" x="277.14" y="228.56" width="14.5" height="7.27" rx="3.63" ry="3.63" transform="translate(568.79 464.39) rotate(-180)"/></g><path id="roof_shadow-2" data-name="roof_shadow" class="cls-5" d="M289.23,84.3,311,110.22v14.53l-19.53-23.27a2.89,2.89,0,0,0-4.43,0l-19.53,23.27V110.22Z"/><path id="roof-2" data-name="roof" class="cls-6" d="M264.58,116.76a3.61,3.61,0,0,0,2.75-1.27l19.69-23a2.91,2.91,0,0,1,4.41,0L311,115.34a3.76,3.76,0,0,0,4.95.77,3.64,3.64,0,0,0,.69-5.35L292,81.94a3.75,3.75,0,0,0-5.51,0L262,110.58a3.82,3.82,0,0,0,.35,5.4A3.64,3.64,0,0,0,264.58,116.76Z"/><path class="cls-9" d="M303.73,313.23H311v7.26h-7.24a3.63,3.63,0,0,1,0-7.26Z"/><path id="light_1-3" data-name="light_1" class="cls-3" d="M282,142.44h14.5a0,0,0,0,1,0,0v21.82a7.25,7.25,0,0,1-7.25,7.25h0a7.25,7.25,0,0,1-7.25-7.25V142.44A0,0,0,0,1,282,142.44Z" transform="translate(578.45 313.95) rotate(-180)"/><rect id="brick_shadow-2" data-name="brick_shadow" class="cls-5" x="277.63" y="172.97" width="23.2" height="5.81" rx="2.9" ry="2.9" transform="translate(578.45 351.74) rotate(180)"/><rect id="brick-3" data-name="brick" class="cls-10" x="277.63" y="171.51" width="23.2" height="5.81" rx="2.9" ry="2.9" transform="translate(578.45 348.84) rotate(180)"/></g></g></g></svg>