<?xml version="1.0" encoding="utf-8"?>
<!-- Generator: Adobe Illustrator 22.0.1, SVG Export Plug-In . SVG Version: 6.00 Build 0)  -->
<svg version="1.1" id="Слой_1" xmlns="http://www.w3.org/2000/svg" xmlns:xlink="http://www.w3.org/1999/xlink" x="0px" y="0px"
	 viewBox="0 0 120 120" style="enable-background:new 0 0 120 120;" xml:space="preserve">
<style type="text/css">
	.st0{fill:#050505;}
	.st1{fill:#FFCD02;}
	.st2{fill:#FFA800;}
	.st3{fill:#161616;}
	.st4{fill:#ECF0F1;}
	.st5{fill:#394C81;}
	.st6{fill:#5065A1;}
	.st7{opacity:0.1;enable-background:new    ;}
	.st8{fill:#3A3A3A;}
</style>
<title>Ресурс 4</title>
<g id="Слой_2_1_">
	<g id="character">
		<path id="arm" class="st0" d="M107.9,92.8c-0.4,0.3-0.8,0.5-1.3,0.6l-41.5,12.9c-2.8,1-5.8-0.5-6.8-3.2c-1-2.8,0.5-5.8,3.2-6.8
			c0.1,0,0.3-0.1,0.4-0.1l41.5-12.9c2.8-0.9,5.8,0.7,6.7,3.6C110.8,89,109.9,91.5,107.9,92.8z"/>
		<path id="helmet" class="st1" d="M87.4,99.7H17.5c-3.9,0-7-3.1-7-7l0,0V41.8C10.5,18.7,29.2,0,52.3,0l0,0h37.1c2.8,0,5,2.2,5,5
			v87.7C94.4,96.5,91.2,99.7,87.4,99.7L87.4,99.7z"/>
		<path id="helmet_shade" class="st2" d="M20.4,92.7V41.8c0-21.2,15.9-39.1,37-41.5C55.8,0.1,54.2,0,52.5,0h-0.2
			C29.2,0,10.5,18.7,10.5,41.8v50.8c0,3.9,3.1,7,7,7h9.9C23.5,99.7,20.4,96.5,20.4,92.7z"/>
		<path id="body" class="st3" d="M73.5,37.1H45.8c-7.7,0-14.2,6-14.4,13.6c-0.1,7.7,6,14,13.6,14.2c0.1,0,0.2,0,0.3,0h0.9
			c1.5,0,2.7,1.2,2.7,2.7v32.1H17.5V113h39c7.4,0,13.4-6,13.4-13.4l0,0v-32c0-1.5,1.2-2.7,2.7-2.7H73c7.7,0,14.2-6,14.4-13.7
			c0.1-7.7-6-14-13.6-14.2C73.6,37.1,73.6,37.1,73.5,37.1z"/>
		<g id="eyes">
			<ellipse id="right-2" class="st4" cx="73.4" cy="51" rx="7" ry="7"/>
			<ellipse id="left-2" class="st4" cx="45.5" cy="51" rx="7" ry="7"/>
		</g>
		<g id="spear">
			<path id="stick" class="st5" d="M103.1,42.4h7.4l-10.1,74.4c-0.3,2-2.1,3.4-4.2,3.2c-2-0.3-3.4-2.1-3.2-4.2l0,0L103.1,42.4z"/>
			<path id="decoration" class="st6" d="M100.5,34.6l14.6,2l1.1,5.7l-3.7-0.5c-1-0.1-1.9,0.6-2.1,1.6l-4.4,4l-2.9-5
				c0.1-1-0.6-1.9-1.6-2.1l0,0l-3.7-0.5L100.5,34.6z"/>
			<path id="edge" class="st4" d="M108.1,5.8l1.8,0.3l-2.3,17c-1.9,0.8-2.8,2.9-2,4.8c0.8,1.9,2.9,2.8,4.8,2s2.8-2.9,2-4.8
				c-0.2-0.6-0.6-1.1-1.2-1.5l2.3-17l1.8,0.3L120,28l-4.7,6.8l-14.6-2L98.1,25L108.1,5.8z"/>
		</g>
		<path id="spear_shade" class="st7" d="M107.7,35.6L96.2,120c-2-0.3-3.4-2.1-3.2-4.2l10-73.4c0.1-1-0.6-1.9-1.6-2.1l0,0l-3.7-0.5
			l2.6-5.2L107.7,35.6z M105.4,26c0.2-1.3,1-2.4,2.3-2.9l2.3-17l-1.8-0.3L98.1,25l2.7,7.8l7.3,1l0.5-3.7
			C106.5,29.9,105.1,28,105.4,26z"/>
		<circle id="hand" class="st8" cx="107.9" cy="87.4" r="8.1"/>
		<g id="shield">
			<path id="back" class="st6" d="M26.6,114.3c12.7,0,23.1-10.3,23.1-23.1S39.3,68.1,26.6,68.1S3.5,78.5,3.5,91.2l0,0
				C3.5,103.9,13.8,114.3,26.6,114.3z"/>
			<path id="border" class="st5" d="M0,91.2c0,14.7,11.9,26.6,26.6,26.6s26.6-11.9,26.6-26.6s-12-26.6-26.6-26.6l0,0
				C11.9,64.6,0,76.5,0,91.2L0,91.2z M7,91.2c0-10.8,8.8-19.6,19.6-19.6s19.6,8.8,19.6,19.6s-8.8,19.6-19.6,19.6l0,0
				C15.8,110.8,7,102,7,91.2z"/>
			<g id="html">
				<path class="st4" d="M30.2,84.7c-0.5-0.3-1.2-0.1-1.5,0.4l-6.2,11c-0.3,0.5-0.1,1.2,0.4,1.5l0,0H23c0.1,0,0.2,0.1,0.3,0.1
					c0.5,0.1,0.9-0.1,1.2-0.6l6.2-11C30.9,85.7,30.8,85,30.2,84.7z"/>
				<path class="st4" d="M20,95l-4.2-6l6-4.2c0.5-0.4,0.6-1.1,0.3-1.6c-0.2-0.2-0.4-0.4-0.7-0.5c-0.3-0.1-0.6,0-0.8,0.2l-6.9,4.8
					c-0.3,0.2-0.4,0.4-0.5,0.7c-0.1,0.3,0,0.6,0.2,0.8l4.8,6.9c0.1,0.2,0.3,0.3,0.5,0.4c0.1,0,0.2,0.1,0.3,0.1
					c0.3,0.1,0.6,0,0.9-0.2c0.2-0.2,0.4-0.4,0.5-0.7C20.2,95.5,20.2,95.2,20,95z"/>
				<path class="st4" d="M39.8,93L35,86.1c-0.2-0.3-0.4-0.4-0.7-0.5c-0.3,0-0.6,0-0.8,0.2C33.2,86,33,86.3,33,86.6
					c-0.1,0.3,0,0.6,0.2,0.8l4.2,6l-6,4.2c-0.5,0.3-0.7,1-0.4,1.5c0.1,0.2,0.3,0.3,0.5,0.4c0.1,0,0.2,0.1,0.3,0.1
					c0.3,0,0.6,0,0.9-0.2l6.9-4.8C40,94.3,40.2,93.5,39.8,93L39.8,93z"/>
			</g>
		</g>
		<path id="shield_shade" class="st7" d="M0.9,84.3c-3.8,14.2,4.6,28.7,18.8,32.5l13.8-51.3C19.3,61.7,4.7,70.1,0.9,84.3z"/>
	</g>
</g>
</svg>
