<svg xmlns="http://www.w3.org/2000/svg" viewBox="0 0 120 120"><defs><style>.cls-1{fill:#050505;}.cls-2{fill:#161616;}.cls-3{fill:#ffcd02;}.cls-4{fill:#ffa800;}.cls-5{fill:#ecf0f1;}.cls-6{fill:#394c81;}.cls-7{fill:#5065a1;}.cls-8{opacity:0.1;}.cls-9{fill:#3a3a3a;}</style></defs><title>Ресурс 14</title><g id="Слой_2" data-name="Слой 2"><g id="character"><path id="arm" class="cls-1" d="M107.86,92.76a5.06,5.06,0,0,1-1.29.59L65.06,106.27a5.34,5.34,0,1,1-3.17-10.19L103.4,83.17a5.34,5.34,0,0,1,4.46,9.59Z"/><g id="legs"><rect id="right" class="cls-1" x="46.15" y="111.05" width="9.79" height="8.95" transform="translate(102.08 231.05) rotate(-180)"/><rect id="left" class="cls-2" x="21.68" y="111.05" width="9.79" height="8.95" transform="translate(53.14 231.05) rotate(-180)"/></g><path id="helmet" class="cls-3" d="M17.47,0H87.41a7,7,0,0,1,7,7V57.82A41.84,41.84,0,0,1,52.55,99.65H15.49a5,5,0,0,1-5-5V7a7,7,0,0,1,7-7Z" transform="translate(104.87 99.65) rotate(-180)"/><path id="helmet_shade" class="cls-4" d="M20.37,92.68V41.84A41.83,41.83,0,0,1,57.37.29,40.38,40.38,0,0,0,52.55,0h-.22A41.84,41.84,0,0,0,10.49,41.84V92.68a7,7,0,0,0,7,7h9.87A7,7,0,0,1,20.37,92.68Z"/><path id="body" class="cls-2" d="M73.48,37.06H45.84c-7.66,0-14.23,6-14.37,13.65a13.91,13.91,0,0,0,13.9,14.17h.9a2.67,2.67,0,0,1,2.67,2.67v32.1H17.48v13.4h39a13.39,13.39,0,0,0,13.39-13.4V67.55a2.68,2.68,0,0,1,2.67-2.67H73c7.66,0,14.23-6,14.37-13.65A13.91,13.91,0,0,0,73.48,37.06Z"/><g id="eyes"><ellipse id="right-2" data-name="right" class="cls-5" cx="73.41" cy="50.97" rx="6.99" ry="6.95"/><ellipse id="left-2" data-name="left" class="cls-5" cx="45.45" cy="50.97" rx="6.99" ry="6.95"/></g><g id="spear"><path id="stick" class="cls-6" d="M103.12,42.42l7.36,0-10.07,74.39a3.69,3.69,0,0,1-7.32-1Z"/><path id="decoration" class="cls-7" d="M100.46,34.6l14.63,2,1.08,5.73-3.66-.5a1.85,1.85,0,0,0-2.08,1.58l-4.44,4-2.87-5a1.84,1.84,0,0,0-1.58-2.08l-3.66-.5Z"/><path id="edge" class="cls-5" d="M108.11,5.83l1.83.25-2.31,17a3.69,3.69,0,1,0,3.65.5l2.32-17,1.83.25L120,28l-4.66,6.82-14.63-2L98.05,25Z"/></g><path id="spear_shade" class="cls-8" d="M107.74,35.59,96.25,119.94a3.7,3.7,0,0,1-3.16-4.16l10-73.36a1.84,1.84,0,0,0-1.58-2.08l-3.66-.5,2.58-5.24ZM105.37,26a3.68,3.68,0,0,1,2.26-2.9l2.31-17-1.83-.25L98.05,25l2.66,7.82,7.29,1,.52-3.66A3.69,3.69,0,0,1,105.37,26Z"/><circle id="hand" class="cls-9" cx="107.94" cy="87.36" r="8.08"/><g id="shield"><path id="back" class="cls-7" d="M26.57,114.27A23.07,23.07,0,1,0,3.5,91.2,23.1,23.1,0,0,0,26.57,114.27Z"/><path id="border" class="cls-6" d="M0,91.2A26.57,26.57,0,1,0,26.57,64.63,26.56,26.56,0,0,0,0,91.2Zm7,0a19.58,19.58,0,1,1,19.57,19.57A19.6,19.6,0,0,1,7,91.2Z"/><g id="html"><path class="cls-5" d="M30.24,84.69a1.14,1.14,0,0,0-1.54.43l-6.23,11a1.13,1.13,0,0,0,.44,1.54l.07,0a1.52,1.52,0,0,0,.28.09,1.15,1.15,0,0,0,1.19-.56l6.22-11A1.14,1.14,0,0,0,30.24,84.69Z"/><path class="cls-5" d="M20,95l-4.23-6,6-4.22a1.14,1.14,0,0,0,.27-1.58,1.12,1.12,0,0,0-.73-.46,1,1,0,0,0-.84.19l-6.92,4.84a1.1,1.1,0,0,0-.47.73,1.12,1.12,0,0,0,.19.85l4.84,6.92a1.15,1.15,0,0,0,.45.37.76.76,0,0,0,.28.09,1.11,1.11,0,0,0,.85-.18,1.18,1.18,0,0,0,.47-.74A1.14,1.14,0,0,0,20,95Z"/><path class="cls-5" d="M39.81,93,35,86.11a1.1,1.1,0,0,0-.73-.47,1.16,1.16,0,0,0-.85.19,1.09,1.09,0,0,0-.46.73,1.11,1.11,0,0,0,.18.85l4.24,6-6,4.22A1.14,1.14,0,0,0,31,99.17a1,1,0,0,0,.45.38,1.31,1.31,0,0,0,.28.09,1.16,1.16,0,0,0,.85-.19l6.92-4.84A1.15,1.15,0,0,0,39.81,93Z"/></g></g><path id="shield_shade" class="cls-8" d="M.91,84.32A26.57,26.57,0,0,0,19.7,116.86L33.45,65.54A26.57,26.57,0,0,0,.91,84.32Z"/></g></g></svg>