<svg xmlns="http://www.w3.org/2000/svg" viewBox="0 0 100 92"><defs><style>.cls-1{fill:#ffa800;}.cls-2{fill:#ffcd02;}.cls-3{fill:#d35400;}</style></defs><title>Ресурс 11</title><g id="Слой_2" data-name="Слой 2"><g id="coin"><path id="back" class="cls-1" d="M100,43H98.63l0-.06-19.92-34A10,10,0,0,0,70.05,4H30a10,10,0,0,0-8.63,4.94L1.4,42.94l0,.06H0v5H0A10,10,0,0,0,1.4,53.06l19.92,34A10,10,0,0,0,30,92h40.1a10,10,0,0,0,8.63-4.94l19.92-34A10,10,0,0,0,100,48h0Z"/><path id="out" class="cls-2" d="M70.05,0H30a10,10,0,0,0-8.63,4.94L1.4,38.94a10,10,0,0,0,0,10.12l19.92,34A10,10,0,0,0,30,88h40.1a10,10,0,0,0,8.63-4.94l19.92-34a10,10,0,0,0,0-10.12l-19.92-34A10,10,0,0,0,70.05,0Z"/><path id="in" class="cls-3" d="M67,7H33a8,8,0,0,0-6.91,4L9.24,40a8,8,0,0,0,0,8.06L26.13,77A8,8,0,0,0,33,81H67a8,8,0,0,0,6.91-4L90.76,48a8,8,0,0,0,0-8.06L73.87,11A8,8,0,0,0,67,7Z"/><path id="border" class="cls-1" d="M90.76,40,73.87,11A8,8,0,0,0,67,7H33a8,8,0,0,0-6.91,4L9.24,40a8,8,0,0,0,0,8.06L26.13,77A8,8,0,0,0,33,81H67a8,8,0,0,0,6.91-4L90.76,48A8,8,0,0,0,90.76,40Zm-4.32,5.54-16.89,29A3,3,0,0,1,67,76H33a3,3,0,0,1-2.59-1.49l-16.89-29a3,3,0,0,1,0-3l16.89-29A3,3,0,0,1,33,12H67a3,3,0,0,1,2.59,1.49l16.89,29A3,3,0,0,1,86.44,45.51Z"/></g></g></svg>