<?xml version="1.0" encoding="utf-8"?>
<!-- Generator: Adobe Illustrator 22.0.1, SVG Export Plug-In . SVG Version: 6.00 Build 0)  -->
<svg version="1.1" id="icon" xmlns="http://www.w3.org/2000/svg" xmlns:xlink="http://www.w3.org/1999/xlink" x="0px" y="0px"
	 viewBox="0 0 60 60" style="enable-background:new 0 0 60 60;" xml:space="preserve">
<style type="text/css">
	.st0{fill:#EF717A;}
	.st1{fill:#FFFFFF;}
</style>
<circle id="bg" class="st0" cx="30" cy="30" r="30"/>
<g id="vector">
	<path class="st1" d="M42.3,28.7l-11-10.8l2.8-5.4l2.8,2.7c0.7,0.7,2,0.7,2.8,0l5.6,5.4c-0.7,0.7-0.7,1.9,0,2.7l2.8,2.7L42.3,28.7z
		 M38.2,38.1L41,30L30,19.2l-8.3,2.7L12,42.1l1.3,1.3l12.8-12.5c-0.4-1.2,0-2.7,1-3.7c1.5-1.5,4-1.5,5.6,0c1.5,1.5,1.5,3.9,0,5.4
		c-1,1-2.4,1.3-3.8,1L16.1,46.2l1.3,1.3L38.2,38.1z"/>
</g>
</svg>
