<?xml version="1.0" encoding="utf-8"?>
<!-- Generator: Adobe Illustrator 22.0.1, SVG Export Plug-In . SVG Version: 6.00 Build 0)  -->
<svg version="1.1" id="Слой_1" xmlns="http://www.w3.org/2000/svg" xmlns:xlink="http://www.w3.org/1999/xlink" x="0px" y="0px"
	 viewBox="0 0 660 175" style="enable-background:new 0 0 660 175;" xml:space="preserve">
<style type="text/css">
	.st0{opacity:0.2;enable-background:new    ;}
	.st1{fill:#3B2066;}
	.st2{opacity:0.1;enable-background:new    ;}
	.st3{fill:#D95459;}
	.st4{fill:#EF717A;}
	.st5{fill:#FFFFFF;}
	.st6{fill:#ECF0F1;}
	.st7{opacity:0.3;enable-background:new    ;}
</style>
<g id="bricks_2_">
	<g>
		<path class="st0" d="M604.4,4.8c-4.4,0-8,3.6-8,8v23.9c0,4.4,3.6,8,8,8H662V4.8H604.4z"/>
		<path class="st0" d="M516.9,44.5h63.6c4.4,0,8-3.6,8-8V12.7c0-4.4-3.6-8-8-8h-63.6c-4.4,0-8,3.6-8,8v23.9
			C509,41,512.5,44.5,516.9,44.5z"/>
		<path class="st0" d="M568.7,52.5c-4.4,0-8,3.6-8,8v23.9c0,4.4,3.6,8,8,8H662V52.5H568.7z"/>
		<path class="st0" d="M413.5,44.5H493c4.4,0,8-3.6,8-8V12.7c0-4.4-3.6-8-8-8h-79.5c-4.4,0-8,3.6-8,8v23.9
			C405.6,41,409.1,44.5,413.5,44.5z"/>
		<path class="st0" d="M580.6,100.2H517c-4.4,0-8,3.6-8,8V132c0,4.4,3.6,8,8,8h63.6c4.4,0,8-3.6,8-8v-23.9
			C588.5,103.8,585,100.2,580.6,100.2z"/>
		<path class="st0" d="M596.5,108.2V132c0,4.4,3.6,8,8,8H662v-39.8h-57.6C600,100.2,596.5,103.8,596.5,108.2z"/>
		<path class="st0" d="M555.8,84.3V60.5c0-4.4-3.6-8-8-8H441.3c-4.4,0-7.9,3.6-7.9,8v23.9c0,4.4,3.6,8,7.9,8h106.5
			C552.2,92.3,555.8,88.7,555.8,84.3z"/>
	</g>
	<g>
		<path class="st1" d="M413.5,39.8H493c4.4,0,8-3.6,8-8V8c0-4.4-3.6-8-8-8h-79.5c-4.4,0-8,3.6-8,8v23.9
			C405.6,36.2,409.1,39.8,413.5,39.8z"/>
		<path class="st1" d="M516.9,39.8h63.6c4.4,0,8-3.6,8-8V8c0-4.4-3.6-8-8-8h-63.6c-4.4,0-8,3.6-8,8v23.9
			C509,36.2,512.5,39.8,516.9,39.8z"/>
		<path class="st1" d="M604.4,39.8H662V0h-57.6c-4.4,0-8,3.6-8,8v23.9C596.5,36.2,600,39.8,604.4,39.8z"/>
		<path class="st1" d="M568.7,47.7c-4.4,0-8,3.6-8,8v23.9c0,4.4,3.6,8,8,8H662V47.7H568.7z"/>
		<path class="st1" d="M604.4,95.5c-4.4,0-8,3.6-8,8v23.9c0,4.4,3.6,8,8,8H662V95.5H604.4z"/>
		<path class="st1" d="M580.6,95.5H517c-4.4,0-8,3.6-8,8v23.9c0,4.4,3.6,8,8,8h63.6c4.4,0,8-3.6,8-8v-23.9
			C588.5,99,585,95.5,580.6,95.5z"/>
		<path class="st1" d="M555.8,79.5V55.7c0-4.4-3.6-8-8-8H441.3c-4.4,0-7.9,3.6-7.9,8v23.9c0,4.4,3.6,8,7.9,8h106.5
			C552.2,87.5,555.8,83.9,555.8,79.5z"/>
	</g>
</g>
<g id="bricks_3_">
	<g>
		<path class="st0" d="M-2,4.8v39.9h57.6c4.4,0,8-3.6,8-8V12.8c0-4.4-3.6-8-8-8H-2z"/>
		<path class="st0" d="M151.1,36.6V12.7c0-4.4-3.6-8-8-8H79.5c-4.4,0-8,3.6-8,8v23.8c0,4.4,3.6,8,8,8h63.6
			C147.5,44.5,151,41,151.1,36.6z"/>
		<path class="st0" d="M-2,52.5v39.9h93.3c4.4,0,8-3.6,8-8V60.5c0-4.4-3.6-8-8-8H-2z"/>
		<path class="st0" d="M254.5,36.6V12.7c0-4.4-3.6-8-8-8H167c-4.4,0-8,3.6-8,8v23.8c0,4.4,3.6,8,8,8h79.5
			C250.9,44.5,254.4,41,254.5,36.6z"/>
		<path class="st0" d="M71.4,108.1V132c0,4.4,3.6,8,8,8H143c4.4,0,8-3.6,8-8v-23.8c0-4.4-3.6-8-8-8H79.4
			C75,100.2,71.5,103.8,71.4,108.1z"/>
		<path class="st0" d="M55.6,100.2H-2V140h57.5c4.4,0,8-3.6,8-8v-23.8C63.5,103.8,60,100.2,55.6,100.2z"/>
		<path class="st0" d="M112.2,92.4h106.5c4.3,0,7.9-3.6,7.9-8V60.5c0-4.4-3.5-8-7.9-8H112.2c-4.4,0-8,3.6-8,8v23.8
			C104.2,88.7,107.8,92.3,112.2,92.4z"/>
	</g>
	<g>
		<path class="st1" d="M254.5,31.9V8c0-4.4-3.6-8-8-8L167,0c-4.4,0-8,3.6-8,8v23.8c0,4.4,3.6,8,8,8h79.5
			C250.9,39.8,254.4,36.2,254.5,31.9z"/>
		<path class="st1" d="M151.1,31.9V8c0-4.4-3.6-8-8-8L79.5,0c-4.4,0-8,3.6-8,8v23.8c0,4.4,3.6,8,8,8h63.6
			C147.5,39.8,151,36.2,151.1,31.9z"/>
		<path class="st1" d="M63.6,31.9V8c0-4.4-3.6-8-8-8L-2,0v39.8h57.6C60,39.8,63.5,36.2,63.6,31.9z"/>
		<path class="st1" d="M-2,47.7v39.9h93.3c4.4,0,8-3.6,8-8V55.7c0-4.4-3.6-8-8-8H-2z"/>
		<path class="st1" d="M-2,95.5v39.9h57.6c4.4,0,8-3.6,8-8v-23.9c0-4.4-3.6-8-8-8H-2z"/>
		<path class="st1" d="M71.4,103.5v23.9c0,4.4,3.6,8,8,8H143c4.4,0,8-3.6,8-8v-23.9c0-4.4-3.6-8-8-8H79.4
			C75,95.5,71.5,99,71.4,103.5z"/>
		<path class="st1" d="M112.2,87.6h106.5c4.3,0,7.9-3.6,7.9-8V55.7c0-4.4-3.5-8-7.9-8H112.2c-4.4,0-8,3.6-8,8v23.8
			C104.2,83.9,107.8,87.5,112.2,87.6z"/>
	</g>
</g>
<path id="shadow" class="st2" d="M329.9,28.3h-40v142.2c0,3.5,4,5.7,6.9,3.7l30.6-20.4c0.7-0.5,1.6-0.7,2.5-0.7s1.7,0.2,2.5,0.7
	l30.6,20.4c3,2,6.9-0.1,6.9-3.7V28.3H329.9z"/>
<path class="st3" d="M329.9,0h-45v160c0,4,4.5,6.4,7.8,4.2l34.5-23c0.8-0.6,1.8-0.8,2.8-0.8s1.9,0.3,2.8,0.8l34.5,23
	c3.3,2.2,7.8-0.2,7.8-4.2V0H329.9z"/>
<path id="back_x5F_r" class="st3" d="M329.9,0v140.3c1,0,1.9,0.3,2.8,0.8l34.5,23c3.3,2.2,7.8-0.2,7.8-4.2V0H329.9z"/>
<path id="back_x5F_l_2_" class="st4" d="M284.9,0v160c0,4,4.5,6.4,7.8,4.2l34.5-23c0.8-0.6,1.8-0.8,2.8-0.8V0H284.9z"/>
<g>
	<path class="st5" d="M346.8,57.3c-0.8-0.8-0.8-2.3,0-3.1l-6.1-6.1c-0.8,0.8-2.3,0.8-3.1,0l-3.1-3.1l-3.1,6.1l12.3,12.3l6.1-3.1
		L346.8,57.3z"/>
	<path class="st5" d="M329.9,52.7L329.9,52.7L329.9,52.7L329.9,52.7l-9.2,3.1l-10.8,23.1l1.6,1.6l14.3-14.3c-0.4-1.5,0-3.1,1.1-4.1
		c0.8-0.8,2-1.3,3.1-1.3v-0.1c1.1,0,2.3,0.4,3.1,1.3c1.7,1.7,1.7,4.4,0,6.1c-0.8,0.8-2,1.2-3.1,1.2c-0.4,0-0.8,0-1.2-0.1l-14.3,14.3
		L316,85l13.9-6.5l9.2-4.3l3.1-9.2L329.9,52.7L329.9,52.7z"/>
</g>
<path id="emblem_x5F_r" class="st6" d="M349.9,60.3l-6.1,3.1l-12.3-12.3l3.1-6.1l3.1,3.1c0.8,0.8,2.3,0.8,3.1,0l6.1,6.1
	c-0.8,0.8-0.8,2.3,0,3.1L349.9,60.3z M329.9,60.6c1.1,0,2.3,0.4,3.1,1.3c1.7,1.7,1.7,4.4,0,6.1c-0.8,0.8-2,1.2-3.1,1.2v9.2l9.2-4.3
	l3.1-9.2l-12.3-12.3L329.9,60.6L329.9,60.6z"/>
<path id="emblem_x5F_l_2_" class="st5" d="M329.9,69.3v9.2L316,85l-1.6-1.6l14.3-14.3C329.1,69.3,329.5,69.3,329.9,69.3z
	 M320.7,55.8l-10.8,23.1l1.6,1.6l14.3-14.3c-0.4-1.5,0-3.1,1.1-4.1c0.8-0.8,2-1.3,3.1-1.3v-8L320.7,55.8z"/>
<path class="st7" d="M359.7,0v136.9l-13.3-8.8c-4.9-3.3-10.6-5-16.4-5l0,0c0,0,0,0-0.1,0l0,0l0,0c-1.7,0-3.4,0.2-5.1,0.5
	c-4,0.7-7.9,2.3-11.6,4.8l-12.9,8.6V0.1h-5.2V137c0,1.9,1,3.7,2.7,4.6c1.7,0.9,3.7,0.8,5.3-0.3l12.9-8.6c3.1-2.1,6.4-3.4,9.6-4
	c1.5-0.3,3-0.4,4.3-0.4c4.9,0,9.6,1.4,13.7,4.1l13.3,8.8c0.9,0.6,1.9,0.9,2.9,0.9c0.8,0,1.7-0.2,2.4-0.6c1.7-0.9,2.7-2.7,2.7-4.6V0
	H359.7z"/>
<path id="border_x5F_r" class="st7" d="M359.8,0v136.9l-13.3-8.8c-4.9-3.3-10.7-5-16.5-5v5.2c4.9,0,9.6,1.4,13.7,4.1l13.3,8.8
	c0.9,0.6,1.9,0.9,2.9,0.9c0.8,0,1.7-0.2,2.4-0.6c1.7-0.9,2.7-2.7,2.7-4.6V0H359.8z"/>
<path id="border_x5F_l_2_" class="st2" d="M324.8,123.6c-4,0.7-7.9,2.3-11.6,4.8l-12.9,8.6V0.1h-5.2V137c0,1.9,1,3.7,2.7,4.6
	c1.7,0.9,3.7,0.8,5.3-0.3l12.9-8.6c3.1-2.1,6.4-3.4,9.6-4c1.5-0.3,3-0.4,4.4-0.4v-5.2C328.3,123.1,326.5,123.3,324.8,123.6z"/>
</svg>
