<?xml version="1.0" encoding="utf-8"?>
<!-- Generator: Adobe Illustrator 22.0.1, SVG Export Plug-In . SVG Version: 6.00 Build 0)  -->
<svg version="1.1" id="Слой_1" xmlns="http://www.w3.org/2000/svg" xmlns:xlink="http://www.w3.org/1999/xlink" x="0px" y="0px"
	 viewBox="0 0 300 175.4" style="enable-background:new 0 0 300 175.4;" xml:space="preserve">
<style type="text/css">
	.st0{opacity:0.1;enable-background:new    ;}
</style>
<title>Ресурс 13</title>
<g id="Слой_2_1_">
	<g id="earth_particles">
		<path id="earth_particles-2" class="st0" d="M59.7,169.6c0,3.2-2.6,5.7-5.7,5.8H42.4c-3.2,0-5.8-2.6-5.8-5.8s2.6-5.8,5.8-5.8h11.5
			C57.1,163.9,59.7,166.4,59.7,169.6C59.7,169.6,59.7,169.6,59.7,169.6z M245.4,0h-41.5c-3.2,0-5.8,2.6-5.8,5.8s2.6,5.8,5.8,5.8
			h41.5c3.2,0,5.8-2.6,5.8-5.8S248.6,0,245.4,0z M155.1,28h-21.5c-3.2,0-5.8,2.6-5.8,5.8s2.6,5.8,5.8,5.8h21.5
			c3.2,0,5.8-2.6,5.8-5.8S158.3,28,155.1,28z M131.7,119.5h-26.8c-3.2,0-5.8,2.6-5.8,5.7c0,3.2,2.6,5.8,5.7,5.8c0,0,0,0,0,0h26.8
			c3.2,0,5.8-2.6,5.8-5.8C137.5,122.1,134.9,119.5,131.7,119.5z M288.7,147.1h-11.5c-3.2,0-5.8,2.6-5.8,5.8c0,3.2,2.6,5.8,5.8,5.8
			h11.5c3.2,0,5.8-2.6,5.8-5.8S291.9,147.1,288.7,147.1z M301,58.6h-23.7c-3.2,0-5.8,2.6-5.8,5.8s2.6,5.8,5.8,5.8h15.3
			c3.2,0,5.8,2.6,5.8,5.8s-2.6,5.8-5.8,5.8H285c-3.2-0.1-5.9,2.3-6,5.5s2.3,5.9,5.5,6c0.2,0,0.3,0,0.5,0h16V58.6z M50.1,81.6H19.4
			c-3.2,0-5.8-2.6-5.8-5.8s2.6-5.8,5.8-5.8h7.7c3.2,0,5.8-2.6,5.8-5.8s-2.6-5.8-5.8-5.8H-1v34.5h51.1c3.2,0.1,5.9-2.3,6-5.5
			s-2.3-5.9-5.5-6C50.4,81.6,50.3,81.6,50.1,81.6z"/>
	</g>
</g>
</svg>
