<svg xmlns="http://www.w3.org/2000/svg" viewBox="0 0 300 175"><defs><style>.cls-1{opacity:0.1;}.cls-2{fill:#5e345e;}</style></defs><title>Ресурс 7</title><g id="Слой_2" data-name="Слой 2"><g id="earth_top"><path class="cls-1" d="M0,10V120a30,30,0,0,0,60,0V75a15,15,0,0,1,30,0V92.5a22.5,22.5,0,0,0,45,0V60h.14a22.5,22.5,0,0,1,44.72,0H180v77.5a37.5,37.5,0,0,0,75,0V110h.14a22.5,22.5,0,0,1,44.72,0H300V10Z"/><path class="cls-2" d="M0,0V110a30,30,0,0,0,60,0V65a15,15,0,0,1,30,0V82.5a22.5,22.5,0,0,0,45,0V50h.14a22.5,22.5,0,0,1,44.72,0H180v77.5a37.5,37.5,0,0,0,75,0V100h.14a22.5,22.5,0,0,1,44.72,0H300V0Z"/></g></g></svg>