<?xml version="1.0" encoding="utf-8"?>
<!-- Generator: Adobe Illustrator 22.0.1, SVG Export Plug-In . SVG Version: 6.00 Build 0)  -->
<svg version="1.1" id="ground_2_" xmlns="http://www.w3.org/2000/svg" xmlns:xlink="http://www.w3.org/1999/xlink" x="0px" y="0px"
	 viewBox="0 0 100 170" style="enable-background:new 0 0 100 170;" xml:space="preserve">
<style type="text/css">
	.st0{fill:#4F2B4F;}
	.st1{opacity:0.1;}
	.st2{fill:#D95459;}
	.st3{fill:#EF717A;}
</style>
<rect id="earth_1_" y="20" class="st0" width="100" height="150"/>
<path class="st1" d="M0,20v42.5C0,66.6,3.4,70,7.5,70s7.5-3.4,7.5-7.5v-5c0-2.8,2.2-5,5-5s5,2.2,5,5V80c0,4.1,3.4,7.5,7.5,7.5
	S40,84.1,40,80V47.5c0-2.8,2.2-5,5-5s5,2.2,5,5v5c0,4.1,3.4,7.5,7.5,7.5s7.5-3.4,7.5-7.5v-15c0-2.8,2.2-5,5-5s5,2.2,5,5v35
	c0,4.1,3.4,7.5,7.5,7.5s7.5-3.4,7.5-7.5v-15c0-2.8,2.2-5,5-5s5,2.2,5,5V20H0z"/>
<path class="st2" d="M0,20v37.5C0,61.6,3.4,65,7.5,65s7.5-3.4,7.5-7.5v-5c0-2.8,2.2-5,5-5s5,2.2,5,5V75c0,4.1,3.4,7.5,7.5,7.5
	S40,79.1,40,75V42.5c0-2.8,2.2-5,5-5s5,2.2,5,5v5c0,4.1,3.4,7.5,7.5,7.5s7.5-3.4,7.5-7.5v-15c0-2.8,2.2-5,5-5s5,2.2,5,5v35
	c0,4.1,3.4,7.5,7.5,7.5s7.5-3.4,7.5-7.5v-15c0-2.8,2.2-5,5-5s5,2.2,5,5V20H0z"/>
<path class="st2" d="M0,19v37.5C0,60.6,3.4,64,7.5,64s7.5-3.4,7.5-7.5v-5c0-2.8,2.2-5,5-5s5,2.2,5,5V74c0,4.1,3.4,7.5,7.5,7.5
	S40,78.1,40,74V41.5c0-2.8,2.2-5,5-5s5,2.2,5,5v5c0,4.1,3.4,7.5,7.5,7.5s7.5-3.4,7.5-7.5v-15c0-2.8,2.2-5,5-5s5,2.2,5,5v35
	c0,4.1,3.4,7.5,7.5,7.5s7.5-3.4,7.5-7.5v-15c0-2.8,2.2-5,5-5s5,2.2,5,5V19H0z"/>
<rect y="0" class="st3" width="100" height="20"/>
<path id="bricks" class="st1" d="M42.5,17h-20c-1.4,0-2.5-1.1-2.5-2.5v0c0-1.4,1.1-2.5,2.5-2.5h20c1.4,0,2.5,1.1,2.5,2.5v0
	C45,15.9,43.9,17,42.5,17z M80,9.5L80,9.5C80,8.1,78.9,7,77.5,7h-5C71.1,7,70,8.1,70,9.5v0c0,1.4,1.1,2.5,2.5,2.5h5
	C78.9,12,80,10.9,80,9.5z M5,2H0v5h5c1.4,0,2.5-1.1,2.5-2.5C7.5,3.1,6.4,2,5,2z M100,2h-5c-1.4,0-2.5,1.1-2.5,2.5
	C92.5,5.9,93.6,7,95,7h5V2z"/>
</svg>
