<?xml version="1.0" encoding="utf-8"?>
<!-- Generator: Adobe Illustrator 22.0.1, SVG Export Plug-In . SVG Version: 6.00 Build 0)  -->
<svg version="1.1" id="Слой_1" xmlns="http://www.w3.org/2000/svg" xmlns:xlink="http://www.w3.org/1999/xlink" x="0px" y="0px"
	 viewBox="0 0 40 21" style="enable-background:new 0 0 40 21;" xml:space="preserve">
<style type="text/css">
	.st0{fill:#FFFFFF;}
</style>
<title>Ресурс 9</title>
<g id="Слой_2_1_">
	<g id="Слой_15">
		<g id="html">
			<path class="st0" d="M23.2,0.1c-0.9-0.3-1.8,0.2-2.1,1.1l-5.4,17.7c-0.1,0.4-0.1,0.9,0.1,1.3c0.2,0.4,0.6,0.7,1,0.8l0.2,0
				c0.1,0,0.3,0,0.4,0c0.7,0,1.3-0.5,1.5-1.2l5.3-17.7C24.5,1.3,24.1,0.3,23.2,0.1z"/>
			<path class="st0" d="M11.9,18L4,10.8l7.3-7.9c0.6-0.7,0.6-1.7-0.1-2.3c-0.3-0.3-0.8-0.5-1.3-0.4c-0.4,0-0.8,0.2-1.1,0.5L0.4,9.8
				c-0.6,0.7-0.6,1.7,0.1,2.3c0,0,0,0,0,0l9.1,8.3c0.2,0.2,0.5,0.3,0.8,0.4c0.1,0,0.3,0,0.4,0c0.4,0,0.9-0.2,1.2-0.5
				C12.6,19.7,12.6,18.6,11.9,18L11.9,18z"/>
			<path class="st0" d="M39.5,8.9l-9.1-8.3C29.7,0,28.6,0,28,0.7c-0.3,0.3-0.5,0.8-0.4,1.2c0,0.4,0.2,0.8,0.5,1.1l7.9,7.2l-7.3,7.9
				c-0.6,0.7-0.6,1.7,0.1,2.3c0.2,0.2,0.5,0.3,0.8,0.4c0.1,0,0.3,0,0.4,0c0.4,0,0.8-0.2,1.1-0.5l8.4-9.1
				C40.1,10.5,40.1,9.5,39.5,8.9z"/>
		</g>
	</g>
</g>
</svg>
