<?xml version="1.0" encoding="utf-8"?>
<!-- Generator: Adobe Illustrator 22.0.1, SVG Export Plug-In . SVG Version: 6.00 Build 0)  -->
<svg version="1.1" id="Слой_1" xmlns="http://www.w3.org/2000/svg" xmlns:xlink="http://www.w3.org/1999/xlink" x="0px" y="0px"
	 viewBox="0 0 100 100" style="enable-background:new 0 0 100 100;" xml:space="preserve">
<style type="text/css">
	.st0{fill:#5065A1;}
	.st1{fill:#394C81;}
	.st2{fill:#ECF0F1;}
</style>
<g id="shield_1_">
	<g id="shield">
		<path id="back_1_" class="st0" d="M72.2,87.3c20.6-12.2,27.4-38.9,15.2-59.5C75.1,7.3,48.4,0.4,27.8,12.7S0.4,51.6,12.7,72.2
			C24.9,92.7,51.6,99.6,72.2,87.3z"/>
		<path id="border_1_" class="st1" d="M7,75.5C21.1,99.3,51.8,107.1,75.5,93S107.1,48.2,93,24.5S48.2-7.1,24.5,7S-7.1,51.8,7,75.5z
			 M18.3,68.8C8,51.3,13.7,28.7,31.2,18.3s40.1-4.6,50.5,12.9s4.6,40.1-12.9,50.5S28.7,86.3,18.3,68.8z"/>
		<g id="html_2_">
			<g>
				<path class="st2" d="M49.7,36c-1.1,0-2.1,1-2.1,2.2L48.1,62c0,0.6,0.2,1.1,0.7,1.5c0.4,0.4,1,0.6,1.5,0.6c0.1,0,0.1,0,0.2,0
					c0.2,0,0.4-0.1,0.5-0.1c0.8-0.3,1.4-1.1,1.4-2l-0.5-24C51.8,36.9,50.9,35.9,49.7,36z"/>
				<path class="st2" d="M43.1,62.4l-12.6-5.6l5.7-12.6c0.5-1.1,0-2.3-1.1-2.8c-0.5-0.2-1.1-0.3-1.6-0.1s-1,0.6-1.2,1.1l-6.5,14.5
					c-0.2,0.5-0.3,1.1-0.1,1.6c0.2,0.5,0.6,1,1.1,1.2l14.5,6.5c0.3,0.2,0.7,0.2,1.1,0.2c0.2,0,0.4-0.1,0.5-0.1
					c0.5-0.2,1-0.6,1.2-1.1s0.3-1.1,0.1-1.6C44,63.1,43.6,62.6,43.1,62.4z"/>
				<path class="st2" d="M73.2,40.2l-14.5-6.5c-0.5-0.2-1.1-0.3-1.6-0.1s-1,0.6-1.2,1.1s-0.3,1.1-0.1,1.6s0.6,1,1.1,1.2l12.6,5.6
					l-5.7,12.6c-0.5,1.1,0,2.3,1.1,2.8c0.3,0.2,0.7,0.2,1.1,0.2c0.2,0,0.4-0.1,0.6-0.1c0.5-0.2,1-0.6,1.2-1.1L74.3,43
					C74.7,42,74.2,40.7,73.2,40.2z"/>
			</g>
		</g>
	</g>
</g>
</svg>
