<?xml version="1.0" encoding="utf-8"?>
<!-- Generator: Adobe Illustrator 22.0.1, SVG Export Plug-In . SVG Version: 6.00 Build 0)  -->
<svg version="1.1" id="spear" xmlns="http://www.w3.org/2000/svg" xmlns:xlink="http://www.w3.org/1999/xlink" x="0px" y="0px"
	 viewBox="0 0 100 100" style="enable-background:new 0 0 100 100;" xml:space="preserve">
<style type="text/css">
	.st0{fill:#5065A1;}
	.st1{fill:#ECF0F1;}
	.st2{fill:#394C81;}
</style>
<g>
	<path id="decoration_3_" class="st0" d="M28.9,54.5l25.8,17.4l-3.3,11.9L45,79.4c-1.8-1.2-4.2-0.7-5.4,1.1L27.4,84l-0.7-12.2
		c1.2-1.8,0.7-4.2-1.1-5.4L19.2,62L28.9,54.5z"/>
	<path id="edge_2_" class="st1" d="M70.2,7.2l3.2,2.2l-20.2,30c-2.7-0.2-5.4,1-7,3.4c-2.4,3.6-1.4,8.4,2.1,10.8
		c3.6,2.4,8.4,1.4,10.8-2.1c1.6-2.4,1.7-5.3,0.5-7.7l20.2-30l3.2,2.2l-11,44.2l-15.2,8.6L31.1,51.3L33.3,34L70.2,7.2z"/>
</g>
<path class="st2" d="M26.7,71.8L16.4,87c3.9,3.5,8.2,6.4,12.9,8.5l11.4-16.9L26.7,71.8z"/>
</svg>
