<?xml version="1.0" encoding="utf-8"?>
<!-- Generator: Adobe Illustrator 22.0.1, SVG Export Plug-In . SVG Version: 6.00 Build 0)  -->
<svg version="1.1" id="helmet_1_" xmlns="http://www.w3.org/2000/svg" xmlns:xlink="http://www.w3.org/1999/xlink" x="0px" y="0px"
	 viewBox="0 0 100 100" style="enable-background:new 0 0 100 100;" xml:space="preserve">
<style type="text/css">
	.st0{fill:#FFCD02;}
	.st1{fill:#FFA800;}
</style>
<g>
	<path class="st0" d="M91.9,77.2V22.8C83.2,9.3,68.9,1.4,53.8,0.2h-3.9C26.8,0.2,8.1,18.9,8.1,42v35.2c8.7,13.4,22.8,21.4,37.8,22.6
		h0.7V67.7c0-1.5-1.2-2.7-2.7-2.7h-0.9c-7.8,0-14-6.4-13.9-14.2c0.1-7.7,6.7-13.6,14.4-13.6H71c7.8,0,14,6.4,13.9,14.2
		c-0.1,7.7-6.7,13.6-14.4,13.6h-0.4c-1.5,0-2.7,1.2-2.7,2.7v29.1c2.7-1,5.4-2.3,8-3.8C82.4,88.9,87.9,83.4,91.9,77.2z"/>
	<path class="st1" d="M54.9,0.5c-1.6-0.2-3.2-0.3-4.8-0.3h-0.2C26.8,0.2,8.1,18.9,8.1,42v35.2c2.8,4.3,6.1,8,9.9,11.2V42
		C17.9,20.5,34.1,2.9,54.9,0.5z"/>
</g>
</svg>
