<svg xmlns="http://www.w3.org/2000/svg" viewBox="0 0 200 75"><defs><style>.cls-1{fill:#4f2b4f;}.cls-2{opacity:0.1;}.cls-3{fill:#d95459;}.cls-4{fill:#ef717a;}</style></defs><title>Ресурс 5</title><g id="Слой_2" data-name="Слой 2"><g id="link"><path id="bottom" class="cls-1" d="M10,20V57.86C10,67.32,16.72,75,25,75H175c8.28,0,15-7.68,15-17.14V20Z"/><path id="bricks" class="cls-2" d="M52.5,65h-20A2.5,2.5,0,0,1,30,62.5h0A2.5,2.5,0,0,1,32.5,60h20A2.5,2.5,0,0,1,55,62.5h0A2.5,2.5,0,0,1,52.5,65Zm45-10h-10A2.5,2.5,0,0,1,85,52.5h0A2.5,2.5,0,0,1,87.5,50h10a2.5,2.5,0,0,1,2.5,2.5h0A2.5,2.5,0,0,1,97.5,55Zm45,15h-10a2.5,2.5,0,0,1-2.5-2.5h0a2.5,2.5,0,0,1,2.5-2.5h10a2.5,2.5,0,0,1,2.5,2.5h0A2.5,2.5,0,0,1,142.5,70Zm40-20h-5a2.5,2.5,0,0,1-2.5-2.5h0a2.5,2.5,0,0,1,2.5-2.5h5a2.5,2.5,0,0,1,2.5,2.5h0A2.5,2.5,0,0,1,182.5,50ZM86.75,45h-5a2.5,2.5,0,0,1-2.5-2.5h0a2.5,2.5,0,0,1,2.5-2.5h5a2.5,2.5,0,0,1,2.5,2.5h0A2.5,2.5,0,0,1,86.75,45Z"/><path id="shadow" class="cls-2" d="M10,20V35H25a5,5,0,0,1,5,5v8.52a7.7,7.7,0,0,0,7.27,7.81A7.5,7.5,0,0,0,45,48.83V42.05a5.14,5.14,0,0,1,4.51-5.19,5,5,0,0,1,5.49,5v1.69a7.7,7.7,0,0,0,7.27,7.81A7.5,7.5,0,0,0,70,43.83V40a5,5,0,0,1,5-5h25a5,5,0,0,1,5,5V53.52a7.7,7.7,0,0,0,7.27,7.81,7.5,7.5,0,0,0,7.73-7.5V42.05a5.14,5.14,0,0,1,4.51-5.19,5,5,0,0,1,5.49,5v1.69a7.7,7.7,0,0,0,7.27,7.81,7.5,7.5,0,0,0,7.73-7.5V42.05a5.14,5.14,0,0,1,4.51-5.19,5,5,0,0,1,5.49,5v6.69a7.7,7.7,0,0,0,7.27,7.81,7.5,7.5,0,0,0,7.73-7.5V40a5,5,0,0,1,5-5h15V20Z"/><path id="side" class="cls-3" d="M190,10H0V20A10,10,0,0,0,10,30H25a5,5,0,0,1,5,5v8.52a7.7,7.7,0,0,0,7.27,7.81A7.5,7.5,0,0,0,45,43.83V37.05a5.14,5.14,0,0,1,4.51-5.19,5,5,0,0,1,5.49,5v1.69a7.7,7.7,0,0,0,7.27,7.81A7.5,7.5,0,0,0,70,38.83V35a5,5,0,0,1,5-5h25a5,5,0,0,1,5,5V48.52a7.7,7.7,0,0,0,7.27,7.81,7.5,7.5,0,0,0,7.73-7.5V37.05a5.14,5.14,0,0,1,4.51-5.19,5,5,0,0,1,5.49,5v1.69a7.7,7.7,0,0,0,7.27,7.81,7.5,7.5,0,0,0,7.73-7.5V37.05a5.14,5.14,0,0,1,4.51-5.19,5,5,0,0,1,5.49,5v6.69a7.7,7.7,0,0,0,7.27,7.81,7.5,7.5,0,0,0,7.73-7.5V35a5,5,0,0,1,5-5h15a10,10,0,0,0,10-10V10Z"/><path id="top" class="cls-4" d="M190,0H10a10,10,0,0,0,0,20H190a10,10,0,0,0,0-20Z"/><rect id="shadow-2" data-name="shadow" class="cls-2" x="71" y="6" width="58" height="8" rx="4" ry="4"/></g></g></svg>