<?xml version="1.0" encoding="utf-8"?>
<!-- Generator: Adobe Illustrator 22.0.1, SVG Export Plug-In . SVG Version: 6.00 Build 0)  -->
<svg version="1.1" xmlns="http://www.w3.org/2000/svg" xmlns:xlink="http://www.w3.org/1999/xlink" x="0px" y="0px"
	 viewBox="0 0 100 92" style="enable-background:new 0 0 100 92;" xml:space="preserve">
<style type="text/css">
	.st0{fill:#FFA800;}
	.st1{fill:#FFCD02;}
	.st2{fill:#D35400;}
	.st3{display:none;}
	.st4{display:inline;opacity:0.1;}
	.st5{display:inline;fill:#FFCD02;}
	.st6{opacity:0.1;}
</style>
<g id="coin">
	<path class="st0" d="M98.6,43l-20-34.1C76.9,5.9,73.6,4,70.1,4H29.9c-3.5,0-6.8,1.9-8.6,4.9L1.4,43L0,44v4h0c0,1.7,0.5,3.5,1.4,5.1
		l19.9,34c1.8,3.1,5.1,4.9,8.6,4.9h40.1c3.5,0,6.8-1.9,8.6-4.9l19.9-34c0.9-1.6,1.4-3.3,1.4-5.1h0v-4L98.6,43z"/>
	<path id="out_2_" class="st1" d="M70.1,0H29.9c-3.5,0-6.8,1.9-8.6,4.9l-19.9,34c-1.8,3.1-1.8,7,0,10.1l19.9,34
		c1.8,3.1,5.1,4.9,8.6,4.9h40.1c3.5,0,6.8-1.9,8.6-4.9l19.9-34c1.8-3.1,1.8-7,0-10.1l-19.9-34C76.9,1.9,73.6,0,70.1,0z"/>
	<path id="in_2_" class="st2" d="M67,7H33c-2.8,0-5.5,1.5-6.9,4L9.2,40c-1.4,2.5-1.4,5.6,0,8.1l16.9,29c1.4,2.5,4.1,4,6.9,4H67
		c2.8,0,5.5-1.5,6.9-4l16.9-29c1.4-2.5,1.4-5.6,0-8.1L73.9,11C72.4,8.5,69.8,7,67,7z"/>
	<path id="border_2_" class="st0" d="M90.8,40L73.9,11c-1.4-2.5-4.1-4-6.9-4H33c-2.8,0-5.5,1.5-6.9,4L9.2,40c-1.4,2.5-1.4,5.6,0,8.1
		l16.9,29c1.4,2.5,4.1,4,6.9,4H67c2.8,0,5.5-1.5,6.9-4l16.9-29C92.2,45.5,92.2,42.5,90.8,40z M86.4,45.5l-16.9,29
		C69,75.4,68,76,67,76H33c-1.1,0-2.1-0.6-2.6-1.5l-16.9-29c-0.5-0.9-0.5-2.1,0-3l16.9-29C31,12.6,32,12,33,12H67
		c1.1,0,2.1,0.6,2.6,1.5l16.9,29C87,43.4,87,44.6,86.4,45.5z"/>
</g>
<g id="inst_x5F_icon" class="st3">
	<path class="st4" d="M60,26H40c-5.5,0-10,4.5-10,10v20c0,5.5,4.5,10,10,10h20c5.5,0,10-4.5,10-10V36C70,30.5,65.5,26,60,26z M66,56
		c0,3.3-2.7,6-6,6H40c-3.3,0-6-2.7-6-6V36c0-3.3,2.7-6,6-6h20c3.3,0,6,2.7,6,6V56z M50,36.5c-5.2,0-9.5,4.3-9.5,9.5s4.3,9.5,9.5,9.5
		s9.5-4.3,9.5-9.5S55.2,36.5,50,36.5z M50,51.5c-3,0-5.5-2.5-5.5-5.5s2.5-5.5,5.5-5.5s5.5,2.5,5.5,5.5S53,51.5,50,51.5z M60.5,38
		L60.5,38c-1.4,0-2.5-1.1-2.5-2.5v0c0-1.4,1.1-2.5,2.5-2.5h0c1.4,0,2.5,1.1,2.5,2.5v0C63,36.9,61.9,38,60.5,38z"/>
	<path id="frame_2_" class="st5" d="M60,24H40c-5.5,0-10,4.5-10,10v20c0,5.5,4.5,10,10,10h20c5.5,0,10-4.5,10-10V34
		C70,28.5,65.5,24,60,24z M66,54c0,3.3-2.7,6-6,6H40c-3.3,0-6-2.7-6-6V34c0-3.3,2.7-6,6-6h20c3.3,0,6,2.7,6,6V54z"/>
	<path id="circle_2_" class="st5" d="M50,34.5c-5.2,0-9.5,4.3-9.5,9.5s4.3,9.5,9.5,9.5s9.5-4.3,9.5-9.5S55.2,34.5,50,34.5z M50,49.5
		c-3,0-5.5-2.5-5.5-5.5s2.5-5.5,5.5-5.5s5.5,2.5,5.5,5.5S53,49.5,50,49.5z"/>
	<path id="dot_1_" class="st5" d="M60.5,36L60.5,36c-1.4,0-2.5-1.1-2.5-2.5v0c0-1.4,1.1-2.5,2.5-2.5h0c1.4,0,2.5,1.1,2.5,2.5v0
		C63,34.9,61.9,36,60.5,36z"/>
</g>
<g id="mail_x5F_icon">
	<path id="shadow_1_" class="st6" d="M70,30.9c0-0.1,0-0.2,0-0.2c0-0.1,0-0.1,0-0.2c0-0.1,0-0.1-0.1-0.2c0-0.1,0-0.1-0.1-0.2
		c0-0.1-0.1-0.1-0.1-0.2c0-0.1-0.1-0.1-0.1-0.2c0,0,0,0,0-0.1c0,0-0.1-0.1-0.1-0.1c0-0.1-0.1-0.1-0.2-0.2c0,0-0.1-0.1-0.1-0.1
		c-0.1,0-0.1-0.1-0.2-0.1c-0.1,0-0.1-0.1-0.2-0.1c-0.1,0-0.1-0.1-0.2-0.1c-0.1,0-0.1,0-0.2-0.1c-0.1,0-0.1,0-0.2,0
		c-0.1,0-0.1,0-0.2,0c0,0-0.1,0-0.1,0H32.1c0,0-0.1,0-0.1,0c-0.1,0-0.1,0-0.2,0c-0.1,0-0.1,0-0.2,0c-0.1,0-0.1,0-0.2,0.1
		c-0.1,0-0.1,0-0.2,0.1c-0.1,0-0.1,0.1-0.2,0.1c-0.1,0-0.1,0.1-0.2,0.1c-0.1,0-0.1,0.1-0.1,0.1c-0.1,0.1-0.1,0.1-0.2,0.2
		c0,0-0.1,0-0.1,0.1c0,0,0,0,0,0.1c0,0.1-0.1,0.1-0.1,0.2c0,0.1-0.1,0.1-0.1,0.2c0,0.1-0.1,0.1-0.1,0.2c0,0.1,0,0.1-0.1,0.2
		c0,0.1,0,0.1,0,0.2c0,0.1,0,0.2,0,0.2c0,0,0,0.1,0,0.1v27.8c0,1.2,0.9,2.1,2.1,2.1h35.9c1.1,0,2.1-0.9,2.1-2.1L70,30.9
		C70,31,70,30.9,70,30.9z M62.1,33.1L50,43.1l-12.1-10H62.1z M34.1,56.6V35.4l14.6,12.1c0.4,0.3,0.8,0.5,1.3,0.5s0.9-0.2,1.3-0.5
		l14.6-12.1v21.3H34.1z"/>
	<path id="color" class="st1" d="M70,28.9c0-0.1,0-0.2,0-0.2c0-0.1,0-0.1,0-0.2c0-0.1,0-0.1-0.1-0.2c0-0.1,0-0.1-0.1-0.2
		c0-0.1-0.1-0.1-0.1-0.2c0-0.1-0.1-0.1-0.1-0.2c0,0,0,0,0-0.1c0,0-0.1-0.1-0.1-0.1c0-0.1-0.1-0.1-0.2-0.2c0,0-0.1-0.1-0.1-0.1
		c-0.1,0-0.1-0.1-0.2-0.1c-0.1,0-0.1-0.1-0.2-0.1c-0.1,0-0.1-0.1-0.2-0.1c-0.1,0-0.1,0-0.2-0.1c-0.1,0-0.1,0-0.2,0
		c-0.1,0-0.1,0-0.2,0c0,0-0.1,0-0.1,0H32.1c0,0-0.1,0-0.1,0c-0.1,0-0.1,0-0.2,0c-0.1,0-0.1,0-0.2,0c-0.1,0-0.1,0-0.2,0.1
		c-0.1,0-0.1,0-0.2,0.1c-0.1,0-0.1,0.1-0.2,0.1c-0.1,0-0.1,0.1-0.2,0.1c-0.1,0-0.1,0.1-0.1,0.1c-0.1,0.1-0.1,0.1-0.2,0.2
		c0,0-0.1,0-0.1,0.1c0,0,0,0,0,0.1c0,0.1-0.1,0.1-0.1,0.2c0,0.1-0.1,0.1-0.1,0.2c0,0.1-0.1,0.1-0.1,0.2c0,0.1,0,0.1-0.1,0.2
		c0,0.1,0,0.1,0,0.2c0,0.1,0,0.2,0,0.2c0,0,0,0.1,0,0.1v27.8c0,1.2,0.9,2.1,2.1,2.1h35.9c1.1,0,2.1-0.9,2.1-2.1L70,28.9
		C70,29,70,28.9,70,28.9z M62.1,31.1L50,41.1l-12.1-10H62.1z M34.1,54.6V33.4l14.6,12.1c0.4,0.3,0.8,0.5,1.3,0.5s0.9-0.2,1.3-0.5
		l14.6-12.1v21.3H34.1z"/>
</g>
</svg>
