<?xml version="1.0" encoding="utf-8"?>
<!-- Generator: Adobe Illustrator 22.0.1, SVG Export Plug-In . SVG Version: 6.00 Build 0)  -->
<svg version="1.1" id="Слой_1" xmlns="http://www.w3.org/2000/svg" xmlns:xlink="http://www.w3.org/1999/xlink" x="0px" y="0px"
	 viewBox="0 0 40 40" style="enable-background:new 0 0 40 40;" xml:space="preserve">
<style type="text/css">
	.st0{fill:#FFFFFF;}
</style>
<title>Ресурс 8</title>
<g id="Слой_2_1_">
	<g id="Слой_15">
		<g id="vector">
			<path class="st0" d="M33.8,18.5L21.5,6.2L24.6,0l3.1,3.1c0.9,0.8,2.2,0.8,3.1,0l6.2,6.1c-0.8,0.9-0.8,2.2,0,3.1l3.1,3.1
				L33.8,18.5z M29.2,29.2l3.1-9.2L20,7.7l-9.2,3.1L0,33.8l1.5,1.5l14.3-14.3c-0.6-2.3,0.8-4.7,3.1-5.3c2.3-0.6,4.7,0.8,5.3,3.1
				s-0.8,4.7-3.1,5.3c-0.7,0.2-1.5,0.2-2.3,0L4.6,38.5L6.2,40L29.2,29.2z"/>
		</g>
	</g>
</g>
</svg>
