<?xml version="1.0" encoding="utf-8"?>
<!-- Generator: Adobe Illustrator 22.0.1, SVG Export Plug-In . SVG Version: 6.00 Build 0)  -->
<svg version="1.1" id="Слой_1" xmlns="http://www.w3.org/2000/svg" xmlns:xlink="http://www.w3.org/1999/xlink" x="0px" y="0px"
	 viewBox="0 0 100 100" style="enable-background:new 0 0 100 100;" xml:space="preserve">
<style type="text/css">
	.st0{fill:#FFCD02;}
	.st1{fill:#22242A;}
	.st2{opacity:0.1;enable-background:new    ;}
	.st3{fill:#FFFFFF;}
</style>
<g id="Слой_1_1_">
</g>
<g id="hero">
	<g id="player_x5F_icon">
		<path id="back_3_" class="st0" d="M15.3,95c-5.5,0-10-4.5-10-10V15c0-5.5,4.5-10,10-10h70c5.5,0,10,4.5,10,10v70
			c0,5.5-4.5,10-10,10H15.3z"/>
		<g id="hero_1_">
			<path id="head_1_" class="st1" d="M67.2,33H33.9c-9.2,0-17.1,7.2-17.3,16.4c-0.2,9.4,7.4,17.1,16.7,17.1h1.1
				c1.8,0,3.2,1.4,3.2,3.2V95h25.3V69.7c0-1.8,1.4-3.2,3.2-3.2h0.5c9.2,0,17.1-7.2,17.3-16.4C84.1,40.7,76.6,33,67.2,33z"/>
		</g>
		<path id="inner_x5F_border" class="st2" d="M81.8,14c2.5,0,4.5,2,4.5,4.5v63c0,2.5-2,4.5-4.5,4.5h-63c-2.5,0-4.5-2-4.5-4.5v-63
			c0-2.5,2-4.5,4.5-4.5H81.8 M81.8,5h-63C11.3,5,5.3,11,5.3,18.5v63c0,7.5,6,13.5,13.5,13.5h63c7.5,0,13.5-6,13.5-13.5v-63
			C95.3,11,89.3,5,81.8,5L81.8,5z"/>
		<path id="outer_x5F_border" class="st3" d="M85.3,10c2.8,0,5,2.2,5,5v70c0,2.8-2.2,5-5,5h-70c-2.8,0-5-2.2-5-5V15c0-2.8,2.2-5,5-5
			H85.3 M85.3,0h-70C7,0,0.3,6.7,0.3,15v70c0,8.3,6.7,15,15,15h70c8.3,0,15-6.7,15-15V15C100.3,6.7,93.6,0,85.3,0L85.3,0z"/>
	</g>
</g>
</svg>
