<?xml version="1.0" encoding="utf-8"?>
<!-- Generator: Adobe Illustrator 22.0.1, SVG Export Plug-In . SVG Version: 6.00 Build 0)  -->
<svg version="1.1" id="quest" xmlns="http://www.w3.org/2000/svg" xmlns:xlink="http://www.w3.org/1999/xlink" x="0px" y="0px"
	 viewBox="0 0 100 100" style="enable-background:new 0 0 100 100;" xml:space="preserve">
<style type="text/css">
	.st0{fill:#D35400;}
	.st1{fill:#FFA800;}
	.st2{fill:#FFCD02;}
	.st3{opacity:0.1;}
</style>
<path id="back" class="st0" d="M85.7,90.3H14.2c-5.2,0-9.5-4.3-9.5-9.5V14.3C4.7,9,9,4.8,14.2,4.8h71.5c5.2,0,9.5,4.3,9.5,9.5v66.5
	C95.2,86,91,90.3,85.7,90.3z"/>
<path id="shade" class="st1" d="M89.6,5.7H10.4c-2.6,0-4.8,2.1-4.8,4.8v74.1c0,2.6,2.1,4.8,4.8,4.8h79.1c2.6,0,4.8-2.1,4.8-4.8V10.4
	C94.3,7.8,92.2,5.7,89.6,5.7z M75.3,79.8H24.7c-5.2,0-9.5-4.3-9.5-9.5V24.7c0-5.2,4.3-9.5,9.5-9.5h50.6c5.2,0,9.5,4.3,9.5,9.5v45.6
	C84.8,75.5,80.5,79.8,75.3,79.8z"/>
<path id="in" class="st1" d="M0,19.3v66.5C0,93.6,6.4,100,14.3,100h71.5c7.9,0,14.3-6.4,14.3-14.3V19.3C100,11.4,93.6,5,85.8,5H14.3
	C6.4,5,0,11.4,0,19.3z M82.9,92.4H17.1c-5.2,0-9.5-4.3-9.5-9.5V22.1c0-5.2,4.3-9.5,9.5-9.5h65.8c5.2,0,9.5,4.3,9.5,9.5v60.8
	C92.4,88.1,88.1,92.4,82.9,92.4z"/>
<path id="out" class="st2" d="M0,14.3v66.5C0,88.6,6.4,95,14.3,95h71.5c7.9,0,14.3-6.4,14.3-14.3V14.3C100,6.4,93.6,0,85.8,0H14.3
	C6.4,0,0,6.4,0,14.3z M82.9,87.4H17.1c-5.2,0-9.5-4.3-9.5-9.5V17.1c0-5.2,4.3-9.5,9.5-9.5h65.8c5.2,0,9.5,4.3,9.5,9.5v60.8
	C92.4,83.1,88.1,87.4,82.9,87.4z"/>
<g id="sign">
	<path id="shadow" class="st3" d="M53.3,67h-6.6v-6.6h6.6V67z M55.2,29.9H44.8l1.9,25.7h6.6L55.2,29.9z"/>
	<path id="color" class="st2" d="M53.3,65.1h-6.6v-6.6h6.6V65.1z M55.2,28H44.8l1.9,25.6h6.6L55.2,28z"/>
</g>
</svg>
