<?xml version="1.0" encoding="utf-8"?>
<!-- Generator: Adobe Illustrator 22.0.1, SVG Export Plug-In . SVG Version: 6.00 Build 0)  -->
<svg version="1.1" id="FLYING_x5F_car" xmlns="http://www.w3.org/2000/svg" xmlns:xlink="http://www.w3.org/1999/xlink" x="0px"
	 y="0px" viewBox="0 0 100 100" style="enable-background:new 0 0 100 100;" xml:space="preserve">
<style type="text/css">
	.st0{fill:#A97DFF;}
	.st1{fill:#8255E5;}
	.st2{fill:#9169F4;}
	.st3{fill:#FFB600;}
	.st4{fill:#F9CC69;}
	.st5{opacity:0.4;fill:#F9F9F9;}
	.st6{opacity:0.3;fill:#F9F9F9;}
	.st7{fill:#22183D;}
	.st8{fill:#EDEDED;}
	.st9{filter:url(#Adobe_OpacityMaskFilter);}
	.st10{filter:url(#Adobe_OpacityMaskFilter_1_);}
	.st11{mask:url(#SVGID_1_);fill:url(#SVGID_2_);}
	.st12{fill:url(#SVGID_3_);}
	.st13{fill:#140D00;}
	.st14{filter:url(#Adobe_OpacityMaskFilter_2_);}
	.st15{filter:url(#Adobe_OpacityMaskFilter_3_);}
	.st16{mask:url(#SVGID_4_);fill:url(#SVGID_5_);}
	.st17{fill:url(#SVGID_6_);}
</style>
<path id="body_x5F_main_1_" class="st0" d="M104.3-7.3l-1.9-3.2c-0.3-0.5-0.9-0.6-1.4-0.3C98.1-8.7,89-2.2,85.4,0.8L56.6,24.7
	c-0.1,0.1-0.9,0.3-1,0.3l-18.1,4c-0.6,0.1-1.1,0.4-1.5,0.7c-5,3.8-10.8,9.4-10.8,9.4C2.5,61.8-3.6,91.9-4.8,100
	c-0.2,1.1,0.7,2.2,1.8,2.3L7.7,103c0.8,0.1,1.6-0.1,2.4-0.6c15.7-9.7,32-25.8,32-25.8s31.1-31.1,47.1-47.1
	C101.9,16.8,106.7,6.2,108,2.5c0.4-1,0.3-2-0.1-2.9C106.3-4.2,104.3-7.3,104.3-7.3z"/>
<path id="body_x5F_bottom_1_" class="st1" d="M10,102.5c9.8-3.9,19-12.8,19-12.8s44.1-44.1,60.1-60.1c10-10,15-18.6,17.4-23.7
	L10,102.5z"/>
<path id="body_x5F_mid_1_" class="st2" d="M104.3-7.3L-4.5,101.5c0.3,0.4,0.8,0.8,1.4,0.8L7.7,103c0.8,0.1,1.6-0.1,2.4-0.6
	l96.5-96.5c0.7-1.4,1.1-2.6,1.4-3.4c0.4-1,0.3-2-0.1-2.9C106.3-4.2,104.3-7.3,104.3-7.3z"/>
<path id="ligh_x5F_back_1_" class="st3" d="M-2,87c0,0,3.3,3.4-1.9,7.8l0,0C-3.4,92.6-2.8,90-2,87L-2,87z"/>
<path id="light_x5F_front_1_" class="st3" d="M96-6.4c0,0,4.3,2.1,7.8-1.7l0,0l-1.5-2.5c-0.3-0.5-0.9-0.6-1.3-0.3
	c-1.5,1.1-4.6,3.3-5.7,4.1L96-6.4z"/>
<path id="front_x5F_color_1_" class="st3" d="M85.4,0.8L56.6,24.7c0,0,0.8-0.2,2.5-1.3l10.3-8.1L94.9-6.4
	C91.7-4.1,88.5-1.8,85.4,0.8z"/>
<path id="glass_x5F_front_1_" class="st4" d="M37.2,29.4l0.1,0.5c0.4,0.4,0.9,0.6,1.5,0.6l11.4-0.7c0.5,0,1.3-0.1,1.9-0.6l4.4-4.4
	l-0.7,0.1c-0.1,0.1-0.2,0.1-0.3,0.1l-18.1,4c-0.3,0.1-0.4,0.1-0.4,0.1L37.2,29.4z"/>
<path id="glass_x5F_mid_1_" class="st4" d="M35.8,33.4l-1.1,0.2L18.4,49.8c-0.9,0.9-0.7,2.5,0.5,3.1l4.7,2.7
	c0.8,0.4,1.7,0.3,2.3-0.3l21.8-21.8l0.4-0.4C42.4,32.6,39,33,35.8,33.4z"/>
<path id="glass_x5F_back_1_" class="st4" d="M12.1,58c-3.7,6.1-6.6,12.8-8.3,16.9c-0.4,0.9,0.8,1.7,1.5,1l13.5-13.5
	c0.9-0.9,0.7-2.3-0.4-2.9l-3.9-2.1C13.7,56.9,12.6,57.2,12.1,58z"/>
<path id="blink_x5F_front_1_" class="st5" d="M44.4,30.1l-3.7,0.2l-1-1.9l3.6-0.8C43.6,28.5,44,29.3,44.4,30.1z M55.9,24.9
	c-0.1,0.1-0.2,0.1-0.3,0.1l-8.9,2c0.3,0.7,0.7,1.4,1,2.2c0.1,0.3,0.2,0.5,0.4,0.8l2.2-0.1c0.5,0,1.3-0.1,1.9-0.6l4.4-4.4L55.9,24.9z
	"/>
<path id="blink_x5F_mid_1_" class="st6" d="M22.4,45.9l4.5,8.5l-0.9,0.9c-0.1,0.1-0.2,0.2-0.3,0.3l-4.5-8.4L22.4,45.9z M38.6,33.1
	l3.3,6.3l1.1-1.1L40.1,33C39.6,33,39.1,33,38.6,33.1z M35.8,33.4L35,33.5l4.4,8.3l1.1-1.1l-4-7.4C36.3,33.4,36,33.4,35.8,33.4z
	 M27,41.3l4.5,8.5l1.1-1.1L28,40.2L27,41.3z M23.6,44.6l4.5,8.5l1.9-1.9l-4.5-8.5L23.6,44.6z"/>
<path id="blink_x5F_back_1_" class="st6" d="M13.6,57.2l3.6,6.8l-1.1,1.1l-3.9-7.3C12.6,57.4,13.1,57.2,13.6,57.2z M6.2,69.4l2,3.7
	l1.2-1.2l-2.3-4.3C6.8,68.1,6.5,68.8,6.2,69.4z M8.3,64.9l2.8,5.2l1.9-1.9l-3.2-6.1C9.3,63.1,8.8,64,8.3,64.9z"/>
<path id="main_x5F_stroke_1_" class="st7" d="M101.8-11.2c-0.3-0.1-0.7,0-0.9,0.2C98.1-9,88.9-2.4,85.3,0.6L56.5,24.5
	c-0.6,0.2-0.9,0.3-0.9,0.3c0,0,0,0,0,0l-18.1,4c-0.6,0.1-1.1,0.4-1.6,0.7C30.9,33.3,25,39,25,39.1C2.3,61.7-3.7,91.4-5,100
	c-0.1,0.6,0.1,1.2,0.4,1.7c0.4,0.5,0.9,0.8,1.5,0.8l9.7,0.7c1,0.1,2.5-0.2,3.4-0.5c8.5-3.2,19.1-12.7,19.2-12.8l60.1-60.1
	C102,17,106.8,6.5,108.2,2.6c0.4-1,0.3-2.1-0.1-3.1c-1.6-3.7-4-7.6-4.1-7.6l-1.5-2.4C102.4-10.9,102.1-11.1,101.8-11.2z M85.6,0.9
	c1.2-1,3-2.4,5-3.9c-0.9,0.7-1.7,1.5-2.6,2.2c-13.2,11.3-22.7,19.5-29.1,24c-0.4,0.3-0.8,0.5-1.2,0.7L85.6,0.9z M55.6,25.2
	C55.6,25.2,55.6,25.2,55.6,25.2C55.6,25.2,55.6,25.2,55.6,25.2L55.6,25.2c0.2,0,0.2,0,0.2-0.1L51.9,29c-0.3,0.3-0.7,0.5-1.1,0.5
	l-12,0.7c-0.4,0-0.7-0.1-1.1-0.3c-0.2-0.1-0.3-0.3-0.3-0.5l-0.1-0.3c0.1,0,0.1,0,0.2-0.1L55.6,25.2z M36.9,29.4l0.1,0.3
	c0.1,0.3,0.3,0.5,0.5,0.7c0.4,0.2,0.8,0.4,1.3,0.3l12-0.7c0.5,0,1-0.3,1.4-0.6l4.4-4.4c0.7-0.2,1.6-0.6,2.5-1.3
	C65.5,19,75,10.9,88.2-0.4c2.2-1.9,4.4-3.8,6.8-5.8c0.1-0.1,0.2-0.2,0.3-0.3c0.7,0.4,4.5,2.4,8.4-1.3c0.1,0.1,0.2,0.3,0.3,0.5
	L61.5,35.3c-4.8-1.4-9.3-2.1-13.3-2.3c0,0-0.1,0-0.1,0c-8.8-0.6-15.1,0.7-17.3,1.3c1.7-1.5,3.5-3,5.3-4.4
	C36.3,29.7,36.6,29.5,36.9,29.4z M42.9,69.3l-9.7-5.3l28.3-28.3l7.5,7.5L42.9,69.3z M47.7,33.3L25.8,55.2c-0.6,0.6-1.4,0.7-2.1,0.3
	L19,52.7c-0.5-0.3-0.8-0.7-0.9-1.3c-0.1-0.6,0.1-1.1,0.5-1.5l16.1-16.1C37.8,33.3,42.2,32.9,47.7,33.3z M30.1,34.8
	c0.2-0.1,1.6-0.5,3.9-0.9L18.3,49.7c-0.5,0.5-0.7,1.2-0.6,1.8c0.1,0.7,0.5,1.3,1.1,1.6l4.7,2.7c0.8,0.5,1.9,0.3,2.6-0.4l22.1-22.1
	c3.9,0.3,8.2,1,12.9,2.3L32.9,63.9L13.7,53.4c3.3-4.8,7.1-9.6,11.6-14.1C25.3,39.3,27.4,37.3,30.1,34.8z M-1.9,87.5
	c0.3,0.4,0.8,1.3,0.7,2.6c-0.1,1.4-0.9,2.9-2.4,4.3C-3.1,92.3-2.6,90-1.9,87.5z M-4.6,100.1c0.2-1.3,0.5-3,0.9-5.1
	c0.3-0.2,0.5-0.5,0.8-0.7c1.4-1.4,2.1-2.7,2.2-4.2c0.1-1.6-0.7-2.8-1-3.1c2.6-9.2,7.2-21.4,15.2-33.2l19.1,10.4l-37,37
	C-4.6,100.8-4.7,100.5-4.6,100.1z M6.7,102.8l-9.7-0.7c-0.5,0-0.9-0.2-1.2-0.6l37.1-37.1l9.7,5.3L9.9,102.3c0,0,0,0,0,0
	C9,102.6,7.6,102.8,6.7,102.8z M28.9,89.5c-0.1,0.1-9.8,8.9-18.1,12.4l95.1-95.1c-2.6,5.2-7.6,13.3-16.9,22.6L28.9,89.5z M107.8-0.4
	c0.4,0.9,0.4,1.9,0.1,2.8c-0.3,0.8-0.8,2-1.4,3.4L69.2,43l-7.5-7.5L104.3-7C105.1-5.6,106.6-2.9,107.8-0.4z M102.2-10.4l1.4,2.3
	c-3.6,3.5-6.9,1.9-7.9,1.4c2.3-1.7,4.3-3.1,5.4-3.9c0.2-0.1,0.4-0.2,0.6-0.1C101.9-10.7,102.1-10.6,102.2-10.4z"/>
<path id="back_5_" class="st2" d="M37.4,57.5l-2.8,2.8c-0.3,0.3-0.9,0.4-1.3,0.1l-1-0.7c-0.5-0.3-0.6-1.1-0.1-1.5l2.8-2.8
	c0.3-0.3,0.9-0.4,1.3-0.1l1,0.7C37.7,56.3,37.8,57,37.4,57.5z"/>
<path id="door_1_" class="st7" d="M37.5,57.6l-2.8,2.8c-0.4,0.4-1,0.5-1.5,0.1l-1-0.7c-0.3-0.2-0.5-0.5-0.5-0.9
	c0-0.4,0.1-0.7,0.3-0.9l2.8-2.8c0.4-0.4,1-0.5,1.5-0.1l1,0.7c0.3,0.2,0.5,0.5,0.5,0.9C37.9,57,37.7,57.4,37.5,57.6z M32.3,58.4
	C32.1,58.5,32,58.8,32,59c0,0.2,0.1,0.4,0.3,0.6l1,0.7c0.3,0.2,0.7,0.2,1-0.1l2.8-2.8c0.2-0.2,0.2-0.4,0.2-0.6
	c0-0.2-0.1-0.4-0.3-0.6l-1-0.7c-0.3-0.2-0.7-0.2-1,0.1L32.3,58.4z"/>
<path id="back_4_" class="st8" d="M109.8-2.6l-4.9,4.9c-0.3,0.3-0.7,0.3-1,0.1l-0.8-0.5c-0.4-0.3-0.5-0.9-0.1-1.3l5.1-5.1
	c0.4-0.4,1-0.3,1.3,0.1l0.5,0.8C110.1-3.4,110-2.9,109.8-2.6z"/>
<path id="front-bmp_1_" class="st7" d="M109.9-2.5L105,2.4c-0.3,0.3-0.9,0.4-1.3,0.1L103,2c-0.3-0.2-0.4-0.4-0.4-0.7
	c0-0.3,0.1-0.6,0.3-0.8l5.1-5.1c0.2-0.2,0.5-0.3,0.8-0.3c0.3,0,0.6,0.2,0.7,0.4l0.5,0.8C110.3-3.4,110.2-2.8,109.9-2.5z M103.1,0.7
	c-0.1,0.1-0.2,0.3-0.2,0.5c0,0.2,0.1,0.4,0.3,0.5l0.8,0.5c0.2,0.2,0.6,0.1,0.8-0.1l4.9-4.9c0.2-0.2,0.2-0.5,0.1-0.8l-0.5-0.8
	c-0.1-0.2-0.3-0.3-0.5-0.3c-0.2,0-0.4,0-0.5,0.2L103.1,0.7z"/>
<path id="back_3_" class="st8" d="M-0.3,102.3c-1.9,0-2.6,2.5-1.4,3.5c0.8,0.7,2.4,0.7,3.8-0.7l4.8-4.8c0.3-0.3,0-0.7-0.3-0.5
	C2.7,102.5,2,102.3-0.3,102.3z"/>
<path id="back_x5F_bmp_1_" class="st7" d="M7,100.4l-4.8,4.8c-1.5,1.5-3.1,1.5-4.1,0.7c-0.6-0.5-0.8-1.4-0.5-2.3
	c0.3-0.7,0.9-1.5,2-1.5l0,0c0.2,0,0.3,0,0.5,0c1.9,0,2.7,0,6.2-2.5c0.2-0.1,0.5-0.1,0.6,0.1C7.2,99.9,7.2,100.2,7,100.4z M-1.5,103
	c-0.2,0.2-0.4,0.5-0.5,0.8c-0.3,0.7-0.1,1.5,0.4,1.8c0.8,0.6,2.2,0.6,3.5-0.7l4.8-4.8c0.1-0.1,0.1-0.2,0-0.2c0,0,0,0-0.1,0
	c-3.6,2.5-4.4,2.5-6.4,2.6c-0.2,0-0.3,0-0.5,0C-0.8,102.5-1.2,102.7-1.5,103z"/>
<path id="window_x5F_back_1_" class="st7" d="M19,62.5L5.5,76.1c-0.4,0.4-1,0.4-1.4,0.1c-0.4-0.2-0.6-0.8-0.4-1.3
	c1.8-4.4,4.7-10.9,8.3-16.9l0,0c0.6-0.9,1.7-1.2,2.7-0.7l3.9,2.1c0.6,0.3,0.9,0.8,1,1.5C19.7,61.5,19.4,62.1,19,62.5z M12.3,58.1
	C8.7,64.1,5.8,70.6,4,75c-0.2,0.4,0,0.7,0.3,0.9c0.2,0.1,0.6,0.2,0.9-0.1l13.5-13.5c0.4-0.4,0.5-0.9,0.5-1.4
	c-0.1-0.5-0.4-0.9-0.8-1.2l-3.9-2.1C13.7,57.1,12.7,57.4,12.3,58.1L12.3,58.1z"/>
<g id="turbo_x5F_back">
	<path class="st1" d="M32.3,79.8l-3.6,3.6l-0.8,4.3l6.9,3.1c0.3,0.1,0.7,0,1-0.2l3.7-3.7c0.3-0.3,0.4-0.6,0.2-1L36.6,79L32.3,79.8z"
		/>
	<path class="st7" d="M39.6,87.1l-3.7,3.7c-0.3,0.3-0.8,0.4-1.2,0.3c0,0,0,0,0,0l-6.9-3.1c-0.1,0-0.1-0.1-0.1-0.2l0.8-4.3
		c0,0,0-0.1,0.1-0.1l3.6-3.6c0,0,0.1,0,0.1-0.1l4.3-0.8c0.1,0,0.2,0,0.2,0.1l3.1,6.9c0,0,0,0,0,0C40,86.3,39.9,86.7,39.6,87.1z
		 M34.9,90.7c0.3,0.1,0.6,0,0.8-0.2l3.7-3.7c0.2-0.2,0.3-0.5,0.2-0.8l-3.1-6.8L32.4,80l-3.5,3.5l-0.8,4.1L34.9,90.7z"/>
	<path class="st0" d="M30.4,76.5l-5.1,5.1C25.1,81.7,25,82,25,82.3l0,7.2c0,0.3,0.1,0.5,0.3,0.7l1.7,1.7c0.2,0.2,0.6,0.3,0.9,0.3
		l2.2-0.5c0.3-0.1,0.6-0.4,0.7-0.7l0.8-3c0-0.2,0.1-0.3,0.3-0.4l4.1-4.1c0.1-0.1,0.2-0.2,0.4-0.2l3.5-1.2c0.3-0.1,0.6-0.4,0.6-0.7
		l0.5-2.2c0.1-0.3,0-0.7-0.3-0.9l-1.7-1.7c-0.2-0.2-0.4-0.3-0.7-0.3l-7.2,0C30.9,76.2,30.6,76.3,30.4,76.5z"/>
	<path class="st7" d="M40.3,82.2l-9.3,9.3c-0.2,0.2-0.3,0.3-0.6,0.3L28,92.4c-0.4,0.1-0.8,0-1.1-0.3l-1.7-1.7
		c-0.2-0.2-0.3-0.5-0.3-0.8l0-7.2c0-0.3,0.1-0.6,0.3-0.8l5.1-5.1c0.2-0.2,0.5-0.3,0.8-0.3l7.2,0c0.3,0,0.6,0.1,0.8,0.3l1.7,1.7
		c0.3,0.3,0.4,0.7,0.3,1.1l-0.6,2.5C40.6,81.9,40.5,82.1,40.3,82.2z M25.5,81.7c-0.1,0.1-0.2,0.3-0.2,0.6l0,7.2
		c0,0.2,0.1,0.4,0.2,0.6l1.7,1.7c0.2,0.2,0.5,0.3,0.7,0.2l2.5-0.6c0,0,0,0,0,0c0.1,0,0.3-0.1,0.4-0.2l9.3-9.3
		c0.1-0.1,0.2-0.2,0.2-0.4l0.6-2.5c0.1-0.3,0-0.5-0.2-0.7l-1.7-1.7c-0.1-0.1-0.3-0.2-0.6-0.2l-7.2,0c-0.2,0-0.4,0.1-0.6,0.2
		L25.5,81.7z"/>
	<path class="st2" d="M31.6,78.5l-4.2,4.2c-0.2,0.2-0.3,0.4-0.3,0.7l0,6c0,0.3,0.1,0.5,0.3,0.7l1.9,1.9c0.4,0.4,1,0.4,1.4,0
		l10.2-10.2c0.4-0.4,0.4-1,0-1.4L39,78.5c-0.2-0.2-0.4-0.3-0.7-0.3l-6,0C32,78.2,31.8,78.3,31.6,78.5z"/>
	<path class="st7" d="M38.3,78l-6,0c-0.3,0-0.6,0.1-0.8,0.3l-4.2,4.2c-0.2,0.2-0.3,0.5-0.3,0.8l0,6c0,0.3,0.1,0.6,0.3,0.8l1.9,1.9
		c0.5,0.5,1.2,0.5,1.7,0L41,82c0.5-0.5,0.5-1.2,0-1.7l-1.9-1.9C38.9,78.2,38.6,78,38.3,78z M40.7,80.6c0.3,0.3,0.3,0.8,0,1.1
		L30.5,91.9c-0.3,0.3-0.8,0.3-1.1,0L27.5,90c-0.1-0.1-0.2-0.3-0.2-0.6l0-6c0-0.2,0.1-0.4,0.2-0.6l4.2-4.2c0.1-0.1,0.3-0.2,0.6-0.2h6
		c0.2,0,0.4,0.1,0.6,0.2L40.7,80.6z"/>
	<g id="power">
		<defs>
			<filter id="Adobe_OpacityMaskFilter" filterUnits="userSpaceOnUse" x="37" y="88.2" width="5.5" height="5.6">
				<feFlood  style="flood-color:white;flood-opacity:1" result="back"/>
				<feBlend  in="SourceGraphic" in2="back" mode="normal"/>
			</filter>
		</defs>
		<mask maskUnits="userSpaceOnUse" x="37" y="88.2" width="5.5" height="5.6" id="SVGID_1_">
			<g class="st9">
				<defs>
					<filter id="Adobe_OpacityMaskFilter_1_" filterUnits="userSpaceOnUse" x="37" y="88.2" width="5.5" height="5.6">
						<feFlood  style="flood-color:white;flood-opacity:1" result="back"/>
						<feBlend  in="SourceGraphic" in2="back" mode="normal"/>
					</filter>
				</defs>
				<mask maskUnits="userSpaceOnUse" x="37" y="88.2" width="5.5" height="5.6" id="SVGID_1_">
					<g class="st10">
					</g>
				</mask>
				
					<linearGradient id="SVGID_2_" gradientUnits="userSpaceOnUse" x1="0.1285" y1="83.76" x2="0.1285" y2="88.8834" gradientTransform="matrix(0.7071 -0.7071 0.7071 0.7071 -20.6871 30.602)">
					<stop  offset="0" style="stop-color:#FFFFFF"/>
					<stop  offset="2.230006e-02" style="stop-color:#F9F9F9"/>
					<stop  offset="0.2898" style="stop-color:#B3B3B3"/>
					<stop  offset="0.5307" style="stop-color:#7C7C7C"/>
					<stop  offset="0.7368" style="stop-color:#545454"/>
					<stop  offset="0.9" style="stop-color:#3C3C3C"/>
					<stop  offset="1" style="stop-color:#333333"/>
				</linearGradient>
				<path class="st11" d="M42.2,91.7l-0.4-0.2c-0.2-0.1-0.4,0.2-0.3,0.3l0.8,1.1c0.1,0.2-0.1,0.4-0.3,0.3l-0.2-0.1
					c-0.2-0.1-0.4,0.1-0.3,0.3l0,0c0.1,0.2-0.1,0.4-0.3,0.3l-4.2-2.2c-0.1-0.1-0.2-0.2-0.1-0.3l3-3c0.1-0.1,0.3-0.1,0.3,0l2,3.2
					C42.6,91.6,42.4,91.8,42.2,91.7z"/>
			</g>
		</mask>
		
			<linearGradient id="SVGID_3_" gradientUnits="userSpaceOnUse" x1="0.1285" y1="83.76" x2="0.1285" y2="88.8834" gradientTransform="matrix(0.7071 -0.7071 0.7071 0.7071 -20.6871 30.602)">
			<stop  offset="0" style="stop-color:#FFB600"/>
			<stop  offset="1" style="stop-color:#FFB600"/>
		</linearGradient>
		<path class="st12" d="M42.2,91.7l-0.4-0.2c-0.2-0.1-0.4,0.2-0.3,0.3l0.8,1.1c0.1,0.2-0.1,0.4-0.3,0.3l-0.2-0.1
			c-0.2-0.1-0.4,0.1-0.3,0.3l0,0c0.1,0.2-0.1,0.4-0.3,0.3l-4.2-2.2c-0.1-0.1-0.2-0.2-0.1-0.3l3-3c0.1-0.1,0.3-0.1,0.3,0l2,3.2
			C42.6,91.6,42.4,91.8,42.2,91.7z"/>
		<path class="st13" d="M40.3,88c-0.1,0-0.2,0-0.3,0.1l-3,3c-0.1,0.1-0.1,0.2-0.1,0.4c0,0.1,0.1,0.2,0.2,0.3l4.2,2.2
			c0.2,0.1,0.4,0.1,0.5-0.1c0,0,0,0,0,0c0.1-0.1,0.2-0.3,0.1-0.5c0,0,0,0,0,0c0,0,0,0,0,0l0.2,0.1c0.2,0.1,0.4,0.1,0.5-0.1
			c0,0,0,0,0,0c0.1-0.2,0.1-0.4,0-0.5l-0.8-1.1c0,0,0,0,0,0c0,0,0,0,0,0l0.4,0.2c0.2,0.1,0.4,0,0.5-0.1c0.1-0.1,0.1-0.3,0-0.5
			l-2-3.2C40.6,88,40.5,88,40.3,88z M42.3,91.5C42.3,91.5,42.3,91.5,42.3,91.5C42.3,91.6,42.3,91.5,42.3,91.5L42.3,91.5l-0.4-0.1
			c-0.2-0.1-0.4,0-0.5,0.1c-0.1,0.2-0.1,0.4,0,0.5l0.8,1.1c0,0,0,0,0,0c0,0,0,0,0,0L42,93c-0.2-0.1-0.4-0.1-0.5,0.1c0,0,0,0,0,0
			c-0.1,0.1-0.2,0.3-0.1,0.5c0,0,0,0,0,0l0,0c0,0,0,0,0,0l-4.2-2.2l0,0l0,0l3-3l0,0L42.3,91.5z"/>
	</g>
</g>
<g id="turbo_x5F_front">
	<path class="st1" d="M86.6,25.6l-3.6,3.6l-0.8,4.3l6.9,3.1c0.3,0.1,0.7,0,1-0.2l3.7-3.7c0.3-0.3,0.4-0.6,0.2-1l-3.1-6.9L86.6,25.6z
		"/>
	<path class="st7" d="M93.9,32.8l-3.7,3.7c-0.3,0.3-0.8,0.4-1.2,0.3c0,0,0,0,0,0l-6.9-3.1c-0.1,0-0.1-0.1-0.1-0.2l0.8-4.3
		c0,0,0-0.1,0.1-0.1l3.6-3.6c0,0,0.1,0,0.1-0.1l4.3-0.8c0.1,0,0.2,0,0.2,0.1l3.1,6.9c0,0,0,0,0,0C94.3,32,94.2,32.5,93.9,32.8z
		 M89.1,36.4c0.3,0.1,0.6,0,0.8-0.2l3.7-3.7c0.2-0.2,0.3-0.5,0.2-0.8L90.7,25l-4.1,0.8l-3.5,3.5l-0.8,4.1L89.1,36.4z"/>
	<path class="st0" d="M84.7,22.2l-5.1,5.1c-0.2,0.2-0.3,0.4-0.3,0.7l0,7.2c0,0.3,0.1,0.5,0.3,0.7l1.7,1.7c0.2,0.2,0.6,0.3,0.9,0.3
		l2.2-0.5c0.3-0.1,0.6-0.4,0.7-0.7l0.8-3c0-0.2,0.1-0.3,0.3-0.4l4.1-4.1c0.1-0.1,0.2-0.2,0.4-0.2l3.5-1.2c0.3-0.1,0.6-0.4,0.6-0.7
		l0.5-2.2c0.1-0.3,0-0.7-0.3-0.9l-1.7-1.7c-0.2-0.2-0.4-0.3-0.7-0.3l-7.2,0C85.1,21.9,84.9,22,84.7,22.2z"/>
	<path class="st7" d="M94.6,28l-9.3,9.3c-0.2,0.2-0.3,0.3-0.6,0.3l-2.5,0.6c-0.4,0.1-0.8,0-1.1-0.3l-1.7-1.7
		c-0.2-0.2-0.3-0.5-0.3-0.8V28c0-0.3,0.1-0.6,0.3-0.8l5.1-5.1c0.2-0.2,0.5-0.3,0.8-0.3h7.2c0.3,0,0.6,0.1,0.8,0.3l1.7,1.7
		c0.3,0.3,0.4,0.7,0.3,1.1l-0.6,2.5C94.9,27.6,94.8,27.8,94.6,28z M79.7,27.4c-0.1,0.1-0.2,0.3-0.2,0.6v7.2c0,0.2,0.1,0.4,0.2,0.6
		l1.7,1.7c0.2,0.2,0.5,0.3,0.7,0.2l2.5-0.6c0.1,0,0.3-0.1,0.4-0.2l9.3-9.3c0.1-0.1,0.2-0.2,0.2-0.4l0.6-2.5c0.1-0.3,0-0.5-0.2-0.7
		l-1.7-1.7c-0.1-0.1-0.3-0.2-0.6-0.2h-7.2c-0.2,0-0.4,0.1-0.6,0.2L79.7,27.4z"/>
	<path class="st2" d="M85.9,24.3l-4.2,4.2c-0.2,0.2-0.3,0.4-0.3,0.7v6c0,0.3,0.1,0.5,0.3,0.7l1.9,1.9c0.4,0.4,1,0.4,1.4,0l10.2-10.2
		c0.4-0.4,0.4-1,0-1.4l-1.9-1.9C93,24.1,92.8,24,92.5,24l-6,0C86.3,24,86,24.1,85.9,24.3z"/>
	<path class="st7" d="M95.3,27.7L85.1,37.9c-0.5,0.5-1.2,0.5-1.7,0L81.5,36c-0.2-0.2-0.3-0.5-0.3-0.8v-6c0-0.3,0.1-0.6,0.3-0.8
		l4.2-4.2c0.2-0.2,0.5-0.3,0.8-0.3h6c0.3,0,0.6,0.1,0.8,0.3l1.9,1.9C95.7,26.5,95.7,27.2,95.3,27.7z M81.8,28.6
		c-0.1,0.1-0.2,0.3-0.2,0.6v6c0,0.2,0.1,0.4,0.2,0.6l1.9,1.9c0.3,0.3,0.8,0.3,1.1,0L95,27.4c0.3-0.3,0.3-0.8,0-1.1l-1.9-1.9
		c-0.1-0.1-0.3-0.2-0.6-0.2h-6c-0.2,0-0.4,0.1-0.6,0.2L81.8,28.6z"/>
	<g id="power_1_">
		<defs>
			<filter id="Adobe_OpacityMaskFilter_2_" filterUnits="userSpaceOnUse" x="91.3" y="33.9" width="5.5" height="5.6">
				<feFlood  style="flood-color:white;flood-opacity:1" result="back"/>
				<feBlend  in="SourceGraphic" in2="back" mode="normal"/>
			</filter>
		</defs>
		<mask maskUnits="userSpaceOnUse" x="91.3" y="33.9" width="5.5" height="5.6" id="SVGID_4_">
			<g class="st14">
				<defs>
					<filter id="Adobe_OpacityMaskFilter_3_" filterUnits="userSpaceOnUse" x="91.3" y="33.9" width="5.5" height="5.6">
						<feFlood  style="flood-color:white;flood-opacity:1" result="back"/>
						<feBlend  in="SourceGraphic" in2="back" mode="normal"/>
					</filter>
				</defs>
				<mask maskUnits="userSpaceOnUse" x="91.3" y="33.9" width="5.5" height="5.6" id="SVGID_4_">
					<g class="st15">
					</g>
				</mask>
				
					<linearGradient id="SVGID_5_" gradientUnits="userSpaceOnUse" x1="76.8609" y1="83.76" x2="76.8609" y2="88.8834" gradientTransform="matrix(0.7071 -0.7071 0.7071 0.7071 -20.6871 30.602)">
					<stop  offset="0" style="stop-color:#FFFFFF"/>
					<stop  offset="2.230006e-02" style="stop-color:#F9F9F9"/>
					<stop  offset="0.2898" style="stop-color:#B3B3B3"/>
					<stop  offset="0.5307" style="stop-color:#7C7C7C"/>
					<stop  offset="0.7368" style="stop-color:#545454"/>
					<stop  offset="0.9" style="stop-color:#3C3C3C"/>
					<stop  offset="1" style="stop-color:#333333"/>
				</linearGradient>
				<path class="st16" d="M96.5,37.5l-0.4-0.2c-0.2-0.1-0.4,0.2-0.3,0.3l0.8,1.1c0.1,0.2-0.1,0.4-0.3,0.3l-0.2-0.1
					c-0.2-0.1-0.4,0.1-0.3,0.3l0,0c0.1,0.2-0.1,0.4-0.3,0.3l-4.2-2.2c-0.1-0.1-0.2-0.2-0.1-0.3l3-3c0.1-0.1,0.3-0.1,0.3,0l2,3.2
					C96.9,37.3,96.7,37.5,96.5,37.5z"/>
			</g>
		</mask>
		
			<linearGradient id="SVGID_6_" gradientUnits="userSpaceOnUse" x1="76.8609" y1="83.76" x2="76.8609" y2="88.8834" gradientTransform="matrix(0.7071 -0.7071 0.7071 0.7071 -20.6871 30.602)">
			<stop  offset="0" style="stop-color:#FFB600"/>
			<stop  offset="1" style="stop-color:#FFB600"/>
		</linearGradient>
		<path class="st17" d="M96.5,37.5l-0.4-0.2c-0.2-0.1-0.4,0.2-0.3,0.3l0.8,1.1c0.1,0.2-0.1,0.4-0.3,0.3l-0.2-0.1
			c-0.2-0.1-0.4,0.1-0.3,0.3l0,0c0.1,0.2-0.1,0.4-0.3,0.3l-4.2-2.2c-0.1-0.1-0.2-0.2-0.1-0.3l3-3c0.1-0.1,0.3-0.1,0.3,0l2,3.2
			C96.9,37.3,96.7,37.5,96.5,37.5z"/>
		<path class="st13" d="M94.6,33.7c-0.1,0-0.2,0-0.3,0.1l-3,3c-0.1,0.1-0.1,0.2-0.1,0.4c0,0.1,0.1,0.2,0.2,0.3l4.2,2.2
			c0.2,0.1,0.4,0.1,0.5-0.1c0,0,0,0,0,0c0.1-0.1,0.2-0.3,0.1-0.5c0,0,0,0,0,0c0,0,0,0,0,0l0.2,0.1c0.2,0.1,0.4,0.1,0.5-0.1
			c0,0,0,0,0,0c0.1-0.2,0.1-0.4,0-0.5L96,37.5c0,0,0,0,0,0c0,0,0,0,0,0l0.4,0.2c0.2,0.1,0.4,0,0.5-0.1c0.1-0.1,0.1-0.3,0-0.5l-2-3.2
			C94.8,33.8,94.7,33.7,94.6,33.7z M96.6,37.3C96.6,37.3,96.6,37.3,96.6,37.3C96.6,37.3,96.6,37.3,96.6,37.3L96.6,37.3l-0.4-0.1
			c-0.2-0.1-0.4,0-0.5,0.1c-0.1,0.2-0.1,0.4,0,0.5l0.8,1.1c0,0,0,0,0,0c0,0,0,0,0,0l-0.2-0.1c-0.2-0.1-0.4-0.1-0.5,0.1c0,0,0,0,0,0
			c-0.1,0.1-0.2,0.3-0.1,0.5c0,0,0,0,0,0c0,0,0,0,0,0c0,0,0,0,0,0l-4.2-2.2l0,0l3-3l0,0L96.6,37.3z"/>
	</g>
</g>
</svg>
