<?xml version="1.0" encoding="utf-8"?>
<!-- Generator: Adobe Illustrator 22.0.1, SVG Export Plug-In . SVG Version: 6.00 Build 0)  -->
<svg version="1.1" id="welcome" xmlns="http://www.w3.org/2000/svg" xmlns:xlink="http://www.w3.org/1999/xlink" x="0px" y="0px"
	 viewBox="0 0 130 60" style="enable-background:new 0 0 130 60;" xml:space="preserve">
<style type="text/css">
	.st0{opacity:0.5;}
	.st1{fill:#FFFFFF;}
</style>
<path id="bg" class="st0" d="M21,6.5v36c0,3.2-2.9,5.1-6.1,4.9c-7.1-0.6-12.3-4.8-12.3-4.8s4.2,15.9,28.5,15.9h92.4c2.7,0,5-2.2,5-5
	v-47c0-2.8-2.2-5-5-5H26C23.2,1.5,21,3.7,21,6.5z"/>
<path id="border" class="st1" d="M123.5,0H26c-3.6,0-6.5,2.9-6.5,6.5v36c0,0.9-0.3,1.7-1,2.3c-0.8,0.8-2.1,1.2-3.5,1.1
	c-6.5-0.5-11.4-4.4-11.5-4.5L0,38.5L1.2,43c0.2,0.7,4.8,17,30,17h92.4c3.6,0,6.5-2.9,6.5-6.5v-47C130,2.9,127.1,0,123.5,0z
	 M127,53.5c0,1.9-1.6,3.5-3.5,3.5H31.1c-15,0-21.9-6.1-24.9-10.5c2.3,1.1,5.2,2.1,8.6,2.4c2.2,0.2,4.3-0.5,5.8-1.9
	c1.3-1.2,1.9-2.8,1.9-4.5v-36C22.5,4.6,24.1,3,26,3h97.5c1.9,0,3.5,1.6,3.5,3.5V53.5z"/>
<g id="text">
	<path class="st0" d="M45.1,15.8c0,0.3,0,0.5-0.1,0.7c0.1,0.2,0.1,0.4,0.1,0.7c0,0.3,0,0.5-0.1,0.7c0.1,0.2,0.1,0.4,0.1,0.7
		c0,0.3,0,0.5-0.1,0.7l-0.6,0c0.1,0.2,0.1,0.4,0.1,0.7c0,0.3,0,0.5-0.1,0.7c0.1,0.2,0.1,0.4,0.1,0.7c0,0.3,0,0.5-0.1,0.7l-0.4,0
		c0.1,0.2,0.1,0.4,0.1,0.7c0,0.3,0,0.5-0.1,0.7l-1.2,0c-0.1-0.2-0.1-0.5-0.1-0.7c0-0.3,0-0.5,0.1-0.7l-0.4,0
		c-0.1-0.2-0.1-0.5-0.1-0.7c0-0.3,0-0.5,0.1-0.7l-1.2,0c0.1,0.2,0.1,0.4,0.1,0.7c0,0.3,0,0.5-0.1,0.7l-0.4,0
		c0.1,0.2,0.1,0.4,0.1,0.7c0,0.3,0,0.5-0.1,0.7l-1.2,0c-0.1-0.2-0.1-0.5-0.1-0.7c0-0.3,0-0.5,0.1-0.7l-0.4,0
		c-0.1-0.2-0.1-0.5-0.1-0.7c0-0.3,0-0.5,0.1-0.7c-0.1-0.2-0.1-0.5-0.1-0.7c0-0.3,0-0.5,0.1-0.7l-0.6,0c-0.1-0.2-0.1-0.5-0.1-0.7
		c0-0.3,0-0.5,0.1-0.7c-0.1-0.2-0.1-0.5-0.1-0.7c0-0.3,0-0.5,0.1-0.7c-0.1-0.2-0.1-0.5-0.1-0.7c0-0.3,0-0.5,0.1-0.7
		c-0.1-0.2-0.1-0.5-0.1-0.7c0-0.3,0-0.5,0.1-0.7l1.6,0c0.1,0.2,0.1,0.4,0.1,0.7c0,0.3,0,0.5-0.1,0.7c0.1,0.2,0.1,0.4,0.1,0.7
		c0,0.3,0,0.5-0.1,0.7c0.1,0.2,0.1,0.4,0.1,0.7c0,0.3,0,0.5-0.1,0.7c0.1,0.2,0.1,0.4,0.1,0.7c0,0.3,0,0.5-0.1,0.7
		c0.1,0.2,0.1,0.4,0.1,0.7c0,0.3,0,0.5-0.1,0.7l0.6,0c-0.1-0.2-0.1-0.5-0.1-0.7c0-0.3,0-0.5,0.1-0.7l0.4,0c-0.1-0.2-0.1-0.5-0.1-0.7
		c0-0.3,0-0.5,0.1-0.7c-0.1-0.2-0.1-0.5-0.1-0.7c0-0.3,0-0.5,0.1-0.7c-0.1-0.2-0.1-0.5-0.1-0.7c0-0.3,0-0.5,0.1-0.7
		c-0.1-0.2-0.1-0.5-0.1-0.7c0-0.3,0-0.5,0.1-0.7l1.2,0c0.1,0.2,0.1,0.4,0.1,0.7c0,0.3,0,0.5-0.1,0.7c0.1,0.2,0.1,0.4,0.1,0.7
		c0,0.3,0,0.5-0.1,0.7c0.1,0.2,0.1,0.4,0.1,0.7c0,0.3,0,0.5-0.1,0.7c0.1,0.2,0.1,0.4,0.1,0.7c0,0.3,0,0.5-0.1,0.7l0.4,0
		c0.1,0.2,0.1,0.4,0.1,0.7c0,0.3,0,0.5-0.1,0.7l0.6,0c-0.1-0.2-0.1-0.5-0.1-0.7c0-0.3,0-0.5,0.1-0.7c-0.1-0.2-0.1-0.5-0.1-0.7
		c0-0.3,0-0.5,0.1-0.7c-0.1-0.2-0.1-0.5-0.1-0.7c0-0.3,0-0.5,0.1-0.7c-0.1-0.2-0.1-0.5-0.1-0.7c0-0.3,0-0.5,0.1-0.7
		c-0.1-0.2-0.1-0.5-0.1-0.7c0-0.3,0-0.5,0.1-0.7l1.6,0c0.1,0.2,0.1,0.4,0.1,0.7c0,0.3,0,0.5-0.1,0.7C45.1,15.3,45.1,15.5,45.1,15.8z
		 M53,19.5c0.1,0.2,0.1,0.4,0.1,0.7c0,0.3,0,0.5-0.1,0.7l-4.2,0c0.1,0.2,0.1,0.4,0.1,0.7c0,0.3,0,0.5-0.1,0.7l3.4,0
		c0.1,0.2,0.1,0.4,0.1,0.7c0,0.3,0,0.5-0.1,0.7l-4,0c-0.1-0.2-0.1-0.5-0.1-0.7c0-0.3,0-0.5,0.1-0.7l-1,0c-0.1-0.2-0.1-0.5-0.1-0.7
		c0-0.3,0-0.5,0.1-0.7l-0.6,0c-0.1-0.2-0.1-0.5-0.1-0.7c0-0.3,0-0.5,0.1-0.7l0.6,0c-0.1-0.2-0.1-0.5-0.1-0.7c0-0.3,0-0.5,0.1-0.7
		l1,0c-0.1-0.2-0.1-0.5-0.1-0.7c0-0.3,0-0.5,0.1-0.7l4,0c0.1,0.2,0.1,0.4,0.1,0.7c0,0.3,0,0.5-0.1,0.7l0.8,0
		c0.1,0.2,0.1,0.4,0.1,0.7C53.1,19,53.1,19.3,53,19.5z M51.3,18.8c0-0.3,0-0.5,0.1-0.7l-2.6,0c0.1,0.2,0.1,0.4,0.1,0.7
		c0,0.3,0,0.5-0.1,0.7l2.6,0C51.4,19.3,51.3,19,51.3,18.8z M60.3,23.2c0,0.3,0,0.5-0.1,0.7l-4.8,0c-0.1-0.2-0.1-0.5-0.1-0.7
		c0-0.3,0-0.5,0.1-0.7l1.6,0c-0.1-0.2-0.1-0.5-0.1-0.7c0-0.3,0-0.5,0.1-0.7c-0.1-0.2-0.1-0.5-0.1-0.7c0-0.3,0-0.5,0.1-0.7
		c-0.1-0.2-0.1-0.5-0.1-0.7c0-0.3,0-0.5,0.1-0.7c-0.1-0.2-0.1-0.5-0.1-0.7c0-0.3,0-0.5,0.1-0.7c-0.1-0.2-0.1-0.5-0.1-0.7
		c0-0.3,0-0.5,0.1-0.7l-1.2,0c-0.1-0.2-0.1-0.5-0.1-0.7c0-0.3,0-0.5,0.1-0.7l2.8,0c0.1,0.2,0.1,0.4,0.1,0.7c0,0.3,0,0.5-0.1,0.7
		c0.1,0.2,0.1,0.4,0.1,0.7c0,0.3,0,0.5-0.1,0.7c0.1,0.2,0.1,0.4,0.1,0.7c0,0.3,0,0.5-0.1,0.7c0.1,0.2,0.1,0.4,0.1,0.7
		c0,0.3,0,0.5-0.1,0.7c0.1,0.2,0.1,0.4,0.1,0.7c0,0.3,0,0.5-0.1,0.7c0.1,0.2,0.1,0.4,0.1,0.7c0,0.3,0,0.5-0.1,0.7l1.6,0
		C60.2,22.6,60.3,22.9,60.3,23.2z M68.9,21c0.1,0.2,0.1,0.4,0.1,0.7c0,0.3,0,0.5-0.1,0.7l-0.8,0c0.1,0.2,0.1,0.4,0.1,0.7
		c0,0.3,0,0.5-0.1,0.7l-4,0c-0.1-0.2-0.1-0.5-0.1-0.7c0-0.3,0-0.5,0.1-0.7l-0.8,0c-0.1-0.2-0.1-0.5-0.1-0.7c0-0.3,0-0.5,0.1-0.7
		l-0.8,0c-0.1-0.2-0.1-0.5-0.1-0.7c0-0.3,0-0.5,0.1-0.7l0.8,0c-0.1-0.2-0.1-0.5-0.1-0.7c0-0.3,0-0.5,0.1-0.7l0.8,0
		c-0.1-0.2-0.1-0.5-0.1-0.7c0-0.3,0-0.5,0.1-0.7l4,0c0.1,0.2,0.1,0.4,0.1,0.7c0,0.3,0,0.5-0.1,0.7l0.8,0c0.1,0.2,0.1,0.4,0.1,0.7
		c0,0.3,0,0.5-0.1,0.7l-1.6,0c-0.1-0.2-0.1-0.5-0.1-0.7c0-0.3,0-0.5,0.1-0.7l-2.4,0c0.1,0.2,0.1,0.4,0.1,0.7c0,0.3,0,0.5-0.1,0.7
		l-0.8,0c0.1,0.2,0.1,0.4,0.1,0.7c0,0.3,0,0.5-0.1,0.7l0.8,0c0.1,0.2,0.1,0.4,0.1,0.7c0,0.3,0,0.5-0.1,0.7l2.4,0
		c-0.1-0.2-0.1-0.5-0.1-0.7c0-0.3,0-0.5,0.1-0.7L68.9,21z M76.9,21l-0.6,0c0.1,0.2,0.1,0.4,0.1,0.7c0,0.3,0,0.5-0.1,0.7l-1,0
		c0.1,0.2,0.1,0.4,0.1,0.7c0,0.3,0,0.5-0.1,0.7l-3.2,0c-0.1-0.2-0.1-0.5-0.1-0.7c0-0.3,0-0.5,0.1-0.7l-1,0c-0.1-0.2-0.1-0.5-0.1-0.7
		c0-0.3,0-0.5,0.1-0.7l-0.6,0c-0.1-0.2-0.1-0.5-0.1-0.7c0-0.3,0-0.5,0.1-0.7l0.6,0c-0.1-0.2-0.1-0.5-0.1-0.7c0-0.3,0-0.5,0.1-0.7
		l1,0c-0.1-0.2-0.1-0.5-0.1-0.7c0-0.3,0-0.5,0.1-0.7l3.2,0c0.1,0.2,0.1,0.4,0.1,0.7c0,0.3,0,0.5-0.1,0.7l1,0
		c0.1,0.2,0.1,0.4,0.1,0.7c0,0.3,0,0.5-0.1,0.7l0.6,0C77,19.8,77,20,77,20.3C77,20.6,77,20.8,76.9,21z M75.3,21
		c-0.1-0.2-0.1-0.5-0.1-0.7c0-0.3,0-0.5,0.1-0.7l-0.6,0c-0.1-0.2-0.1-0.5-0.1-0.7c0-0.3,0-0.5,0.1-0.7l-2,0c0.1,0.2,0.1,0.4,0.1,0.7
		c0,0.3,0,0.5-0.1,0.7l-0.6,0c0.1,0.2,0.1,0.4,0.1,0.7c0,0.3,0,0.5-0.1,0.7l0.6,0c0.1,0.2,0.1,0.4,0.1,0.7c0,0.3,0,0.5-0.1,0.7l2,0
		c-0.1-0.2-0.1-0.5-0.1-0.7c0-0.3,0-0.5,0.1-0.7L75.3,21z M79.5,18.1l0.6,0c0.1,0.2,0.1,0.4,0.1,0.7c0,0.3,0,0.5-0.1,0.7
		c0.1,0.2,0.1,0.4,0.1,0.7c0,0.3,0,0.5-0.1,0.7c0.1,0.2,0.1,0.4,0.1,0.7c0,0.3,0,0.5-0.1,0.7c0.1,0.2,0.1,0.4,0.1,0.7
		c0,0.3,0,0.5-0.1,0.7l-1.6,0c-0.1-0.2-0.1-0.5-0.1-0.7c0-0.3,0-0.5,0.1-0.7c-0.1-0.2-0.1-0.5-0.1-0.7c0-0.3,0-0.5,0.1-0.7
		c-0.1-0.2-0.1-0.5-0.1-0.7c0-0.3,0-0.5,0.1-0.7c-0.1-0.2-0.1-0.5-0.1-0.7c0-0.3,0-0.5,0.1-0.7c-0.1-0.2-0.1-0.5-0.1-0.7
		c0-0.3,0-0.5,0.1-0.7l1,0c0.1,0.2,0.1,0.4,0.1,0.7C79.6,17.7,79.6,17.9,79.5,18.1z M81.7,18.1l0.6,0c0.1,0.2,0.1,0.4,0.1,0.7
		c0,0.3,0,0.5-0.1,0.7c0.1,0.2,0.1,0.4,0.1,0.7c0,0.3,0,0.5-0.1,0.7c0.1,0.2,0.1,0.4,0.1,0.7c0,0.3,0,0.5-0.1,0.7
		c0.1,0.2,0.1,0.4,0.1,0.7c0,0.3,0,0.5-0.1,0.7l-1.2,0C81,23.8,81,23.5,81,23.2c0-0.3,0-0.5,0.1-0.7C81,22.3,81,22.1,81,21.8
		c0-0.3,0-0.5,0.1-0.7C81,20.8,81,20.6,81,20.3c0-0.3,0-0.5,0.1-0.7C81,19.4,81,19.1,81,18.8c0-0.3,0-0.5,0.1-0.7l-1,0
		C80,17.9,80,17.7,80,17.4c0-0.3,0-0.5,0.1-0.7l1.6,0c0.1,0.2,0.1,0.4,0.1,0.7C81.8,17.7,81.7,17.9,81.7,18.1z M85,20.3
		c0,0.3,0,0.5-0.1,0.7c0.1,0.2,0.1,0.4,0.1,0.7c0,0.3,0,0.5-0.1,0.7c0.1,0.2,0.1,0.4,0.1,0.7c0,0.3,0,0.5-0.1,0.7l-1.6,0
		c-0.1-0.2-0.1-0.5-0.1-0.7c0-0.3,0-0.5,0.1-0.7c-0.1-0.2-0.1-0.5-0.1-0.7c0-0.3,0-0.5,0.1-0.7c-0.1-0.2-0.1-0.5-0.1-0.7
		c0-0.3,0-0.5,0.1-0.7c-0.1-0.2-0.1-0.5-0.1-0.7c0-0.3,0-0.5,0.1-0.7l-1,0c-0.1-0.2-0.1-0.5-0.1-0.7c0-0.3,0-0.5,0.1-0.7l1.8,0
		c0.1,0.2,0.1,0.4,0.1,0.7c0,0.3,0,0.5-0.1,0.7l0.8,0c0.1,0.2,0.1,0.4,0.1,0.7c0,0.3,0,0.5-0.1,0.7C84.9,19.8,85,20,85,20.3z
		 M92.8,19.6c0.1,0.2,0.1,0.4,0.1,0.7c0,0.3,0,0.5-0.1,0.7l-4.2,0c0.1,0.2,0.1,0.4,0.1,0.7c0,0.3,0,0.5-0.1,0.7l3.4,0
		c0.1,0.2,0.1,0.4,0.1,0.7c0,0.3,0,0.5-0.1,0.7l-4,0C88,23.8,88,23.5,88,23.3c0-0.3,0-0.5,0.1-0.7l-1,0C87,22.3,87,22.1,87,21.8
		c0-0.3,0-0.5,0.1-0.7l-0.6,0c-0.1-0.2-0.1-0.5-0.1-0.7c0-0.3,0-0.5,0.1-0.7l0.6,0C87,19.4,87,19.1,87,18.9c0-0.3,0-0.5,0.1-0.7l1,0
		C88,17.9,88,17.7,88,17.4c0-0.3,0-0.5,0.1-0.7l4,0c0.1,0.2,0.1,0.4,0.1,0.7c0,0.3,0,0.5-0.1,0.7l0.8,0c0.1,0.2,0.1,0.4,0.1,0.7
		C92.9,19.2,92.9,19.4,92.8,19.6z M91.2,18.9c0-0.3,0-0.5,0.1-0.7l-2.6,0c0.1,0.2,0.1,0.4,0.1,0.7c0,0.3,0,0.5-0.1,0.7l2.6,0
		C91.2,19.4,91.2,19.2,91.2,18.9z M98.7,23.3c0,0.3,0,0.5-0.1,0.7c0.1,0.2,0.1,0.4,0.1,0.7c0,0.3,0,0.5-0.1,0.7l-0.8,0
		c0.1,0.2,0.1,0.4,0.1,0.7c0,0.3,0,0.5-0.1,0.7l-1.2,0c-0.1-0.2-0.1-0.5-0.1-0.7c0-0.3,0-0.5,0.1-0.7l0.8,0
		c-0.1-0.2-0.1-0.5-0.1-0.7c0-0.3,0-0.5,0.1-0.7l-0.8,0c-0.1-0.2-0.1-0.5-0.1-0.7c0-0.3,0-0.5,0.1-0.7c-0.1-0.2-0.1-0.5-0.1-0.7
		c0-0.3,0-0.5,0.1-0.7l2,0c0.1,0.2,0.1,0.4,0.1,0.7c0,0.3,0,0.5-0.1,0.7C98.7,22.8,98.7,23,98.7,23.3z M39.6,40l0.6,0
		c0.1,0.2,0.1,0.4,0.1,0.7c0,0.3,0,0.5-0.1,0.7c0.1,0.2,0.1,0.4,0.1,0.7c0,0.3,0,0.5-0.1,0.7c0.1,0.2,0.1,0.4,0.1,0.7
		c0,0.3,0,0.5-0.1,0.7c0.1,0.2,0.1,0.4,0.1,0.7c0,0.3,0,0.5-0.1,0.7l-1.6,0c-0.1-0.2-0.1-0.5-0.1-0.7c0-0.3,0-0.5,0.1-0.7
		c-0.1-0.2-0.1-0.5-0.1-0.7c0-0.3,0-0.5,0.1-0.7c-0.1-0.2-0.1-0.5-0.1-0.7c0-0.3,0-0.5,0.1-0.7c-0.1-0.2-0.1-0.5-0.1-0.7
		c0-0.3,0-0.5,0.1-0.7c-0.1-0.2-0.1-0.5-0.1-0.7c0-0.3,0-0.5,0.1-0.7l1,0c0.1,0.2,0.1,0.4,0.1,0.7C39.7,39.5,39.7,39.8,39.6,40z
		 M41.8,40l0.6,0c0.1,0.2,0.1,0.4,0.1,0.7c0,0.3,0,0.5-0.1,0.7c0.1,0.2,0.1,0.4,0.1,0.7c0,0.3,0,0.5-0.1,0.7
		c0.1,0.2,0.1,0.4,0.1,0.7c0,0.3,0,0.5-0.1,0.7c0.1,0.2,0.1,0.4,0.1,0.7c0,0.3,0,0.5-0.1,0.7l-1.2,0c-0.1-0.2-0.1-0.5-0.1-0.7
		c0-0.3,0-0.5,0.1-0.7c-0.1-0.2-0.1-0.5-0.1-0.7c0-0.3,0-0.5,0.1-0.7c-0.1-0.2-0.1-0.5-0.1-0.7c0-0.3,0-0.5,0.1-0.7
		c-0.1-0.2-0.1-0.5-0.1-0.7c0-0.3,0-0.5,0.1-0.7l-1,0c-0.1-0.2-0.1-0.5-0.1-0.7c0-0.3,0-0.5,0.1-0.7l1.6,0c0.1,0.2,0.1,0.4,0.1,0.7
		C41.9,39.6,41.9,39.8,41.8,40z M45.1,42.2c0,0.3,0,0.5-0.1,0.7c0.1,0.2,0.1,0.4,0.1,0.7c0,0.3,0,0.5-0.1,0.7
		c0.1,0.2,0.1,0.4,0.1,0.7c0,0.3,0,0.5-0.1,0.7l-1.6,0c-0.1-0.2-0.1-0.5-0.1-0.7c0-0.3,0-0.5,0.1-0.7c-0.1-0.2-0.1-0.5-0.1-0.7
		c0-0.3,0-0.5,0.1-0.7c-0.1-0.2-0.1-0.5-0.1-0.7c0-0.3,0-0.5,0.1-0.7c-0.1-0.2-0.1-0.5-0.1-0.7c0-0.3,0-0.5,0.1-0.7l-1,0
		c-0.1-0.2-0.1-0.5-0.1-0.7c0-0.3,0-0.5,0.1-0.7l1.8,0c0.1,0.2,0.1,0.4,0.1,0.7c0,0.3,0,0.5-0.1,0.7l0.8,0c0.1,0.2,0.1,0.4,0.1,0.7
		c0,0.3,0,0.5-0.1,0.7C45,41.7,45.1,41.9,45.1,42.2z M53,40l-0.6,0c0.1,0.2,0.1,0.4,0.1,0.7c0,0.3,0,0.5-0.1,0.7l-0.6,0
		c0.1,0.2,0.1,0.4,0.1,0.7c0,0.3,0,0.5-0.1,0.7l-0.4,0c0.1,0.2,0.1,0.4,0.1,0.7c0,0.3,0,0.5-0.1,0.7l-0.6,0c0.1,0.2,0.1,0.4,0.1,0.7
		c0,0.3,0,0.5-0.1,0.7l-0.4,0c0.1,0.2,0.1,0.4,0.1,0.7c0,0.3,0,0.5-0.1,0.7l-0.8,0c0.1,0.2,0.1,0.4,0.1,0.7c0,0.3,0,0.5-0.1,0.7
		l-2.4,0c-0.1-0.2-0.1-0.5-0.1-0.7c0-0.3,0-0.5,0.1-0.7l1.6,0c-0.1-0.2-0.1-0.5-0.1-0.7c0-0.3,0-0.5,0.1-0.7
		c-0.1-0.2-0.1-0.5-0.1-0.7c0-0.3,0-0.5,0.1-0.7l-0.8,0c-0.1-0.2-0.1-0.5-0.1-0.7c0-0.3,0-0.5,0.1-0.7l-0.4,0
		c-0.1-0.2-0.1-0.5-0.1-0.7c0-0.3,0-0.5,0.1-0.7l-0.6,0c-0.1-0.2-0.1-0.5-0.1-0.7c0-0.3,0-0.5,0.1-0.7l-0.6,0
		c-0.1-0.2-0.1-0.5-0.1-0.7c0-0.3,0-0.5,0.1-0.7l1.6,0c0.1,0.2,0.1,0.4,0.1,0.7c0,0.3,0,0.5-0.1,0.7l0.6,0c0.1,0.2,0.1,0.4,0.1,0.7
		c0,0.3,0,0.5-0.1,0.7l0.6,0c0.1,0.2,0.1,0.4,0.1,0.7c0,0.3,0,0.5-0.1,0.7c0.1,0.2,0.1,0.4,0.1,0.7c0,0.3,0,0.5-0.1,0.7l0.6,0
		c-0.1-0.2-0.1-0.5-0.1-0.7c0-0.3,0-0.5,0.1-0.7l0.4,0c-0.1-0.2-0.1-0.5-0.1-0.7c0-0.3,0-0.5,0.1-0.7l0.6,0
		c-0.1-0.2-0.1-0.5-0.1-0.7c0-0.3,0-0.5,0.1-0.7l0.6,0c-0.1-0.2-0.1-0.5-0.1-0.7c0-0.3,0-0.5,0.1-0.7l1.6,0C53,38.8,53,39,53,39.3
		C53,39.6,53,39.8,53,40z M68.1,38.6c0.1,0.2,0.1,0.4,0.1,0.7c0,0.3,0,0.5-0.1,0.7l-2.4,0c0.1,0.2,0.1,0.4,0.1,0.7
		c0,0.3,0,0.5-0.1,0.7c0.1,0.2,0.1,0.4,0.1,0.7c0,0.3,0,0.5-0.1,0.7c0.1,0.2,0.1,0.4,0.1,0.7c0,0.3,0,0.5-0.1,0.7l1.6,0
		c0.1,0.2,0.1,0.4,0.1,0.7c0,0.3,0,0.5-0.1,0.7l-4,0c-0.1-0.2-0.1-0.5-0.1-0.7c0-0.3,0-0.5,0.1-0.7l0.8,0C64,44.3,64,44,64,43.7
		c0-0.3,0-0.5,0.1-0.7C64,42.8,64,42.6,64,42.3c0-0.3,0-0.5,0.1-0.7C64,41.3,64,41.1,64,40.8c0-0.3,0-0.5,0.1-0.7l-0.8,0
		c-0.1-0.2-0.1-0.5-0.1-0.7c0-0.3,0-0.5,0.1-0.7l0.8,0c-0.1-0.2-0.1-0.5-0.1-0.7c0-0.3,0-0.5,0.1-0.7l0.8,0
		c-0.1-0.2-0.1-0.5-0.1-0.7c0-0.3,0-0.5,0.1-0.7l3.2,0c0.1,0.2,0.1,0.4,0.1,0.7c0,0.3,0,0.5-0.1,0.7l-2.4,0c0.1,0.2,0.1,0.4,0.1,0.7
		c0,0.3,0,0.5-0.1,0.7L68.1,38.6z M76.9,40.8c0,0.3,0,0.5-0.1,0.7l-1.6,0c-0.1-0.2-0.1-0.5-0.1-0.7c0-0.3,0-0.5,0.1-0.7l-1.4,0
		c0.1,0.2,0.1,0.4,0.1,0.7c0,0.3,0,0.5-0.1,0.7l-0.6,0c0.1,0.2,0.1,0.4,0.1,0.7c0,0.3,0,0.5-0.1,0.7c0.1,0.2,0.1,0.4,0.1,0.7
		c0,0.3,0,0.5-0.1,0.7l1.2,0c0.1,0.2,0.1,0.4,0.1,0.7c0,0.3,0,0.5-0.1,0.7l-4,0c-0.1-0.2-0.1-0.5-0.1-0.7c0-0.3,0-0.5,0.1-0.7l1.2,0
		c-0.1-0.2-0.1-0.5-0.1-0.7c0-0.3,0-0.5,0.1-0.7c-0.1-0.2-0.1-0.5-0.1-0.7c0-0.3,0-0.5,0.1-0.7c-0.1-0.2-0.1-0.5-0.1-0.7
		c0-0.3,0-0.5,0.1-0.7l-1.2,0c-0.1-0.2-0.1-0.5-0.1-0.7c0-0.3,0-0.5,0.1-0.7l2,0c0.1,0.2,0.1,0.4,0.1,0.7c0,0.3,0,0.5-0.1,0.7l0.8,0
		c-0.1-0.2-0.1-0.5-0.1-0.7c0-0.3,0-0.5,0.1-0.7l3,0c0.1,0.2,0.1,0.4,0.1,0.7c0,0.3,0,0.5-0.1,0.7l0.6,0
		C76.9,40.3,76.9,40.6,76.9,40.8z M84.1,45.3c0,0.3,0,0.5-0.1,0.7l-4.8,0c-0.1-0.2-0.1-0.5-0.1-0.7c0-0.3,0-0.5,0.1-0.7l1.6,0
		c-0.1-0.2-0.1-0.5-0.1-0.7c0-0.3,0-0.5,0.1-0.7c-0.1-0.2-0.1-0.5-0.1-0.7c0-0.3,0-0.5,0.1-0.7c-0.1-0.2-0.1-0.5-0.1-0.7
		c0-0.3,0-0.5,0.1-0.7l-1.2,0c-0.1-0.2-0.1-0.5-0.1-0.7c0-0.3,0-0.5,0.1-0.7l2.8,0c0.1,0.2,0.1,0.4,0.1,0.7c0,0.3,0,0.5-0.1,0.7
		c0.1,0.2,0.1,0.4,0.1,0.7c0,0.3,0,0.5-0.1,0.7c0.1,0.2,0.1,0.4,0.1,0.7c0,0.3,0,0.5-0.1,0.7c0.1,0.2,0.1,0.4,0.1,0.7
		c0,0.3,0,0.5-0.1,0.7l1.6,0C84.1,44.7,84.1,45,84.1,45.3z M80.8,37.2c-0.1-0.2-0.1-0.5-0.1-0.7c0-0.3,0-0.5,0.1-0.7l1.6,0
		c0.1,0.2,0.1,0.4,0.1,0.7c0,0.3,0,0.5-0.1,0.7L80.8,37.2z M92.8,41.6c0.1,0.2,0.1,0.4,0.1,0.7c0,0.3,0,0.5-0.1,0.7l-4.2,0
		c0.1,0.2,0.1,0.4,0.1,0.7c0,0.3,0,0.5-0.1,0.7l3.4,0c0.1,0.2,0.1,0.4,0.1,0.7c0,0.3,0,0.5-0.1,0.7l-4,0c-0.1-0.2-0.1-0.5-0.1-0.7
		c0-0.3,0-0.5,0.1-0.7l-1,0c-0.1-0.2-0.1-0.5-0.1-0.7c0-0.3,0-0.5,0.1-0.7l-0.6,0c-0.1-0.2-0.1-0.5-0.1-0.7c0-0.3,0-0.5,0.1-0.7
		l0.6,0c-0.1-0.2-0.1-0.5-0.1-0.7c0-0.3,0-0.5,0.1-0.7l1,0c-0.1-0.2-0.1-0.5-0.1-0.7c0-0.3,0-0.5,0.1-0.7l4,0
		c0.1,0.2,0.1,0.4,0.1,0.7c0,0.3,0,0.5-0.1,0.7l0.8,0c0.1,0.2,0.1,0.4,0.1,0.7C92.9,41.2,92.8,41.4,92.8,41.6z M91.1,40.9
		c0-0.3,0-0.5,0.1-0.7l-2.6,0c0.1,0.2,0.1,0.4,0.1,0.7c0,0.3,0,0.5-0.1,0.7l2.6,0C91.1,41.4,91.1,41.2,91.1,40.9z M95.8,40.2l0.8,0
		c0.1,0.2,0.1,0.4,0.1,0.7c0,0.3,0,0.5-0.1,0.7l-0.6,0c0.1,0.2,0.1,0.4,0.1,0.7c0,0.3,0,0.5-0.1,0.7c0.1,0.2,0.1,0.4,0.1,0.7
		c0,0.3,0,0.5-0.1,0.7C96,44.8,96,45,96,45.3c0,0.3,0,0.5-0.1,0.7l-1.6,0c-0.1-0.2-0.1-0.5-0.1-0.7c0-0.3,0-0.5,0.1-0.7
		c-0.1-0.2-0.1-0.5-0.1-0.7c0-0.3,0-0.5,0.1-0.7c-0.1-0.2-0.1-0.5-0.1-0.7c0-0.3,0-0.5,0.1-0.7c-0.1-0.2-0.1-0.5-0.1-0.7
		c0-0.3,0-0.5,0.1-0.7c-0.1-0.2-0.1-0.5-0.1-0.7c0-0.3,0-0.5,0.1-0.7l1.4,0c0.1,0.2,0.1,0.4,0.1,0.7C95.8,39.7,95.8,40,95.8,40.2z
		 M100.8,42.4c0,0.3,0,0.5-0.1,0.7c0.1,0.2,0.1,0.4,0.1,0.7c0,0.3,0,0.5-0.1,0.7c0.1,0.2,0.1,0.4,0.1,0.7c0,0.3,0,0.5-0.1,0.7
		l-1.6,0c-0.1-0.2-0.1-0.5-0.1-0.7c0-0.3,0-0.5,0.1-0.7c-0.1-0.2-0.1-0.5-0.1-0.7c0-0.3,0-0.5,0.1-0.7c-0.1-0.2-0.1-0.5-0.1-0.7
		c0-0.3,0-0.5,0.1-0.7c-0.1-0.2-0.1-0.5-0.1-0.7c0-0.3,0-0.5,0.1-0.7l-2.6,0c-0.1-0.2-0.1-0.5-0.1-0.7c0-0.3,0-0.5,0.1-0.7l3.2,0
		c0.1,0.2,0.1,0.4,0.1,0.7c0,0.3,0,0.5-0.1,0.7l1,0c0.1,0.2,0.1,0.4,0.1,0.7c0,0.3,0,0.5-0.1,0.7C100.8,41.8,100.8,42.1,100.8,42.4z
		 M106.1,40.2l-2,0c0.1,0.2,0.1,0.4,0.1,0.7c0,0.3,0,0.5-0.1,0.7l-0.6,0c0.1,0.2,0.1,0.4,0.1,0.7c0,0.3,0,0.5-0.1,0.7l0.6,0
		c0.1,0.2,0.1,0.4,0.1,0.7c0,0.3,0,0.5-0.1,0.7l2,0c0.1,0.2,0.1,0.4,0.1,0.7c0,0.3,0,0.5-0.1,0.7l-2.2,0c-0.1-0.2-0.1-0.5-0.1-0.7
		c0-0.3,0-0.5,0.1-0.7l-1,0c-0.1-0.2-0.1-0.5-0.1-0.7c0-0.3,0-0.5,0.1-0.7l-0.6,0c-0.1-0.2-0.1-0.5-0.1-0.7c0-0.3,0-0.5,0.1-0.7
		l0.6,0c-0.1-0.2-0.1-0.5-0.1-0.7c0-0.3,0-0.5,0.1-0.7l1,0c-0.1-0.2-0.1-0.5-0.1-0.7c0-0.3,0-0.5,0.1-0.7l2.2,0
		c0.1,0.2,0.1,0.4,0.1,0.7C106.2,39.7,106.2,40,106.1,40.2z M108.8,38c0,0.3,0,0.5-0.1,0.7c0.1,0.2,0.1,0.4,0.1,0.7
		c0,0.3,0,0.5-0.1,0.7c0.1,0.2,0.1,0.4,0.1,0.7c0,0.3,0,0.5-0.1,0.7c0.1,0.2,0.1,0.4,0.1,0.7c0,0.3,0,0.5-0.1,0.7
		c0.1,0.2,0.1,0.4,0.1,0.7c0,0.3,0,0.5-0.1,0.7c0.1,0.2,0.1,0.4,0.1,0.7c0,0.3,0,0.5-0.1,0.7l-1.6,0c-0.1-0.2-0.1-0.5-0.1-0.7
		c0-0.3,0-0.5,0.1-0.7l-0.6,0c-0.1-0.2-0.1-0.5-0.1-0.7c0-0.3,0-0.5,0.1-0.7l0.6,0c-0.1-0.2-0.1-0.5-0.1-0.7c0-0.3,0-0.5,0.1-0.7
		l-0.6,0c-0.1-0.2-0.1-0.5-0.1-0.7c0-0.3,0-0.5,0.1-0.7l0.6,0c-0.1-0.2-0.1-0.5-0.1-0.7c0-0.3,0-0.5,0.1-0.7
		c-0.1-0.2-0.1-0.5-0.1-0.7c0-0.3,0-0.5,0.1-0.7c-0.1-0.2-0.1-0.5-0.1-0.7c0-0.3,0-0.5,0.1-0.7l1.6,0c0.1,0.2,0.1,0.4,0.1,0.7
		c0,0.3,0,0.5-0.1,0.7C108.8,37.5,108.8,37.7,108.8,38z M114.4,38c0,0.3,0,0.5-0.1,0.7c0.1,0.2,0.1,0.4,0.1,0.7c0,0.3,0,0.5-0.1,0.7
		c0.1,0.2,0.1,0.4,0.1,0.7c0,0.3,0,0.5-0.1,0.7c0.1,0.2,0.1,0.4,0.1,0.7c0,0.3,0,0.5-0.1,0.7l-1.6,0c-0.1-0.2-0.1-0.5-0.1-0.7
		c0-0.3,0-0.5,0.1-0.7c-0.1-0.2-0.1-0.5-0.1-0.7c0-0.3,0-0.5,0.1-0.7c-0.1-0.2-0.1-0.5-0.1-0.7c0-0.3,0-0.5,0.1-0.7
		c-0.1-0.2-0.1-0.5-0.1-0.7c0-0.3,0-0.5,0.1-0.7c-0.1-0.2-0.1-0.5-0.1-0.7c0-0.3,0-0.5,0.1-0.7l1.6,0c0.1,0.2,0.1,0.4,0.1,0.7
		c0,0.3,0,0.5-0.1,0.7C114.4,37.5,114.4,37.7,114.4,38z M114.3,44.6c0.1,0.2,0.1,0.4,0.1,0.7c0,0.3,0,0.5-0.1,0.7l-1.6,0
		c-0.1-0.2-0.1-0.5-0.1-0.7c0-0.3,0-0.5,0.1-0.7L114.3,44.6z"/>
	<path class="st1" d="M44.1,13.7c0,0.3,0,0.5-0.1,0.7c0.1,0.2,0.1,0.4,0.1,0.7c0,0.3,0,0.5-0.1,0.7c0.1,0.2,0.1,0.4,0.1,0.7
		c0,0.3,0,0.5-0.1,0.7l-0.6,0c0.1,0.2,0.1,0.4,0.1,0.7c0,0.3,0,0.5-0.1,0.7c0.1,0.2,0.1,0.4,0.1,0.7c0,0.3,0,0.5-0.1,0.7l-0.4,0
		c0.1,0.2,0.1,0.4,0.1,0.7c0,0.3,0,0.5-0.1,0.7l-1.2,0c-0.1-0.2-0.1-0.5-0.1-0.7c0-0.3,0-0.5,0.1-0.7l-0.4,0
		c-0.1-0.2-0.1-0.5-0.1-0.7c0-0.3,0-0.5,0.1-0.7l-1.2,0c0.1,0.2,0.1,0.4,0.1,0.7c0,0.3,0,0.5-0.1,0.7l-0.4,0
		c0.1,0.2,0.1,0.4,0.1,0.7c0,0.3,0,0.5-0.1,0.7l-1.2,0c-0.1-0.2-0.1-0.5-0.1-0.7c0-0.3,0-0.5,0.1-0.7l-0.4,0
		c-0.1-0.2-0.1-0.5-0.1-0.7c0-0.3,0-0.5,0.1-0.7c-0.1-0.2-0.1-0.5-0.1-0.7c0-0.3,0-0.5,0.1-0.7l-0.6,0c-0.1-0.2-0.1-0.5-0.1-0.7
		c0-0.3,0-0.5,0.1-0.7c-0.1-0.2-0.1-0.5-0.1-0.7c0-0.3,0-0.5,0.1-0.7c-0.1-0.2-0.1-0.5-0.1-0.7c0-0.3,0-0.5,0.1-0.7
		c-0.1-0.2-0.1-0.5-0.1-0.7c0-0.3,0-0.5,0.1-0.7l1.6,0c0.1,0.2,0.1,0.4,0.1,0.7c0,0.3,0,0.5-0.1,0.7c0.1,0.2,0.1,0.4,0.1,0.7
		c0,0.3,0,0.5-0.1,0.7c0.1,0.2,0.1,0.4,0.1,0.7c0,0.3,0,0.5-0.1,0.7c0.1,0.2,0.1,0.4,0.1,0.7c0,0.3,0,0.5-0.1,0.7
		c0.1,0.2,0.1,0.4,0.1,0.7c0,0.3,0,0.5-0.1,0.7l0.6,0c-0.1-0.2-0.1-0.5-0.1-0.7c0-0.3,0-0.5,0.1-0.7l0.4,0c-0.1-0.2-0.1-0.5-0.1-0.7
		c0-0.3,0-0.5,0.1-0.7c-0.1-0.2-0.1-0.5-0.1-0.7c0-0.3,0-0.5,0.1-0.7c-0.1-0.2-0.1-0.5-0.1-0.7c0-0.3,0-0.5,0.1-0.7
		c-0.1-0.2-0.1-0.5-0.1-0.7c0-0.3,0-0.5,0.1-0.7l1.2,0c0.1,0.2,0.1,0.4,0.1,0.7c0,0.3,0,0.5-0.1,0.7c0.1,0.2,0.1,0.4,0.1,0.7
		c0,0.3,0,0.5-0.1,0.7c0.1,0.2,0.1,0.4,0.1,0.7c0,0.3,0,0.5-0.1,0.7c0.1,0.2,0.1,0.4,0.1,0.7c0,0.3,0,0.5-0.1,0.7l0.4,0
		c0.1,0.2,0.1,0.4,0.1,0.7c0,0.3,0,0.5-0.1,0.7l0.6,0c-0.1-0.2-0.1-0.5-0.1-0.7c0-0.3,0-0.5,0.1-0.7c-0.1-0.2-0.1-0.5-0.1-0.7
		c0-0.3,0-0.5,0.1-0.7c-0.1-0.2-0.1-0.5-0.1-0.7c0-0.3,0-0.5,0.1-0.7c-0.1-0.2-0.1-0.5-0.1-0.7c0-0.3,0-0.5,0.1-0.7
		c-0.1-0.2-0.1-0.5-0.1-0.7c0-0.3,0-0.5,0.1-0.7l1.6,0c0.1,0.2,0.1,0.4,0.1,0.7c0,0.3,0,0.5-0.1,0.7C44.1,13.2,44.1,13.4,44.1,13.7z
		 M52,17.4c0.1,0.2,0.1,0.4,0.1,0.7c0,0.3,0,0.5-0.1,0.7l-4.2,0c0.1,0.2,0.1,0.4,0.1,0.7c0,0.3,0,0.5-0.1,0.7l3.4,0
		c0.1,0.2,0.1,0.4,0.1,0.7c0,0.3,0,0.5-0.1,0.7l-4,0c-0.1-0.2-0.1-0.5-0.1-0.7c0-0.3,0-0.5,0.1-0.7l-1,0c-0.1-0.2-0.1-0.5-0.1-0.7
		c0-0.3,0-0.5,0.1-0.7l-0.6,0c-0.1-0.2-0.1-0.5-0.1-0.7c0-0.3,0-0.5,0.1-0.7l0.6,0c-0.1-0.2-0.1-0.5-0.1-0.7c0-0.3,0-0.5,0.1-0.7
		l1,0c-0.1-0.2-0.1-0.5-0.1-0.7c0-0.3,0-0.5,0.1-0.7l4,0c0.1,0.2,0.1,0.4,0.1,0.7c0,0.3,0,0.5-0.1,0.7l0.8,0
		c0.1,0.2,0.1,0.4,0.1,0.7C52.1,17,52,17.2,52,17.4z M50.3,16.7c0-0.3,0-0.5,0.1-0.7l-2.6,0c0.1,0.2,0.1,0.4,0.1,0.7
		c0,0.3,0,0.5-0.1,0.7l2.6,0C50.3,17.2,50.3,17,50.3,16.7z M59.2,21.1c0,0.3,0,0.5-0.1,0.7l-4.8,0c-0.1-0.2-0.1-0.5-0.1-0.7
		c0-0.3,0-0.5,0.1-0.7l1.6,0c-0.1-0.2-0.1-0.5-0.1-0.7c0-0.3,0-0.5,0.1-0.7c-0.1-0.2-0.1-0.5-0.1-0.7c0-0.3,0-0.5,0.1-0.7
		c-0.1-0.2-0.1-0.5-0.1-0.7c0-0.3,0-0.5,0.1-0.7c-0.1-0.2-0.1-0.5-0.1-0.7c0-0.3,0-0.5,0.1-0.7c-0.1-0.2-0.1-0.5-0.1-0.7
		c0-0.3,0-0.5,0.1-0.7l-1.2,0c-0.1-0.2-0.1-0.5-0.1-0.7c0-0.3,0-0.5,0.1-0.7l2.8,0c0.1,0.2,0.1,0.4,0.1,0.7c0,0.3,0,0.5-0.1,0.7
		c0.1,0.2,0.1,0.4,0.1,0.7c0,0.3,0,0.5-0.1,0.7c0.1,0.2,0.1,0.4,0.1,0.7c0,0.3,0,0.5-0.1,0.7c0.1,0.2,0.1,0.4,0.1,0.7
		c0,0.3,0,0.5-0.1,0.7c0.1,0.2,0.1,0.4,0.1,0.7c0,0.3,0,0.5-0.1,0.7c0.1,0.2,0.1,0.4,0.1,0.7c0,0.3,0,0.5-0.1,0.7l1.6,0
		C59.2,20.6,59.2,20.8,59.2,21.1z M67.9,19c0.1,0.2,0.1,0.4,0.1,0.7c0,0.3,0,0.5-0.1,0.7l-0.8,0c0.1,0.2,0.1,0.4,0.1,0.7
		c0,0.3,0,0.5-0.1,0.7l-4,0c-0.1-0.2-0.1-0.5-0.1-0.7c0-0.3,0-0.5,0.1-0.7l-0.8,0c-0.1-0.2-0.1-0.5-0.1-0.7c0-0.3,0-0.5,0.1-0.7
		l-0.8,0c-0.1-0.2-0.1-0.5-0.1-0.7c0-0.3,0-0.5,0.1-0.7l0.8,0c-0.1-0.2-0.1-0.5-0.1-0.7c0-0.3,0-0.5,0.1-0.7l0.8,0
		c-0.1-0.2-0.1-0.5-0.1-0.7c0-0.3,0-0.5,0.1-0.7l4,0c0.1,0.2,0.1,0.4,0.1,0.7c0,0.3,0,0.5-0.1,0.7l0.8,0c0.1,0.2,0.1,0.4,0.1,0.7
		c0,0.3,0,0.5-0.1,0.7l-1.6,0c-0.1-0.2-0.1-0.5-0.1-0.7c0-0.3,0-0.5,0.1-0.7l-2.4,0c0.1,0.2,0.1,0.4,0.1,0.7c0,0.3,0,0.5-0.1,0.7
		l-0.8,0c0.1,0.2,0.1,0.4,0.1,0.7c0,0.3,0,0.5-0.1,0.7l0.8,0c0.1,0.2,0.1,0.4,0.1,0.7c0,0.3,0,0.5-0.1,0.7l2.4,0
		c-0.1-0.2-0.1-0.5-0.1-0.7c0-0.3,0-0.5,0.1-0.7L67.9,19z M75.9,19l-0.6,0c0.1,0.2,0.1,0.4,0.1,0.7c0,0.3,0,0.5-0.1,0.7l-1,0
		c0.1,0.2,0.1,0.4,0.1,0.7c0,0.3,0,0.5-0.1,0.7l-3.2,0C71,21.7,71,21.4,71,21.2c0-0.3,0-0.5,0.1-0.7l-1,0C70.1,20.2,70,20,70,19.7
		c0-0.3,0-0.5,0.1-0.7l-0.6,0c-0.1-0.2-0.1-0.5-0.1-0.7c0-0.3,0-0.5,0.1-0.7l0.6,0C70.1,17.3,70,17,70,16.8c0-0.3,0-0.5,0.1-0.7l1,0
		c-0.1-0.2-0.1-0.5-0.1-0.7c0-0.3,0-0.5,0.1-0.7l3.2,0c0.1,0.2,0.1,0.4,0.1,0.7c0,0.3,0,0.5-0.1,0.7l1,0c0.1,0.2,0.1,0.4,0.1,0.7
		c0,0.3,0,0.5-0.1,0.7l0.6,0c0.1,0.2,0.1,0.4,0.1,0.7C76,18.5,75.9,18.8,75.9,19z M74.3,19c-0.1-0.2-0.1-0.5-0.1-0.7
		c0-0.3,0-0.5,0.1-0.7l-0.6,0c-0.1-0.2-0.1-0.5-0.1-0.7c0-0.3,0-0.5,0.1-0.7l-2,0c0.1,0.2,0.1,0.4,0.1,0.7c0,0.3,0,0.5-0.1,0.7
		l-0.6,0c0.1,0.2,0.1,0.4,0.1,0.7c0,0.3,0,0.5-0.1,0.7l0.6,0c0.1,0.2,0.1,0.4,0.1,0.7c0,0.3,0,0.5-0.1,0.7l2,0
		c-0.1-0.2-0.1-0.5-0.1-0.7c0-0.3,0-0.5,0.1-0.7L74.3,19z M78.5,16.1l0.6,0c0.1,0.2,0.1,0.4,0.1,0.7c0,0.3,0,0.5-0.1,0.7
		c0.1,0.2,0.1,0.4,0.1,0.7c0,0.3,0,0.5-0.1,0.7c0.1,0.2,0.1,0.4,0.1,0.7c0,0.3,0,0.5-0.1,0.7c0.1,0.2,0.1,0.4,0.1,0.7
		c0,0.3,0,0.5-0.1,0.7l-1.6,0c-0.1-0.2-0.1-0.5-0.1-0.7c0-0.3,0-0.5,0.1-0.7c-0.1-0.2-0.1-0.5-0.1-0.7c0-0.3,0-0.5,0.1-0.7
		c-0.1-0.2-0.1-0.5-0.1-0.7c0-0.3,0-0.5,0.1-0.7c-0.1-0.2-0.1-0.5-0.1-0.7c0-0.3,0-0.5,0.1-0.7c-0.1-0.2-0.1-0.5-0.1-0.7
		c0-0.3,0-0.5,0.1-0.7l1,0c0.1,0.2,0.1,0.4,0.1,0.7C78.6,15.6,78.5,15.8,78.5,16.1z M80.7,16.1l0.6,0c0.1,0.2,0.1,0.4,0.1,0.7
		c0,0.3,0,0.5-0.1,0.7c0.1,0.2,0.1,0.4,0.1,0.7c0,0.3,0,0.5-0.1,0.7c0.1,0.2,0.1,0.4,0.1,0.7c0,0.3,0,0.5-0.1,0.7
		c0.1,0.2,0.1,0.4,0.1,0.7c0,0.3,0,0.5-0.1,0.7l-1.2,0C80,21.7,80,21.5,80,21.2c0-0.3,0-0.5,0.1-0.7C80,20.3,80,20,80,19.7
		c0-0.3,0-0.5,0.1-0.7C80,18.8,80,18.5,80,18.3c0-0.3,0-0.5,0.1-0.7C80,17.3,80,17.1,80,16.8c0-0.3,0-0.5,0.1-0.7l-1,0
		C79,15.8,79,15.6,79,15.3c0-0.3,0-0.5,0.1-0.7l1.6,0c0.1,0.2,0.1,0.4,0.1,0.7C80.8,15.6,80.7,15.8,80.7,16.1z M83.9,18.3
		c0,0.3,0,0.5-0.1,0.7c0.1,0.2,0.1,0.4,0.1,0.7c0,0.3,0,0.5-0.1,0.7c0.1,0.2,0.1,0.4,0.1,0.7c0,0.3,0,0.5-0.1,0.7l-1.6,0
		c-0.1-0.2-0.1-0.5-0.1-0.7c0-0.3,0-0.5,0.1-0.7c-0.1-0.2-0.1-0.5-0.1-0.7c0-0.3,0-0.5,0.1-0.7c-0.1-0.2-0.1-0.5-0.1-0.7
		c0-0.3,0-0.5,0.1-0.7c-0.1-0.2-0.1-0.5-0.1-0.7c0-0.3,0-0.5,0.1-0.7l-1,0c-0.1-0.2-0.1-0.5-0.1-0.7c0-0.3,0-0.5,0.1-0.7l1.8,0
		c0.1,0.2,0.1,0.4,0.1,0.7c0,0.3,0,0.5-0.1,0.7l0.8,0c0.1,0.2,0.1,0.4,0.1,0.7c0,0.3,0,0.5-0.1,0.7C83.9,17.7,83.9,18,83.9,18.3z
		 M91.8,17.6c0.1,0.2,0.1,0.4,0.1,0.7c0,0.3,0,0.5-0.1,0.7l-4.2,0c0.1,0.2,0.1,0.4,0.1,0.7c0,0.3,0,0.5-0.1,0.7l3.4,0
		c0.1,0.2,0.1,0.4,0.1,0.7c0,0.3,0,0.5-0.1,0.7l-4,0C87,21.7,87,21.5,87,21.2c0-0.3,0-0.5,0.1-0.7l-1,0C86,20.3,86,20,86,19.7
		c0-0.3,0-0.5,0.1-0.7l-0.6,0c-0.1-0.2-0.1-0.5-0.1-0.7c0-0.3,0-0.5,0.1-0.7l0.6,0C86,17.3,86,17.1,86,16.8c0-0.3,0-0.5,0.1-0.7l1,0
		C87,15.9,87,15.6,87,15.3c0-0.3,0-0.5,0.1-0.7l4,0c0.1,0.2,0.1,0.4,0.1,0.7c0,0.3,0,0.5-0.1,0.7l0.8,0c0.1,0.2,0.1,0.4,0.1,0.7
		C91.9,17.1,91.9,17.4,91.8,17.6z M90.2,16.8c0-0.3,0-0.5,0.1-0.7l-2.6,0c0.1,0.2,0.1,0.4,0.1,0.7c0,0.3,0,0.5-0.1,0.7l2.6,0
		C90.2,17.3,90.2,17.1,90.2,16.8z M97.7,21.2c0,0.3,0,0.5-0.1,0.7c0.1,0.2,0.1,0.4,0.1,0.7c0,0.3,0,0.5-0.1,0.7l-0.8,0
		c0.1,0.2,0.1,0.4,0.1,0.7c0,0.3,0,0.5-0.1,0.7l-1.2,0c-0.1-0.2-0.1-0.5-0.1-0.7c0-0.3,0-0.5,0.1-0.7l0.8,0
		c-0.1-0.2-0.1-0.5-0.1-0.7c0-0.3,0-0.5,0.1-0.7l-0.8,0c-0.1-0.2-0.1-0.5-0.1-0.7c0-0.3,0-0.5,0.1-0.7c-0.1-0.2-0.1-0.5-0.1-0.7
		c0-0.3,0-0.5,0.1-0.7l2,0c0.1,0.2,0.1,0.4,0.1,0.7c0,0.3,0,0.5-0.1,0.7C97.6,20.7,97.7,21,97.7,21.2z M38.6,37.9l0.6,0
		c0.1,0.2,0.1,0.4,0.1,0.7c0,0.3,0,0.5-0.1,0.7c0.1,0.2,0.1,0.4,0.1,0.7c0,0.3,0,0.5-0.1,0.7c0.1,0.2,0.1,0.4,0.1,0.7
		c0,0.3,0,0.5-0.1,0.7c0.1,0.2,0.1,0.4,0.1,0.7c0,0.3,0,0.5-0.1,0.7l-1.6,0c-0.1-0.2-0.1-0.5-0.1-0.7c0-0.3,0-0.5,0.1-0.7
		c-0.1-0.2-0.1-0.5-0.1-0.7c0-0.3,0-0.5,0.1-0.7c-0.1-0.2-0.1-0.5-0.1-0.7c0-0.3,0-0.5,0.1-0.7c-0.1-0.2-0.1-0.5-0.1-0.7
		c0-0.3,0-0.5,0.1-0.7c-0.1-0.2-0.1-0.5-0.1-0.7c0-0.3,0-0.5,0.1-0.7l1,0c0.1,0.2,0.1,0.4,0.1,0.7C38.7,37.5,38.6,37.7,38.6,37.9z
		 M40.8,38l0.6,0c0.1,0.2,0.1,0.4,0.1,0.7c0,0.3,0,0.5-0.1,0.7c0.1,0.2,0.1,0.4,0.1,0.7c0,0.3,0,0.5-0.1,0.7
		c0.1,0.2,0.1,0.4,0.1,0.7c0,0.3,0,0.5-0.1,0.7c0.1,0.2,0.1,0.4,0.1,0.7c0,0.3,0,0.5-0.1,0.7l-1.2,0c-0.1-0.2-0.1-0.5-0.1-0.7
		c0-0.3,0-0.5,0.1-0.7c-0.1-0.2-0.1-0.5-0.1-0.7c0-0.3,0-0.5,0.1-0.7c-0.1-0.2-0.1-0.5-0.1-0.7c0-0.3,0-0.5,0.1-0.7
		c-0.1-0.2-0.1-0.5-0.1-0.7c0-0.3,0-0.5,0.1-0.7l-1,0c-0.1-0.2-0.1-0.5-0.1-0.7c0-0.3,0-0.5,0.1-0.7l1.6,0c0.1,0.2,0.1,0.4,0.1,0.7
		C40.9,37.5,40.8,37.7,40.8,38z M44,40.2c0,0.3,0,0.5-0.1,0.7c0.1,0.2,0.1,0.4,0.1,0.7c0,0.3,0,0.5-0.1,0.7c0.1,0.2,0.1,0.4,0.1,0.7
		c0,0.3,0,0.5-0.1,0.7l-1.6,0c-0.1-0.2-0.1-0.5-0.1-0.7c0-0.3,0-0.5,0.1-0.7c-0.1-0.2-0.1-0.5-0.1-0.7c0-0.3,0-0.5,0.1-0.7
		c-0.1-0.2-0.1-0.5-0.1-0.7c0-0.3,0-0.5,0.1-0.7c-0.1-0.2-0.1-0.5-0.1-0.7c0-0.3,0-0.5,0.1-0.7l-1,0c-0.1-0.2-0.1-0.5-0.1-0.7
		c0-0.3,0-0.5,0.1-0.7l1.8,0c0.1,0.2,0.1,0.4,0.1,0.7c0,0.3,0,0.5-0.1,0.7l0.8,0c0.1,0.2,0.1,0.4,0.1,0.7c0,0.3,0,0.5-0.1,0.7
		C44,39.6,44,39.9,44,40.2z M51.9,38l-0.6,0c0.1,0.2,0.1,0.4,0.1,0.7c0,0.3,0,0.5-0.1,0.7l-0.6,0c0.1,0.2,0.1,0.4,0.1,0.7
		c0,0.3,0,0.5-0.1,0.7l-0.4,0c0.1,0.2,0.1,0.4,0.1,0.7c0,0.3,0,0.5-0.1,0.7l-0.6,0c0.1,0.2,0.1,0.4,0.1,0.7c0,0.3,0,0.5-0.1,0.7
		l-0.4,0c0.1,0.2,0.1,0.4,0.1,0.7c0,0.3,0,0.5-0.1,0.7l-0.8,0c0.1,0.2,0.1,0.4,0.1,0.7c0,0.3,0,0.5-0.1,0.7l-2.4,0
		c-0.1-0.2-0.1-0.5-0.1-0.7c0-0.3,0-0.5,0.1-0.7l1.6,0c-0.1-0.2-0.1-0.5-0.1-0.7c0-0.3,0-0.5,0.1-0.7c-0.1-0.2-0.1-0.5-0.1-0.7
		c0-0.3,0-0.5,0.1-0.7l-0.8,0c-0.1-0.2-0.1-0.5-0.1-0.7c0-0.3,0-0.5,0.1-0.7l-0.4,0c-0.1-0.2-0.1-0.5-0.1-0.7c0-0.3,0-0.5,0.1-0.7
		l-0.6,0c-0.1-0.2-0.1-0.5-0.1-0.7c0-0.3,0-0.5,0.1-0.7l-0.6,0c-0.1-0.2-0.1-0.5-0.1-0.7c0-0.3,0-0.5,0.1-0.7l1.6,0
		c0.1,0.2,0.1,0.4,0.1,0.7c0,0.3,0,0.5-0.1,0.7l0.6,0c0.1,0.2,0.1,0.4,0.1,0.7c0,0.3,0,0.5-0.1,0.7l0.6,0c0.1,0.2,0.1,0.4,0.1,0.7
		c0,0.3,0,0.5-0.1,0.7c0.1,0.2,0.1,0.4,0.1,0.7c0,0.3,0,0.5-0.1,0.7l0.6,0c-0.1-0.2-0.1-0.5-0.1-0.7c0-0.3,0-0.5,0.1-0.7l0.4,0
		c-0.1-0.2-0.1-0.5-0.1-0.7c0-0.3,0-0.5,0.1-0.7l0.6,0c-0.1-0.2-0.1-0.5-0.1-0.7c0-0.3,0-0.5,0.1-0.7l0.6,0
		c-0.1-0.2-0.1-0.5-0.1-0.7c0-0.3,0-0.5,0.1-0.7l1.6,0C52,36.7,52,37,52,37.3C52,37.5,52,37.8,51.9,38z M67.1,36.6
		c0.1,0.2,0.1,0.4,0.1,0.7c0,0.3,0,0.5-0.1,0.7l-2.4,0c0.1,0.2,0.1,0.4,0.1,0.7c0,0.3,0,0.5-0.1,0.7c0.1,0.2,0.1,0.4,0.1,0.7
		c0,0.3,0,0.5-0.1,0.7c0.1,0.2,0.1,0.4,0.1,0.7c0,0.3,0,0.5-0.1,0.7l1.6,0c0.1,0.2,0.1,0.4,0.1,0.7c0,0.3,0,0.5-0.1,0.7l-4,0
		c-0.1-0.2-0.1-0.5-0.1-0.7c0-0.3,0-0.5,0.1-0.7l0.8,0C63,42.2,63,42,63,41.7c0-0.3,0-0.5,0.1-0.7C63,40.7,63,40.5,63,40.2
		c0-0.3,0-0.5,0.1-0.7C63,39.3,63,39,63,38.8c0-0.3,0-0.5,0.1-0.7l-0.8,0c-0.1-0.2-0.1-0.5-0.1-0.7c0-0.3,0-0.5,0.1-0.7l0.8,0
		C63,36.3,63,36.1,63,35.8c0-0.3,0-0.5,0.1-0.7l0.8,0c-0.1-0.2-0.1-0.5-0.1-0.7c0-0.3,0-0.5,0.1-0.7l3.2,0c0.1,0.2,0.1,0.4,0.1,0.7
		c0,0.3,0,0.5-0.1,0.7l-2.4,0c0.1,0.2,0.1,0.4,0.1,0.7c0,0.3,0,0.5-0.1,0.7L67.1,36.6z M75.9,38.8c0,0.3,0,0.5-0.1,0.7l-1.6,0
		c-0.1-0.2-0.1-0.5-0.1-0.7c0-0.3,0-0.5,0.1-0.7l-1.4,0c0.1,0.2,0.1,0.4,0.1,0.7c0,0.3,0,0.5-0.1,0.7l-0.6,0
		c0.1,0.2,0.1,0.4,0.1,0.7c0,0.3,0,0.5-0.1,0.7c0.1,0.2,0.1,0.4,0.1,0.7c0,0.3,0,0.5-0.1,0.7l1.2,0c0.1,0.2,0.1,0.4,0.1,0.7
		c0,0.3,0,0.5-0.1,0.7l-4,0c-0.1-0.2-0.1-0.5-0.1-0.7c0-0.3,0-0.5,0.1-0.7l1.2,0c-0.1-0.2-0.1-0.5-0.1-0.7c0-0.3,0-0.5,0.1-0.7
		c-0.1-0.2-0.1-0.5-0.1-0.7c0-0.3,0-0.5,0.1-0.7c-0.1-0.2-0.1-0.5-0.1-0.7c0-0.3,0-0.5,0.1-0.7l-1.2,0c-0.1-0.2-0.1-0.5-0.1-0.7
		c0-0.3,0-0.5,0.1-0.7l2,0c0.1,0.2,0.1,0.4,0.1,0.7c0,0.3,0,0.5-0.1,0.7l0.8,0c-0.1-0.2-0.1-0.5-0.1-0.7c0-0.3,0-0.5,0.1-0.7l3,0
		c0.1,0.2,0.1,0.4,0.1,0.7c0,0.3,0,0.5-0.1,0.7l0.6,0C75.9,38.3,75.9,38.5,75.9,38.8z M83.1,43.2c0,0.3,0,0.5-0.1,0.7l-4.8,0
		c-0.1-0.2-0.1-0.5-0.1-0.7c0-0.3,0-0.5,0.1-0.7l1.6,0c-0.1-0.2-0.1-0.5-0.1-0.7c0-0.3,0-0.5,0.1-0.7c-0.1-0.2-0.1-0.5-0.1-0.7
		c0-0.3,0-0.5,0.1-0.7c-0.1-0.2-0.1-0.5-0.1-0.7c0-0.3,0-0.5,0.1-0.7l-1.2,0c-0.1-0.2-0.1-0.5-0.1-0.7c0-0.3,0-0.5,0.1-0.7l2.8,0
		c0.1,0.2,0.1,0.4,0.1,0.7c0,0.3,0,0.5-0.1,0.7c0.1,0.2,0.1,0.4,0.1,0.7c0,0.3,0,0.5-0.1,0.7c0.1,0.2,0.1,0.4,0.1,0.7
		c0,0.3,0,0.5-0.1,0.7c0.1,0.2,0.1,0.4,0.1,0.7c0,0.3,0,0.5-0.1,0.7l1.6,0C83,42.7,83.1,42.9,83.1,43.2z M79.8,35.1
		c-0.1-0.2-0.1-0.5-0.1-0.7c0-0.3,0-0.5,0.1-0.7l1.6,0c0.1,0.2,0.1,0.4,0.1,0.7c0,0.3,0,0.5-0.1,0.7L79.8,35.1z M91.8,39.6
		c0.1,0.2,0.1,0.4,0.1,0.7c0,0.3,0,0.5-0.1,0.7l-4.2,0c0.1,0.2,0.1,0.4,0.1,0.7c0,0.3,0,0.5-0.1,0.7l3.4,0c0.1,0.2,0.1,0.4,0.1,0.7
		c0,0.3,0,0.5-0.1,0.7l-4,0c-0.1-0.2-0.1-0.5-0.1-0.7c0-0.3,0-0.5,0.1-0.7l-1,0c-0.1-0.2-0.1-0.5-0.1-0.7c0-0.3,0-0.5,0.1-0.7
		l-0.6,0c-0.1-0.2-0.1-0.5-0.1-0.7c0-0.3,0-0.5,0.1-0.7l0.6,0c-0.1-0.2-0.1-0.5-0.1-0.7c0-0.3,0-0.5,0.1-0.7l1,0
		c-0.1-0.2-0.1-0.5-0.1-0.7c0-0.3,0-0.5,0.1-0.7l4,0c0.1,0.2,0.1,0.4,0.1,0.7c0,0.3,0,0.5-0.1,0.7l0.8,0c0.1,0.2,0.1,0.4,0.1,0.7
		C91.8,39.1,91.8,39.4,91.8,39.6z M90.1,38.8c0-0.3,0-0.5,0.1-0.7l-2.6,0c0.1,0.2,0.1,0.4,0.1,0.7c0,0.3,0,0.5-0.1,0.7l2.6,0
		C90.1,39.4,90.1,39.1,90.1,38.8z M94.7,38.1l0.8,0c0.1,0.2,0.1,0.4,0.1,0.7c0,0.3,0,0.5-0.1,0.7l-0.6,0C95,39.8,95,40,95,40.3
		c0,0.3,0,0.5-0.1,0.7c0.1,0.2,0.1,0.4,0.1,0.7c0,0.3,0,0.5-0.1,0.7C95,42.7,95,43,95,43.3c0,0.3,0,0.5-0.1,0.7l-1.6,0
		c-0.1-0.2-0.1-0.5-0.1-0.7c0-0.3,0-0.5,0.1-0.7c-0.1-0.2-0.1-0.5-0.1-0.7c0-0.3,0-0.5,0.1-0.7c-0.1-0.2-0.1-0.5-0.1-0.7
		c0-0.3,0-0.5,0.1-0.7c-0.1-0.2-0.1-0.5-0.1-0.7c0-0.3,0-0.5,0.1-0.7c-0.1-0.2-0.1-0.5-0.1-0.7c0-0.3,0-0.5,0.1-0.7l1.4,0
		c0.1,0.2,0.1,0.4,0.1,0.7C94.8,37.7,94.8,37.9,94.7,38.1z M99.8,40.3c0,0.3,0,0.5-0.1,0.7c0.1,0.2,0.1,0.4,0.1,0.7
		c0,0.3,0,0.5-0.1,0.7c0.1,0.2,0.1,0.4,0.1,0.7c0,0.3,0,0.5-0.1,0.7l-1.6,0c-0.1-0.2-0.1-0.5-0.1-0.7c0-0.3,0-0.5,0.1-0.7
		c-0.1-0.2-0.1-0.5-0.1-0.7c0-0.3,0-0.5,0.1-0.7c-0.1-0.2-0.1-0.5-0.1-0.7c0-0.3,0-0.5,0.1-0.7c-0.1-0.2-0.1-0.5-0.1-0.7
		c0-0.3,0-0.5,0.1-0.7l-2.6,0c-0.1-0.2-0.1-0.5-0.1-0.7c0-0.3,0-0.5,0.1-0.7l3.2,0c0.1,0.2,0.1,0.4,0.1,0.7c0,0.3,0,0.5-0.1,0.7l1,0
		c0.1,0.2,0.1,0.4,0.1,0.7c0,0.3,0,0.5-0.1,0.7C99.8,39.8,99.8,40,99.8,40.3z M105.1,38.1l-2,0c0.1,0.2,0.1,0.4,0.1,0.7
		c0,0.3,0,0.5-0.1,0.7l-0.6,0c0.1,0.2,0.1,0.4,0.1,0.7c0,0.3,0,0.5-0.1,0.7l0.6,0c0.1,0.2,0.1,0.4,0.1,0.7c0,0.3,0,0.5-0.1,0.7l2,0
		c0.1,0.2,0.1,0.4,0.1,0.7c0,0.3,0,0.5-0.1,0.7l-2.2,0c-0.1-0.2-0.1-0.5-0.1-0.7c0-0.3,0-0.5,0.1-0.7l-1,0c-0.1-0.2-0.1-0.5-0.1-0.7
		c0-0.3,0-0.5,0.1-0.7l-0.6,0c-0.1-0.2-0.1-0.5-0.1-0.7c0-0.3,0-0.5,0.1-0.7l0.6,0c-0.1-0.2-0.1-0.5-0.1-0.7c0-0.3,0-0.5,0.1-0.7
		l1,0c-0.1-0.2-0.1-0.5-0.1-0.7c0-0.3,0-0.5,0.1-0.7l2.2,0c0.1,0.2,0.1,0.4,0.1,0.7C105.2,37.7,105.2,37.9,105.1,38.1z M107.8,36
		c0,0.3,0,0.5-0.1,0.7c0.1,0.2,0.1,0.4,0.1,0.7c0,0.3,0,0.5-0.1,0.7c0.1,0.2,0.1,0.4,0.1,0.7c0,0.3,0,0.5-0.1,0.7
		c0.1,0.2,0.1,0.4,0.1,0.7c0,0.3,0,0.5-0.1,0.7c0.1,0.2,0.1,0.4,0.1,0.7c0,0.3,0,0.5-0.1,0.7c0.1,0.2,0.1,0.4,0.1,0.7
		c0,0.3,0,0.5-0.1,0.7l-1.6,0c-0.1-0.2-0.1-0.5-0.1-0.7c0-0.3,0-0.5,0.1-0.7l-0.6,0c-0.1-0.2-0.1-0.5-0.1-0.7c0-0.3,0-0.5,0.1-0.7
		l0.6,0c-0.1-0.2-0.1-0.5-0.1-0.7c0-0.3,0-0.5,0.1-0.7l-0.6,0c-0.1-0.2-0.1-0.5-0.1-0.7c0-0.3,0-0.5,0.1-0.7l0.6,0
		c-0.1-0.2-0.1-0.5-0.1-0.7c0-0.3,0-0.5,0.1-0.7c-0.1-0.2-0.1-0.5-0.1-0.7c0-0.3,0-0.5,0.1-0.7c-0.1-0.2-0.1-0.5-0.1-0.7
		c0-0.3,0-0.5,0.1-0.7l1.6,0c0.1,0.2,0.1,0.4,0.1,0.7c0,0.3,0,0.5-0.1,0.7C107.8,35.4,107.8,35.7,107.8,36z M113.4,36
		c0,0.3,0,0.5-0.1,0.7c0.1,0.2,0.1,0.4,0.1,0.7c0,0.3,0,0.5-0.1,0.7c0.1,0.2,0.1,0.4,0.1,0.7c0,0.3,0,0.5-0.1,0.7
		c0.1,0.2,0.1,0.4,0.1,0.7c0,0.3,0,0.5-0.1,0.7l-1.6,0c-0.1-0.2-0.1-0.5-0.1-0.7c0-0.3,0-0.5,0.1-0.7c-0.1-0.2-0.1-0.5-0.1-0.7
		c0-0.3,0-0.5,0.1-0.7c-0.1-0.2-0.1-0.5-0.1-0.7c0-0.3,0-0.5,0.1-0.7c-0.1-0.2-0.1-0.5-0.1-0.7c0-0.3,0-0.5,0.1-0.7
		c-0.1-0.2-0.1-0.5-0.1-0.7c0-0.3,0-0.5,0.1-0.7l1.6,0c0.1,0.2,0.1,0.4,0.1,0.7c0,0.3,0,0.5-0.1,0.7C113.3,35.4,113.4,35.7,113.4,36
		z M113.3,42.6c0.1,0.2,0.1,0.4,0.1,0.7c0,0.3,0,0.5-0.1,0.7l-1.6,0c-0.1-0.2-0.1-0.5-0.1-0.7c0-0.3,0-0.5,0.1-0.7L113.3,42.6z"/>
</g>
</svg>
