<?xml version="1.0" encoding="utf-8"?>
<!-- Generator: Adobe Illustrator 22.0.1, SVG Export Plug-In . SVG Version: 6.00 Build 0)  -->
<svg version="1.1" id="worlds_x5F_intro" xmlns="http://www.w3.org/2000/svg" xmlns:xlink="http://www.w3.org/1999/xlink" x="0px"
	 y="0px" viewBox="0 0 200 200" style="enable-background:new 0 0 200 200;" xml:space="preserve">
<style type="text/css">
	.st0{fill:#31165C;}
	.st1{fill:#3B2066;}
</style>
<g id="bottom">
	<path class="st0" d="M36.7,194.7H195v-42.2c0-8.7-7.1-15.8-15.8-15.8s-15.8,7.1-15.8,15.8v15.8c0,4.4-3.6,7.9-7.9,7.9
		c-4.4,0-7.9-3.6-7.9-7.9v-9.3c0-6.6-5.3-11.9-11.9-11.9c-6.6,0-11.9,5.3-11.9,11.9v17.2h-0.1c-0.7,6.5-6.6,11.2-13.1,10.4
		c-5.5-0.6-9.9-5-10.4-10.4H100v-33c0-10.9-8.9-19.8-19.8-19.8s-19.8,8.9-19.8,19.8v14.6h-0.1c-0.7,6.5-6.6,11.2-13.1,10.5
		c-5.5-0.6-9.9-5-10.4-10.5h-0.1v-5.3c0-8.7-7.1-15.8-15.8-15.8S5,143.8,5,152.5v15.8L36.7,194.7z"/>
	<path class="st1" d="M36.7,200H190c2.8,0,5-2.2,5-5v-36.8c0-8.1-5.9-15.2-13.9-16.1c-9.6-1.1-17.8,6.4-17.8,15.7v15.6
		c0,3.9-2.8,7.5-6.7,8.1c-4.9,0.8-9.2-3.1-9.2-7.8v-8.9c0-6.5-5.1-12.2-11.7-12.3c-6.7-0.1-12.1,5.2-12.1,11.9v17.2h-0.1
		c-0.7,6.5-6.6,11.2-13.1,10.4c-5.5-0.6-9.9-5-10.4-10.4H100V149c0-10.7-8.3-19.9-19.1-20.3c-11.3-0.4-20.5,8.6-20.5,19.8V163h-0.1
		c-0.7,6.5-6.6,11.2-13.1,10.4c-5.5-0.6-9.9-5-10.4-10.4h-0.1v-4.8c0-8.1-5.9-15.2-13.9-16.1C13.2,140.9,5,148.5,5,157.8V195
		c0,2.8,2.2,5,5,5H36.7z"/>
</g>
<g id="top_1_">
	<path class="st0" d="M163.3,5.3H5v42.2c0,8.7,7.1,15.8,15.8,15.8s15.8-7.1,15.8-15.8V31.7c0-4.4,3.6-7.9,7.9-7.9s7.9,3.6,7.9,7.9
		v9.3c0,6.6,5.3,11.9,11.9,11.9s11.9-5.3,11.9-11.9V23.8h0.1c0.7-6.5,6.6-11.2,13.1-10.4c5.5,0.6,9.9,5,10.4,10.4h0.1v33
		c0,10.9,8.9,19.8,19.8,19.8s19.8-8.9,19.8-19.8V42.2h0.1c0.7-6.5,6.6-11.2,13.1-10.5c5.5,0.6,9.9,5,10.4,10.5h0.1v5.3
		c0,8.7,7.1,15.8,15.8,15.8S195,56.2,195,47.5V31.7L163.3,5.3z"/>
	<path class="st1" d="M163.3,0H10C7.2,0,5,2.2,5,5l0,36.8c0,8.1,5.9,15.2,13.9,16.1c9.6,1.1,17.8-6.4,17.8-15.7l0-15.6
		c0-3.9,2.8-7.5,6.7-8.1c4.9-0.8,9.2,3.1,9.2,7.8v8.9c0,6.5,5.1,12.2,11.7,12.3c6.7,0.1,12.1-5.2,12.1-11.9V18.4h0.1
		C77,12,82.9,7.2,89.5,8c5.5,0.6,9.9,5,10.4,10.4h0.1V51c0,10.7,8.3,19.9,19.1,20.3c11.3,0.4,20.5-8.6,20.5-19.8V37h0.1
		c0.7-6.5,6.6-11.2,13.1-10.4c5.5,0.6,9.9,5,10.4,10.4h0.1v4.8c0,8.1,5.9,15.2,13.9,16.1c9.6,1.1,17.8-6.4,17.8-15.7V5
		c0-2.8-2.2-5-5-5H163.3z"/>
</g>
</svg>
