<?xml version="1.0" encoding="utf-8"?>
<!-- Generator: Adobe Illustrator 22.0.1, SVG Export Plug-In . SVG Version: 6.00 Build 0)  -->
<svg version="1.1" xmlns="http://www.w3.org/2000/svg" xmlns:xlink="http://www.w3.org/1999/xlink" x="0px" y="0px"
	 viewBox="0 0 200 200" style="enable-background:new 0 0 200 200;" xml:space="preserve">
<style type="text/css">
	.st0{fill:#31165C;}
	.st1{fill:#3B2066;}
</style>
<g id="worlds_x5F_out">
	<path class="st0" d="M185,75H15c-2.8,0-5-2.2-5-5V10c0-2.8,2.2-5,5-5h170c2.8,0,5,2.2,5,5v60C190,72.8,187.8,75,185,75z"/>
	<path class="st1" d="M185,70H15c-2.8,0-5-2.2-5-5V5c0-2.8,2.2-5,5-5h170c2.8,0,5,2.2,5,5v60C190,67.8,187.8,70,185,70z"/>
	<path class="st0" d="M185,200H15c-2.8,0-5-2.2-5-5v-20c0-2.8,2.2-5,5-5h170c2.8,0,5,2.2,5,5v20C190,197.8,187.8,200,185,200z"/>
	<path class="st1" d="M185,195H15c-2.8,0-5-2.2-5-5v-20c0-2.8,2.2-5,5-5h170c2.8,0,5,2.2,5,5v20C190,192.8,187.8,195,185,195z"/>
	<path class="st0" d="M132.5,153.4H15c-2.8,0-5-2.2-5-5v-15c0-2.8,2.2-5,5-5h117.5c2.8,0,5,2.2,5,5v15
		C137.5,151.2,135.3,153.4,132.5,153.4z"/>
	<path class="st0" d="M185,153.4h-32.5c-2.8,0-5-2.2-5-5v-15c0-2.8,2.2-5,5-5H185c2.8,0,5,2.2,5,5v15
		C190,151.2,187.8,153.4,185,153.4z"/>
	<path class="st1" d="M132.5,148.4H15c-2.8,0-5-2.2-5-5v-15c0-2.8,2.2-5,5-5h117.5c2.8,0,5,2.2,5,5v15
		C137.5,146.2,135.3,148.4,132.5,148.4z"/>
	<path class="st1" d="M185,148.4h-32.5c-2.8,0-5-2.2-5-5v-15c0-2.8,2.2-5,5-5H185c2.8,0,5,2.2,5,5v15
		C190,146.2,187.8,148.4,185,148.4z"/>
</g>
<g id="worlds_x5F_intro">
</g>
</svg>
