<?xml version="1.0" encoding="utf-8"?>
<!-- Generator: Adobe Illustrator 22.0.1, SVG Export Plug-In . SVG Version: 6.00 Build 0)  -->
<svg version="1.1" id="BELIDAYS" xmlns="http://www.w3.org/2000/svg" xmlns:xlink="http://www.w3.org/1999/xlink" x="0px" y="0px"
	 viewBox="0 0 580 763.9" style="enable-background:new 0 0 580 763.9;" xml:space="preserve">
<style type="text/css">
	.st0{fill:url(#sky_2_);}
	.st1{fill:#F1580C;}
	.st2{fill:#F7B64D;}
	.st3{fill:#F8670E;}
	.st4{fill:url(#sun_1_);}
	.st5{fill:url(#water_2_);}
	.st6{opacity:0.2;}
	.st7{opacity:0.65;fill:url(#SVGID_1_);}
	.st8{fill:#FFD19F;}
	.st9{fill:#4F1A10;}
	.st10{opacity:0.1;fill:url(#shadow_1_);}
	.st11{fill:#3C090A;}
	.st12{opacity:0.1;fill:url(#shadow_2_);}
	.st13{fill:#FFFFFF;}
</style>
<linearGradient id="sky_2_" gradientUnits="userSpaceOnUse" x1="289.322" y1="353.7823" x2="289.322" y2="17.2804">
	<stop  offset="0" style="stop-color:#FFC971"/>
	<stop  offset="1" style="stop-color:#FC9924"/>
</linearGradient>
<rect id="sky_1_" x="16.2" y="18.9" class="st0" width="546.3" height="349.4"/>
<g id="clouds">
	<path class="st1" d="M73.6,134c26.9-0.6,53.7-1.6,80.3-4.4c-36.3-4-73.1-3.1-109.6-4.6c-1.1,0-2.2,0-3.2-0.1
		c-10-0.2-19.9-0.4-29.9-0.5v12c19.7-0.5,39.5-1,59.2-2.4C71.5,134.1,72.6,134,73.6,134z"/>
	<path class="st2" d="M373.4,157.2c11.9-0.7,23.5-0.7,35.4,0.5c4.4,0.2,8.9,0.9,13.2,0.9c-1.9-0.5-4-0.5-5.9-0.9
		c1.2-0.7,2.4,0.5,3.5-0.2c-83.7-5.2-167.4-6.1-251.1-9c9.2,1.9,18.6,1.9,27.8,3.5c-31.6,0-63-2.6-94.5,0.5c91,0.5,182,5.2,273,7.8
		c-0.8,0.2-1.5,0.3-2.3,0.4c6.6-0.4,13.2-0.8,19.8-1.4C386.2,157.5,379.8,158.2,373.4,157.2z"/>
	<path class="st2" d="M303.5,164.2c-0.5,0-1-0.1-1.4-0.2c0.7,0,1.3-0.1,2-0.1c-0.9,0-1.8-0.1-2.7-0.1c4-0.7,8-0.2,11.8-1.7
		c-59.9-2.4-119.5-5.4-179.4-4.7c-40.8,0.4-81.7,1.7-122.5,1.2V174c46.9-1.8,93.7-2.8,140.6-4.2c33.9-0.9,67.8,1.1,101.9-0.5
		c13.5,1.2,27.1,0.3,40.6,1.8c0,0,0.4,0,1.2-0.1c5.9-0.9,12-0.9,17.9-1.6c-16.4-0.2-33.1,0.5-49.5-0.7c17.6-1.1,35-2.5,52.6-4
		c-4.3-0.6-8.4,0-12.7-0.3c-3.9,0-7.8,0.1-11.6,0.2C296,164.3,299.7,164.3,303.5,164.2z"/>
	<path class="st1" d="M394.3,217.1c-4.4-0.5-8.7-1-13.1-1.4c-1.1-0.1-2.2-0.2-3.3-0.3c-19.3-2.3-38.6-2.7-58.2-4.6
		c-9-0.9-17.7-2.8-26.2-5.7c3.1-1.2,6.4-0.7,9.4-1.7c-0.9-0.9-2.4-0.5-3.5-0.7c7.8-1.7,16.7,0.2,23.8-3.8
		c-81.3-8.5-165-3.1-247.3-4.7c-21.6-0.5-43.2-1.1-64.8-1.2v39.6c45.5-3.7,90.3-6.8,135.6-6c1,0,2-0.1,2.9-0.1
		c8.9-0.4,17.7-1.1,26.8-1.8c75.4-5.4,212.9,4.2,225.1-3.7c0,0,0.1,0,0.2-0.1C402.1,217.1,396.7,217.3,394.3,217.1z"/>
	<path class="st2" d="M567.6,331.5c-50.5-2.1-100.8-4.2-151.4-3.6c-69.8,0.7-139.8,4-209.3-3.6c-1.1-0.1-2.1-0.3-3.2-0.4
		c-3.2-0.4-6.4-0.9-9.6-1.3c-3.1-0.2-7.1-0.9-9-3.8c13.2-4.5,26.9-8.3,40.7-9.5c1-0.1,2-0.2,2.9-0.2c41.5-2.3,82.7-1.6,124.2-4.4
		c1.1,0,2.1,0,3.2-0.1c26.9-0.6,53.7-1.6,80.3-4.4c-36.3-4-73.1-3.1-109.6-4.6c-1.1,0-2.2,0-3.2-0.1c-39.3-0.8-78.6-1.2-117.9-1.9
		c-1.1,0-2.1,0-3.2-0.1c-9-0.2-18-0.3-27-0.5c-1,0-2,0-3,0c-22.5-0.8-44.9-0.4-67.2,0.3c-1.1,0-2.1,0.1-3.2,0.1
		c-30.5,1.9-60.6,1.5-90.9-0.4v46.1c28.4,1.3,56.8,2.8,85.2,4.7c1.1,0,2.1,0.1,3.2,0.1c10.1,0.6,20-0.1,30.2,0.6
		c29.5,1.7,59,2.8,88.5,3.3c1.1,0,2.2,0,3.3,0.1c70.9-4.1,141.9-5.5,212.9-7.6c33.9-0.9,67.8,1.1,101.9-0.5
		c10.4,0.9,20.8,0.6,31.3,1.1V331.5z"/>
	<path class="st1" d="M567.6,322.3c-38.8-1.1-77.6-2-116.5-3.3c9.2,1.9,18.6,1.9,27.8,3.5c-31.6,0-63-2.6-94.5,0.5
		c61.1,0.3,122.1,2.5,183.2,4.8V322.3z"/>
	<path class="st3" d="M494,178.2c-20,1.4-39.9,3.2-59.9,3.4c-0.7,0-1.4,0-2.1,0c-3.5,0.1-7.1,0.2-10.6,0.2c-0.1,0-0.2,0-0.3-0.1
		c-2.5-0.8-5-1.3-7.6-1.3c-1.1,0-2.2,0-3.3,0.1c-0.7,0-1.5,0-2.2,0c-17-0.3-34.1-0.5-51.2-0.5c-0.8,0-1.5,0-2.3,0
		c-16.5,0.6-33.4-1.3-49.4,3.1c30.5,7.4,62.1,10.2,93.8,11.4c0.8,0,1.6,0.1,2.3,0.1c1.5,0,2.9,0,4.4-0.1c0.7,0,1.5,0,2.2,0
		c5.4-0.4,10.9-0.8,16.3-1.3c0.8-0.1,1.6-0.1,2.3-0.2c23.6-2,46.8-4.7,70.5-7.2c22.7-2.4,44.9-2.4,67.5-2c1,0,2.1,0,3.1,0v-6.2
		C543,176.5,518.6,176.5,494,178.2z"/>
	<path class="st2" d="M530.9,118.8c-0.7,0.1-1.4,0.2-2.2,0.3c-2.2,0.3-4.3,0.6-6.4,1c-1,0.2-2,0.3-3,0.5c-1,0.2-1.9,0.4-2.9,0.5
		c-32.8,4.5-59.4,4.5-88.9,4.5c-26.2,0-51.9-5.4-78.3-7.3c-5.7-0.5-11.6-1.7-17.2-0.7c67.9,15.6,137.2,17.4,206.8,12.3
		c1.1-0.1,2.1-0.2,3.2-0.2c1.1-0.1,2.1-0.2,3.2-0.2c7.4-0.6,14.9-1.2,22.3-1.7v-16.8C557.2,112.6,543.3,116.7,530.9,118.8z"/>
	<path class="st3" d="M485.5,80.6c10.6,0,20.4,0.4,28.4-0.6c19.2-1.9,36.5-2.7,53.8-3.8v-28c-35.3-0.9-70.6,0.6-105.8,1.1
		c-1.1,0-2.2,0-3.2,0c-29,0.3-58.1,0.6-87.2,1.3c-15.8,0.5-31.6,1.7-47.2,3.5c-1.1,0.1-2.1,0.2-3.2,0.4c-1.1,0.1-2.1,0.3-3.2,0.4
		c-31.4,3.8-61.5,9.9-92.7,10.8c-1.1,0-2.1,0-3.2,0c-32.7,0.3-65.4,0.4-98.2,0c-1.1,0-2.1-0.1-3.2-0.1c-36.5-1.2-73-2.2-109.5-2.1
		v11.8c2.3,0.5,4.6,1,6.8,1.6c-2.3,0.2-4.6,0.4-6.8,0.6v17.2c49.7,1.8,99.5,1.2,149.3,0.6c1.1,0,2.2,0,3.2,0c18.5,0,37.1,0,55.6,0
		c1.1,0,2.2,0,3.3,0c5.3,0.1,10.6,0.2,15.9,0.3c1.1,0,2.1,0,3.2,0.1c37.3,0.2,74.3,0.7,111.5,2.2c1.1,0,2.1,0,3.2,0
		c32.7-0.1,65.4,0,98.1,2.8c1.1,0,2.2,0.1,3.3,0.1c32.7,1.1,65.4,2.4,98.1,4c3.9,0.2,7.8,0.4,11.8,0.6v-5.6c-3-0.6-5.9-1.1-8.9-1.4
		c-11.3-0.9-21.9-2.4-33.2-3.5c-10.3-1-26.9-6.3-37-7.8c-1-0.1-2-0.3-3-0.4c-4.5-0.8-10.4-0.6-13.4-4.6c0.8-0.4,1.7-0.7,2.5-1.1
		C475.4,80.5,484.6,80.6,485.5,80.6z"/>
	<path class="st1" d="M567.6,49.6c-2-0.1-3.4-2.4-5.4-2.5c-15.5-1-31.6,0.5-47.1,0c-1,0-2.1-0.1-3.1-0.1c-2.5-0.2-5-0.3-7.5-0.4
		c-0.8,0-1.7-0.1-2.5-0.1c-7.9-0.4-16-0.6-24-0.4c-31.5,1-62.9,1.6-94.4,1.9c-1,0-2.1,0-3.1,0c-28.6-1-56.9,0.9-85.2,2.3
		c5.2-1.9,10.6-2.8,15.3-6.1c6.8-4.7,14.4-5,21.7-5.7c-3.3-0.2-6.8,0.5-10.1,0.7c12.7-1.9,25.5-2.1,38.2-4.1
		c0.6-0.1,1.3-0.2,1.9-0.3c2.6-0.4,5.1-0.8,7.7-1.3c-0.2-0.5-0.7-0.7-1.2-0.7c-3.6,0-7.2,0-10.8,0.1c-0.9,0-1.8,0-2.7,0
		c-44.7,1.3-89.5,1.3-134.3-2.7c-1.1-0.1-2.1-0.2-3.2-0.2c-31-2.4-61.9-5.7-92.8-9.2c-1-0.1-2-0.1-3.1-0.2c-2-0.1-4.1-0.2-6.1-0.3
		c-1.1-0.1-2.1-0.1-3.2-0.2C78.8,17.8,45,16.3,11.2,14.6v30c6.4-0.4,12.9-0.8,19.3-1.2c1-0.1,2.1-0.1,3.1-0.2c1,0,2.1-0.1,3.1-0.1
		c1,0,2.1-0.1,3.1-0.1c39.4-0.2,78.3-3.7,118.2,1.7c4.3,0.6,8.6,1.1,12.9,1.4c1.1,0.1,2.1,0.2,3.2,0.2c1,0,2,0.1,3,0.1
		c1,0,2,0.1,3,0.2c28.2,2.1,56.3,6.5,84.6,8.4c0.2,0,0.7,0.7,0.5,0.9c-6.1,5.7-15.6,3.1-22.9,6.4c33,2.4,65.3-3.5,98.1-6.4
		c12-0.9,23.8,0.9,35.9,0.1c1,0,2.1,0,3.1,0c40.6-0.3,81.1-0.8,121.7-2.3c1,0,2,0,3.1,0.1c3.1,0.1,6.1,0.2,9.2,0.3
		c1,0,2.1,0,3.1,0.1c17.1,0.3,34.1,0.5,51.2,0.5V49.6z"/>
	<path class="st2" d="M565.2,260.6c0.5-0.7,1-1.5,1.5-2.2c0.3-0.4,0.6-0.9,0.9-1.3V215c-46.2,0-91.9,0.3-138.6,5.7
		c-4,0.5-78.7-0.1-82.6,0.2c-1.1,0-2.1,0-3.2,0c-48.3,0.4-25.7,0.3-74.1-0.9c-22.2-0.5-17.4-1-39.6,4.2c-2.8,0.8-6,1.8-8.4,3.5
		c-2.8,1.9-3.8,5.7-2.1,8.7c0,0,0,0.1,0.1,0.1c1.2,2,3.4,3.2,5.7,3.1c0.1,0,0.2,0,0.3,0c62.4,1.6,124.5,4.6,186.9,7
		c1.1,0,2.1,0.1,3.2,0.1c-1.1,0-2.1,0-3.2,0c-56,0.5-112-4.5-168.2-2.4c-5.7,0.2-11.3,0.2-17,1.9c1.7,1.7,3.8,2.1,5.9,2.8
		c8.7,3.1,18.2,3.5,26.2,9.4c0.9,0.7,0.9,2.1,0,2.8c-6.8,3.3-14.1,3.8-21.2,5.6c-1,0.2-2.1,0.5-3.1,0.7c-11.5,2.6-22.8,6-33.9,10.5
		c-0.8,0.2-1.5,0.8-1.9,1.5c-1.2,3.7,2.6,6.5,5.4,7.5c27.8,9,56.6,11.3,85.3,13c34.7,2.1,69.1,1.4,103.7,0
		c22.9-0.7,45.7,1.4,68.6,0.5c-0.9-0.9-2.6,0-3.3-1.2c10.4-0.5,21,1.2,31.4,0c-3.8-1.4-8-1.7-12-2.8c18.4-0.5,35.1,4,53.8,7.8
		c12.3,2.5,24.1,3.1,36.1,3.6v-35.2c-0.3-0.1-0.6-0.3-0.9-0.4c-1.1-0.6-2.1-1.4-2.8-2.4c-0.4-0.5-0.7-1.1-0.9-1.7
		c-0.8-1.6-0.3-3.5,0.7-5.1C564.2,262.1,564.7,261.3,565.2,260.6z"/>
</g>
<linearGradient id="sun_1_" gradientUnits="userSpaceOnUse" x1="262.4814" y1="225.4949" x2="292.899" y2="376.1685">
	<stop  offset="0" style="stop-color:#FEC669"/>
	<stop  offset="1" style="stop-color:#FEE7BB"/>
</linearGradient>
<path id="sun_2_" class="st4" d="M290.1,225.5C210.5,225.5,146,290,146,369.6h288.3C434.2,290,369.7,225.5,290.1,225.5z"/>
<linearGradient id="water_2_" gradientUnits="userSpaceOnUse" x1="289.322" y1="661.0022" x2="289.322" y2="350.7201">
	<stop  offset="0" style="stop-color:#AC1B00"/>
	<stop  offset="1" style="stop-color:#F8981B"/>
</linearGradient>
<rect id="water_1_" x="16.2" y="350.8" class="st5" width="546.3" height="396.6"/>
<g id="waves" class="st6">
	<linearGradient id="SVGID_1_" gradientUnits="userSpaceOnUse" x1="289.4044" y1="350.0099" x2="289.4044" y2="749.8976">
		<stop  offset="0" style="stop-color:#FDCD56"/>
		<stop  offset="1" style="stop-color:#FFC86F"/>
	</linearGradient>
	<path class="st7" d="M567.2,419.9c0.2,0,0.3,0,0.5,0v0C567.5,419.9,567.3,419.9,567.2,419.9z M510.5,503.7c0.2,0.3,0.3,0.5,0.3,0.5
		c19,0.1,37.9,0,56.9,0v-0.4c-19.4,0.2-38.7-0.2-58.2-1.1c0.7,0.2,1.4,0.2,2.1,0.7C511.3,503.6,510.6,503.1,510.5,503.7z M360.1,674
		c0.1,0,0.2,0,0.3,0c0.1,0,0.1,0,0.2,0C360.4,674,360.4,674,360.1,674z M298.9,525.2l88.1,1.8c0.3,0,0.6,0,0.9,0
		c19.4,0.8,38.8,1.4,58.1-1.1c-16.3-0.7-34.3,3.6-49.7-2.8c-0.5-0.2-1.1-0.4-1.7-0.6c-0.6-0.2-1.3-0.4-2-0.6
		c-0.1-0.1-0.1-0.2-0.1-0.2C361.7,526.6,330.1,525.4,298.9,525.2z M337.5,676.6c-0.3,0.1-0.7,0.1-1,0.2c-0.1,0-0.1,0-0.2,0.1
		C336.8,676.8,337,676.8,337.5,676.6z M272.1,581.2c6.4-0.5,13,0,19.3,0.7c-0.4-0.1-0.8-0.2-1.3-0.2c0.6,0,1.2,0.1,1.9,0.1
		c-0.7-0.1-1.3-0.1-2-0.2c-0.1,0-0.3,0-0.4-0.1c40.7,2.8,81.6,0.3,122.3,2.3c0.3,0,0.6,0,0.9,0c19.4,0.8,38.8,1.4,58.1-1.1
		c-16.3-0.7-34.3,3.6-49.7-2.8c-0.5-0.2-1.1-0.4-1.7-0.6c-0.6-0.2-1.3-0.4-2-0.6c-0.1-0.1-0.1-0.2-0.1-0.2
		c-30.9,4.9-62.5,3.7-93.6,3.5c17.9-1.2,36.1,0,53.8-3.3c-6.4-1.2-13-0.2-19.3-0.5c-0.2,0-0.4,0-0.6,0c-2.7,0-5.4,0-8.1,0
		c-0.2,0-0.4,0-0.6,0c-4.9,0-10.1,0-15,0c-0.2,0-0.4,0-0.6,0c-3,0-6,0-8.8,0c-0.2,0-0.4,0-0.5,0
		C306.8,579.3,288.6,575.8,272.1,581.2z M285.1,581.3c-1.3-0.1-2.5-0.2-3.8-0.3C282.5,581.1,283.8,581.2,285.1,581.3z M564.7,416.7
		c-0.2,0-0.4,0-0.6,0c-1.8,0-3.5,0-5.1,0c-0.2,0-0.5,0-0.7,0c-1.7,0.3-3.4-0.4-5,0.6c4.7,1.4,9.6,1.6,14.4,1.8v-2.4
		c-0.2,0-0.3,0-0.5,0C566.3,416.7,565.5,416.7,564.7,416.7z M292,581.8c4.4,0.3,8.8,0.7,13.1,1C300.7,582.5,296.4,582.1,292,581.8z
		 M556.5,499.8c-0.2,0-0.4,0-0.6,0c-3.4,0-6.8,0-10.1,0c-0.2,0-0.4,0-0.6,0c-4.2,0.5-8.7-0.9-12.9,0.7c11.7,1.9,23.6,2.1,35.4,2.5
		v-3.2C564,499.8,560.3,499.8,556.5,499.8z M478,468.4c0.5,0,1,0,1.6,0c1.1,0,2.1,0,3.2,0C481.2,468.4,479.6,468.4,478,468.4z
		 M464.1,436.6c-0.2,0-0.4,0-0.6,0c-2.7,0-5.4,0-8.1,0c-0.2,0-0.4,0-0.6,0c-4.9,0-10.1,0-15,0c-0.2,0-0.4,0-0.6,0c-3,0-6,0-8.8,0
		c-0.2,0-0.4,0-0.5,0c-17.3,0.9-35.4-2.6-51.9,2.8c6.4-0.5,13,0,19.3,0.7c-0.4-0.1-0.8-0.2-1.3-0.2c0.6,0,1.2,0.1,1.9,0.1
		c-0.7-0.1-1.3-0.1-2-0.2c-0.1,0-0.3,0-0.4-0.1c40.7,2.8,81.6,0.3,122.3,2.3c0.3,0,0.6,0,0.9,0c16.4,0.7,32.7,1.2,49-0.1v-0.9
		c-13.7,0.5-28,2.4-40.6-2.8c-0.5-0.2-1.1-0.4-1.7-0.6s-1.3-0.4-2-0.6c-0.1-0.1-0.1-0.2-0.1-0.2c-30.9,4.9-62.5,3.7-93.6,3.5
		c17.9-1.2,36.1,0,53.8-3.3C477,435.9,470.4,436.9,464.1,436.6z M391,439.5c-1.3-0.1-2.5-0.2-3.8-0.3
		C388.4,439.4,389.7,439.5,391,439.5z M503.9,701.9c-0.2,0-0.4,0-0.7,0c-1.6,0-3.4,0-5.3,0c-0.3,0-0.6,0-0.8,0
		c-18-0.1-35.6-0.1-53.6,0c-0.2,0-0.4,0-0.7,0c-0.7,0-1.3,0-2,0c-0.2,0-0.4,0-0.7,0c-4.6-0.1-9.6-0.1-14.3,0c-0.2,0-0.4,0-0.6,0
		c-0.8,0-1.7,0-2.5,0c-0.2,0-0.4,0-0.6,0c-14.7-0.1-29.8-2.7-43.9,1.1c-12.3,3.3-25.2,3.3-37.5,5.7c-0.2,0-0.3,0.1-0.3,0.1
		c0,0.1-0.1,0.2-0.2,0.2c2.3,0.8,4.6,0.4,6.9,0.2h-0.2c16.5-0.2,32.8-0.9,49.3-2.4c9-0.8,18-0.7,26.9-0.6c-0.3,0-0.5-0.1-0.8-0.1
		c29.7-1.4,59.9,0.9,89.1-4.2C508.8,701.9,506.5,701.9,503.9,701.9z M206.2,576.2c-22.7,0.9-45.6,0.4-68.4,0c-0.3,0-0.6,0-0.9,0
		c-12.8-0.2-25.6-0.2-38.4-0.3c-0.1,0-0.3,0-0.4,0c-2,0-3.9,0-5.9,0c-0.2,0-0.4,0-0.6,0c-12.7,0.1-25.5,0.1-38.2,0
		c-0.1,0-0.2,0-0.2,0c-0.1,0-0.1,0-0.1,0s0,0.1,0,0.2c-0.2,0.1-0.4,0.3-0.7,0.6c-13.4,3.3-27.4,2.8-41.2,3.8v0.9c1.1,0,2.2,0,3.3,0
		c45-0.2,90.1-1.4,135.1-1.1c0.3,0,0.6,0,0.9,0c25.9-0.1,51.6-0.6,77.9-4.1c1.5-0.2,3-0.3,4.4-0.3
		C223.9,575.7,215.1,575.8,206.2,576.2z M340.2,709c-0.1,0-0.1,0-0.2-0.1C339.9,708.9,340,709,340.2,709z M257.3,577.2
		c0-0.1-0.4-0.2-0.4-0.2c-0.1,0.1,0,0.1,0.1,0.1c-6.2-0.5-12.5-0.9-18.7-1.1C244.7,576.4,251,577.4,257.3,577.2z M431.5,706.3
		c-2.8,0-5.6-0.1-8.4-0.1C425.9,706.6,428.7,706.4,431.5,706.3z M431.5,706.3c1.3,0,2.7,0,4,0C434.2,706.3,432.8,706.3,431.5,706.3z
		 M507,544.8c3.5,0,7,0,10.4,0c-3.4,0-6.8,0-10.2,0c19.8,0.3,39.5,1.8,59.3,2.4c0.4,0,0.8,0,1.2,0v-1.3c-3.3-0.5-6.3-1.6-9.1-3.4
		c0-0.3,0-0.6,0-0.8c0-0.8,0-1.4,0-1.4s-4.9,0-12.7,0c-0.3,0-0.5,0-0.8,0c-9.6,0-19,0-28.7,0c-0.2,0-0.4,0-0.6,0c-0.2,0-0.4,0-0.6,0
		c-4.9,0-9.9,0-14.7,0c-0.2,0-0.4,0-0.7,0s-0.4,0-0.7,0c-4.7,0-9.6,0-14.5,0c-0.2,0-0.4,0-0.7,0c-0.4,0-0.9,0-1.3,0
		c-0.2,0-0.4,0-0.7,0c-13.6,0-27.2,0-40.7,0c-0.1,0-0.3,0-0.4,0c-2.8,0-5.3,0-7.5,0c-0.2,0-0.4,0-0.7,0c-2.5,0-5,0-7.4,0
		c21.7,4.7,43.9,2.8,65.8,4.4c0.6,0,0.7,0.1,0.7,0.1c0.8,0,1.6,0,2.4,0C498.4,544.7,502.7,544.7,507,544.8z M507.2,544.8
		c-0.1,0-0.1,0-0.2,0c-4.3,0-8.6,0-12.9,0c-0.7,0-1.3,0-2,0C497.2,544.8,502.2,544.8,507.2,544.8z M521.6,468.9c0.9,0,1.8,0,2.7,0
		C523.3,468.9,522.4,468.9,521.6,468.9z M397.9,440.1c4.4,0.3,8.8,0.7,13.1,1C406.6,440.7,402.2,440.4,397.9,440.1z M361.3,674.3
		c-0.4-0.2-0.6-0.2-0.9-0.2c-6.5,0.2-13.1-0.9-19.9-0.2c-17.7,1.9-34.9,3.8-52.8,2.8c-33.7-2.1-67.2,0-100.9-0.7
		c0.7,0.5,1.7,0.5,2.6,0.5c20,0.5,40.1-1.2,60.1,0.2c-12.3,1.2-25,0-37,3.3c2.1,1.7,5.4,2.1,8.3,2.4c0.3,0,0.6,0,0.9,0
		c3.2,0.2,6.3,0.3,9.4,0.4c0.2,0,0.3,0,0.3,0c7.7,0.4,15.7,0.2,23.5,0.6c-10.4-0.8-20.8-0.6-31.2-1.9c-0.3,0-0.6-0.1-0.8-0.1
		c-1.2-0.1-2.2-0.5-3.1-0.8c38.8-1.4,78.1,2.5,116.6-3.8C344.5,673.3,353.1,675.7,361.3,674.3z M478,468.4c-0.5,0-1.1,0-1.6,0
		c2.2,0,4.3,0,6.4,0c2.7,0,5.5,0,8.3,0c-11.4-0.2-22.9,0-34.3,0.7c-16.6,0.6-33.3,1.3-49.9,1c14.4,2.4,29.2,0.5,43.7,2.8
		c0.4,0.1,0.6,0.2,0.6,0.2c24.9-0.1,49.4-0.1,74.1,0c0.2,0,0.4,0,0.7,0c2.6,0,5.2,0,7.8,0c0.2,0,0.4,0,0.6,0c4.9-0.1,9.8-0.1,14.8,0
		c0.2,0,0.4,0,0.6,0c2.2,0,4.2,0,6.3,0c0.2,0,0.4,0,0.5,0c3.1-0.3,6.2,0.6,9-0.8c-16.7-2.8-34-1.9-50.9-3.1c2.4-0.3,4.7-0.3,7-0.3
		c-0.8,0-1.5-0.1-2.3-0.2c0.2,0,0.5,0,0.7,0c-0.4,0-0.8,0-1.2,0c-0.4-0.1-0.8-0.1-1.1-0.2c0.1,0.1,0.2,0.1,0.4,0.2
		c-12.9-0.3-25.6,0-38.5-0.1c-7.3,0.1-14.6,0.3-21.9,0.6C464.4,468.7,471.2,468.5,478,468.4z M232.8,575.9c1.9,0,3.7,0.1,5.6,0.1
		C236.5,575.9,234.7,575.8,232.8,575.9z M75.5,388.1c-10.4-1.7-20.7-1.9-31-1.6c-0.2,0-0.4,0-0.6,0c-0.4,0-0.7,0-1.1,0
		c-0.2,0-0.4,0-0.6,0c-0.3,0-0.6,0-0.8,0c-0.3,0-0.6,0-0.8,0c-9,0.1-8.7,0.2-17.5,0c-0.3,0-0.6,0-0.9,0c-3.6,0-7.3,0.5-11,1v2.2
		c2.4-0.1,4.9-0.2,7.3-0.3c0.2,0,0.3,0,0.5,0c14.2,1.2,19.3,1.8,33.6,1.5c0.3,0,0.6,0,0.9,0c2,0.1,4,0.2,6,0.3
		c11.8,0.7,23.8,0.2,35.6,0.8c0,0,0.2-0.2,0.1-0.4C88.7,389.3,82.1,389.3,75.5,388.1z M117.3,676.1c-0.7-2.1-3.5-1.4-5.4-1.7
		c0-0.2,0.2-0.2,0.2-0.5c-24.8,2.1-49.7,1.9-74.5,1.4c15.3-0.9,30.9-0.2,46.2-2.8c-24.3-2.1-48.4-0.7-72.6-0.8v4.6
		C46.5,676.5,81.9,675.5,117.3,676.1z M118.1,711c-7.8-0.2-15.7-0.2-23.5-0.3C102.4,710.9,110.2,711,118.1,711z M55.5,421.6
		c-0.5-0.2-1.1-0.4-1.7-0.6c-0.6-0.2-1.3-0.4-2-0.6c-0.1-0.1-0.1-0.2-0.1-0.2c-13.4,2.1-27,3.1-40.6,3.5v0.9
		c11.7,0.1,23.4,0.3,35.1,0.8c0.3,0,0.6,0,0.9,0c19.4,0.8,38.8,1.4,58.1-1.1C89,423.7,71,428,55.5,421.6z M202.1,551.3
		c-1.6,0-3.2,0.1-4.9,0.1c0.4,0,0.8,0,1.2,0c-3.7,0-7.5,0.1-11.2,0.1c-5.2,0.1-10.4,0.1-15.6,0.2c1.4,0,2.8-0.1,4.2-0.1
		c-0.5,0-1,0-1.5,0c-0.4,0-0.8,0-1.1,0c0.1,0,0.2,0,0.3,0c-42.6,0.1-85.2-0.4-127.8,0.8c-0.3,0-0.6,0-0.9,0
		c-4.9,0.3-9.8,0.6-14.7,1.1c-6.4,0.7-12.6,0.5-18.9,0.1v1.2c17.2,1.1,34.4,1.4,51.6,1.4c0.3,0,0.6,0,0.9,0
		c17.3-0.4,34.3-0.1,51.5-0.2c0.3,0,0.6,0,0.9,0c2.3,0,4.7,0,7,0.1c0.2,0,0.4,0,0.7,0c0.6,0,1.2,0,1.8,0c0.1,0,0.3,0,0.4,0
		c5,0,9.8,0,14.7,0c0.2,0,0.4,0,0.6,0c4.8,0,9.4,0,13.6,0c0.2,0,0.4,0,0.6,0c8.8,0,17.7,0.5,26.5-0.2c0.7,0,1.7-0.5,2.4-0.7
		c17.9-2.6,35.6-2.1,53-5.4c-13.3,1-26.6,1.4-39.9,1.6C199,551.4,200.5,551.3,202.1,551.3z M214.6,711.7c-0.2,0-0.3-0.1-0.5-0.1
		C214.3,711.6,214.5,711.7,214.6,711.7z M184,465.4c-37.6,1.1-75.5-0.8-113.1-0.7c-0.3,0-0.6,0-0.9,0c-16.5,0.1-32.8,0.6-49.3,1.6
		c-3.2,0.2-6.3,0.5-9.4,0.7v2.8c0,0,0,0,0,0c27.3-1.2,54.7-0.2,82-0.4c0.3,0,0.6,0,0.9,0c30.1-0.2,60.1-1,90.1-3.8
		C184.1,465.5,184,465.4,184,465.4z M556.6,571.6c-0.2,0-0.4,0-0.6,0c-3.5,0-7,0-10.5,0c-0.2,0-0.4,0-0.7,0
		c-22.4-0.1-45-0.1-67.4-0.1c4.5,4.2,11.8,2.4,17.1,4.4c0.4,0.1,0.5,0.2,0.5,0.2c24.2-0.1,48.5-0.2,72.7-0.1v-4.6
		C563.9,571.5,560.2,571.5,556.6,571.6z M567.6,676.4v-4c-15.2,0.8-30.3,2.2-45.5,2.3h0.2c-32.3,0.5-65.1-1.2-96.8,4.2
		c-0.3,0.1-0.4,0.2-0.4,0.2c2.4,0.1,5,0.1,7.5,0c0.2,0,0.4,0,0.7,0c0.5,0,0.9,0,1.4,0c0.2,0,0.5,0,0.7,0c41,0.1,81.7,3.6,122.8-1.6
		C561.1,677.2,564.3,676.8,567.6,676.4z M175.9,551.5c-0.1,0-0.2,0-0.2,0c3.8,0,7.7,0,11.5,0c0.9,0,1.7,0,2.6,0c2.5,0,5,0,7.5-0.1
		c-0.3,0-0.6,0-0.9,0c0.3,0,0.7,0,1,0c-0.5,0-1,0-1.6,0c-7.4-0.1-14.9,0.1-22.4,0.2c0.3,0,0.5,0,0.8,0
		C174.8,551.5,175.4,551.5,175.9,551.5z M522.1,389c13.2-1.2,26.4-0.7,39.4-3.3c-5.7-0.7-11.1,0-16.7-0.2c-0.2,0-0.4,0-0.6,0
		c-5.1,0-10,0-14.6,0c-0.2,0-0.4,0-0.6,0c-10.7,0-22-2.1-31.7,1.2c-12.7,4-27.1,6.1-40.3,5.9c-0.4,0-0.6,0-0.6,0
		c-1.2,0-2.2,0-3.4,0.2c3.4,0.5,6.9,0.9,10.3,1.1c-0.3,0-0.6,0.1-0.9,0.1c-0.1,0-0.2,0-0.3,0c0.6,0,1.3-0.1,1.9-0.1
		c2.3,0.1,4.6,0.2,6.9,0.2c3.6,0.4,7.2,0.4,10.7-0.1c-2.7,0.1-5.3,0.2-8,0.1c3.6-0.1,7.3-0.2,10.9-0.5c8.1-1,16.1-1.8,24.2-2.4
		c-2.6,0.3-5.3,0.6-7.9,0.9c3.6-0.4,7.3-0.8,10.9-1.1c18.7-1.2,37.2-1.3,55.8-1.2v-1.6c-19.2,0.5-38.4,1.2-57.5,2.2
		C514.1,389.7,518.1,389.2,522.1,389z M285.4,740.7c0.2,0,0.3,0,0.5,0c1.8,0,3.5,0,5.1,0c0.3,0,0.5,0,0.8,0
		c3.8,0.1,7.6,0.8,10.9-0.4c12.5-4,26.4-1.4,39.1-3.8c-1.5,0-2.8,0-4.2-0.2c0.2,0,0.4,0.1,0.5,0.1c-32.4-1.1-64.7-0.6-97.1-0.8
		c6.1,0.1,12.2,0.3,18.2,0.6c-28.5,1.2-57.1,0.2-85.3,3.4c-0.3,0.1-0.4,0.1-0.4,0.1C210.9,742.2,248.2,740.1,285.4,740.7z
		 M162.4,716c0.2,0,0.3,0,0.5,0c1.8,0,3.5,0,5.1,0c0.3,0,0.5,0,0.8,0c3.8,0.1,7.6,0.8,10.9-0.4c12.5-4,26.4-1.4,39.1-3.8
		c-1.5,0-2.8,0-4.2-0.2c0.2,0,0.4,0.1,0.5,0.1c-32.4-1.1-64.7-0.6-97.1-0.8c6.1,0.1,12.2,0.3,18.2,0.6c-28.5,1.2-57.1,0.2-85.3,3.4
		c-0.3,0.1-0.4,0.1-0.4,0.1C88,717.5,125.2,715.4,162.4,716z M337.6,736.4c-0.2,0-0.3-0.1-0.5-0.1
		C337.2,736.3,337.4,736.4,337.6,736.4z M62.4,610.6c13.2,0.1,26.4,0.3,39.5,0.4c29.1,1.5,58.2-2.5,87.3-3.7
		c-3.3-0.5-6.4-0.5-9.7-0.5c-27.6,1.2-55.2,2.1-82.8,1.4c19.8,3.3,39.8,1.2,59.7,0.7c-10.1,0.7-20.4,1.2-30.6,1.8
		c-8.5,0.2-16.9,0.2-25.4,0.1c-8-0.1-16-0.5-23.9-1.2c-17.4-1.7-34.7-2.6-52.1-2.7c-0.3,0-0.6,0-0.9,0c-4.1-0.1-8.2-0.3-12.4-0.4
		v4.6C28.2,611.8,45.4,610.4,62.4,610.6z M132,610.6c7.1-0.2,14.3-0.6,21.4-1.2C146.3,610,139.1,610.3,132,610.6z M113,527.6
		c14,1.2,28,2,42,1.4C141,529.3,127.1,528.6,113,527.6z M158.1,527.7c1.9,0.2,3.8,0.4,5.8,0.7c0.4,0,0.7-0.1,1.1-0.1
		C162.6,528.1,160.4,527.9,158.1,527.7z M44.4,500.3c-10.9-2.4-22.1-2.7-33.3-2.8v3.4c0.1,0,0.3,0,0.4,0
		C22.5,500.3,33.6,501.4,44.4,500.3z M150.7,527.2c2.5,0.1,4.9,0.3,7.4,0.5C155.6,527.5,153.1,527.4,150.7,527.2z M129.8,497.2
		c-1.2,0-2.4,0-3.6,0c-4.3,0.4-8.6,0.7-12.9,1C118.8,498,124.2,497.8,129.8,497.2z M84.8,524.5c-8.3-0.9-16.5,0-24.8-0.2
		c5.7-0.5,11.1-0.9,16.7-0.7c27.8,0.9,55.4,5.7,83.5,4.5c-5.8-0.6-11.4-0.8-17.2-1.2c-3.9-0.2-7.7-0.5-11.6-1.2
		c1,0.1,1.9,0.2,2.9,0.3c-2-0.3-3.9-0.6-5.9-1c-21.2-4.7-42-5-62.9-4.8c-0.3,0-0.6,0-0.9,0c-11.9,0.1-23.9,0.4-35.8,0.2
		c-0.2,0-0.4,0-0.6,0c-0.8,0-1.5,0-2.3,0c-0.2,0-0.4,0-0.6,0c-4.8-0.1-9.2-0.1-14,0c-0.1,0-0.1,0-0.2,0v3.5c0.9,0.1,1.7,0.1,2.6,0.2
		c14.9,1,29.8,1.2,44.7,1.1c0.3,0,0.6,0,0.9,0c8.9,0,17.9-0.7,26.8,0c9,0.8,17.9,1.6,26.8,2.3c-10.8-1-21.5-2.2-32.3-3.3
		C82.2,524.3,83.4,524.5,84.8,524.5z M150.7,527.2c-5.5-0.3-10.9-0.6-16.4-1.2c2.9,0.4,5.8,0.7,8.7,0.8
		C145.6,527,148.1,527.1,150.7,527.2z M113.3,498.1c-4.5,0.1-9.1,0.3-13.7,0.7C104.2,498.6,108.7,498.4,113.3,498.1z M252.6,612.9
		c-0.2,0.1-0.2,0.2-0.2,0.2c14.8,0.1,29.4,4.2,44.3,3.7c42.9-0.9,86.8,2.8,129-4.7c-44.6,0-88.9-0.7-133.4,0.5
		c-0.7,0-2.1,1.2-3.3,1.4C276.7,614.4,264.7,611.3,252.6,612.9z M206.7,648.1c6.6-0.9,13.2-1.4,19.8-1.7c0.3,0,0.6,0,0.9-0.1
		c18.6-1.2,37.2-1.4,55.9,0.3c-13.7,0.5-27.8-0.9-41.3,1.9c18.2,1.7,36.5-0.2,54.7-2.1c-25.2-1.2-50.5-1.6-75.7-1.7
		c-0.3,0-0.6,0-0.9,0c-14.9,0-29.5,0.3-44.4,0c-0.3,0-0.6,0-0.9,0c-13.9,0-27.8,0.1-41.8,0c6.4,1.5,13,2.4,19.5,2.8
		c0.3,0,0.6,0,0.9,0.1c4.6,0.4,9.1,0.2,13.5,0.7c-21,4.2-42.4,2.4-63.6,3.8c0.5,0.1,0.9,0.1,0.9,0.1
		C138.5,651.4,172,653,206.7,648.1z M407,647.8c20.3-0.2,40.8,0.2,61.1-0.2c10,0,20-3.1,29.9-2.4c-50.8-3.9-102.2-0.9-153.2-1.8
		c20,5.2,41,2.4,61.6,4.4C406.9,647.8,407,647.8,407,647.8z M164.7,528.5c-0.3,0-0.6-0.1-0.9-0.1c-2.9,0.3-5.9,0.4-8.8,0.6
		C158.2,528.9,161.5,528.7,164.7,528.5z M130.4,496.7c-15.2,0-30.6,0-45.9-0.2c-0.3,0-0.6,0-0.9,0c-24.2-1.5-48.3-1.1-72.5-0.9v0.8
		c24.6-0.2,49.2-0.1,73.9,1c0.3,0,0.6,0,0.9,0c13.4-0.4,26.8-0.2,40.2-0.2c1.2-0.1,2.3-0.2,3.5-0.3
		C130.3,496.7,130.4,496.7,130.4,496.7z M11.2,420.2v0.2c0.2,0,0.5-0.1,0.7-0.1C11.7,420.3,11.4,420.2,11.2,420.2z"/>
</g>
<g id="belidays_x5F_text">
	<path class="st8" d="M302.3,591.8c-1.3,5.1-2.8,10.1-4,15c-0.3,1.2-0.6,2.5-0.9,3.7c-0.2,1.2-0.5,2.4-0.6,3.6
		c-0.1,1.2-0.3,2.3-0.2,3.3c0,0.5,0.1,0.9,0.2,1.2c0.1,0.1,0.1,0.2,0.1,0.3c0,0,0,0,0,0c0,0,0,0,0,0l0,0c0,0,0,0,0,0l0,0
		c0.1,0,0.1,0.1,0.2,0.1c0.2,0,0.4,0.1,0.6,0.1c0.5,0.1,1,0.1,1.5,0.1c1.1,0,2.3-0.1,3.5-0.3c1.2-0.2,2.4-0.4,3.7-0.6
		c0.6-0.1,1.2-0.2,1.9-0.4c0.6-0.1,1.2-0.3,1.9-0.4c5-1.1,10-2.4,15.2-3.4c-1.1,0.8-2.2,1.4-3.4,2.1c-1.1,0.7-2.3,1.3-3.5,1.9
		c-2.4,1.2-4.8,2.2-7.2,3.2c-0.6,0.2-1.2,0.5-1.9,0.7c-0.6,0.2-1.3,0.4-1.9,0.6c-1.3,0.4-2.6,0.7-3.9,1c-1.4,0.3-2.7,0.5-4.2,0.5
		c-0.7,0-1.5,0-2.3-0.1c-0.4-0.1-0.8-0.2-1.3-0.3c-0.2-0.1-0.5-0.1-0.7-0.2l-0.2-0.1l-0.1,0l-0.1-0.1c-0.1-0.1-0.3-0.2-0.4-0.2
		c-0.6-0.4-1-0.8-1.4-1.3c-0.3-0.5-0.6-1-0.8-1.5c-0.1-0.2-0.1-0.5-0.2-0.7c0-0.2-0.1-0.5-0.1-0.7c0-0.2-0.1-0.4-0.1-0.6
		c0-0.2,0-0.4,0-0.6c0-0.8,0-1.6,0.1-2.3c0.1-0.7,0.2-1.4,0.3-2.1c0.3-1.4,0.6-2.7,1.1-4c0.2-0.6,0.4-1.3,0.7-1.9
		c0.2-0.6,0.5-1.2,0.7-1.9c1-2.5,2.2-4.8,3.4-7.1c0.6-1.2,1.3-2.3,2-3.4C300.7,593.9,301.4,592.8,302.3,591.8z"/>
	<path class="st8" d="M304.2,578.3c-0.2,1.1-0.5,2.2-0.8,3.3c-0.1,0.5-0.2,1.1-0.3,1.6c0,0.2,0,0.5,0,0.7c0,0,0,0.1,0,0.1l0,0.1
		c0,0,0,0,0,0c0,0,0,0,0,0c0,0,0,0,0,0c0,0,0,0,0,0c0,0,0.1,0,0.1,0c0.1,0,0.2,0,0.3,0c0.2,0,0.5,0,0.7,0c0.5-0.1,1-0.2,1.6-0.3
		c1.1-0.2,2.2-0.5,3.3-0.6c-0.9,0.7-1.9,1.2-3,1.6c-0.5,0.2-1.1,0.4-1.7,0.5c-0.3,0.1-0.6,0.1-0.9,0.1c-0.2,0-0.3,0-0.5,0
		c-0.2,0-0.4-0.1-0.7-0.2c-0.1-0.1-0.2-0.2-0.3-0.3c-0.1-0.1-0.1-0.2-0.2-0.3c0-0.1,0-0.1-0.1-0.2l0-0.2c0-0.1,0-0.2,0-0.3
		c0-0.4,0-0.7,0.1-1c0.1-0.6,0.3-1.1,0.6-1.7C302.9,580.1,303.4,579.2,304.2,578.3z"/>
	<path class="st8" d="M279.2,570.5c-3.2,8.1-6.6,16-9.9,23.9l-2.5,5.9c-0.8,2-1.6,3.9-2.4,5.9c-0.8,2-1.6,4-2.3,5.9
		c-0.8,2-1.5,4-2.1,6c-0.7,2-1.2,4-1.6,5.9c-0.2,0.9-0.3,1.9-0.3,2.6c0,0.1,0,0.2,0,0.3c0,0,0,0.1,0,0.1l0,0.1l0,0c0,0,0,0,0,0
		c0,0,0-0.1,0-0.1c0,0,0-0.1,0-0.1c0,0,0,0,0-0.1c-0.1-0.1-0.1-0.1-0.1-0.1c0,0,0,0,0.1,0c0,0,0,0,0.1,0l0.1,0
		c0.3,0.1,0.6,0.2,1.1,0.2c0.4,0,0.9,0.1,1.4,0c1,0,2-0.1,3-0.2c1-0.1,2-0.3,3.1-0.5c1-0.2,2.1-0.4,3.1-0.6
		c4.1-0.9,8.2-2.1,12.3-3.3c2-0.6,4.1-1.3,6.1-2c1-0.3,2-0.7,3-1.1c1-0.4,2-0.8,3-1.2c-1.7,1.4-3.6,2.5-5.5,3.6
		c-1.9,1.1-3.8,2-5.8,3c-4,1.8-8,3.4-12.2,4.8c-1.1,0.3-2.1,0.6-3.2,0.9c-1.1,0.3-2.2,0.5-3.3,0.7c-1.1,0.2-2.2,0.4-3.4,0.5
		c-0.6,0-1.2,0.1-1.9,0c-0.7,0-1.3-0.1-2.1-0.3l-0.3-0.1l-0.3-0.1c-0.2-0.1-0.4-0.2-0.6-0.3c-0.4-0.3-0.9-0.6-1.3-1.1
		c-0.1-0.1-0.2-0.3-0.3-0.4c-0.1-0.1-0.2-0.3-0.2-0.4c-0.1-0.1-0.1-0.3-0.2-0.5c0-0.1,0-0.1,0-0.2l0-0.1l-0.1-0.3c0-0.1,0-0.2,0-0.3
		l-0.1-0.6c0-0.7,0-1.4,0-2c0-0.6,0.1-1.2,0.2-1.8c0.2-1.2,0.5-2.3,0.8-3.4c0.3-1.1,0.6-2.2,1-3.2c0.7-2.1,1.5-4.2,2.3-6.2
		c0.8-2,1.7-4,2.6-6c0.9-2,1.8-3.9,2.8-5.9c0.5-1,1-1.9,1.5-2.9l1.5-2.9c2-3.8,4.1-7.6,6.3-11.3c1.1-1.9,2.2-3.7,3.4-5.5
		C276.7,574.1,277.9,572.3,279.2,570.5z"/>
	<path class="st8" d="M372.2,549.4c-3,8.1-6.2,16.1-9.3,24.1l-2.4,6c-0.8,2-1.6,4-2.3,6c-0.7,2-1.5,4-2.2,6c-0.7,2-1.4,4-2,6
		c-0.6,2-1.1,4-1.5,5.9c-0.2,1-0.3,1.9-0.2,2.6c0,0.1,0,0.2,0,0.2c0,0,0,0.1,0,0.1l0,0.1l0,0c0,0,0,0,0,0c0,0,0,0,0-0.1
		c0,0,0-0.1,0-0.1c0,0,0,0,0-0.1c-0.1-0.1-0.1-0.1-0.1-0.1c0,0,0,0,0.1,0c0,0,0,0,0.1,0l0.1,0c0.3,0.1,0.6,0.2,1.1,0.2
		c0.4,0,0.9,0,1.4,0c1,0,2-0.2,3-0.3c1-0.2,2-0.3,3.1-0.6c1-0.2,2-0.4,3.1-0.7c4.1-1,8.2-2.3,12.3-3.6c2-0.7,4.1-1.4,6.1-2.1
		c1-0.4,2-0.8,3-1.2c1-0.4,2-0.8,3-1.3c-1.7,1.4-3.5,2.6-5.4,3.7c-1.9,1.1-3.8,2.1-5.7,3.1c-3.9,1.9-7.9,3.6-12.1,5.1
		c-1,0.4-2.1,0.7-3.2,1c-1.1,0.3-2.2,0.6-3.3,0.8c-1.1,0.2-2.2,0.4-3.4,0.5c-0.6,0.1-1.2,0.1-1.9,0.1c-0.7,0-1.3-0.1-2.1-0.3
		l-0.3-0.1l-0.3-0.1c-0.2-0.1-0.4-0.2-0.6-0.3c-0.4-0.3-0.9-0.6-1.3-1.1c-0.1-0.1-0.2-0.3-0.3-0.4c-0.1-0.1-0.2-0.3-0.2-0.4
		c-0.1-0.1-0.1-0.3-0.2-0.4c0-0.1,0-0.1-0.1-0.2l0-0.1l-0.1-0.3c0-0.1,0-0.2-0.1-0.3l-0.1-0.6c-0.1-0.7-0.1-1.4,0-2
		c0-0.6,0.1-1.2,0.2-1.8c0.2-1.2,0.4-2.3,0.7-3.4c0.3-1.1,0.6-2.2,0.9-3.2c0.6-2.1,1.4-4.2,2.1-6.2c0.8-2,1.6-4.1,2.4-6.1
		c0.9-2,1.7-4,2.6-6c0.5-1,0.9-2,1.4-2.9l1.4-2.9c1.9-3.9,3.9-7.7,6.1-11.5c1.1-1.9,2.1-3.8,3.3-5.6
		C369.8,553,371,551.2,372.2,549.4z"/>
	<path class="st8" d="M214.7,629.2c5.3-4.6,10.5-9.2,15.4-14.1c1.2-1.2,2.4-2.5,3.5-3.8c1.1-1.3,2.2-2.6,3.2-3.9
		c0.5-0.7,0.9-1.4,1.2-2c0.2-0.3,0.3-0.7,0.4-1c0.1-0.3,0.2-0.6,0.2-0.8c0-0.1,0-0.1,0-0.2c0,0,0-0.1,0-0.1c0,0,0-0.1,0-0.1
		c0,0,0,0,0,0c0,0,0,0,0,0c0,0,0,0,0,0.1c0,0,0,0,0,0c0,0,0,0,0,0c0,0,0,0,0,0c0,0,0,0,0,0c-0.1,0-0.4,0-0.7,0c-0.3,0-0.7,0.1-1,0.2
		c-0.7,0.2-1.5,0.4-2.2,0.7c-0.8,0.3-1.5,0.6-2.3,1c-1.5,0.7-3,1.5-4.5,2.4c-2.9,1.7-5.8,3.6-8.6,5.6c-2.8,2-5.5,4.1-8.1,6.3
		c-2.6,2.2-5.1,4.5-7.5,6.9c-2.4,2.4-4.7,4.9-6.6,7.6l-0.2,0.2l-0.2,0.2c-0.1,0.2-0.2,0.3-0.3,0.5c-0.2,0.3-0.4,0.6-0.6,0.9
		c-0.3,0.6-0.5,1.2-0.6,1.5c0,0.2,0,0.3,0,0.3c0,0.1,0,0.1,0.1,0.2c0.2,0.2,0.7,0.5,1.3,0.7c0.6,0.2,1.4,0.3,2.1,0.4
		c0.8,0.1,1.6,0.1,2.4,0.2c1.6,0,3.3,0,5-0.1c1.7-0.1,3.4-0.3,5.1-0.5c1.7-0.2,3.4-0.4,5.1-0.7c6.8-1.1,13.6-2.5,20.4-3.9
		c3.4-0.7,6.8-1.5,10.2-2.3c1.7-0.4,3.4-0.8,5.1-1.2l5.1-1.2c-1.6,0.7-3.3,1.3-4.9,1.9c-1.6,0.6-3.3,1.2-4.9,1.8
		c-3.3,1.2-6.6,2.2-10,3.3c-6.7,2.1-13.5,3.9-20.4,5.4c-1.7,0.4-3.5,0.7-5.2,1c-1.7,0.3-3.5,0.5-5.3,0.7c-1.8,0.2-3.6,0.3-5.4,0.3
		c-0.9,0-1.9,0-2.8-0.1c-1-0.1-1.9-0.2-3-0.5c-0.5-0.2-1.1-0.3-1.6-0.6c-0.5-0.3-1.1-0.6-1.7-1.1c-0.5-0.5-1-1.2-1.3-2
		c-0.3-0.8-0.3-1.6-0.3-2.3c0-0.7,0.2-1.3,0.4-1.9c0.2-0.6,0.4-1.1,0.7-1.5c0.2-0.5,0.5-0.9,0.8-1.3c0.1-0.2,0.3-0.4,0.4-0.6
		l0.2-0.3l0.2-0.3c2.2-2.9,4.5-5.6,7.1-8.2c5.1-5.1,10.6-9.6,16.4-13.6c2.9-2,6-3.9,9.1-5.6c1.6-0.8,3.2-1.6,4.9-2.3
		c0.8-0.4,1.7-0.7,2.6-1c0.9-0.3,1.8-0.6,2.8-0.7c0.5-0.1,1-0.2,1.6-0.2c0.6,0,1.2,0,1.9,0.2c0.1,0,0.2,0.1,0.3,0.1
		c0.1,0,0.2,0.1,0.3,0.1c0.2,0.1,0.4,0.2,0.6,0.4c0.1,0.1,0.2,0.2,0.3,0.2c0.1,0.1,0.2,0.2,0.2,0.3c0.2,0.2,0.3,0.4,0.4,0.6
		c0.1,0.1,0.1,0.2,0.1,0.3c0,0.1,0.1,0.2,0.1,0.3c0,0.2,0.1,0.4,0.1,0.6c0,0.2,0,0.4,0,0.5c0,0.2,0,0.3,0,0.5
		c-0.2,1.3-0.7,2.2-1.2,3.1c-0.5,0.9-1.1,1.6-1.6,2.3c-1.2,1.4-2.4,2.7-3.7,4c-1.3,1.2-2.6,2.4-3.9,3.6c-2.7,2.3-5.5,4.4-8.3,6.5
		c-1.4,1-2.9,2-4.3,3C217.7,627.3,216.2,628.3,214.7,629.2z"/>
	<path class="st8" d="M346.3,594.2c-0.8-1.1-1.8-2-2.9-2.6c-1.1-0.6-2.2-0.8-3.3-0.6c-0.5,0.1-1.1,0.3-1.6,0.5
		c-0.5,0.2-1,0.5-1.5,0.9c-0.5,0.3-1,0.7-1.4,1.1c-0.5,0.4-0.9,0.8-1.3,1.3c-0.4,0.4-0.9,0.9-1.3,1.4c-0.4,0.5-0.8,1-1.2,1.5
		c-0.8,1-1.5,2-2.2,3.1c-0.6,1.1-1.2,2.1-1.7,3.2c-0.5,1.1-0.8,2.2-1,3.3c-0.2,1.1-0.2,2.2-0.1,3.1c0.1,0.5,0.2,0.9,0.4,1.2
		c0.2,0.3,0.4,0.5,0.6,0.7c0.1,0.1,0.2,0.1,0.3,0.2c0,0,0.1,0,0.1,0c0,0,0,0,0,0l0.1,0l0.1,0c0.1,0,0.3,0.1,0.4,0.1
		c0.6,0.1,1.1,0.2,1.7,0.2c0.6,0,1.1,0,1.7,0c0.6,0,1.2-0.1,1.8-0.2c2.4-0.5,4.8-1.4,7.2-2.5c1.2-0.5,2.4-1.1,3.6-1.7
		c1.2-0.6,2.4-1.2,3.7-1.8c-0.9,1-1.9,2-2.9,2.9c-1,0.9-2.1,1.8-3.2,2.6c-2.2,1.6-4.6,3.1-7.4,4.1c-0.7,0.2-1.4,0.4-2.2,0.6
		c-0.7,0.1-1.5,0.2-2.3,0.3c-0.8,0-1.6,0-2.3-0.1c-0.2,0-0.4,0-0.6-0.1l-0.1,0l-0.1,0l-0.1,0c-0.1,0-0.3-0.1-0.4-0.1
		c-0.5-0.1-1-0.4-1.5-0.6c-0.9-0.6-1.7-1.4-2.2-2.2c-0.5-0.8-0.8-1.7-1-2.6c-0.4-1.7-0.3-3.4,0-4.9c0.6-3.1,2-5.8,3.7-8.2
		c0.9-1.2,1.8-2.3,2.8-3.3c0.5-0.5,1-1,1.5-1.5c0.5-0.5,1.1-0.9,1.6-1.4c0.6-0.5,1.2-0.9,1.8-1.3c0.6-0.4,1.3-0.8,2-1.1
		c1.4-0.6,2.9-1.1,4.5-1c0.8,0.1,1.6,0.2,2.3,0.6c0.7,0.3,1.4,0.8,1.9,1.3c0.5,0.5,1,1.1,1.3,1.7
		C345.9,592.9,346.2,593.5,346.3,594.2z"/>
	<path class="st8" d="M417.7,571c-0.2,2.2-0.6,4.3-1,6.4c-0.4,2.1-0.9,4.2-1.4,6.2c-0.5,2-0.9,4-1.3,6c-0.2,1-0.3,1.9-0.4,2.8
		c0,0.4,0,0.8,0,1.2c0,0.1,0,0.2,0,0.2l0,0.1l0,0c0,0,0,0,0,0l0,0l0-0.1l0-0.1c-0.1-0.3-0.3-0.5-0.4-0.6c-0.1-0.1-0.2-0.1-0.2-0.1
		c0,0,0.1,0.1,0.2,0.1c0.2,0,0.3,0.1,0.5,0.1c0.4,0.1,0.9,0.1,1.4,0.1c1,0,2,0,3-0.1c1-0.1,2-0.2,3.1-0.3c1-0.1,2.1-0.2,3.1-0.4
		c2.1-0.3,4.2-0.6,6.2-1c2.1-0.4,4.2-0.8,6.3-1.3c-0.9,0.6-1.8,1.2-2.8,1.7c-0.5,0.3-1,0.5-1.4,0.7c-0.5,0.2-1,0.5-1.5,0.7
		c-2,0.9-4,1.6-6.1,2.3c-2.1,0.6-4.2,1.2-6.4,1.6c-1.1,0.2-2.2,0.4-3.4,0.4c-0.6,0-1.2,0.1-1.8,0c-0.3,0-0.7,0-1-0.1
		c-0.4-0.1-0.8-0.1-1.3-0.4c-0.3-0.1-0.5-0.3-0.9-0.5c-0.3-0.3-0.7-0.6-0.9-1.2c0-0.1-0.1-0.1-0.1-0.2l0-0.1l0-0.1l0-0.1l-0.1-0.3
		c0-0.2-0.1-0.4-0.1-0.6c-0.1-0.7-0.1-1.4-0.1-2c0-1.3,0.2-2.4,0.5-3.5c0.5-2.2,1.2-4.3,2-6.3c0.8-2,1.7-4,2.8-5.9
		C415.2,574.6,416.3,572.8,417.7,571z"/>
	<path class="st8" d="M410.7,579.4c-0.8-1-1.7-1.9-2.7-2.5c-1-0.6-2.1-0.8-3.1-0.7c-1,0.1-2,0.6-3,1.2c-0.5,0.3-0.9,0.6-1.4,1
		c-0.4,0.4-0.9,0.8-1.3,1.2c-0.4,0.4-0.8,0.8-1.2,1.3c-0.4,0.5-0.8,0.9-1.2,1.4c-0.8,0.9-1.5,1.9-2.2,2.9c-0.7,1-1.3,2-1.8,3
		c-0.5,1-0.9,2.1-1.2,3.1c-0.3,1-0.5,2.1-0.4,3.1c0,0.5,0.1,1,0.2,1.4c0,0.2,0.1,0.4,0.2,0.6c0.1,0.2,0.1,0.4,0.2,0.5
		c0.2,0.3,0.4,0.6,0.6,0.7c0.1,0.1,0.2,0.2,0.4,0.2l0.1,0c0,0,0.1,0,0.1,0l0.2,0.1c0.1,0,0.3,0.1,0.4,0.1c1,0.3,2.1,0.5,3.2,0.5
		c2.2,0,4.6-0.5,6.9-1.4c2.3-0.9,4.5-2.1,6.8-3.4c-0.8,1-1.7,2-2.6,2.9c-0.9,0.9-2,1.8-3.1,2.5c-0.6,0.4-1.1,0.7-1.7,1.1
		c-0.6,0.3-1.2,0.6-1.9,0.9c-1.3,0.6-2.7,0.9-4.1,1.1c-1.4,0.2-3,0.2-4.4-0.1c-0.2,0-0.4-0.1-0.5-0.1l-0.3-0.1c0,0-0.1,0-0.1,0
		l-0.2-0.1c-0.5-0.1-0.9-0.3-1.4-0.6c-0.9-0.5-1.6-1.2-2.1-2c-0.5-0.8-0.9-1.6-1.1-2.4c-0.2-0.8-0.4-1.6-0.4-2.4
		c-0.1-1.6,0.2-3.1,0.5-4.5c0.4-1.4,1-2.8,1.6-4c0.7-1.2,1.5-2.4,2.3-3.5c0.9-1.1,1.8-2.1,2.7-3.1c0.5-0.5,1-0.9,1.5-1.4
		c0.5-0.4,1.1-0.9,1.6-1.3c0.6-0.4,1.1-0.8,1.8-1.2c0.6-0.4,1.3-0.7,1.9-1c0.7-0.3,1.4-0.5,2.1-0.6c0.7-0.1,1.5-0.2,2.3-0.1
		c0.8,0.1,1.5,0.3,2.2,0.7c0.7,0.4,1.3,0.8,1.7,1.3c0.5,0.5,0.9,1.1,1.2,1.7C410.3,578.1,410.5,578.7,410.7,579.4z"/>
	<path class="st8" d="M490.4,587.5c-9,1.8-17.9,3.8-26.7,6.1c-2.6,0.7-5.2,1.4-7.8,2.1c0.3-1.4,0.5-2.9,0.8-4.3
		c0.4-2.4,0.8-4.7,1.3-7c3.1-2.4,5.9-5.1,8.6-8c1.7-1.8,3.3-3.8,4.8-5.8c0.7-1,1.4-2.1,2.1-3.2c0.7-1.1,1.3-2.3,1.7-3.6
		c0.1-0.3,0.2-0.7,0.3-1.1c0-0.2,0.1-0.4,0.1-0.6c0-0.2,0.1-0.4,0.1-0.6c0-0.4,0.1-0.8,0-1.3c0-0.5-0.1-1-0.4-1.6
		c-0.1-0.3-0.4-0.6-0.6-0.9c-0.3-0.3-0.6-0.5-1-0.7c-0.7-0.3-1.4-0.4-1.9-0.3c-0.5,0-1,0.1-1.4,0.3c-0.4,0.1-0.8,0.3-1.1,0.5
		c-1.4,0.7-2.4,1.5-3.5,2.4c-1,0.9-1.9,1.8-2.8,2.8c-3.4,3.9-6.1,8.4-7.8,13.3c-0.4,1.3-0.8,2.5-1.1,3.7c-0.3,1.2-0.6,2.4-0.8,3.7
		c-0.1,0.3-0.1,0.5-0.2,0.8c-1.8,1.3-3.7,2.6-5.6,3.6c-1,0.6-2.1,1.1-3.2,1.5c-1.1,0.4-2.2,0.8-3.3,1.1c-0.3,0.1-0.6,0.1-0.8,0.2
		l-0.4,0.1c-0.1,0-0.2,0-0.4,0c-0.5,0-0.8,0-1.2-0.2c-0.3-0.2-0.6-0.5-0.8-0.9c-0.2-0.4-0.4-0.9-0.5-1.4c-0.2-1.1-0.3-2.3-0.3-3.4
		c0-1.2,0.1-2.4,0.2-3.6c0.3-2.4,0.7-4.8,1.2-7.2c0.5-2.4,1.1-4.8,1.7-7.1c-0.9,2.3-1.8,4.6-2.5,6.9c-0.7,2.3-1.4,4.7-1.9,7.2
		c-0.2,1.2-0.4,2.5-0.5,3.7c-0.1,1.3-0.1,2.5,0.1,3.9c0.1,0.7,0.3,1.4,0.6,2c0.2,0.3,0.4,0.7,0.6,1c0.3,0.3,0.6,0.6,1,0.8
		c0.7,0.5,1.6,0.6,2.4,0.6c0.2,0,0.4,0,0.6,0l0.5-0.1c0.3,0,0.6-0.1,1-0.1c2.6-0.5,5-1.4,7.3-2.5c1.2-0.6,2.4-1.2,3.5-1.9
		c-0.1,0.8-0.3,1.5-0.4,2.3c-0.4,2.2-0.8,4.4-1.3,6.7c-4.4,1.3-8.9,2.7-13.2,4.2c-4.3,1.5-8.7,3.1-12.9,4.8
		c-4.3,1.7-8.5,3.6-12.6,5.7c-4.1,2.1-8.2,4.4-12,7c-1.9,1.3-3.8,2.7-5.6,4.3c-0.9,0.8-1.8,1.6-2.6,2.5c-0.2,0.2-0.4,0.5-0.6,0.7
		c-0.2,0.2-0.4,0.5-0.6,0.7c-0.2,0.3-0.4,0.5-0.6,0.8l-0.1,0.2l-0.1,0.2c0,0.1-0.1,0.1-0.1,0.2c0,0.1-0.1,0.1-0.1,0.2
		c-1.4,2.4-2.2,5.2-2,8.1c0.1,1.4,0.4,2.9,0.9,4.2c0.5,1.3,1.2,2.6,2.1,3.7c1.7,2.2,4,3.9,6.4,5.2c2.4,1.2,5,2,7.6,2.4
		c2.6,0.4,5.2,0.6,7.7,0.5c2.6-0.1,5.1-0.3,7.6-0.7c0.6-0.1,1.2-0.2,1.9-0.3c0.3-0.1,0.6-0.1,0.9-0.2c0.3-0.1,0.6-0.1,0.9-0.2
		c1.3-0.3,2.6-0.7,3.8-1.2c2.5-1,4.8-2.3,6.9-4c2.1-1.6,4-3.5,5.6-5.5c1.6-2,3.1-4.2,4.3-6.4c1.3-2.2,2.4-4.5,3.4-6.8
		c1-2.3,1.9-4.7,2.6-7.1c1.6-4.8,2.8-9.6,3.9-14.4c0.5-2.4,1-4.8,1.5-7.3c0.1-0.4,0.1-0.8,0.2-1.1c2.8-0.9,5.7-1.8,8.5-2.7
		C472.7,592.2,481.5,589.8,490.4,587.5z M471.6,560.4C471.6,560.4,471.6,560.3,471.6,560.4C471.6,560.3,471.6,560.3,471.6,560.4z
		 M462.2,571c1.1-2,2.4-3.9,3.9-5.7c0.7-0.9,1.5-1.7,2.3-2.4c0.8-0.7,1.7-1.4,2.5-1.8c0.2-0.1,0.4-0.2,0.6-0.3c0,0,0,0,0.1,0
		c0,0.1,0,0.2,0,0.3c0,0.1,0,0.2,0,0.3c0,0.1,0,0.2-0.1,0.3c-0.1,0.2-0.1,0.5-0.2,0.7c-0.3,1-0.8,2-1.4,3c-0.6,1-1.2,2-1.8,3
		c-1.3,1.9-2.8,3.8-4.4,5.6c-1.5,1.8-3.2,3.5-4.9,5.1c0.2-0.6,0.3-1.2,0.5-1.7C460.2,575.2,461.1,573,462.2,571z M448.9,604.8
		c-0.5,2.4-1.1,4.7-1.7,7c-0.6,2.3-1.3,4.6-2,6.9c-0.7,2.3-1.6,4.5-2.5,6.7c-0.9,2.2-1.9,4.3-3.1,6.3c-2.3,4.1-5.1,7.8-8.6,10.6
		c-1.8,1.4-3.7,2.5-5.7,3.4c-1,0.4-2.1,0.8-3.2,1c-0.3,0.1-0.6,0.1-0.8,0.2c-0.3,0.1-0.6,0.1-0.9,0.2c-0.6,0.1-1.2,0.2-1.7,0.3
		c-4.6,0.8-9.4,1.1-13.9,0.4c-2.2-0.4-4.4-1-6.4-1.9c-2-0.9-3.7-2.2-5-3.9c-0.7-0.8-1.2-1.7-1.6-2.6c-0.4-0.9-0.6-1.9-0.7-3
		c-0.1-2,0.4-4.1,1.4-6l0.1-0.1c0,0,0,0,0-0.1c0,0,0-0.1,0.1-0.1l0.1-0.1l0.1-0.1c0.1-0.2,0.3-0.4,0.4-0.6c0.2-0.2,0.3-0.4,0.5-0.6
		l0.5-0.6c0.7-0.8,1.5-1.6,2.3-2.3c1.6-1.5,3.4-2.8,5.2-4.2c3.6-2.6,7.5-4.9,11.5-7.1c4-2.1,8.1-4.1,12.2-5.9
		c4.1-1.9,8.4-3.5,12.6-5.2c4-1.5,8-2.9,12-4.3C449.7,601.1,449.3,603,448.9,604.8z"/>
	<path class="st8" d="M505,564.1c2-1.6,4.2-2.9,6.4-4.3c1.1-0.7,2.2-1.4,3.2-2.1c0.5-0.4,1-0.8,1.4-1.2c0.2-0.2,0.3-0.5,0.4-0.7
		c0.1-0.2,0-0.4-0.1-0.6c-0.1-0.1-0.2-0.2-0.3-0.3c-0.1-0.1-0.2-0.2-0.3-0.3c-0.2-0.2-0.5-0.3-0.8-0.4c-0.5-0.2-1.2-0.3-1.8-0.3
		c-1.2,0-2.5,0.2-3.7,0.5c-2.4,0.6-4.8,1.5-7.1,2.6c-1.1,0.5-2.3,1.1-3.4,1.7c-1.1,0.6-2.2,1.3-3.2,2c-1,0.7-2.1,1.4-3,2.2
		c-0.5,0.4-0.9,0.8-1.3,1.2c-0.4,0.4-0.8,0.9-1.2,1.4c-1.5,1.9-2.6,4.1-3.3,6.5c-0.7,2.3-0.9,4.8-0.5,7.1c0.4,2.3,1.4,4.5,3,6.1
		c1.6,1.6,3.8,2.8,6.1,3.7c2.3,0.9,4.7,1.7,7.2,2.6c1.2,0.5,2.5,1,3.7,1.7c1.2,0.7,2.4,1.5,3.5,2.5c1.1,1,2,2.2,2.6,3.6
		c0.6,1.3,1,2.9,1,4.4c0.1,1.5-0.2,3-0.6,4.4c-0.4,1.4-1,2.7-1.8,3.9c-1.4,2.4-3.2,4.5-5.1,6.3c-1,0.9-2,1.8-3,2.6
		c-0.3,0.2-0.5,0.4-0.8,0.6l-0.8,0.6c-0.5,0.4-1,0.8-1.6,1.2c-4.2,3.1-8.4,6-12.8,8.8c-4.4,2.7-8.9,5.3-13.5,7.7
		c-9.1,4.8-18.6,9-28.3,12.7c-9.6,3.7-19.5,6.8-29.4,9.7c-9.9,2.8-19.9,5.3-29.9,7.6c-10,2.3-20.1,4.3-30.1,6.3l-30.2,5.9l-30.2,5.8
		l-30.2,5.8c-20.1,3.8-40.3,7.6-60.4,11.3c-20.2,3.7-40.3,7.4-60.5,10.9c20-4.5,40-8.8,60.1-13.2c20-4.3,40.1-8.5,60.2-12.7
		l30.1-6.2l30.1-6.2l30.1-6.1c10-2,20.1-4.1,30-6.4c10-2.2,19.9-4.7,29.7-7.4c9.8-2.7,19.5-5.8,29.1-9.4c9.5-3.5,18.9-7.6,27.9-12.2
		c4.5-2.3,9-4.8,13.3-7.4c4.3-2.6,8.6-5.4,12.7-8.4c0.5-0.4,1-0.7,1.5-1.1l0.8-0.6c0.2-0.2,0.5-0.4,0.7-0.6c1-0.8,1.9-1.5,2.8-2.4
		c1.8-1.7,3.4-3.5,4.6-5.5c1.2-2,2.1-4.2,2-6.3c0-2.1-0.9-4.2-2.5-5.8c-1.5-1.6-3.7-2.7-6-3.6c-2.3-0.9-4.8-1.7-7.2-2.8
		c-1.2-0.5-2.4-1.1-3.6-1.9c-1.2-0.7-2.3-1.6-3.3-2.6c-1-1-1.8-2.2-2.4-3.5c-0.6-1.3-1-2.6-1.2-4c-0.4-2.8,0-5.5,0.8-8.1
		c0.8-2.6,2.1-5,3.9-7c0.4-0.5,0.9-1,1.4-1.5c0.5-0.5,1-0.9,1.5-1.3c1-0.8,2.1-1.6,3.2-2.2c2.2-1.4,4.5-2.5,6.9-3.5
		c2.4-1,4.9-1.8,7.4-2.3c1.3-0.2,2.6-0.4,3.9-0.3c0.7,0,1.3,0.2,2,0.4c0.7,0.3,1.3,0.7,1.7,1.3c0.1,0.2,0.2,0.4,0.2,0.6
		c0,0.2,0,0.4-0.1,0.6c-0.1,0.4-0.3,0.7-0.6,0.9c-0.5,0.5-1,0.9-1.5,1.3c-1.1,0.7-2.2,1.4-3.3,2C509.3,561.4,507.1,562.6,505,564.1z
		"/>
	<path class="st8" d="M144.2,524.8c-1.1,16.7-4,33.2-8.2,49.4c-4.3,16.2-10,32.1-17,47.3c-7,15.3-15.3,29.9-24.8,43.7
		c-9.5,13.8-20.2,26.8-32.1,38.5c10.4-13,20.1-26.5,28.9-40.6c8.8-14,16.6-28.6,23.5-43.7c6.9-15,12.8-30.5,17.7-46.3
		C137.2,557.4,141.1,541.2,144.2,524.8z"/>
	<path class="st8" d="M133.5,596.9c8.7-6.8,18.3-12.6,28.4-17.3c5-2.4,10.2-4.5,15.5-6.4l1-0.4l1-0.3l2-0.7c0.7-0.2,1.3-0.4,2-0.6
		l2-0.6c1.3-0.4,2.7-0.8,4-1.1c1.4-0.4,2.8-0.7,4.1-1c2.8-0.6,5.6-0.9,8.5-1.1c2.9-0.1,5.8,0,8.7,0.6c2.9,0.6,5.8,1.6,8.5,3.3
		c1.3,0.9,2.5,1.9,3.6,3.1c0.3,0.3,0.5,0.6,0.8,0.9c0.1,0.2,0.2,0.3,0.4,0.5l0.3,0.5l0.3,0.5l0.3,0.5l0.3,0.5l0.2,0.3
		c0,0.1,0.1,0.2,0.1,0.3l0.5,1.1c0.2,0.4,0.3,0.7,0.4,1.1c0.2,0.4,0.2,0.7,0.4,1.1l0.2,0.6c0.1,0.2,0.1,0.4,0.1,0.6
		c0.1,0.4,0.2,0.8,0.2,1.1l0.2,1.2c0,0.4,0.1,0.8,0.1,1.2c0,0.4,0,0.8,0,1.2c0,0.8,0,1.5-0.1,2.3l-0.1,1.1c0,0.2,0,0.4-0.1,0.6
		l-0.1,0.6c-0.3,1.5-0.6,3-1.2,4.4c-0.1,0.2-0.1,0.4-0.2,0.5l-0.2,0.5c-0.1,0.3-0.3,0.7-0.4,1l-0.5,1l-0.5,1
		c-0.7,1.3-1.5,2.6-2.4,3.8c-0.9,1.2-1.8,2.3-2.7,3.4c-1,1.1-1.9,2.1-3,3.1c-4.1,4-8.4,7.5-12.7,11l-3.3,2.6
		c-1.1,0.9-2.2,1.7-3.3,2.6l-3.3,2.5l-1.7,1.3c-0.6,0.4-1.1,0.8-1.7,1.2l-3.4,2.4c-0.6,0.4-1.1,0.8-1.7,1.2l-1.7,1.2
		c-2.3,1.6-4.6,3.1-7,4.6l-3.5,2.2c-0.6,0.4-1.2,0.7-1.8,1.1l-1.8,1.1l-3.6,2.1c-1.2,0.7-2.4,1.4-3.6,2.1
		c-19.4,10.9-40,19.7-61.3,25.7c20.6-8,40.5-17.6,59.3-29c1.2-0.7,2.4-1.4,3.5-2.1l3.5-2.2l1.7-1.1c0.6-0.4,1.2-0.7,1.7-1.1l3.4-2.3
		c2.3-1.5,4.5-3.1,6.8-4.7l1.7-1.2c0.6-0.4,1.1-0.8,1.7-1.2l3.3-2.4c0.6-0.4,1.1-0.8,1.7-1.2l1.6-1.3l3.3-2.5
		c1.1-0.8,2.2-1.7,3.2-2.6l3.2-2.6c4.2-3.5,8.5-7,12.3-10.8c0.9-0.9,1.9-1.9,2.7-2.9c0.9-1,1.7-2,2.4-3.1c0.8-1,1.4-2.1,2.1-3.3
		l0.5-0.8l0.4-0.8c0.1-0.3,0.2-0.6,0.4-0.9l0.2-0.4c0.1-0.1,0.1-0.3,0.2-0.4c0.4-1.2,0.8-2.4,1-3.6l0.1-0.5c0-0.2,0.1-0.3,0.1-0.5
		l0.1-0.9c0-0.6,0.1-1.2,0.1-1.8c0-0.3,0-0.6,0-0.9c0-0.3,0-0.6-0.1-0.9l-0.1-0.9c0-0.3-0.1-0.6-0.2-0.9c0-0.1-0.1-0.3-0.1-0.4
		l-0.1-0.4c-0.1-0.3-0.1-0.6-0.3-0.9l-0.3-0.8l-0.4-0.8c0-0.1-0.1-0.1-0.1-0.2l-0.1-0.2l-0.2-0.4l-0.2-0.4l-0.3-0.4l-0.2-0.4
		c-0.1-0.1-0.2-0.2-0.3-0.4c-0.2-0.2-0.4-0.5-0.6-0.7c-0.8-0.9-1.7-1.7-2.7-2.4c-2-1.4-4.3-2.3-6.8-2.8c-2.5-0.6-5.1-0.7-7.8-0.7
		c-2.6,0-5.3,0.3-8,0.8c-1.3,0.2-2.6,0.5-4,0.8c-1.3,0.3-2.7,0.6-4,1c-2.6,0.7-5.3,1.4-7.9,2.2c-5.2,1.6-10.4,3.4-15.5,5.5
		C152.7,585.9,142.9,591,133.5,596.9z"/>
	<path class="st8" d="M96.8,564.6c7.7-6.5,15.7-12.6,24-18.3c1-0.7,2.1-1.4,3.1-2.1l3.1-2.1c1-0.7,2.1-1.4,3.2-2l3.2-2
		c4.3-2.6,8.7-5.2,13.1-7.6l3.3-1.8l3.4-1.7c2.2-1.2,4.5-2.2,6.8-3.3c0.6-0.3,1.1-0.5,1.7-0.8l1.7-0.8l3.5-1.5
		c1.2-0.5,2.3-1,3.5-1.4l1.8-0.7c0.6-0.2,1.2-0.5,1.8-0.7l3.6-1.3l1.8-0.7c0.6-0.2,1.2-0.4,1.8-0.6l3.6-1.2l0.9-0.3
		c0.3-0.1,0.6-0.2,1-0.3c0.6-0.2,1.3-0.4,1.9-0.5c2.6-0.6,5.2-1,7.9-1.1c1.3,0,2.7,0,4.1,0.1c1.4,0.1,2.8,0.4,4.1,0.8
		c0.3,0.1,0.7,0.2,1,0.3c0.3,0.1,0.7,0.3,1,0.4c0.7,0.3,1.3,0.7,2,1.1c0.6,0.4,1.3,1,1.8,1.5c0.3,0.3,0.5,0.6,0.8,0.9
		c0.2,0.3,0.5,0.6,0.7,1c0.8,1.3,1.4,2.8,1.8,4.2c0.3,1.5,0.5,2.9,0.4,4.4c-0.1,1.5-0.3,2.9-0.7,4.3c-0.4,1.4-1,2.7-1.6,3.9
		c-1.3,2.4-3,4.6-4.7,6.5c-0.9,1-1.8,1.9-2.7,2.8c-0.9,0.9-1.8,1.8-2.7,2.7c-1.8,1.8-3.7,3.5-5.5,5.2c-3.7,3.4-7.5,6.8-11.4,10
		c-15.5,12.9-32.2,24.4-49.9,33.8c16.7-11.2,32.6-23.3,47.4-36.7l2.8-2.5l2.7-2.6l1.4-1.3l1.4-1.3c0.9-0.9,1.8-1.7,2.7-2.6
		c1.8-1.8,3.6-3.5,5.3-5.3c0.9-0.9,1.8-1.8,2.6-2.7c0.9-0.9,1.7-1.8,2.5-2.7c1.6-1.8,3-3.7,4-5.7c0.5-1,0.9-2,1.2-3
		c0.3-1,0.5-2.1,0.5-3.1c0.1-2.1-0.4-4.2-1.4-5.8c-0.1-0.2-0.3-0.4-0.4-0.6c-0.1-0.2-0.3-0.3-0.5-0.5c-0.3-0.3-0.7-0.6-1.1-0.9
		c-0.4-0.3-0.8-0.5-1.3-0.7c-0.2-0.1-0.5-0.2-0.7-0.3c-0.2-0.1-0.5-0.2-0.7-0.2c-1-0.3-2.1-0.5-3.2-0.6c-1.1-0.1-2.3-0.2-3.4-0.1
		c-2.3,0.1-4.7,0.4-7,0.9c-0.6,0.1-1.1,0.3-1.7,0.4c-0.3,0.1-0.5,0.2-0.8,0.3l-0.9,0.3l-3.5,1.2c-0.6,0.2-1.2,0.4-1.8,0.6l-1.8,0.6
		l-3.5,1.3c-9.3,3.4-18.4,7.4-27.4,11.9c-2.2,1.1-4.4,2.2-6.7,3.4c-1.1,0.6-2.2,1.2-3.3,1.8l-3.3,1.8l-3.3,1.8
		c-1.1,0.6-2.2,1.2-3.3,1.9c-2.1,1.3-4.3,2.5-6.4,3.8C113.5,553.4,105.2,559,96.8,564.6z"/>
</g>
<g id="smile_x5F_wave">
	<path class="st8" d="M352.4,431.5c-4.2-2.1-9.4-1.9-12.8,0.2c0,0,0,0,0,0c-0.3,0.2-0.1,0.8,0.3,0.7c6.7-1.1,13.6,2.6,16.2,9.2
		c1.8,4.6,1.1,9.6-1.4,13.5c1.7-1.3,3.1-2.9,4-4.9C362.3,443.4,359.4,435,352.4,431.5z"/>
	<path class="st8" d="M347.4,414.4c-7.1-0.1-14,3.5-17.2,8.6c-0.1,0.1-0.1,0.2-0.1,0.3c-0.1,0.4,0.3,0.7,0.7,0.5
		c0.4-0.2,1-0.6,1.3-0.7c1.6-0.8,2.7-1.4,4.2-1.9c11.8-4,24.6,2.4,28.5,14.2c0.7,2.2,1.1,4.4,1.2,6.6c0,0.3,0,0.5,0.1,0.8
		c0,0.7,0,1.5,0,2.2c1.4-2.7,2.2-5.8,2.3-9.1C368.5,424.2,359.2,414.5,347.4,414.4z"/>
	<path class="st8" d="M348.7,444.4c-2.2-2.3-5.5-3.2-8-2.5c0,0,0,0,0,0c-0.3,0.1-0.2,0.5,0,0.5c0.1,0,0.2,0,0.2,0
		c4.8,2,0.2,7.2-6.2,10.6c-35.4,19.1-93.3,12.4-126-14.1c7.3,9.9,23.3,30.3,80.2,34.4c1.6,0.1,3.3,0.2,4.9,0.2c0,0,0,0,0,0
		c0.1,0,0.2,0,0.3,0c0.1,0,0.2,0,0.3,0c40.9-0.1,53.8-14,54.7-15.1C352.7,454.5,352.5,448.2,348.7,444.4z"/>
</g>
<g id="watercraft">
	<path class="st9" d="M315.7,406.4c3.2,0.6,6.5,1.2,9.8,1.7c0.9,0.2,0.9,0.4,0.7,1.4c0,0,0,0,0,0.1c-0.8,1.9-1.6,3.9-2.4,5.8
		c-0.1,0.3-0.4,0.6-0.6,0.9c-1.3,1.5-2.9,2.3-4.9,1.9c-2.5-0.5-4.9-1-7.4-1.4c-4.1-0.6-8.2-1.3-12.2-2.4
		c-8.9-2.4-17.3-5.8-25.1-10.5c-0.9-0.6-1.7-1.3-2-2.3c-0.3-0.8-0.8-1.4-1.6-1.8c-1.3-0.6-1.4-2.2-0.3-3.1c0.4-0.3,0.9-0.4,1.4-0.5
		c2.2-0.4,4.4-0.6,6.6-1.1c4.9-1.1,9.9-2.2,14.8-3.4c0.1,0,0.1-0.1,0,0c-0.3-0.2-0.6-0.4-0.8-0.7c-0.2-0.5-0.2-1,0.3-1.4
		c0.3-0.3,0.7-0.4,1.1-0.6c0.8-0.4,1.6-0.7,2-1.5c0.7-1.1,1.4-2.2,2.1-3.3c0.3-0.5,0.7-1,0.8-1.5c0.2-1,0.6-1.8,1.2-2.6
		c0.1-0.2,0.2-0.4,0.1-0.6c-0.2-0.9-0.4-1.7-0.6-2.6c-0.2-1,0.1-1.8,1-2.5c1.2-0.9,2.8-0.3,3.3,1c0.1,0.3,0.1,0.6,0.2,0.8
		c0.1,0.1,0.3,0.3,0.4,0.3c0.3,0,0.6,0,1,0c1.7-0.1,3.4,0.4,4.8,1.4c0.2,0.1,0.4,0.3,0.6,0.5c0.7,0.7,1.2,0.8,2.1,0.4
		c0.8-0.4,1.6-0.3,2.2,0.2c0.2,0.1,0.2,0.4,0,0.6l0,0c-0.1,0.1-0.3,0.1-0.5,0c-0.6-0.4-1.1-0.4-1.6,0c-0.2,0.2-0.4,0.3-0.7,0.4
		c-0.2,0.1-0.3,0.4-0.1,0.6c0.5,0.5,1,0.7,1.7,0.6c0.7-0.1,1.5,0,2.2,0c0.3,0,0.6,0.1,0.5,0.5c-0.1,0.4-0.4,0.3-0.7,0.3
		c-0.6,0-1.3,0-1.9,0c-0.3,0-0.5,0.3-0.4,0.5c0.3,0.7,0.5,1.4,0.7,2.1c0,0,0,0,0,0.1c0.5,0.9,1.1,1.8,1.6,2.7
		c0.5,0.9,0.5,1.8,0.1,2.7c-0.7,1.4-1.2,2.8-1.4,4.4c0,0.4-0.2,0.5-0.6,0.5c-0.2,0-0.4,0.1-0.6,0.2c-0.2,0.1-0.3,0.2-0.2,0.4
		c0.2,1.1,0.8,1.6,1.9,1.7c0.2,0,0.4,0.1,0.6,0.2c0.8,0.1,1.3,0.7,1.6,1.5c0.1,0.3,0.2,0.6,0.3,1c0.2,0.8,0,1-0.8,1.1
		c-0.5,0-1,0.1-1.6,0.1c-0.2,0-0.4,0.2-0.4,0.5c0.1,0.5,0.2,0.9,0.8,1.1c0.4,0.1,0.7,0.5,1,0.8c0.1,0.1,0.2,0.5,0.2,0.6
		c-0.1,0.3-0.3,0.6-0.5,0.9c-0.1,0.3-0.3,0.5-0.5,0.8c-0.1,0.2,0,0.5,0.3,0.6C315.5,406.3,315.6,406.4,315.7,406.4z M302.3,393.5
		c1.3-1.5,2.5-3.1,4.2-4.3c0.2-0.2,0.2-0.5,0-0.7c-0.5-0.3-0.9-0.7-1.2-1.2c-0.1-0.2-0.3-0.2-0.5-0.1c-0.5,0.3-1,0.5-1.5,0.9
		c-0.2,0.2-0.3,0.5-0.5,0.9c0,0.1-0.2,0.2-0.3,0.2c-0.3,0.1-0.5,0.4-0.7,0.7c-0.1,0.1-0.1,0.3-0.2,0.3c-0.9,0-1.8,0.8-2.7-0.1
		c-0.1-0.1-0.5-0.1-0.6,0c-0.3,0.3-0.5,0.5-0.7,0.8c0.1,0.3,0.2,0.3,0.3,0.6c1.6,0,2.8,0.7,3.9,1.9
		C301.9,393.7,302.2,393.7,302.3,393.5z M300.6,384.4c-0.6,1.4-1.8,2.4-2.9,3.5c0.2,0.3,0.2,0.3,0.4,0.6c0.3-0.1,0.6-0.2,0.9-0.3
		c0.4-0.1,0.9-0.3,1.3-0.4c0.2-0.1,0.4,0,0.6-0.2c0.7-0.6,1.3-1.2,2-1.8c0.2-0.2,0.2-0.5-0.1-0.6c-0.6-0.4-1.2-0.7-1.7-1
		C300.9,384.1,300.7,384.2,300.6,384.4z"/>
</g>
<g id="right_x5F_eye">
	
		<linearGradient id="shadow_1_" gradientUnits="userSpaceOnUse" x1="179.9011" y1="359.0245" x2="179.9011" y2="430.6875" gradientTransform="matrix(-1 0 0 1 590.9692 0)">
		<stop  offset="0" style="stop-color:#000000"/>
		<stop  offset="1" style="stop-color:#662400"/>
	</linearGradient>
	<path id="shadow_4_" class="st10" d="M414,419.4c-0.1-0.2-0.3-0.2-0.5-0.2c4.5-0.2,9.2-0.9,13.7-1.3c-0.2-0.2-0.5-0.4-0.5-0.6
		c1.9-1.9,5.2-1.1,7.1-3c-1.2-0.6-2.4-1.3-3.5-1.7c1.4-1.1,3.3-0.6,4.7-1.7c-0.5,0-0.9-0.2-1.2-0.6c2.4-1.1,5.2-0.2,7.5-0.9
		c-0.7,0-1.2-0.4-1.7-0.4c2.8-1.3,5.7-1.9,8.7-2.6c1.7-0.4,0.2-1.5-0.2-2.2c2.1-0.9,4.5-1.3,6.4-2.4c-0.2-0.2-0.7-0.4-0.9-0.6
		c-0.4-0.1-0.8-0.3-1.2-0.4c-0.4-0.1-0.8-0.2-1.2-0.3c-2.1-0.3-4-0.7-5.9-1.4c2.8-0.4,5.7-0.6,8.5-1.5l-0.2-0.4
		c0-0.2,0.5-0.2,0.7-0.2c-0.2-0.2-0.5-0.2-0.7-0.4c1.4-1.1,3.5-0.6,5-1.7c0.2-0.4-0.7-1.1-0.7-1.1c1.9-1.5,4.5-1.3,6.4-2.7
		c0.3-0.4,0.6-0.8,0.9-1.2s0.6-0.8,0.9-1.2c-2.8-2.1-6.6-1-9.7-2.5c4-1.5,9,0,12-2.4c2.6-2.4,5.9-2.2,9-2.8
		c-0.9-2.2-4.5-1.5-5.4-3.2c-1.2-1.9-3.3-3-5-4.1c1.4-1.5,3.8-0.9,5.4-1.8c0.3-0.2,0.5-0.5,0.6-0.8c0.1-1.3,0.2-1.4,0.2-2.9
		L393.9,353l-46.9,5.9c0,1.1,0,1.8,0.1,3c0.4,0.2,0.7,0.4,1.4,0.6c1.1,0,2.3,0.5,3.4,0.7c-0.5,1.3-2.4,1.3-2.8,2.6
		c0,0.2,0.5,0.6,0.5,0.9c-1.4,1.7-2.6,2.8-4.7,3.4c4.2,1.1,9.2,1.1,13.7,0.9c1.2-0.2,3.1-0.9,3.8,1.1c-3.5,0.9-7.3,0.6-10.6,1.9
		c0.5,0.9,1.2,1.3,1.9,1.7c-1.4,0.6-3.5,0.6-4.7,1.9c3.1,2.4,7.3,1.3,10.6,3c-1.2,0.2-2.1,0.6-3.3,0.6c4.5,0,9-0.6,13.4,0.2
		c-1.9,1.7-5,1.7-7.3,2.8c-0.7,0.4-0.7,1.5-1.7,1.9c1.7,0.6,3.8-0.4,5.4,0.9c-3.1,0.6-6.4,0.2-9.2,1.9c0.5,0.4,1.7,0.9,1.4,1.1
		c-1.9,1.5-4.7-0.2-7.1,0.9c4,3,9.2,2.4,13.9,3.9c-1.7,1.5-5.2,0.2-5,2.6c0.5,2.4,5,1.5,7.5,2.8c-0.2,0.4-0.9,0.6-0.7,1.1
		c1.2,1.3,3.3,0.2,4.5,1.5c-2.1,0.9-5.2,0.6-5.9,3c1.7,0.2,3.3,0.4,5,0.4c-1.2,0.2-2.4-0.2-3.5,0c5.7,3.2,12.5,5.2,19.3,5.8
		c-0.2-0.2-0.5,0.2-0.5-0.2c4.2,0.9,8.3,1.5,12.5,2.4c-2.4,1.1-4.7-0.9-6.6-0.4c-1.2,0.4-0.5,2.6,0.9,2.8c6.1,1.7,12.3,2.4,18.6,2.2
		C412,418.5,413.2,418.9,414,419.4C414,419.4,414,419.4,414,419.4z"/>
	<g id="palm_x5F_small_1_">
		<path id="stem_7_" class="st11" d="M421.5,314.1c0.2,2.3,0.2,4.5,0.1,6.5l0.9,0.1l-0.9,0.2c-0.1,0.8-0.1,1.5-0.2,2.3l0.8,0.1
			l-0.8,0.2c-0.1,1-0.3,2-0.5,2.9l1.2,0.1l-1.3,0.4c-0.2,0.8-0.4,1.6-0.6,2.3l1.2,0.1l-1.4,0.4c-0.3,0.9-0.6,1.7-0.9,2.5l1.4,0.2
			l-1.6,0.4c-0.3,0.8-0.7,1.6-1.1,2.2l1.8,0.2l-2.3,0.6c-0.4,0.9-0.9,1.9-1.5,2.8l1.7,0.2l-2.2,0.6c-0.7,1.1-1.4,2.2-2.1,3.2
			l2.7,0.3l-3.6,1c-0.7,0.9-1.4,1.8-2,2.6l3.8,0.4l-5.4,1.4c-0.9,1-1.5,1.6-1.5,1.6l8.5,3.1c0.3-0.8,1-3,1.9-5.5l-2.2-2.5l2.6,1.4
			c0.4-1.2,0.8-2.4,1.2-3.4l-1.8-2l2.1,1.1c0.5-1.5,0.9-2.6,1-3.1l-1.6-1.9l1.8,0.9c0.4-1.3,0.7-2.5,1-3.7l-0.9-0.9l1,0.4
			c0.2-0.9,0.4-1.7,0.6-2.5l-0.8-0.8l0.9,0.4c0.2-1.1,0.4-2.1,0.6-3l-0.7-0.7l0.8,0.3c0.2-1,0.3-1.9,0.4-2.8l-0.6-0.6l0.6,0.2
			c0.1-1,0.1-1.8,0.2-2.6l-0.5-0.5l0.5,0.2c0.1-5-0.8-7.2-0.8-7.2C422.3,314.1,421.5,314.1,421.5,314.1z"/>
		<path id="leafs_7_" class="st11" d="M425.2,307.4c0.8-0.8,1.7-1.3,2.6-1.8c-0.1-0.1-0.4-0.3-0.6-0.3c0,0,0.5-0.1,0.9,0.2
			c0.6-0.2,1.3-0.4,1.9-0.5c-0.3-0.3-0.7-0.6-1.1-0.7c0,0,1.1-0.1,2,0.5c2.4-0.3,4.3,0.1,4.3,0.1c-6.4-7.5-13.5,2.9-13.5,2.9
			c-11.7-11.7-18.4-0.2-18.4-0.2c1.8-1.3,4.2-1.4,6.5-1.1c0.7-0.9,1.9-1.3,1.9-1.3c-0.5,0.3-0.9,1.1-1,1.5c0.6,0.1,1.2,0.3,1.8,0.4
			c0.7-0.6,1.4-0.8,1.4-0.8c-0.3,0.2-0.6,0.6-0.8,1c0.2,0.1,0.4,0.1,0.6,0.2c0.5-0.4,1-0.5,1-0.5c-0.2,0.1-0.4,0.4-0.6,0.7
			c1.1,0.4,2,0.7,2.6,1c0.3-0.1,0.7-0.1,0.7-0.1c-0.1,0-0.3,0.1-0.4,0.2c0.4,0.2,0.6,0.3,0.6,0.3c-15.4-0.2-13.3,13.1-13.3,13.1
			c1.1-2,2.7-3.5,4.3-4.6c0.3-1.7,1.7-3.1,1.7-3.1c-0.4,0.6-0.4,1.6-0.4,2.3c0.6-0.4,1.3-0.7,1.9-1c0.2-1.2,1.2-2.2,1.2-2.2
			c-0.3,0.5-0.3,1.4-0.3,1.8c0.3-0.1,0.6-0.2,0.8-0.3c0.2-0.8,0.9-1.4,0.9-1.4c-0.2,0.3-0.3,0.9-0.3,1.2c0.8-0.2,1.2-0.3,1.2-0.3
			c-6.3,6-2.1,15.5-2.1,15.5c0.1-2.8,1.4-8.3,2-9.7c-0.3-0.5-0.3-1.2-0.3-1.2c0.1,0.3,0.4,0.6,0.5,0.8c0.2-0.5,0.5-0.9,0.8-1.3
			c-0.1-0.8,0.4-1.7,0.4-1.7c-0.1,0.3,0,0.8,0.1,1.1c0.6-0.8,1.3-1.5,1.9-2c-0.2-0.8,0.2-1.7,0.2-1.7c-0.1,0.4,0.2,1,0.3,1.3
			c1.3-1,2.3-1.4,2.3-1.4s0.8,0,1.5,0.4c0.3,0.2,0.5,0.3,0.8,0.5c0.1-0.2,0.5-0.8,0.5-1.2c0,0,0.2,0.8,0,1.6
			c0.7,0.6,1.3,1.4,1.7,2.2c0.2-0.1,0.7-0.4,0.9-0.8c0,0-0.1,0.8-0.6,1.3c1.8,4.5-0.1,10.5-0.1,10.5c8.5-8.3,0.1-16.3,0.1-16.3
			c1.5-0.1,2.9,0.1,4.2,0.5c-0.1-0.5-0.2-1.1-0.5-1.5c0,0,1,0.7,1.5,1.8c0.5,0.2,0.9,0.4,1.4,0.6c-0.1-0.6-0.3-1.4-0.7-1.9
			c0,0,1.5,1.1,2,2.6c2.8,1.6,4.5,3.6,4.5,3.6C438.2,305.8,425.2,307.4,425.2,307.4z"/>
	</g>
	<g id="palm_x5F_big_1_">
		<path id="stem_4_" class="st11" d="M404.2,264.4c0,0-3.7,3.9-7.3,14.5l1.3,0l-1.5,0.6c-0.6,1.7-1.2,3.6-1.7,5.7l1.5,0l-1.7,0.7
			c-0.5,1.9-1,4-1.4,6.2l1.8,0l-2,0.9c-0.4,2.1-0.8,4.4-1.2,6.8l2.3,0l-2.4,1c-0.3,1.8-0.5,3.8-0.7,5.8l2.5,0l-2.6,1.1
			c-0.3,2.7-0.5,5.6-0.7,8.6l4.6-0.6l-4.7,2.7c-0.1,1.1-0.1,3.8-0.2,7.3l5.2-0.7l-5.3,2.9c-0.1,2.6-0.1,5.4-0.2,8.2l6.6-0.9
			l-6.7,3.7c-0.1,5.9-0.3,11.2-0.3,13h20.4c0,0-0.7-1.7-1.8-4.5l-10.2-7.2l8.3,2.1c-0.7-2.1-1.5-4.5-2.3-7l-6.8-4.8l5.8,1.5
			c-0.8-2.7-1.5-5.6-2-8.4l-4.2-3l3.8,1c-0.4-2.4-0.7-4.8-0.9-7.1l-4.3-3.1l4,0.9c-0.2-1.8-0.4-3.6-0.5-5.6l-3-2.2l3,0.7
			c-0.1-1.9,0-4,0.1-6.1l-2.6-1.9l2.7,0.6c0.1-1.7,0.3-3.5,0.5-5.3l-2.4-1.8l2.6,0.6c0.3-2.1,0.7-4.3,1.2-6.5l-1.5-1.1l1.7,0.4
			c0.4-1.6,0.8-3.3,1.3-4.9l-1.7-1.2l1.9,0.5c1.3-4.3,3.1-8.9,5.3-13.6C406.5,263.9,404.2,264.4,404.2,264.4z"/>
		<path id="leafs_4_" class="st11" d="M437.8,257.7c5.2,1.2,10.1,3.4,12.9,7.4c0,0-5.2-29.5-39-13.9c0,0-6.9-27.4-26.3-16.7
			c0,0,4.4,0.7,9.1,3.2c2.3-0.7,4.7,0.5,4.7,0.5c-0.8-0.2-2.1,0.2-2.9,0.5c1.2,0.7,2.4,1.6,3.6,2.6c1.1-0.2,2.1,0.3,2.1,0.3
			c-0.4-0.1-1,0.1-1.4,0.3c1.6,1.6,3.1,3.5,4.2,5.7c0,0-26.1-13.6-36,12.1c0,0,5.3-2.7,12.4-4c2.3-2.8,6.3-4,6.3-4
			c-1.3,0.6-2.4,2.3-3,3.5c1.1-0.1,2.2-0.2,3.3-0.2c1.8-1.9,4.6-2.6,4.6-2.6c-1,0.5-1.8,1.8-2.3,2.7c3.1,0.2,6.2,0.8,9.2,2.1
			c0,0-24.1,10.5-12.5,34.5c0,0,0.6-14.2,7.9-22.3c-0.6-1.5-0.3-3.3-0.3-3.3c0,0.9,0.9,2,1.2,2.4c1.5-1.4,3.2-2.6,5.3-3.4
			c0.1-1.8,1.3-3.4,1.3-3.4c-0.4,0.9-0.1,2.4,0.1,2.9c0.7-0.2,1.3-0.3,2.1-0.4c0,0,2.2-0.4,3.4,0.4c0,0,1.8,1.5,3.7,4.6
			c0.4-0.4,1.5-1.4,1.7-2.4c0,0,0.1,2.1-0.9,3.7c0.9,1.6,1.7,3.5,2.4,5.7c0.4-0.5,1-1.4,1-2.2c0,0,0.4,2.3-0.5,3.9
			c0.3,1,0.5,2.2,0.6,3.3c0.4-0.2,1.4-0.6,1.7-1.2c0,0-0.5,1.4-1.6,2.3c0.3,3.3-1.2,16-3.2,22c0,0,16.3-16.7,7.7-34.3
			c0,0,0.9,0.6,2.4,1.7c0.2-0.6,0.6-1.8,0.4-2.7c0,0,1,1.8,0.8,3.6c0.5,0.4,1,0.8,1.5,1.3c0.3-0.8,1.1-2.7,0.8-4
			c0,0,1.4,2.9,0.9,5.6c1,1,2.1,2.2,3.2,3.5c0.5-1.3,1.3-3.5,0.9-5.1c0,0,1.9,4.1,1.2,7.8c2.5,3.6,4.6,8,5.5,13
			c0,0,14.6-26.6-18-38.1c0,0,0.5-0.1,1.4-0.1c-0.2-0.3-0.4-0.6-0.7-0.7c0,0,0.7,0.2,1.4,0.6c1.5-0.1,3.7-0.1,6.2-0.1
			c-0.1-0.7-0.3-1.4-0.6-1.9c0,0,0.9,0.8,1.6,1.9c0.5,0,0.9,0,1.4,0.1c-0.1-0.9-0.3-2.1-0.9-2.8c0,0,1.4,1.2,2.4,2.9
			c1.4,0.1,2.7,0.3,4.1,0.6c0-0.9-0.1-2.9-1-3.9C434.8,253.3,437.1,255.2,437.8,257.7z"/>
	</g>
	<path id="beach_4_" class="st11" d="M347,358.9c0,0,29.9-31.9,126.2,9.4C473.2,368.3,406.8,356.6,347,358.9z"/>
</g>
<g id="left_x5F_eye">
	<linearGradient id="shadow_2_" gradientUnits="userSpaceOnUse" x1="172.238" y1="359.0245" x2="172.238" y2="430.6875">
		<stop  offset="0" style="stop-color:#000000"/>
		<stop  offset="1" style="stop-color:#662400"/>
	</linearGradient>
	<path id="shadow_3_" class="st12" d="M169.3,419.4c0.1-0.2,0.3-0.2,0.5-0.2c-4.5-0.2-9.2-0.9-13.7-1.3c0.2-0.2,0.5-0.4,0.5-0.6
		c-1.9-1.9-5.2-1.1-7.1-3c1.2-0.6,2.4-1.3,3.5-1.7c-1.4-1.1-3.3-0.6-4.7-1.7c0.5,0,0.9-0.2,1.2-0.6c-2.4-1.1-5.2-0.2-7.5-0.9
		c0.7,0,1.2-0.4,1.7-0.4c-2.8-1.3-5.7-1.9-8.7-2.6c-1.7-0.4-0.2-1.5,0.2-2.2c-2.1-0.9-4.5-1.3-6.4-2.4c0.2-0.2,0.7-0.4,0.9-0.6
		c0.4-0.1,0.8-0.3,1.2-0.4c0.4-0.1,0.8-0.2,1.2-0.3c2.1-0.3,4-0.7,5.9-1.4c-2.8-0.4-5.7-0.6-8.5-1.5l0.2-0.4c0-0.2-0.5-0.2-0.7-0.2
		c0.2-0.2,0.5-0.2,0.7-0.4c-1.4-1.1-3.5-0.6-5-1.7c-0.2-0.4,0.7-1.1,0.7-1.1c-1.9-1.5-4.5-1.3-6.4-2.7c-0.3-0.4-0.6-0.8-0.9-1.2
		c-0.3-0.4-0.6-0.8-0.9-1.2c2.8-2.1,6.6-1,9.7-2.5c-4-1.5-9,0-12-2.4c-2.6-2.4-5.9-2.2-9-2.8c0.9-2.2,4.5-1.5,5.4-3.2
		c1.2-1.9,3.3-3,5-4.1c-1.4-1.5-3.8-0.9-5.4-1.8c-0.3-0.2-0.5-0.5-0.6-0.8c-0.1-1.3-0.2-1.4-0.2-2.9l79.3-15.3l46.9,5.9
		c0,1.1,0,1.8-0.1,3c-0.4,0.2-0.7,0.4-1.4,0.6c-1.1,0-2.3,0.5-3.4,0.7c0.5,1.3,2.4,1.3,2.8,2.6c0,0.2-0.5,0.6-0.5,0.9
		c1.4,1.7,2.6,2.8,4.7,3.4c-4.2,1.1-9.2,1.1-13.7,0.9c-1.2-0.2-3.1-0.9-3.8,1.1c3.5,0.9,7.3,0.6,10.6,1.9c-0.5,0.9-1.2,1.3-1.9,1.7
		c1.4,0.6,3.5,0.6,4.7,1.9c-3.1,2.4-7.3,1.3-10.6,3c1.2,0.2,2.1,0.6,3.3,0.6c-4.5,0-9-0.6-13.4,0.2c1.9,1.7,5,1.7,7.3,2.8
		c0.7,0.4,0.7,1.5,1.7,1.9c-1.7,0.6-3.8-0.4-5.4,0.9c3.1,0.6,6.4,0.2,9.2,1.9c-0.5,0.4-1.7,0.9-1.4,1.1c1.9,1.5,4.7-0.2,7.1,0.9
		c-4,3-9.2,2.4-13.9,3.9c1.7,1.5,5.2,0.2,5,2.6c-0.5,2.4-5,1.5-7.5,2.8c0.2,0.4,0.9,0.6,0.7,1.1c-1.2,1.3-3.3,0.2-4.5,1.5
		c2.1,0.9,5.2,0.6,5.9,3c-1.7,0.2-3.3,0.4-5,0.4c1.2,0.2,2.4-0.2,3.5,0c-5.7,3.2-12.5,5.2-19.3,5.8c0.2-0.2,0.5,0.2,0.5-0.2
		c-4.2,0.9-8.3,1.5-12.5,2.4c2.4,1.1,4.7-0.9,6.6-0.4c1.2,0.4,0.5,2.6-0.9,2.8c-6.1,1.7-12.3,2.4-18.6,2.2
		C171.3,418.5,170.1,418.9,169.3,419.4C169.4,419.4,169.3,419.4,169.3,419.4z"/>
	<g id="palm_x5F_small">
		<path id="stem_2_" class="st11" d="M166.7,314.5c0,0-1,2.2-0.8,7.2l0.5-0.2l-0.5,0.5c0,0.8,0.1,1.7,0.2,2.6l0.6-0.2l-0.6,0.6
			c0.1,0.9,0.2,1.8,0.4,2.8l0.8-0.3l-0.7,0.7c0.2,1,0.3,2,0.6,3l0.9-0.4l-0.8,0.8c0.2,0.8,0.4,1.6,0.6,2.5l1-0.4l-0.9,0.9
			c0.3,1.2,0.6,2.4,1,3.7l1.8-0.9l-1.6,1.9c0.1,0.5,0.5,1.6,1,3.1l2.1-1.1l-1.8,2c0.4,1.1,0.8,2.3,1.2,3.4l2.6-1.4l-2.2,2.5
			c0.8,2.5,1.6,4.7,1.9,5.5l8.5-3.1c0,0-0.6-0.6-1.5-1.6l-5.4-1.4l3.8-0.4c-0.6-0.8-1.3-1.6-2-2.6l-3.6-1l2.7-0.3
			c-0.7-1-1.5-2.1-2.1-3.2l-2.2-0.6l1.7-0.2c-0.5-0.9-1-1.9-1.5-2.8l-2.3-0.6l1.8-0.2c-0.4-0.7-0.7-1.4-1.1-2.2l-1.6-0.4l1.4-0.2
			c-0.3-0.8-0.6-1.6-0.9-2.5l-1.4-0.4l1.2-0.1c-0.2-0.7-0.4-1.5-0.6-2.3l-1.3-0.4l1.2-0.1c-0.2-0.9-0.4-1.9-0.5-2.9l-0.8-0.2
			l0.8-0.1c-0.1-0.7-0.2-1.5-0.2-2.3l-0.9-0.2l0.9-0.1c-0.1-2-0.1-4.2,0.1-6.5C168.2,314.1,167.6,314.1,166.7,314.5z"/>
		<path id="leafs_2_" class="st11" d="M171.9,308.9c0,0,0.2-0.1,0.6-0.3c-0.1-0.1-0.3-0.2-0.4-0.2c0,0,0.3,0,0.7,0.1
			c0.6-0.3,1.5-0.6,2.6-1c-0.1-0.3-0.3-0.5-0.6-0.7c0,0,0.5,0.2,1,0.5c0.2-0.1,0.4-0.1,0.6-0.2c-0.2-0.4-0.5-0.8-0.8-1
			c0,0,0.8,0.3,1.4,0.8c0.6-0.2,1.2-0.3,1.8-0.4c-0.1-0.4-0.5-1.2-1-1.5c0,0,1.2,0.4,1.9,1.3c2.3-0.3,4.7-0.1,6.5,1.1
			c0,0-6.7-11.5-18.4,0.2c0,0-7.1-10.4-13.5-2.9c0,0,1.9-0.4,4.3-0.1c0.9-0.6,2-0.5,2-0.5c-0.4,0-0.8,0.4-1.1,0.7
			c0.6,0.1,1.3,0.3,1.9,0.5c0.4-0.2,0.9-0.2,0.9-0.2c-0.2,0-0.4,0.2-0.6,0.3c0.9,0.4,1.8,1,2.6,1.8c0,0-13-1.7-13.2,10.6
			c0,0,1.8-1.9,4.5-3.6c0.5-1.5,2-2.6,2-2.6c-0.4,0.5-0.6,1.3-0.7,1.9c0.4-0.2,0.9-0.4,1.4-0.6c0.5-1.1,1.5-1.8,1.5-1.8
			c-0.3,0.4-0.5,1-0.5,1.5c1.3-0.4,2.7-0.6,4.2-0.5c0,0-8.4,8.1,0.1,16.3c0,0-1.9-6-0.1-10.5c-0.5-0.5-0.6-1.3-0.6-1.3
			c0.1,0.4,0.7,0.7,0.9,0.8c0.4-0.8,0.9-1.6,1.7-2.2c-0.2-0.8,0-1.6,0-1.6c0,0.4,0.3,1,0.5,1.2c0.2-0.2,0.5-0.3,0.8-0.5
			c0.9-0.4,1.5-0.4,1.5-0.4s1,0.4,2.3,1.4c0.1-0.2,0.4-0.8,0.3-1.3c0,0,0.3,0.9,0.2,1.7c0.6,0.5,1.2,1.2,1.9,2
			c0.1-0.3,0.2-0.7,0.1-1.1c0,0,0.5,0.9,0.4,1.7c0.3,0.4,0.5,0.8,0.8,1.3c0.2-0.1,0.5-0.4,0.5-0.8c0,0,0,0.7-0.3,1.2
			c0.6,1.3,1.9,6.9,2,9.7c0,0,4.2-9.5-2.1-15.5c0,0,0.5,0.1,1.2,0.3c0-0.3,0-0.9-0.3-1.2c0,0,0.7,0.6,0.9,1.4
			c0.3,0.1,0.5,0.2,0.8,0.3c0-0.4,0.1-1.3-0.3-1.8c0,0,1,1,1.2,2.2c0.6,0.3,1.2,0.6,1.9,1c0-0.6,0-1.7-0.4-2.3c0,0,1.4,1.4,1.7,3.1
			c1.6,1.1,3.1,2.6,4.3,4.6C185.3,322,187.3,308.7,171.9,308.9z"/>
	</g>
	<g id="palm_x5F_big">
		<path id="stem_1_" class="st11" d="M182,264.7c2.2,4.7,4,9.2,5.3,13.6l1.9-0.5l-1.7,1.2c0.5,1.7,0.9,3.3,1.3,4.9l1.7-0.4l-1.5,1.1
			c0.5,2.2,0.9,4.4,1.2,6.5l2.6-0.6l-2.4,1.8c0.2,1.8,0.4,3.6,0.5,5.3l2.7-0.6l-2.6,1.9c0.1,2.1,0.1,4.1,0.1,6.1l3-0.7l-3,2.2
			c-0.1,2-0.3,3.8-0.5,5.6l4-0.9l-4.3,3.1c-0.2,2.3-0.5,4.7-0.9,7.1l3.8-1l-4.2,3c-0.6,2.9-1.3,5.7-2,8.4l5.8-1.5l-6.8,4.8
			c-0.8,2.5-1.5,4.9-2.3,7l8.3-2.1l-10.2,7.2c-1.1,2.8-1.8,4.5-1.8,4.5h20.4c0-1.8-0.1-7.1-0.3-13l-6.7-3.7l6.6,0.9
			c-0.1-2.8-0.1-5.6-0.2-8.2l-5.3-2.9l5.2,0.7c-0.1-3.5-0.2-6.2-0.2-7.3l-4.7-2.7l4.6,0.6c-0.2-3-0.4-5.9-0.7-8.6l-2.6-1.1l2.5,0
			c-0.2-2-0.5-3.9-0.7-5.8l-2.4-1l2.3,0c-0.4-2.4-0.8-4.7-1.2-6.8l-2-0.9l1.8,0c-0.5-2.2-0.9-4.3-1.4-6.2l-1.7-0.7l1.5,0
			c-0.6-2.1-1.1-4-1.7-5.7l-1.5-0.6l1.3,0c-3.6-10.6-7.3-14.5-7.3-14.5C183.3,263.9,182,264.7,182,264.7z"/>
		<path id="leafs_1_" class="st11" d="M184.8,247.7c1.1-2.3,2.5-4.2,4.2-5.7c-0.4-0.2-1-0.4-1.4-0.3c0,0,1-0.5,2.1-0.3
			c1.1-1,2.3-1.9,3.6-2.6c-0.8-0.3-2-0.7-2.9-0.5c0,0,2.3-1.1,4.7-0.5c4.8-2.5,9.1-3.2,9.1-3.2c-19.3-10.8-26.3,16.7-26.3,16.7
			c-33.8-15.6-39,13.9-39,13.9c2.7-4,7.7-6.2,12.9-7.4c0.8-2.5,3-4.3,3-4.3c-0.8,1-0.9,3.1-1,3.9c1.4-0.2,2.8-0.4,4.1-0.6
			c1-1.7,2.4-2.9,2.4-2.9c-0.6,0.7-0.8,1.8-0.9,2.8c0.5,0,0.9-0.1,1.4-0.1c0.7-1.1,1.6-1.9,1.6-1.9c-0.4,0.5-0.6,1.2-0.6,1.9
			c2.5-0.1,4.7,0,6.2,0.1c0.6-0.5,1.4-0.6,1.4-0.6c-0.3,0.1-0.5,0.4-0.7,0.7c0.9,0.1,1.4,0.1,1.4,0.1c-32.6,11.5-18,38.1-18,38.1
			c0.9-5,3-9.4,5.5-13c-0.7-3.8,1.2-7.8,1.2-7.8c-0.4,1.6,0.3,3.8,0.9,5.1c1.1-1.3,2.1-2.4,3.2-3.5c-0.5-2.7,0.9-5.6,0.9-5.6
			c-0.3,1.3,0.4,3.3,0.8,4c0.5-0.5,1-0.9,1.5-1.3c-0.2-1.8,0.8-3.6,0.8-3.6c-0.3,0.9,0.2,2.1,0.4,2.7c1.4-1.1,2.4-1.7,2.4-1.7
			c-8.6,17.6,7.7,34.3,7.7,34.3c-2-6-3.6-18.6-3.2-22c-1.1-0.8-1.6-2.3-1.6-2.3c0.4,0.6,1.3,1,1.7,1.2c0.2-1.2,0.4-2.3,0.6-3.3
			c-0.9-1.7-0.5-3.9-0.5-3.9c0,0.8,0.6,1.7,1,2.2c0.7-2.2,1.5-4.1,2.4-5.7c-1-1.6-0.9-3.7-0.9-3.7c0.2,1,1.3,2,1.7,2.4
			c1.9-3.1,3.7-4.6,3.7-4.6s1.4-0.8,3.4-0.4c0.7,0.1,1.4,0.2,2.1,0.4c0.1-0.6,0.5-2,0.1-2.9c0,0,1.1,1.6,1.3,3.4
			c2,0.8,3.8,2,5.3,3.4c0.3-0.3,1.2-1.4,1.2-2.4c0,0,0.3,1.8-0.3,3.3c7.3,8,7.9,22.3,7.9,22.3c11.5-24.1-12.5-34.5-12.5-34.5
			c3-1.3,6.1-1.9,9.2-2.1c-0.5-0.9-1.3-2.2-2.3-2.7c0,0,2.8,0.8,4.6,2.6c1.1,0,2.3,0.1,3.3,0.2c-0.6-1.2-1.7-2.9-3-3.5
			c0,0,4.1,1.1,6.3,4c7.1,1.3,12.4,4,12.4,4C210.9,234.1,184.8,247.7,184.8,247.7z"/>
	</g>
	<path id="beach_3_" class="st11" d="M236.3,358.9c0,0-29.9-31.9-126.2,9.4C110.1,368.3,176.5,356.6,236.3,358.9z"/>
</g>
<path id="frame_1_" class="st13" d="M0,0v763.9h580V0H0z M556.4,740.3H23.6V23.6h532.8V740.3z"/>
</svg>
