<?xml version="1.0" encoding="utf-8"?>
<!-- Generator: Adobe Illustrator 22.0.1, SVG Export Plug-In . SVG Version: 6.00 Build 0)  -->
<svg version="1.1" xmlns="http://www.w3.org/2000/svg" xmlns:xlink="http://www.w3.org/1999/xlink" x="0px" y="0px"
	 viewBox="0 0 815 510" style="enable-background:new 0 0 815 510;" xml:space="preserve">
<style type="text/css">
	.st0{fill:#FFFFFF;}
</style>
<g id="Слой_3">
</g>
<g id="Слой_7">
	<path class="st0" d="M116.5,263.9h5.1v30.4h-5.1V263.9z M180,210.6h15.2v-5.1H180V210.6z M144.9,263.3l7,13.5l4.5-2.3l-7-13.5
		L144.9,263.3z M144.9,152.9l4.5,2.3l7-13.5l-4.5-2.3L144.9,152.9z M81.7,274.4l4.5,2.3l7-13.5l-4.5-2.3L81.7,274.4z M165.1,239.8
		l25.7,16.1l2.7-4.3l-25.7-16.1L165.1,239.8z M44.6,251.5l2.7,4.3L73,239.8l-2.7-4.3L44.6,251.5z M167.6,180.6l25.8-16.1l-2.7-4.3
		l-25.8,16.1L167.6,180.6z M413.8,266.5h-5.1v30.4h5.1V266.5z M448.7,277l-7-13.5l-4.5,2.3l7,13.5L448.7,277z M385.4,265.9l-4.5-2.3
		l-7,13.5l4.5,2.3L385.4,265.9z M485.7,254.1L460,238.1l-2.7,4.3l25.7,16.1L485.7,254.1z M365.2,242.4l-2.7-4.3l-25.7,16.1l2.7,4.3
		L365.2,242.4z M797.5,71.1v365.3h-203V294c0-0.1-0.1-0.2-0.1-0.3l0.1,0V71.1H771c0.1,0,0.1-0.1,0.2-0.1l0,0.1H797.5z M784.3,128.9
		l0.1-1.7c0.1-2.4-0.8-4.6-1.9-6.2c-0.4,1.4-0.9,2.7-1.3,3.5l-0.8,1.8c3.8,3.6,8,8,12,12.9V133c-2.1-1.2-3.7-2-6.6-3.3L784.3,128.9z
		 M792.4,96.4c-0.6,0.4-1.2,0.8-1.7,1.2c0.6,0.3,1.1,0.5,1.7,0.8V96.4z M792.4,76.1h-20.3c-4.5,2.3-7.2,3.8-7.2,3.9l-6,3.5l2.3-6.5
		c0.1-0.3,0.2-0.6,0.3-0.8h-13.2c-0.6,4.4-0.9,9.1-1,14l-0.1,3.2l-3.1-0.7c-36.3-8.8-63.4-6-80.6,8.4c-11.1,9.3-15.8,21.8-17.9,30.6
		c-0.8,3.4-1.3,6.6-1.5,9.2c6.6-8.7,12.2-13.5,20.5-18.1c2.2-9.9,13.1-14.9,13.6-15.2l3.8-1.7l-0.4,8.5c1.9-0.8,3.5-1.3,5.8-2
		c2.9-5.2,8.4-8.8,11.5-9.7l4-1.1l-0.8,4.1c0,0-0.3,1.7-0.6,3.6c15.2-2.9,24.3-1.3,24.7-1.3l7.1,1.3l-6.4,3.4
		c-24.2,13-39.3,29.6-45,49.4c-0.2,0.7-0.4,1.4-0.6,2.1l0.2,0.5c-0.1,0-0.2,0.1-0.3,0.1c-5.2,21.4,1.7,41.3,6.6,51.8
		c1.1-11.4,3.7-20,9-29.6c-2.4-11.4,2.1-21.5,2.3-21.9l2.2-4.8l5.3,10.6c1.4-1.9,2.9-3.8,4.4-5.6c-1-3.9-0.4-8.6,2-14.4l1.8-4.3
		l5.9,8.4l2.8-2.5c4.9-4.3,8.3-6.5,8.4-6.6l6.7-4.4l-2.9,7.4c-7.5,19-6.2,35.3,3.7,48.6c3.9,5.3,8.6,9,12.1,11.3
		c-2.4-7.8-3.8-13.5-4.7-19.8c-6.4-5.9-6.3-13.8-6.3-14.2l0.1-3.5l5.1,1.7c0-1.3,0-2.6,0-4.1c-4.9-5.4-3.8-12.7-3.8-13.1l0.5-2.9
		l5.2,1.6c0.9-4,2-7.5,2.6-9.2c-3.3-6.2-0.5-17.1-0.1-18.4l1.1-4.2l7.5,7.3c15.6,14.8,26.8,35.2,33.8,50.4v-32.7
		c-11.2-16-27.3-27.7-27.5-27.8l2.6-4.4c0.1,0,5.1,2.4,9.9,4.6c0.6-1.8,1.2-4,1.5-5l1.1-3.7l3,2.5c0.3,0.2,5.7,4.8,6.4,11.8
		c1.2,0.5,2.1,1,3.1,1.5v-23.2c-2.4-1.2-5-2.3-7.6-3.4l-3.8-1.6l3.1-2.7c0.1-0.1,3.2-2.7,8.3-6V76.1z M631.5,253.5l-1.7,3.8l6.3,3
		l33.7-6.1l4.3-7.9l24.1-12.8l-6.2,8.9l31.3-16.2l-8.1-2.6l-8.4,4.5l-2.4-4.5l3.3-1.8l-15.4,3.8l-46.4,24l-11.4-6l-8.9,4.6
		L631.5,253.5z M621.3,244.9l7.6-3.9l-3.4-1.8l-6.8,3.5L621.3,244.9z M675.6,167.2c-15.3,7.6-25.3,23.4-25.3,40.9
		c0,6.1,1.2,12.1,3.5,17.6l12.9-6.7l18.6,3.8c-2.4-4.6-6-12.4-8.4-22.1C674,189.1,673.6,177.9,675.6,167.2z M679.2,226.8l-11.7-2.4
		l-5.8,3l7.6,4.5L679.2,226.8z M655.8,229.8c1.3,2.4,2.8,4.7,4.5,6.8l3.7-1.9L655.8,229.8z M671.3,262l1.7-0.9l9.2-13.4l-4.4,2.3
		L671.3,262z M685.1,252.5c3.6,0.9,7.2,1.3,11,1.3c25.2,0,45.7-20.5,45.7-45.7h0.7c-2.3-2.1-4.7-4.6-6.9-7.5
		c-4.9-6.5-7.9-13.8-9.1-21.7c-0.3-2.2-0.5-4.4-0.5-6.7l-0.6,0.8c-2.8-2.3-5.8-4.3-9.1-5.9l-0.3,0.3c-2.7,3.1-5.2,6.4-7.5,9.8
		l-2.4,3.6l-4-7.9c-0.8,3.7-1.3,8.7,0,13.9l0.2,1l-0.5,0.9c-5.7,10.2-8.3,19.1-9.1,31.8l16-4l27.7,8.7l-50.6,26.2l0,0L685.1,252.5z
		 M728.3,155c-0.4,0.4-0.9,0.8-1.3,1.2l-3.6,3.3c-0.3,0.3-0.3,0.3-0.5,0.5c-0.1,0.2-0.3,0.3-0.7,0.7l-2.1,2.2l-3.8-5.5
		c-0.4,1.4-0.5,2.8-0.6,4c3.7,1.5,7.1,3.5,10.3,5.9C726.4,163.3,727.1,159.2,728.3,155z M599.6,76.1v217.1c1,3.3,2.3,7.3,3.9,11.9
		c9.5-5,17.8-2.7,23.3,0.3c5.9,3.2,9.7,7.9,10.3,8.6c6.2,6.9,12.6,10.3,19,10c10.2-0.4,17.6-9.8,17.6-9.9l2,1.5l-1.9-1.7
		c7.3-8.1,15-12.1,23.1-11.8c12.2,0.5,20.5,10.7,21.4,11.9c6.2,6.9,12.6,10.3,19,10c10.2-0.4,17.6-9.8,17.6-9.9l2,1.5L755,314
		c0.2-0.2,0.4-0.5,0.6-0.7c0.1-0.1,0.2-0.2,0.2-0.2c0.1-0.1,0.3-0.3,0.4-0.4c0.1-0.1,0.2-0.2,0.3-0.3c0.1-0.1,0.2-0.2,0.3-0.3
		c0.1-0.1,0.2-0.2,0.3-0.3c0.1-0.1,0.2-0.2,0.3-0.3c0.1-0.1,0.2-0.2,0.3-0.3c0.1-0.1,0.2-0.2,0.3-0.3c0.1-0.1,0.2-0.2,0.4-0.3
		c0.1-0.1,0.2-0.2,0.3-0.2c0.1-0.1,0.3-0.2,0.4-0.3c0.1-0.1,0.2-0.1,0.2-0.2c0.1-0.1,0.3-0.2,0.4-0.3c0.1-0.1,0.2-0.1,0.2-0.2
		c0.1-0.1,0.3-0.2,0.4-0.3c0.1-0.1,0.1-0.1,0.2-0.2c0.1-0.1,0.3-0.2,0.4-0.3c0.1-0.1,0.1-0.1,0.2-0.2c0.1-0.1,0.3-0.2,0.4-0.3
		c0.1,0,0.1-0.1,0.2-0.1c0.1-0.1,0.3-0.2,0.4-0.3c0.1,0,0.1-0.1,0.2-0.1c0.2-0.1,0.3-0.2,0.5-0.3c0.1,0,0.1-0.1,0.2-0.1
		c0.2-0.1,0.3-0.2,0.5-0.3c0.1,0,0.1-0.1,0.2-0.1c0.2-0.1,0.3-0.2,0.5-0.3c0.1,0,0.1-0.1,0.2-0.1c0.2-0.1,0.3-0.2,0.5-0.3
		c0,0,0.1-0.1,0.1-0.1c0.2-0.1,0.3-0.2,0.5-0.3c0,0,0.1-0.1,0.1-0.1c0.2-0.1,0.3-0.2,0.5-0.3c0,0,0.1,0,0.1-0.1
		c0.2-0.1,0.3-0.2,0.5-0.3c0,0,0.1,0,0.1-0.1c0.2-0.1,0.4-0.2,0.5-0.2c0,0,0.1,0,0.1,0c0.2-0.1,0.4-0.2,0.5-0.2c0,0,0.1,0,0.1,0
		c0.2-0.1,0.4-0.2,0.6-0.2c0,0,0.1,0,0.1,0c0.2-0.1,0.4-0.1,0.6-0.2c0,0,0,0,0.1,0c0.2-0.1,0.4-0.1,0.6-0.2c0,0,0,0,0,0
		c1.2-0.4,2.5-0.7,3.7-0.9c0.1,0,0.1,0,0.2,0c0.1,0,0.3,0,0.4,0c0.1,0,0.2,0,0.3,0c0.1,0,0.2,0,0.3,0c0.1,0,0.2,0,0.3,0c0,0,0,0,0,0
		c0.3,0,0.5,0,0.8,0c0,0,0.1,0,0.1,0c0.1,0,0.3,0,0.4,0c0.2,0,0.3,0,0.5,0c0.2,0,0.4,0,0.5,0c0.1,0,0.2,0,0.3,0c0.2,0,0.5,0,0.7,0
		c0,0,0,0,0,0c4.2,0.3,8.4,1.8,12.5,4.4l0,0c0.4,0.3,0.8,0.6,1.2,0.8V193.1l-0.1,0.1c-5.7-14.4-18.1-41.3-37.1-59.4l0,0l-1.1-1
		c-0.6,4.1-0.7,8.7,0.9,10.8l0.9,1.1l-0.5,1.3c0,0.1-2.3,6-3.4,12.3l-0.5,2.9l-4.6-1.4c0.2,1.9,1,4.5,3,6.4l0.9,0.8l-0.1,1.2
		c0,1-0.1,2-0.1,2.8l17.2-10.7l2.7,4.3l-18.6,11.6l-1.2-1.9c0,0.7,0.1,1.4,0.1,2.2l0.2,3.8l-5-1.6c0.6,2.2,2,4.9,4.7,7.2l0.8,0.6
		l0.1,1c0.9,6.9,2.5,13,5.3,22v-3.8h15.2v5.1h-14.8c0.3,0.9,0.6,1.8,0.9,2.8l1.7,5.3l-5.1-2.2c-0.2-0.1-3.7-1.6-8.1-4.9
		c-0.8,12.2-6,23.6-14.7,32.4c-9.6,9.6-22.3,14.9-35.9,14.9c-4.8,0-9.5-0.7-14-2l-5.6,8.1l-17.4,9l7.7-14.1l-31.3,5.6l-12.3-5.9
		l2.2-4.8l-15.6-13.3l15.9-8.2l20.3,10.7l9.9-5.1c-6.8-8.8-10.4-19.7-10.4-30.8c0-10.9,3.4-21.3,9.8-30c5.7-7.7,13.2-13.6,22-17.1
		c0-0.1,0.1-0.2,0.1-0.3c3-10.5,8.5-20.1,16.3-28.8v-10.1h5.1v4.9c5.3-5,11.5-9.7,18.6-14.1c-4.4,0.1-10.5,0.7-17.9,2.3l-3.3,0.7
		l0.2-3.4c0.1-0.8,0.1-1.7,0.2-2.5c-1.8,1.4-3.7,3.3-4.8,5.7l-0.5,1.1l-1.2,0.3c-4,1.1-5.7,1.8-10,3.6l-3.7,1.6l0.4-7.7
		c-2.9,2.1-6.5,5.6-7.1,10.2l-0.2,1.3l-1.1,0.6c-10.2,5.5-15.8,10.9-24.7,24l-4.2,6.2l-0.5-7.4c0-0.3-0.5-8.3,1.9-18.7
		c3.2-13.9,9.9-25.4,19.6-33.5c18-15.1,45.6-18.5,82-10.2c0.2-3.8,0.5-7.4,0.9-10.8H599.6z M684.4,431.3h44.4
		c-2.4-15.8-16.1-28-32.6-28c-10.4,0-20,4.8-26.2,13C674.5,421.3,679.3,426.4,684.4,431.3z M733.9,431.3h15.3
		c-2.5-27.1-25.3-48.3-53-48.3c-15.1,0-29.4,6.4-39.5,17.6c3.1,4,6.4,7.9,9.9,11.9c7.2-9,18-14.2,29.6-14.2
		C715.5,398.2,731.4,412.7,733.9,431.3z M754.3,431.3h17.3c-2.6-39.4-35.4-70.7-75.4-70.7c-20.1,0-38.8,7.7-53,21.7
		c3.2,4.7,6.7,9.4,10.3,14.1c11-11.8,26.4-18.6,42.7-18.6c15.6,0,30.2,6.1,41.3,17.1C747.3,404.9,753.1,417.6,754.3,431.3z
		 M648,359.6c-4.2,2.5-8.6,3.8-12.9,3.8c-1.4,0-2.9-0.1-4.3-0.4c2.9,4.9,6.1,10,9.5,15.1c6.8-6.6,14.7-11.9,23.4-15.7
		c10.2-4.5,21.2-6.8,32.5-6.8c0.6,0,1.3,0,1.9,0c-1.4-1.2-2.7-2.5-4-4l1.9-1.7l-2,1.5c-0.1-0.1-7.4-9.6-17.6-9.9
		c-6.4-0.2-12.8,3.1-19,10C656.8,352.3,653.4,356.4,648,359.6z M726,361.3c0.5,0.2,1,0.4,1.6,0.6c6.6,2.8,12.7,6.4,18.3,10.7
		c6.6-5.2,14-9.3,21.9-12.2c4.3-1.6,8.6-2.8,13.1-3.6c-1.9-1.5-3.7-3.3-5.5-5.3l1.9-1.7l-2,1.5c-0.1-0.1-7.4-9.6-17.6-9.9
		c-6.4-0.2-12.8,3.1-19,10C737.9,352.4,733.2,358.1,726,361.3z M771.3,406.9c6-5,13.3-7.9,21.1-8.5v-15.3c-10.2,0.6-19.8,4-28.1,10
		c2.4,3.7,4.5,7.7,6.2,11.8C770.8,405.5,771,406.2,771.3,406.9z M792.4,378v-17.3c-15.4,0.6-30.4,6-42.6,15.3c1.2,1,2.3,2.1,3.4,3.2
		c3,3,5.8,6.2,8.2,9.6c4.5-3.2,9.4-5.8,14.5-7.6C781.3,379.4,786.8,378.3,792.4,378z M792.4,355.7V314c-3-2.8-8.9-7.1-16-6.7
		c-5.6,0.2-11.1,3.2-16.5,8.9c0,0-0.1,0.1-0.1,0.1c-0.1,0.1-0.3,0.3-0.4,0.4c0,0-0.1,0.1-0.1,0.1c-0.2,0.2-0.3,0.3-0.5,0.5
		c-0.9,1.2-9.2,11.4-21.4,11.9c-0.3,0-0.6,0-0.9,0c-7.7,0-15.2-4-22.2-11.8l1.9-1.7l-2,1.5c-0.1-0.1-7.4-9.6-17.6-9.9
		c-6.4-0.2-12.8,3.1-19,10c-0.9,1.2-9.2,11.4-21.4,11.9c-0.3,0-0.6,0-0.9,0c-7.7,0-15.2-4-22.2-11.8l1.9-1.7l-2,1.5
		c0,0-3.5-4.5-8.9-7.4c-6.4-3.4-12.7-3.4-18.9,0.1c4.7,12.6,11.7,28.7,21.7,46.5c6,2.9,12.2,2.5,18.3-1.1c5-2.9,8.1-6.9,8.1-7l2,1.5
		l-1.9-1.7c7.2-8.1,15-12.1,23.1-11.8c12.2,0.5,20.5,10.7,21.4,11.9c3.2,3.6,6.6,6.3,9.9,8l-0.1,0.2c3.2,0.5,6.4,1.1,9.5,2l0-0.1
		c10.1-0.6,17.2-9.8,17.3-9.9l2,1.5l-1.9-1.7c7.2-8.1,15-12.1,23.1-11.8c12.2,0.5,20.5,10.7,21.4,11.9c3,3.4,6.1,5.9,9.2,7.6l0,0
		C789.7,355.8,791.1,355.7,792.4,355.7z M599.6,309.3v60.4c9.9,33.8,26.8,54.1,34.1,61.7h43.5c-23-23.2-42.6-49.8-58.3-79.2
		C610,335.5,603.8,320.6,599.6,309.3z M621.4,424.7c-0.3,2.2-0.6,4.4-0.7,6.6h6.1C625.2,429.5,623.4,427.3,621.4,424.7z
		 M599.6,398.3c2.1,0.1,4.1,0.5,6.1,0.9c-2.1-4.3-4.2-8.9-6.1-13.9V398.3z M599.6,431.3h16c0.3-4.1,0.8-8.2,1.7-12.3
		c-2.7-3.9-5.5-8.4-8.3-13.4c-3-1.2-6.2-1.9-9.4-2.2V431.3z M792.4,431.3v-27.9c-7.2,0.7-13.9,3.6-19.3,8.6c2,6.3,3.2,12.7,3.6,19.3
		H792.4z M698.6,263.9h-5.1v30.4h5.1V263.9z M635.1,205.5h-15.2v5.1h15.2V205.5z M670.2,152.9l-7-13.5l-4.5,2.3l7,13.5L670.2,152.9z
		 M733.4,274.4l-7-13.5l-4.5,2.3l7,13.5L733.4,274.4z M770.5,251.5l-25.7-16.1l-2.7,4.3l25.7,16.1L770.5,251.5z M650.1,176.3
		l-25.8-16.1l-2.7,4.3l25.8,16.1L650.1,176.3z M512.9,416.4l-0.1,0V439h-203V296.3c0-0.1-0.1-0.2-0.1-0.3l0.1,0V73.7h26.4l0-0.1
		c0.1,0,0.1,0.1,0.2,0.1h149.9c0.1,0,0.1-0.1,0.2-0.1l0,0.1h26.4v222.2l0.1,0c0,0.1-0.1,0.2-0.1,0.3v119.7
		C512.8,416,512.9,416.2,512.9,416.4z M507.7,387.6c-0.8,2.1-1.7,4.2-2.5,6.2c0.9,1.9,1.8,3.8,2.5,5.8V387.6z M507.7,311.5
		c-4.1,11.4-10.3,26.3-19.2,42.9c-15.8,29.6-35.5,56.3-58.6,79.6h43.5c7.1-7.3,24.1-27.6,34.2-61.6l0.2,0V311.5z M480.2,433.9h7
		c-0.2-2.5-0.4-5.1-0.8-7.6C484.1,429.4,482,431.9,480.2,433.9z M399.9,433.9h22.8c4.6-4.5,8.9-9,13-13.5
		c-5.7-7.7-14.7-12.3-24.4-12.3c-9.6,0-18.7,4.6-24.4,12.3C391,425,395.3,429.5,399.9,433.9z M323,131.6l-1.5,0.7
		c-2.9,1.3-4.5,2.1-6.6,3.3v6.4c4-5,8.2-9.3,12-12.9l-0.8-1.8c-0.4-0.8-0.8-2.2-1.3-3.5c-1,1.6-1.9,3.8-1.9,6.2L323,131.6z
		 M314.9,295.6c1,3.3,2.3,7.3,3.9,11.9c9.5-5,17.8-2.7,23.3,0.3c5.9,3.2,9.7,7.9,10.3,8.6c6.2,6.9,12.6,10.3,19,10
		c10.2-0.4,17.6-9.8,17.6-9.9l2,1.5l-1.9-1.7c7.2-8.1,15-12.1,23.1-11.8c12.2,0.5,20.5,10.7,21.4,11.9c6.2,6.9,12.6,10.3,19,10
		c10.2-0.4,17.6-9.8,17.6-9.9l2,1.5l-1.9-1.7c6.4-7.2,13.3-11.2,20.4-11.7c4.4-0.4,8.8,0.6,13.1,2.8c1.6-4.6,2.9-8.7,3.9-12v-99.3
		c-4.6-11.8-17.4-40.9-37.3-59.7l0,0l-1.1-1c-0.6,4.1-0.7,8.7,0.9,10.8l0.9,1.1l-0.5,1.3c0,0-1.4,3.6-2.5,8.1l-0.2,2.7l-0.3-0.5
		c-0.1,0.7-0.3,1.3-0.4,2l-0.5,2.9l-4.6-1.4c0.2,1.9,1,4.5,3,6.4l0.9,0.8l-0.1,1.2c0,1-0.1,1.9-0.1,2.8l17-10.7l2.7,4.3l-19.6,12.2
		l0.2,3.4l-3.7-1.2l-0.9,0.6c0.7,2,2,4.3,4.3,6.2l0.8,0.6l0.1,1c0.9,6.9,2.5,13,5.3,22v-3.8h15.2v5.1h-14.8c0.3,0.9,0.6,1.8,0.9,2.8
		l1.7,5.3l-5.1-2.2c-0.2-0.1-3.7-1.6-8.1-4.9c-0.8,12.2-6,23.6-14.7,32.4c-9.6,9.6-22.3,14.9-35.9,14.9s-26.3-5.3-35.9-14.9
		c-8.8-8.8-13.9-20.2-14.7-32.4c-4.4,3.2-7.8,4.8-8.1,4.9l-5.1,2.2l1.7-5.3c0.3-1,0.6-1.9,0.9-2.8h-14.8v-5.1h15.2v3.8
		c2.8-9,4.4-15.1,5.3-22l0.1-1l0.8-0.6c2.7-2.3,4-5,4.7-7.2l-5,1.6l0.2-3.8c0-0.7,0.1-1.5,0.1-2.2l-1.2,1.9l-18.6-11.6l2.7-4.3
		l17.2,10.7c0-0.9,0-1.8-0.1-2.8l-0.1-1.2l0.9-0.8c2.1-1.9,2.8-4.5,3.1-6.4l-4.6,1.4l-0.5-2.9c-1.1-6.3-3.3-12.2-3.4-12.3l-0.5-1.3
		l0.9-1.1c1.6-2.1,1.5-6.8,0.9-10.8l-1.1,1.1c-19.7,18.7-32.5,47.5-37.3,59.7V295.6z M381.3,169.8c3.2-2.4,6.7-4.3,10.3-5.9
		c0-1.2-0.2-2.5-0.6-4l-3.8,5.5l-2.1-2.2c-0.4-0.4-0.5-0.5-0.7-0.7c-0.1-0.1-0.2-0.2-0.5-0.5l-3.6-3.3c-0.5-0.4-0.9-0.8-1.3-1.2
		C380.2,161.8,380.9,165.9,381.3,169.8z M405.1,190.4l0.2-1c1.3-5.2,0.8-10.3,0-13.9l-4,7.9l-2.4-3.6c-1.1-1.7-2.4-3.4-3.6-5.1
		c-1.7,13.9,1.2,26.6,4.2,35.2c1.2,3.6,2.6,6.8,3.8,9.3c0.8-8.5,2.5-15.4,5.3-22.2c-0.9-1.9-1.9-3.8-3-5.8L405.1,190.4z
		 M371.9,203.2c-2.2,2.9-4.6,5.4-6.9,7.5h0.7c0,25.2,20.5,45.7,45.7,45.7c25.2,0,45.7-20.5,45.7-45.7h0.7c-2.3-2.1-4.7-4.6-6.9-7.5
		c-4.9-6.5-7.9-13.8-9.1-21.7c-0.3-1.8-0.4-3.6-0.5-5.4c-2.9-2.5-6.1-4.6-9.4-6.3c1.2,6.5,1.5,13.2,0.9,20.1
		c-0.6,6.7-2,13.6-4.3,20.5c-3.8,11.7-8.7,19.1-8.9,19.4l-4.5,6.8l-0.2-8.2c-0.2-9.8-1.3-17.3-3.6-24.3c-2.2,6.9-3.3,14.4-3.6,24.3
		l-0.2,8.2l-4.5-6.8c-0.2-0.3-4.7-7.3-8.5-18.2c-3.4-10-6.8-25.2-3.7-41.7c-3.1,1.6-6.1,3.5-8.8,5.7l-0.6-0.8c0,2.3-0.2,4.5-0.5,6.7
		C379.8,189.5,376.8,196.8,371.9,203.2z M411.4,118.3l-3.3-0.7c-7.4-1.7-13.4-2.2-17.9-2.3c8.2,5,15.2,10.5,21,16.5
		c4.5-5.2,6.6-7.3,11.1-10.6c-1.4-0.5-2.9-1-4.9-1.5l-1.2-0.3l-0.5-1.1c-1.1-2.4-3-4.3-4.8-5.7c0.1,0.8,0.2,1.7,0.2,2.5L411.4,118.3
		z M414.7,135.5c5.5,6.3,9.8,13.1,12.9,20.4c0.3-0.8,0.6-1.5,0.9-2.4l1.8-4.3l5.9,8.4l2.8-2.5c4.9-4.3,8.3-6.5,8.4-6.6l6.7-4.4
		l-2.9,7.4c-7.5,19-6.2,35.3,3.7,48.6c3.9,5.3,8.6,9,12.1,11.3c-2.4-7.8-3.8-13.5-4.7-19.8c-6.4-5.9-6.3-13.8-6.3-14.2l0.1-3.5
		l5.1,1.7c0-1.3,0-2.6,0-4.1c-4.9-5.4-3.8-12.7-3.8-13.1l0.5-2.9l5.2,1.6c0.3-1.4,0.7-2.8,1-4l0,0c-8.9-13.2-14.4-18.5-24.7-24
		l-1.1-0.6l-0.2-1.3c-0.6-4.7-4.2-8.1-7.1-10.2l0.4,7.7l-3.3-1.4C421.6,127.7,420,129.2,414.7,135.5z M441.3,169.8
		c0.3-3.9,1.1-8,2.2-12.1c-0.4,0.4-0.9,0.8-1.3,1.2l-3.6,3.3c-0.3,0.3-0.3,0.3-0.5,0.5c-0.1,0.2-0.3,0.3-0.7,0.7l-2.1,2.2l-3.8-5.5
		c-0.4,1.4-0.5,2.8-0.6,3.9C434.7,165.5,438.1,167.5,441.3,169.8z M499.6,131.6l0.1-1.7c0.1-2.4-0.8-4.6-1.9-6.2
		c-0.4,1.4-0.9,2.7-1.3,3.5l-0.8,1.8c3.8,3.6,8,8,12,12.9v-6.4c-2.1-1.2-3.7-2-6.6-3.3L499.6,131.6z M320.5,312.3
		c4.7,12.6,11.7,28.7,21.7,46.5c6,2.9,12.2,2.5,18.3-1.1c5-2.9,8.1-6.9,8.1-7l2,1.5l-1.9-1.7c7.2-8.1,15-12.1,23.1-11.8
		c12.2,0.5,20.5,10.7,21.4,11.9c6.2,6.9,12.6,10.3,19,10c10.2-0.4,17.6-9.8,17.6-9.9l2,1.5l-1.9-1.7c7.6-8.5,15.7-12.5,24.1-11.7
		c5.6,0.5,10.3,3,13.8,5.6c6.1-12.1,10.7-23,14.1-32.2c-9.5-5.2-18.8-2.7-27.9,7.4c-0.9,1.2-9.2,11.4-21.4,11.9c-0.3,0-0.6,0-0.9,0
		c-7.7,0-15.2-4-22.2-11.8l1.9-1.7l-2,1.5c-0.1-0.1-7.4-9.6-17.6-9.9c-6.4-0.2-12.8,3.1-19,10c-0.9,1.2-9.2,11.4-21.4,11.9
		c-0.3,0-0.6,0-0.9,0c-7.7,0-15.2-4-22.2-11.8l1.9-1.7l-2,1.5c0,0-3.5-4.5-8.9-7.4C333.1,308.8,326.8,308.8,320.5,312.3z M346,365.4
		c2.7,4.5,5.5,9,8.6,13.7c5.8-4.5,11.9-6.5,18.2-5.9c9.5,0.9,16.5,7.6,19.1,10.5c6.2-2.2,12.7-3.3,19.4-3.3c6.7,0,13.3,1.2,19.5,3.3
		c6.3-6.7,13-10.2,19.9-10.6c7.1-0.4,13.1,2.7,17.3,5.9c6.8-10.4,12.7-20.4,17.6-29.9c-7.7-6.1-19-9.5-31.8,4.9
		c-0.9,1.2-9.2,11.4-21.4,11.9c-0.3,0-0.6,0-0.9,0c-7.7,0-15.2-4-22.2-11.8l1.9-1.7l-2,1.5c-0.1-0.1-7.4-9.6-17.6-9.9
		c-6.4-0.2-12.8,3.1-19,10c-0.6,0.7-3.9,4.9-9.3,8.1c-4.2,2.5-8.6,3.8-12.9,3.8C348.9,365.8,347.5,365.7,346,365.4z M465.1,383.2
		c-3.5-2.8-8.5-5.4-14.2-5.1c-5.1,0.3-10.2,2.8-15.1,7.6c6.7,3.1,12.9,7.5,18,13.1C457.9,393.6,461.6,388.3,465.1,383.2z
		 M357.4,383.3c3.5,5.1,7.2,10.3,11.2,15.5c5.2-5.6,11.4-10,18.1-13.1c-2.8-2.7-8-6.9-14.5-7.5C367.3,377.7,362.3,379.4,357.4,383.3
		z M371.8,402.8c3.6,4.6,7.5,9.2,11.6,13.8c6.7-8.5,16.9-13.5,27.9-13.5c11,0,21.2,5,27.9,13.5c4.1-4.6,7.9-9.2,11.6-13.8
		c-10.1-11.1-24.4-17.5-39.4-17.5C396.2,385.4,381.9,391.7,371.8,402.8z M507.7,99c-0.6,0.4-1.2,0.8-1.7,1.2
		c0.6,0.3,1.1,0.5,1.7,0.8V99z M507.7,78.8h-20.3c-4.5,2.3-7.2,3.8-7.2,3.9l-6,3.5l2.3-6.5c0.1-0.3,0.2-0.6,0.3-0.8h-13.2
		c-0.6,4.4-0.9,9.1-1,14l-0.1,3.2l-3.1-0.7c-9.9-2.4-19.2-3.9-27.8-4.6c5.7,2.3,10.8,5.3,15.3,9.1c8.7,7.3,15,17.4,18.5,29.4l1-3.7
		l7.5,7.3c8.9,8.4,17.3,19.5,24.9,33.1c3.5,6.2,6.4,12.1,8.8,17.3v-32.7c-11.2-16-27.3-27.7-27.5-27.8l2.6-4.3
		c0.1,0,5.1,2.4,9.9,4.6c0.6-1.8,1.2-4,1.5-5l1.1-3.7l3,2.5c0.3,0.2,5.7,4.8,6.4,11.8c1.2,0.5,2.1,1,3.1,1.5v-23.2
		c-2.4-1.2-5-2.3-7.6-3.4l-3.8-1.6l3.1-2.7c0.1-0.1,3.2-2.7,8.3-6V78.8z M415.6,85.3c12.3-0.8,26.4,0.7,42.1,4.2
		c0.2-3.8,0.5-7.4,0.9-10.8H364c0.4,3.4,0.8,7,0.9,10.8c19.4-4.4,36.4-5.5,50.7-3.3L415.6,85.3z M314.9,78.8v14.1
		c5.1,3.3,8.1,5.9,8.3,6l3.1,2.7l-3.8,1.6c-2.6,1.1-5.2,2.3-7.6,3.4v23.2c0.9-0.5,1.9-1,3.1-1.5c0.6-6.9,6.1-11.5,6.4-11.8l3-2.5
		l1.1,3.7c0.3,1,0.9,3.2,1.5,5c4.8-2.1,9.8-4.5,9.9-4.6l2.6,4.4c-0.2,0.1-16.2,11.7-27.4,27.7l0,0v32.8c2.3-5.1,5.2-10.8,8.5-16.8
		c7.8-13.8,16.2-25.1,25.2-33.6l7.5-7.3l1.1,4.2c0.4,1.3,3.2,12.2-0.1,18.4c0.6,1.8,1.8,5.2,2.6,9.2l5.2-1.6l0.5,2.9
		c0.1,0.3,1.2,7.6-3.8,13.1c0.1,1.5,0.1,2.8,0,4.1l5.1-1.7l0.1,3.5c0,0.3,0,8.3-6.3,14.2c-0.9,6.3-2.3,12-4.7,19.8
		c3.5-2.3,8.1-6.1,12.1-11.3c9.9-13.2,11.1-29.6,3.7-48.6l-2.9-7.4l6.7,4.4c0.1,0.1,3.5,2.3,8.4,6.6l0,0l2.7,2.5l5.9-8.4l1.8,4.3
		c2.4,5.7,3.1,10.5,2,14.4c1.5,1.8,3,3.7,4.4,5.6l5.3-10.6l2.2,4.8c0.2,0.4,4.7,10.5,2.3,21.9c5.2,9.5,7.9,18.2,9,29.6
		c1.4-2.9,2.9-6.5,4.2-10.6c3.3-10,6.3-25.1,2.4-41.2c-0.1,0-0.2-0.1-0.3-0.1l0.2-0.5c0,0,0-0.1,0-0.1
		c-5.3-20.6-20.6-37.9-45.6-51.3l-6.4-3.4l7.1-1.3c0.4-0.1,9.5-1.7,24.7,1.3c-0.3-2-0.6-3.6-0.6-3.6l-0.8-4.1l4,1.1
		c3.1,0.9,8.7,4.5,11.5,9.7c2.3,0.6,3.9,1.2,5.8,2l-0.4-8.5l3.8,1.7c0.5,0.2,11.4,5.3,13.6,15.2c8.3,4.6,13.9,9.4,20.5,18.1
		c-0.3-2.7-0.7-5.8-1.5-9.2c-2.1-8.9-6.8-21.4-17.9-30.6c-17.2-14.4-44.3-17.2-80.6-8.4l-3.1,0.7l-0.1-3.2c-0.1-4.9-0.5-9.7-1-14
		h-13.2c0.1,0.3,0.2,0.5,0.3,0.8l2.3,6.5l-6-3.5c0,0-2.7-1.6-7.2-3.9H314.9z M316.6,100.2c-0.5-0.4-1.1-0.8-1.7-1.2v2
		C315.4,100.7,316,100.4,316.6,100.2z M314.9,311.6V372c10,34.1,27.2,54.6,34.3,62h43.5c-23.1-23.3-42.8-50-58.5-79.4
		C325.2,337.9,319,323,314.9,311.6z M336.1,426.4c-0.4,2.5-0.7,5-0.8,7.6h7C340.5,431.9,338.4,429.4,336.1,426.4z M314.9,399.5
		c0.8-1.9,1.6-3.8,2.5-5.7c-0.9-2-1.7-4-2.5-6.1V399.5z M314.9,433.9h15.3c0.3-4.5,0.9-8.9,1.9-13.3c-3.9-5.7-8-12.6-11.9-20.7
		c-2.2,5.2-4,10.7-5.3,16.2V433.9z M507.7,433.9v-17.5c-1.3-5.6-3.1-11.1-5.3-16.5c-3.9,8.1-8,15-11.9,20.7c1,4.3,1.6,8.8,1.9,13.3
		H507.7z M44.1,71.1h176.4v365.3h-203V294c0-0.1-0.1-0.2-0.1-0.3l0.1,0V71.1h26.4l0-0.1C44,71,44.1,71,44.1,71.1z M22.7,76.1v14.1
		c5.1,3.3,8.1,5.9,8.3,6l3.1,2.7l-3.8,1.6c-2.6,1.1-5.2,2.3-7.6,3.4v23.2c0.9-0.5,1.9-1,3.1-1.5c0.6-6.9,6.1-11.5,6.4-11.8l3-2.5
		l1.1,3.7c0.3,1,0.9,3.2,1.5,5c4.8-2.1,9.8-4.5,9.9-4.6l2.6,4.4c-0.2,0.1-16.3,11.8-27.5,27.8v32.7c6.9-15.2,18.1-35.5,33.8-50.4
		l7.5-7.3L65,127c0.4,1.3,3.2,12.2-0.1,18.4c0.6,1.8,1.8,5.2,2.6,9.2l5.2-1.6l0.5,2.9c0.1,0.3,1.2,7.6-3.8,13.1
		c0.1,1.5,0.1,2.8,0,4.1l5.1-1.7l0.1,3.5c0,0.3,0,8.3-6.3,14.2c-0.9,6.3-2.3,12-4.7,19.8c3.5-2.3,8.1-6.1,12.1-11.3
		c9.9-13.2,11.1-29.6,3.7-48.6l-2.9-7.4l6.7,4.4c0.1,0.1,3.5,2.3,8.4,6.6l0,0l2.7,2.5l5.9-8.4l1.8,4.3c2.4,5.7,3.1,10.5,2,14.4
		c1.5,1.8,3,3.7,4.4,5.6l5.3-10.6l2.2,4.8c0.2,0.4,4.7,10.5,2.3,21.9c5.2,9.5,7.9,18.2,9,29.6c1.4-2.9,2.9-6.5,4.2-10.6
		c3.3-10,6.3-25.1,2.4-41.2c-0.1,0-0.2-0.1-0.3-0.1l0.2-0.5c0,0,0-0.1,0-0.1c-5.3-20.6-20.6-37.9-45.6-51.3l-6.4-3.4l7.1-1.3
		c0.4-0.1,9.5-1.7,24.7,1.3c-0.3-2-0.6-3.6-0.6-3.6l-0.8-4.1l4,1.1c3.1,0.9,8.7,4.5,11.5,9.7c2.3,0.6,3.9,1.2,5.8,2l-0.4-8.5
		l3.8,1.7c0.5,0.2,11.4,5.3,13.6,15.2c8.3,4.6,13.9,9.4,20.5,18.1c-0.3-2.7-0.7-5.8-1.5-9.2c-2.1-8.9-6.8-21.4-17.9-30.6
		c-17.2-14.4-44.3-17.2-80.6-8.4l-3.1,0.7l-0.1-3.2c-0.1-4.9-0.5-9.7-1-14H53.5c0.1,0.3,0.2,0.5,0.3,0.8l2.3,6.5l-6-3.5
		c0,0-2.7-1.6-7.2-3.9H22.7z M89,167.2c3.2-2.4,6.7-4.3,10.3-5.9c0-1.2-0.2-2.5-0.6-4l-3.8,5.5l-2.1-2.2c-0.4-0.4-0.5-0.5-0.7-0.7
		c-0.1-0.1-0.2-0.2-0.5-0.5l-3.6-3.3c-0.5-0.4-0.9-0.8-1.3-1.2C88,159.2,88.7,163.3,89,167.2z M79.6,200.6c-2.2,2.9-4.6,5.4-6.9,7.5
		h0.7c0,25.2,20.5,45.7,45.7,45.7c25.2,0,45.7-20.5,45.7-45.7c0-17.5-9.9-33.2-25.3-40.9c1.2,6.5,1.5,13.2,0.9,20.1
		c-0.6,6.7-2,13.6-4.3,20.5c-3.8,11.7-8.7,19.1-8.9,19.4l-4.5,6.8l-0.2-8.2c-0.4-15.8-2.8-25.6-9.3-37.2l-0.5-0.9l0.2-1
		c1.3-5.2,0.8-10.3,0-13.9l-4,7.9l-2.4-3.6c-2.3-3.4-4.8-6.6-7.5-9.8l-0.3-0.3c-3.2,1.6-6.3,3.6-9.1,5.9l-0.6-0.8
		c0,2.3-0.2,4.5-0.5,6.7C87.6,186.9,84.5,194.2,79.6,200.6z M22.7,139.3c4-5,8.2-9.3,12-12.9l-0.8-1.8c-0.4-0.8-0.8-2.2-1.3-3.5
		c-1,1.6-1.9,3.8-1.9,6.2l0.1,1.7l-1.5,0.7c-2.9,1.3-4.5,2.1-6.6,3.3V139.3z M24.3,97.6c-0.5-0.4-1.1-0.8-1.7-1.2v2
		C23.2,98.1,23.8,97.8,24.3,97.6z M56.3,317.4l1.9-1.7l-2,1.5c0,0-3.5-4.5-8.9-7.4c-6.4-3.4-12.7-3.4-18.9,0.1
		C33,322.6,40,338.7,50,356.4c6,2.9,12.2,2.5,18.3-1.1c5-2.9,8.1-6.9,8.1-7l2,1.5l-1.9-1.7c7.2-8.1,15-12.1,23.1-11.8
		c12.2,0.5,20.5,10.7,21.4,11.9c3.2,3.6,6.6,6.3,9.9,8l-0.1,0.2c3.2,0.5,6.4,1.1,9.5,2l0-0.1c10.1-0.6,17.2-9.8,17.3-9.9l2,1.5
		l-1.9-1.7c7.3-8.1,15-12.1,23.1-11.8c12.2,0.5,20.5,10.7,21.4,11.9c3,3.4,6.1,5.9,9.2,7.6l0,0c1.4-0.1,2.7-0.2,4.1-0.2V314
		c-3-2.8-8.9-7.1-16-6.7c-5.6,0.2-11.1,3.2-16.5,8.9c0,0-0.1,0.1-0.1,0.1c-0.1,0.1-0.3,0.3-0.4,0.4c0,0-0.1,0.1-0.1,0.1
		c-0.2,0.2-0.3,0.3-0.5,0.5c-0.9,1.2-9.2,11.4-21.4,11.9c-0.3,0-0.6,0-0.9,0c-7.7,0-15.2-4-22.2-11.8l1.9-1.7l-2,1.5
		c-0.1-0.1-7.4-9.6-17.6-9.9c-6.4-0.2-12.8,3.1-19,10c-0.9,1.2-9.2,11.4-21.4,11.9c-0.3,0-0.6,0-0.9,0
		C70.7,329.2,63.2,325.2,56.3,317.4z M107.4,431.3h44.4c-2.4-15.8-16.1-28-32.6-28c-10.4,0-20,4.8-26.2,13
		C97.5,421.3,102.3,426.4,107.4,431.3z M156.9,431.3h15.3c-2.5-27.1-25.3-48.3-53-48.3c-15.1,0-29.4,6.4-39.5,17.6
		c3.1,4,6.4,7.9,9.9,11.9c7.2-9,18-14.2,29.6-14.2C138.5,398.2,154.5,412.7,156.9,431.3z M177.4,431.3h17.3
		c-2.6-39.4-35.4-70.7-75.4-70.7c-20.1,0-38.8,7.7-53,21.7c3.2,4.7,6.7,9.4,10.3,14.1c11-11.8,26.4-18.6,42.7-18.6
		c15.6,0,30.2,6.1,41.3,17.1C170.3,404.9,176.2,417.6,177.4,431.3z M71.1,359.6c-4.2,2.5-8.6,3.8-12.9,3.8c-1.4,0-2.9-0.1-4.3-0.4
		c2.9,4.9,6.1,10,9.5,15.1c6.8-6.6,14.7-11.9,23.4-15.7c10.2-4.5,21.2-6.8,32.5-6.8c0.6,0,1.3,0,1.9,0c-1.4-1.2-2.7-2.5-4-4l1.9-1.7
		l-2,1.5c-0.1-0.1-7.4-9.6-17.6-9.9c-6.4-0.2-12.8,3.1-19,10C79.8,352.3,76.4,356.4,71.1,359.6z M149,361.3c0.5,0.2,1,0.4,1.6,0.6
		c6.6,2.8,12.7,6.4,18.3,10.7c6.6-5.2,14-9.3,21.9-12.2c4.3-1.6,8.6-2.8,13.1-3.6c-1.9-1.5-3.7-3.3-5.5-5.3l1.9-1.7l-2,1.5
		c-0.1-0.1-7.4-9.6-17.6-9.9c-6.4-0.2-12.8,3.1-19,10C160.9,352.4,156.3,358.1,149,361.3z M194.4,406.9c6-5,13.3-7.9,21.1-8.5v-15.3
		c-10.2,0.6-19.8,4-28.1,10c2.4,3.7,4.5,7.7,6.2,11.8C193.8,405.5,194.1,406.2,194.4,406.9z M215.5,378v-17.3
		c-15.4,0.6-30.3,6-42.6,15.3c1.2,1,2.3,2.1,3.4,3.2c3,3,5.8,6.2,8.2,9.6c4.5-3.2,9.4-5.8,14.5-7.6
		C204.3,379.4,209.8,378.3,215.5,378z M22.7,309.2v60.4c9.9,33.8,26.8,54.2,34.1,61.7h43.5c-23-23.2-42.6-49.8-58.3-79.2
		C33,335.5,26.8,320.6,22.7,309.2z M44.5,424.7c-0.3,2.2-0.6,4.4-0.7,6.6h6.1C48.3,429.5,46.4,427.3,44.5,424.7z M22.7,398.3
		c2.1,0.1,4.1,0.5,6.1,0.9c-2.1-4.3-4.2-8.9-6.1-13.9V398.3z M22.7,431.3h16c0.3-4.1,0.8-8.2,1.7-12.3c-2.7-3.9-5.5-8.4-8.3-13.4
		c-3-1.2-6.2-1.9-9.4-2.2V431.3z M215.5,431.3v-27.9c-7.2,0.7-13.9,3.6-19.3,8.6c2,6.3,3.2,12.7,3.6,19.3H215.5z M215.5,76.1H71.8
		c0.4,3.4,0.8,7,0.9,10.8c36.4-8.3,64-4.9,82,10.2c9.6,8.1,16.4,19.7,19.6,33.5c2.4,10.4,1.9,18.4,1.9,18.7l-0.5,7.4l-4.2-6.2
		c-8.9-13.2-14.4-18.5-24.7-24l-1.1-0.6l-0.2-1.3c-0.6-4.7-4.2-8.1-7.1-10.2l0.4,7.7l-3.7-1.6c-4.3-1.8-6-2.5-10-3.6l-1.2-0.3
		l-0.5-1.1c-1.1-2.4-3-4.3-4.8-5.7c0.1,0.8,0.2,1.7,0.2,2.5l0.2,3.4l-3.3-0.7c-7.4-1.7-13.4-2.2-17.9-2.3c7,4.4,13.2,9,18.6,14.1
		v-4.9h5.1v10.1c7.9,8.8,13.4,18.5,16.4,29.1c8.8,3.5,16.3,9.4,22,17.1c6.4,8.7,9.8,19.1,9.8,30c0,13.6-5.3,26.3-14.9,35.9
		c-9.6,9.6-22.3,14.9-35.9,14.9s-26.3-5.3-35.9-14.9c-8.8-8.8-13.9-20.2-14.7-32.4c-4.4,3.2-7.8,4.8-8.1,4.9l-5.1,2.2l1.7-5.3
		c0.3-1,0.6-1.9,0.9-2.8H43v-5.1h15.2v3.8c2.8-9,4.4-15.1,5.3-22l0.1-1l0.8-0.6c2.7-2.3,4-5,4.7-7.2l-5,1.6l0.2-3.8
		c0-0.7,0.1-1.5,0.1-2.2l-1.2,1.9l-18.6-11.6l2.7-4.3l17.2,10.7c0-0.9,0-1.8-0.1-2.8l-0.1-1.2l0.9-0.8c2.1-1.9,2.8-4.5,3.1-6.4
		l-4.6,1.4l-0.5-2.9c-1.1-6.3-3.3-12.2-3.4-12.3l-0.5-1.3l0.9-1.1c1.6-2.1,1.5-6.8,0.9-10.8l-1.1,1.1c-19,18.1-31.4,45-37.1,59.4
		l-0.1-0.1v100.1c1,3.3,2.3,7.3,3.9,11.9c9.5-5,17.8-2.7,23.3,0.3c5.9,3.2,9.7,7.9,10.3,8.6c6.2,6.9,12.6,10.3,19,10
		c10.2-0.4,17.6-9.8,17.6-9.9l2,1.5l-1.9-1.7c7.2-8.1,15-12.1,23.1-11.8c12.2,0.5,20.5,10.7,21.4,11.9c6.2,6.9,12.5,10.3,19,10
		c10.2-0.4,17.6-9.8,17.6-9.9l2,1.5L178,314c0.2-0.2,0.4-0.5,0.6-0.7c0.1-0.1,0.2-0.2,0.2-0.2c0.1-0.1,0.3-0.3,0.4-0.4
		c0.1-0.1,0.2-0.2,0.3-0.3c0.1-0.1,0.2-0.2,0.3-0.3c0.1-0.1,0.2-0.2,0.3-0.3c0.1-0.1,0.2-0.2,0.3-0.3c0.1-0.1,0.2-0.2,0.3-0.3
		c0.1-0.1,0.2-0.2,0.3-0.3c0.1-0.1,0.2-0.2,0.4-0.3c0.1-0.1,0.2-0.2,0.3-0.2c0.1-0.1,0.3-0.2,0.4-0.3c0.1-0.1,0.2-0.1,0.2-0.2
		c0.1-0.1,0.3-0.2,0.4-0.3c0.1-0.1,0.2-0.1,0.2-0.2c0.1-0.1,0.3-0.2,0.4-0.3c0.1-0.1,0.1-0.1,0.2-0.2c0.1-0.1,0.3-0.2,0.4-0.3
		c0.1-0.1,0.1-0.1,0.2-0.2c0.1-0.1,0.3-0.2,0.4-0.3c0.1,0,0.1-0.1,0.2-0.1c0.1-0.1,0.3-0.2,0.4-0.3c0.1,0,0.1-0.1,0.2-0.1
		c0.2-0.1,0.3-0.2,0.5-0.3c0.1,0,0.1-0.1,0.2-0.1c0.2-0.1,0.3-0.2,0.5-0.3c0.1,0,0.1-0.1,0.2-0.1c0.2-0.1,0.3-0.2,0.5-0.3
		c0.1,0,0.1-0.1,0.2-0.1c0.2-0.1,0.3-0.2,0.5-0.3c0,0,0.1-0.1,0.1-0.1c0.2-0.1,0.3-0.2,0.5-0.3c0,0,0.1,0,0.1-0.1
		c0.2-0.1,0.3-0.2,0.5-0.3c0,0,0.1,0,0.1-0.1c0.2-0.1,0.3-0.2,0.5-0.3c0,0,0.1,0,0.1-0.1c0.2-0.1,0.4-0.2,0.5-0.2c0,0,0.1,0,0.1,0
		c0.2-0.1,0.4-0.2,0.5-0.2c0,0,0.1,0,0.1,0c0.2-0.1,0.4-0.2,0.6-0.2c0,0,0,0,0.1,0c0.2-0.1,0.4-0.1,0.6-0.2c0,0,0,0,0,0
		c0.2-0.1,0.4-0.1,0.6-0.2c0,0,0,0,0,0c1.2-0.4,2.5-0.7,3.8-0.9c0.1,0,0.1,0,0.2,0c0.1,0,0.3,0,0.4,0c0.1,0,0.2,0,0.3,0
		c0.1,0,0.2,0,0.3,0c0.1,0,0.2,0,0.3,0c0,0,0,0,0,0c0.3,0,0.5,0,0.8,0c0,0,0.1,0,0.1,0c0.1,0,0.3,0,0.4,0c0.2,0,0.3,0,0.5,0
		c0.2,0,0.4,0,0.6,0c0.1,0,0.2,0,0.3,0c4.5,0.2,8.9,1.7,13.2,4.5l0,0c0.4,0.3,0.8,0.5,1.2,0.8V76.1z"/>
</g>
</svg>
