<?xml version="1.0" encoding="utf-8"?>
<!-- Generator: Adobe Illustrator 22.0.1, SVG Export Plug-In . SVG Version: 6.00 Build 0)  -->
<svg version="1.1" id="BELIDAYS" xmlns="http://www.w3.org/2000/svg" xmlns:xlink="http://www.w3.org/1999/xlink" x="0px" y="0px"
	 viewBox="0 0 815 510" style="enable-background:new 0 0 815 510;" xml:space="preserve">
<style type="text/css">
	.st0{fill:#CAFFFF;}
</style>
<g id="belidays_x5F_text">
	<path class="st0" d="M430.5,234.7c-2.2,8.8-4.7,17.3-6.8,25.8c-0.5,2.1-1,4.2-1.5,6.3c-0.4,2.1-0.8,4.2-1.1,6.2
		c-0.3,2-0.4,4-0.3,5.7c0.1,0.8,0.2,1.6,0.4,2c0.1,0.2,0.2,0.4,0.2,0.4c0,0,0,0,0,0c0,0,0,0,0,0l0,0c0,0,0,0,0,0l0.1,0
		c0.1,0.1,0.2,0.1,0.4,0.1c0.3,0.1,0.6,0.2,1,0.2c0.8,0.1,1.7,0.2,2.6,0.2c1.9,0,4-0.2,6-0.5c2.1-0.3,4.2-0.6,6.3-1
		c1.1-0.2,2.1-0.4,3.2-0.6c1.1-0.2,2.1-0.4,3.2-0.7c8.6-1.9,17.2-4.1,26-5.8c-1.9,1.3-3.8,2.5-5.8,3.6c-2,1.1-3.9,2.2-6,3.2
		c-4,2-8.2,3.8-12.4,5.4c-1.1,0.4-2.1,0.8-3.2,1.2c-1.1,0.4-2.2,0.7-3.3,1c-2.2,0.7-4.4,1.2-6.8,1.7c-2.3,0.5-4.7,0.8-7.2,0.9
		c-1.3,0-2.6,0-4-0.2c-0.7-0.1-1.5-0.3-2.2-0.5c-0.4-0.1-0.8-0.2-1.2-0.4l-0.3-0.1l-0.2-0.1l-0.2-0.1c-0.2-0.1-0.5-0.3-0.7-0.4
		c-1-0.6-1.8-1.4-2.4-2.3c-0.6-0.8-1-1.7-1.3-2.5c-0.2-0.4-0.3-0.8-0.4-1.2c-0.1-0.4-0.2-0.8-0.2-1.1c-0.1-0.4-0.1-0.7-0.1-1.1
		c0-0.4-0.1-0.7-0.1-1.1c0-1.4,0-2.7,0.2-3.9c0.1-1.2,0.3-2.5,0.6-3.6c0.5-2.4,1.1-4.6,1.8-6.8c0.4-1.1,0.7-2.2,1.1-3.3
		c0.4-1.1,0.8-2.1,1.3-3.2c1.7-4.2,3.7-8.3,5.9-12.2c1.1-2,2.2-3.9,3.4-5.8C427.9,238.4,429.1,236.5,430.5,234.7z"/>
	<path class="st0" d="M433.8,211.5c-0.4,1.9-0.9,3.8-1.3,5.6c-0.2,0.9-0.4,1.8-0.5,2.7c0,0.4-0.1,0.8,0,1.2c0,0.1,0,0.2,0,0.2l0,0.1
		c0,0,0,0,0,0.1c0,0.1,0,0,0,0c0,0,0,0-0.1-0.1c-0.1,0,0,0,0,0c0.1,0,0.1,0,0.2,0c0.1,0,0.3,0,0.5,0c0.4,0,0.8,0,1.3-0.1
		c0.9-0.1,1.8-0.3,2.7-0.5c1.8-0.4,3.7-0.8,5.6-1.1c-1.6,1.2-3.3,2.1-5.1,2.8c-0.9,0.4-1.9,0.7-2.9,0.9c-0.5,0.1-1,0.2-1.6,0.2
		c-0.3,0-0.6,0-0.9,0c-0.3-0.1-0.6-0.1-1.1-0.4c-0.2-0.1-0.4-0.3-0.6-0.5c-0.1-0.2-0.3-0.4-0.3-0.6c0-0.1-0.1-0.2-0.1-0.3l0-0.3
		c0-0.2,0-0.3,0-0.5c0-0.6,0.1-1.2,0.2-1.7c0.2-1,0.6-2,0.9-2.9C431.6,214.8,432.5,213.1,433.8,211.5z"/>
	<path class="st0" d="M390.9,198.2c-5.4,13.8-11.3,27.4-17,40.9l-4.3,10.2c-1.4,3.4-2.8,6.8-4.2,10.2c-1.4,3.4-2.7,6.8-4,10.2
		c-1.3,3.4-2.5,6.8-3.6,10.2c-1.1,3.4-2.1,6.8-2.7,10.1c-0.3,1.6-0.5,3.3-0.5,4.5c0,0.1,0,0.3,0,0.4c0,0.1,0,0.1,0,0.2l0,0.2l0,0.1
		c0,0,0,0.1,0,0c0,0,0-0.1,0-0.1c0,0,0-0.1-0.1-0.1c0,0-0.1-0.1-0.1-0.1c-0.1-0.1-0.2-0.2-0.1-0.1c0,0,0,0.1,0.1,0.1
		c0,0,0.1,0,0.1,0.1l0.2,0.1c0.4,0.2,1.1,0.3,1.8,0.4c0.7,0.1,1.5,0.1,2.3,0.1c1.6,0,3.4-0.2,5.1-0.4c1.7-0.2,3.5-0.5,5.3-0.8
		c1.8-0.3,3.5-0.7,5.3-1.1c7.1-1.6,14.1-3.5,21.2-5.7c3.5-1.1,7-2.2,10.5-3.4c1.7-0.6,3.5-1.2,5.2-1.9c1.7-0.6,3.4-1.3,5.1-2.1
		c-2.9,2.3-6.1,4.3-9.4,6.1c-3.3,1.8-6.6,3.5-10,5.1c-6.8,3.1-13.7,5.9-20.9,8.2c-1.8,0.6-3.6,1.1-5.5,1.6c-1.8,0.5-3.7,0.9-5.6,1.3
		c-1.9,0.4-3.9,0.7-5.9,0.8c-1,0.1-2.1,0.1-3.2,0c-1.1-0.1-2.3-0.2-3.6-0.6l-0.5-0.2l-0.5-0.2c-0.3-0.1-0.7-0.3-1.1-0.5
		c-0.8-0.5-1.5-1-2.2-1.9c-0.2-0.2-0.3-0.4-0.5-0.7c-0.1-0.2-0.3-0.5-0.4-0.7c-0.1-0.3-0.2-0.5-0.3-0.8c0-0.1-0.1-0.2-0.1-0.3
		l-0.1-0.3l-0.1-0.5c0-0.2-0.1-0.3-0.1-0.5l-0.1-0.9c-0.1-1.2-0.1-2.3,0-3.4c0.1-1.1,0.2-2.1,0.4-3.1c0.3-2,0.8-3.9,1.3-5.8
		c0.5-1.9,1-3.7,1.6-5.5c1.2-3.6,2.5-7.1,3.9-10.6c1.4-3.5,2.9-6.9,4.4-10.3c1.5-3.4,3.1-6.8,4.8-10.1c0.8-1.7,1.6-3.3,2.5-5
		l2.6-4.9c3.5-6.6,7.1-13,10.9-19.4c1.9-3.2,3.8-6.3,5.8-9.5C386.8,204.4,388.8,201.3,390.9,198.2z"/>
	<path class="st0" d="M550.4,162c-5.1,14-10.6,27.7-16,41.4l-4,10.3c-1.3,3.4-2.7,6.8-3.9,10.3c-1.3,3.4-2.6,6.8-3.8,10.3
		c-1.2,3.4-2.4,6.9-3.4,10.3c-1,3.4-2,6.9-2.5,10.2c-0.3,1.6-0.4,3.3-0.4,4.5c0,0.1,0,0.3,0,0.4c0,0.1,0,0.1,0,0.2l0,0.2l0,0.1
		c0,0,0,0.1,0,0c0,0,0-0.1-0.1-0.1c0,0,0-0.1-0.1-0.1c0,0-0.1-0.1-0.1-0.1c-0.1-0.1-0.2-0.2-0.2-0.1c0,0,0.1,0,0.1,0.1
		c0,0,0.1,0,0.1,0.1l0.2,0.1c0.4,0.1,1.1,0.3,1.8,0.3c0.7,0.1,1.5,0.1,2.3,0c1.6-0.1,3.4-0.3,5.1-0.5c1.7-0.3,3.5-0.6,5.2-1
		c1.8-0.4,3.5-0.8,5.3-1.2c7-1.7,14-3.9,21-6.2c3.5-1.1,7-2.4,10.4-3.6c1.7-0.6,3.4-1.3,5.2-2c1.7-0.7,3.4-1.4,5.1-2.2
		c-2.9,2.4-6,4.4-9.2,6.3c-3.2,1.9-6.5,3.6-9.9,5.3c-6.7,3.3-13.6,6.2-20.7,8.7c-1.8,0.6-3.6,1.2-5.4,1.7c-1.8,0.5-3.7,1-5.6,1.4
		c-1.9,0.4-3.8,0.8-5.9,0.9c-1,0.1-2.1,0.1-3.2,0.1c-1.1,0-2.3-0.1-3.6-0.5l-0.5-0.1l-0.5-0.2c-0.3-0.1-0.7-0.3-1.1-0.5
		c-0.8-0.4-1.6-1-2.3-1.9c-0.2-0.2-0.3-0.4-0.5-0.7c-0.1-0.2-0.3-0.5-0.4-0.7c-0.1-0.3-0.2-0.5-0.3-0.8c-0.1-0.1-0.1-0.2-0.1-0.3
		l-0.1-0.3l-0.1-0.5c0-0.2-0.1-0.3-0.1-0.5l-0.1-0.9c-0.1-1.2-0.1-2.3,0-3.4c0.1-1.1,0.2-2.1,0.3-3.1c0.3-2,0.7-3.9,1.2-5.8
		c0.5-1.9,1-3.7,1.5-5.5c1.1-3.6,2.3-7.2,3.6-10.7c1.3-3.5,2.7-7,4.2-10.4c1.5-3.4,2.9-6.8,4.5-10.2c0.8-1.7,1.6-3.4,2.4-5l2.4-5
		c3.3-6.6,6.8-13.2,10.4-19.7c1.8-3.2,3.7-6.4,5.6-9.6C546.3,168.3,548.3,165.1,550.4,162z"/>
	<path class="st0" d="M280.4,298.9c9.1-7.8,18.1-15.7,26.4-24.2c2.1-2.1,4.1-4.2,6.1-6.4c1.9-2.2,3.8-4.4,5.4-6.8
		c0.8-1.2,1.5-2.3,2.1-3.5c0.3-0.6,0.5-1.2,0.7-1.7c0.2-0.5,0.3-1.1,0.3-1.5c0-0.1,0-0.2,0-0.3c0-0.1,0-0.2,0-0.2c0,0,0-0.1,0-0.1
		c0,0,0,0,0,0c0,0,0,0,0,0c0,0.1,0,0.1,0.1,0.1c0,0,0,0,0.1,0.1c0,0,0,0,0,0.1c0.1,0,0,0.1,0.1,0.1c0,0,0,0-0.1,0
		c-0.2,0-0.6-0.1-1.1,0c-0.5,0-1.1,0.2-1.7,0.3c-1.2,0.3-2.5,0.7-3.8,1.2c-1.3,0.5-2.6,1.1-3.9,1.7c-2.6,1.2-5.1,2.6-7.6,4.1
		c-5,2.9-9.9,6.2-14.7,9.6c-4.8,3.4-9.4,7-13.9,10.8c-4.5,3.8-8.8,7.7-12.9,11.9c-4.1,4.1-8,8.5-11.4,13.1l-0.3,0.4l-0.3,0.4
		c-0.2,0.3-0.4,0.5-0.6,0.8c-0.4,0.5-0.7,1.1-1,1.6c-0.6,1-0.9,2.1-1,2.7c0,0.3,0,0.5,0,0.6c0,0.1,0.1,0.2,0.2,0.3
		c0.3,0.3,1.2,0.8,2.3,1.2c1.1,0.3,2.4,0.6,3.7,0.7c1.3,0.2,2.7,0.2,4.1,0.3c2.8,0.1,5.7,0,8.6-0.2c2.9-0.2,5.8-0.5,8.7-0.9
		c2.9-0.4,5.8-0.8,8.8-1.2c11.7-1.8,23.4-4.2,35.1-6.7c5.8-1.2,11.7-2.6,17.5-3.9c2.9-0.7,5.8-1.3,8.7-2l8.8-2
		c-2.8,1.1-5.6,2.2-8.4,3.2c-2.8,1-5.6,2-8.5,3c-5.7,2-11.4,3.8-17.1,5.6c-11.5,3.5-23.1,6.7-34.9,9.2c-3,0.6-5.9,1.2-8.9,1.7
		c-3,0.5-6,0.9-9.1,1.3c-3.1,0.3-6.2,0.6-9.3,0.6c-1.6,0-3.2,0-4.8-0.2c-1.7-0.2-3.3-0.4-5.1-0.9c-0.9-0.3-1.8-0.6-2.7-1
		c-0.9-0.5-1.9-1.1-2.8-1.9c-0.9-0.9-1.7-2-2.2-3.4c-0.5-1.3-0.6-2.7-0.5-3.9c0.1-1.2,0.3-2.3,0.7-3.2c0.3-0.9,0.7-1.8,1.1-2.6
		c0.4-0.8,0.9-1.6,1.3-2.3c0.2-0.4,0.5-0.7,0.7-1.1l0.4-0.5l0.3-0.5c3.7-5,7.8-9.7,12.1-14c8.7-8.7,18.1-16.4,28.2-23.3
		c5-3.4,10.2-6.7,15.7-9.5c2.7-1.4,5.5-2.8,8.4-4c1.4-0.6,2.9-1.2,4.4-1.7c1.5-0.5,3.1-1,4.8-1.3c0.9-0.2,1.7-0.3,2.7-0.3
		c1,0,2,0,3.3,0.4c0.2,0.1,0.3,0.1,0.5,0.2c0.2,0.1,0.3,0.1,0.5,0.2c0.3,0.2,0.7,0.4,1,0.6c0.2,0.1,0.3,0.3,0.5,0.4
		c0.1,0.2,0.3,0.3,0.4,0.5c0.3,0.3,0.5,0.7,0.7,1.1c0.1,0.2,0.2,0.4,0.2,0.6c0.1,0.2,0.1,0.4,0.2,0.6c0.1,0.3,0.1,0.6,0.1,1
		c0,0.3,0,0.6,0,0.9c0,0.3,0,0.6-0.1,0.8c-0.3,2.2-1.2,3.8-2,5.2c-0.8,1.5-1.8,2.8-2.8,4c-2,2.5-4.1,4.7-6.3,6.8
		c-2.2,2.1-4.5,4.1-6.8,6.1c-4.6,3.9-9.4,7.6-14.3,11.1c-2.4,1.8-4.9,3.5-7.4,5.2C285.4,295.6,282.9,297.3,280.4,298.9z"/>
	<path class="st0" d="M506.1,238.8c-1.4-1.9-3.1-3.5-4.9-4.5c-1.9-1-3.8-1.3-5.7-1c-0.9,0.2-1.8,0.5-2.7,0.9
		c-0.9,0.4-1.7,0.9-2.6,1.5c-0.8,0.6-1.6,1.2-2.4,1.9c-0.8,0.7-1.5,1.4-2.3,2.2c-0.7,0.8-1.5,1.6-2.2,2.4c-0.7,0.8-1.4,1.7-2.1,2.5
		c-1.3,1.7-2.6,3.4-3.7,5.2c-1.1,1.8-2.1,3.6-2.9,5.5c-0.8,1.9-1.4,3.8-1.7,5.7c-0.4,1.9-0.4,3.7-0.1,5.3c0.1,0.8,0.4,1.5,0.7,2
		c0.3,0.6,0.6,0.9,1,1.2c0.2,0.1,0.4,0.2,0.6,0.3c0,0,0.1,0,0.2,0.1c0,0,0,0,0,0l0.1,0l0.2,0c0.2,0.1,0.5,0.1,0.7,0.2
		c0.9,0.2,1.9,0.3,2.9,0.4c1,0.1,2,0,2.9,0c1-0.1,2-0.2,3-0.4c4.1-0.8,8.3-2.4,12.4-4.2c2.1-0.9,4.2-1.9,6.2-2.9c2.1-1,4.2-2,6.3-3
		c-1.6,1.7-3.3,3.4-5,4.9c-1.7,1.6-3.6,3.1-5.5,4.5c-3.8,2.8-8,5.4-12.8,7c-1.2,0.4-2.5,0.7-3.7,1c-1.3,0.3-2.6,0.4-3.9,0.5
		c-1.3,0.1-2.7,0-4-0.1c-0.3,0-0.7-0.1-1-0.1l-0.2,0l-0.1,0l-0.2,0c-0.2,0-0.5-0.1-0.7-0.2c-0.9-0.2-1.8-0.6-2.6-1.1
		c-1.6-1-2.9-2.4-3.7-3.8c-0.9-1.4-1.4-3-1.7-4.4c-0.6-3-0.5-5.8,0-8.5c1-5.3,3.4-10,6.3-14.1c1.5-2,3-3.9,4.7-5.7
		c0.9-0.9,1.7-1.7,2.6-2.6c0.9-0.8,1.8-1.6,2.8-2.4c1-0.8,2-1.5,3.1-2.2c1.1-0.7,2.2-1.3,3.4-1.8c2.3-1.1,5-1.8,7.8-1.7
		c1.4,0.1,2.7,0.4,4,1c1.2,0.6,2.3,1.3,3.2,2.2c0.9,0.9,1.6,1.9,2.2,3C505.4,236.6,505.8,237.7,506.1,238.8z"/>
	<path class="st0" d="M628.5,199.1c-0.3,3.8-1,7.4-1.7,11c-0.7,3.6-1.5,7.1-2.3,10.6c-0.8,3.5-1.6,6.9-2.2,10.3
		c-0.3,1.7-0.6,3.3-0.7,4.8c0,0.7-0.1,1.4,0,2c0,0.1,0,0.3,0,0.4l0,0.2l0,0.1c0,0,0,0,0,0l0-0.1l0-0.1l-0.1-0.2
		c-0.2-0.5-0.6-0.8-0.8-1c-0.2-0.1-0.3-0.2-0.3-0.2c0,0,0.2,0.1,0.4,0.1c0.3,0.1,0.6,0.1,0.9,0.2c0.7,0.1,1.5,0.1,2.3,0.1
		c1.6,0,3.4-0.1,5.1-0.2c1.7-0.1,3.5-0.3,5.3-0.5c1.8-0.2,3.5-0.4,5.3-0.7c3.6-0.5,7.1-1,10.7-1.7c3.6-0.6,7.1-1.3,10.7-2.2
		c-1.5,1.1-3.1,2.1-4.7,2.9c-0.8,0.4-1.7,0.9-2.5,1.3c-0.8,0.4-1.7,0.8-2.5,1.2c-3.4,1.5-6.9,2.8-10.5,3.9
		c-3.6,1.1-7.2,2.1-10.9,2.7c-1.9,0.3-3.8,0.6-5.8,0.7c-1,0.1-2,0.1-3.1,0c-0.6,0-1.1-0.1-1.8-0.2c-0.6-0.1-1.3-0.2-2.2-0.6
		c-0.4-0.2-0.9-0.4-1.5-0.9c-0.5-0.4-1.2-1.1-1.6-2c-0.1-0.1-0.1-0.2-0.1-0.4l-0.1-0.2l0-0.1l-0.1-0.3l-0.1-0.5
		c-0.1-0.3-0.1-0.6-0.2-1c-0.2-1.2-0.2-2.4-0.2-3.4c0.1-2.1,0.4-4.1,0.8-6c0.8-3.8,2-7.4,3.4-10.9c1.4-3.5,3-6.8,4.8-10.1
		C624.1,205.3,626.1,202.1,628.5,199.1z"/>
	<path class="st0" d="M616.4,213.4c-1.3-1.8-3-3.3-4.7-4.3c-1.8-1-3.6-1.4-5.4-1.2c-1.8,0.2-3.5,1-5.1,2c-0.8,0.5-1.6,1.1-2.3,1.7
		c-0.8,0.6-1.5,1.3-2.2,2c-0.7,0.7-1.4,1.5-2.1,2.2c-0.7,0.8-1.4,1.6-2.1,2.4c-1.3,1.6-2.6,3.2-3.7,4.9c-1.1,1.7-2.2,3.4-3,5.2
		c-0.9,1.8-1.6,3.6-2.1,5.3c-0.5,1.8-0.8,3.6-0.8,5.3c0,0.8,0.1,1.6,0.3,2.4c0.1,0.4,0.2,0.7,0.3,1c0.1,0.3,0.3,0.6,0.4,0.9
		c0.3,0.5,0.7,1,1.1,1.3c0.2,0.1,0.4,0.3,0.7,0.4l0.1,0c0,0,0.1,0,0.2,0.1l0.3,0.1c0.2,0.1,0.4,0.1,0.7,0.2c1.8,0.5,3.6,0.8,5.5,0.8
		c3.8,0.1,7.8-0.9,11.8-2.5c4-1.5,7.8-3.7,11.7-5.9c-1.4,1.8-2.9,3.5-4.5,5c-1.6,1.6-3.4,3-5.3,4.4c-1,0.7-1.9,1.3-3,1.9
		c-1,0.6-2.1,1.1-3.2,1.6c-2.2,0.9-4.6,1.6-7.1,1.9c-2.5,0.3-5.1,0.3-7.6-0.2c-0.3-0.1-0.6-0.1-0.9-0.2l-0.5-0.1
		c-0.1,0-0.1,0-0.2-0.1l-0.3-0.1c-0.8-0.2-1.6-0.6-2.3-1c-1.5-0.9-2.7-2.1-3.6-3.4c-0.9-1.3-1.5-2.7-1.9-4.1
		c-0.4-1.4-0.6-2.8-0.7-4.2c-0.1-2.7,0.3-5.3,0.9-7.8c0.7-2.4,1.7-4.7,2.8-6.9c1.2-2.1,2.5-4.2,3.9-6c1.5-1.9,3-3.6,4.7-5.3
		c0.8-0.8,1.7-1.6,2.6-2.4c0.9-0.8,1.8-1.5,2.8-2.2c1-0.7,2-1.4,3-2c1.1-0.6,2.2-1.2,3.3-1.6c1.2-0.5,2.4-0.8,3.7-1.1
		c1.3-0.2,2.6-0.3,3.9-0.1c1.3,0.2,2.6,0.6,3.8,1.2c1.1,0.6,2.2,1.4,3,2.3c0.8,0.9,1.5,1.9,2.1,2.9
		C615.8,211.2,616.2,212.3,616.4,213.4z"/>
	<path class="st0" d="M753,227.3c-15.4,3.1-30.7,6.5-45.9,10.4c-4.5,1.2-9,2.4-13.4,3.6c0.4-2.5,0.9-4.9,1.3-7.4
		c0.7-4.1,1.4-8.1,2.2-12.1c5.3-4.2,10.2-8.8,14.7-13.7c2.9-3.2,5.7-6.5,8.2-10c1.3-1.8,2.5-3.6,3.6-5.5c1.1-1.9,2.2-3.9,3-6.2
		c0.2-0.6,0.4-1.2,0.5-1.8c0.1-0.3,0.1-0.6,0.2-1c0.1-0.3,0.1-0.7,0.1-1c0.1-0.7,0.1-1.4,0-2.2c-0.1-0.8-0.2-1.7-0.7-2.7
		c-0.3-0.5-0.6-1-1.1-1.5c-0.5-0.5-1-0.9-1.6-1.1c-1.2-0.5-2.3-0.6-3.2-0.6c-0.9,0.1-1.7,0.3-2.4,0.5c-0.7,0.2-1.3,0.5-1.9,0.8
		c-2.3,1.2-4.2,2.6-5.9,4.1c-1.7,1.5-3.3,3.1-4.8,4.8c-5.9,6.7-10.4,14.5-13.4,22.9c-0.8,2.2-1.3,4.3-1.9,6.4
		c-0.5,2.1-1,4.2-1.4,6.3c-0.1,0.5-0.2,0.9-0.3,1.4c-3.1,2.3-6.3,4.4-9.6,6.2c-1.8,1-3.6,1.8-5.4,2.6c-1.9,0.7-3.7,1.4-5.7,1.9
		c-0.5,0.1-1,0.2-1.4,0.3l-0.7,0.1c-0.2,0-0.4,0.1-0.6,0.1c-0.8,0.1-1.4,0-2-0.3c-0.5-0.3-1-0.8-1.4-1.5c-0.4-0.7-0.7-1.6-0.9-2.5
		c-0.4-1.8-0.5-3.9-0.5-5.9c0-2,0.2-4.1,0.4-6.1c0.5-4.1,1.2-8.2,2.1-12.3c0.9-4.1,1.9-8.2,3-12.2c-1.6,3.9-3.1,7.8-4.3,11.9
		c-1.3,4-2.4,8.1-3.2,12.3c-0.4,2.1-0.7,4.2-0.9,6.4c-0.2,2.2-0.2,4.4,0.1,6.7c0.2,1.1,0.5,2.3,1,3.5c0.3,0.6,0.6,1.2,1.1,1.7
		c0.4,0.5,1,1,1.6,1.4c1.3,0.8,2.8,1,4.1,1c0.3,0,0.7,0,1-0.1l0.8-0.1c0.6-0.1,1.1-0.2,1.7-0.3c4.4-0.8,8.5-2.4,12.4-4.3
		c2.1-1,4.1-2.1,6-3.3c-0.2,1.3-0.5,2.6-0.7,3.9c-0.7,3.8-1.4,7.6-2.2,11.4c-7.6,2.2-15.2,4.6-22.7,7.2c-7.4,2.6-14.8,5.2-22.1,8.2
		c-7.3,3-14.5,6.2-21.6,9.7c-7.1,3.6-14,7.5-20.6,12c-3.3,2.3-6.5,4.7-9.6,7.4c-1.5,1.3-3,2.8-4.5,4.3c-0.4,0.4-0.7,0.8-1.1,1.2
		c-0.3,0.4-0.7,0.8-1,1.2c-0.3,0.4-0.7,0.9-1,1.3l-0.2,0.4l-0.2,0.4c-0.1,0.1-0.2,0.2-0.2,0.4c-0.1,0.1-0.1,0.2-0.2,0.4
		c-2.4,4.1-3.7,8.9-3.5,13.8c0.1,2.5,0.6,4.9,1.5,7.2c0.9,2.3,2.1,4.4,3.6,6.4c2.9,3.9,6.8,6.8,11,8.8c4.1,2.1,8.6,3.4,13,4.1
		c4.4,0.8,8.9,1,13.3,0.9c4.4-0.1,8.8-0.6,13.1-1.3c1.1-0.2,2.1-0.4,3.2-0.6c0.5-0.1,1.1-0.2,1.6-0.3c0.5-0.1,1.1-0.2,1.6-0.4
		c2.2-0.5,4.4-1.2,6.6-2c4.3-1.7,8.3-4,11.9-6.8c3.6-2.8,6.8-6,9.6-9.5c2.8-3.5,5.3-7.2,7.5-11c2.2-3.8,4.1-7.7,5.8-11.7
		c1.7-4,3.2-8,4.5-12.1c2.7-8.2,4.8-16.4,6.6-24.7c0.9-4.1,1.7-8.3,2.5-12.5c0.1-0.6,0.2-1.3,0.4-1.9c4.8-1.6,9.7-3.1,14.6-4.6
		C722.8,235.4,737.9,231.3,753,227.3z M720.9,180.8C720.9,180.8,720.9,180.8,720.9,180.8C720.8,180.8,720.8,180.8,720.9,180.8z
		 M704.8,199.1c1.9-3.5,4.2-6.8,6.7-9.8c1.3-1.5,2.6-2.9,4-4.2c1.4-1.3,2.9-2.4,4.3-3.2c0.4-0.2,0.7-0.3,1-0.4c0,0,0.1,0,0.1,0
		c0,0.2,0,0.3,0,0.5c0,0.2,0,0.4-0.1,0.5c0,0.2-0.1,0.4-0.1,0.6c-0.1,0.4-0.2,0.8-0.3,1.2c-0.5,1.7-1.4,3.4-2.3,5.2
		c-0.9,1.7-2,3.4-3.1,5.1c-2.3,3.3-4.8,6.6-7.5,9.7c-2.6,3-5.4,5.9-8.3,8.7c0.3-1,0.6-2,0.9-3C701.3,206.2,702.9,202.6,704.8,199.1z
		 M682,257.1c-0.9,4-1.9,8.1-2.9,12.1c-1.1,4-2.2,7.9-3.5,11.8c-1.3,3.9-2.7,7.7-4.3,11.5c-1.6,3.7-3.3,7.4-5.3,10.9
		c-3.9,7-8.8,13.4-14.8,18.1c-3,2.4-6.3,4.4-9.8,5.8c-1.8,0.7-3.6,1.3-5.4,1.8c-0.5,0.1-0.9,0.2-1.4,0.3c-0.5,0.1-1,0.2-1.5,0.3
		c-1,0.2-2,0.4-3,0.6c-7.9,1.4-16,1.9-23.8,0.7c-3.9-0.6-7.6-1.7-11-3.3c-3.4-1.6-6.4-3.8-8.6-6.6c-1.1-1.4-2-2.9-2.7-4.5
		c-0.6-1.6-1.1-3.3-1.2-5.1c-0.3-3.5,0.6-7.1,2.4-10.2l0.1-0.2c0,0.1,0,0,0.1-0.1c0-0.1,0.1-0.1,0.1-0.2l0.1-0.2l0.2-0.3
		c0.2-0.3,0.5-0.7,0.7-1c0.3-0.3,0.5-0.7,0.8-1l0.9-1c1.2-1.4,2.5-2.7,3.9-3.9c2.8-2.5,5.8-4.9,8.8-7.1c6.2-4.5,12.8-8.4,19.7-12.1
		c6.8-3.7,13.9-7,21-10.1c7.1-3.2,14.4-6.1,21.6-8.9c6.8-2.6,13.7-5,20.6-7.4C683.4,250.7,682.7,253.9,682,257.1z"/>
	<path class="st0" d="M778.1,187.2c3.5-2.7,7.2-5.1,10.9-7.4c1.8-1.2,3.7-2.4,5.4-3.7c0.9-0.7,1.7-1.4,2.3-2.1
		c0.3-0.4,0.6-0.8,0.7-1.2c0.1-0.4,0.1-0.8-0.2-1.1c-0.1-0.2-0.3-0.3-0.4-0.5c-0.2-0.2-0.4-0.3-0.5-0.5c-0.4-0.3-0.8-0.5-1.3-0.7
		c-0.9-0.3-2-0.5-3-0.5c-2.1,0-4.2,0.3-6.3,0.8c-4.2,1-8.3,2.6-12.2,4.4c-2,0.9-3.9,1.9-5.8,3c-1.9,1.1-3.7,2.2-5.5,3.4
		c-1.8,1.2-3.5,2.5-5.2,3.8c-0.8,0.7-1.6,1.4-2.3,2.1c-0.7,0.7-1.4,1.5-2.1,2.3c-2.6,3.3-4.5,7.1-5.6,11.1c-1.1,4-1.5,8.2-0.8,12.2
		c0.7,4,2.4,7.7,5.2,10.4c2.8,2.8,6.5,4.7,10.4,6.3c3.9,1.6,8.1,2.9,12.3,4.5c2.1,0.8,4.2,1.7,6.3,2.8c2.1,1.1,4.1,2.5,5.9,4.2
		c1.8,1.7,3.4,3.9,4.4,6.2c1.1,2.3,1.7,4.9,1.8,7.5c0.1,2.6-0.3,5.1-1.1,7.5c-0.7,2.4-1.8,4.6-3,6.6c-2.4,4.1-5.5,7.6-8.8,10.8
		c-1.7,1.6-3.4,3.1-5.2,4.5c-0.4,0.4-0.9,0.7-1.3,1.1l-1.3,1c-0.9,0.7-1.8,1.3-2.7,2c-7.1,5.3-14.5,10.3-22,15
		c-7.5,4.7-15.2,9.1-23.1,13.3c-15.7,8.3-31.9,15.4-48.5,21.8c-16.5,6.3-33.4,11.7-50.4,16.6c-17,4.8-34.1,9.1-51.3,13
		c-17.2,3.9-34.4,7.4-51.7,10.8l-51.7,10.1l-51.8,10l-51.8,9.9c-34.5,6.6-69.1,13-103.7,19.4c-34.6,6.3-69.2,12.6-103.8,18.6
		c34.3-7.8,68.7-15.2,103-22.6c34.4-7.4,68.8-14.6,103.2-21.8l51.6-10.7l51.7-10.6l51.7-10.5c17.2-3.5,34.4-7,51.5-10.9
		c17.1-3.8,34.1-8,50.9-12.7c16.8-4.7,33.5-10,49.8-16.1c16.4-6.1,32.4-13,47.9-20.9c7.7-4,15.4-8.2,22.8-12.7
		c7.4-4.5,14.7-9.3,21.8-14.4c0.9-0.6,1.8-1.3,2.6-1.9l1.3-1c0.4-0.3,0.8-0.6,1.3-1c1.7-1.3,3.3-2.6,4.8-4.1c3.1-2.8,5.8-6,8-9.4
		c2.1-3.4,3.5-7.1,3.5-10.8c0-3.6-1.6-7.2-4.2-9.9c-2.7-2.7-6.4-4.6-10.3-6.2c-3.9-1.6-8.2-3-12.3-4.8c-2.1-0.9-4.2-1.9-6.2-3.2
		c-2-1.2-3.9-2.7-5.6-4.5c-1.7-1.8-3.1-3.8-4.1-6c-1-2.2-1.7-4.5-2-6.9c-0.7-4.7-0.1-9.5,1.3-13.9c1.4-4.4,3.7-8.5,6.7-12.1
		c0.7-0.9,1.5-1.7,2.4-2.5c0.8-0.8,1.7-1.6,2.6-2.3c1.8-1.4,3.7-2.7,5.6-3.8c3.8-2.4,7.8-4.4,11.9-6.1c4.1-1.7,8.4-3.1,12.8-4
		c2.2-0.4,4.5-0.7,6.8-0.5c1.1,0.1,2.3,0.3,3.4,0.7c1.1,0.4,2.2,1.2,2.9,2.3c0.2,0.3,0.3,0.7,0.3,1c0,0.4,0,0.7-0.1,1.1
		c-0.2,0.6-0.6,1.1-1,1.6c-0.8,0.9-1.7,1.5-2.6,2.2c-1.8,1.3-3.7,2.4-5.7,3.5C785.6,182.6,781.7,184.7,778.1,187.2z"/>
	<path class="st0" d="M159.5,119.9c-1.9,28.6-6.8,57-14.1,84.8c-7.3,27.8-17.1,55-29.1,81.1c-12,26.2-26.2,51.3-42.5,75
		c-16.3,23.7-34.6,46-55,66c17.8-22.4,34.5-45.5,49.5-69.6c15.1-24.1,28.5-49.1,40.4-74.9c11.8-25.8,22-52.3,30.4-79.5
		C147.5,175.7,154.2,148,159.5,119.9z"/>
	<path class="st0" d="M141.2,243.6c15-11.6,31.4-21.5,48.7-29.7c8.6-4.1,17.5-7.7,26.5-10.9l1.7-0.6l1.7-0.6l3.4-1.1
		c1.1-0.4,2.3-0.7,3.4-1.1l3.4-1c2.3-0.7,4.6-1.3,6.9-1.9c2.3-0.6,4.7-1.2,7.1-1.7c4.8-1,9.7-1.6,14.6-1.8c4.9-0.2,10,0,15,1
		c5,1,10,2.7,14.5,5.7c2.2,1.5,4.3,3.2,6.1,5.2c0.5,0.5,0.9,1,1.3,1.5c0.2,0.3,0.4,0.5,0.6,0.8l0.6,0.8l0.6,0.8l0.5,0.9l0.5,0.9
		l0.3,0.4c0.1,0.1,0.2,0.3,0.2,0.5l0.9,1.8c0.3,0.6,0.5,1.3,0.7,1.9c0.3,0.6,0.4,1.3,0.6,1.9l0.3,1c0.1,0.3,0.1,0.7,0.2,1
		c0.1,0.7,0.3,1.3,0.4,2l0.3,2c0.1,0.7,0.1,1.3,0.2,2c0.1,0.7,0.1,1.3,0.1,2c0,1.3-0.1,2.6-0.1,3.9l-0.2,1.9c0,0.3-0.1,0.6-0.1,1
		l-0.2,1c-0.5,2.6-1.1,5.1-2,7.5c-0.1,0.3-0.2,0.6-0.3,0.9l-0.4,0.9c-0.3,0.6-0.5,1.2-0.8,1.8l-0.8,1.8l-0.9,1.7
		c-1.2,2.2-2.6,4.4-4.1,6.4c-1.5,2-3,4-4.7,5.9c-1.6,1.9-3.3,3.7-5.1,5.4c-7,6.9-14.4,12.8-21.8,18.9l-5.6,4.4
		c-1.9,1.5-3.7,3-5.7,4.4l-5.7,4.3l-2.9,2.1c-1,0.7-1.9,1.4-2.9,2.1l-5.8,4.1c-1,0.7-1.9,1.4-2.9,2.1l-3,2c-4,2.7-7.9,5.4-12,7.9
		l-6,3.8c-1,0.6-2,1.3-3.1,1.9l-3.1,1.8l-6.1,3.7c-2.1,1.2-4.2,2.3-6.2,3.5c-33.2,18.7-68.5,33.7-105,44.1
		c35.4-13.7,69.5-30.2,101.8-49.8c2-1.2,4-2.4,6-3.7l6-3.8l3-1.9c1-0.6,2-1.3,3-1.9l5.9-3.9c3.9-2.6,7.8-5.3,11.6-8l2.9-2
		c1-0.7,1.9-1.4,2.9-2.1l5.7-4.2c0.9-0.7,1.9-1.4,2.8-2.1l2.8-2.2l5.6-4.3c1.9-1.4,3.7-2.9,5.5-4.4l5.5-4.4c7.2-6,14.6-12,21.1-18.4
		c1.6-1.6,3.2-3.3,4.7-4.9c1.5-1.7,2.9-3.4,4.2-5.2c1.3-1.8,2.5-3.7,3.5-5.6l0.8-1.4l0.7-1.5c0.2-0.5,0.4-1,0.6-1.5l0.3-0.7
		c0.1-0.2,0.2-0.5,0.3-0.8c0.8-2,1.3-4.1,1.7-6.2l0.1-0.8c0.1-0.3,0.1-0.5,0.1-0.8l0.2-1.6c0.1-1.1,0.2-2.1,0.1-3.2
		c0-0.5,0-1.1,0-1.6c0-0.5-0.1-1-0.1-1.6l-0.2-1.5c-0.1-0.5-0.2-1-0.3-1.5c-0.1-0.3-0.1-0.5-0.2-0.8l-0.2-0.7
		c-0.1-0.5-0.2-1-0.4-1.5l-0.5-1.4l-0.6-1.4c-0.1-0.1-0.1-0.2-0.2-0.3l-0.2-0.3l-0.4-0.7l-0.4-0.7l-0.4-0.6l-0.4-0.6
		c-0.1-0.2-0.3-0.4-0.5-0.6c-0.3-0.4-0.6-0.8-1-1.2c-1.3-1.5-2.9-2.9-4.6-4.1c-3.4-2.3-7.5-3.9-11.7-4.8c-4.3-0.9-8.8-1.2-13.3-1.2
		c-4.5,0.1-9.1,0.5-13.6,1.3c-2.3,0.4-4.5,0.8-6.8,1.4c-2.3,0.6-4.6,1.1-6.8,1.7c-4.5,1.2-9.1,2.4-13.6,3.8
		c-9,2.7-17.9,5.9-26.6,9.5C174,224.6,157.2,233.4,141.2,243.6z"/>
	<path class="st0" d="M78.3,188.1c13.2-11.1,26.9-21.5,41.1-31.4c1.8-1.2,3.5-2.5,5.3-3.6l5.4-3.6c1.8-1.2,3.6-2.3,5.5-3.5l5.5-3.5
		c7.4-4.5,14.8-8.9,22.5-13l5.7-3.1l5.8-2.9c3.8-2,7.8-3.8,11.7-5.7c1-0.5,2-0.9,2.9-1.4l3-1.3l6-2.6c2-0.9,4-1.7,6-2.5l3-1.2
		c1-0.4,2-0.8,3-1.2l6.1-2.3l3-1.1c1-0.4,2-0.7,3.1-1.1l6.2-2.1l1.5-0.5c0.5-0.2,1.1-0.4,1.6-0.5c1.1-0.3,2.2-0.6,3.3-0.9
		c4.5-1.1,9-1.7,13.6-1.8c2.3-0.1,4.6,0,7,0.2c2.3,0.2,4.7,0.7,7.1,1.4c0.6,0.2,1.2,0.4,1.8,0.6c0.6,0.2,1.2,0.5,1.8,0.7
		c1.2,0.5,2.3,1.2,3.4,1.9c1.1,0.7,2.2,1.6,3.1,2.6c0.4,0.5,0.9,1,1.3,1.5c0.4,0.5,0.8,1.1,1.2,1.6c1.5,2.2,2.4,4.7,3,7.2
		c0.6,2.5,0.8,5,0.7,7.5c-0.1,2.5-0.5,4.9-1.2,7.3c-0.7,2.4-1.7,4.6-2.8,6.7c-2.3,4.2-5.1,7.9-8.1,11.2c-1.5,1.7-3.1,3.2-4.6,4.8
		c-1.5,1.5-3.1,3-4.6,4.5c-3.1,3-6.3,6-9.4,8.9c-6.4,5.9-12.8,11.6-19.5,17.1c-26.5,22.2-55.2,41.8-85.6,58
		c28.6-19.1,55.9-40,81.3-62.9l4.8-4.3l4.7-4.4l2.3-2.2l2.3-2.2c1.5-1.5,3.1-2.9,4.6-4.4c3-3,6.1-6,9.1-9c1.5-1.5,3-3,4.5-4.6
		c1.5-1.5,2.9-3,4.2-4.6c2.7-3.1,5.1-6.3,6.9-9.7c0.9-1.7,1.6-3.5,2.1-5.2c0.5-1.8,0.8-3.6,0.9-5.4c0.1-3.6-0.6-7.2-2.4-9.9
		c-0.2-0.3-0.5-0.6-0.7-1c-0.3-0.3-0.5-0.6-0.8-0.9c-0.6-0.5-1.1-1.1-1.8-1.5c-0.7-0.4-1.4-0.9-2.2-1.2c-0.4-0.2-0.8-0.3-1.2-0.5
		c-0.4-0.1-0.8-0.3-1.3-0.4c-1.7-0.5-3.6-0.9-5.5-1.1c-1.9-0.2-3.9-0.3-5.9-0.2c-4,0.1-8,0.6-11.9,1.5c-1,0.2-1.9,0.5-2.9,0.7
		c-0.5,0.1-0.9,0.3-1.4,0.4l-1.5,0.5l-6.1,2c-1,0.3-2,0.7-3,1l-3,1.1l-6,2.2c-16,5.9-31.6,12.8-46.9,20.3c-3.8,1.9-7.6,3.9-11.4,5.8
		c-1.9,1-3.8,2-5.7,3l-5.6,3l-5.6,3.2c-1.9,1.1-3.7,2.1-5.6,3.2c-3.7,2.2-7.4,4.3-11.1,6.6C106.8,169,92.5,178.5,78.3,188.1z"/>
</g>
<g id="smile_x5F_wave">
	<path class="st0" d="M553.6,85.1c-5.4-2.7-12.1-2.4-16.4,0.3c0,0,0,0,0,0c-0.4,0.3-0.2,1,0.4,0.9c8.7-1.4,17.5,3.4,20.9,11.9
		c2.3,6,1.5,12.4-1.8,17.4c2.1-1.6,3.9-3.7,5.2-6.3C566.3,100.4,562.6,89.6,553.6,85.1z"/>
	<path class="st0" d="M547.2,63.1c-9.1-0.1-18,4.5-22.2,11.1c-0.1,0.1-0.1,0.2-0.1,0.3c-0.1,0.5,0.4,0.9,0.9,0.7
		c0.5-0.3,1.2-0.7,1.7-1c2-1.1,3.4-1.8,5.5-2.4c15.2-5.1,31.7,3.1,36.8,18.3c1,2.8,1.4,5.7,1.5,8.6c0,0.4,0.1,0.7,0.1,1.1
		c0.1,1,0.1,1.9,0,2.8c1.8-3.5,2.8-7.5,2.9-11.8C574.4,75.6,562.3,63.2,547.2,63.1z"/>
	<path class="st0" d="M548.8,101.7c-2.9-2.9-7.1-4.2-10.3-3.2c0,0,0,0,0,0c-0.3,0.1-0.3,0.6,0.1,0.7c0.1,0,0.2,0,0.3,0.1
		c6.2,2.6,0.2,9.3-8,13.7c-45.7,24.7-120.3,15.9-162.4-18.2c9.4,12.7,30,39.1,103.4,44.4c2.1,0.2,4.2,0.2,6.3,0.2c0,0,0,0,0,0
		c0.2,0,0.3,0,0.4,0c0.1,0,0.2,0,0.4,0c52.7-0.2,69.3-18.1,70.6-19.5C554,114.7,553.6,106.6,548.8,101.7z"/>
</g>
</svg>
