<?xml version="1.0" encoding="utf-8"?>
<!-- Generator: Adobe Illustrator 22.0.1, SVG Export Plug-In . SVG Version: 6.00 Build 0)  -->
<svg version="1.1" id="brand" xmlns="http://www.w3.org/2000/svg" xmlns:xlink="http://www.w3.org/1999/xlink" x="0px" y="0px"
	 viewBox="0 0 815 510" style="enable-background:new 0 0 815 510;" xml:space="preserve">
<style type="text/css">
	.st0{fill:#FFFFFF;}
</style>
<path class="st0" d="M261.7,123.7C261.7,123.7,261.7,123.7,261.7,123.7L261.7,123.7C261.7,123.7,261.7,123.7,261.7,123.7
	L261.7,123.7z M263.9,107.1c0-0.1,0-0.1,0-0.2c0-0.2,0-0.3,0.1-0.5c0-0.1,0.1-0.3,0.1-0.4c0-0.1,0.1-0.3,0.2-0.4
	c0.2-0.5,0.5-1,0.9-1.4c-0.1,0.6-0.2,1.1-0.3,1.6c0,0.3-0.1,0.5-0.1,0.7c0,0.1,0,0.2,0,0.3c0,0,0.1,0,0.1,0c0.1,0,0.2,0,0.3,0
	c0.2,0,0.5-0.1,0.7-0.1c0.5-0.1,1-0.2,1.6-0.2c-0.4,0.4-0.9,0.7-1.4,0.9c-0.3,0.1-0.5,0.2-0.8,0.3c-0.1,0-0.3,0.1-0.5,0.1
	c-0.1,0-0.2,0-0.3,0c-0.1,0-0.2,0-0.4-0.1c-0.1,0-0.1-0.1-0.2-0.2c0-0.1-0.1-0.1-0.1-0.2C263.9,107.2,263.9,107.2,263.9,107.1
	L263.9,107.1z M264.8,106.9C264.8,106.9,264.8,106.9,264.8,106.9C264.8,106.9,264.8,106.9,264.8,106.9
	C264.8,106.9,264.8,106.9,264.8,106.9z M300.9,129.1C300.9,129.1,300.9,129.1,300.9,129.1C300.9,129,300.9,129,300.9,129.1
	L300.9,129.1z M367.1,92.9c0,0.1,0.1,0.2,0.1,0.3c0,0.1,0,0.2,0,0.3c-0.1,0.2-0.2,0.3-0.3,0.4c-0.2,0.2-0.5,0.4-0.7,0.6
	c-0.5,0.4-1,0.7-1.6,1c-1.1,0.6-2.1,1.2-3.1,1.9c1-0.8,2-1.4,3.1-2.1c0.5-0.3,1-0.7,1.5-1c0.2-0.2,0.5-0.4,0.7-0.6
	c0.1-0.1,0.2-0.2,0.2-0.3c0-0.1,0-0.2,0-0.3c0,0-0.1-0.1-0.1-0.1c0,0-0.1-0.1-0.2-0.1c-0.1-0.1-0.2-0.1-0.4-0.2
	c-0.3-0.1-0.6-0.1-0.8-0.1c-0.6,0-1.2,0.1-1.8,0.2c-1.2,0.3-2.3,0.7-3.4,1.2c-1.1,0.5-2.2,1.1-3.2,1.8c-0.5,0.3-1,0.7-1.4,1.1
	c-0.5,0.4-0.9,0.8-1.2,1.3c-0.7,0.9-1.3,2-1.6,3.1c-0.3,1.1-0.4,2.3-0.2,3.4c0.2,1.1,0.7,2.1,1.5,2.9c0.8,0.8,1.8,1.3,2.9,1.8
	c1.1,0.4,2.3,0.8,3.5,1.2c0.6,0.2,1.2,0.5,1.8,0.8c0.6,0.3,1.2,0.7,1.7,1.2c0.5,0.5,0.9,1.1,1.2,1.7c0.3,0.6,0.5,1.4,0.5,2.1
	c0,0.7-0.1,1.4-0.3,2.1c-0.2,0.7-0.5,1.3-0.8,1.8c-0.7,1.1-1.5,2.1-2.5,3c-0.5,0.4-0.9,0.9-1.4,1.3c-0.1,0.1-0.3,0.2-0.4,0.3
	l-0.4,0.3c-0.2,0.2-0.5,0.4-0.7,0.6c-2,1.5-4,2.9-6.1,4.2c-2.1,1.3-4.3,2.5-6.5,3.7c-4.4,2.3-8.9,4.3-13.6,6.1
	c-4.6,1.8-9.3,3.3-14.1,4.6c-4.8,1.3-9.5,2.5-14.3,3.6c-9.6,2.2-19.3,4-28.9,5.9l-14.5,2.8l-14.5,2.8c-19.3,3.7-38.6,7.3-58,10.6
	c19.2-4.3,38.4-8.4,57.6-12.4l14.4-3l14.4-3l14.4-2.9c4.8-1,9.6-2,14.4-3c4.8-1.1,9.5-2.2,14.2-3.6c4.7-1.3,9.4-2.8,13.9-4.5
	c4.6-1.7,9-3.6,13.4-5.8c2.2-1.1,4.3-2.3,6.4-3.6c2.1-1.3,4.1-2.6,6.1-4c0.2-0.2,0.5-0.4,0.7-0.5l0.4-0.3c0.1-0.1,0.2-0.2,0.4-0.3
	c0.5-0.4,0.9-0.7,1.3-1.1c0.9-0.8,1.6-1.7,2.2-2.6c0.6-1,1-2,1-3c0-1-0.4-2-1.2-2.8c-0.7-0.8-1.8-1.3-2.9-1.7
	c-1.1-0.5-2.3-0.8-3.4-1.3c-0.6-0.3-1.2-0.5-1.7-0.9c-0.5-0.3-1-0.7-1.4-1.1l-2.3,0.6l-0.9,0.2l-0.9,0.2l-1.7,0.4
	c-0.6,0.2-1.2,0.3-1.7,0.4l-1.7,0.5l-1.7,0.5l-1.7,0.5c-2.7,0.7-5.3,1.6-7.9,2.4c-0.3,1.6-0.6,3.2-1,4.8c-0.5,2.3-1.1,4.6-1.9,6.8
	c-0.7,2.3-1.6,4.5-2.8,6.6c-0.6,1.1-1.2,2.1-2,3.1c-0.7,1-1.6,1.9-2.6,2.7c-1,0.8-2.1,1.5-3.4,1.9c-0.6,0.2-1.3,0.3-1.9,0.4
	c-0.2,0-0.3,0-0.5,0c-0.2,0-0.3,0-0.5,0c-0.3,0-0.6,0-0.9,0c-1.2,0-2.4,0-3.6-0.1c-1.2-0.1-2.4-0.2-3.6-0.5
	c-1.2-0.3-2.4-0.6-3.5-1.2c-1.1-0.6-2.2-1.3-3.1-2.3c-0.4-0.5-0.8-1.1-1-1.8c-0.3-0.6-0.4-1.3-0.4-2c0-0.7,0.1-1.4,0.3-2
	c0.2-0.6,0.4-1.2,0.8-1.8c0-0.1,0.1-0.1,0.1-0.1c0,0,0.1-0.1,0.1-0.1l0.1-0.1l0.1-0.1c0.1-0.1,0.2-0.3,0.3-0.4
	c0.1-0.1,0.2-0.3,0.3-0.4l0.3-0.4c0.1-0.1,0.2-0.2,0.3-0.3l0.2-0.2l0.2-0.2l0.3-0.3l0.4-0.3c0.9-0.8,1.9-1.5,3-2.2
	c2.1-1.3,4.2-2.5,6.4-3.6c4.4-2.1,8.9-3.8,13.5-5.3c1.3-0.4,2.5-0.8,3.8-1.1c0.2-0.7,0.3-1.5,0.5-2.2l0.5-2.4
	c-0.2,0.1-0.4,0.3-0.6,0.4c-1,0.6-2,1.2-3.2,1.7c-0.3,0.1-0.6,0.2-0.9,0.3c-0.3,0.1-0.6,0.1-1,0.1c-0.3,0-0.7,0-1.1-0.2
	c-0.2-0.1-0.4-0.2-0.6-0.3c-0.5,0.4-1.1,0.8-1.7,1.1c-0.8,0.4-1.6,0.8-2.4,1c-0.4,0.1-0.9,0.2-1.4,0.3c-0.2,0-0.5,0-0.8,0
	c-0.3,0-0.6-0.1-0.9-0.2c-0.2-0.1-0.4-0.2-0.6-0.4c-0.2-0.2-0.3-0.4-0.4-0.7l0-0.1l0-0.1l0-0.1c-0.2,0.2-0.4,0.5-0.7,0.7
	c-0.5,0.4-0.9,0.8-1.5,1.2c-0.5,0.4-1.1,0.7-1.7,1c-0.6,0.3-1.3,0.5-2,0.5c-0.7,0.1-1.4,0.1-2.1-0.1c-0.1,0-0.2,0-0.3-0.1l-0.1,0
	c0,0,0,0-0.1,0l-0.1,0c-0.2-0.1-0.4-0.2-0.7-0.3c-0.4-0.2-0.7-0.6-1-0.9c-0.2-0.2-0.3-0.5-0.4-0.7c-0.6,0.5-1.3,0.9-2,1.4
	c-0.9,0.5-1.8,1-2.8,1.5c-1.9,0.9-3.8,1.7-5.8,2.4c-0.5,0.2-1,0.3-1.5,0.5c-0.5,0.1-1,0.3-1.6,0.4c-0.5,0.1-1.1,0.2-1.6,0.3
	c-0.3,0-0.6,0-0.9,0c-0.3,0-0.6,0-1-0.1l-0.1,0l-0.1-0.1c-0.1,0-0.2-0.1-0.3-0.1c-0.2-0.1-0.4-0.3-0.6-0.5c0-0.1-0.1-0.1-0.1-0.2
	c0-0.1-0.1-0.1-0.1-0.2c0-0.1-0.1-0.1-0.1-0.2c0,0,0-0.1,0-0.1l0-0.1c0,0,0-0.1,0-0.1c-0.3,0.3-0.7,0.7-1,1c-0.5,0.4-1,0.9-1.5,1.3
	c-1.1,0.8-2.2,1.5-3.6,2c-0.3,0.1-0.7,0.2-1,0.3c-0.4,0.1-0.7,0.1-1.1,0.1c-0.4,0-0.8,0-1.1,0c-0.1,0-0.2,0-0.3,0l-0.1,0l0,0l0,0
	c-0.1,0-0.1,0-0.2,0c-0.3-0.1-0.5-0.2-0.7-0.3c-0.2-0.1-0.4-0.3-0.6-0.5c-0.3,0.2-0.6,0.4-1,0.6c-0.5,0.3-1.1,0.6-1.7,0.9
	c-1.1,0.6-2.3,1.1-3.5,1.5c-0.6,0.2-1.2,0.4-1.8,0.6c-0.6,0.2-1.2,0.3-1.9,0.5c-0.6,0.1-1.3,0.2-2,0.2c-0.1,0-0.2,0-0.3,0l-0.3,0
	c-0.2,0-0.4,0-0.6-0.1c-0.1,0-0.2,0-0.3-0.1c-0.1,0-0.2,0-0.3-0.1c-0.1,0-0.2-0.1-0.3-0.1l-0.1,0c0,0,0,0,0,0l-0.1,0
	c-0.1,0-0.1-0.1-0.2-0.1c-0.3-0.2-0.5-0.4-0.7-0.6c-0.2-0.2-0.3-0.5-0.4-0.7c0-0.1,0-0.2-0.1-0.2c-0.5,0.3-1.1,0.7-1.6,1
	c-0.9,0.5-1.8,1-2.8,1.4c-1.9,0.9-3.8,1.6-5.8,2.3c-0.5,0.2-1,0.3-1.5,0.4c-0.5,0.1-1,0.3-1.6,0.4c-0.5,0.1-1.1,0.2-1.7,0.2
	c-0.3,0-0.6,0-0.9,0c-0.3,0-0.6-0.1-1-0.2l-0.1,0l-0.1-0.1c-0.1,0-0.2-0.1-0.3-0.1c-0.1-0.1-0.2-0.1-0.3-0.2c-0.3,0.1-0.7,0.3-1,0.4
	c-0.8,0.3-1.6,0.6-2.4,0.8c-1.6,0.6-3.2,1.1-4.8,1.6c-3.2,1-6.5,1.9-9.8,2.6c-0.8,0.2-1.7,0.3-2.5,0.5c-0.8,0.1-1.7,0.3-2.5,0.4
	c-0.9,0.1-1.7,0.2-2.6,0.2c-0.4,0-0.9,0-1.4-0.1c-0.5,0-0.9-0.1-1.4-0.3c-0.2-0.1-0.5-0.2-0.8-0.3c-0.3-0.1-0.5-0.3-0.8-0.5
	c-0.3-0.2-0.5-0.6-0.6-0.9c-0.1-0.4-0.2-0.7-0.1-1.1c0-0.3,0.1-0.6,0.2-0.9c0.1-0.3,0.2-0.5,0.3-0.7c0.1-0.2,0.2-0.4,0.4-0.6
	c0.1-0.1,0.1-0.2,0.2-0.3l0.1-0.1l0.1-0.1c0.6-0.8,1.2-1.5,1.8-2.2c0,0-0.1,0.1-0.1,0.1l-1.6,1.2l-0.8,0.6c-0.3,0.2-0.5,0.4-0.8,0.6
	l-1.6,1.2c-0.3,0.2-0.5,0.4-0.8,0.6l-0.8,0.6c-1.1,0.7-2.2,1.5-3.3,2.2l-1.7,1.1c-0.3,0.2-0.6,0.4-0.9,0.5l-0.9,0.5l-1.7,1
	c-0.6,0.3-1.2,0.7-1.7,1c-9.3,5.2-19.2,9.4-29.4,12.3c9.9-3.8,19.4-8.4,28.4-13.9c0.6-0.3,1.1-0.7,1.7-1l1.7-1.1l0.8-0.5
	c0.3-0.2,0.6-0.4,0.8-0.5l1.6-1.1c1.1-0.7,2.2-1.5,3.3-2.2l0.8-0.6c0.3-0.2,0.5-0.4,0.8-0.6l1.6-1.2c0.3-0.2,0.5-0.4,0.8-0.6
	l0.8-0.6l1.6-1.2c0.5-0.4,1-0.8,1.5-1.2l1.5-1.2c2-1.7,4.1-3.4,5.9-5.2c0.5-0.5,0.9-0.9,1.3-1.4c0.4-0.5,0.8-1,1.2-1.5
	c0.4-0.5,0.7-1,1-1.6l0.2-0.4l0.2-0.4c0.1-0.1,0.1-0.3,0.2-0.4l0.1-0.2c0-0.1,0.1-0.1,0.1-0.2c0.2-0.6,0.4-1.1,0.5-1.7
	c0.1-0.3,0.1-0.6,0.1-0.9c0-0.3,0-0.6,0-0.9c0-0.6,0-1.2-0.2-1.7c0-0.1,0-0.1,0-0.2l-0.1-0.2c0-0.1-0.1-0.3-0.1-0.4l-0.1-0.4
	l-0.2-0.4c0-0.1-0.1-0.1-0.1-0.2l-0.1-0.2l-0.1-0.2l-0.1-0.2l-0.1-0.2c0-0.1-0.1-0.1-0.1-0.2c-0.1-0.1-0.2-0.2-0.3-0.3
	c-0.4-0.4-0.8-0.8-1.3-1.1c-1-0.7-2.1-1.1-3.3-1.4c-1.2-0.3-2.5-0.3-3.7-0.3c-1.3,0-2.5,0.1-3.8,0.4c-0.6,0.1-1.3,0.2-1.9,0.4
	c-0.6,0.2-1.3,0.3-1.9,0.5c-1.3,0.3-2.5,0.7-3.8,1.1c-2.5,0.8-5,1.6-7.4,2.6c-4.9,2-9.6,4.4-14.1,7.3c0.6-0.4,1.2-0.9,1.8-1.3
	c-0.4,0.2-0.7,0.4-1.1,0.6c8-5.3,15.6-11.2,22.7-17.6l1.3-1.2l1.3-1.2l0.7-0.6l0.6-0.6l1.3-1.2c0.8-0.8,1.7-1.7,2.5-2.5
	c0.4-0.4,0.8-0.8,1.3-1.3c0.4-0.4,0.8-0.9,1.2-1.3c0.8-0.9,1.4-1.8,1.9-2.7c0.2-0.5,0.5-1,0.6-1.5c0.1-0.5,0.2-1,0.2-1.5
	c0-1-0.2-2-0.7-2.8c-0.1-0.1-0.1-0.2-0.2-0.3c-0.1-0.1-0.1-0.2-0.2-0.3c-0.2-0.2-0.3-0.3-0.5-0.4c-0.2-0.1-0.4-0.2-0.6-0.3
	c-0.1-0.1-0.2-0.1-0.3-0.1c-0.1,0-0.2-0.1-0.4-0.1c-0.5-0.1-1-0.3-1.6-0.3c-0.5-0.1-1.1-0.1-1.6-0.1c-1.1,0-2.2,0.2-3.3,0.4
	c-0.3,0.1-0.5,0.1-0.8,0.2c-0.1,0-0.3,0.1-0.4,0.1l-0.4,0.1l-1.7,0.6c-0.3,0.1-0.6,0.2-0.8,0.3l-0.8,0.3l-1.7,0.6
	c-4.5,1.6-8.8,3.6-13.1,5.7c-0.8,0.4-1.7,0.8-2.5,1.3c-0.7,6.1-1.9,12.2-3.4,18.1c-2.1,7.8-4.8,15.4-8.1,22.7
	c-3.3,7.3-7.3,14.3-11.9,21c-4.6,6.6-9.7,12.8-15.4,18.5c5-6.3,9.6-12.7,13.8-19.5c4.2-6.7,8-13.7,11.3-20.9
	c3.3-7.2,6.1-14.6,8.5-22.2c1.8-5.7,3.2-11.4,4.5-17.3c0,0,0,0,0,0c-0.5,0.3-1.1,0.6-1.6,0.8l-1.6,0.9l-1.6,0.9
	c-0.5,0.3-1,0.6-1.6,0.9c-1,0.6-2.1,1.2-3.1,1.8c-4.1,2.5-8.1,5.1-12.1,7.8c3.7-3.1,7.5-6,11.5-8.8c0.5-0.3,1-0.7,1.5-1l1.5-1
	c0.5-0.3,1-0.7,1.5-1l1.5-1c1.5-0.9,2.9-1.7,4.4-2.6c0.3-1.3,0.5-2.5,0.8-3.8c-0.1,1.2-0.2,2.3-0.3,3.5c0.5-0.3,1-0.5,1.4-0.8
	l1.6-0.9l1.6-0.8c1.1-0.6,2.2-1.1,3.3-1.6c0.3-0.1,0.5-0.3,0.8-0.4l0.8-0.4l1.7-0.7c0.6-0.2,1.1-0.5,1.7-0.7
	c0.6-0.2,1.1-0.5,1.7-0.7l1.7-0.6l0.9-0.3c0.3-0.1,0.6-0.2,0.9-0.3l1.7-0.6l0.4-0.1c0.1,0,0.3-0.1,0.5-0.1c0.3-0.1,0.6-0.2,0.9-0.3
	c1.2-0.3,2.5-0.5,3.8-0.5c0.6,0,1.3,0,2,0.1c0.7,0.1,1.3,0.2,2,0.4c0.2,0,0.3,0.1,0.5,0.2c0.2,0.1,0.3,0.1,0.5,0.2
	c0.3,0.1,0.6,0.3,1,0.5c0.3,0.2,0.6,0.5,0.9,0.7c0.1,0.1,0.3,0.3,0.4,0.4c0.1,0.2,0.2,0.3,0.3,0.5c0.4,0.6,0.7,1.3,0.8,2
	c0.2,0.7,0.2,1.4,0.2,2.1c0,0.7-0.2,1.4-0.3,2c-0.2,0.7-0.5,1.3-0.8,1.9c-0.6,1.2-1.4,2.2-2.3,3.1c-0.4,0.5-0.9,0.9-1.3,1.3
	c-0.4,0.4-0.9,0.8-1.3,1.3c-0.9,0.9-1.8,1.7-2.6,2.5c-1.8,1.6-3.6,3.2-5.4,4.8c-4,3.3-8.1,6.4-12.4,9.3c0.5-0.2,0.9-0.5,1.4-0.7
	c2.4-1.1,4.9-2.2,7.4-3l0.5-0.2l0.5-0.2l1-0.3c0.3-0.1,0.6-0.2,1-0.3l1-0.3c0.6-0.2,1.3-0.4,1.9-0.5c0.7-0.2,1.3-0.3,2-0.5
	c1.3-0.3,2.7-0.5,4.1-0.5c1.4-0.1,2.8,0,4.2,0.3c1.4,0.3,2.8,0.8,4.1,1.6c0.6,0.4,1.2,0.9,1.7,1.5c0.5,0.6,0.9,1.2,1.3,1.9l0.2,0.5
	c0.1,0.2,0.1,0.4,0.2,0.5c0.1,0.2,0.1,0.4,0.2,0.5l0.1,0.3c0,0.1,0,0.2,0.1,0.3c0.2,0.7,0.2,1.5,0.2,2.2c0,0.4,0,0.7,0,1.1
	c0,0.4-0.1,0.7-0.1,1.1c-0.1,0.7-0.3,1.4-0.6,2.1c0,0.1-0.1,0.2-0.1,0.3l-0.1,0.3c-0.1,0.2-0.1,0.3-0.2,0.5l-0.2,0.5l-0.3,0.5
	c-0.3,0.6-0.7,1.2-1.1,1.8c-0.4,0.6-0.9,1.1-1.3,1.6c-0.2,0.2-0.4,0.4-0.6,0.6c1.3-0.8,2.6-1.6,3.9-2.4c0.8-0.4,1.5-0.8,2.3-1.1
	c0.4-0.2,0.8-0.3,1.2-0.5c0.4-0.1,0.9-0.3,1.3-0.4c0.2,0,0.5-0.1,0.8-0.1c0.3,0,0.6,0,0.9,0.1c0.1,0,0.2,0.1,0.3,0.1
	c0.1,0.1,0.2,0.1,0.3,0.2c0,0,0.1,0.1,0.1,0.1c0,0,0.1,0.1,0.1,0.1c0.1,0.1,0.1,0.2,0.2,0.3c0,0.1,0,0.1,0.1,0.2c0,0.1,0,0.1,0,0.2
	c0,0.1,0,0.2,0,0.3c0,0.1,0,0.2,0,0.3c0,0.1,0,0.2,0,0.2c-0.1,0.6-0.3,1.1-0.6,1.5c-0.2,0.4-0.5,0.8-0.8,1.1
	c-0.6,0.7-1.1,1.3-1.8,1.9c-0.6,0.6-1.2,1.2-1.9,1.7c-1.3,1.1-2.6,2.1-4,3.1c-0.7,0.5-1.4,1-2.1,1.4c-0.7,0.5-1.4,0.9-2.1,1.4
	c2.5-2.2,5-4.4,7.4-6.8c0.6-0.6,1.2-1.2,1.7-1.8c0.5-0.6,1.1-1.2,1.5-1.9c0.2-0.3,0.4-0.7,0.6-1c0.1-0.2,0.1-0.3,0.2-0.5
	c0-0.2,0.1-0.3,0.1-0.4c0,0,0,0,0-0.1c-0.1,0-0.2,0-0.3,0c-0.1,0-0.3,0-0.5,0.1c-0.7,0.2-1.4,0.5-2.2,0.8c-0.7,0.3-1.4,0.7-2.1,1.1
	c-1.4,0.8-2.8,1.7-4.1,2.7c-1.3,1-2.6,2-3.9,3c-1.3,1.1-2.5,2.2-3.6,3.3c-1.1,1.2-2.2,2.4-3.2,3.7l-0.1,0.1l-0.1,0.1
	c-0.1,0.1-0.1,0.1-0.2,0.2c-0.1,0.1-0.2,0.3-0.3,0.4c-0.2,0.3-0.3,0.6-0.3,0.7c0,0.1,0,0.1,0,0.2c0,0,0,0,0.1,0.1
	c0.1,0.1,0.3,0.2,0.6,0.3c0.3,0.1,0.7,0.2,1,0.2c0.4,0,0.8,0.1,1.1,0.1c0.8,0,1.6,0,2.4-0.1c0.8-0.1,1.6-0.1,2.4-0.2
	c0.8-0.1,1.6-0.2,2.5-0.3c3.3-0.5,6.5-1.2,9.8-1.9c1.6-0.3,3.3-0.7,4.9-1.1c0.8-0.2,1.6-0.4,2.4-0.6l1-0.2c-0.1-0.1-0.1-0.1-0.2-0.2
	c0-0.1-0.1-0.1-0.1-0.2c0-0.1-0.1-0.1-0.1-0.2c0-0.1-0.1-0.1-0.1-0.2c0,0,0-0.1,0-0.1l0-0.1c0-0.1,0-0.2-0.1-0.3l0-0.3
	c0-0.7,0-1.3,0.1-1.8c0.1-0.6,0.2-1.1,0.4-1.6c0.1-0.5,0.3-1,0.5-1.5c0.3-1,0.7-2,1.1-3c0.4-1,0.8-1.9,1.2-2.9
	c0.4-0.9,0.9-1.9,1.3-2.8c0.5-0.9,0.9-1.9,1.4-2.8c1-1.8,2-3.6,3-5.4c0.5-0.9,1.1-1.8,1.6-2.6c0.6-0.9,1.1-1.7,1.7-2.6
	c-1.5,3.9-3.2,7.7-4.8,11.4l-1.2,2.8c-0.4,0.9-0.8,1.9-1.2,2.8c-0.4,0.9-0.8,1.9-1.1,2.8c-0.4,0.9-0.7,1.9-1,2.9
	c-0.3,0.9-0.6,1.9-0.8,2.8c-0.1,0.5-0.1,0.9-0.1,1.3l0,0.1c0,0,0,0,0,0l0,0c0.1,0,0.3,0.1,0.5,0.1c0.2,0,0.4,0,0.7,0
	c0.5,0,0.9-0.1,1.4-0.1c0.5-0.1,1-0.1,1.5-0.2c0.5-0.1,1-0.2,1.5-0.3c2-0.4,3.9-1,5.9-1.6c1-0.3,2-0.6,2.9-0.9
	c0.5-0.2,1-0.3,1.5-0.5c0.1,0,0.2-0.1,0.4-0.1c-0.1-0.3-0.1-0.5-0.1-0.7c0-0.8,0.1-1.4,0.2-2.1c0.1-0.7,0.3-1.3,0.5-1.9
	c0.1-0.3,0.2-0.6,0.3-0.9c0.1-0.3,0.2-0.6,0.3-0.9c0.5-1.2,1-2.3,1.6-3.4c0.3-0.6,0.6-1.1,1-1.6c0.3-0.5,0.7-1.1,1.1-1.6
	c-0.6,2.5-1.3,4.8-1.9,7.2c-0.1,0.6-0.3,1.2-0.4,1.8c-0.1,0.6-0.2,1.2-0.3,1.7c-0.1,0.6-0.1,1.1-0.1,1.6c0,0.2,0.1,0.4,0.1,0.6
	c0,0.1,0,0.1,0.1,0.1c0,0,0,0,0,0l0,0c0,0,0,0,0,0c0,0,0,0,0,0c0,0,0,0,0,0c0,0,0,0,0,0l0,0c0,0,0.1,0,0.1,0l0.1,0c0,0,0.1,0,0.2,0
	c0.1,0,0.2,0,0.3,0l0.2,0c0.1,0,0.1,0,0.2,0c0.5,0,1.1-0.1,1.7-0.1c0.6-0.1,1.2-0.2,1.8-0.3l0.4-0.1l0.4-0.1
	c0.3-0.1,0.6-0.1,0.9-0.2c2.1-0.5,4.3-1,6.5-1.4c-0.1-0.1-0.2-0.2-0.3-0.3c-0.2-0.4-0.4-0.8-0.5-1.2c-0.2-0.8-0.1-1.6,0-2.4
	c0.1-0.7,0.4-1.4,0.7-2.1c0.3-0.7,0.7-1.3,1.1-1.8c0.4-0.6,0.8-1.1,1.3-1.6c0.5-0.5,1-0.9,1.5-1.4c0.3-0.2,0.6-0.4,0.9-0.6
	c0.3-0.2,0.6-0.4,0.9-0.5c0.7-0.3,1.4-0.5,2.2-0.5c0.4,0,0.8,0.1,1.1,0.3c0.3,0.2,0.7,0.4,0.9,0.6c0.3,0.3,0.5,0.5,0.6,0.8
	c0.2,0.3,0.3,0.6,0.4,0.9c-0.4-0.5-0.9-1-1.4-1.3c-0.5-0.3-1.1-0.4-1.6-0.3c-0.3,0-0.5,0.1-0.8,0.2c-0.2,0.1-0.5,0.3-0.7,0.4
	c-0.2,0.2-0.5,0.3-0.7,0.5c-0.2,0.2-0.4,0.4-0.6,0.6c-0.2,0.2-0.4,0.4-0.6,0.7c-0.2,0.2-0.4,0.5-0.6,0.7c-0.4,0.5-0.7,1-1,1.5
	c-0.6,1-1.1,2.1-1.3,3.1c-0.1,0.5-0.1,1,0,1.5c0,0.2,0.1,0.4,0.2,0.6c0.1,0.2,0.2,0.3,0.3,0.3c0,0,0.1,0.1,0.2,0.1c0,0,0,0,0,0
	c0,0,0,0,0,0l0,0l0,0c0.1,0,0.1,0,0.2,0c0.3,0,0.5,0.1,0.8,0.1c0.3,0,0.5,0,0.8,0c0.3,0,0.6-0.1,0.8-0.1c1.1-0.2,2.3-0.7,3.5-1.2
	c0.6-0.3,1.2-0.5,1.7-0.8c0.4-0.2,0.9-0.4,1.4-0.6l0-0.2c-0.1-0.7,0-1.3,0.1-1.8c0.1-0.6,0.2-1.1,0.3-1.6c0.1-0.5,0.3-1,0.4-1.6
	c0.3-1,0.7-2,1-3c0.4-1,0.8-2,1.2-2.9c0.4-1,0.8-1.9,1.3-2.9c0.4-0.9,0.9-1.9,1.3-2.8c0.9-1.9,1.9-3.7,2.9-5.5
	c0.5-0.9,1-1.8,1.6-2.7c0.5-0.9,1.1-1.8,1.7-2.6c-1.4,3.9-3,7.7-4.5,11.6l-1.1,2.9c-0.4,1-0.7,1.9-1.1,2.9c-0.4,1-0.7,1.9-1,2.9
	c-0.3,1-0.7,1.9-0.9,2.9c-0.3,1-0.5,1.9-0.7,2.8c-0.1,0.5-0.1,0.9-0.1,1.3l0,0.1c0,0,0,0,0,0l0,0c0.1,0,0.3,0.1,0.5,0.1
	c0.2,0,0.4,0,0.7,0c0.5,0,0.9-0.1,1.4-0.1c0.5-0.1,1-0.2,1.5-0.3c0.5-0.1,1-0.2,1.5-0.3c2-0.5,3.9-1.1,5.9-1.7c1-0.3,1.9-0.7,2.9-1
	c0.5-0.2,1-0.4,1.4-0.6c0.3-0.1,0.5-0.2,0.8-0.4c0-0.1-0.1-0.2-0.1-0.3c-0.1-0.4-0.2-0.8-0.2-1.2c0-0.8,0.1-1.5,0.3-2.2
	c0.4-1.4,1.1-2.6,1.9-3.6c0.4-0.5,0.8-1,1.3-1.5c0.2-0.2,0.5-0.4,0.7-0.7c0.3-0.2,0.5-0.4,0.8-0.6c0.3-0.2,0.6-0.4,0.8-0.6
	c0.3-0.2,0.6-0.3,0.9-0.5c0.3-0.1,0.7-0.2,1-0.3c0.4-0.1,0.7-0.1,1.1,0c0.4,0,0.7,0.2,1,0.3c0.3,0.2,0.6,0.4,0.8,0.6
	c0.5,0.5,0.8,1.1,0.9,1.7c-0.4-0.5-0.8-0.9-1.3-1.2c-0.5-0.3-1-0.4-1.5-0.3c-0.5,0.1-1,0.3-1.4,0.6c-0.2,0.1-0.4,0.3-0.7,0.5
	c-0.2,0.2-0.4,0.4-0.6,0.6c-0.2,0.2-0.4,0.4-0.6,0.6c-0.2,0.2-0.4,0.4-0.6,0.7c-0.4,0.5-0.7,0.9-1,1.4c-0.6,0.9-1.2,1.9-1.4,2.9
	c-0.1,0.5-0.2,1-0.2,1.5c0,0.5,0.1,0.9,0.3,1.2c0.1,0.1,0.2,0.3,0.3,0.4c0.1,0,0.1,0.1,0.2,0.1l0,0c0,0,0,0,0,0l0.1,0
	c0.1,0,0.1,0,0.2,0.1c0.5,0.1,1,0.2,1.5,0.2c1.1,0,2.2-0.3,3.3-0.7c0.9-0.3,1.7-0.8,2.6-1.3c0-0.1,0-0.2,0-0.4c0-0.5,0-1,0.1-1.5
	c0.1-0.9,0.3-1.8,0.6-2.6c0.3-0.8,0.6-1.6,0.9-2.4c0.4-0.8,0.7-1.5,1.2-2.3c0.2-0.4,0.4-0.7,0.7-1.1c0.2-0.4,0.5-0.7,0.8-1
	c0,0.4-0.1,0.9-0.2,1.3c-0.1,0.4-0.1,0.8-0.2,1.2c-0.2,0.8-0.3,1.6-0.5,2.4c-0.2,0.8-0.4,1.6-0.5,2.4c-0.2,0.8-0.3,1.6-0.4,2.3
	c-0.1,0.4-0.1,0.7-0.1,1c0,0.1,0,0.1,0,0.2c0,0,0,0,0,0c0,0,0.1,0,0.1,0c0.1,0,0.3,0.1,0.5,0.1c0.3,0,0.7,0,1.1,0
	c0.8,0,1.6-0.2,2.4-0.3c0.4-0.1,0.8-0.1,1.2-0.2c0.2,0,0.4-0.1,0.6-0.1c0,0-0.1-0.1-0.1-0.1c-0.2-0.3-0.4-0.6-0.4-1
	c-0.1-0.3-0.1-0.7-0.1-1c0-0.6,0.1-1.2,0.2-1.8c0.1-0.6,0.3-1.2,0.5-1.7c0.2-0.6,0.4-1.1,0.6-1.6c0.5-1.1,1-2.1,1.5-3.2
	c-0.4,1.1-0.8,2.2-1.1,3.3c-0.2,0.6-0.3,1.1-0.4,1.7c-0.1,0.6-0.2,1.1-0.3,1.7c-0.1,0.6-0.1,1.1-0.1,1.7c0,0.5,0.2,1,0.4,1.3
	c0.1,0.1,0.3,0.2,0.5,0.3c0.2,0.1,0.4,0.1,0.7,0c0.5,0,1-0.2,1.5-0.4c0.5-0.2,1-0.5,1.5-0.8c0.5-0.3,1-0.6,1.4-0.9
	c0.7-0.5,1.3-1,1.9-1.5c0.2-0.8,0.3-1.5,0.6-2.3c0.1-0.3,0.2-0.6,0.3-0.9c0.1-0.3,0.2-0.6,0.3-0.9c0.2-0.6,0.5-1.1,0.8-1.7
	c0.6-1.1,1.2-2.1,2-3.1c0.8-1,1.6-1.9,2.6-2.7c0.3-0.2,0.5-0.4,0.8-0.6c0.3-0.2,0.6-0.3,1-0.4c0.2-0.1,0.4-0.1,0.7-0.1
	c0.3,0,0.6,0.1,0.9,0.3c0.2,0.1,0.3,0.2,0.4,0.4c0.1,0.1,0.2,0.3,0.2,0.4c0.1,0.3,0.1,0.5,0.1,0.7c0,0.2,0,0.4,0,0.6
	c0,0.1,0,0.2-0.1,0.3c0,0.1,0,0.2-0.1,0.3c-0.1,0.4-0.2,0.7-0.4,0.9c-0.1,0.3-0.3,0.6-0.5,0.8c-0.2,0.3-0.3,0.5-0.5,0.8
	c-0.7,1-1.5,1.9-2.3,2.8c-1.4,1.6-3,3-4.6,4.4c-0.1,0.5-0.2,1-0.3,1.6l-0.6,3.4c-0.1,0.3-0.1,0.7-0.2,1c2.5-0.7,5-1.4,7.6-2
	c4.3-1,8.6-1.9,12.9-2.8c0,0-0.1,0-0.1-0.1c-0.5-0.5-0.9-1.1-1.1-1.7c-0.3-0.6-0.5-1.3-0.6-1.9c-0.2-1.3,0-2.6,0.4-3.9
	c0.4-1.2,1-2.4,1.9-3.4c0.4-0.5,0.9-0.9,1.4-1.3c0.5-0.4,1-0.7,1.6-1.1c1.1-0.7,2.2-1.2,3.3-1.7c1.2-0.5,2.3-0.9,3.6-1.1
	c0.6-0.1,1.2-0.2,1.9-0.1c0.3,0,0.6,0.1,1,0.2C366.6,92.4,366.9,92.6,367.1,92.9z M233.8,116.2C233.7,116.2,233.8,116.2,233.8,116.2
	C233.8,116.2,233.8,116.2,233.8,116.2C233.8,116.2,233.8,116.2,233.8,116.2C233.8,116.2,233.8,116.2,233.8,116.2z M317.5,111.6
	C317.5,111.6,317.5,111.6,317.5,111.6C317.5,111.6,317.5,111.6,317.5,111.6C317.5,111.6,317.5,111.6,317.5,111.6z M334.8,103.8
	c-0.1,0.2-0.2,0.4-0.2,0.7c0.9-0.9,1.8-1.8,2.7-2.8c0.7-0.9,1.4-1.8,2.1-2.7c0.2-0.2,0.3-0.5,0.4-0.7c0.1-0.2,0.3-0.5,0.4-0.7
	c0.1-0.2,0.2-0.5,0.3-0.7c0-0.1,0-0.2,0.1-0.3c0-0.1,0-0.1,0-0.2c-0.2,0.1-0.3,0.1-0.5,0.3c-0.2,0.1-0.4,0.3-0.6,0.4
	c-0.8,0.6-1.5,1.5-2.2,2.4c-0.6,0.9-1.2,1.8-1.7,2.8C335.2,102.8,334.9,103.3,334.8,103.8z M329.9,115c-1.1,0.4-2.1,0.7-3.2,1.1
	c-2.2,0.8-4.5,1.7-6.7,2.6c-2.2,0.9-4.4,1.9-6.5,3c-2.1,1.1-4.2,2.3-6.1,3.6c-1,0.7-1.9,1.4-2.8,2.1l-0.3,0.3L304,128l-0.2,0.1
	l-0.1,0.2c-0.1,0.1-0.2,0.2-0.3,0.3l-0.3,0.3c-0.1,0.1-0.2,0.2-0.3,0.3c-0.1,0.1-0.2,0.2-0.2,0.3l-0.1,0.1l0,0.1c0,0,0,0.1,0,0.1
	c0,0,0,0.1,0,0l0,0.1c-0.5,0.9-0.8,1.9-0.7,2.8c0,0.9,0.4,1.8,1.1,2.6c0.6,0.7,1.5,1.3,2.5,1.8c1,0.4,2,0.8,3.1,1
	c1.1,0.2,2.2,0.3,3.3,0.4c1.1,0.1,2.2,0.1,3.4,0c0.3,0,0.6,0,0.8,0c0.1,0,0.3,0,0.4,0c0.1,0,0.3,0,0.4,0c0.5-0.1,1-0.2,1.5-0.3
	c1-0.3,1.9-0.9,2.7-1.5c0.8-0.7,1.5-1.5,2.2-2.3c0.6-0.9,1.2-1.8,1.7-2.8c0.5-1,1-2,1.4-3.1c0.4-1,0.8-2.1,1.2-3.2
	c0.7-2.2,1.3-4.4,1.8-6.6C329.4,117.3,329.7,116.2,329.9,115z M508.9,286.5c0.1,0.1,0.1,0.2,0.1,0.3c0,0.1,0,0.2,0,0.3
	c-0.1,0.2-0.2,0.4-0.3,0.5c-0.3,0.3-0.6,0.5-0.9,0.7c-0.6,0.4-1.3,0.8-1.9,1.2c-1.3,0.8-2.6,1.5-3.8,2.4c1.2-0.9,2.5-1.7,3.7-2.5
	c0.6-0.4,1.3-0.8,1.9-1.2c0.3-0.2,0.6-0.5,0.8-0.7c0.1-0.1,0.2-0.3,0.3-0.4c0-0.1,0-0.3-0.1-0.4c0-0.1-0.1-0.1-0.2-0.2
	c-0.1-0.1-0.1-0.1-0.2-0.2c-0.1-0.1-0.3-0.2-0.5-0.2c-0.3-0.1-0.7-0.2-1-0.2c-0.7,0-1.5,0.1-2.2,0.3c-1.4,0.3-2.8,0.9-4.2,1.5
	c-0.7,0.3-1.3,0.6-2,1c-0.6,0.4-1.3,0.7-1.9,1.1c-0.6,0.4-1.2,0.8-1.8,1.3c-0.6,0.5-1.1,1-1.5,1.5c-0.9,1.1-1.6,2.4-2,3.8
	c-0.4,1.4-0.5,2.8-0.3,4.2c0.1,0.7,0.3,1.4,0.6,2c0.3,0.6,0.7,1.2,1.2,1.7c0.5,0.5,1.1,0.9,1.7,1.3c0.6,0.4,1.3,0.7,1.9,0.9
	c1.3,0.6,2.8,1,4.2,1.5c0.7,0.3,1.4,0.6,2.1,1c0.7,0.4,1.4,0.8,2,1.4c0.6,0.6,1.1,1.3,1.4,2c0.3,0.8,0.5,1.6,0.6,2.4
	c0,0.8-0.1,1.7-0.4,2.4c-0.2,0.8-0.6,1.5-1,2.2c-0.8,1.4-1.8,2.5-2.9,3.6c-0.6,0.5-1.1,1-1.7,1.5c-0.1,0.1-0.3,0.2-0.5,0.4l-0.5,0.3
	c-0.3,0.2-0.6,0.5-0.9,0.7c-2.4,1.8-4.9,3.5-7.5,5.1c-2.6,1.6-5.2,3.1-7.8,4.5c-5.3,2.8-10.8,5.2-16.5,7.4c-5.6,2.1-11.3,4-17.1,5.6
	c-5.8,1.6-11.6,3.1-17.4,4.4c-5.8,1.3-11.7,2.5-17.6,3.7l-17.6,3.5l-17.6,3.4l-17.6,3.4c-23.5,4.5-47,9-70.5,13.3
	c23.4-5.1,46.8-10,70.2-14.8l17.6-3.6l17.6-3.6l17.6-3.5c5.9-1.2,11.7-2.4,17.5-3.7c5.8-1.3,11.6-2.7,17.3-4.3
	c5.7-1.6,11.4-3.4,17-5.5c5.6-2.1,11-4.4,16.3-7.2c2.6-1.4,5.2-2.8,7.8-4.3c2.5-1.5,5-3.2,7.4-4.9c0.3-0.2,0.6-0.4,0.9-0.7l0.4-0.3
	c0.1-0.1,0.3-0.2,0.4-0.3c0.6-0.4,1.1-0.9,1.7-1.4c1.1-1,2-2.1,2.8-3.3c0.4-0.6,0.7-1.2,0.9-1.9c0.2-0.6,0.3-1.3,0.3-2
	c0-1.3-0.6-2.6-1.5-3.5c-0.5-0.5-1-0.9-1.7-1.2c-0.6-0.3-1.3-0.6-2-0.9c-1.4-0.5-2.8-1-4.2-1.6c-0.7-0.3-1.4-0.6-2.1-1.1
	c-0.6-0.4-1.1-0.8-1.6-1.3c-2.5,0.6-4.9,1.2-7.3,1.8c-2.8,0.7-5.7,1.5-8.5,2.2c-3.4,0.9-6.7,1.9-10,3c-0.4,2-0.8,3.9-1.2,5.9
	c-0.6,2.8-1.4,5.5-2.3,8.3c-0.9,2.7-1.9,5.4-3.3,8c-0.7,1.3-1.5,2.5-2.3,3.7c-0.9,1.2-1.9,2.3-3.1,3.2c-1.2,0.9-2.5,1.7-4,2.2
	c-0.4,0.1-0.7,0.2-1.1,0.3c-0.4,0.1-0.8,0.1-1.1,0.2c-0.2,0-0.4,0-0.6,0.1c-0.2,0-0.4,0-0.5,0c-0.4,0-0.7,0-1.1,0
	c-1.4,0-2.9,0-4.3-0.1c-1.4-0.1-2.9-0.3-4.3-0.6c-1.4-0.3-2.9-0.7-4.2-1.4c-0.7-0.3-1.3-0.7-2-1.2c-0.6-0.5-1.2-1-1.7-1.6
	c-0.5-0.6-0.9-1.3-1.2-2c-0.3-0.7-0.5-1.5-0.5-2.3c0-0.8,0.1-1.6,0.3-2.3c0.2-0.8,0.5-1.5,0.9-2.1l0,0.1l0-0.1l0,0l0-0.1
	c0-0.1,0.1-0.1,0.1-0.1c0.1-0.1,0.1-0.2,0.2-0.3c0.1-0.2,0.2-0.3,0.4-0.5c0.2-0.3,0.5-0.6,0.8-0.9c0.5-0.6,1.1-1.1,1.6-1.6
	c1.1-1,2.3-1.9,3.6-2.7c1.2-0.8,2.5-1.6,3.8-2.3c1.3-0.7,2.6-1.4,3.9-2c2.6-1.3,5.4-2.4,8.1-3.5c2.7-1.1,5.5-2,8.3-3
	c1.7-0.5,3.3-1.1,5-1.6c0.2-0.9,0.4-1.8,0.5-2.6c0.2-1.2,0.5-2.5,0.7-3.7c-0.5,0.4-1,0.7-1.5,1.1c-1.2,0.8-2.5,1.5-3.8,2
	c-0.7,0.3-1.4,0.5-2.2,0.5c-0.4,0-0.8,0-1.2-0.2c-0.2-0.1-0.4-0.2-0.6-0.3c-0.7,0.5-1.5,0.9-2.3,1.3c-0.9,0.4-1.9,0.8-2.9,1.1
	c-0.5,0.1-1.1,0.2-1.6,0.3c-0.3,0-0.6,0-0.9,0c-0.3,0-0.6-0.1-1-0.3c-0.2-0.1-0.4-0.2-0.6-0.4c-0.2-0.2-0.3-0.4-0.4-0.7l0-0.1l0-0.1
	c0,0,0-0.1,0-0.1c0-0.1,0-0.2-0.1-0.2c0,0,0,0,0,0c-0.4,0.4-0.8,0.8-1.2,1.2c-0.6,0.5-1.2,1-1.8,1.4c-0.3,0.2-0.7,0.4-1,0.6
	c-0.3,0.2-0.7,0.3-1.1,0.5c-0.7,0.3-1.5,0.5-2.3,0.6c-0.8,0.1-1.7,0.1-2.5-0.1c-0.1,0-0.2,0-0.3-0.1l-0.2,0c0,0,0,0-0.1,0l-0.1,0
	c-0.2-0.1-0.5-0.2-0.7-0.3c-0.4-0.3-0.8-0.6-1.1-1c-0.2-0.3-0.4-0.6-0.5-0.9c-0.9,0.7-1.9,1.3-2.9,1.8c-1.1,0.6-2.2,1.2-3.4,1.7
	c-2.3,1.1-4.6,2-7.1,2.8c-1.2,0.4-2.4,0.7-3.7,1c-0.6,0.1-1.3,0.2-2,0.3c-0.3,0-0.7,0-1,0c-0.4,0-0.7,0-1.1-0.2l-0.2,0l-0.2-0.1
	c-0.1,0-0.2-0.1-0.3-0.2c-0.2-0.1-0.5-0.3-0.6-0.5c0,0,0-0.1-0.1-0.1l-0.1-0.1c0-0.1-0.1-0.1-0.1-0.2c0-0.1-0.1-0.1-0.1-0.2
	c0,0,0-0.1,0-0.1l0-0.1l0-0.2c0-0.1,0-0.1,0-0.2l0-0.1c-0.5,0.5-1.1,1-1.7,1.5c-0.6,0.5-1.2,1-1.9,1.4c-1.3,0.9-2.7,1.7-4.3,2.2
	c-0.4,0.1-0.8,0.2-1.2,0.3c-0.4,0.1-0.9,0.1-1.3,0.1c-0.4,0-0.9,0-1.3-0.1c-0.1,0-0.2,0-0.3,0l-0.1,0l0,0l0,0c-0.1,0-0.1,0-0.2,0
	c-0.3-0.1-0.5-0.2-0.8-0.3c-0.2-0.1-0.4-0.3-0.6-0.5c-0.5,0.3-1,0.6-1.6,0.9c-0.7,0.3-1.4,0.7-2.1,1c-1.4,0.6-2.8,1.2-4.3,1.7
	c-0.7,0.3-1.5,0.5-2.2,0.7c-0.7,0.2-1.5,0.4-2.3,0.5c-0.8,0.1-1.6,0.3-2.4,0.3c-0.4,0-0.8,0-1.3-0.1c-0.2,0-0.5-0.1-0.7-0.1
	c-0.1,0-0.2-0.1-0.4-0.1l-0.1,0c0,0,0,0,0,0l-0.1,0c-0.1,0-0.1-0.1-0.2-0.1c-0.3-0.2-0.5-0.4-0.7-0.6c-0.2-0.2-0.3-0.5-0.4-0.7
	c0-0.1-0.1-0.2-0.1-0.4c0,0,0-0.1,0-0.1c-0.8,0.5-1.6,1-2.4,1.4c-1.1,0.6-2.3,1.1-3.4,1.6c-2.3,1-4.7,1.9-7.1,2.6
	c-1.2,0.4-2.5,0.7-3.7,0.9c-0.6,0.1-1.3,0.2-2,0.2c-0.3,0-0.7,0-1,0c-0.4,0-0.7-0.1-1.1-0.2l-0.2,0l-0.2-0.1c-0.1,0-0.2-0.1-0.3-0.2
	c0,0-0.1-0.1-0.1-0.1c-3.4,1.2-6.9,2.4-10.4,3.4c-3.9,1.1-7.9,2.2-11.9,3c-1,0.2-2,0.4-3,0.6c-1,0.2-2,0.3-3.1,0.4
	c-1,0.1-2.1,0.2-3.1,0.2c-0.5,0-1.1,0-1.6-0.1c-0.5-0.1-1.1-0.1-1.7-0.3c-0.3-0.1-0.6-0.2-0.9-0.3c-0.3-0.1-0.6-0.3-0.9-0.6
	c-0.3-0.3-0.5-0.6-0.7-1c-0.1-0.4-0.2-0.8-0.2-1.1c0-0.4,0.1-0.7,0.2-1c0.1-0.3,0.2-0.6,0.4-0.8c0.1-0.3,0.3-0.5,0.4-0.7
	c0.1-0.1,0.2-0.2,0.2-0.3l0.1-0.2l0.1-0.2c0.2-0.3,0.4-0.5,0.7-0.8c0,0,0,0-0.1,0.1l-1.2,1c-0.4,0.3-0.8,0.6-1.2,0.9l-1.2,0.9
	l-0.6,0.5c-0.2,0.2-0.4,0.3-0.6,0.4l-1.3,0.9c-0.2,0.1-0.4,0.3-0.6,0.4l-0.6,0.4c-0.9,0.6-1.7,1.1-2.6,1.7l-1.3,0.8
	c-0.2,0.1-0.4,0.3-0.7,0.4l-0.7,0.4l-1.3,0.8c-0.4,0.3-0.9,0.5-1.3,0.8c-7.2,4-14.7,7.2-22.6,9.4c7.6-3,14.9-6.5,21.8-10.8
	c0.4-0.3,0.9-0.5,1.3-0.8l1.3-0.8c0.4-0.3,0.9-0.5,1.3-0.8l1.3-0.8c0.8-0.6,1.7-1.1,2.5-1.7l0.6-0.4c0.2-0.1,0.4-0.3,0.6-0.4
	l1.2-0.9c0.2-0.2,0.4-0.3,0.6-0.5l0.6-0.5l1.2-0.9c0.4-0.3,0.8-0.6,1.2-0.9l1.2-1c1.5-1.3,3.1-2.6,4.5-4c0.3-0.3,0.7-0.7,1-1.1
	c0.3-0.4,0.6-0.7,0.9-1.1c0.3-0.4,0.5-0.8,0.8-1.2l0.2-0.3l0.1-0.3c0.1-0.1,0.1-0.2,0.1-0.3l0.1-0.2c0-0.1,0-0.1,0.1-0.2
	c0.2-0.4,0.3-0.9,0.4-1.3c0-0.2,0.1-0.4,0.1-0.7c0-0.2,0-0.4,0-0.7c0-0.4,0-0.9-0.1-1.3c-0.1-0.4-0.2-0.8-0.4-1.2
	c-0.2-0.4-0.4-0.7-0.7-1.1c-0.3-0.3-0.6-0.6-1-0.9c-0.7-0.5-1.6-0.8-2.5-1c-0.9-0.2-1.9-0.3-2.8-0.3c-1,0-1.9,0.1-2.9,0.3
	c-0.5,0.1-1,0.2-1.5,0.3c-0.5,0.1-1,0.2-1.5,0.4c-1,0.2-1.9,0.5-2.9,0.8c-1.9,0.6-3.8,1.3-5.7,2c-3.8,1.5-7.4,3.4-10.8,5.5
	c0.4-0.3,0.8-0.6,1.3-0.9c-0.3,0.1-0.5,0.3-0.8,0.4c6.1-4.1,12-8.6,17.4-13.6l1-0.9l1-0.9l0.5-0.5l0.5-0.5l1-1
	c0.7-0.6,1.3-1.3,1.9-1.9c0.3-0.3,0.6-0.7,1-1c0.3-0.3,0.6-0.7,0.9-1c0.6-0.7,1.1-1.3,1.5-2.1c0.2-0.4,0.3-0.7,0.4-1.1
	c0.1-0.4,0.2-0.8,0.2-1.1c0-0.8-0.1-1.5-0.5-2.1c0-0.1-0.1-0.1-0.1-0.2c-0.1-0.1-0.1-0.1-0.2-0.2c-0.1-0.1-0.2-0.2-0.4-0.3
	c-0.3-0.2-0.6-0.3-1-0.4c-0.7-0.2-1.6-0.3-2.4-0.3c-0.8,0-1.7,0.1-2.5,0.3c-0.2,0-0.4,0.1-0.6,0.2c-0.1,0-0.2,0.1-0.3,0.1l-0.3,0.1
	l-1.3,0.4c-0.2,0.1-0.4,0.1-0.6,0.2l-0.6,0.2l-1.3,0.5c-3.4,1.3-6.8,2.7-10.1,4.3c-0.6,0.3-1.3,0.6-1.9,1c-0.5,4.7-1.4,9.3-2.6,13.9
	c-1.6,6-3.7,11.8-6.2,17.4c-2.6,5.6-5.6,11-9.1,16.1c-3.5,5.1-7.5,9.9-11.9,14.1c3.8-4.8,7.4-9.8,10.6-15c3.2-5.2,6.1-10.5,8.6-16.1
	c2.5-5.5,4.7-11.2,6.5-17c1.4-4.3,2.5-8.7,3.5-13.1c-0.4,0.2-0.8,0.4-1.2,0.6l-1.2,0.7c-0.8,0.5-1.6,0.9-2.4,1.4
	c-0.8,0.5-1.6,0.9-2.4,1.4c-3.2,1.9-6.2,3.9-9.3,6c2.8-2.4,5.8-4.6,8.8-6.8c0.4-0.3,0.8-0.5,1.1-0.8l1.2-0.8
	c0.4-0.3,0.8-0.5,1.2-0.8l1.2-0.7c1.1-0.7,2.3-1.4,3.4-2c0.2-0.9,0.4-1.9,0.6-2.8c-0.1,0.9-0.1,1.7-0.2,2.6c0.4-0.2,0.7-0.4,1.1-0.6
	l1.2-0.7l1.2-0.6c0.8-0.4,1.7-0.8,2.5-1.2c0.2-0.1,0.4-0.2,0.6-0.3l0.6-0.3l1.3-0.6c0.4-0.2,0.9-0.4,1.3-0.5
	c0.4-0.2,0.9-0.4,1.3-0.5l1.3-0.5l0.7-0.2c0.2-0.1,0.4-0.2,0.7-0.2l1.3-0.5l0.3-0.1c0.1,0,0.2-0.1,0.4-0.1c0.2-0.1,0.5-0.1,0.7-0.2
	c1-0.2,1.9-0.4,2.9-0.4c0.5,0,1,0,1.5,0.1c0.5,0.1,1,0.1,1.5,0.3c0.3,0.1,0.5,0.2,0.8,0.3c0.3,0.1,0.5,0.3,0.7,0.4
	c0.2,0.2,0.5,0.4,0.7,0.6c0.1,0.1,0.2,0.2,0.3,0.3c0.1,0.1,0.2,0.2,0.3,0.4c0.3,0.5,0.5,1,0.7,1.6c0.1,0.5,0.2,1.1,0.1,1.6
	c0,0.5-0.1,1.1-0.3,1.6c-0.2,0.5-0.4,1-0.6,1.5c-0.5,0.9-1.1,1.7-1.8,2.4c-0.3,0.4-0.7,0.7-1,1c-0.3,0.3-0.7,0.7-1,1
	c-0.7,0.7-1.3,1.3-2,1.9c-1.4,1.3-2.8,2.5-4.2,3.7c-2.8,2.4-5.8,4.6-8.8,6.6c0.1,0,0.2-0.1,0.3-0.2c1.9-0.9,3.8-1.7,5.7-2.4l0.4-0.1
	l0.4-0.1l0.7-0.2c0.2-0.1,0.5-0.2,0.7-0.2l0.7-0.2c0.5-0.1,1-0.3,1.5-0.4c0.5-0.1,1-0.3,1.5-0.4c1-0.2,2.1-0.4,3.1-0.4
	c1.1,0,2.2,0,3.2,0.2c1.1,0.2,2.2,0.6,3.1,1.2c0.5,0.3,0.9,0.7,1.3,1.1c0.4,0.4,0.7,0.9,1,1.4l0.2,0.4c0.1,0.1,0.1,0.3,0.2,0.4
	c0.1,0.1,0.1,0.3,0.1,0.4l0.1,0.2c0,0.1,0,0.1,0,0.2c0.1,0.6,0.2,1.1,0.2,1.7c0,0.3,0,0.6,0,0.9c0,0.3-0.1,0.6-0.1,0.8
	c-0.1,0.6-0.2,1.1-0.4,1.6c0,0.1,0,0.1-0.1,0.2l-0.1,0.2c-0.1,0.1-0.1,0.3-0.2,0.4l-0.2,0.4l-0.2,0.4c0,0.1-0.1,0.2-0.2,0.2
	c1.8-1.5,3.6-2.9,5.5-4.2c1.7-1.2,3.4-2.3,5.3-3.2c0.9-0.5,1.8-1,2.8-1.4c0.5-0.2,1-0.4,1.5-0.6c0.5-0.2,1-0.3,1.6-0.4
	c0.3-0.1,0.6-0.1,0.9-0.1c0.3,0,0.6,0,1,0.1l0.1,0.1c0,0,0.1,0,0.1,0.1c0.1,0.1,0.2,0.1,0.3,0.2c0,0,0.1,0.1,0.1,0.1
	c0,0,0.1,0.1,0.1,0.1c0.1,0.1,0.1,0.2,0.2,0.3c0,0.1,0,0.1,0.1,0.2c0,0.1,0,0.1,0,0.2c0,0.1,0,0.2,0,0.3c0,0.1,0,0.2,0,0.3
	c0,0.1,0,0.2,0,0.3c0,0.3-0.1,0.6-0.2,0.9c-0.1,0.3-0.2,0.5-0.4,0.8c-0.3,0.5-0.6,0.9-0.9,1.3c-0.7,0.8-1.4,1.6-2.1,2.3
	c-0.7,0.7-1.5,1.4-2.3,2.1c-0.8,0.7-1.6,1.3-2.4,2c-0.8,0.6-1.6,1.3-2.4,1.9c-0.8,0.6-1.6,1.2-2.5,1.8c-0.8,0.6-1.7,1.2-2.5,1.7
	c0.8-0.6,1.6-1.3,2.3-2c0.8-0.7,1.5-1.3,2.3-2c1.5-1.3,3-2.7,4.5-4.1c0.7-0.7,1.4-1.4,2.1-2.2c0.7-0.7,1.3-1.5,1.9-2.3
	c0.3-0.4,0.5-0.8,0.8-1.2c0.1-0.2,0.2-0.4,0.3-0.6c0.1-0.2,0.1-0.4,0.1-0.6c0,0,0-0.1,0-0.1c0,0,0-0.1,0-0.1c0,0,0-0.1,0-0.1
	c0,0,0,0,0,0c0,0,0,0,0,0c0,0,0,0,0,0c0,0,0,0,0,0c0,0,0,0,0,0c0,0,0,0,0,0c0,0,0,0,0,0c0,0,0,0,0,0c-0.1,0-0.3,0-0.5,0
	c-0.2,0-0.4,0.1-0.6,0.1c-0.4,0.1-0.9,0.2-1.3,0.4c-0.5,0.2-0.9,0.4-1.3,0.6c-0.9,0.4-1.8,0.9-2.6,1.4c-0.9,0.5-1.7,1-2.6,1.6
	c-0.8,0.5-1.7,1.1-2.5,1.7c-1.6,1.2-3.2,2.4-4.8,3.7c-1.5,1.3-3,2.6-4.4,4.1c-1.4,1.4-2.7,2.9-3.9,4.5l-0.1,0.1l-0.1,0.1
	c-0.1,0.1-0.1,0.2-0.2,0.3c-0.1,0.2-0.2,0.4-0.3,0.6c-0.2,0.4-0.3,0.8-0.4,1.1c0,0.1,0,0.3,0,0.4c0,0.1,0.1,0.2,0.2,0.3
	c0.2,0.2,0.5,0.4,0.9,0.5c0.4,0.1,0.9,0.2,1.3,0.3c0.5,0.1,0.9,0.1,1.4,0.1c1,0,2,0,3-0.1c1-0.1,2-0.2,3-0.3c1-0.1,2-0.3,3-0.4
	c4-0.7,8-1.5,11.9-2.4c3.5-0.8,7-1.7,10.6-2.6c-0.1-0.1-0.3-0.2-0.4-0.4c0,0,0-0.1-0.1-0.1l-0.1-0.1c0-0.1-0.1-0.1-0.1-0.2
	c0-0.1-0.1-0.1-0.1-0.2c0,0,0-0.1,0-0.1l0-0.1l0-0.2c0-0.1,0-0.1,0-0.2l0-0.3c0-0.4,0-0.7,0-1.1c0-0.3,0.1-0.7,0.1-1
	c0.1-0.7,0.3-1.3,0.4-1.9c0.2-0.6,0.4-1.2,0.6-1.9c0.4-1.2,0.8-2.4,1.3-3.6c0.5-1.2,1-2.3,1.5-3.5c1-2.3,2.1-4.6,3.3-6.8
	c1.1-2.2,2.3-4.5,3.6-6.6c0.6-1.1,1.3-2.2,1.9-3.3l1-1.6c0.3-0.5,0.7-1.1,1-1.6c-2,4.6-4.1,9.2-6.1,13.8l-0.8,1.7l-0.7,1.7
	c-0.5,1.2-1,2.3-1.5,3.5c-0.5,1.2-0.9,2.3-1.4,3.5c-0.4,1.2-0.9,2.3-1.3,3.5c-0.2,0.6-0.4,1.2-0.5,1.8c-0.2,0.6-0.3,1.2-0.4,1.7
	c-0.1,0.6-0.2,1.1-0.2,1.6l0,0.2c0,0,0,0.1,0,0.1l0,0.1l0,0c0,0,0,0,0,0c0,0,0,0,0,0c0,0,0,0,0,0l0,0c0,0,0,0,0,0c0,0,0,0,0.1,0.1
	c0,0,0.1,0,0.1,0.1l0.1,0l0.1,0c0.2,0.1,0.4,0.1,0.7,0.1c0.3,0,0.5,0,0.8,0c0.6,0,1.2-0.1,1.8-0.2c0.6-0.1,1.2-0.2,1.8-0.3
	c0.6-0.1,1.2-0.2,1.8-0.4c2.4-0.6,4.8-1.3,7.2-2.1c1.2-0.4,2.4-0.8,3.5-1.2c0.6-0.2,1.2-0.4,1.7-0.7c0.3-0.1,0.6-0.3,0.8-0.4
	c0,0,0-0.1,0-0.1c0-0.1,0-0.2,0-0.3l0-0.2l0-0.2c0-0.4,0-0.9,0-1.3c0-0.4,0.1-0.8,0.2-1.2c0.2-0.8,0.3-1.5,0.6-2.3
	c0.1-0.4,0.2-0.7,0.4-1.1c0.1-0.4,0.3-0.7,0.4-1.1c0.6-1.4,1.2-2.8,1.9-4.2c0.3-0.7,0.7-1.4,1.1-2c0.4-0.7,0.8-1.3,1.2-2
	c-0.9,2.9-1.9,5.8-2.7,8.6c-0.4,1.4-0.8,2.9-1,4.3c-0.1,0.7-0.2,1.4-0.1,2c0,0.3,0.1,0.6,0.2,0.8c0,0.1,0.1,0.2,0.1,0.3
	c0,0.1,0.1,0.1,0.1,0.1c0,0,0,0,0,0l0,0c0,0,0,0,0,0l0,0c0,0,0.1,0,0.2,0.1c0.1,0,0.3,0.1,0.4,0.1c0.3,0,0.6,0.1,1,0.1
	c0.7,0,1.4-0.1,2.1-0.2c1.4-0.2,2.9-0.5,4.3-0.9c2.7-0.7,5.5-1.4,8.2-2.2c-0.2-0.2-0.3-0.4-0.4-0.6c-0.3-0.4-0.4-0.9-0.5-1.4
	c-0.2-0.9-0.2-1.9,0-2.7c0.2-0.9,0.4-1.7,0.8-2.5c0.4-0.8,0.8-1.5,1.3-2.2c0.5-0.7,1-1.3,1.6-1.9c0.6-0.6,1.1-1.2,1.8-1.7
	c0.3-0.3,0.7-0.5,1-0.7c0.3-0.2,0.7-0.4,1.1-0.6c0.8-0.4,1.6-0.6,2.5-0.6c0.4,0,0.9,0.1,1.3,0.3c0.4,0.2,0.8,0.4,1.1,0.7
	c0.6,0.6,1,1.3,1.3,2.1c-0.2-0.3-0.5-0.6-0.7-0.9c-0.3-0.3-0.6-0.5-0.9-0.7c-0.6-0.4-1.3-0.5-2-0.4c-0.2,0-0.3,0.1-0.5,0.1
	c-0.2,0-0.3,0.1-0.5,0.2c-0.3,0.1-0.6,0.3-0.9,0.5c-0.3,0.2-0.6,0.4-0.9,0.6c-0.3,0.2-0.6,0.5-0.8,0.7c-0.3,0.3-0.5,0.5-0.8,0.8
	c-0.3,0.3-0.5,0.6-0.7,0.9c-0.5,0.6-0.9,1.2-1.3,1.8c-0.4,0.6-0.7,1.3-1,1.9c-0.3,0.7-0.5,1.3-0.6,2c-0.1,0.7-0.2,1.4,0,2
	c0.1,0.3,0.1,0.6,0.3,0.8c0.1,0.2,0.3,0.4,0.5,0.5c0.1,0.1,0.2,0.1,0.3,0.1c0,0,0.1,0,0.1,0c0,0,0,0,0,0l0,0l0.1,0
	c0.1,0,0.2,0,0.3,0.1c0.3,0.1,0.7,0.1,1,0.1c0.3,0,0.7,0,1.1,0c0.4,0,0.7-0.1,1.1-0.2c1.4-0.3,2.8-0.9,4.2-1.6
	c1.4-0.7,2.7-1.4,4.1-2.1l0-0.1c0-0.4,0-0.7,0-1.1c0-0.4,0.1-0.7,0.1-1c0.1-0.7,0.2-1.3,0.4-1.9c0.2-0.6,0.3-1.3,0.5-1.9
	c0.4-1.2,0.8-2.4,1.2-3.6c0.4-1.2,0.9-2.4,1.4-3.5c1-2.3,2-4.6,3.1-6.9c1.1-2.3,2.2-4.5,3.4-6.7c0.6-1.1,1.2-2.2,1.8-3.3l0.9-1.6
	c0.3-0.5,0.6-1.1,1-1.6c-1.9,4.7-3.8,9.3-5.7,13.9l-0.7,1.7l-0.7,1.7c-0.5,1.2-0.9,2.3-1.4,3.5c-0.4,1.2-0.9,2.3-1.3,3.5
	c-0.4,1.2-0.8,2.3-1.2,3.5c-0.2,0.6-0.3,1.2-0.5,1.8c-0.1,0.6-0.3,1.2-0.4,1.8c-0.1,0.6-0.1,1.2-0.1,1.6l0,0.2c0,0,0,0.1,0,0.1
	l0,0.1l0,0c0,0,0,0,0,0c0,0,0,0,0,0c0,0,0,0,0,0l0,0c0,0,0,0,0,0c0,0,0,0,0.1,0.1c0,0,0.1,0,0.1,0l0.1,0l0.1,0
	c0.2,0.1,0.4,0.1,0.7,0.1c0.3,0,0.5,0,0.8,0c0.6,0,1.2-0.1,1.8-0.2c0.6-0.1,1.2-0.2,1.8-0.4c0.6-0.1,1.2-0.3,1.8-0.4
	c2.4-0.6,4.8-1.4,7.1-2.2c1.2-0.4,2.3-0.9,3.5-1.3c0.6-0.2,1.2-0.5,1.7-0.7c0.5-0.2,0.9-0.4,1.3-0.6c0-0.1-0.1-0.2-0.1-0.3
	c-0.1-0.4-0.2-0.9-0.2-1.3c0-0.9,0.1-1.7,0.3-2.5c0.2-0.8,0.5-1.6,0.9-2.3c0.4-0.7,0.8-1.4,1.3-2c0.5-0.6,1-1.2,1.5-1.8
	c0.3-0.3,0.6-0.5,0.8-0.8c0.3-0.3,0.6-0.5,0.9-0.8c0.3-0.2,0.6-0.5,1-0.7c0.3-0.2,0.7-0.4,1.1-0.6c0.4-0.2,0.8-0.3,1.2-0.4
	c0.4-0.1,0.8-0.1,1.3-0.1c0.4,0,0.8,0.2,1.2,0.3c0.4,0.2,0.7,0.4,1,0.7c0.6,0.6,1,1.3,1.2,2c-0.2-0.3-0.4-0.6-0.7-0.9
	c-0.3-0.3-0.5-0.5-0.8-0.7c-0.6-0.4-1.3-0.6-1.9-0.5c-0.6,0-1.3,0.3-1.9,0.6c-0.6,0.3-1.1,0.8-1.6,1.3c-0.3,0.2-0.5,0.5-0.8,0.8
	c-0.2,0.3-0.5,0.5-0.7,0.8c-0.5,0.5-0.9,1.1-1.3,1.7c-0.4,0.6-0.8,1.2-1.1,1.8c-0.3,0.6-0.6,1.3-0.7,1.9c-0.2,0.6-0.3,1.3-0.3,1.9
	c0,0.6,0.2,1.2,0.4,1.7c0.1,0.2,0.3,0.4,0.5,0.5c0.1,0.1,0.2,0.1,0.3,0.2l0,0c0,0,0,0,0.1,0l0.1,0c0.1,0,0.2,0,0.2,0.1
	c0.6,0.2,1.3,0.3,2,0.2c1.4,0,2.8-0.4,4.1-1c1.2-0.5,2.3-1.2,3.5-1.9c0-0.1,0-0.2,0-0.3c0-0.3,0-0.6,0-0.9c0-0.3,0-0.6,0.1-0.8
	c0.1-1.1,0.4-2.1,0.7-3.1c0.3-1,0.7-2,1.1-2.9c0.4-0.9,0.8-1.9,1.3-2.8c0.2-0.5,0.5-0.9,0.7-1.3c0.3-0.4,0.5-0.9,0.8-1.3
	c-0.1,0.5-0.2,1-0.3,1.5c-0.1,0.5-0.2,1-0.3,1.5c-0.2,1-0.5,2-0.7,2.9c-0.2,1-0.5,1.9-0.7,2.9c-0.2,1-0.4,1.9-0.6,2.8
	c-0.1,0.5-0.1,0.9-0.1,1.3c0,0.1,0,0.2,0,0.3c0,0,0,0.1,0,0.1c0,0,0,0,0,0.1l0,0c0,0,0,0,0,0c0.1,0.1,0.2,0.1,0.4,0.1
	c0.2,0,0.4,0.1,0.6,0.1c0.4,0,0.9,0,1.4-0.1c1-0.1,1.9-0.3,2.9-0.5c0.5-0.1,1-0.2,1.5-0.3l0.9-0.2c-0.1-0.1-0.2-0.2-0.3-0.3
	c-0.3-0.3-0.4-0.7-0.5-1.1c-0.1-0.4-0.1-0.8-0.1-1.1c0-0.7,0.1-1.5,0.2-2.2c0.3-1.4,0.8-2.8,1.3-4.1c0.5-1.3,1.1-2.6,1.8-3.9
	c-0.5,1.3-1,2.6-1.4,4c-0.2,0.7-0.4,1.3-0.6,2c-0.2,0.7-0.3,1.4-0.4,2.1c-0.1,0.7-0.2,1.4-0.1,2c0,0.3,0.1,0.7,0.2,1
	c0.1,0.3,0.2,0.6,0.4,0.8c0.2,0.2,0.4,0.3,0.7,0.4c0.3,0.1,0.6,0.1,0.9,0.1c0.6,0,1.3-0.3,1.9-0.5c0.6-0.3,1.2-0.6,1.8-0.9
	c0.6-0.4,1.2-0.7,1.7-1.1c0.9-0.6,1.7-1.3,2.6-2c0.2-0.9,0.4-1.8,0.7-2.8c0.1-0.4,0.2-0.7,0.3-1.1c0.1-0.4,0.2-0.7,0.4-1
	c0.3-0.7,0.6-1.4,0.9-2c0.7-1.3,1.4-2.6,2.3-3.7c0.4-0.6,0.9-1.1,1.4-1.7c0.5-0.5,1.1-1,1.7-1.5c0.3-0.2,0.6-0.5,1-0.7
	c0.3-0.2,0.7-0.4,1.2-0.5c0.2-0.1,0.5-0.1,0.8-0.1c0.3,0,0.6,0.1,0.9,0.3c0.2,0.1,0.3,0.2,0.4,0.4c0.1,0.1,0.2,0.3,0.2,0.4
	c0.1,0.3,0.1,0.5,0.1,0.8c0,0.2,0,0.4,0,0.7c0,0.2-0.1,0.4-0.1,0.6c-0.1,0.4-0.3,0.8-0.5,1.1c-0.3,0.7-0.7,1.3-1.2,1.9
	c-0.8,1.2-1.8,2.3-2.7,3.4c-1,1.1-2,2.1-3,3.1c-0.9,0.9-1.8,1.7-2.8,2.5c-0.1,0.6-0.2,1.2-0.4,1.8c-0.3,1.4-0.5,2.8-0.8,4.2
	c-0.1,0.5-0.2,1.1-0.3,1.6c0.4-0.1,0.8-0.2,1.2-0.4c2.8-0.8,5.6-1.5,8.5-2.3c5.3-1.3,10.6-2.5,15.9-3.5c-0.1-0.1-0.1-0.1-0.2-0.2
	c-0.6-0.6-1-1.3-1.4-2c-0.3-0.7-0.6-1.5-0.7-2.3c-0.2-1.6,0-3.2,0.4-4.6c0.5-1.5,1.2-2.9,2.2-4.1c0.5-0.6,1.1-1.1,1.7-1.6
	c0.6-0.5,1.2-0.9,1.9-1.3c1.3-0.8,2.6-1.5,4-2.1c1.4-0.6,2.8-1.1,4.3-1.4c0.7-0.1,1.5-0.2,2.3-0.2c0.4,0,0.8,0.1,1.1,0.2
	C508.3,285.9,508.6,286.2,508.9,286.5z M468.6,301.5C468.6,301.6,468.6,301.6,468.6,301.5c1.5-1.3,2.9-2.7,4.2-4.2
	c0.9-1.1,1.8-2.1,2.5-3.3c0.4-0.6,0.7-1.1,1-1.7c0.1-0.3,0.3-0.6,0.3-0.9c0-0.1,0.1-0.3,0.1-0.4c0-0.1,0-0.3,0-0.4
	c0-0.1,0-0.2,0-0.3c0,0,0,0,0,0c0,0,0,0-0.1,0c-0.1,0-0.2,0-0.3,0.1c-0.2,0.1-0.5,0.2-0.8,0.4c-0.3,0.2-0.5,0.3-0.8,0.5
	c-0.5,0.4-1,0.9-1.4,1.4c-0.5,0.5-0.9,1-1.3,1.6c-0.8,1.1-1.5,2.3-2.1,3.5c-0.3,0.6-0.6,1.2-0.8,1.9c-0.1,0.3-0.2,0.6-0.3,1
	C468.8,300.9,468.7,301.2,468.6,301.5z M464.2,313c-1.5,0.5-3,1-4.5,1.5c-2.7,1-5.5,2-8.2,3.1c-2.7,1.1-5.3,2.3-7.9,3.6
	c-1.3,0.7-2.6,1.3-3.8,2.1c-1.3,0.7-2.5,1.5-3.7,2.3c-1.2,0.8-2.3,1.7-3.4,2.6c-0.5,0.5-1,1-1.5,1.5c-0.2,0.3-0.5,0.5-0.7,0.8
	c-0.1,0.1-0.2,0.3-0.3,0.4c0,0.1-0.1,0.1-0.1,0.2c0,0,0,0.1-0.1,0.1l0,0l0,0c0,0,0,0,0,0l0,0.1c-0.6,1.1-1,2.4-1,3.6
	c0,1.2,0.5,2.4,1.4,3.4c0.8,1,1.9,1.7,3.1,2.3c0.6,0.3,1.2,0.5,1.9,0.7c0.6,0.2,1.3,0.4,2,0.5c1.3,0.3,2.7,0.4,4.1,0.5
	c1.4,0.1,2.8,0.1,4.1,0c0.3,0,0.7,0,1-0.1c0.2,0,0.4,0,0.5,0c0.2,0,0.3,0,0.5-0.1c0.3,0,0.6-0.1,1-0.2c0.3-0.1,0.6-0.2,0.9-0.3
	c1.2-0.4,2.4-1.1,3.4-1.9c1-0.8,1.9-1.8,2.7-2.9c0.8-1.1,1.5-2.3,2.2-3.5c0.6-1.2,1.2-2.5,1.7-3.8c0.5-1.3,1-2.6,1.4-3.9
	c0.9-2.7,1.6-5.4,2.2-8.1C463.5,316.1,463.9,314.6,464.2,313z M562.9,125.4C562.9,125.3,562.9,125.3,562.9,125.4
	C562.9,125.3,562.9,125.3,562.9,125.4L562.9,125.4z M628.8,89.2c0,0.1,0.1,0.2,0.1,0.3c0,0.1,0,0.2,0,0.3c-0.1,0.2-0.2,0.3-0.3,0.4
	c-0.2,0.2-0.5,0.4-0.7,0.6c-0.5,0.4-1,0.7-1.6,1c-1.1,0.6-2.1,1.2-3.1,1.9c1-0.7,2-1.4,3.1-2.1c0.5-0.3,1-0.7,1.5-1
	c0.2-0.2,0.5-0.4,0.7-0.6c0.1-0.1,0.2-0.2,0.2-0.4c0-0.1,0-0.2,0-0.3c-0.1-0.1-0.2-0.2-0.3-0.3c-0.1-0.1-0.2-0.1-0.4-0.2
	c-0.3-0.1-0.6-0.1-0.9-0.1c-0.6,0-1.2,0.1-1.8,0.2c-1.2,0.3-2.3,0.7-3.4,1.2c-1.1,0.5-2.2,1.1-3.2,1.8c-0.5,0.3-1,0.7-1.5,1.1
	c-0.5,0.4-0.9,0.8-1.2,1.3c-0.7,0.9-1.3,2-1.6,3.1c-0.3,1.1-0.4,2.3-0.2,3.5c0.2,1.1,0.7,2.2,1.5,3c0.8,0.8,1.8,1.4,2.9,1.8
	c1.1,0.5,2.3,0.8,3.5,1.3c0.6,0.2,1.2,0.5,1.7,0.8c0.6,0.3,1.1,0.7,1.6,1.2c1,0.9,1.6,2.3,1.7,3.7c0,0.7-0.1,1.4-0.3,2
	c-0.2,0.6-0.5,1.2-0.8,1.8c-0.7,1.1-1.5,2.1-2.4,3c-0.5,0.4-0.9,0.9-1.4,1.3c-0.1,0.1-0.2,0.2-0.4,0.3l-0.4,0.3
	c-0.2,0.2-0.5,0.4-0.7,0.6c-2,1.5-4,2.9-6.1,4.2c-2.1,1.3-4.3,2.5-6.4,3.7c-4.4,2.3-8.9,4.3-13.5,6.1c-4.6,1.8-9.3,3.3-14.1,4.6
	c-4.7,1.3-9.5,2.5-14.3,3.6c-4.8,1.1-9.6,2.1-14.4,3l-14.5,2.8l-14.5,2.8l-7.2,1.4l-7.2,1.4c-19.3,3.7-38.6,7.4-57.9,10.9
	c19.2-4.2,38.4-8.2,57.7-12.2l7.2-1.5l7.2-1.5l14.4-2.9l14.4-2.9c4.8-1,9.6-2,14.4-3c4.8-1.1,9.5-2.2,14.2-3.6
	c4.7-1.3,9.4-2.8,13.9-4.5c4.6-1.7,9.1-3.6,13.4-5.9c2.2-1.1,4.3-2.3,6.4-3.6c2.1-1.3,4.1-2.6,6.1-4c0.2-0.2,0.5-0.4,0.7-0.5
	l0.4-0.3c0.1-0.1,0.2-0.2,0.4-0.3c0.5-0.4,0.9-0.8,1.4-1.2c0.9-0.8,1.6-1.7,2.3-2.7c0.6-1,1-2.1,1-3.1c0-1.1-0.5-2.1-1.3-2.9
	c-0.8-0.8-1.8-1.3-2.9-1.8c-1.1-0.5-2.3-0.8-3.4-1.3c-0.6-0.3-1.2-0.5-1.7-0.9c-0.5-0.3-0.9-0.6-1.3-1c-4.3,1-8.7,2.1-13,3.3
	c-2.7,0.8-5.5,1.6-8.2,2.5c-0.3,1.6-0.6,3.2-1,4.8c-0.5,2.3-1.1,4.6-1.9,6.8c-0.7,2.2-1.6,4.5-2.7,6.6c-0.6,1.1-1.2,2.1-1.9,3.1
	c-0.7,1-1.6,1.9-2.6,2.7c-1,0.8-2.1,1.4-3.3,1.8c-0.6,0.2-1.2,0.3-1.9,0.4c-0.2,0-0.3,0-0.5,0c-0.2,0-0.3,0-0.4,0
	c-0.3,0-0.6,0-0.9,0c-1.2,0-2.4,0-3.6-0.1c-1.2-0.1-2.4-0.2-3.6-0.5c-1.2-0.3-2.4-0.6-3.5-1.2c-1.1-0.5-2.2-1.3-3-2.3
	c-0.4-0.5-0.8-1.1-1-1.7c-0.2-0.6-0.4-1.3-0.4-1.9c0-0.7,0.1-1.3,0.3-1.9c0.2-0.6,0.4-1.2,0.7-1.7c0-0.1,0-0.1,0.1-0.1
	c0,0,0-0.1,0.1-0.1c0-0.1,0.1-0.1,0.1-0.2c0.1-0.1,0.2-0.3,0.3-0.4c0.1-0.1,0.2-0.2,0.3-0.4l0.3-0.4c0.1-0.1,0.2-0.2,0.3-0.3
	l0.2-0.2l0.2-0.2l0.3-0.3l0.4-0.3c0.9-0.8,1.9-1.5,2.9-2.2c2-1.3,4.2-2.5,6.3-3.6c4.4-2.1,8.9-3.8,13.5-5.3c1.3-0.4,2.7-0.8,4-1.2
	c0.2-0.7,0.3-1.5,0.5-2.2l0.6-3c-0.4,0.3-0.7,0.6-1.1,0.8c-1,0.6-2,1.2-3.2,1.7c-0.3,0.1-0.6,0.2-0.9,0.3c-0.3,0.1-0.6,0.1-0.9,0.1
	c-0.3,0-0.7,0-1-0.1c-0.2-0.1-0.4-0.2-0.5-0.3c-0.6,0.4-1.2,0.8-1.8,1.1c-0.8,0.4-1.6,0.7-2.4,0.9c-0.4,0.1-0.9,0.2-1.3,0.2
	c-0.2,0-0.5,0-0.7,0c-0.3,0-0.5-0.1-0.9-0.2c-0.2-0.1-0.3-0.2-0.5-0.3c-0.2-0.2-0.3-0.4-0.4-0.6l0-0.1l0-0.1l0-0.1
	c0-0.1,0-0.1,0-0.2c-0.3,0.3-0.6,0.7-0.9,1c-0.5,0.4-1,0.8-1.5,1.2c-0.5,0.3-1.1,0.7-1.7,0.9c-0.6,0.2-1.3,0.4-1.9,0.5
	c-0.7,0.1-1.4,0.1-2-0.1c-0.1,0-0.2,0-0.3-0.1c-0.1,0-0.2,0-0.3-0.1c-0.2-0.1-0.4-0.1-0.6-0.3c-0.4-0.2-0.7-0.5-0.9-0.9
	c-0.2-0.2-0.3-0.5-0.4-0.8c-0.2,0.1-0.4,0.3-0.5,0.4c-0.3,0.2-0.6,0.4-0.9,0.6c-0.6,0.4-1.2,0.7-1.9,1c-0.6,0.3-1.3,0.6-1.9,1
	c-0.6,0.3-1.3,0.6-2,0.9c-0.7,0.3-1.3,0.5-2,0.8c-0.7,0.3-1.4,0.5-2,0.7c-0.7,0.2-1.4,0.4-2.1,0.6c-0.7,0.2-1.4,0.3-2.2,0.4
	c-0.4,0-0.8,0-1.2,0c-0.2,0-0.4-0.1-0.7-0.1c-0.2-0.1-0.5-0.2-0.8-0.4c-0.1-0.1-0.2-0.2-0.3-0.4c0-0.1-0.1-0.2-0.1-0.2
	c0,0,0-0.1,0-0.1c0,0,0-0.1,0-0.1c0-0.1,0-0.3,0-0.4c-0.9,0.9-1.9,1.7-2.9,2.4c-1.1,0.8-2.2,1.4-3.6,1.9c-0.3,0.1-0.7,0.2-1,0.3
	c-0.3,0.1-0.7,0.1-1.1,0.1c-0.4,0-0.7,0-1.1,0c-0.1,0-0.2,0-0.3,0l-0.1,0c0,0,0,0-0.1,0c-0.1,0-0.1,0-0.2,0
	c-0.2-0.1-0.4-0.2-0.7-0.3c-0.2-0.1-0.4-0.3-0.5-0.4c-0.4,0.2-0.8,0.5-1.2,0.7c-0.6,0.3-1.1,0.6-1.7,0.8c-1.1,0.5-2.3,1-3.5,1.4
	c-1.2,0.4-2.4,0.8-3.7,1c-0.6,0.1-1.3,0.2-2,0.2c-0.1,0-0.2,0-0.3,0l-0.3,0c-0.2,0-0.4,0-0.5-0.1c-0.1,0-0.2,0-0.3-0.1
	c-0.1,0-0.2,0-0.3-0.1c-0.1,0-0.2-0.1-0.3-0.1c-0.1,0-0.2-0.1-0.3-0.2c-0.2-0.1-0.4-0.3-0.6-0.5c-0.1-0.2-0.2-0.4-0.3-0.6
	c0-0.1-0.1-0.2-0.1-0.4c-0.6,0.4-1.3,0.8-1.9,1.1c-0.9,0.5-1.9,0.9-2.8,1.4c-1.9,0.8-3.9,1.6-5.9,2.2c-1,0.3-2,0.6-3.1,0.8
	c-0.5,0.1-1.1,0.2-1.6,0.2c-0.3,0-0.6,0-0.9,0c-0.3,0-0.6-0.1-1-0.2l-0.1,0l-0.1-0.1c-0.1,0-0.2-0.1-0.3-0.1c-0.1,0-0.1-0.1-0.2-0.1
	c-2.8,1-5.6,2-8.5,2.8c-3.2,0.9-6.5,1.8-9.8,2.5c-1.7,0.3-3.3,0.6-5,0.8c-0.8,0.1-1.7,0.2-2.6,0.2c-0.9,0-1.8,0-2.7-0.3
	c-0.2-0.1-0.5-0.2-0.7-0.3c-0.2-0.1-0.5-0.3-0.7-0.5c-0.2-0.2-0.4-0.5-0.6-0.8c-0.1-0.3-0.1-0.7-0.1-1c0-0.6,0.3-1.1,0.5-1.5
	c0.1-0.2,0.2-0.4,0.4-0.6c0.1-0.1,0.1-0.2,0.2-0.3l0.1-0.1l0.1-0.1c1-1.4,2.2-2.7,3.4-3.9c0.5-0.5,1-1,1.6-1.5
	c-0.2,0.1-0.3,0.3-0.5,0.4l-1.6,1.2c-0.5,0.4-1,0.8-1.6,1.2l-1.6,1.2l-0.8,0.6c-0.3,0.2-0.5,0.4-0.8,0.6l-1.6,1.2
	c-0.3,0.2-0.5,0.4-0.8,0.6l-0.8,0.6c-1.1,0.7-2.2,1.5-3.3,2.2l-1.7,1.1c-0.3,0.2-0.6,0.4-0.8,0.5l-0.9,0.5l-1.7,1
	c-0.6,0.3-1.2,0.7-1.7,1c-9.3,5.3-19.1,9.5-29.2,12.5c9.9-3.7,19.5-8.3,28.6-13.7c0.6-0.3,1.1-0.7,1.7-1l1.7-1.1
	c0.6-0.4,1.1-0.7,1.7-1.1l1.6-1.1c1.1-0.7,2.2-1.5,3.3-2.2l0.8-0.6c0.3-0.2,0.5-0.4,0.8-0.6l1.6-1.2c0.3-0.2,0.5-0.4,0.8-0.6
	l0.8-0.6l1.6-1.2c0.5-0.4,1-0.8,1.5-1.2l1.5-1.2c2-1.7,4.1-3.4,5.9-5.2c0.5-0.5,0.9-0.9,1.3-1.4c0.4-0.5,0.8-1,1.2-1.5
	c0.7-1,1.4-2.1,1.8-3.3c0.2-0.6,0.4-1.2,0.5-1.8c0.1-0.3,0.1-0.6,0.1-0.9c0-0.3,0-0.6,0-0.9c0-0.6-0.1-1.2-0.2-1.8
	c0-0.1,0-0.1,0-0.2l-0.1-0.2c0-0.1-0.1-0.3-0.1-0.4l-0.2-0.4l-0.2-0.4c-0.3-0.5-0.6-1-1-1.5c-0.4-0.4-0.8-0.8-1.3-1.2
	c-1-0.7-2.2-1.1-3.4-1.4c-1.2-0.3-2.5-0.3-3.8-0.3c-1.3,0-2.6,0.2-3.8,0.4c-0.6,0.1-1.3,0.2-1.9,0.4c-0.6,0.2-1.3,0.3-1.9,0.5
	c-1.3,0.3-2.5,0.7-3.8,1.1c-2.5,0.8-5,1.7-7.4,2.7c-4.9,2-9.6,4.5-14,7.4c0.7-0.5,1.4-1,2.1-1.5c-0.5,0.3-1,0.6-1.5,0.9
	c8.1-5.2,15.7-11,22.9-17.4l1.3-1.2l1.3-1.2l0.7-0.6l0.7-0.6l1.3-1.2c0.9-0.8,1.7-1.7,2.6-2.5c0.8-0.9,1.7-1.7,2.5-2.6
	c0.8-0.9,1.5-1.8,2-2.8c0.3-0.5,0.5-1,0.6-1.5c0.1-0.5,0.2-1,0.3-1.6c0-1.1-0.2-2.1-0.7-2.9c-0.1-0.1-0.1-0.2-0.2-0.3
	c-0.1-0.1-0.2-0.2-0.2-0.3c-0.2-0.2-0.3-0.3-0.6-0.5c-0.2-0.1-0.4-0.3-0.7-0.4c-0.1-0.1-0.2-0.1-0.4-0.1c-0.1,0-0.2-0.1-0.4-0.1
	c-0.5-0.2-1.1-0.3-1.6-0.3c-0.6-0.1-1.1-0.1-1.7-0.1c-1.1,0-2.3,0.2-3.4,0.4c-0.3,0.1-0.6,0.1-0.8,0.2c-0.1,0-0.3,0.1-0.4,0.1
	l-0.4,0.1l-1.7,0.6c-0.3,0.1-0.6,0.2-0.8,0.3l-0.8,0.3l-1.7,0.6c-4.5,1.6-8.8,3.6-13.1,5.7c-0.8,0.4-1.6,0.9-2.4,1.3
	c-0.8,6.1-2,12.2-3.6,18.2c-2.1,7.7-4.8,15.3-8.2,22.6c-3.3,7.3-7.3,14.3-11.8,21c-4.5,6.6-9.6,12.9-15.2,18.6
	c5.1-6.2,9.8-12.6,14-19.3c4.3-6.7,8-13.7,11.4-20.9c3.3-7.2,6.1-14.7,8.4-22.3c1.8-5.8,3.2-11.6,4.4-17.6c-3.3,1.7-6.5,3.5-9.6,5.5
	c-4.1,2.5-8.1,5.2-12,7.9c3.7-3.1,7.6-5.9,11.6-8.7c0.5-0.3,1-0.7,1.5-1l1.5-1c0.5-0.3,1-0.6,1.5-1l1.5-1c1.4-0.9,2.9-1.7,4.3-2.5
	c0.3-1.3,0.5-2.7,0.8-4c-0.1,1.3-0.3,2.5-0.4,3.8c0.5-0.3,1.1-0.6,1.6-0.9l1.6-0.9l1.6-0.8c1.1-0.6,2.2-1.1,3.3-1.6
	c0.3-0.1,0.5-0.3,0.8-0.4l0.8-0.4l1.7-0.7c0.6-0.2,1.1-0.5,1.7-0.7c0.6-0.2,1.1-0.5,1.7-0.7l1.7-0.6l0.9-0.3
	c0.3-0.1,0.6-0.2,0.9-0.3l1.7-0.6l0.4-0.1c0.1,0,0.3-0.1,0.5-0.1c0.3-0.1,0.6-0.2,0.9-0.2c1.2-0.3,2.5-0.5,3.7-0.5
	c0.6,0,1.3,0,1.9,0.1c0.6,0.1,1.3,0.2,1.9,0.4c0.2,0,0.3,0.1,0.5,0.2c0.2,0.1,0.3,0.1,0.5,0.2c0.3,0.1,0.6,0.3,0.9,0.5
	c0.3,0.2,0.6,0.4,0.8,0.7c0.1,0.1,0.2,0.3,0.4,0.4c0.1,0.1,0.2,0.3,0.3,0.4c0.4,0.6,0.7,1.3,0.8,1.9c0.2,0.7,0.2,1.4,0.2,2
	c0,0.7-0.1,1.3-0.3,2c-0.2,0.6-0.5,1.2-0.8,1.8c-0.6,1.1-1.4,2.2-2.2,3.1c-0.8,0.9-1.7,1.8-2.6,2.6c-0.9,0.8-1.7,1.7-2.6,2.5
	c-1.8,1.6-3.6,3.3-5.4,4.8c-4.5,3.8-9.3,7.3-14.2,10.6c1.1-0.6,2.3-1.2,3.4-1.7c2.4-1.1,4.9-2.1,7.4-3l0.5-0.2l0.5-0.2l1-0.3
	c0.3-0.1,0.6-0.2,1-0.3l1-0.3c0.6-0.2,1.3-0.4,1.9-0.5c0.6-0.2,1.3-0.3,2-0.5c1.3-0.3,2.7-0.4,4-0.5c1.4-0.1,2.8,0,4.1,0.3
	c1.4,0.3,2.7,0.8,4,1.6c0.6,0.4,1.2,0.9,1.7,1.4c0.5,0.5,0.9,1.1,1.2,1.8l0.2,0.5c0.1,0.2,0.1,0.3,0.2,0.5c0.1,0.2,0.1,0.3,0.2,0.5
	l0.1,0.3c0,0.1,0,0.2,0.1,0.3c0.2,0.7,0.2,1.4,0.2,2.2c0,0.4,0,0.7,0,1.1c0,0.4-0.1,0.7-0.1,1.1c-0.1,0.7-0.3,1.4-0.5,2.1
	c-0.2,0.7-0.5,1.3-0.9,1.9c-0.3,0.6-0.7,1.2-1.1,1.8c-0.4,0.6-0.8,1.1-1.3,1.6c-0.5,0.5-0.9,1-1.4,1.5c-0.7,0.7-1.4,1.3-2.1,1.9
	c0.9-0.7,1.8-1.4,2.8-2c1.4-1,2.8-1.9,4.3-2.7c0.8-0.4,1.5-0.8,2.3-1.1c0.8-0.3,1.6-0.6,2.5-0.8c0.2,0,0.5-0.1,0.7-0.1
	c0.3,0,0.5,0,0.8,0.1c0.1,0,0.2,0.1,0.2,0.1c0.1,0,0.2,0.1,0.2,0.2c0,0,0.1,0.1,0.1,0.1c0,0,0.1,0.1,0.1,0.1
	c0.1,0.1,0.1,0.2,0.2,0.3c0,0.1,0.1,0.2,0.1,0.3c0,0.1,0,0.2,0,0.2c0,0.1,0,0.2,0,0.2c0,0.1,0,0.1,0,0.2c-0.1,0.6-0.3,1-0.5,1.4
	c-0.2,0.4-0.5,0.8-0.8,1.1c-0.5,0.7-1.1,1.3-1.7,1.9c-0.6,0.6-1.2,1.2-1.9,1.7c-1.3,1.1-2.6,2.1-3.9,3.1c-0.7,0.5-1.4,1-2,1.5
	c-0.7,0.5-1.4,1-2.1,1.4c0.6-0.5,1.3-1.1,1.9-1.6c0.6-0.5,1.3-1.1,1.9-1.6c1.3-1.1,2.5-2.2,3.7-3.4c0.6-0.6,1.2-1.2,1.7-1.8
	c0.6-0.6,1.1-1.2,1.5-1.9c0.2-0.3,0.4-0.7,0.6-1c0.1-0.2,0.2-0.3,0.2-0.5c0.1-0.2,0.1-0.3,0.1-0.5c0,0,0-0.1,0-0.1l0-0.1
	c0,0,0-0.1,0-0.1c0,0,0,0,0,0c0,0,0,0,0,0c0,0,0,0,0,0c0,0,0,0,0,0c0,0,0,0-0.1,0c-0.1,0-0.2,0-0.4,0c-0.2,0-0.3,0-0.5,0.1
	c-0.7,0.2-1.5,0.5-2.2,0.8c-0.7,0.3-1.5,0.7-2.2,1.1c-1.4,0.8-2.8,1.7-4.1,2.7c-1.3,1-2.6,2-3.9,3c-1.3,1.1-2.5,2.2-3.6,3.3
	c-1.2,1.2-2.2,2.4-3.2,3.7l-0.1,0.1l-0.1,0.1c-0.1,0.1-0.1,0.2-0.2,0.2c-0.1,0.2-0.2,0.3-0.3,0.5c-0.2,0.3-0.3,0.6-0.3,0.9
	c0,0.1,0,0.2,0,0.3c0,0.1,0.1,0.1,0.1,0.2c0.1,0.1,0.4,0.3,0.8,0.4c0.7,0.2,1.5,0.3,2.3,0.3c0.8,0,1.6,0,2.4-0.1
	c0.8-0.1,1.6-0.2,2.5-0.3c0.8-0.1,1.6-0.2,2.5-0.4c0.8-0.1,1.6-0.3,2.5-0.4c0.8-0.2,1.6-0.3,2.5-0.5c1.6-0.3,3.3-0.7,4.9-1.1
	c2.9-0.6,5.7-1.4,8.6-2.1c-0.1-0.1-0.2-0.2-0.3-0.3c0-0.1-0.1-0.1-0.1-0.2c0-0.1-0.1-0.1-0.1-0.2c0-0.1,0-0.1-0.1-0.2
	c0,0,0-0.1,0-0.1l0-0.1c0-0.1,0-0.2,0-0.3l0-0.2c0-0.6,0-1.2,0.1-1.7c0.1-0.5,0.2-1.1,0.4-1.6c0.1-0.5,0.3-1,0.5-1.5
	c0.3-1,0.7-2,1.1-3c0.4-1,0.8-1.9,1.2-2.9c0.8-1.9,1.8-3.8,2.7-5.6c0.9-1.8,1.9-3.7,3-5.5c0.5-0.9,1-1.8,1.6-2.7l0.8-1.3
	c0.3-0.4,0.6-0.9,0.8-1.3c-1.6,3.8-3.3,7.6-5,11.3c-0.8,1.9-1.6,3.8-2.4,5.7c-0.4,0.9-0.8,1.9-1.1,2.9c-0.4,1-0.7,1.9-1,2.9
	c-0.3,1-0.6,1.9-0.8,2.9c-0.1,0.5-0.1,0.9-0.1,1.3l0,0.1c0,0,0,0.1,0,0.1l0,0c0,0,0,0,0,0c0,0,0,0,0,0c0,0,0,0,0.1,0l0,0l0.1,0
	c0.2,0.1,0.4,0.1,0.6,0.1c0.2,0,0.4,0,0.7,0c0.5,0,1-0.1,1.5-0.1c0.5-0.1,1-0.2,1.5-0.2c0.5-0.1,1-0.2,1.5-0.3c2-0.5,4-1,5.9-1.7
	c1-0.3,1.9-0.6,2.9-1c0.5-0.2,1-0.4,1.4-0.6c0.2-0.1,0.4-0.2,0.6-0.3c0-0.2-0.1-0.4-0.1-0.7c0-0.4,0-0.7,0-1.1c0-0.3,0.1-0.7,0.1-1
	c0.1-0.6,0.3-1.3,0.5-1.9c0.2-0.6,0.4-1.2,0.6-1.8c0.5-1.2,1-2.3,1.6-3.4c0.3-0.6,0.6-1.1,0.9-1.7c0.3-0.5,0.6-1.1,1-1.6
	c-0.7,2.4-1.5,4.8-2.2,7.1c-0.3,1.2-0.6,2.4-0.8,3.5c-0.1,0.6-0.1,1.2-0.1,1.7c0,0.3,0.1,0.5,0.1,0.7c0,0.1,0.1,0.1,0.1,0.2
	c0,0,0.1,0.1,0.1,0.1c0,0,0.1,0.1,0.2,0.1c0.1,0,0.1,0,0.2,0c0.1,0,0.1,0,0.2,0c0.1,0,0.2,0,0.4,0l0.2,0c0.1,0,0.1,0,0.2,0
	c0.6,0,1.1-0.1,1.7-0.1c1.2-0.2,2.4-0.4,3.6-0.7c2.2-0.5,4.4-1.2,6.7-1.7c-0.1-0.1-0.2-0.3-0.3-0.4c-0.2-0.4-0.4-0.8-0.4-1.2
	c-0.2-0.8-0.1-1.5,0-2.3c0.3-1.4,0.9-2.7,1.7-3.8c0.4-0.6,0.8-1.1,1.3-1.6c0.5-0.5,0.9-0.9,1.5-1.4c0.5-0.4,1.1-0.8,1.7-1.1
	c0.6-0.3,1.4-0.5,2.1-0.5c0.4,0,0.7,0.1,1.1,0.2c0.3,0.1,0.6,0.3,0.9,0.6c0.5,0.5,0.8,1.1,1,1.7c-0.2-0.3-0.4-0.5-0.6-0.7
	c-0.2-0.2-0.5-0.4-0.7-0.6c-0.5-0.3-1.1-0.4-1.6-0.4c-0.6,0.1-1.1,0.3-1.6,0.6c-0.5,0.3-0.9,0.7-1.4,1.1c-0.2,0.2-0.4,0.4-0.6,0.7
	c-0.2,0.2-0.4,0.5-0.6,0.7c-0.4,0.5-0.7,1-1.1,1.5c-0.3,0.5-0.6,1-0.8,1.6c-0.2,0.5-0.4,1.1-0.5,1.6c-0.1,0.5-0.1,1.1,0,1.6
	c0,0.2,0.1,0.5,0.2,0.6c0.1,0.2,0.2,0.3,0.4,0.4c0.1,0,0.1,0.1,0.2,0.1c0,0,0,0,0.1,0c0,0,0,0,0,0l0.1,0c0.1,0,0.1,0,0.2,0
	c0.3,0,0.6,0.1,0.8,0.1c0.6,0,1.1,0,1.7-0.2c1.2-0.3,2.3-0.7,3.5-1.3c1.1-0.5,2.2-1.1,3.3-1.7c0-0.1,0-0.2,0-0.3
	c0-0.4,0.1-0.8,0.1-1.2c0.1-0.7,0.3-1.5,0.5-2.2c0.2-0.7,0.4-1.4,0.7-2.1c0.5-1.4,1-2.7,1.5-4c0.5-1.3,1.1-2.7,1.6-4
	c2.2-5.3,4.6-10.4,7.1-15.5c1.3-2.6,2.5-5.1,3.8-7.6c0.7-1.3,1.3-2.5,2-3.8c0.7-1.3,1.4-2.5,2-3.7c-0.6,1.3-1.1,2.6-1.7,3.9
	l-1.7,3.9l-3.4,7.8c-2.3,5.2-4.5,10.4-6.7,15.7c-0.5,1.3-1.1,2.6-1.6,3.9c-0.5,1.3-1,2.6-1.5,4c-0.2,0.7-0.4,1.3-0.6,2
	c-0.2,0.7-0.4,1.3-0.5,2c-0.1,0.3-0.1,0.6-0.1,0.9c0,0.1,0,0.3,0,0.3c0,0,0,0,0,0c0,0,0.1,0.1,0.2,0.1c0.1,0,0.2,0.1,0.4,0.1
	c0.3,0,0.6,0,0.9,0c0.6,0,1.3-0.1,2-0.3c0.7-0.1,1.4-0.3,2-0.4c1.4-0.3,2.7-0.7,4-1.2c0.7-0.2,1.3-0.4,2-0.7c0.7-0.2,1.3-0.5,2-0.7
	c0.7-0.3,1.3-0.5,2-0.8c0.5-0.2,1.1-0.5,1.6-0.7c0-0.1-0.1-0.2-0.1-0.2c-0.1-0.4-0.2-0.7-0.2-1.1c0-0.7,0.1-1.4,0.3-2.1
	c0.2-0.7,0.5-1.3,0.8-1.9c0.3-0.6,0.7-1.1,1.1-1.7c0.4-0.5,0.8-1,1.3-1.5c0.2-0.2,0.5-0.4,0.7-0.7c0.2-0.2,0.5-0.4,0.8-0.6
	c0.3-0.2,0.5-0.4,0.8-0.6c0.3-0.2,0.6-0.3,0.9-0.5c0.3-0.1,0.6-0.2,1-0.3c0.3-0.1,0.7-0.1,1.1-0.1c0.4,0,0.7,0.1,1,0.3
	c0.3,0.2,0.6,0.4,0.8,0.6c0.5,0.5,0.8,1,1,1.6c-0.2-0.3-0.4-0.5-0.6-0.7c-0.2-0.2-0.4-0.4-0.7-0.6c-0.5-0.3-1-0.4-1.6-0.4
	c-0.5,0-1,0.2-1.5,0.5c-0.5,0.3-0.9,0.6-1.3,1c-0.2,0.2-0.4,0.4-0.6,0.6c-0.2,0.2-0.4,0.4-0.6,0.7c-0.4,0.5-0.7,0.9-1.1,1.4
	c-0.3,0.5-0.6,1-0.9,1.5c-0.3,0.5-0.5,1-0.6,1.5c-0.1,0.5-0.2,1.1-0.2,1.6c0,0.5,0.1,1,0.3,1.3c0.1,0.2,0.2,0.3,0.4,0.4
	c0.1,0.1,0.2,0.1,0.2,0.1c0,0,0.1,0,0.2,0.1c0.1,0,0.1,0,0.2,0.1c0.5,0.1,1.1,0.2,1.6,0.2c1.1,0,2.2-0.3,3.3-0.8
	c1-0.4,1.9-1,2.8-1.5c0-0.1,0-0.2,0-0.3c0-0.5,0-1,0.1-1.4c0.1-0.4,0.1-0.9,0.2-1.3c0.1-0.4,0.2-0.8,0.3-1.2
	c0.3-0.8,0.6-1.6,0.9-2.4c0.7-1.5,1.4-3,2.4-4.4c-0.1,0.8-0.3,1.7-0.5,2.5c-0.2,0.8-0.4,1.6-0.6,2.4c-0.2,0.8-0.4,1.6-0.6,2.4
	c-0.1,0.4-0.2,0.8-0.3,1.2c-0.1,0.4-0.2,0.8-0.2,1.2c-0.1,0.4-0.1,0.7-0.1,1.1c0,0.1,0,0.2,0,0.2c0,0,0,0.1,0,0.1l0,0l0,0
	c0.1,0,0.2,0.1,0.3,0.1c0.2,0,0.3,0.1,0.5,0.1c0.4,0,0.7,0,1.1,0c0.8-0.1,1.6-0.2,2.4-0.4c0.6-0.1,1.3-0.3,2-0.4
	c-0.1-0.1-0.2-0.1-0.2-0.2c-0.2-0.3-0.4-0.6-0.4-0.9c-0.1-0.3-0.1-0.6-0.1-0.9c0-0.6,0.1-1.2,0.2-1.8c0.2-1.2,0.6-2.3,1.1-3.4
	c0.4-1.1,0.9-2.1,1.5-3.2c-0.4,1.1-0.8,2.2-1.2,3.3c-0.2,0.6-0.3,1.1-0.5,1.7c-0.1,0.6-0.3,1.1-0.3,1.7c-0.1,0.6-0.1,1.1-0.1,1.7
	c0,0.5,0.2,1.1,0.5,1.4c0.1,0.2,0.3,0.3,0.5,0.3c0.2,0.1,0.5,0.1,0.7,0.1c0.5,0,1-0.2,1.5-0.4c0.5-0.2,1-0.5,1.5-0.8
	c0.5-0.3,1-0.6,1.4-0.9c0.7-0.5,1.4-1.1,2.1-1.6c0.2-0.7,0.3-1.5,0.5-2.2c0.2-0.6,0.4-1.2,0.6-1.7c0.2-0.6,0.5-1.1,0.7-1.7
	c0.5-1.1,1.2-2.1,1.9-3.1c0.7-1,1.6-1.9,2.6-2.6c0.3-0.2,0.5-0.4,0.8-0.5c0.3-0.2,0.6-0.3,1-0.4c0.2-0.1,0.4-0.1,0.6-0.1
	c0.2,0,0.5,0.1,0.8,0.2c0.3,0.2,0.4,0.5,0.5,0.7c0.1,0.2,0.1,0.5,0.1,0.6c0,0.2,0,0.4,0,0.6c0,0.2-0.1,0.4-0.1,0.5
	c-0.1,0.3-0.2,0.6-0.4,0.9c-0.1,0.3-0.3,0.6-0.5,0.8c-0.2,0.3-0.3,0.5-0.5,0.8c-0.7,1-1.5,1.9-2.2,2.8c-1.5,1.6-3.1,3.1-4.7,4.5
	c-0.1,0.5-0.2,1-0.3,1.5l-0.7,3.4c-0.1,0.4-0.2,0.9-0.3,1.3c2.6-0.8,5.3-1.5,7.9-2.1c4.3-1.1,8.7-2,13.1-2.9
	c-0.1-0.1-0.1-0.1-0.2-0.1c-0.5-0.5-0.8-1-1.1-1.6c-0.3-0.6-0.5-1.2-0.6-1.9c-0.2-1.3,0-2.6,0.4-3.8c0.4-1.2,1-2.4,1.8-3.3
	c0.4-0.5,0.9-0.9,1.4-1.3c0.5-0.4,1-0.7,1.5-1.1c1.1-0.7,2.2-1.2,3.3-1.7c1.1-0.5,2.3-0.9,3.5-1.1c0.6-0.1,1.2-0.2,1.9-0.2
	c0.3,0,0.6,0.1,0.9,0.2C628.4,88.7,628.7,88.9,628.8,89.2z M549.8,114.1C549.8,114.1,549.8,114.1,549.8,114.1
	C549.8,114.1,549.8,114.1,549.8,114.1C549.8,114.1,549.8,114.1,549.8,114.1z M596.3,99.9c-0.2,0.5-0.3,1-0.5,1.5
	c1.2-1.1,2.3-2.2,3.3-3.4c0.7-0.9,1.5-1.8,2.1-2.7c0.2-0.2,0.3-0.5,0.4-0.7c0.1-0.2,0.3-0.5,0.4-0.7c0.1-0.2,0.2-0.5,0.3-0.7
	c0-0.1,0.1-0.2,0.1-0.3c0-0.1,0-0.2,0-0.3c0-0.1,0-0.2,0-0.2c0,0,0,0,0,0c0,0-0.1,0-0.2,0c-0.2,0.1-0.4,0.2-0.6,0.3
	c-0.2,0.1-0.4,0.3-0.6,0.4c-0.8,0.7-1.6,1.5-2.2,2.4c-0.7,0.9-1.2,1.9-1.7,2.9C596.7,98.9,596.5,99.4,596.3,99.9z M592.1,111
	c-1.2,0.4-2.4,0.8-3.6,1.2c-2.3,0.8-4.5,1.6-6.7,2.6c-2.2,0.9-4.4,1.9-6.5,3c-2.1,1.1-4.2,2.3-6.1,3.6c-1,0.7-1.9,1.4-2.8,2.2
	l-0.3,0.3l-0.3,0.3l-0.2,0.1l-0.1,0.2c-0.1,0.1-0.2,0.2-0.3,0.3l-0.3,0.3c-0.1,0.1-0.2,0.2-0.3,0.3c-0.1,0.1-0.2,0.2-0.2,0.3
	c0,0.1-0.1,0.1-0.1,0.2c0,0,0,0.1,0,0.1l0,0l0,0c-0.5,0.9-0.8,2-0.8,3c0,1,0.4,2,1.1,2.7c0.7,0.8,1.6,1.4,2.6,1.8c1,0.5,2,0.8,3.1,1
	c1.1,0.2,2.2,0.4,3.3,0.4c1.1,0.1,2.3,0.1,3.4,0c0.3,0,0.6,0,0.9,0c0.1,0,0.3,0,0.4,0c0.1,0,0.3,0,0.4,0c0.5-0.1,1-0.2,1.5-0.4
	c1-0.3,1.9-0.9,2.8-1.6c0.8-0.7,1.6-1.5,2.2-2.4c0.7-0.9,1.2-1.8,1.8-2.8c0.5-1,1-2,1.4-3.1c0.4-1.1,0.8-2.1,1.2-3.2
	C590.5,118,591.3,114.5,592.1,111z M158.1,340.8C158.1,340.8,158.1,340.8,158.1,340.8C158.1,340.8,158.1,340.8,158.1,340.8
	L158.1,340.8z M214.1,310.1c0,0.1,0.1,0.1,0.1,0.2c0,0.1,0,0.2,0,0.2c0,0.1-0.1,0.3-0.2,0.4c-0.2,0.2-0.4,0.4-0.6,0.5
	c-0.4,0.3-0.9,0.6-1.3,0.8c-0.9,0.5-1.8,1-2.7,1.6c0.8-0.6,1.7-1.2,2.6-1.7c0.4-0.3,0.9-0.6,1.3-0.9c0.2-0.2,0.4-0.3,0.6-0.5
	c0.1-0.1,0.1-0.2,0.2-0.3c0-0.1,0-0.2,0-0.3c-0.1-0.1-0.1-0.2-0.2-0.2c-0.1-0.1-0.2-0.1-0.3-0.2c-0.2-0.1-0.5-0.1-0.7-0.1
	c-0.5,0-1,0.1-1.5,0.2c-1,0.2-2,0.6-2.9,1c-0.9,0.4-1.8,0.9-2.7,1.5c-0.4,0.3-0.8,0.6-1.2,0.9c-0.4,0.3-0.7,0.7-1.1,1.1
	c-0.6,0.8-1.1,1.7-1.4,2.7c-0.3,1-0.4,2-0.2,2.9c0.2,1,0.6,1.9,1.3,2.5c0.7,0.7,1.6,1.2,2.5,1.5c0.9,0.4,1.9,0.7,2.9,1.1
	c0.5,0.2,1,0.4,1.5,0.7c0.5,0.3,1,0.6,1.4,1c0.8,0.8,1.4,1.9,1.4,3.1c0,0.6-0.1,1.2-0.3,1.7c-0.2,0.5-0.4,1.1-0.7,1.5
	c-0.6,1-1.3,1.8-2.1,2.5c-0.4,0.4-0.8,0.7-1.2,1.1c-0.1,0.1-0.2,0.2-0.3,0.2l-0.3,0.2c-0.2,0.2-0.4,0.3-0.6,0.5
	c-1.7,1.3-3.4,2.4-5.2,3.5c-1.8,1.1-3.6,2.1-5.5,3.1c-3.7,2-7.6,3.6-11.5,5.1c-3.9,1.5-7.9,2.8-11.9,3.9c-4,1.1-8.1,2.1-12.2,3.1
	c-4.1,0.9-8.2,1.8-12.3,2.6l-12.3,2.4l-12.3,2.4l-6.1,1.2l-6.1,1.2c-16.4,3.2-32.8,6.3-49.2,9.2c16.3-3.6,32.6-7,49-10.3l6.1-1.3
	l6.1-1.2l12.3-2.5l12.3-2.5c4.1-0.8,8.2-1.7,12.2-2.6c4.1-0.9,8.1-1.9,12.1-3c4-1.1,8-2.4,11.8-3.8c3.9-1.4,7.7-3.1,11.4-5
	c1.8-0.9,3.6-2,5.4-3c1.8-1.1,3.5-2.2,5.2-3.4c0.2-0.1,0.4-0.3,0.6-0.5l0.3-0.2c0.1-0.1,0.2-0.2,0.3-0.2c0.4-0.3,0.8-0.6,1.2-1
	c0.7-0.7,1.4-1.4,1.9-2.3c0.5-0.8,0.9-1.7,0.8-2.7c0-0.9-0.4-1.8-1.1-2.5c-0.7-0.7-1.6-1.1-2.5-1.5c-0.9-0.4-1.9-0.7-2.9-1.1
	c-0.5-0.2-1-0.5-1.4-0.7c-0.4-0.3-0.8-0.6-1.1-0.9c-3.7,0.9-7.4,1.8-11,2.8c-2.3,0.6-4.6,1.3-7,2.1c-0.3,1.4-0.5,2.7-0.9,4.1
	c-0.4,1.9-1,3.9-1.6,5.8c-0.6,1.9-1.4,3.8-2.3,5.6c-0.5,0.9-1,1.8-1.6,2.6c-0.6,0.8-1.3,1.6-2.2,2.3c-0.8,0.7-1.8,1.2-2.8,1.5
	c-0.5,0.2-1,0.3-1.6,0.3c-0.1,0-0.3,0-0.4,0c-0.1,0-0.3,0-0.4,0c-0.3,0-0.5,0-0.8,0c-1,0-2,0-3,0c-1-0.1-2-0.2-3-0.4
	c-1-0.2-2-0.5-2.9-1c-0.9-0.5-1.9-1.1-2.6-1.9c-0.4-0.4-0.7-0.9-0.9-1.4c-0.2-0.5-0.3-1.1-0.3-1.7c0-0.6,0.1-1.1,0.2-1.6
	c0.1-0.5,0.4-1,0.6-1.5c0,0,0-0.1,0.1-0.1c0,0,0-0.1,0.1-0.1c0-0.1,0.1-0.1,0.1-0.2c0.1-0.1,0.2-0.2,0.3-0.3
	c0.1-0.1,0.2-0.2,0.3-0.3l0.3-0.3c0.1-0.1,0.2-0.2,0.3-0.3l0.1-0.1l0.1-0.1l0.3-0.3l0.3-0.3c0.8-0.7,1.6-1.3,2.5-1.9
	c1.7-1.1,3.5-2.1,5.4-3c3.7-1.8,7.5-3.2,11.4-4.5c1.1-0.4,2.3-0.7,3.4-1c0.1-0.6,0.3-1.2,0.4-1.9l0.5-2.5c-0.3,0.2-0.6,0.5-1,0.7
	c-0.8,0.6-1.7,1.1-2.7,1.4c-0.2,0.1-0.5,0.2-0.8,0.2c-0.3,0.1-0.5,0.1-0.8,0.1c-0.3,0-0.6,0-0.9-0.1c-0.2-0.1-0.3-0.1-0.4-0.2
	c-0.5,0.3-1,0.7-1.5,0.9c-0.7,0.3-1.3,0.6-2.1,0.8c-0.4,0.1-0.7,0.2-1.1,0.2c-0.2,0-0.4,0-0.6,0c-0.2,0-0.5-0.1-0.7-0.2
	c-0.1-0.1-0.3-0.1-0.4-0.3c-0.1-0.1-0.2-0.3-0.3-0.5l0-0.1l0,0l0-0.1c0-0.1,0-0.1,0-0.2c-0.3,0.3-0.5,0.6-0.8,0.8
	c-0.4,0.4-0.8,0.7-1.3,1c-0.5,0.3-0.9,0.6-1.5,0.8c-0.5,0.2-1.1,0.4-1.6,0.4c-0.6,0.1-1.2,0.1-1.7-0.1c-0.1,0-0.1,0-0.2,0
	c-0.1,0-0.1,0-0.2-0.1c-0.2-0.1-0.3-0.1-0.5-0.2c-0.3-0.2-0.6-0.4-0.8-0.7c-0.1-0.2-0.2-0.4-0.3-0.7c-0.6,0.5-1.3,0.9-1.9,1.2
	c-0.8,0.4-1.6,0.8-2.4,1.2c-1.6,0.8-3.2,1.4-4.9,2c-0.8,0.3-1.7,0.5-2.6,0.7c-0.4,0.1-0.9,0.2-1.4,0.2c-0.2,0-0.5,0-0.7,0
	c-0.3,0-0.5,0-0.8-0.1l-0.1,0l-0.1,0c-0.1,0-0.2-0.1-0.2-0.1c-0.2-0.1-0.3-0.2-0.5-0.4c0,0-0.1-0.1-0.1-0.1c0,0-0.1-0.1-0.1-0.1
	c0-0.1,0-0.1-0.1-0.2c0,0,0,0,0-0.1l0-0.1c0-0.1,0-0.2,0-0.2l0-0.1c-0.8,0.7-1.6,1.4-2.4,2c-0.9,0.6-1.9,1.2-3,1.6
	c-0.3,0.1-0.6,0.2-0.9,0.2c-0.3,0.1-0.6,0.1-0.9,0.1c-0.3,0-0.6,0-0.9,0c-0.1,0-0.2,0-0.2,0l-0.1,0c0,0,0,0-0.1,0c0,0-0.1,0-0.1,0
	c-0.2-0.1-0.4-0.1-0.6-0.2c-0.2-0.1-0.3-0.2-0.4-0.4c-0.3,0.2-0.7,0.4-1,0.6c-0.5,0.2-0.9,0.5-1.4,0.7c-1,0.4-2,0.9-3,1.2
	c-1,0.4-2,0.7-3.1,0.9c-0.5,0.1-1.1,0.2-1.7,0.2c-0.1,0-0.1,0-0.2,0l-0.2,0c-0.1,0-0.3,0-0.5,0c-0.1,0-0.2,0-0.2,0
	c-0.1,0-0.2,0-0.2-0.1c-0.1,0-0.2-0.1-0.3-0.1c-0.1,0-0.2-0.1-0.3-0.1c-0.2-0.1-0.4-0.3-0.5-0.5c-0.1-0.2-0.2-0.4-0.3-0.5
	c0-0.1-0.1-0.2-0.1-0.3c-0.5,0.3-1.1,0.7-1.6,1c-0.8,0.4-1.6,0.8-2.4,1.2c-1.6,0.7-3.3,1.3-5,1.9c-0.9,0.3-1.7,0.5-2.6,0.6
	c-0.4,0.1-0.9,0.1-1.4,0.2c-0.2,0-0.5,0-0.7,0c-0.3,0-0.5,0-0.8-0.1l-0.1,0l-0.1,0c-0.1,0-0.2-0.1-0.2-0.1c0,0-0.1-0.1-0.1-0.1
	c-2.4,0.9-4.8,1.7-7.2,2.4c-2.7,0.8-5.5,1.5-8.3,2.1c-1.4,0.3-2.8,0.5-4.3,0.7c-0.7,0.1-1.4,0.1-2.2,0.1c-0.7,0-1.5,0-2.3-0.3
	c-0.2-0.1-0.4-0.1-0.6-0.2c-0.2-0.1-0.4-0.2-0.6-0.4c-0.2-0.2-0.4-0.4-0.5-0.7c-0.1-0.3-0.1-0.6-0.1-0.8c0-0.5,0.2-0.9,0.4-1.3
	c0.1-0.2,0.2-0.4,0.3-0.5c0.1-0.1,0.1-0.2,0.2-0.2l0.1-0.1l0.1-0.1c0.9-1.2,1.8-2.3,2.8-3.3c0.4-0.4,0.9-0.9,1.3-1.3
	c-0.1,0.1-0.3,0.2-0.4,0.4l-1.3,1.1c-0.4,0.4-0.9,0.7-1.3,1l-1.4,1l-0.7,0.5c-0.2,0.2-0.5,0.3-0.7,0.5l-1.4,1
	c-0.2,0.2-0.5,0.3-0.7,0.5l-0.7,0.5c-0.9,0.6-1.9,1.3-2.8,1.9l-1.4,0.9c-0.2,0.2-0.5,0.3-0.7,0.4l-0.7,0.4l-1.5,0.9
	c-0.5,0.3-1,0.6-1.5,0.8c-7.9,4.5-16.2,8.1-24.8,10.6c8.4-3.2,16.6-7,24.2-11.6c0.5-0.3,1-0.6,1.4-0.9l1.4-0.9
	c0.5-0.3,1-0.6,1.4-0.9l1.4-0.9c0.9-0.6,1.9-1.3,2.8-1.9l0.7-0.5c0.2-0.2,0.5-0.3,0.7-0.5l1.4-1c0.2-0.2,0.5-0.3,0.7-0.5l0.7-0.5
	l1.3-1c0.4-0.3,0.9-0.7,1.3-1l1.3-1.1c1.7-1.4,3.5-2.8,5-4.4c0.4-0.4,0.8-0.8,1.1-1.2c0.4-0.4,0.7-0.8,1-1.3
	c0.6-0.9,1.2-1.8,1.5-2.8c0.2-0.5,0.3-1,0.4-1.5c0.1-0.3,0.1-0.5,0.1-0.8c0-0.3,0-0.5,0-0.8c0-0.5,0-1-0.2-1.5c0-0.1,0-0.1,0-0.2
	l-0.1-0.2c0-0.1-0.1-0.2-0.1-0.4l-0.1-0.4l-0.2-0.3c-0.2-0.4-0.5-0.9-0.8-1.2c-0.3-0.4-0.7-0.7-1.1-1c-0.8-0.6-1.8-1-2.9-1.2
	c-1-0.2-2.1-0.3-3.2-0.3c-1.1,0-2.2,0.1-3.3,0.3c-0.5,0.1-1.1,0.2-1.6,0.3c-0.5,0.1-1.1,0.3-1.6,0.4c-1.1,0.3-2.2,0.6-3.2,0.9
	c-2.1,0.7-4.2,1.4-6.3,2.3c-4.1,1.7-8.1,3.8-11.9,6.3c0.6-0.4,1.2-0.9,1.8-1.3c-0.4,0.2-0.8,0.5-1.2,0.7c6.8-4.5,13.4-9.4,19.4-14.8
	l1.1-1l1.1-1l0.6-0.5l0.6-0.5l1.1-1c0.7-0.7,1.5-1.4,2.2-2.1c0.7-0.7,1.4-1.4,2.1-2.2c0.6-0.7,1.2-1.5,1.7-2.3
	c0.2-0.4,0.4-0.8,0.5-1.3c0.1-0.4,0.2-0.9,0.2-1.3c0-0.9-0.2-1.8-0.6-2.5c-0.1-0.1-0.1-0.2-0.2-0.3c-0.1-0.1-0.1-0.2-0.2-0.2
	c-0.1-0.1-0.3-0.3-0.5-0.4c-0.2-0.1-0.4-0.2-0.6-0.3c-0.1,0-0.2-0.1-0.3-0.1c-0.1,0-0.2-0.1-0.3-0.1c-0.4-0.1-0.9-0.2-1.4-0.3
	c-0.5,0-0.9-0.1-1.4-0.1c-1,0-1.9,0.2-2.9,0.4c-0.2,0.1-0.5,0.1-0.7,0.2c-0.1,0-0.2,0.1-0.3,0.1l-0.4,0.1l-1.4,0.5
	c-0.2,0.1-0.5,0.2-0.7,0.2l-0.7,0.3l-1.4,0.5c-3.8,1.4-7.5,3.1-11.1,4.9c-0.7,0.3-1.4,0.7-2.1,1.1c-0.7,5.2-1.7,10.4-3.1,15.5
	c-1.8,6.6-4.1,13-6.9,19.2c-2.8,6.2-6.2,12.2-10,17.8c-3.8,5.6-8.1,10.9-12.9,15.8c4.3-5.2,8.3-10.7,11.9-16.4
	c3.6-5.7,6.8-11.6,9.6-17.8c2.8-6.1,5.2-12.4,7.2-18.9c1.5-4.9,2.7-9.9,3.7-14.9c-2.8,1.5-5.5,3-8.2,4.6c-3.5,2.1-6.9,4.4-10.2,6.7
	c3.2-2.6,6.4-5,9.8-7.3c0.4-0.3,0.8-0.6,1.3-0.9l1.3-0.8c0.4-0.3,0.9-0.5,1.3-0.8l1.3-0.8c1.2-0.7,2.4-1.4,3.7-2.1
	c0.2-1.1,0.4-2.3,0.6-3.4c-0.1,1.1-0.2,2.2-0.3,3.2c0.5-0.3,0.9-0.5,1.4-0.8l1.4-0.7l1.4-0.7c0.9-0.5,1.8-0.9,2.8-1.3
	c0.2-0.1,0.5-0.2,0.7-0.3l0.7-0.3l1.4-0.6c0.5-0.2,0.9-0.4,1.4-0.6c0.5-0.2,0.9-0.4,1.4-0.6l1.4-0.5l0.7-0.3
	c0.2-0.1,0.5-0.2,0.7-0.3l1.5-0.5l0.4-0.1c0.1,0,0.3-0.1,0.4-0.1c0.3-0.1,0.5-0.1,0.8-0.2c1-0.2,2.1-0.4,3.2-0.4
	c0.5,0,1.1,0,1.6,0.1c0.5,0.1,1.1,0.2,1.6,0.3c0.1,0,0.3,0.1,0.4,0.1c0.1,0.1,0.3,0.1,0.4,0.2c0.3,0.1,0.5,0.3,0.8,0.4
	c0.3,0.2,0.5,0.4,0.7,0.6c0.1,0.1,0.2,0.2,0.3,0.3c0.1,0.1,0.2,0.2,0.3,0.4c0.3,0.5,0.6,1.1,0.7,1.6c0.1,0.6,0.2,1.1,0.2,1.7
	c0,0.6-0.1,1.1-0.3,1.7c-0.2,0.5-0.4,1.1-0.6,1.5c-0.5,1-1.2,1.8-1.9,2.6c-0.7,0.8-1.4,1.5-2.2,2.2c-0.7,0.7-1.5,1.4-2.2,2.1
	c-1.5,1.4-3,2.8-4.6,4.1c-3.8,3.2-7.9,6.2-12,9c1-0.5,1.9-1,2.9-1.4c2.1-1,4.2-1.8,6.3-2.5l0.4-0.1l0.4-0.1l0.8-0.3
	c0.3-0.1,0.5-0.2,0.8-0.2l0.8-0.2c0.5-0.2,1.1-0.3,1.6-0.5c0.6-0.1,1.1-0.3,1.7-0.4c1.1-0.2,2.3-0.4,3.4-0.4c1.2,0,2.3,0,3.5,0.2
	c1.2,0.2,2.3,0.6,3.4,1.3c0.5,0.3,1,0.7,1.4,1.2c0.4,0.5,0.8,1,1.1,1.5l0.2,0.4c0.1,0.1,0.1,0.3,0.2,0.4c0.1,0.1,0.1,0.3,0.1,0.4
	l0.1,0.2c0,0.1,0,0.2,0.1,0.2c0.1,0.6,0.2,1.2,0.2,1.8c0,0.3,0,0.6,0,0.9c0,0.3-0.1,0.6-0.1,0.9c-0.1,0.6-0.3,1.2-0.5,1.7
	c-0.2,0.6-0.5,1.1-0.7,1.6c-0.3,0.5-0.6,1-0.9,1.5c-0.3,0.5-0.7,0.9-1.1,1.4c-0.4,0.4-0.8,0.9-1.2,1.3c-0.6,0.6-1.2,1.1-1.8,1.6
	c0.8-0.6,1.6-1.2,2.4-1.7c1.2-0.8,2.4-1.6,3.7-2.3c0.6-0.3,1.3-0.7,2-1c0.7-0.3,1.4-0.5,2.1-0.7c0.2,0,0.4-0.1,0.6-0.1
	c0.2,0,0.5,0,0.7,0.1c0.1,0,0.1,0,0.2,0.1c0.1,0,0.1,0.1,0.2,0.1c0,0,0.1,0.1,0.1,0.1c0,0,0.1,0.1,0.1,0.1c0.1,0.1,0.1,0.1,0.1,0.2
	c0,0.1,0.1,0.2,0.1,0.2c0,0.1,0,0.1,0,0.2c0,0.1,0,0.1,0,0.2c0,0.1,0,0.1,0,0.2c-0.1,0.5-0.3,0.8-0.4,1.2c-0.2,0.3-0.4,0.6-0.6,0.9
	c-0.5,0.6-1,1.1-1.5,1.6c-0.5,0.5-1,1-1.6,1.5c-1.1,0.9-2.2,1.8-3.3,2.7c-0.6,0.4-1.1,0.8-1.7,1.3c-0.6,0.4-1.2,0.8-1.8,1.2
	c0.5-0.5,1.1-0.9,1.6-1.4c0.5-0.5,1.1-0.9,1.6-1.4c1.1-0.9,2.1-1.9,3.1-2.9c0.5-0.5,1-1,1.5-1.5c0.5-0.5,0.9-1.1,1.3-1.6
	c0.2-0.3,0.4-0.6,0.5-0.8c0.1-0.1,0.1-0.3,0.2-0.4c0-0.1,0.1-0.3,0.1-0.4c0,0,0-0.1,0-0.1l0-0.1c0,0,0,0,0-0.1c0,0,0,0,0,0
	c0,0,0,0,0,0c0,0,0,0,0,0c0,0,0,0,0,0c0,0,0,0-0.1,0c-0.1,0-0.2,0-0.3,0c-0.1,0-0.3,0-0.4,0.1c-0.6,0.1-1.3,0.4-1.9,0.7
	c-0.6,0.3-1.2,0.6-1.8,1c-1.2,0.7-2.4,1.5-3.5,2.3c-1.1,0.8-2.2,1.7-3.3,2.6c-1.1,0.9-2.1,1.8-3.1,2.8c-1,1-1.9,2-2.7,3.1l-0.1,0.1
	l-0.1,0.1c0,0.1-0.1,0.1-0.1,0.2c-0.1,0.1-0.2,0.3-0.2,0.4c-0.1,0.3-0.2,0.5-0.3,0.7c0,0.1,0,0.2,0,0.2c0,0.1,0.1,0.1,0.1,0.2
	c0.1,0.1,0.4,0.2,0.6,0.3c0.6,0.2,1.2,0.2,1.9,0.2c0.7,0,1.4,0,2.1-0.1c0.7-0.1,1.4-0.1,2.1-0.2c0.7-0.1,1.4-0.2,2.1-0.3
	c0.7-0.1,1.4-0.2,2.1-0.4s1.4-0.3,2.1-0.4c1.4-0.3,2.8-0.6,4.1-0.9c2.4-0.5,4.9-1.1,7.3-1.8c-0.1-0.1-0.2-0.1-0.2-0.2
	c0,0-0.1-0.1-0.1-0.1c0,0-0.1-0.1-0.1-0.2c0-0.1,0-0.1-0.1-0.2c0,0,0,0,0-0.1l0-0.1c0-0.1,0-0.2,0-0.2l0-0.2c0-0.5,0-1,0.1-1.5
	c0.1-0.5,0.2-0.9,0.3-1.3c0.1-0.4,0.2-0.9,0.4-1.3c0.3-0.9,0.6-1.7,0.9-2.5c0.3-0.8,0.7-1.6,1-2.4c0.7-1.6,1.5-3.2,2.3-4.8
	c0.8-1.6,1.6-3.1,2.5-4.6c0.4-0.8,0.9-1.5,1.3-2.3l0.7-1.1c0.2-0.4,0.5-0.7,0.7-1.1c-1.4,3.2-2.8,6.4-4.2,9.6
	c-0.7,1.6-1.4,3.2-2.1,4.8c-0.3,0.8-0.7,1.6-1,2.4c-0.3,0.8-0.6,1.6-0.9,2.4c-0.3,0.8-0.5,1.6-0.7,2.4c-0.1,0.4-0.1,0.8-0.1,1.1
	l0,0.1c0,0,0,0.1,0,0.1l0,0c0,0,0,0,0,0c0,0,0,0,0,0c0,0,0,0,0.1,0l0,0l0,0c0.1,0,0.3,0.1,0.5,0.1c0.2,0,0.4,0,0.6,0
	c0.4,0,0.8-0.1,1.2-0.1c0.4-0.1,0.8-0.1,1.3-0.2c0.4-0.1,0.8-0.2,1.3-0.3c1.7-0.4,3.4-0.9,5-1.4c0.8-0.3,1.7-0.6,2.5-0.8
	c0.4-0.1,0.8-0.3,1.2-0.5c0.2-0.1,0.4-0.2,0.5-0.2c0-0.2-0.1-0.4-0.1-0.6c0-0.3,0-0.6,0-0.9c0-0.3,0.1-0.6,0.1-0.8
	c0.1-0.5,0.2-1.1,0.4-1.6c0.2-0.5,0.3-1,0.5-1.5c0.4-1,0.8-2,1.3-2.9c0.2-0.5,0.5-0.9,0.8-1.4c0.3-0.5,0.5-0.9,0.8-1.4
	c-0.6,2-1.3,4-1.8,6c-0.3,1-0.5,2-0.7,3c-0.1,0.5-0.1,1-0.1,1.4c0,0.2,0,0.4,0.1,0.6c0,0.1,0.1,0.1,0.1,0.2c0,0,0.1,0.1,0.1,0.1
	c0,0,0.1,0,0.2,0.1c0,0,0.1,0,0.1,0c0,0,0.1,0,0.1,0c0.1,0,0.2,0,0.3,0l0.2,0c0.1,0,0.1,0,0.2,0c0.5,0,1-0.1,1.5-0.1
	c1-0.1,2-0.4,3-0.6c1.9-0.5,3.8-1,5.7-1.5c-0.1-0.1-0.2-0.2-0.3-0.4c-0.2-0.3-0.3-0.7-0.4-1c-0.1-0.7-0.1-1.3,0-1.9
	c0.2-1.2,0.8-2.3,1.4-3.2c0.3-0.5,0.7-0.9,1.1-1.3c0.4-0.4,0.8-0.8,1.3-1.2c0.5-0.4,0.9-0.7,1.5-1c0.5-0.3,1.1-0.4,1.8-0.4
	c0.3,0,0.6,0.1,0.9,0.2c0.3,0.1,0.5,0.3,0.8,0.5c0.4,0.4,0.7,0.9,0.9,1.4c-0.2-0.2-0.3-0.4-0.5-0.6c-0.2-0.2-0.4-0.4-0.6-0.5
	c-0.4-0.3-0.9-0.4-1.4-0.3c-0.5,0.1-0.9,0.3-1.3,0.5c-0.4,0.3-0.8,0.6-1.2,1c-0.2,0.2-0.4,0.4-0.5,0.6c-0.2,0.2-0.3,0.4-0.5,0.6
	c-0.3,0.4-0.6,0.8-0.9,1.3c-0.3,0.4-0.5,0.9-0.7,1.3c-0.2,0.5-0.4,0.9-0.4,1.4c-0.1,0.5-0.1,0.9,0,1.3c0,0.2,0.1,0.4,0.2,0.6
	c0.1,0.2,0.2,0.3,0.3,0.4c0.1,0,0.1,0.1,0.2,0.1c0,0,0,0,0.1,0c0,0,0,0,0,0l0,0c0.1,0,0.1,0,0.2,0c0.2,0,0.5,0.1,0.7,0.1
	c0.5,0,1,0,1.5-0.1c1-0.2,2-0.6,3-1.1c0.9-0.4,1.9-0.9,2.8-1.4l0-0.1c0-0.5,0-1,0.1-1.5c0.1-0.5,0.2-0.9,0.3-1.4
	c0.1-0.4,0.2-0.9,0.4-1.3c0.3-0.9,0.5-1.7,0.9-2.5c0.3-0.8,0.6-1.7,1-2.5c0.7-1.6,1.4-3.2,2.2-4.8c0.8-1.6,1.6-3.1,2.4-4.7
	c0.4-0.8,0.8-1.5,1.3-2.3l0.7-1.1c0.2-0.4,0.5-0.8,0.7-1.1c-1.3,3.3-2.7,6.5-4,9.7c-0.7,1.6-1.3,3.2-1.9,4.9
	c-0.3,0.8-0.6,1.6-0.9,2.4c-0.3,0.8-0.6,1.6-0.8,2.5c-0.2,0.8-0.5,1.6-0.6,2.5c-0.1,0.4-0.1,0.8-0.1,1.1l0,0.1c0,0,0,0.1,0,0.1l0,0
	c0,0,0,0,0,0c0,0,0,0,0,0c0,0,0,0,0.1,0l0,0l0,0c0.1,0,0.3,0.1,0.5,0.1c0.2,0,0.4,0,0.6,0c0.4,0,0.8-0.1,1.2-0.1
	c0.4-0.1,0.8-0.2,1.3-0.2c0.4-0.1,0.8-0.2,1.3-0.3c1.7-0.4,3.3-1,5-1.5c0.8-0.3,1.6-0.6,2.5-0.9c0.4-0.2,0.8-0.3,1.2-0.5
	c0.3-0.1,0.6-0.3,0.9-0.4c0-0.1-0.1-0.1-0.1-0.2c-0.1-0.3-0.1-0.6-0.2-0.9c0-0.6,0.1-1.2,0.2-1.8c0.2-0.6,0.4-1.1,0.6-1.6
	c0.3-0.5,0.6-1,0.9-1.4c0.3-0.4,0.7-0.9,1.1-1.2c0.2-0.2,0.4-0.4,0.6-0.6c0.2-0.2,0.4-0.4,0.6-0.5c0.2-0.2,0.5-0.3,0.7-0.5
	c0.2-0.1,0.5-0.3,0.8-0.4c0.3-0.1,0.5-0.2,0.8-0.3c0.3-0.1,0.6-0.1,0.9,0c0.3,0,0.6,0.1,0.9,0.2c0.3,0.1,0.5,0.3,0.7,0.5
	c0.4,0.4,0.7,0.9,0.8,1.4c-0.1-0.2-0.3-0.4-0.5-0.6c-0.2-0.2-0.4-0.3-0.6-0.5c-0.4-0.3-0.9-0.4-1.3-0.3c-0.4,0-0.9,0.2-1.3,0.4
	c-0.4,0.2-0.8,0.5-1.1,0.9c-0.2,0.2-0.4,0.3-0.5,0.5c-0.2,0.2-0.3,0.4-0.5,0.6c-0.3,0.4-0.6,0.8-0.9,1.2c-0.3,0.4-0.5,0.8-0.7,1.3
	c-0.2,0.4-0.4,0.9-0.5,1.3c-0.1,0.4-0.2,0.9-0.2,1.3c0,0.4,0.1,0.8,0.3,1.1c0.1,0.1,0.2,0.3,0.3,0.4c0.1,0,0.1,0.1,0.2,0.1
	c0,0,0.1,0,0.1,0.1c0.1,0,0.1,0,0.2,0c0.4,0.1,0.9,0.2,1.4,0.2c0.9,0,1.9-0.3,2.8-0.7c0.8-0.3,1.6-0.8,2.4-1.3c0-0.1,0-0.1,0-0.2
	c0-0.4,0-0.8,0.1-1.2c0-0.4,0.1-0.7,0.2-1.1c0.1-0.4,0.2-0.7,0.3-1.1c0.2-0.7,0.5-1.4,0.8-2c0.6-1.3,1.2-2.6,2-3.8
	c-0.1,0.7-0.3,1.4-0.4,2.1c-0.2,0.7-0.3,1.4-0.5,2c-0.2,0.7-0.3,1.3-0.5,2c-0.1,0.3-0.2,0.7-0.2,1c-0.1,0.3-0.1,0.7-0.2,1
	c0,0.3-0.1,0.6-0.1,0.9c0,0.1,0,0.1,0,0.2c0,0,0,0.1,0,0.1l0,0l0,0c0.1,0,0.2,0.1,0.3,0.1c0.1,0,0.3,0,0.4,0c0.3,0,0.6,0,1,0
	c0.7-0.1,1.3-0.2,2-0.3c0.5-0.1,1.1-0.2,1.7-0.4c-0.1-0.1-0.1-0.1-0.2-0.2c-0.2-0.2-0.3-0.5-0.4-0.8c-0.1-0.3-0.1-0.5-0.1-0.8
	c0-0.5,0.1-1,0.2-1.5c0.2-1,0.5-1.9,0.9-2.9c0.4-0.9,0.8-1.8,1.3-2.7c-0.4,0.9-0.7,1.8-1,2.8c-0.1,0.5-0.3,0.9-0.4,1.4
	c-0.1,0.5-0.2,1-0.3,1.4c-0.1,0.5-0.1,1-0.1,1.4c0,0.5,0.1,0.9,0.4,1.2c0.1,0.1,0.3,0.2,0.5,0.3c0.2,0.1,0.4,0.1,0.6,0.1
	c0.4,0,0.9-0.2,1.3-0.4c0.4-0.2,0.9-0.4,1.3-0.7c0.4-0.2,0.8-0.5,1.2-0.8c0.6-0.4,1.2-0.9,1.8-1.4c0.1-0.6,0.3-1.3,0.5-1.9
	c0.1-0.5,0.3-1,0.5-1.5c0.2-0.5,0.4-0.9,0.6-1.4c0.5-0.9,1-1.8,1.6-2.6c0.6-0.8,1.3-1.6,2.2-2.2c0.2-0.2,0.4-0.3,0.7-0.5
	c0.2-0.1,0.5-0.3,0.8-0.4c0.2,0,0.3-0.1,0.5-0.1c0.2,0,0.5,0.1,0.7,0.2c0.2,0.2,0.4,0.4,0.4,0.6c0.1,0.2,0.1,0.4,0.1,0.6
	c0,0.2,0,0.3,0,0.5c0,0.2-0.1,0.3-0.1,0.5c-0.1,0.3-0.2,0.5-0.3,0.8c-0.1,0.2-0.3,0.5-0.4,0.7c-0.1,0.2-0.3,0.4-0.4,0.6
	c-0.6,0.8-1.2,1.6-1.9,2.4c-1.2,1.4-2.6,2.6-4,3.8c-0.1,0.4-0.2,0.8-0.3,1.3l-0.6,2.9c-0.1,0.4-0.1,0.7-0.2,1.1
	c2.2-0.6,4.5-1.3,6.7-1.8c3.7-0.9,7.4-1.7,11.1-2.4c0,0-0.1-0.1-0.1-0.1c-0.4-0.4-0.7-0.9-0.9-1.4c-0.2-0.5-0.4-1.1-0.5-1.6
	c-0.2-1.1,0-2.2,0.3-3.2c0.3-1,0.9-2,1.5-2.8c0.3-0.4,0.7-0.8,1.2-1.1c0.4-0.3,0.9-0.6,1.3-0.9c0.9-0.6,1.8-1,2.8-1.4
	c1-0.4,2-0.8,3-1c0.5-0.1,1.1-0.2,1.6-0.1c0.3,0,0.5,0.1,0.8,0.2C213.7,309.7,214,309.9,214.1,310.1z M186.5,319.3
	c-0.2,0.4-0.3,0.8-0.4,1.2c1-0.9,1.9-1.9,2.8-2.9c0.6-0.7,1.2-1.5,1.8-2.3c0.1-0.2,0.3-0.4,0.4-0.6c0.1-0.2,0.2-0.4,0.3-0.6
	c0.1-0.2,0.2-0.4,0.2-0.6c0-0.1,0-0.2,0.1-0.3c0-0.1,0-0.2,0-0.3c0-0.1,0-0.1,0-0.2c0,0,0,0,0,0c0,0-0.1,0-0.2,0
	c-0.2,0-0.3,0.1-0.5,0.2c-0.2,0.1-0.4,0.2-0.5,0.4c-0.7,0.6-1.3,1.3-1.9,2c-0.6,0.8-1,1.6-1.5,2.4
	C186.8,318.4,186.7,318.8,186.5,319.3z M182.9,328.7c-1,0.3-2,0.7-3.1,1c-1.9,0.7-3.8,1.4-5.7,2.2c-1.9,0.8-3.7,1.6-5.5,2.5
	c-1.8,0.9-3.6,1.9-5.2,3.1c-0.8,0.6-1.6,1.2-2.4,1.8l-0.3,0.2l-0.3,0.3l-0.1,0.1l-0.1,0.1c-0.1,0.1-0.2,0.2-0.3,0.3l-0.2,0.3
	c-0.1,0.1-0.2,0.2-0.2,0.3c-0.1,0.1-0.1,0.2-0.2,0.3c0,0-0.1,0.1-0.1,0.1c0,0,0,0,0,0.1l0,0l0,0c-0.4,0.8-0.7,1.7-0.7,2.5
	c0,0.9,0.4,1.7,0.9,2.3c0.6,0.7,1.3,1.2,2.2,1.6c0.8,0.4,1.7,0.7,2.7,0.9c0.9,0.2,1.9,0.3,2.8,0.4c1,0.1,1.9,0.1,2.9,0
	c0.2,0,0.5,0,0.7,0c0.1,0,0.2,0,0.4,0c0.1,0,0.2,0,0.3,0c0.4-0.1,0.9-0.2,1.3-0.3c0.8-0.3,1.6-0.7,2.3-1.3c0.7-0.6,1.3-1.3,1.9-2
	c0.6-0.8,1.1-1.6,1.5-2.4c0.4-0.8,0.8-1.7,1.2-2.6c0.4-0.9,0.7-1.8,1-2.7C181.6,334.6,182.3,331.6,182.9,328.7z M115.6,294.7
	l0.6,2.8l0.6,2.8l0.6,2.8c0.4,1.9,0.8,3.8,1.2,5.7c0.4,1.9,0.8,3.8,1.3,5.7c-0.3-1.9-0.7-3.8-1-5.7c-0.3-1.9-0.7-3.8-1-5.7l-0.5-2.9
	l-0.5-2.9l-0.5-2.9l-0.5-2.5l2.7-0.3c1-0.1,2.1-0.3,3.1-0.4l5.9-0.8c1.5,2.2,3.1,4.3,4.7,6.4c0.8,1.1,1.7,2.1,2.6,3.2
	c0.4,0.5,0.9,1,1.3,1.5c0.2,0.3,0.5,0.5,0.7,0.8l0.7,0.7c0.9,1,1.9,1.9,2.9,2.9c1,0.9,2,1.8,3.1,2.7c2.1,1.7,4.3,3.3,6.6,4.8
	c-2.2-1.7-4.3-3.4-6.3-5.2c-1-0.9-2-1.8-3-2.8c-1-1-1.9-1.9-2.8-2.9l-0.7-0.8l-0.7-0.8c-0.4-0.5-0.9-1-1.3-1.5
	c-0.9-1-1.7-2.1-2.5-3.2c-1.6-2.1-3.2-4.4-4.8-6.6l-0.1-0.2l-0.3,0l-6.2,0.8c-1,0.1-2.1,0.3-3.1,0.4l-3.1,0.4l-0.4,0.1l0.1,0.4
	L115.6,294.7z M374.5,268.3l0.7,3.3l0.7,3.3l0.7,3.2c0.2,1.1,0.5,2.2,0.7,3.2l0.8,3.2c0.5,2.2,1,4.3,1.6,6.5
	c-0.3-2.2-0.7-4.4-1.1-6.6l-0.6-3.3c-0.2-1.1-0.4-2.2-0.6-3.3l-0.6-3.3l-0.6-3.3l-0.6-3.3l-0.5-2.6l2.8-0.4l3.5-0.4l3.5-0.5l3.1-0.4
	c0.8,1.2,1.6,2.3,2.4,3.4c0.9,1.3,1.9,2.5,2.8,3.7c1.9,2.5,4,4.8,6.1,7.1l0.8,0.8l0.8,0.8c0.6,0.5,1.1,1.1,1.7,1.6
	c1.2,1.1,2.3,2.1,3.5,3.1c2.4,2,5,3.8,7.6,5.4c-2.4-1.9-4.8-3.9-7.1-6c-1.1-1-2.3-2.1-3.3-3.2c-0.3-0.3-0.5-0.6-0.8-0.8
	c-0.3-0.3-0.5-0.6-0.8-0.8l-0.8-0.8l-0.8-0.9c-2.1-2.3-4-4.7-5.9-7.2c-0.9-1.2-1.8-2.5-2.8-3.7c-0.9-1.3-1.8-2.5-2.7-3.8l0,0
	c-0.2-0.2-0.4-0.3-0.7-0.3l-3.5,0.5l-3.5,0.5l-3.5,0.5l-3.5,0.5l0,0c0,0,0,0,0,0c-0.4,0.1-0.6,0.4-0.5,0.8L374.5,268.3z
	 M155.6,372.3c-0.7,1.4-1.3,2.8-1.9,4.2l-0.4,1.1c-0.1,0.4-0.3,0.7-0.4,1.1c-0.3,0.7-0.6,1.4-0.8,2.2c-0.5,1.4-1,2.9-1.5,4.4
	c-0.9,2.8-1.7,5.7-2.4,8.6l-6.6,1.5c-1.1,0.3-2.3,0.5-3.4,0.8l-3,0.7l-0.5-2.8l-0.6-3.2l-0.6-3.2l-0.6-3.2c-0.4-2.2-0.8-4.3-1.2-6.5
	c-0.4-2.2-0.8-4.3-1.2-6.5c0.3,2.2,0.6,4.3,0.9,6.5c0.3,2.2,0.6,4.3,0.9,6.5l0.5,3.3l0.5,3.3l0.5,3.3l0.5,3.2l0.1,0.5l0.5-0.1
	l3.4-0.8c1.1-0.3,2.3-0.5,3.4-0.8l6.9-1.6l0.3-0.1l0.1-0.3c0.8-3,1.6-5.9,2.4-8.9c0.4-1.5,0.9-2.9,1.4-4.4c0.2-0.7,0.5-1.4,0.8-2.2
	l0.4-1.1l0.4-1.1c0.6-1.4,1.2-2.8,1.8-4.2c0.6-1.4,1.3-2.8,2-4.1c1.4-2.7,3-5.4,4.6-8c-1.8,2.5-3.5,5.1-5,7.7
	C157,369.5,156.3,370.9,155.6,372.3z M429,384c-1.8,4.3-3.4,8.7-4.8,13.1c-0.7,2.2-1.4,4.5-2,6.7c-0.6,2-1.1,4.1-1.6,6.1l-4.6,1.1
	l-5.2,1.2l-5.2,1.2l-4.3,1l-0.7-4l-0.9-4.9l-0.9-4.9l-0.9-4.9c-0.3-1.6-0.6-3.3-0.9-4.9l-0.9-4.9c-0.6-3.3-1.3-6.5-1.9-9.7
	c0.4,3.3,0.8,6.6,1.2,9.9l0.7,4.9c0.2,1.6,0.5,3.3,0.7,4.9l0.7,4.9l0.7,4.9l0.7,4.9l0.7,4.9c0,0,0,0,0,0.1c0.1,0.5,0.6,0.8,1,0.7
	l0,0l5.2-1.1l5.2-1.2l5.2-1.2l5.2-1.2c0.3-0.1,0.6-0.3,0.7-0.7l0,0c0.6-2.2,1.2-4.5,1.8-6.7c0.6-2.2,1.2-4.4,1.9-6.7
	c1.3-4.4,2.8-8.8,4.5-13.1c1.7-4.3,3.6-8.5,5.7-12.6c2.1-4.1,4.4-8.1,6.8-12.1c-2.8,3.7-5.3,7.6-7.7,11.6
	C433,375.6,430.9,379.8,429,384z M624.4,260.7c0.2,0.2,0.3,0.4,0.5,0.6c0.3,0.4,0.6,0.8,1,1.2c0.6,0.8,1.3,1.6,2,2.3
	c1.4,1.5,2.8,3,4.2,4.4c1.5,1.4,3,2.8,4.5,4.1c1.6,1.3,3.2,2.5,4.8,3.7c1.6,1.2,3.3,2.3,5,3.4c1.7,1.1,3.5,2.1,5.2,3.1
	c3.6,1.9,7.3,3.6,11,5c-3.7-1.6-7.3-3.4-10.8-5.4c-1.7-1-3.4-2.1-5.1-3.2c-0.8-0.6-1.7-1.1-2.5-1.7c-0.8-0.6-1.6-1.2-2.4-1.8
	c-1.6-1.2-3.1-2.5-4.7-3.8c-1.5-1.3-3-2.7-4.4-4.1c-1.4-1.4-2.8-2.9-4.1-4.4c-0.7-0.8-1.3-1.5-1.9-2.3c-0.3-0.4-0.6-0.8-0.9-1.2
	c-0.1-0.1-0.2-0.2-0.3-0.4l7-1.1l4-0.6l4-0.6l4-0.6c1.3-0.2,2.7-0.4,4-0.6c2.7-0.4,5.4-0.8,8.1-1.2l16.1-2.4l8.1-1.2
	c2.6-0.4,5.2-0.8,7.8-1.2c0.5,0.5,1.1,0.9,1.6,1.3c0.6,0.5,1.2,1,1.9,1.4c1.3,0.9,2.5,1.9,3.8,2.8c2.6,1.8,5.2,3.5,7.9,5.1
	c2.7,1.6,5.5,3.1,8.3,4.5c1.4,0.7,2.8,1.4,4.3,2c1.4,0.6,2.9,1.2,4.3,1.8c-1.4-0.7-2.8-1.3-4.2-2c-1.4-0.7-2.8-1.4-4.2-2.2
	c-1.4-0.7-2.7-1.5-4.1-2.3c-1.3-0.8-2.7-1.6-4-2.4c-2.6-1.7-5.2-3.4-7.7-5.2c-1.3-0.9-2.5-1.8-3.7-2.8c-0.6-0.5-1.2-1-1.8-1.5
	c-0.6-0.5-1.2-1-1.8-1.5l-0.2-0.2l-0.3,0c-2.7,0.4-5.4,0.7-8.1,1.1l-8.1,1.1l-16.1,2.3c-2.7,0.4-5.4,0.8-8.1,1.2
	c-1.3,0.2-2.7,0.4-4,0.6l-4,0.6l-4,0.6l-4,0.7l-8,1.3l-1,0.2l0.6,0.8C624.1,260.3,624.3,260.5,624.4,260.7z M787.1,265.9
	c0,0.2,0,0.4,0,0.6c-0.1,0.3-0.2,0.6-0.4,0.8c-0.2,0.2-0.3,0.4-0.5,0.6c-0.3,0.4-0.7,0.7-1.1,0.9c-0.8,0.6-1.5,1.1-2.3,1.5
	c-1.6,0.9-3.2,1.7-4.9,2.3c-3.2,1.3-6.6,2.3-9.9,3c-0.3,0.8-0.5,1.6-0.6,2.5c-0.1,0.8-0.1,1.7,0,2.5c0.1,0.8,0.4,1.6,0.7,2.3
	c0.4,0.7,0.9,1.4,1.5,1.9c0.6,0.6,1.3,1,2.1,1.4c1.5,0.8,3.2,1.4,4.9,2c0.9,0.3,1.7,0.6,2.6,1c0.8,0.4,1.7,0.9,2.4,1.5
	c0.8,0.6,1.4,1.4,1.9,2.3c0.5,0.9,0.7,1.9,0.8,2.9c0,1-0.2,2-0.5,2.9c-0.3,0.9-0.8,1.8-1.3,2.5c-1,1.6-2.3,2.9-3.7,4.2
	c-0.3,0.3-0.7,0.6-1,0.9c-0.2,0.1-0.4,0.3-0.5,0.4l-0.5,0.4l-0.5,0.4l-0.5,0.4c-0.4,0.3-0.7,0.5-1.1,0.8c-1.5,1.1-2.9,2.1-4.5,3.1
	c-3,2-6.1,3.8-9.3,5.5c-6.3,3.5-12.9,6.5-19.6,9.2c-1.4,0.6-2.8,1.1-4.2,1.6c-1.4,2.2-2.8,4.3-4.1,6.5c-3.5,5.9-6.8,12-9.6,18.3
	c-5.7,12.6-9.7,25.9-12,39.5l-0.1,0.6l-0.6,0.2l-14.2,3.9l-14.2,3.9l-28.4,7.7l-1.1,0.3l0-1.1c0-0.2,0-0.4,0-0.6c0-0.2,0-0.4,0-0.6
	c0-0.4,0.1-0.8,0.1-1.1c0.1-0.8,0.2-1.5,0.3-2.3c0.2-1.5,0.4-3,0.7-4.5c0.6-3,1.4-5.9,2.3-8.8c0.9-2.9,2-5.7,3.2-8.5
	c1.2-2.8,2.5-5.5,4-8.1c2.9-5.3,6.3-10.3,10.2-14.9c1-1.2,2-2.3,3-3.4c1-1.1,2-2.2,3.1-3.3c2.1-2.1,4.3-4.2,6.6-6.1
	c-2.2,2-4.3,4.2-6.4,6.4c-1,1.1-2,2.2-3,3.4c-1,1.1-1.9,2.3-2.8,3.5c-0.9,1.2-1.8,2.4-2.7,3.6c-0.4,0.6-0.9,1.2-1.3,1.8
	c-0.2,0.3-0.4,0.6-0.6,0.9l-0.6,0.9c-0.8,1.3-1.6,2.5-2.4,3.8c-0.2,0.3-0.4,0.6-0.6,1l-0.6,1c-0.4,0.7-0.7,1.3-1.1,2
	c-2.8,5.3-5,10.8-6.7,16.5c-0.8,2.9-1.5,5.8-2.1,8.7c-0.1,0.7-0.3,1.5-0.4,2.2c-0.1,0.7-0.2,1.5-0.3,2.2c-0.1,0.7-0.2,1.5-0.2,2.2
	c0,0.4,0,0.7-0.1,1.1l27.3-7.6l3.5-1l3.5-1l7.1-2l13.6-3.8c1.1-6.7,2.6-13.3,4.5-19.8c1-3.4,2.1-6.7,3.3-9.9
	c0.6-1.6,1.2-3.3,1.9-4.9c0.7-1.6,1.3-3.2,2.1-4.8c0.7-1.6,1.5-3.2,2.2-4.8c0.4-0.8,0.8-1.6,1.2-2.3l0.6-1.2l0.6-1.2
	c0.8-1.5,1.6-3.1,2.5-4.6c0.4-0.8,0.9-1.5,1.3-2.3c0.4-0.8,0.9-1.5,1.3-2.3c0.8-1.4,1.7-2.8,2.6-4.1c-4.2,1.5-8.4,3-12.7,4.3
	c-13.7,4.3-27.7,7.6-41.8,10.3l-42.2,8.3c-28.2,5.5-56.3,11.1-84.6,16.3c28.1-6,56.2-11.7,84.4-17.3l42.2-8.5c7-1.4,14-2.9,21-4.7
	c6.9-1.7,13.9-3.6,20.7-5.8c4.9-1.5,9.7-3.2,14.5-5c2.5-3.8,5.1-7.5,7.9-11.2c1.5-1.9,3-3.8,4.5-5.7c-0.3,0.1-0.6,0.2-1,0.2
	c-0.5,0.1-0.9,0.1-1.4,0.1c-0.5,0-1-0.2-1.4-0.4c-0.1-0.1-0.2-0.1-0.3-0.2c-0.8,0.6-1.7,1.1-2.7,1.6c-1,0.5-2.1,0.9-3.2,1.2
	c-0.6,0.1-1.1,0.3-1.7,0.3c-0.3,0-0.6,0-1,0c-0.3,0-0.7-0.1-1.1-0.3c-0.2-0.1-0.4-0.2-0.6-0.4c-0.2-0.2-0.4-0.4-0.5-0.7l0-0.1l0-0.1
	c0,0,0-0.1,0-0.1c0-0.1,0-0.2-0.1-0.3c0,0,0,0,0,0c-0.4,0.5-0.8,0.9-1.3,1.3c-0.6,0.6-1.3,1.1-2,1.5c-0.3,0.2-0.7,0.4-1.1,0.6
	c-0.4,0.2-0.8,0.4-1.2,0.5c-0.8,0.3-1.6,0.5-2.5,0.7c-0.9,0.1-1.8,0.1-2.7-0.1c-0.1,0-0.2,0-0.3-0.1l-0.2,0c0,0-0.1,0-0.1,0l-0.1,0
	c-0.3-0.1-0.5-0.2-0.8-0.3c-0.5-0.3-0.9-0.7-1.2-1.1c-0.2-0.3-0.4-0.7-0.5-1c-1,0.7-2,1.4-3.1,2c-1.2,0.7-2.4,1.3-3.6,1.9
	c-2.5,1.2-5,2.2-7.6,3.1c-1.3,0.4-2.6,0.8-4,1.1c-0.7,0.1-1.4,0.3-2.1,0.3c-0.4,0-0.7,0-1.1,0c-0.4,0-0.8,0-1.2-0.2l-0.2,0l-0.2-0.1
	c-0.1,0-0.2-0.1-0.4-0.2c-0.2-0.1-0.5-0.3-0.7-0.6c0,0-0.1-0.1-0.1-0.1l-0.1-0.1c0-0.1-0.1-0.1-0.1-0.2c0-0.1-0.1-0.2-0.1-0.2
	c0,0,0-0.1,0-0.1l0-0.1l0-0.2c0-0.1,0-0.1,0-0.2l0-0.1c-0.6,0.6-1.2,1.1-1.8,1.6c-0.7,0.5-1.3,1.1-2,1.6c-1.4,1-2.9,1.9-4.7,2.4
	c-0.4,0.1-0.9,0.3-1.3,0.3c-0.5,0.1-0.9,0.1-1.4,0.2c-0.5,0-0.9,0-1.4-0.1c-0.1,0-0.2,0-0.3,0l-0.1,0l0,0l-0.1,0
	c-0.1,0-0.1,0-0.2-0.1c-0.3-0.1-0.6-0.2-0.8-0.4c-0.3-0.1-0.5-0.3-0.7-0.5c-0.6,0.3-1.1,0.6-1.7,0.9c-0.7,0.4-1.5,0.7-2.2,1.1
	c-1.5,0.7-3,1.3-4.6,1.9c-0.8,0.3-1.6,0.5-2.4,0.8c-0.8,0.2-1.6,0.4-2.5,0.6c-0.8,0.2-1.7,0.3-2.6,0.3c-0.4,0-0.9,0-1.4-0.1
	c-0.2,0-0.5-0.1-0.7-0.2c-0.1,0-0.3-0.1-0.4-0.1l-0.1,0c0,0,0,0-0.1,0l-0.1,0c-0.1,0-0.2-0.1-0.2-0.1c-0.3-0.2-0.5-0.4-0.7-0.7
	c-0.2-0.3-0.3-0.5-0.4-0.8c0-0.1,0-0.1-0.1-0.2c0-0.1,0-0.1-0.1-0.2c0,0,0-0.1,0-0.1c-0.8,0.5-1.7,1.1-2.6,1.5
	c-1.2,0.6-2.4,1.2-3.7,1.8c-2.5,1.1-5.1,2.1-7.7,2.9c-1.3,0.4-2.7,0.8-4,1c-0.7,0.1-1.4,0.2-2.1,0.3c-0.4,0-0.7,0-1.1,0
	c-0.4,0-0.8-0.1-1.2-0.2l-0.2-0.1l-0.2-0.1c-0.1,0-0.2-0.1-0.4-0.2c0,0-0.1-0.1-0.1-0.1c-0.6,0.2-1.2,0.5-1.9,0.7
	c-1,0.4-2.1,0.7-3.1,1.1c-1,0.4-2.1,0.7-3.1,1c-1,0.3-2.1,0.7-3.2,1c-4.2,1.3-8.5,2.4-12.8,3.3c-1.1,0.2-2.2,0.4-3.3,0.6
	c-1.1,0.2-2.2,0.3-3.3,0.5c-1.1,0.1-2.2,0.2-3.4,0.2c-0.6,0-1.2,0-1.7-0.1c-0.6-0.1-1.2-0.1-1.8-0.3c-0.3-0.1-0.6-0.2-0.9-0.4
	c-0.3-0.2-0.6-0.4-0.9-0.6c-0.3-0.3-0.6-0.7-0.7-1.1c-0.2-0.4-0.2-0.8-0.2-1.2c0-0.4,0.1-0.7,0.2-1.1c0.1-0.3,0.2-0.6,0.4-0.9
	c0.1-0.3,0.3-0.5,0.5-0.8c0.1-0.1,0.2-0.3,0.2-0.4l0.1-0.2l0.1-0.2c0.2-0.3,0.5-0.6,0.7-0.9c0,0,0,0-0.1,0.1l-1.3,1
	c-0.4,0.3-0.9,0.7-1.3,1l-1.3,1l-0.7,0.5c-0.2,0.2-0.5,0.3-0.7,0.5l-1.4,1c-0.2,0.2-0.4,0.3-0.7,0.5l-0.7,0.5
	c-0.9,0.6-1.8,1.2-2.8,1.8l-1.4,0.9c-0.2,0.2-0.5,0.3-0.7,0.4l-0.7,0.4l-1.4,0.9c-0.5,0.3-1,0.5-1.4,0.8
	c-7.7,4.4-15.9,7.9-24.3,10.3c8.2-3.2,16.1-7.1,23.5-11.7c0.5-0.3,0.9-0.6,1.4-0.9l1.4-0.9c0.5-0.3,0.9-0.6,1.4-0.9l1.4-0.9
	c0.9-0.6,1.8-1.2,2.7-1.9l0.7-0.5c0.2-0.2,0.4-0.3,0.7-0.5l1.3-1c0.2-0.2,0.4-0.3,0.7-0.5l0.6-0.5l1.3-1c0.4-0.3,0.9-0.7,1.3-1
	l1.3-1c1.7-1.4,3.4-2.8,4.9-4.3c0.4-0.4,0.7-0.8,1.1-1.1c0.3-0.4,0.7-0.8,1-1.2c0.3-0.4,0.6-0.8,0.8-1.3l0.2-0.3l0.2-0.3
	c0.1-0.1,0.1-0.2,0.1-0.3l0.1-0.2c0-0.1,0-0.1,0.1-0.2c0.2-0.5,0.3-0.9,0.4-1.4c0-0.2,0.1-0.5,0.1-0.7c0-0.2,0-0.5,0-0.7
	c0-0.5,0-1-0.1-1.4c-0.1-0.5-0.2-0.9-0.5-1.3c0-0.1,0-0.1-0.1-0.2l-0.1-0.1l-0.1-0.2l-0.1-0.1l-0.1-0.1c0,0-0.1-0.1-0.1-0.1
	c-0.1-0.1-0.1-0.2-0.2-0.3c-0.3-0.3-0.7-0.7-1-0.9c-0.8-0.5-1.7-0.9-2.7-1.1c-1-0.2-2-0.3-3.1-0.3c-1,0-2.1,0.1-3.1,0.3
	c-0.5,0.1-1,0.2-1.6,0.3c-0.5,0.1-1.1,0.2-1.6,0.4c-1.1,0.3-2.1,0.6-3.1,0.9c-2.1,0.6-4.1,1.4-6.2,2.2c-4,1.6-7.9,3.7-11.7,6
	c0.4-0.4,0.9-0.7,1.4-1c-0.3,0.2-0.5,0.3-0.8,0.5c6.6-4.5,12.9-9.4,18.7-14.7l1.1-1l1.1-1l0.5-0.5l0.5-0.5l1.1-1
	c0.7-0.7,1.4-1.4,2.1-2.1c0.3-0.4,0.7-0.7,1-1.1c0.3-0.4,0.7-0.7,1-1.1c0.6-0.7,1.2-1.5,1.6-2.2c0.2-0.4,0.4-0.8,0.5-1.2
	c0.1-0.4,0.2-0.8,0.2-1.2c0-0.8-0.2-1.6-0.6-2.2c0-0.1-0.1-0.1-0.2-0.2c-0.1-0.1-0.1-0.1-0.2-0.2c-0.1-0.1-0.3-0.2-0.4-0.3
	c-0.2-0.1-0.3-0.2-0.5-0.3c-0.1,0-0.2-0.1-0.3-0.1c-0.1,0-0.2-0.1-0.3-0.1c-0.8-0.2-1.7-0.3-2.6-0.3c-0.9,0-1.8,0.2-2.7,0.4
	c-0.2,0.1-0.4,0.1-0.7,0.2c-0.1,0-0.2,0.1-0.3,0.1l-0.4,0.1l-1.4,0.5c-0.2,0.1-0.5,0.2-0.7,0.2l-0.7,0.3l-1.4,0.5
	c-3.7,1.4-7.3,3-10.9,4.7c-0.7,0.3-1.4,0.7-2.1,1.1c-0.5,5-1.5,10-2.7,15c-1.7,6.5-3.9,12.8-6.6,18.9c-2.8,6.1-6,11.9-9.8,17.4
	c-3.8,5.5-8,10.7-12.8,15.3c4.1-5.2,7.9-10.6,11.3-16.2c3.5-5.6,6.5-11.4,9.3-17.4c2.7-6,5-12.1,7-18.4c1.4-4.7,2.7-9.4,3.7-14.2
	c-0.4,0.2-0.8,0.4-1.2,0.7l-1.3,0.7l-1.3,0.7c-0.4,0.2-0.9,0.5-1.3,0.7c-0.9,0.5-1.7,1-2.6,1.5c-3.4,2.1-6.7,4.3-10,6.5
	c3-2.6,6.2-5,9.5-7.4c0.4-0.3,0.8-0.6,1.2-0.9l1.2-0.8c0.4-0.3,0.8-0.5,1.3-0.8l1.3-0.8c1.2-0.7,2.4-1.5,3.7-2.2c0.2-1,0.4-2,0.6-3
	c-0.1,0.9-0.1,1.9-0.2,2.8c0.4-0.2,0.8-0.4,1.1-0.6l1.3-0.7l1.3-0.7c0.9-0.5,1.8-0.9,2.7-1.3c0.2-0.1,0.5-0.2,0.7-0.3l0.7-0.3
	l1.4-0.6c0.5-0.2,0.9-0.4,1.4-0.6c0.5-0.2,0.9-0.4,1.4-0.6l1.4-0.5l0.7-0.3c0.2-0.1,0.5-0.2,0.7-0.3l1.4-0.5l0.4-0.1
	c0.1,0,0.3-0.1,0.4-0.1c0.3-0.1,0.5-0.1,0.8-0.2c1-0.3,2.1-0.4,3.2-0.4c0.5,0,1.1,0,1.6,0.1c0.5,0.1,1.1,0.2,1.7,0.3
	c0.3,0.1,0.6,0.2,0.8,0.3c0.3,0.1,0.5,0.3,0.8,0.4c0.3,0.2,0.5,0.4,0.7,0.6c0.1,0.1,0.2,0.2,0.3,0.4c0.1,0.1,0.2,0.3,0.3,0.4
	c0.3,0.5,0.6,1.1,0.7,1.7c0.1,0.6,0.2,1.2,0.2,1.8c0,0.6-0.1,1.2-0.3,1.7c-0.2,0.6-0.4,1.1-0.7,1.6c-0.5,1-1.2,1.8-1.9,2.6
	c-0.3,0.4-0.7,0.8-1.1,1.1c-0.4,0.4-0.7,0.7-1.1,1.1c-0.7,0.7-1.4,1.4-2.2,2.1c-1.5,1.4-3,2.7-4.5,4c-3,2.6-6.2,5-9.5,7.2
	c0.1-0.1,0.2-0.1,0.3-0.2c2-1,4-1.8,6.1-2.6l0.4-0.1l0.4-0.1l0.8-0.3c0.3-0.1,0.5-0.2,0.8-0.3l0.8-0.2c0.5-0.2,1.1-0.3,1.6-0.5
	c0.5-0.2,1.1-0.3,1.6-0.4c1.1-0.2,2.2-0.4,3.4-0.4c1.2-0.1,2.3,0,3.5,0.2c1.2,0.2,2.3,0.6,3.4,1.3c0.5,0.3,1,0.8,1.4,1.2
	c0.4,0.5,0.8,1,1.1,1.6l0.2,0.4c0.1,0.1,0.1,0.3,0.2,0.4c0.1,0.1,0.1,0.3,0.1,0.5l0.1,0.2c0,0.1,0,0.2,0.1,0.2
	c0.1,0.6,0.2,1.2,0.2,1.9c0,0.3,0,0.6,0,0.9c0,0.3-0.1,0.6-0.1,0.9c-0.1,0.6-0.3,1.2-0.5,1.8c0,0.1,0,0.1-0.1,0.2l-0.1,0.2
	c-0.1,0.1-0.1,0.3-0.2,0.4l-0.2,0.4l-0.2,0.4c0,0.1-0.1,0.2-0.2,0.3c1.9-1.6,3.9-3.1,5.9-4.6c1.8-1.3,3.7-2.5,5.7-3.5
	c1-0.5,2-1,3-1.5c0.5-0.2,1-0.4,1.6-0.6c0.5-0.2,1.1-0.4,1.7-0.5c0.3-0.1,0.6-0.1,0.9-0.1c0.3,0,0.7,0,1.1,0.1
	c0.2,0.1,0.4,0.2,0.6,0.3c0.2,0.2,0.4,0.4,0.5,0.6c0.1,0.1,0.1,0.2,0.1,0.3c0,0.1,0,0.2,0,0.3c0,0.1,0,0.2,0,0.3c0,0.1,0,0.2,0,0.3
	c0,0.4-0.1,0.7-0.3,1c-0.1,0.3-0.3,0.6-0.4,0.8c-0.3,0.5-0.6,1-1,1.4c-0.7,0.9-1.5,1.7-2.3,2.5c-0.8,0.8-1.6,1.5-2.4,2.3
	c-0.8,0.7-1.7,1.4-2.5,2.1c-0.9,0.7-1.7,1.4-2.6,2c-0.9,0.7-1.8,1.3-2.7,2c-0.9,0.6-1.8,1.3-2.7,1.9c0.8-0.7,1.7-1.4,2.5-2.1
	c0.8-0.7,1.7-1.4,2.5-2.2c1.6-1.5,3.3-2.9,4.8-4.5c0.8-0.8,1.5-1.5,2.3-2.4c0.7-0.8,1.4-1.6,2-2.5c0.3-0.4,0.6-0.9,0.8-1.3
	c0.1-0.2,0.2-0.4,0.3-0.7c0.1-0.2,0.1-0.4,0.1-0.6c0,0,0-0.1,0-0.1c0,0,0-0.1,0-0.1c0,0,0-0.1,0-0.1c0,0,0,0,0,0c0,0,0,0,0,0
	c0,0-0.1,0-0.1,0c-0.1,0-0.3,0-0.5,0c-0.2,0-0.5,0.1-0.7,0.1c-0.5,0.1-1,0.3-1.5,0.5c-0.5,0.2-1,0.4-1.5,0.6c-1,0.5-1.9,1-2.8,1.5
	c-1.9,1.1-3.7,2.3-5.4,3.5c-1.8,1.3-3.5,2.6-5.1,4c-1.7,1.4-3.3,2.9-4.8,4.4c-1.5,1.5-2.9,3.2-4.2,4.9l-0.1,0.2l-0.1,0.2
	c-0.1,0.1-0.1,0.2-0.2,0.3c-0.1,0.2-0.3,0.4-0.4,0.6c-0.2,0.4-0.4,0.8-0.4,1.2c0,0.2,0,0.3,0,0.4c0,0.1,0.1,0.2,0.2,0.3
	c0.2,0.2,0.6,0.4,1,0.5c0.4,0.1,0.9,0.2,1.4,0.3c0.5,0.1,1,0.1,1.5,0.1c1.1,0,2.1,0,3.2-0.1c1.1-0.1,2.1-0.2,3.2-0.4
	c1.1-0.1,2.2-0.3,3.2-0.5c4.3-0.7,8.6-1.7,12.9-2.7c3.8-0.9,7.6-1.8,11.4-2.8c-0.1-0.1-0.3-0.2-0.4-0.4c0,0-0.1-0.1-0.1-0.1
	l-0.1-0.1c0-0.1-0.1-0.1-0.1-0.2c0-0.1-0.1-0.2-0.1-0.2c0,0,0-0.1,0-0.1l0-0.1l0-0.2c0-0.1,0-0.1,0-0.2l0-0.3c0-0.4,0-0.8,0-1.2
	c0-0.4,0.1-0.7,0.1-1.1c0.1-0.7,0.3-1.4,0.5-2.1c0.2-0.7,0.4-1.3,0.6-2c0.4-1.3,0.9-2.6,1.4-3.9c0.5-1.3,1-2.5,1.6-3.8
	c0.6-1.2,1.1-2.5,1.7-3.7c0.3-0.6,0.6-1.2,0.9-1.8l0.9-1.8c1.2-2.4,2.5-4.8,3.8-7.2c0.7-1.2,1.3-2.4,2-3.5c0.7-1.2,1.4-2.3,2.1-3.5
	c-2.1,5-4.4,9.9-6.5,14.9l-0.8,1.9l-0.8,1.9c-0.5,1.2-1.1,2.5-1.6,3.7c-0.5,1.2-1,2.5-1.5,3.8c-0.5,1.3-0.9,2.5-1.3,3.8
	c-0.2,0.6-0.4,1.3-0.6,1.9c-0.2,0.6-0.3,1.3-0.4,1.9c-0.1,0.6-0.2,1.2-0.2,1.8l0,0.2c0,0,0,0.1,0,0.1l0,0.1l0,0c0,0,0,0,0,0
	c0,0,0,0,0,0c0,0,0,0,0,0l0,0c0,0,0,0,0,0c0,0,0,0,0.1,0.1c0,0,0.1,0,0.1,0.1l0.1,0l0.1,0c0.2,0.1,0.5,0.1,0.8,0.1
	c0.3,0,0.6,0,0.9,0c0.6,0,1.3-0.1,1.9-0.2c0.6-0.1,1.3-0.2,1.9-0.3c0.7-0.1,1.3-0.3,2-0.4c2.6-0.6,5.2-1.4,7.7-2.2
	c1.3-0.4,2.6-0.9,3.8-1.3c0.6-0.2,1.3-0.5,1.9-0.7c0.3-0.1,0.6-0.3,0.9-0.4c0,0,0-0.1,0-0.1c0-0.1,0-0.2-0.1-0.4l0-0.2l0-0.2
	c0-0.5,0-0.9,0-1.4c0-0.4,0.1-0.9,0.2-1.3c0.2-0.8,0.4-1.7,0.6-2.5c0.1-0.4,0.2-0.8,0.4-1.2c0.1-0.4,0.3-0.8,0.4-1.2
	c0.6-1.6,1.3-3.1,2-4.5c0.4-0.7,0.8-1.5,1.2-2.2c0.4-0.7,0.8-1.4,1.3-2.1c-1,3.1-2,6.2-2.8,9.3c-0.4,1.6-0.8,3.1-1,4.6
	c-0.1,0.8-0.2,1.5-0.1,2.2c0,0.3,0.1,0.7,0.2,0.9c0,0.1,0.1,0.2,0.1,0.3c0.1,0.1,0.1,0.1,0.1,0.1c0,0,0,0,0,0l0,0c0,0,0,0,0,0l0,0
	c0.1,0,0.1,0,0.2,0.1c0.1,0,0.3,0.1,0.4,0.1c0.3,0,0.7,0.1,1,0.1c0.7,0,1.5-0.1,2.3-0.2c1.6-0.2,3.1-0.6,4.7-1
	c2.9-0.7,5.9-1.6,8.9-2.4c-0.2-0.2-0.3-0.4-0.5-0.6c-0.3-0.5-0.5-1-0.6-1.5c-0.2-1-0.2-2,0-2.9c0.2-0.9,0.5-1.8,0.8-2.7
	c0.4-0.8,0.8-1.6,1.3-2.4c0.5-0.7,1.1-1.4,1.7-2.1c0.6-0.7,1.2-1.2,1.9-1.8c0.3-0.3,0.7-0.6,1.1-0.8c0.4-0.3,0.8-0.5,1.2-0.7
	c0.8-0.4,1.8-0.7,2.7-0.7c0.5,0,1,0.1,1.4,0.3c0.4,0.2,0.8,0.4,1.2,0.8c0.7,0.6,1.1,1.4,1.4,2.2c-0.2-0.4-0.5-0.7-0.8-1
	c-0.3-0.3-0.6-0.6-0.9-0.8c-0.7-0.4-1.4-0.6-2.2-0.5c-0.2,0-0.4,0.1-0.5,0.1c-0.2,0-0.4,0.1-0.5,0.2c-0.3,0.1-0.7,0.3-1,0.5
	c-0.3,0.2-0.6,0.4-0.9,0.7c-0.3,0.3-0.6,0.5-0.9,0.8c-0.3,0.3-0.6,0.6-0.8,0.9c-0.3,0.3-0.5,0.6-0.8,0.9c-0.5,0.6-1,1.3-1.4,2
	c-0.4,0.7-0.8,1.4-1.1,2.1c-0.3,0.7-0.5,1.4-0.7,2.2c-0.1,0.7-0.2,1.5,0,2.1c0.1,0.3,0.2,0.6,0.3,0.9c0.1,0.2,0.3,0.4,0.5,0.6
	c0.1,0.1,0.2,0.1,0.3,0.2c0,0,0.1,0,0.1,0c0,0,0,0,0,0l0,0l0.1,0c0.1,0,0.2,0,0.3,0.1c0.4,0.1,0.7,0.1,1.1,0.1c0.4,0,0.8,0,1.1,0
	c0.4,0,0.8-0.1,1.2-0.2c1.5-0.3,3.1-1,4.6-1.7c0.8-0.4,1.5-0.8,2.2-1.2l2.1-1.2l0-0.1c0-0.4,0-0.8,0-1.2c0-0.4,0.1-0.7,0.1-1.1
	c0.1-0.7,0.2-1.4,0.4-2.1c0.2-0.7,0.3-1.4,0.5-2c0.4-1.3,0.8-2.6,1.3-3.9c0.5-1.3,1-2.6,1.5-3.8c0.5-1.3,1.1-2.5,1.6-3.8
	c0.3-0.6,0.6-1.2,0.8-1.9l0.9-1.8c1.2-2.5,2.4-4.9,3.7-7.3c0.6-1.2,1.3-2.4,2-3.6c0.7-1.2,1.3-2.4,2.1-3.5c-2,5.1-4.1,10-6.1,15.1
	l-0.8,1.9l-0.8,1.9c-0.5,1.3-1,2.5-1.5,3.8c-0.5,1.3-0.9,2.5-1.4,3.8c-0.4,1.3-0.9,2.5-1.2,3.8c-0.2,0.6-0.4,1.3-0.5,1.9
	c-0.2,0.6-0.3,1.3-0.4,1.9c-0.1,0.6-0.2,1.2-0.1,1.8l0,0.2c0,0,0,0.1,0,0.1l0,0.1l0,0c0,0,0,0,0,0c0,0,0,0,0,0c0,0,0,0,0,0l0,0
	c0,0,0,0,0,0c0,0,0,0,0.1,0.1c0,0,0.1,0,0.1,0.1l0.1,0l0.1,0c0.2,0.1,0.5,0.1,0.8,0.1c0.3,0,0.6,0,0.9,0c0.6,0,1.3-0.1,1.9-0.2
	c0.6-0.1,1.3-0.2,1.9-0.4c0.6-0.1,1.3-0.3,1.9-0.5c2.6-0.7,5.1-1.5,7.7-2.4c1.3-0.5,2.5-0.9,3.8-1.4c0.6-0.3,1.2-0.5,1.9-0.8
	c0.5-0.2,1-0.5,1.4-0.7c0-0.1-0.1-0.2-0.1-0.3c-0.1-0.5-0.2-1-0.2-1.4c0-0.9,0.1-1.9,0.3-2.7c0.2-0.9,0.6-1.7,1-2.5
	c0.4-0.8,0.9-1.5,1.4-2.2c0.5-0.7,1.1-1.3,1.7-1.9c0.3-0.3,0.6-0.6,0.9-0.9c0.3-0.3,0.6-0.6,1-0.8c0.3-0.3,0.7-0.5,1.1-0.7
	c0.4-0.2,0.8-0.4,1.2-0.6c0.4-0.2,0.8-0.3,1.3-0.4c0.4-0.1,0.9-0.1,1.4-0.1c0.5,0,0.9,0.2,1.3,0.4c0.4,0.2,0.8,0.5,1.1,0.8
	c0.6,0.6,1,1.4,1.3,2.1c-0.2-0.3-0.5-0.7-0.8-0.9c-0.3-0.3-0.6-0.5-0.9-0.7c-0.6-0.4-1.4-0.6-2.1-0.5c-0.7,0.1-1.4,0.3-2,0.7
	c-0.3,0.2-0.6,0.4-0.9,0.6c-0.3,0.2-0.6,0.5-0.9,0.7c-0.3,0.3-0.5,0.5-0.8,0.8c-0.3,0.3-0.5,0.6-0.8,0.9c-0.5,0.6-1,1.2-1.4,1.8
	c-0.4,0.6-0.8,1.3-1.2,1.9c-0.3,0.7-0.6,1.4-0.8,2.1c-0.1,0.3-0.2,0.7-0.2,1c0,0.3-0.1,0.7-0.1,1c0,0.7,0.2,1.3,0.5,1.8
	c0.1,0.2,0.3,0.4,0.5,0.6c0.1,0.1,0.2,0.1,0.3,0.2l0,0c0,0,0,0,0.1,0l0.1,0c0.1,0,0.2,0,0.3,0.1c0.7,0.2,1.4,0.3,2.1,0.3
	c1.5,0,3-0.4,4.4-1.1c1.3-0.6,2.5-1.3,3.7-2.1c0-0.1,0-0.2,0-0.3c0-0.3,0-0.6,0-0.9c0-0.3,0-0.6,0.1-0.9c0.2-1.2,0.4-2.3,0.8-3.3
	c0.3-1.1,0.7-2.1,1.1-3.1c0.4-1,0.9-2,1.4-3c0.3-0.5,0.5-1,0.8-1.5c0.3-0.5,0.6-1,0.9-1.4c-0.1,0.6-0.2,1.1-0.3,1.6
	c-0.1,0.5-0.2,1.1-0.4,1.6c-0.3,1.1-0.5,2.1-0.8,3.2c-0.3,1-0.5,2.1-0.8,3.1c-0.2,1-0.5,2.1-0.6,3.1c-0.1,0.5-0.1,1-0.1,1.4
	c0,0.1,0,0.2,0,0.3c0,0,0,0.1,0,0.1c0,0,0,0,0,0.1l0,0c0,0,0,0,0,0c0.1,0.1,0.3,0.1,0.5,0.2c0.2,0,0.4,0.1,0.7,0.1
	c0.5,0,1,0,1.5-0.1c1-0.1,2.1-0.3,3.1-0.5c0.5-0.1,1.1-0.2,1.6-0.4l1.3-0.3c-0.3-0.2-0.6-0.5-0.7-0.9c-0.2-0.5-0.3-0.9-0.4-1.4
	c-0.1-0.5-0.1-0.9,0-1.4c0.1-0.9,0.2-1.8,0.5-2.6c0.2-0.9,0.5-1.7,0.8-2.5c0.3-0.8,0.6-1.6,1-2.4c0.4-0.8,0.7-1.6,1.1-2.3
	c-0.7,1.6-1.2,3.2-1.7,4.9c-0.2,0.8-0.4,1.7-0.6,2.5c-0.2,0.8-0.3,1.7-0.3,2.5c0,0.4,0,0.8,0.1,1.2c0.1,0.4,0.2,0.8,0.4,1.1
	c0.2,0.3,0.4,0.6,0.7,0.7c0.3,0.2,0.7,0.2,1,0.2c0.8,0,1.6-0.2,2.4-0.5c0.5-0.2,0.9-0.3,1.3-0.5c0.2-0.3,0.4-0.5,0.6-0.8l3.3-4
	c0.5-0.7,1.1-1.3,1.6-2c0.1-0.2,0.3-0.3,0.4-0.5l0.2-0.3l0.2-0.3l0.4-0.5l0.4-0.5c1-1.4,2.1-2.8,3.3-4.2c1.2-1.3,2.4-2.6,3.8-3.8
	c0.7-0.6,1.4-1.1,2.3-1.6c0.2-0.1,0.4-0.2,0.7-0.3c0.2-0.1,0.5-0.2,0.8-0.2c0.2,0,0.3,0,0.5,0c0.2,0,0.4,0,0.6,0.1
	c0.2,0.1,0.4,0.2,0.6,0.4c0.2,0.2,0.3,0.4,0.4,0.5c0.2,0.4,0.2,0.7,0.2,1c0,0.1,0,0.3,0,0.4c0,0.1,0,0.1,0,0.2c0,0.1,0,0.1,0,0.2
	c-0.1,0.3-0.1,0.5-0.2,0.8c-0.1,0.2-0.2,0.5-0.3,0.7c-0.5,0.8-1,1.6-1.6,2.3c-1.1,1.4-2.4,2.7-3.7,3.9c-1.3,1.2-2.6,2.4-4,3.4
	c-1.4,1.1-2.8,2.1-4.3,3.1c-1.1,0.7-2.2,1.4-3.4,2l-0.4,0.5c-2.2,2.7-4.3,5.4-6.4,8.2c-2.1,2.8-4.1,5.6-6.1,8.5
	c0.8-0.3,1.5-0.6,2.3-0.9c3.3-1.3,6.6-2.8,9.8-4.3c3.2-1.5,6.4-3.1,9.6-4.8c3.1-1.7,6.2-3.5,9.2-5.5c1.5-1,3-2,4.4-3
	c0.4-0.3,0.7-0.5,1.1-0.8l0.5-0.4l0.5-0.4l0.5-0.4c0.2-0.1,0.3-0.3,0.5-0.4c0.3-0.3,0.7-0.6,1-0.9c1.3-1.2,2.5-2.4,3.5-3.9
	c0.5-0.7,0.9-1.5,1.1-2.2c0.3-0.8,0.4-1.6,0.4-2.4c0-0.8-0.2-1.6-0.6-2.3c-0.4-0.7-0.9-1.3-1.5-1.8c-0.6-0.5-1.4-0.9-2.1-1.3
	c-0.8-0.4-1.6-0.7-2.4-1c-1.7-0.6-3.4-1.2-5.1-2.1c-0.8-0.4-1.6-1-2.3-1.6c-0.4-0.3-0.7-0.7-1-1.1c-0.3-0.4-0.6-0.8-0.8-1.2
	c-0.4-0.9-0.7-1.8-0.9-2.8c-0.1-1-0.1-1.9,0-2.9c0.1-0.7,0.3-1.4,0.5-2c-3.2,0.6-6.4,0.9-9.7,1c-3.6,0.1-7.2-0.2-10.8-0.7
	c3.6,0.3,7.2,0.4,10.7,0.1c3.4-0.2,6.7-0.7,10-1.4c0.3-0.8,0.7-1.6,1.1-2.3c0.5-0.8,1.1-1.5,1.8-2.2c0.7-0.7,1.4-1.2,2.2-1.8
	c1.5-1,3.1-1.9,4.8-2.7c0.8-0.4,1.7-0.7,2.6-1c0.9-0.3,1.8-0.6,2.7-0.7c0.5-0.1,0.9-0.2,1.4-0.2c0.5,0,1,0,1.5,0
	c0.5,0.1,1,0.2,1.5,0.5c0.1,0.1,0.2,0.2,0.4,0.3c0.1,0.1,0.1,0.1,0.2,0.2c0,0,0,0.1,0.1,0.1c0,0,0.1,0.1,0.1,0.1
	C787,265.5,787,265.7,787.1,265.9z M753.4,306.1c0.1-0.1,0.2-0.1,0.2-0.2c1.4-1,2.8-2,4.1-3.1c1.3-1.1,2.6-2.2,3.8-3.4
	c1.2-1.2,2.4-2.4,3.4-3.8c0.5-0.7,1-1.3,1.4-2c0.1-0.2,0.2-0.3,0.2-0.5c0.1-0.2,0.1-0.3,0.1-0.5c0,0,0-0.1,0-0.1c0,0,0-0.1,0-0.1
	c0-0.1,0-0.2,0-0.2c0-0.1,0-0.2,0-0.3c0,0-0.1,0-0.2,0c-0.1,0-0.3,0.1-0.4,0.1c-0.2,0.1-0.3,0.1-0.5,0.2c-0.7,0.4-1.3,0.9-2,1.4
	c-1.3,1.1-2.4,2.3-3.5,3.6c-1.1,1.3-2.1,2.7-3.1,4.1l-0.4,0.5l-0.4,0.5l-0.2,0.3l-0.2,0.3c-0.1,0.2-0.3,0.4-0.4,0.5
	c-0.5,0.7-1.1,1.4-1.6,2.1L753.4,306.1z M785.8,266C785.8,266,785.8,266,785.8,266C785.7,265.9,785.7,265.9,785.8,266
	c0-0.1-0.1-0.1-0.1-0.1c0,0,0-0.1-0.1-0.1c0,0-0.1-0.1-0.2-0.1c-0.2-0.2-0.6-0.3-1-0.3c-0.4,0-0.8,0-1.2,0c-0.4,0-0.8,0.1-1.3,0.2
	c-0.8,0.2-1.7,0.4-2.5,0.7c-0.8,0.3-1.6,0.6-2.4,1c-1.6,0.7-3.1,1.6-4.6,2.6c-0.7,0.5-1.4,1-2,1.6c-0.6,0.6-1.1,1.3-1.6,2
	c-0.2,0.4-0.4,0.8-0.6,1.2c3.1-0.8,6.1-1.8,9-3c0.4-0.2,0.8-0.4,1.2-0.5c0.4-0.2,0.8-0.4,1.2-0.6c0.8-0.4,1.6-0.8,2.3-1.2
	c0.8-0.4,1.5-0.9,2.2-1.4c0.3-0.3,0.7-0.5,0.9-0.8c0.1-0.1,0.3-0.3,0.4-0.4c0.1-0.1,0.2-0.3,0.2-0.4
	C785.8,266.1,785.8,266.1,785.8,266z M527.6,85.6c6.5-3.8,17.9-9.2,34.8-13.8l-0.3-1c-17.1,4.6-28.5,10.1-35.1,14
	c-7.2,4.2-10.2,7.2-10.4,7.3l0.7,0.7C517.4,92.7,520.5,89.7,527.6,85.6z"/>
</svg>
