<?xml version="1.0" encoding="utf-8"?>
<!-- Generator: Adobe Illustrator 22.0.1, SVG Export Plug-In . SVG Version: 6.00 Build 0)  -->
<svg version="1.1" id="FLYING_x5F_car_x5F_v1" xmlns="http://www.w3.org/2000/svg" xmlns:xlink="http://www.w3.org/1999/xlink"
	 x="0px" y="0px" viewBox="0 0 815 510" style="enable-background:new 0 0 815 510;" xml:space="preserve">
<style type="text/css">
	.st0{fill:#A97DFF;}
	.st1{fill:#8255E5;}
	.st2{fill:#9169F4;}
	.st3{fill:#FFB600;}
	.st4{fill:#F9CC69;}
	.st5{opacity:0.4;fill:#F9F9F9;}
	.st6{opacity:0.3;fill:#F9F9F9;}
	.st7{fill:#22183D;}
	.st8{fill:#EDEDED;}
	.st9{filter:url(#Adobe_OpacityMaskFilter);}
	.st10{filter:url(#Adobe_OpacityMaskFilter_1_);}
	.st11{mask:url(#SVGID_1_);fill:url(#SVGID_2_);}
	.st12{fill:url(#SVGID_3_);}
	.st13{fill:#140D00;}
	.st14{filter:url(#Adobe_OpacityMaskFilter_2_);}
	.st15{filter:url(#Adobe_OpacityMaskFilter_3_);}
	.st16{mask:url(#SVGID_4_);fill:url(#SVGID_5_);}
	.st17{fill:url(#SVGID_6_);}
</style>
<path id="body_x5F_main_7_" class="st0" d="M788.8,250.7l4.5-18c0.7-2.8-1.1-5.6-3.9-6c-17.2-2.8-72.2-11.7-95.2-14l-185.6-17.3
	c-0.8-0.1-4.1-2.2-4.7-2.6l-77.6-49.5c-2.4-1.5-5-2.5-7.8-2.9c-30.9-4.3-71-4.7-71-4.7c-159.4,0-286.6,84.2-319.7,108.5
	c-4.6,3.4-5.4,10-1.6,14.3l35.1,40.3c2.7,3.1,6.3,5.3,10.3,6.2c89.3,21.1,203.3,22,203.3,22s218.3,0,330.9,0
	c89.9,0,143.6-20.6,161.6-28.9c4.6-2.1,8.2-5.9,10-10.6C784.8,268.4,788.8,250.7,788.8,250.7z"/>
<path id="body_x5F_bottom_7_" class="st1" d="M71.6,305c48,20.7,111.8,22,111.8,22s309.9,0,422.5,0c70.1,0,118.2-12.5,144.5-22
	L71.6,305z"/>
<path id="body_x5F_mid_7_" class="st2" d="M788.8,250.7l-764.8,0c-0.4,2.7,0.3,5.6,2.3,7.9l35.1,40.3c2.7,3.1,6.3,5.3,10.3,6.2
	l678.8,0c7.4-2.7,13.1-5.1,17.1-6.9c4.6-2.1,8.2-5.9,10-10.6C784.8,268.4,788.8,250.7,788.8,250.7z"/>
<path id="ligh_x5F_back_7_" class="st3" d="M83.6,208.7c0,0-0.6,23.6-34.1,20.6l0,0C58.9,223.2,70.3,216.1,83.6,208.7L83.6,208.7z"
	/>
<path id="light_x5F_front_7_" class="st3" d="M756.3,224.6c0,0,7.7,22.3,33.5,21.5l0,0l3.5-13.9c0.7-2.6-1.1-5.2-3.7-5.6
	c-8.9-1.4-27.6-4.4-34.3-5.5L756.3,224.6z"/>
<path id="front_x5F_color_7_" class="st3" d="M694.1,212.6l-185.6-17.3c0,0,3.4,2.2,13.3,4.1l64.7,7.8l166,13.5
	C733.1,217.5,714,214.6,694.1,212.6z"/>
<path id="glass_x5F_front_7_" class="st4" d="M423.6,143.7l-1.2,2c0,2.8,1.2,5.5,3.3,7.3l42.6,37.8c1.8,1.6,4.8,4.3,8.8,4.3h31.1
	l-2.8-1.8c-0.6-0.1-1.1-0.3-1.6-0.6l-77.6-49.5c-1.2-0.8-1.9-1-1.9-1L423.6,143.7z"/>
<path id="glass_x5F_mid_7_" class="st4" d="M404.6,152.8l-4.5-3.3H286.2c-6.5,0-11.2,6.3-9.4,12.6l7,26.1c1.2,4.2,5.1,7,9.4,7h153
	h2.9C430.7,173.1,417.7,162.8,404.6,152.8z"/>
<path id="glass_x5F_back_7_" class="st4" d="M235,156.2c-34.5,8.6-68.2,21.7-88.5,30.3c-4.5,1.9-3.2,8.7,1.8,8.7h95.2
	c6,0,10.4-5.8,8.7-11.6l-6.2-21.2C244.5,157.8,239.7,155,235,156.2z"/>
<path id="blink_x5F_front_7_" class="st5" d="M446.6,171.7l-13.9-12.3l3-10l15.3,9.7C449.6,163.3,448.1,167.5,446.6,171.7z
	 M505.4,193.4c-0.6-0.1-1.1-0.3-1.6-0.6l-38.4-24.5c-1.3,3.8-2.6,7.5-4,11.3c-0.5,1.3-1,2.7-1.5,4l8.3,7.4c1.8,1.6,4.8,4.3,8.8,4.3
	h31.1L505.4,193.4z"/>
<path id="blink_x5F_mid_7_" class="st6" d="M313.7,149.5l-13.9,45.7h-6.6c-0.7,0-1.4-0.1-2.1-0.2l13.9-45.5H313.7z M415.6,161.5
	l-10.3,33.7h7.5l8.7-28.6C419.6,164.8,417.6,163.1,415.6,161.5z M404.6,152.8l-3.2-2.4l-13.6,44.7h7.5l12.2-40.1
	C406.6,154.3,405.6,153.6,404.6,152.8z M346.2,149.5l-13.9,45.7h7.5l13.9-45.7H346.2z M322.6,149.5l-13.9,45.7h13.4l13.9-45.7H322.6
	z"/>
<path id="blink_x5F_back_7_" class="st6" d="M243.2,158.3L232,195.2h-7.5l12-39.2C239,155.8,241.4,156.7,243.2,158.3z M174.4,175.4
	l-6,19.8h8.7l7.1-23.4C180.9,173,177.6,174.2,174.4,175.4z M197.5,167.2l-8.5,28h13.4l10-32.7C207.3,164,202.3,165.6,197.5,167.2z"
	/>
<path id="main_x5F_stroke_7_" class="st7" d="M793.5,228.2c-0.9-1.4-2.3-2.3-4-2.6c-16.5-2.7-72.1-11.7-95.3-14l-185.5-17.4
	c-2.7-1.3-4.3-2.3-4.3-2.4c0,0,0,0,0,0l-77.6-49.5c-2.5-1.6-5.3-2.6-8.2-3c-30.6-4.3-71.4-4.7-71.8-4.7
	c-159,0-284.8,83.2-319.5,108.7c-2.4,1.8-4,4.5-4.3,7.5c-0.3,3,0.6,6,2.6,8.3l31.7,36.4c3.1,3.6,9.2,8.2,13.6,10.2
	c40.9,18.8,111.8,22.2,112.6,22.3h422.5c89.5,0,143.1-20.3,162-29c4.8-2.2,8.6-6.2,10.5-11.2c7.3-18.8,12.4-40.8,12.5-41.3l3.4-13.7
	C794.6,231.3,794.4,229.6,793.5,228.2z M694,213.6c7.7,0.7,18.9,2.2,31.1,4c-5.7-0.4-11.3-0.9-16.8-1.3
	c-86.1-6.7-148.3-11.5-186.8-17.8c-2.3-0.4-4.5-1-6.5-1.6L694,213.6z M503.3,193.6C503.3,193.6,503.3,193.6,503.3,193.6
	c0,0,0.1,0.1,0.2,0.1l0.3,0.2c0.2,0.1,0.4,0.3,0.6,0.4H477c-2.2,0-4.2-0.8-5.9-2.2l-44.8-39.7c-1.4-1.2-2.4-2.9-2.8-4.7
	c-0.2-0.9-0.1-1.9,0.4-2.7l0.8-1.3c0.3,0.2,0.6,0.3,1,0.5L503.3,193.6z M423,142.7l-0.7,1.2c-0.7,1.3-0.9,2.7-0.6,4.1
	c0.5,2.2,1.7,4.2,3.4,5.7l44.8,39.7c2,1.8,4.5,2.7,7.2,2.7h31c3.2,1.5,7.8,3.3,13.1,4.2c38.6,6.3,100.8,11.2,187,17.9
	c14.2,1.1,28.9,2.2,44.2,3.5c0.7,0.1,1.4,0.2,2.1,0.3c1,4.2,7.5,24.4,34.2,25c-0.1,0.6-0.4,1.5-0.6,2.6H488.4
	c-12.2-21.7-25.5-39.9-38.3-54.8c-0.1-0.2-0.2-0.3-0.4-0.4c-28.7-33.3-55.6-50.7-65.3-56.3c11.1,0.7,23.1,1.7,33.9,3.2
	C420,141.6,421.5,142,423,142.7z M303.5,304.1L288,251.6h198.9v52.4H303.5z M446.9,194.2H293.3c-3.9,0-7.4-2.6-8.4-6.3l-7.1-26.2
	c-0.8-2.7-0.3-5.5,1.4-7.8c1.7-2.2,4.3-3.5,7.1-3.5h113.3C412,159.5,429.1,173.8,446.9,194.2z M379.9,137.8c1.1,0.6,7.4,4,16.9,10.7
	H286.2c-3.4,0-6.6,1.6-8.6,4.3c-2.1,2.7-2.7,6.2-1.7,9.5l7.1,26.2c1.3,4.5,5.6,7.7,10.3,7.7h155.3c12.6,14.6,25.5,32.3,37.5,53.5
	H287.4l-30.8-104.3c28.4-5.5,58.6-8.7,90.1-8.7C347,136.7,361.7,136.8,379.9,137.8z M82.4,210.5c-0.5,2.6-1.9,7.5-6.5,11.6
	c-5.3,4.7-13.2,6.9-23.4,6.5C61,223,71,216.9,82.4,210.5z M28.4,245c5.2-3.8,12.4-8.9,21.4-14.7c1.8,0.2,3.6,0.2,5.3,0.2
	c9.5,0,17-2.4,22.2-7c6.1-5.4,7.1-12.2,7.3-14.2c41.6-23.2,100.5-49.8,170.2-63.5l30.7,103.9H25.1C25.7,247.8,26.8,246.2,28.4,245z
	 M58.6,294.3L27,257.9c-1.5-1.7-2.3-4-2.1-6.3h261.1l15.5,52.4H71.8c-0.1,0-0.1-0.1-0.2-0.1C67.4,302.1,61.6,297.7,58.6,294.3z
	 M183.4,326.1c-0.7,0-66-3.2-107.1-20h668.2c-27.3,9.2-73.4,20-138.8,20L183.4,326.1z M776.5,287.2c-1.7,4.5-5.1,8.1-9.5,10.1
	c-4,1.9-9.6,4.2-16.8,6.8H488.8v-52.4h298.7C785.6,259.4,781.6,274.1,776.5,287.2z M792.3,232.4l-3.2,12.7
	c-24.7-0.3-31.2-17.6-32.5-22.7c14,2.2,26.2,4.2,32.6,5.2c1.1,0.2,2,0.8,2.6,1.7C792.4,230.2,792.6,231.3,792.3,232.4z"/>
<path id="back_21_" class="st2" d="M325.7,243h-19.9c-2.4,0-4.4-1.7-4.8-4l-1.1-6c-0.6-3,1.8-5.8,4.8-5.8h19.9c2.4,0,4.4,1.7,4.8,4
	l1.1,6C331.1,240.2,328.8,243,325.7,243z"/>
<path id="door_7_" class="st7" d="M325.7,244h-19.9c-2.8,0-5.3-2-5.8-4.8l-1.1-6c-0.3-1.7,0.1-3.5,1.3-4.8c1.1-1.3,2.8-2.1,4.5-2.1
	h19.9c2.8,0,5.3,2,5.8,4.8l1.1,6c0.3,1.7-0.1,3.5-1.3,4.8C329.1,243.2,327.5,244,325.7,244z M304.7,228.1c-1.2,0-2.3,0.5-3,1.4
	c-0.7,0.9-1.1,2.1-0.8,3.2l1.1,6c0.3,1.9,2,3.2,3.9,3.2h19.9c1.2,0,2.3-0.5,3-1.4c0.7-0.9,1.1-2.1,0.8-3.2l-1.1-6
	c-0.3-1.9-2-3.2-3.9-3.2H304.7z"/>
<path id="back_20_" class="st8" d="M791.6,286.2h-34.4c-2,0-3.6-1.4-4-3.3l-0.9-4.5c-0.5-2.5,1.4-4.9,4-4.9h36.1
	c2.6,0,4.5,2.3,4,4.9l-0.9,4.5C795.2,284.8,793.5,286.2,791.6,286.2z"/>
<path id="front-bmp_7_" class="st7" d="M791.6,287.1h-34.4c-2.4,0-4.5-1.7-5-4.1l-0.9-4.5c-0.3-1.5,0.1-3,1.1-4.2
	c1-1.2,2.4-1.8,3.9-1.8h36.1c1.5,0,2.9,0.7,3.9,1.8c1,1.2,1.4,2.7,1.1,4.2l-0.9,4.5C796.1,285.4,794,287.1,791.6,287.1z
	 M756.3,274.4c-0.9,0-1.8,0.4-2.4,1.1c-0.6,0.7-0.8,1.7-0.7,2.6l0.9,4.5c0.3,1.5,1.6,2.5,3.1,2.5h34.4c1.5,0,2.8-1.1,3.1-2.5
	l0.9-4.5c0.2-0.9-0.1-1.9-0.7-2.6c-0.6-0.7-1.5-1.1-2.4-1.1H756.3z"/>
<path id="back_19_" class="st8" d="M35.8,268.2c-6.7-6.5-18-0.2-17.3,7.1c0.5,5.2,6,10.8,15.8,10.8h33.5c2,0,2.6-2.6,0.7-3
	C45.5,279.2,44.1,276.3,35.8,268.2z"/>
<path id="back_x5F_bmp_7_" class="st7" d="M67.8,287.1H34.3c-10.3,0-16.3-5.9-16.8-11.7c-0.4-3.8,2.2-7.7,6.3-9.7
	c3.5-1.7,8.6-2.1,12.6,1.7l0,0c0.6,0.6,1.2,1.2,1.8,1.8c6.7,6.6,9.5,9.3,30.4,12.9c1.3,0.2,2.1,1.2,2,2.4
	C70.6,285.9,69.5,287.1,67.8,287.1z M29.1,266.5c-1.6,0-3.2,0.4-4.4,1c-3.4,1.6-5.5,4.7-5.2,7.7c0.5,4.9,5.7,9.9,14.9,9.9h33.5
	c0.6,0,0.9-0.4,0.9-0.7c0-0.1,0-0.3-0.4-0.3c-21.6-3.7-24.5-6.6-31.5-13.5c-0.6-0.6-1.2-1.1-1.8-1.7
	C33.3,267.2,31.2,266.5,29.1,266.5z"/>
<path id="window_x5F_back_7_" class="st7" d="M243.4,196.2h-95.2c-3.1,0-5-2.2-5.4-4.4c-0.4-2.2,0.4-4.9,3.2-6.2
	c21.7-9.2,54.8-21.9,88.7-30.4l0,0c5.2-1.3,10.5,1.7,12,6.9l6.2,21.2c0.9,3.1,0.3,6.3-1.6,8.8C249.5,194.7,246.6,196.2,243.4,196.2z
	 M235.2,157.2c-33.8,8.4-66.7,21.1-88.4,30.3c-2,0.8-2.4,2.7-2.1,4c0.3,1.3,1.3,2.8,3.5,2.8h95.2c2.6,0,4.9-1.2,6.5-3.2
	c1.5-2.1,2-4.7,1.3-7.1l-6.2-21.2C243.7,158.6,239.4,156.1,235.2,157.2L235.2,157.2z"/>
<g id="turbo_x5F_back_3_">
	<path class="st1" d="M229.4,303.7H204L186.1,316l13.3,35.3c0.9,1.6,2.5,2.6,4.3,2.6h25.9c1.8,0,3.5-1,4.3-2.6l13.3-35.3
		L229.4,303.7z"/>
	<path class="st7" d="M229.7,354.8h-25.9c-2.2,0-4.2-1.2-5.2-3.1c0,0,0-0.1-0.1-0.1l-13.3-35.3c-0.2-0.4,0-0.9,0.4-1.2l17.9-12.3
		c0.2-0.1,0.4-0.2,0.6-0.2h25.3c0.2,0,0.4,0.1,0.6,0.2l17.9,12.3c0.4,0.3,0.5,0.7,0.4,1.2l-13.3,35.3c0,0,0,0.1-0.1,0.1
		C233.8,353.7,231.9,354.8,229.7,354.8z M200.3,350.9c0.7,1.2,2,2,3.4,2h25.9c1.4,0,2.7-0.8,3.4-2l13-34.5l-17-11.7h-24.7l-17,11.7
		L200.3,350.9z"/>
	<path class="st0" d="M234.7,285.3h-35.9c-1.3,0-2.5,0.5-3.5,1.4l-25.4,25.4c-0.9,0.9-1.4,2.2-1.4,3.5v12.3c0,1.7,0.9,3.3,2.3,4.2
		l9.5,5.8c1.5,0.9,3.4,1,5,0.1l13.3-7.6c0.7-0.4,1.6-0.6,2.4-0.6h28.6c0.7,0,1.5,0.2,2.1,0.5l16.4,8c1.5,0.7,3.3,0.6,4.7-0.2
		l9.7-5.9c1.5-0.9,2.3-2.5,2.3-4.2v-12.3c0-1.3-0.5-2.5-1.4-3.5l-25.4-25.4C237.2,285.8,236,285.3,234.7,285.3z"/>
	<path class="st7" d="M249.3,340.4h-65.1c-1.1,0-2.1-0.3-3.1-0.9l-10.8-6.6c-1.7-1.1-2.8-3-2.8-5v-12.3c0-1.5,0.6-3.1,1.7-4.2
		l25.4-25.4c1.1-1.1,2.6-1.7,4.2-1.7h35.9c1.6,0,3,0.6,4.2,1.7l25.4,25.4c1.1,1.1,1.7,2.6,1.7,4.2v12.3c0,2-1.1,4-2.8,5l-10.8,6.6
		C251.4,340.1,250.3,340.4,249.3,340.4z M198.7,286.3c-1,0-2,0.4-2.8,1.1l-25.4,25.4c-0.7,0.7-1.1,1.7-1.1,2.8v12.3
		c0,1.4,0.7,2.6,1.9,3.3l10.8,6.6c0,0,0,0,0,0c0.6,0.4,1.3,0.6,2,0.6h65.1c0.7,0,1.4-0.2,2-0.6l10.8-6.6c1.2-0.7,1.9-2,1.9-3.3
		v-12.3c0-1-0.4-2-1.1-2.8l-25.4-25.4c-0.7-0.7-1.7-1.1-2.8-1.1H198.7z"/>
	<path class="st2" d="M231.6,296.7h-29.7c-1.3,0-2.5,0.5-3.5,1.4l-21,21c-0.9,0.9-1.4,2.2-1.4,3.5V336c0,2.7,2.2,4.9,4.9,4.9h71.6
		c2.7,0,4.9-2.2,4.9-4.9v-13.4c0-1.3-0.5-2.5-1.4-3.5l-21-21C234.1,297.2,232.8,296.7,231.6,296.7z"/>
	<path class="st7" d="M256.7,318.4l-21-21c-1.1-1.1-2.6-1.7-4.2-1.7h-29.7c-1.6,0-3,0.6-4.2,1.7l-21,21c-1.1,1.1-1.7,2.6-1.7,4.2
		V336c0,3.2,2.6,5.9,5.9,5.9h71.6c3.2,0,5.9-2.6,5.9-5.9v-13.4C258.4,321,257.8,319.5,256.7,318.4z M256.4,336
		c0,2.2-1.8,3.9-3.9,3.9h-71.6c-2.2,0-3.9-1.8-3.9-3.9v-13.4c0-1,0.4-2,1.1-2.8l21-21c0.7-0.7,1.7-1.1,2.8-1.1h29.7
		c1,0,2,0.4,2.8,1.1l21,21c0.7,0.7,1.1,1.7,1.1,2.8V336z"/>
	<g id="power_7_">
		<defs>
			<filter id="Adobe_OpacityMaskFilter" filterUnits="userSpaceOnUse" x="205" y="360.8" width="23.5" height="25.5">
				<feFlood  style="flood-color:white;flood-opacity:1" result="back"/>
				<feBlend  in="SourceGraphic" in2="back" mode="normal"/>
			</filter>
		</defs>
		<mask maskUnits="userSpaceOnUse" x="205" y="360.8" width="23.5" height="25.5" id="SVGID_1_">
			<g class="st9">
				<defs>
					<filter id="Adobe_OpacityMaskFilter_1_" filterUnits="userSpaceOnUse" x="205" y="360.8" width="23.5" height="25.5">
						<feFlood  style="flood-color:white;flood-opacity:1" result="back"/>
						<feBlend  in="SourceGraphic" in2="back" mode="normal"/>
					</filter>
				</defs>
				<mask maskUnits="userSpaceOnUse" x="205" y="360.8" width="23.5" height="25.5" id="SVGID_1_">
					<g class="st10">
					</g>
				</mask>
				<linearGradient id="SVGID_2_" gradientUnits="userSpaceOnUse" x1="216.7913" y1="360.8456" x2="216.7913" y2="386.3153">
					<stop  offset="0" style="stop-color:#FFFFFF"/>
					<stop  offset="2.230006e-02" style="stop-color:#F9F9F9"/>
					<stop  offset="0.2898" style="stop-color:#B3B3B3"/>
					<stop  offset="0.5307" style="stop-color:#7C7C7C"/>
					<stop  offset="0.7368" style="stop-color:#545454"/>
					<stop  offset="0.9" style="stop-color:#3C3C3C"/>
					<stop  offset="1" style="stop-color:#333333"/>
				</linearGradient>
				<path class="st11" d="M222.4,380.4l-0.8-1.9c-0.4-1-1.9-0.8-2.1,0.3l-0.8,6.6c-0.1,1.2-1.8,1.3-2.1,0.2l-0.3-1
					c-0.3-1-1.7-1.1-2.1,0l0,0c-0.3,1-1.7,1-2.1,0l-7.1-22.2c-0.2-0.7,0.3-1.4,1-1.4h21.3c0.7,0,1.2,0.6,1.1,1.3l-4.1,18.1
					C224.2,381.3,222.8,381.4,222.4,380.4z"/>
			</g>
		</mask>
		<linearGradient id="SVGID_3_" gradientUnits="userSpaceOnUse" x1="216.7913" y1="360.8456" x2="216.7913" y2="386.3153">
			<stop  offset="0" style="stop-color:#FFB600"/>
			<stop  offset="1" style="stop-color:#FFB600"/>
		</linearGradient>
		<path class="st12" d="M222.4,380.4l-0.8-1.9c-0.4-1-1.9-0.8-2.1,0.3l-0.8,6.6c-0.1,1.2-1.8,1.3-2.1,0.2l-0.3-1
			c-0.3-1-1.7-1.1-2.1,0l0,0c-0.3,1-1.7,1-2.1,0l-7.1-22.2c-0.2-0.7,0.3-1.4,1-1.4h21.3c0.7,0,1.2,0.6,1.1,1.3l-4.1,18.1
			C224.2,381.3,222.8,381.4,222.4,380.4z"/>
		<path class="st13" d="M229.1,360.6c-0.4-0.5-1-0.8-1.6-0.8h-21.3c-0.7,0-1.3,0.3-1.7,0.8c-0.4,0.5-0.5,1.2-0.3,1.8l7.1,22.2
			c0.3,0.9,1,1.4,2,1.4c0,0,0,0,0,0c0.9,0,1.7-0.6,2-1.4c0,0,0-0.1,0.1-0.1c0.1,0,0.1,0,0.1,0.1l0.3,1c0.3,0.9,1.1,1.5,2,1.5
			c0.1,0,0.1,0,0.2,0c1-0.1,1.8-0.8,1.9-1.8l0.8-6.6c0,0,0-0.1,0.1-0.1c0.1,0,0.1,0,0.1,0.1l0.8,1.9c0.4,0.8,1.2,1.3,2.1,1.2
			c0.9-0.1,1.6-0.7,1.8-1.6l4.1-18.1C229.6,361.8,229.5,361.1,229.1,360.6z M223.5,380C223.5,380.1,223.5,380.1,223.5,380
			c-0.2,0.1-0.2,0-0.2,0v0l-0.8-1.9c-0.4-0.9-1.2-1.4-2.2-1.2c-0.9,0.1-1.6,0.8-1.8,1.8l-0.8,6.6c0,0,0,0.1-0.1,0.1
			c-0.1,0-0.1,0-0.1-0.1l-0.3-1c-0.2-0.9-1-1.5-1.9-1.5c0,0,0,0,0,0c-0.9,0-1.7,0.6-2,1.4c0,0,0,0.1-0.1,0.1h0c-0.1,0-0.1,0-0.1-0.1
			L206,362l0.1-0.1l0,0h21.3l0.1,0.1L223.5,380z"/>
	</g>
</g>
<g id="turbo_x5F_front_3_">
	<path class="st1" d="M610.8,303.7h-25.3L567.6,316l13.3,35.3c0.9,1.6,2.5,2.6,4.3,2.6h25.9c1.8,0,3.5-1,4.3-2.6l13.3-35.3
		L610.8,303.7z"/>
	<path class="st7" d="M611.1,354.8h-25.9c-2.2,0-4.2-1.2-5.2-3.1c0,0,0-0.1-0.1-0.1l-13.3-35.3c-0.2-0.4,0-0.9,0.4-1.2l17.9-12.3
		c0.2-0.1,0.4-0.2,0.6-0.2h25.3c0.2,0,0.4,0.1,0.6,0.2l17.9,12.3c0.4,0.3,0.5,0.7,0.4,1.2l-13.3,35.3c0,0,0,0.1-0.1,0.1
		C615.3,353.7,613.3,354.8,611.1,354.8z M581.8,350.9c0.7,1.2,2,2,3.4,2h25.9c1.4,0,2.7-0.8,3.4-2l13-34.5l-17-11.7h-24.7l-17,11.7
		L581.8,350.9z"/>
	<path class="st0" d="M616.1,285.3h-35.9c-1.3,0-2.5,0.5-3.5,1.4l-25.4,25.4c-0.9,0.9-1.4,2.2-1.4,3.5v12.3c0,1.7,0.9,3.3,2.3,4.2
		l9.5,5.8c1.5,0.9,3.4,1,5,0.1l13.3-7.6c0.7-0.4,1.6-0.6,2.4-0.6h28.6c0.7,0,1.5,0.2,2.1,0.5l16.4,8c1.5,0.7,3.3,0.6,4.7-0.2
		l9.7-5.9c1.5-0.9,2.3-2.5,2.3-4.2v-12.3c0-1.3-0.5-2.5-1.4-3.5l-25.4-25.4C618.7,285.8,617.4,285.3,616.1,285.3z"/>
	<path class="st7" d="M630.7,340.4h-65.1c-1.1,0-2.1-0.3-3.1-0.9l-10.8-6.6c-1.7-1.1-2.8-3-2.8-5v-12.3c0-1.5,0.6-3.1,1.7-4.2
		l25.4-25.4c1.1-1.1,2.6-1.7,4.2-1.7h35.9c1.6,0,3,0.6,4.2,1.7l25.4,25.4c1.1,1.1,1.7,2.6,1.7,4.2v12.3c0,2-1.1,4-2.8,5l-10.8,6.6
		C632.8,340.1,631.8,340.4,630.7,340.4z M580.2,286.3c-1,0-2,0.4-2.8,1.1L552,312.9c-0.7,0.7-1.1,1.7-1.1,2.8v12.3
		c0,1.4,0.7,2.6,1.9,3.3l10.8,6.6c0.6,0.4,1.3,0.6,2,0.6h65.1c0.7,0,1.4-0.2,2-0.6l10.8-6.6c1.2-0.7,1.9-2,1.9-3.3v-12.3
		c0-1-0.4-2-1.1-2.8l-25.4-25.4c-0.7-0.7-1.7-1.1-2.8-1.1H580.2z"/>
	<path class="st2" d="M613,296.7h-29.7c-1.3,0-2.5,0.5-3.5,1.4l-21,21c-0.9,0.9-1.4,2.2-1.4,3.5V336c0,2.7,2.2,4.9,4.9,4.9H634
		c2.7,0,4.9-2.2,4.9-4.9v-13.4c0-1.3-0.5-2.5-1.4-3.5l-21-21C615.5,297.2,614.3,296.7,613,296.7z"/>
	<path class="st7" d="M634,341.9h-71.6c-3.2,0-5.9-2.6-5.9-5.9v-13.4c0-1.6,0.6-3,1.7-4.2l21-21c1.1-1.1,2.6-1.7,4.2-1.7H613
		c1.6,0,3,0.6,4.2,1.7l21,21c1.1,1.1,1.7,2.6,1.7,4.2V336C639.9,339.3,637.2,341.9,634,341.9z M583.3,297.7c-1,0-2,0.4-2.8,1.1
		l-21,21c-0.7,0.7-1.1,1.7-1.1,2.8V336c0,2.2,1.8,3.9,3.9,3.9H634c2.2,0,3.9-1.8,3.9-3.9v-13.4c0-1-0.4-2-1.1-2.8l-21-21
		c-0.7-0.7-1.7-1.1-2.8-1.1H583.3z"/>
	<g id="power_6_">
		<defs>
			<filter id="Adobe_OpacityMaskFilter_2_" filterUnits="userSpaceOnUse" x="586.5" y="360.8" width="23.5" height="25.5">
				<feFlood  style="flood-color:white;flood-opacity:1" result="back"/>
				<feBlend  in="SourceGraphic" in2="back" mode="normal"/>
			</filter>
		</defs>
		<mask maskUnits="userSpaceOnUse" x="586.5" y="360.8" width="23.5" height="25.5" id="SVGID_4_">
			<g class="st14">
				<defs>
					<filter id="Adobe_OpacityMaskFilter_3_" filterUnits="userSpaceOnUse" x="586.5" y="360.8" width="23.5" height="25.5">
						<feFlood  style="flood-color:white;flood-opacity:1" result="back"/>
						<feBlend  in="SourceGraphic" in2="back" mode="normal"/>
					</filter>
				</defs>
				<mask maskUnits="userSpaceOnUse" x="586.5" y="360.8" width="23.5" height="25.5" id="SVGID_4_">
					<g class="st15">
					</g>
				</mask>
				<linearGradient id="SVGID_5_" gradientUnits="userSpaceOnUse" x1="598.242" y1="360.8456" x2="598.242" y2="386.3153">
					<stop  offset="0" style="stop-color:#FFFFFF"/>
					<stop  offset="2.230006e-02" style="stop-color:#F9F9F9"/>
					<stop  offset="0.2898" style="stop-color:#B3B3B3"/>
					<stop  offset="0.5307" style="stop-color:#7C7C7C"/>
					<stop  offset="0.7368" style="stop-color:#545454"/>
					<stop  offset="0.9" style="stop-color:#3C3C3C"/>
					<stop  offset="1" style="stop-color:#333333"/>
				</linearGradient>
				<path class="st16" d="M603.8,380.4l-0.8-1.9c-0.4-1-1.9-0.8-2.1,0.3l-0.8,6.6c-0.1,1.2-1.8,1.3-2.1,0.2l-0.3-1
					c-0.3-1-1.7-1.1-2.1,0l0,0c-0.3,1-1.7,1-2.1,0l-7.1-22.2c-0.2-0.7,0.3-1.4,1-1.4h21.3c0.7,0,1.2,0.6,1.1,1.3l-4.1,18.1
					C605.7,381.3,604.3,381.4,603.8,380.4z"/>
			</g>
		</mask>
		<linearGradient id="SVGID_6_" gradientUnits="userSpaceOnUse" x1="598.242" y1="360.8456" x2="598.242" y2="386.3153">
			<stop  offset="0" style="stop-color:#FFB600"/>
			<stop  offset="1" style="stop-color:#FFB600"/>
		</linearGradient>
		<path class="st17" d="M603.8,380.4l-0.8-1.9c-0.4-1-1.9-0.8-2.1,0.3l-0.8,6.6c-0.1,1.2-1.8,1.3-2.1,0.2l-0.3-1
			c-0.3-1-1.7-1.1-2.1,0l0,0c-0.3,1-1.7,1-2.1,0l-7.1-22.2c-0.2-0.7,0.3-1.4,1-1.4h21.3c0.7,0,1.2,0.6,1.1,1.3l-4.1,18.1
			C605.7,381.3,604.3,381.4,603.8,380.4z"/>
		<path class="st13" d="M610.5,360.6c-0.4-0.5-1-0.8-1.6-0.8h-21.3c-0.7,0-1.3,0.3-1.7,0.8c-0.4,0.5-0.5,1.2-0.3,1.8l7.1,22.2
			c0.3,0.9,1,1.4,2,1.4c0,0,0,0,0,0c0.9,0,1.7-0.6,2-1.4c0,0,0-0.1,0.1-0.1c0,0,0.1,0,0.1,0.1l0.3,1c0.3,0.9,1.1,1.5,2,1.5
			c0.1,0,0.1,0,0.2,0c1-0.1,1.8-0.8,1.9-1.8l0.8-6.6c0,0,0-0.1,0.1-0.1c0.1,0,0.1,0,0.1,0.1l0.8,1.9c0.4,0.8,1.2,1.3,2.1,1.2
			c0.9-0.1,1.6-0.7,1.8-1.6l4.1-18.1C611.1,361.8,610.9,361.1,610.5,360.6z M604.9,380C604.9,380.1,604.9,380.1,604.9,380
			c-0.2,0.1-0.2,0-0.2,0v0l-0.8-1.9c-0.4-0.9-1.2-1.4-2.2-1.2c-0.9,0.1-1.6,0.8-1.8,1.8l-0.8,6.6c0,0,0,0.1-0.1,0.1
			c-0.1,0-0.1,0-0.1-0.1l-0.3-1c-0.2-0.9-1-1.5-1.9-1.5c0,0,0,0,0,0c-0.9,0-1.7,0.6-2,1.4c0,0,0,0.1-0.1,0.1c0,0,0,0,0,0
			c-0.1,0-0.1,0-0.1-0.1l-7.1-22.2l0.1-0.1h21.3l0.1,0.1L604.9,380z"/>
	</g>
</g>
</svg>
