<?xml version="1.0" encoding="utf-8"?>
<!-- Generator: Adobe Illustrator 22.0.1, SVG Export Plug-In . SVG Version: 6.00 Build 0)  -->
<svg version="1.1" xmlns="http://www.w3.org/2000/svg" xmlns:xlink="http://www.w3.org/1999/xlink" x="0px" y="0px"
	 viewBox="0 0 815 510" style="enable-background:new 0 0 815 510;" xml:space="preserve">
<style type="text/css">
	.st0{fill:#A97DFF;}
	.st1{fill:#8255E5;}
	.st2{fill:#9169F4;}
	.st3{fill:#FFB600;}
	.st4{fill:#F9CC69;}
	.st5{opacity:0.4;fill:#F9F9F9;}
	.st6{opacity:0.3;fill:#F9F9F9;}
	.st7{fill:#22183D;}
	.st8{fill:#EDEDED;}
	.st9{filter:url(#Adobe_OpacityMaskFilter);}
	.st10{filter:url(#Adobe_OpacityMaskFilter_1_);}
	.st11{mask:url(#SVGID_1_);fill:url(#SVGID_2_);}
	.st12{fill:url(#SVGID_3_);}
	.st13{fill:#140D00;}
	.st14{filter:url(#Adobe_OpacityMaskFilter_2_);}
	.st15{filter:url(#Adobe_OpacityMaskFilter_3_);}
	.st16{mask:url(#SVGID_4_);fill:url(#SVGID_5_);}
	.st17{fill:url(#SVGID_6_);}
	.st18{filter:url(#Adobe_OpacityMaskFilter_4_);}
	.st19{filter:url(#Adobe_OpacityMaskFilter_5_);}
	.st20{mask:url(#SVGID_7_);fill:url(#SVGID_8_);}
	.st21{fill:url(#SVGID_9_);}
	.st22{filter:url(#Adobe_OpacityMaskFilter_6_);}
	.st23{filter:url(#Adobe_OpacityMaskFilter_7_);}
	.st24{mask:url(#SVGID_10_);fill:url(#SVGID_11_);}
	.st25{fill:url(#SVGID_12_);}
	.st26{filter:url(#Adobe_OpacityMaskFilter_8_);}
	.st27{filter:url(#Adobe_OpacityMaskFilter_9_);}
	.st28{mask:url(#SVGID_13_);fill:url(#SVGID_14_);}
	.st29{fill:url(#SVGID_15_);}
	.st30{filter:url(#Adobe_OpacityMaskFilter_10_);}
	.st31{filter:url(#Adobe_OpacityMaskFilter_11_);}
	.st32{mask:url(#SVGID_16_);fill:url(#SVGID_17_);}
	.st33{fill:url(#SVGID_18_);}
</style>
<g id="animation_x5F_steps_x5F_v2">
	<g id="moving_x5F_backward">
		<path id="body_x5F_main_4_" class="st0" d="M794.3,342.3l0.8-5.2c0.1-0.8-0.5-1.6-1.3-1.6c-5-0.4-20.8-1.5-27.5-1.6l-53.3-0.3
			c-0.2,0-1.2-0.5-1.4-0.6l-23.3-12.2c-0.7-0.4-1.5-0.6-2.3-0.6c-8.9-0.5-20.3,0.4-20.3,0.4c-45.4,4-79.5,31.1-88.3,38.9
			c-1.2,1.1-1.3,3-0.1,4.1l11,10.6c0.8,0.8,1.9,1.3,3.1,1.5c25.9,3.8,58.4,1.2,58.4,1.2s62.2-5.4,94.2-8.2
			c25.6-2.2,40.4-9.4,45.3-12.3c1.3-0.7,2.2-1.9,2.6-3.3C793.6,347.5,794.3,342.3,794.3,342.3z"/>
		<path id="body_x5F_bottom_4_" class="st1" d="M591.5,375.7c14.2,4.7,32.4,3.5,32.4,3.5s88.2-7.7,120.3-10.5
			c20-1.7,33.4-6.5,40.6-9.9L591.5,375.7z"/>
		<path id="body_x5F_mid_4_" class="st2" d="M794.3,342.3l-217.8,19.1c0,0.8,0.2,1.6,0.8,2.2l11,10.6c0.8,0.8,1.9,1.3,3.1,1.5
			l193.3-16.9c2-0.9,3.6-1.8,4.7-2.4c1.3-0.7,2.2-1.9,2.6-3.3C793.6,347.5,794.3,342.3,794.3,342.3z"/>
		<path id="ligh_x5F_back_4_" class="st3" d="M592.5,347.9c0,0,0.4,6.7-9.2,6.7l0,0C585.8,352.7,588.9,350.4,592.5,347.9
			L592.5,347.9z"/>
		<path id="light_x5F_front_4_" class="st3" d="M784.4,335.7c0,0,2.7,6.2,10.1,5.3l0,0l0.6-4c0.1-0.8-0.4-1.5-1.2-1.5
			c-2.6-0.2-8-0.6-9.9-0.7L784.4,335.7z"/>
		<path id="front_x5F_color_4_" class="st3" d="M766.4,333.9l-53.3-0.3c0,0,1,0.6,3.9,0.8l18.6,0.6l47.6-0.3
			C777.7,334.3,772.1,333.9,766.4,333.9z"/>
		<path id="glass_x5F_front_4_" class="st4" d="M687.7,321l-0.3,0.6c0.1,0.8,0.5,1.5,1.1,2l13.1,9.7c0.6,0.4,1.5,1.1,2.6,1l8.9-0.8
			l-0.8-0.5c-0.2,0-0.3-0.1-0.5-0.1l-23.3-12.2c-0.4-0.2-0.6-0.3-0.6-0.3L687.7,321z"/>
		<path id="glass_x5F_mid_4_" class="st4" d="M682.5,324l-1.4-0.8l-32.4,2.8c-1.9,0.2-3,2.1-2.4,3.8l2.6,7.3
			c0.5,1.2,1.6,1.9,2.8,1.8l43.6-3.8l0.8-0.1C690.4,329.2,686.5,326.6,682.5,324z"/>
		<path id="glass_x5F_back_4_" class="st4" d="M634.3,329.2c-9.6,3.3-18.9,7.9-24.5,10.8c-1.2,0.7-0.7,2.6,0.7,2.4l27.1-2.4
			c1.7-0.2,2.8-1.9,2.2-3.5l-2.3-5.9C637,329.4,635.6,328.8,634.3,329.2z"/>
		<path id="blink_x5F_front_4_" class="st5" d="M695,328.4l-4.3-3.2l0.6-2.9l4.6,2.4C695.6,325.9,695.3,327.1,695,328.4z
			 M712.2,333.1c-0.2,0-0.3-0.1-0.5-0.1l-11.5-6c-0.3,1.1-0.6,2.2-0.9,3.3c-0.1,0.4-0.2,0.8-0.3,1.2l2.5,1.9c0.6,0.4,1.5,1.1,2.6,1
			l8.9-0.8L712.2,333.1z"/>
		<path id="blink_x5F_mid_4_" class="st6" d="M656.5,325.4l-2.8,13.4l-1.9,0.2c-0.2,0-0.4,0-0.6,0l2.8-13.3L656.5,325.4z
			 M685.9,326.2l-2.1,9.9l2.1-0.2l1.8-8.4C687.1,327.1,686.5,326.6,685.9,326.2z M682.5,324l-1-0.6l-2.8,13.1l2.1-0.2l2.5-11.7
			C683.1,324.4,682.8,324.2,682.5,324z M665.8,324.5l-2.8,13.4l2.1-0.2l2.8-13.4L665.8,324.5z M659.1,325.1l-2.8,13.4l3.8-0.3
			l2.8-13.4L659.1,325.1z"/>
		<path id="blink_x5F_back_4_" class="st6" d="M636.7,329.6l-2.3,10.8l-2.1,0.2l2.4-11.5C635.4,329,636.1,329.2,636.7,329.6z
			 M617.5,336.2l-1.2,5.8l2.5-0.2l1.4-6.8C619.3,335.4,618.4,335.8,617.5,336.2z M623.9,333.3l-1.7,8.2l3.8-0.3l2-9.6
			C626.6,332.1,625.2,332.7,623.9,333.3z"/>
		<path id="main_x5F_stroke_4_" class="st7" d="M795.1,335.8c-0.3-0.4-0.7-0.6-1.2-0.6c-4.8-0.4-20.8-1.5-27.5-1.6l-53.3-0.3
			c-0.8-0.3-1.3-0.6-1.3-0.6c0,0,0,0,0,0l-23.3-12.2c-0.8-0.4-1.6-0.6-2.4-0.7c-8.8-0.5-20.5,0.4-20.6,0.5
			c-45.3,4-79,30.8-88.3,38.9c-0.6,0.6-1,1.4-1,2.2c0,0.9,0.3,1.7,0.9,2.3l9.9,9.6c1,0.9,2.8,2.1,4.1,2.6
			c12.1,4.3,32.4,3.5,32.6,3.5l120.3-10.5c25.5-2.2,40.2-9.3,45.4-12.3c1.3-0.8,2.3-2,2.7-3.4c1.6-5.5,2.5-11.9,2.5-12.1l0.6-4
			C795.5,336.7,795.4,336.2,795.1,335.8z M766.4,334.1c2.2,0,5.4,0.2,9,0.4c-1.6,0-3.2,0-4.8,0c-24.7,0.2-42.5,0.4-53.6-0.4
			c-0.7-0.1-1.3-0.2-1.9-0.3L766.4,334.1z M711.6,333.2C711.6,333.2,711.6,333.2,711.6,333.2C711.6,333.2,711.6,333.2,711.6,333.2
			l0.1,0.1c0.1,0,0.1,0.1,0.2,0.1l-7.8,0.7c-0.6,0.1-1.2-0.1-1.7-0.5l-13.8-10.2c-0.4-0.3-0.7-0.8-0.9-1.3c-0.1-0.3-0.1-0.5,0.1-0.8
			l0.2-0.4c0.1,0,0.2,0.1,0.3,0.1L711.6,333.2z M687.5,320.7l-0.2,0.4c-0.2,0.4-0.2,0.8-0.1,1.2c0.2,0.6,0.6,1.2,1.1,1.6l13.8,10.2
			c0.6,0.5,1.4,0.7,2.1,0.6l8.8-0.8c1,0.4,2.3,0.8,3.8,0.9c11.1,0.8,29,0.7,53.7,0.4c4.1,0,8.3-0.1,12.7-0.1c0.2,0,0.4,0,0.6,0
			c0.4,1.2,2.7,6.8,10.3,6.3c0,0.2-0.1,0.4-0.1,0.8l-85.3,7.5c-4-5.9-8.2-10.7-12.3-14.7c0,0-0.1-0.1-0.1-0.1
			c-9-8.8-17.1-13-20-14.4c3.2-0.1,6.6-0.1,9.7,0.1C686.6,320.4,687.1,320.5,687.5,320.7z M657.5,369.6l-5.7-14.5l56.6-5l1.3,14.9
			L657.5,369.6z M695.6,334.8l-43.7,3.8c-1.1,0.1-2.2-0.6-2.6-1.6l-2.7-7.3c-0.3-0.7-0.2-1.6,0.2-2.2c0.4-0.7,1.1-1.1,1.9-1.2
			l32.3-2.8C684.8,325.8,690,329.4,695.6,334.8z M675.1,320.4c0.3,0.1,2.2,0.9,5.1,2.6l-31.5,2.8c-1,0.1-1.8,0.6-2.3,1.4
			c-0.5,0.8-0.6,1.8-0.3,2.7l2.7,7.3c0.5,1.3,1.8,2.1,3.1,1.9l44.2-3.9c3.9,3.9,8.1,8.6,12,14.3l-56.6,5l-11.4-28.9
			c8-2.3,16.5-4,25.4-4.7C665.7,320.9,669.9,320.5,675.1,320.4z M592.2,348.5c-0.1,0.8-0.4,2.2-1.5,3.5c-1.4,1.5-3.6,2.3-6.5,2.4
			C586.4,352.6,589.1,350.6,592.2,348.5z M577.7,359.7c1.4-1.2,3.3-2.8,5.7-4.7c0.5,0,1,0,1.5-0.1c2.7-0.2,4.8-1.1,6.1-2.6
			c1.6-1.7,1.7-3.7,1.7-4.2c11.3-7.6,27.4-16.7,46.9-22.3l11.3,28.8l-74.1,6.5C577,360.5,577.3,360,577.7,359.7z M587.5,372.9
			l-9.9-9.6c-0.5-0.5-0.7-1.1-0.8-1.7l74.4-6.5l5.7,14.5l-65.4,5.7c0,0,0,0-0.1,0C590.2,374.9,588.5,373.8,587.5,372.9z
			 M623.8,378.9c-0.2,0-18.9,0.7-31-3l190.3-16.6c-7.6,3.3-20.4,7.5-39,9.2L623.8,378.9z M791.8,353c-0.4,1.3-1.3,2.4-2.5,3.1
			c-1.1,0.6-2.6,1.4-4.6,2.4l-74.4,6.5l-1.3-14.9l85.1-7.4C793.6,344.9,792.9,349.2,791.8,353z M794.9,337l-0.6,3.7
			c-7,0.5-9.3-4.2-9.8-5.7c4,0.3,7.6,0.5,9.4,0.7c0.3,0,0.6,0.2,0.8,0.4C794.9,336.4,795,336.7,794.9,337z"/>
		<path id="back_12_" class="st2" d="M662.3,351.7l-5.7,0.5c-0.7,0.1-1.3-0.4-1.5-1l-0.5-1.7c-0.2-0.8,0.4-1.7,1.2-1.8l5.7-0.5
			c0.7-0.1,1.3,0.4,1.5,1l0.5,1.7C663.8,350.7,663.2,351.6,662.3,351.7z"/>
		<path id="door_4_" class="st7" d="M662.3,352l-5.7,0.5c-0.8,0.1-1.5-0.4-1.8-1.2l-0.5-1.7c-0.1-0.5,0-1,0.2-1.4
			c0.3-0.4,0.7-0.7,1.2-0.7l5.7-0.5c0.8-0.1,1.5,0.4,1.8,1.2l0.5,1.7c0.1,0.5,0,1-0.2,1.4C663.3,351.6,662.8,351.9,662.3,352z
			 M655.9,348c-0.3,0-0.6,0.2-0.8,0.5c-0.2,0.3-0.2,0.6-0.2,0.9l0.5,1.7c0.1,0.5,0.6,0.9,1.2,0.8l5.7-0.5c0.3,0,0.6-0.2,0.8-0.5
			c0.2-0.3,0.2-0.6,0.2-0.9l-0.5-1.7c-0.1-0.5-0.6-0.9-1.2-0.8L655.9,348z"/>
		<path id="back_11_" class="st8" d="M796,352.4l-9.8,0.9c-0.6,0-1.1-0.3-1.2-0.8l-0.4-1.3c-0.2-0.7,0.3-1.4,1-1.5l10.3-0.9
			c0.7-0.1,1.3,0.6,1.3,1.3l-0.1,1.3C797,351.9,796.6,352.3,796,352.4z"/>
		<path id="front-bmp_4_" class="st7" d="M796,352.6l-9.8,0.9c-0.7,0.1-1.3-0.4-1.5-1l-0.4-1.3c-0.1-0.4,0-0.9,0.2-1.2
			c0.2-0.4,0.6-0.6,1.1-0.6l10.3-0.9c0.4,0,0.9,0.1,1.2,0.4c0.3,0.3,0.5,0.7,0.4,1.2l-0.1,1.3C797.3,352,796.7,352.6,796,352.6z
			 M785.7,349.9c-0.3,0-0.5,0.2-0.7,0.4c-0.2,0.2-0.2,0.5-0.1,0.7l0.4,1.3c0.1,0.4,0.5,0.7,0.9,0.6l9.8-0.9c0.4,0,0.8-0.4,0.8-0.8
			l0.1-1.3c0-0.3-0.1-0.5-0.3-0.7c-0.2-0.2-0.4-0.3-0.7-0.3L785.7,349.9z"/>
		<path id="back_10_" class="st8" d="M580.4,366.1c-2.1-1.7-5.1,0.4-4.7,2.5c0.3,1.5,2,2.9,4.8,2.7l9.5-0.8c0.6,0,0.7-0.8,0.1-0.9
			C583.4,369,582.9,368.2,580.4,366.1z"/>
		<path id="back_x5F_bmp_4_" class="st7" d="M590,370.7l-9.5,0.8c-2.9,0.3-4.8-1.3-5.1-2.9c-0.2-1.1,0.4-2.2,1.6-2.9
			c1-0.6,2.4-0.8,3.6,0.2l0,0c0.2,0.2,0.4,0.3,0.6,0.5c2.1,1.7,2.9,2.4,9,2.9c0.4,0,0.6,0.3,0.6,0.6
			C590.7,370.2,590.5,370.6,590,370.7z M578.4,365.8c-0.5,0-0.9,0.2-1.2,0.4c-0.9,0.6-1.4,1.5-1.3,2.3c0.3,1.4,1.9,2.7,4.5,2.4
			l9.5-0.8c0.2,0,0.2-0.1,0.2-0.2c0,0,0-0.1-0.1-0.1c-6.2-0.5-7.1-1.3-9.3-3c-0.2-0.1-0.4-0.3-0.6-0.5
			C579.6,365.9,579,365.7,578.4,365.8z"/>
		<path id="window_x5F_back_4_" class="st7" d="M637.7,340.4l-27.1,2.4c-0.9,0.1-1.5-0.5-1.6-1.1c-0.2-0.6,0-1.4,0.8-1.8
			c6-3.2,15.1-7.6,24.5-10.9l0,0c1.4-0.5,3,0.2,3.6,1.7l2.3,5.9c0.3,0.8,0.2,1.8-0.2,2.6C639.4,339.8,638.6,340.3,637.7,340.4z
			 M634.4,329.5c-9.4,3.2-18.5,7.7-24.4,10.8c-0.5,0.3-0.6,0.8-0.5,1.2c0.1,0.4,0.5,0.8,1.1,0.7l27.1-2.4c0.7-0.1,1.4-0.5,1.8-1.1
			c0.4-0.6,0.5-1.4,0.2-2.1l-2.3-5.9C636.8,329.7,635.6,329.1,634.4,329.5L634.4,329.5z"/>
	</g>
	<g id="moving_x5F_forward">
		<path id="body_x5F_main_12_" class="st0" d="M516.8,360.8l1.7-5c0.3-0.8-0.2-1.6-1-1.8c-4.8-1.2-20.3-5.1-26.8-6.4l-52.4-9.6
			c-0.2,0-1.1-0.7-1.3-0.9l-20.9-16c-0.6-0.5-1.4-0.8-2.1-1c-8.7-2-20.1-3.1-20.1-3.1c-45.4-4-83.7,16.8-93.7,22.9
			c-1.4,0.8-1.8,2.7-0.8,4l9,12.3c0.7,1,1.7,1.7,2.8,2c24.9,8.2,57.3,11.3,57.3,11.3s62.2,5.4,94.2,8.2c25.6,2.2,41.4-2.3,46.7-4.2
			c1.4-0.5,2.5-1.5,3.1-2.8C515.2,365.8,516.8,360.8,516.8,360.8z"/>
		<path id="body_x5F_bottom_12_" class="st1" d="M311.2,358.4c13.1,7.1,31.3,9,31.3,9s88.2,7.7,120.3,10.5c20,1.7,34-0.6,41.7-2.7
			L311.2,358.4z"/>
		<path id="body_x5F_mid_12_" class="st2" d="M516.8,360.8L299,341.8c-0.2,0.8,0,1.6,0.5,2.3l9,12.3c0.7,1,1.7,1.7,2.8,2l193.3,16.9
			c2.2-0.6,3.9-1.1,5-1.5c1.4-0.5,2.5-1.5,3.1-2.8C515.2,365.8,516.8,360.8,516.8,360.8z"/>
		<path id="ligh_x5F_back_12_" class="st3" d="M317.1,331.3c0,0-0.7,6.7-10.2,5l0,0C309.7,334.8,313.1,333.1,317.1,331.3
			L317.1,331.3z"/>
		<path id="light_x5F_front_12_" class="st3" d="M508.2,352.6c0,0,1.6,6.5,9,7l0,0l1.3-3.9c0.3-0.7-0.2-1.5-0.9-1.7
			c-2.5-0.6-7.7-2-9.6-2.4L508.2,352.6z"/>
		<path id="front_x5F_color_12_" class="st3" d="M490.8,347.6l-52.4-9.6c0,0,0.9,0.7,3.7,1.5l18.2,3.8l46.9,8
			C501.8,350,496.4,348.7,490.8,347.6z"/>
		<path id="glass_x5F_front_12_" class="st4" d="M415.5,321.3l-0.4,0.6c-0.1,0.8,0.2,1.6,0.8,2.2l11.2,11.8c0.5,0.5,1.3,1.3,2.4,1.4
			l8.9,0.8l-0.7-0.6c-0.2,0-0.3-0.1-0.4-0.2l-20.9-16c-0.3-0.3-0.5-0.3-0.5-0.3L415.5,321.3z"/>
		<path id="glass_x5F_mid_12_" class="st4" d="M409.9,323.4l-1.2-1.1l-32.4-2.8c-1.9-0.2-3.4,1.5-3,3.3l1.3,7.6
			c0.2,1.2,1.3,2.1,2.5,2.2l43.6,3.8l0.8,0.1C416.8,329.8,413.4,326.6,409.9,323.4z"/>
		<path id="glass_x5F_back_12_" class="st4" d="M361.5,320.1c-10,1.6-20,4.5-26,6.4c-1.3,0.4-1.1,2.4,0.3,2.5l27.1,2.4
			c1.7,0.2,3.1-1.4,2.8-3.1l-1.3-6.2C364.1,320.8,362.9,319.9,361.5,320.1z"/>
		<path id="blink_x5F_front_12_" class="st5" d="M421.4,329.8l-3.6-3.9l1.1-2.8l4.1,3.2C422.4,327.5,421.9,328.7,421.4,329.8z
			 M437.5,337.5c-0.2,0-0.3-0.1-0.4-0.2l-10.3-7.9c-0.5,1-0.9,2.1-1.4,3.1c-0.2,0.4-0.4,0.7-0.5,1.1l2.2,2.3
			c0.5,0.5,1.3,1.3,2.4,1.4l8.9,0.8L437.5,337.5z"/>
		<path id="blink_x5F_mid_12_" class="st6" d="M384.1,320.2l-5.1,12.7l-1.9-0.2c-0.2,0-0.4-0.1-0.6-0.1l5.1-12.6L384.1,320.2z
			 M412.8,326.1l-3.8,9.3l2.1,0.2l3.2-7.9C413.8,327.2,413.3,326.6,412.8,326.1z M409.9,323.4l-0.8-0.8l-5,12.4l2.1,0.2l4.5-11.1
			C410.4,323.9,410.1,323.6,409.9,323.4z M393.3,321l-5.1,12.7l2.1,0.2l5.1-12.7L393.3,321z M386.6,320.4l-5.1,12.7l3.8,0.3
			l5.1-12.7L386.6,320.4z"/>
		<path id="blink_x5F_back_12_" class="st6" d="M363.8,320.9l-4.1,10.2l-2.1-0.2l4.4-10.9C362.6,320.1,363.3,320.4,363.8,320.9z
			 M343.8,324.1l-2.2,5.5l2.5,0.2l2.6-6.5C345.7,323.6,344.7,323.8,343.8,324.1z M350.5,322.3l-3.1,7.8l3.8,0.3l3.7-9.1
			C353.4,321.7,351.9,322,350.5,322.3z"/>
		<path id="main_x5F_stroke_12_" class="st7" d="M518.7,354.6c-0.2-0.4-0.6-0.7-1.1-0.8c-4.6-1.2-20.3-5.1-26.8-6.4l-52.4-9.6
			c-0.7-0.4-1.2-0.8-1.2-0.8c0,0,0,0,0,0l-20.8-16c-0.7-0.5-1.4-0.9-2.3-1.1c-8.6-2-20.2-3.1-20.3-3.1c-45.3-4-83.2,16.6-93.7,23
			c-0.7,0.4-1.3,1.2-1.4,2c-0.2,0.8,0,1.7,0.5,2.4l8.1,11.2c0.8,1.1,2.4,2.6,3.6,3.2c11.2,6.4,31.3,9.1,31.5,9.1l120.3,10.5
			c25.5,2.2,41.3-2.2,46.9-4.2c1.4-0.5,2.6-1.6,3.3-2.9c2.5-5.2,4.5-11.3,4.6-11.4l1.3-3.8C519,355.5,518.9,355,518.7,354.6z
			 M490.8,347.9c2.2,0.4,5.3,1.1,8.8,1.9c-1.6-0.3-3.2-0.5-4.7-0.8c-24.3-4.1-41.9-7-52.7-9.7c-0.7-0.2-1.3-0.4-1.8-0.6L490.8,347.9
			z M436.9,337.5C436.9,337.5,436.9,337.5,436.9,337.5C437,337.5,437,337.5,436.9,337.5l0.1,0.1c0.1,0,0.1,0.1,0.2,0.1l-7.8-0.7
			c-0.6-0.1-1.2-0.3-1.6-0.8l-11.8-12.4c-0.4-0.4-0.6-0.9-0.7-1.4c0-0.3,0-0.5,0.2-0.8l0.3-0.4c0.1,0.1,0.2,0.1,0.3,0.2L436.9,337.5
			z M415.4,321l-0.2,0.3c-0.2,0.3-0.3,0.8-0.3,1.2c0.1,0.6,0.4,1.2,0.8,1.7l11.8,12.4c0.5,0.5,1.2,0.9,2,1l8.8,0.8
			c0.9,0.5,2.1,1.1,3.6,1.5c10.8,2.8,28.4,5.7,52.8,9.7c4,0.7,8.2,1.4,12.5,2.1c0.2,0,0.4,0.1,0.6,0.1c0.2,1.2,1.5,7.1,9.1,8
			c-0.1,0.2-0.1,0.4-0.2,0.7l-85.3-7.5c-2.9-6.5-6.3-12-9.6-16.6c0-0.1-0.1-0.1-0.1-0.1c-7.4-10.2-14.6-15.8-17.2-17.7
			c3.1,0.5,6.5,1.1,9.6,1.8C414.5,320.6,415,320.7,415.4,321z M377.3,363.9l-3.1-15.3l56.6,5l-1.3,14.9L377.3,363.9z M420.9,336.2
			l-43.7-3.8c-1.1-0.1-2-0.9-2.2-2l-1.4-7.6c-0.2-0.8,0.1-1.6,0.6-2.2c0.5-0.6,1.3-0.9,2.1-0.8l32.3,2.8
			C411.8,325.5,416.3,330,420.9,336.2z M403.2,318.5c0.3,0.2,2,1.3,4.6,3.5l-31.5-2.8c-1-0.1-1.9,0.3-2.6,1s-0.9,1.7-0.7,2.7
			l1.4,7.6c0.3,1.3,1.4,2.3,2.7,2.5l44.2,3.9c3.2,4.5,6.5,9.8,9.3,16.2l-56.6-5l-6.2-30.5c8.2-0.8,16.9-1,25.9-0.2
			C393.9,317.4,398,317.8,403.2,318.5z M316.7,331.8c-0.2,0.7-0.7,2.1-2.1,3.1c-1.6,1.2-3.9,1.6-6.8,1.3
			C310.3,334.8,313.3,333.3,316.7,331.8z M300.4,340.3c1.6-0.9,3.7-2.2,6.4-3.7c0.5,0.1,1,0.2,1.5,0.2c2.7,0.2,4.9-0.2,6.5-1.4
			c1.9-1.4,2.3-3.3,2.4-3.9c12.4-5.6,29.9-11.7,50-13.8l6.1,30.3l-74.1-6.5C299.6,341,300,340.6,300.4,340.3z M307.8,355.1
			l-8.1-11.2c-0.4-0.5-0.5-1.2-0.5-1.8l74.4,6.5l3.1,15.3l-65.4-5.7c0,0,0,0-0.1,0C310.1,357.5,308.6,356.1,307.8,355.1z
			 M342.6,367.2c-0.2,0-18.7-2.6-30-8.4l190.3,16.6c-8,1.9-21.4,3.9-40,2.2L342.6,367.2z M512.4,370.9c-0.6,1.2-1.7,2.2-3,2.6
			c-1.2,0.4-2.8,1-5,1.5l-74.4-6.5l1.3-14.9l85.1,7.4C515.7,363.2,514.2,367.3,512.4,370.9z M518.3,355.7l-1.2,3.5
			c-7-0.7-8.4-5.8-8.7-7.3c3.9,1,7.4,1.8,9.1,2.3c0.3,0.1,0.6,0.3,0.7,0.6C518.4,355.1,518.4,355.4,518.3,355.7z"/>
		<path id="back_36_" class="st2" d="M385.2,347.1l-5.7-0.5c-0.7-0.1-1.2-0.6-1.3-1.3l-0.2-1.7c-0.1-0.9,0.6-1.6,1.5-1.5l5.7,0.5
			c0.7,0.1,1.2,0.6,1.3,1.3l0.2,1.7C386.8,346.4,386,347.2,385.2,347.1z"/>
		<path id="door_12_" class="st7" d="M385.1,347.4l-5.7-0.5c-0.8-0.1-1.4-0.7-1.5-1.5l-0.2-1.7c0-0.5,0.1-1,0.5-1.3
			c0.4-0.4,0.8-0.5,1.3-0.5l5.7,0.5c0.8,0.1,1.4,0.7,1.5,1.5l0.2,1.7c0,0.5-0.1,1-0.5,1.3C386.1,347.2,385.6,347.4,385.1,347.4z
			 M379.5,342.4c-0.3,0-0.7,0.1-0.9,0.3c-0.2,0.2-0.4,0.6-0.3,0.9l0.2,1.7c0.1,0.5,0.5,1,1,1l5.7,0.5c0.3,0,0.7-0.1,0.9-0.3
			c0.2-0.2,0.4-0.6,0.3-0.9l-0.2-1.7c-0.1-0.5-0.5-1-1-1L379.5,342.4z"/>
		<path id="back_35_" class="st8" d="M516.7,371l-9.8-0.9c-0.6,0-1-0.5-1.1-1l-0.1-1.3c-0.1-0.7,0.5-1.4,1.3-1.3l10.3,0.9
			c0.7,0.1,1.2,0.8,1,1.5l-0.4,1.3C517.8,370.7,517.3,371,516.7,371z"/>
		<path id="front-bmp_12_" class="st7" d="M516.7,371.3l-9.8-0.9c-0.7-0.1-1.2-0.6-1.3-1.3l-0.1-1.3c0-0.4,0.1-0.9,0.4-1.2
			c0.3-0.3,0.7-0.5,1.2-0.4l10.3,0.9c0.4,0,0.8,0.3,1.1,0.6c0.2,0.4,0.3,0.8,0.2,1.2l-0.4,1.3C518,370.9,517.4,371.3,516.7,371.3z
			 M507,366.8c-0.3,0-0.5,0.1-0.7,0.3c-0.2,0.2-0.3,0.5-0.3,0.7l0.1,1.3c0,0.4,0.4,0.8,0.8,0.8l9.8,0.9c0.4,0,0.8-0.2,0.9-0.6
			l0.4-1.3c0.1-0.3,0-0.5-0.1-0.7c-0.2-0.2-0.4-0.4-0.7-0.4L507,366.8z"/>
		<path id="back_34_" class="st8" d="M302,347.1c-1.7-2-5.1-0.5-5.1,1.6c0,1.5,1.4,3.2,4.2,3.5l9.5,0.8c0.6,0,0.8-0.7,0.3-0.8
			C304.5,350.4,304.1,349.6,302,347.1z"/>
		<path id="back_x5F_bmp_12_" class="st7" d="M310.6,353.2l-9.5-0.8c-2.9-0.3-4.5-2.1-4.5-3.7c0-1.1,0.8-2.1,2-2.6
			c1-0.4,2.5-0.4,3.5,0.8l0,0c0.2,0.2,0.3,0.4,0.5,0.5c1.7,2,2.5,2.9,8.3,4.4c0.4,0.1,0.6,0.4,0.5,0.7
			C311.4,353,311.1,353.3,310.6,353.2z M300.1,346.4c-0.5,0-0.9,0-1.3,0.2c-1,0.4-1.7,1.2-1.7,2.1c0,1.4,1.4,3,4,3.2l9.5,0.8
			c0.2,0,0.3-0.1,0.3-0.2c0,0,0-0.1-0.1-0.1c-6-1.6-6.8-2.5-8.6-4.6c-0.1-0.2-0.3-0.4-0.5-0.5C301.3,346.7,300.7,346.5,300.1,346.4z
			"/>
		<path id="window_x5F_back_12_" class="st7" d="M362.9,331.7l-27.1-2.4c-0.9-0.1-1.4-0.8-1.4-1.4c-0.1-0.6,0.2-1.4,1.1-1.7
			c6.4-2.1,16.1-4.9,26-6.4l0,0c1.5-0.2,2.9,0.8,3.2,2.3l1.3,6.2c0.2,0.9-0.1,1.8-0.7,2.5C364.7,331.5,363.8,331.8,362.9,331.7z
			 M361.5,320.4c-9.8,1.6-19.5,4.3-25.9,6.4c-0.6,0.2-0.7,0.7-0.7,1.1c0,0.4,0.3,0.8,0.9,0.9l27.1,2.4c0.7,0.1,1.4-0.2,1.9-0.8
			c0.5-0.5,0.7-1.3,0.5-2l-1.3-6.2C363.9,321,362.8,320.2,361.5,320.4L361.5,320.4z"/>
	</g>
	<g id="normal_1_">
		<path id="body_x5F_main_6_" class="st0" d="M237.9,351.8l1.3-5.1c0.2-0.8-0.3-1.6-1.1-1.7c-4.9-0.8-20.6-3.4-27.2-4l-53-5
			c-0.2,0-1.2-0.6-1.3-0.7l-22.2-14.1c-0.7-0.4-1.4-0.7-2.2-0.8c-8.8-1.2-20.3-1.3-20.3-1.3c-45.6,0-81.9,24.1-91.4,31
			c-1.3,1-1.5,2.9-0.5,4.1l10,11.5c0.8,0.9,1.8,1.5,2.9,1.8c25.5,6,58.1,6.3,58.1,6.3s62.4,0,94.6,0c25.7,0,41-5.9,46.2-8.3
			c1.3-0.6,2.3-1.7,2.9-3C236.8,356.9,237.9,351.8,237.9,351.8z"/>
		<path id="body_x5F_bottom_6_" class="st1" d="M33,367.4c13.7,5.9,31.9,6.3,31.9,6.3s88.6,0,120.7,0c20,0,33.8-3.6,41.3-6.3
			L33,367.4z"/>
		<path id="body_x5F_mid_6_" class="st2" d="M237.9,351.8l-218.6,0c-0.1,0.8,0.1,1.6,0.7,2.3l10,11.5c0.8,0.9,1.8,1.5,2.9,1.8l194,0
			c2.1-0.8,3.7-1.5,4.9-2c1.3-0.6,2.3-1.7,2.9-3C236.8,356.9,237.9,351.8,237.9,351.8z"/>
		<path id="ligh_x5F_back_6_" class="st3" d="M36.4,339.8c0,0-0.2,6.7-9.8,5.9l0,0C29.3,343.9,32.6,341.9,36.4,339.8L36.4,339.8z"/>
		<path id="light_x5F_front_6_" class="st3" d="M228.7,344.4c0,0,2.2,6.4,9.6,6.1l0,0l1-4c0.2-0.7-0.3-1.5-1.1-1.6
			c-2.6-0.4-7.9-1.3-9.8-1.6L228.7,344.4z"/>
		<path id="front_x5F_color_6_" class="st3" d="M210.9,340.9l-53-5c0,0,1,0.6,3.8,1.2l18.5,2.2l47.4,3.9
			C222,342.3,216.6,341.5,210.9,340.9z"/>
		<path id="glass_x5F_front_6_" class="st4" d="M133.6,321.2l-0.3,0.6c0,0.8,0.3,1.6,0.9,2.1l12.2,10.8c0.5,0.5,1.4,1.2,2.5,1.2h8.9
			l-0.8-0.5c-0.2,0-0.3-0.1-0.4-0.2l-22.2-14.1c-0.3-0.2-0.5-0.3-0.5-0.3L133.6,321.2z"/>
		<path id="glass_x5F_mid_6_" class="st4" d="M128.2,323.8l-1.3-1H94.3c-1.9,0-3.2,1.8-2.7,3.6l2,7.5c0.4,1.2,1.4,2,2.7,2H140h0.8
			C135.6,329.7,131.9,326.7,128.2,323.8z"/>
		<path id="glass_x5F_back_6_" class="st4" d="M79.7,324.8c-9.9,2.5-19.5,6.2-25.3,8.7c-1.3,0.5-0.9,2.5,0.5,2.5h27.2
			c1.7,0,3-1.7,2.5-3.3l-1.8-6.1C82.4,325.3,81,324.5,79.7,324.8z"/>
		<path id="blink_x5F_front_6_" class="st5" d="M140.2,329.2l-4-3.5l0.9-2.9l4.4,2.8C141,326.8,140.6,328,140.2,329.2z M156.9,335.4
			c-0.2,0-0.3-0.1-0.4-0.2l-11-7c-0.4,1.1-0.7,2.2-1.1,3.2c-0.1,0.4-0.3,0.8-0.4,1.1l2.4,2.1c0.5,0.5,1.4,1.2,2.5,1.2h8.9
			L156.9,335.4z"/>
		<path id="blink_x5F_mid_6_" class="st6" d="M102.2,322.9l-4,13.1h-1.9c-0.2,0-0.4,0-0.6-0.1l4-13H102.2z M131.3,326.3l-2.9,9.6
			h2.2l2.5-8.2C132.4,327.3,131.9,326.8,131.3,326.3z M128.2,323.8l-0.9-0.7l-3.9,12.8h2.2l3.5-11.5
			C128.7,324.3,128.4,324.1,128.2,323.8z M111.4,322.9l-4,13.1h2.2l4-13.1H111.4z M104.7,322.9l-4,13.1h3.8l4-13.1H104.7z"/>
		<path id="blink_x5F_back_6_" class="st6" d="M82,325.4L78.8,336h-2.2l3.4-11.2C80.8,324.7,81.5,324.9,82,325.4z M62.4,330.3
			l-1.7,5.7h2.5l2-6.7C64.2,329.6,63.3,330,62.4,330.3z M68.9,328l-2.4,8h3.8l2.9-9.4C71.7,327,70.3,327.5,68.9,328z"/>
		<path id="main_x5F_stroke_6_" class="st7" d="M239.3,345.4c-0.3-0.4-0.7-0.7-1.1-0.7c-4.7-0.8-20.6-3.4-27.2-4l-53-5
			c-0.8-0.4-1.2-0.7-1.2-0.7c0,0,0,0,0,0l-22.2-14.1c-0.7-0.5-1.5-0.7-2.3-0.9c-8.8-1.2-20.4-1.3-20.5-1.3
			c-45.4,0-81.4,23.8-91.3,31.1c-0.7,0.5-1.1,1.3-1.2,2.1c-0.1,0.9,0.2,1.7,0.7,2.4l9.1,10.4c0.9,1,2.6,2.3,3.9,2.9
			c11.7,5.4,32,6.4,32.2,6.4h120.7c25.6,0,40.9-5.8,46.3-8.3c1.4-0.6,2.5-1.8,3-3.2c2.1-5.4,3.5-11.6,3.6-11.8l1-3.9
			C239.6,346.3,239.5,345.8,239.3,345.4z M210.9,341.2c2.2,0.2,5.4,0.6,8.9,1.1c-1.6-0.1-3.2-0.3-4.8-0.4
			c-24.6-1.9-42.4-3.3-53.4-5.1c-0.7-0.1-1.3-0.3-1.9-0.5L210.9,341.2z M156.3,335.5C156.3,335.5,156.3,335.5,156.3,335.5
			C156.4,335.5,156.4,335.5,156.3,335.5l0.1,0.1c0.1,0,0.1,0.1,0.2,0.1h-7.8c-0.6,0-1.2-0.2-1.7-0.6l-12.8-11.3
			c-0.4-0.4-0.7-0.8-0.8-1.3c-0.1-0.3,0-0.5,0.1-0.8l0.2-0.4c0.1,0.1,0.2,0.1,0.3,0.2L156.3,335.5z M133.4,320.9l-0.2,0.4
			c-0.2,0.4-0.3,0.8-0.2,1.2c0.1,0.6,0.5,1.2,1,1.6l12.8,11.3c0.6,0.5,1.3,0.8,2,0.8h8.9c0.9,0.4,2.2,1,3.8,1.2
			c11,1.8,28.8,3.2,53.4,5.1c4,0.3,8.3,0.6,12.6,1c0.2,0,0.4,0.1,0.6,0.1c0.3,1.2,2.1,7,9.8,7.2c0,0.2-0.1,0.4-0.2,0.8h-85.6
			c-3.5-6.2-7.3-11.4-11-15.7c0,0-0.1-0.1-0.1-0.1c-8.2-9.5-15.9-14.5-18.7-16.1c3.2,0.2,6.6,0.5,9.7,0.9
			C132.5,320.6,133,320.8,133.4,320.9z M99.2,367.1l-4.4-15h56.8v15H99.2z M140.2,335.7H96.3c-1.1,0-2.1-0.7-2.4-1.8l-2-7.5
			c-0.2-0.8-0.1-1.6,0.4-2.2c0.5-0.6,1.2-1,2-1h32.4C130.3,325.8,135.1,329.8,140.2,335.7z M121.1,319.6c0.3,0.2,2.1,1.1,4.8,3.1
			H94.3c-1,0-1.9,0.5-2.5,1.2c-0.6,0.8-0.8,1.8-0.5,2.7l2,7.5c0.4,1.3,1.6,2.2,3,2.2h44.4c3.6,4.2,7.3,9.2,10.7,15.3H94.6l-8.8-29.8
			c8.1-1.6,16.8-2.5,25.8-2.5C111.7,319.2,115.9,319.3,121.1,319.6z M36,340.3c-0.1,0.7-0.6,2.2-1.8,3.3c-1.5,1.4-3.8,2-6.7,1.8
			C29.9,343.9,32.8,342.2,36,340.3z M20.6,350.2c1.5-1.1,3.5-2.5,6.1-4.2c0.5,0,1,0.1,1.5,0.1c2.7,0,4.8-0.7,6.3-2
			c1.7-1.6,2-3.5,2.1-4.1c11.9-6.6,28.7-14.2,48.6-18.1l8.8,29.7H19.7C19.8,351,20.2,350.5,20.6,350.2z M29.3,364.3l-9.1-10.4
			c-0.4-0.5-0.6-1.1-0.6-1.8h74.6l4.4,15H33c0,0,0,0-0.1,0C31.8,366.5,30.1,365.3,29.3,364.3z M64.9,373.4c-0.2,0-18.9-0.9-30.6-5.7
			h191c-7.8,2.6-21,5.7-39.7,5.7L64.9,373.4z M234.4,362.2c-0.5,1.3-1.5,2.3-2.7,2.9c-1.1,0.5-2.7,1.2-4.8,2h-74.7v-15h85.4
			C237,354.3,235.9,358.5,234.4,362.2z M239,346.6l-0.9,3.6c-7-0.1-8.9-5-9.3-6.5c4,0.6,7.5,1.2,9.3,1.5c0.3,0.1,0.6,0.2,0.8,0.5
			C239,346,239,346.3,239,346.6z"/>
		<path id="back_18_" class="st2" d="M105.6,349.6h-5.7c-0.7,0-1.3-0.5-1.4-1.1l-0.3-1.7c-0.2-0.9,0.5-1.7,1.4-1.7h5.7
			c0.7,0,1.3,0.5,1.4,1.1l0.3,1.7C107.1,348.8,106.5,349.6,105.6,349.6z"/>
		<path id="door_6_" class="st7" d="M105.6,349.9h-5.7c-0.8,0-1.5-0.6-1.7-1.4l-0.3-1.7c-0.1-0.5,0-1,0.4-1.4
			c0.3-0.4,0.8-0.6,1.3-0.6h5.7c0.8,0,1.5,0.6,1.7,1.4l0.3,1.7c0.1,0.5,0,1-0.4,1.4C106.6,349.7,106.1,349.9,105.6,349.9z
			 M99.6,345.4c-0.3,0-0.6,0.1-0.9,0.4c-0.2,0.3-0.3,0.6-0.2,0.9l0.3,1.7c0.1,0.5,0.6,0.9,1.1,0.9h5.7c0.3,0,0.6-0.1,0.9-0.4
			c0.2-0.3,0.3-0.6,0.2-0.9l-0.3-1.7c-0.1-0.5-0.6-0.9-1.1-0.9H99.6z"/>
		<path id="back_17_" class="st8" d="M238.7,362h-9.8c-0.6,0-1-0.4-1.1-0.9l-0.2-1.3c-0.1-0.7,0.4-1.4,1.1-1.4H239
			c0.7,0,1.3,0.7,1.1,1.4l-0.2,1.3C239.8,361.6,239.3,362,238.7,362z"/>
		<path id="front-bmp_6_" class="st7" d="M238.7,362.2h-9.8c-0.7,0-1.3-0.5-1.4-1.2l-0.2-1.3c-0.1-0.4,0-0.9,0.3-1.2
			c0.3-0.3,0.7-0.5,1.1-0.5H239c0.4,0,0.8,0.2,1.1,0.5c0.3,0.3,0.4,0.8,0.3,1.2l-0.2,1.3C240,361.7,239.4,362.2,238.7,362.2z
			 M228.7,358.6c-0.3,0-0.5,0.1-0.7,0.3c-0.2,0.2-0.2,0.5-0.2,0.7l0.2,1.3c0.1,0.4,0.4,0.7,0.9,0.7h9.8c0.4,0,0.8-0.3,0.9-0.7
			l0.2-1.3c0.1-0.3,0-0.5-0.2-0.7c-0.2-0.2-0.4-0.3-0.7-0.3H228.7z"/>
		<path id="back_16_" class="st8" d="M22.7,356.8c-1.9-1.8-5.1-0.1-4.9,2c0.1,1.5,1.7,3.1,4.5,3.1h9.6c0.6,0,0.7-0.8,0.2-0.8
			C25.5,360,25.1,359.1,22.7,356.8z"/>
		<path id="back_x5F_bmp_6_" class="st7" d="M31.9,362.2h-9.6c-2.9,0-4.6-1.7-4.8-3.3c-0.1-1.1,0.6-2.2,1.8-2.8
			c1-0.5,2.5-0.6,3.6,0.5l0,0c0.2,0.2,0.4,0.3,0.5,0.5c1.9,1.9,2.7,2.7,8.7,3.7c0.4,0.1,0.6,0.3,0.6,0.7
			C32.7,361.9,32.4,362.2,31.9,362.2z M20.8,356.4c-0.5,0-0.9,0.1-1.3,0.3c-1,0.5-1.6,1.4-1.5,2.2c0.1,1.4,1.6,2.8,4.2,2.8h9.6
			c0.2,0,0.2-0.1,0.3-0.2c0,0,0-0.1-0.1-0.1c-6.2-1.1-7-1.9-9-3.8c-0.2-0.2-0.3-0.3-0.5-0.5C22,356.5,21.4,356.4,20.8,356.4z"/>
		<path id="window_x5F_back_6_" class="st7" d="M82.1,336.2H54.9c-0.9,0-1.4-0.6-1.5-1.3c-0.1-0.6,0.1-1.4,0.9-1.8
			c6.2-2.6,15.7-6.3,25.3-8.7l0,0c1.5-0.4,3,0.5,3.4,2l1.8,6.1c0.3,0.9,0.1,1.8-0.5,2.5C83.8,335.8,83,336.2,82.1,336.2z
			 M79.7,325.1c-9.7,2.4-19.1,6-25.3,8.7c-0.6,0.2-0.7,0.8-0.6,1.1c0.1,0.4,0.4,0.8,1,0.8h27.2c0.7,0,1.4-0.3,1.8-0.9
			c0.4-0.6,0.6-1.3,0.4-2l-1.8-6.1C82.1,325.5,80.9,324.8,79.7,325.1L79.7,325.1z"/>
	</g>
</g>
<g id="animation_x5F_steps_x5F_v1">
	<g id="moving_x5F_backward_1_">
		<path id="body_x5F_main_9_" class="st0" d="M794.3,156.5l0.8-5.2c0.1-0.8-0.5-1.6-1.3-1.6c-5-0.4-20.8-1.5-27.5-1.6l-53.3-0.3
			c-0.2,0-1.2-0.5-1.4-0.6L688.4,135c-0.7-0.4-1.5-0.6-2.3-0.6c-8.9-0.5-20.3,0.4-20.3,0.4c-45.4,4-79.5,31.1-88.3,38.9
			c-1.2,1.1-1.3,3-0.1,4.1l11,10.6c0.8,0.8,1.9,1.3,3.1,1.5c25.9,3.8,58.4,1.2,58.4,1.2s62.2-5.4,94.2-8.2
			c25.6-2.2,40.4-9.4,45.3-12.3c1.3-0.7,2.2-1.9,2.6-3.3C793.6,161.7,794.3,156.5,794.3,156.5z"/>
		<path id="body_x5F_bottom_9_" class="st1" d="M591.5,189.9c14.2,4.7,32.4,3.5,32.4,3.5s88.2-7.7,120.3-10.5
			c20-1.7,33.4-6.5,40.6-9.9L591.5,189.9z"/>
		<path id="body_x5F_mid_9_" class="st2" d="M794.3,156.5l-217.8,19.1c0,0.8,0.2,1.6,0.8,2.2l11,10.6c0.8,0.8,1.9,1.3,3.1,1.5
			L784.8,173c2-0.9,3.6-1.8,4.7-2.4c1.3-0.7,2.2-1.9,2.6-3.3C793.6,161.7,794.3,156.5,794.3,156.5z"/>
		<path id="ligh_x5F_back_9_" class="st3" d="M592.5,162.1c0,0,0.4,6.7-9.2,6.7l0,0C585.8,166.9,588.9,164.6,592.5,162.1
			L592.5,162.1z"/>
		<path id="light_x5F_front_9_" class="st3" d="M784.4,149.9c0,0,2.7,6.2,10.1,5.3l0,0l0.6-4c0.1-0.8-0.4-1.5-1.2-1.5
			c-2.6-0.2-8-0.6-9.9-0.7L784.4,149.9z"/>
		<path id="front_x5F_color_9_" class="st3" d="M766.4,148.1l-53.3-0.3c0,0,1,0.6,3.9,0.8l18.6,0.6l47.6-0.3
			C777.7,148.5,772.1,148.1,766.4,148.1z"/>
		<path id="glass_x5F_front_9_" class="st4" d="M687.7,135.2l-0.3,0.6c0.1,0.8,0.5,1.5,1.1,2l13.1,9.7c0.6,0.4,1.5,1.1,2.6,1
			l8.9-0.8l-0.8-0.5c-0.2,0-0.3-0.1-0.5-0.1L688.4,135c-0.4-0.2-0.6-0.3-0.6-0.3L687.7,135.2z"/>
		<path id="glass_x5F_mid_9_" class="st4" d="M682.5,138.2l-1.4-0.8l-32.4,2.8c-1.9,0.2-3,2.1-2.4,3.8l2.6,7.3
			c0.5,1.2,1.6,1.9,2.8,1.8l43.6-3.8l0.8-0.1C690.4,143.4,686.5,140.8,682.5,138.2z"/>
		<path id="glass_x5F_back_9_" class="st4" d="M634.3,143.4c-9.6,3.3-18.9,7.9-24.5,10.8c-1.2,0.7-0.7,2.6,0.7,2.4l27.1-2.4
			c1.7-0.2,2.8-1.9,2.2-3.5l-2.3-5.9C637,143.7,635.6,143,634.3,143.4z"/>
		<path id="blink_x5F_front_9_" class="st5" d="M695,142.6l-4.3-3.2l0.6-2.9l4.6,2.4C695.6,140.1,695.3,141.3,695,142.6z
			 M712.2,147.3c-0.2,0-0.3-0.1-0.5-0.1l-11.5-6c-0.3,1.1-0.6,2.2-0.9,3.3c-0.1,0.4-0.2,0.8-0.3,1.2l2.5,1.9c0.6,0.4,1.5,1.1,2.6,1
			l8.9-0.8L712.2,147.3z"/>
		<path id="blink_x5F_mid_9_" class="st6" d="M656.5,139.6l-2.8,13.4l-1.9,0.2c-0.2,0-0.4,0-0.6,0l2.8-13.3L656.5,139.6z
			 M685.9,140.4l-2.1,9.9l2.1-0.2l1.8-8.4C687.1,141.3,686.5,140.9,685.9,140.4z M682.5,138.2l-1-0.6l-2.8,13.1l2.1-0.2l2.5-11.7
			C683.1,138.6,682.8,138.4,682.5,138.2z M665.8,138.8l-2.8,13.4l2.1-0.2l2.8-13.4L665.8,138.8z M659.1,139.3l-2.8,13.4l3.8-0.3
			l2.8-13.4L659.1,139.3z"/>
		<path id="blink_x5F_back_9_" class="st6" d="M636.7,143.8l-2.3,10.8l-2.1,0.2l2.4-11.5C635.4,143.2,636.1,143.4,636.7,143.8z
			 M617.5,150.4l-1.2,5.8l2.5-0.2l1.4-6.8C619.3,149.6,618.4,150,617.5,150.4z M623.9,147.5l-1.7,8.2l3.8-0.3l2-9.6
			C626.6,146.4,625.2,146.9,623.9,147.5z"/>
		<path id="main_x5F_stroke_9_" class="st7" d="M795.1,150c-0.3-0.4-0.7-0.6-1.2-0.6c-4.8-0.4-20.8-1.5-27.5-1.6l-53.3-0.3
			c-0.8-0.3-1.3-0.6-1.3-0.6c0,0,0,0,0,0l-23.3-12.2c-0.8-0.4-1.6-0.6-2.4-0.7c-8.8-0.5-20.5,0.4-20.6,0.5
			c-45.3,4-79,30.8-88.3,38.9c-0.6,0.6-1,1.4-1,2.2c0,0.9,0.3,1.7,0.9,2.3l9.9,9.6c1,0.9,2.8,2.1,4.1,2.6
			c12.1,4.3,32.4,3.5,32.6,3.5l120.3-10.5c25.5-2.2,40.2-9.3,45.4-12.3c1.3-0.8,2.3-2,2.7-3.4c1.6-5.5,2.5-11.9,2.5-12.1l0.6-4
			C795.5,150.9,795.4,150.4,795.1,150z M766.4,148.3c2.2,0,5.4,0.2,9,0.4c-1.6,0-3.2,0-4.8,0c-24.7,0.2-42.5,0.4-53.6-0.4
			c-0.7-0.1-1.3-0.2-1.9-0.3L766.4,148.3z M711.6,147.4C711.6,147.4,711.6,147.4,711.6,147.4C711.6,147.4,711.6,147.4,711.6,147.4
			l0.1,0.1c0.1,0,0.1,0.1,0.2,0.1l-7.8,0.7c-0.6,0.1-1.2-0.1-1.7-0.5l-13.8-10.2c-0.4-0.3-0.7-0.8-0.9-1.3c-0.1-0.3-0.1-0.5,0.1-0.8
			l0.2-0.4c0.1,0,0.2,0.1,0.3,0.1L711.6,147.4z M687.5,134.9l-0.2,0.4c-0.2,0.4-0.2,0.8-0.1,1.2c0.2,0.6,0.6,1.2,1.1,1.6l13.8,10.2
			c0.6,0.5,1.4,0.7,2.1,0.6l8.8-0.8c1,0.4,2.3,0.8,3.8,0.9c11.1,0.8,29,0.7,53.7,0.4c4.1,0,8.3-0.1,12.7-0.1c0.2,0,0.4,0,0.6,0
			c0.4,1.2,2.7,6.8,10.3,6.3c0,0.2-0.1,0.4-0.1,0.8l-85.3,7.5c-4-5.9-8.2-10.7-12.3-14.7c0,0-0.1-0.1-0.1-0.1
			c-9-8.8-17.1-13-20-14.4c3.2-0.1,6.6-0.1,9.7,0.1C686.6,134.7,687.1,134.8,687.5,134.9z M657.5,183.8l-5.7-14.5l56.6-5l1.3,14.9
			L657.5,183.8z M695.6,149l-43.7,3.8c-1.1,0.1-2.2-0.6-2.6-1.6l-2.7-7.3c-0.3-0.7-0.2-1.6,0.2-2.2c0.4-0.7,1.1-1.1,1.9-1.2
			l32.3-2.8C684.8,140,690,143.6,695.6,149z M675.1,134.6c0.3,0.1,2.2,0.9,5.1,2.6l-31.5,2.8c-1,0.1-1.8,0.6-2.3,1.4
			s-0.6,1.8-0.3,2.7l2.7,7.3c0.5,1.3,1.8,2.1,3.1,1.9l44.2-3.9c3.9,3.9,8.1,8.6,12,14.3l-56.6,5l-11.4-28.9c8-2.3,16.5-4,25.4-4.7
			C665.7,135.1,669.9,134.8,675.1,134.6z M592.2,162.7c-0.1,0.8-0.4,2.2-1.5,3.5c-1.4,1.5-3.6,2.3-6.5,2.4
			C586.4,166.8,589.1,164.8,592.2,162.7z M577.7,173.9c1.4-1.2,3.3-2.8,5.7-4.7c0.5,0,1,0,1.5-0.1c2.7-0.2,4.8-1.1,6.1-2.6
			c1.6-1.7,1.7-3.7,1.7-4.2c11.3-7.6,27.4-16.7,46.9-22.3l11.3,28.8l-74.1,6.5C577,174.7,577.3,174.2,577.7,173.9z M587.5,187.2
			l-9.9-9.6c-0.5-0.5-0.7-1.1-0.8-1.7l74.4-6.5l5.7,14.5l-65.4,5.7c0,0,0,0-0.1,0C590.2,189.1,588.5,188.1,587.5,187.2z
			 M623.8,193.1c-0.2,0-18.9,0.7-31-3l190.3-16.6c-7.6,3.3-20.4,7.5-39,9.2L623.8,193.1z M791.8,167.2c-0.4,1.3-1.3,2.4-2.5,3.1
			c-1.1,0.6-2.6,1.4-4.6,2.4l-74.4,6.5l-1.3-14.9l85.1-7.4C793.6,159.1,792.9,163.4,791.8,167.2z M794.9,151.3l-0.6,3.7
			c-7,0.5-9.3-4.2-9.8-5.7c4,0.3,7.6,0.5,9.4,0.7c0.3,0,0.6,0.2,0.8,0.4C794.9,150.6,795,150.9,794.9,151.3z"/>
		<path id="back_27_" class="st2" d="M662.3,165.9l-5.7,0.5c-0.7,0.1-1.3-0.4-1.5-1l-0.5-1.7c-0.2-0.8,0.4-1.7,1.2-1.8l5.7-0.5
			c0.7-0.1,1.3,0.4,1.5,1l0.5,1.7C663.8,165,663.2,165.8,662.3,165.9z"/>
		<path id="door_9_" class="st7" d="M662.3,166.2l-5.7,0.5c-0.8,0.1-1.5-0.4-1.8-1.2l-0.5-1.7c-0.1-0.5,0-1,0.2-1.4
			c0.3-0.4,0.7-0.7,1.2-0.7l5.7-0.5c0.8-0.1,1.5,0.4,1.8,1.2l0.5,1.7c0.1,0.5,0,1-0.2,1.4C663.3,165.9,662.8,166.1,662.3,166.2z
			 M655.9,162.2c-0.3,0-0.6,0.2-0.8,0.5c-0.2,0.3-0.2,0.6-0.2,0.9l0.5,1.7c0.1,0.5,0.6,0.9,1.2,0.8l5.7-0.5c0.3,0,0.6-0.2,0.8-0.5
			c0.2-0.3,0.2-0.6,0.2-0.9l-0.5-1.7c-0.1-0.5-0.6-0.9-1.2-0.8L655.9,162.2z"/>
		<path id="back_26_" class="st8" d="M796,166.6l-9.8,0.9c-0.6,0-1.1-0.3-1.2-0.8l-0.4-1.3c-0.2-0.7,0.3-1.4,1-1.5l10.3-0.9
			c0.7-0.1,1.3,0.6,1.3,1.3l-0.1,1.3C797,166.1,796.6,166.5,796,166.6z"/>
		<path id="front-bmp_9_" class="st7" d="M796,166.9l-9.8,0.9c-0.7,0.1-1.3-0.4-1.5-1l-0.4-1.3c-0.1-0.4,0-0.9,0.2-1.2
			c0.2-0.4,0.6-0.6,1.1-0.6l10.3-0.9c0.4,0,0.9,0.1,1.2,0.4c0.3,0.3,0.5,0.7,0.4,1.2l-0.1,1.3C797.3,166.2,796.7,166.8,796,166.9z
			 M785.7,164.1c-0.3,0-0.5,0.2-0.7,0.4c-0.2,0.2-0.2,0.5-0.1,0.7l0.4,1.3c0.1,0.4,0.5,0.7,0.9,0.6l9.8-0.9c0.4,0,0.8-0.4,0.8-0.8
			l0.1-1.3c0-0.3-0.1-0.5-0.3-0.7c-0.2-0.2-0.4-0.3-0.7-0.3L785.7,164.1z"/>
		<path id="back_25_" class="st8" d="M580.4,180.3c-2.1-1.7-5.1,0.4-4.7,2.5c0.3,1.5,2,2.9,4.8,2.7l9.5-0.8c0.6,0,0.7-0.8,0.1-0.9
			C583.4,183.2,582.9,182.4,580.4,180.3z"/>
		<path id="back_x5F_bmp_9_" class="st7" d="M590,184.9l-9.5,0.8c-2.9,0.3-4.8-1.3-5.1-2.9c-0.2-1.1,0.4-2.2,1.6-2.9
			c1-0.6,2.4-0.8,3.6,0.2l0,0c0.2,0.2,0.4,0.3,0.6,0.5c2.1,1.7,2.9,2.4,9,2.9c0.4,0,0.6,0.3,0.6,0.6
			C590.7,184.5,590.5,184.8,590,184.9z M578.4,180c-0.5,0-0.9,0.2-1.2,0.4c-0.9,0.6-1.4,1.5-1.3,2.3c0.3,1.4,1.9,2.7,4.5,2.4
			l9.5-0.8c0.2,0,0.2-0.1,0.2-0.2c0,0,0-0.1-0.1-0.1c-6.2-0.5-7.1-1.3-9.3-3c-0.2-0.1-0.4-0.3-0.6-0.5
			C579.6,180.1,579,179.9,578.4,180z"/>
		<path id="window_x5F_back_9_" class="st7" d="M637.7,154.6l-27.1,2.4c-0.9,0.1-1.5-0.5-1.6-1.1c-0.2-0.6,0-1.4,0.8-1.8
			c6-3.2,15.1-7.6,24.5-10.9l0,0c1.4-0.5,3,0.2,3.6,1.7l2.3,5.9c0.3,0.8,0.2,1.8-0.2,2.6C639.4,154,638.6,154.5,637.7,154.6z
			 M634.4,143.7c-9.4,3.2-18.5,7.7-24.4,10.8c-0.5,0.3-0.6,0.8-0.5,1.2c0.1,0.4,0.5,0.8,1.1,0.7l27.1-2.4c0.7-0.1,1.4-0.5,1.8-1.1
			c0.4-0.6,0.5-1.4,0.2-2.1l-2.3-5.9C636.8,143.9,635.6,143.3,634.4,143.7L634.4,143.7z"/>
		<g id="turbo_x5F_back_2_">
			<path class="st1" d="M629.2,188.6l6.3-3.6l6.2,0.5l1.7,10.6c0,0.5-0.3,1-0.7,1.3l-6.4,3.7c-0.4,0.3-1,0.2-1.4,0l-8.3-6.8
				L629.2,188.6z"/>
			<path class="st7" d="M634.7,201.3C634.7,201.3,634.7,201.3,634.7,201.3l-8.4-6.9c-0.1-0.1-0.1-0.2-0.1-0.3l2.7-5.6
				c0-0.1,0.1-0.1,0.1-0.1l6.3-3.6c0,0,0.1,0,0.2,0l6.2,0.5c0.1,0,0.2,0.1,0.3,0.2l1.7,10.6c0,0,0,0,0,0c0,0.6-0.3,1.2-0.8,1.5
				l-6.4,3.7C635.9,201.6,635.3,201.6,634.7,201.3z M641.5,185.7l-5.9-0.5l-6.1,3.5l-2.5,5.3l8.1,6.7c0.3,0.2,0.8,0.2,1.1,0l6.4-3.7
				c0.4-0.2,0.6-0.6,0.6-1L641.5,185.7z"/>
			<path class="st0" d="M625.3,184.8l8.9-5.1c0.3-0.2,0.7-0.2,1.1-0.1l9.9,2.7c0.4,0.1,0.7,0.3,0.8,0.7l1.8,3c0.2,0.4,0.3,0.9,0,1.4
				l-1.5,2.8c-0.2,0.4-0.7,0.7-1.2,0.7l-4.4,0c-0.2,0-0.5,0.1-0.7,0.2l-7.1,4.1c-0.2,0.1-0.3,0.3-0.5,0.4l-2.9,4.3
				c-0.3,0.4-0.7,0.6-1.2,0.6l-3.3-0.1c-0.5,0-0.9-0.3-1.2-0.7l-1.8-3c-0.2-0.3-0.2-0.7-0.1-1.1l2.7-9.9
				C624.7,185.3,625,185,625.3,184.8z"/>
			<path class="st7" d="M628.7,200.8l-3.6-0.1c-0.6,0-1.1-0.3-1.4-0.8l-1.8-3c-0.2-0.4-0.3-0.8-0.2-1.3l2.7-9.9
				c0.1-0.4,0.4-0.8,0.8-1l8.9-5.1c0.4-0.2,0.8-0.3,1.3-0.2l9.9,2.7c0.4,0.1,0.8,0.4,1,0.8l1.8,3c0.3,0.5,0.3,1.1,0,1.6l-1.7,3.2
				c-0.1,0.3-0.4,0.5-0.6,0.7l-16.1,9.3C629.3,200.7,629,200.8,628.7,200.8z M625.4,185.1c-0.3,0.1-0.4,0.4-0.5,0.7l-2.7,9.9
				c-0.1,0.3,0,0.6,0.1,0.8l1.8,3c0.2,0.3,0.6,0.5,0.9,0.6l3.6,0.1c0.2,0,0.4,0,0.6-0.1l16.1-9.3c0.2-0.1,0.3-0.3,0.4-0.4
				c0,0,0,0,0,0l1.7-3.2c0.2-0.3,0.2-0.8,0-1.1l-1.8-3c-0.1-0.3-0.4-0.4-0.7-0.5l-9.9-2.7c-0.3-0.1-0.6,0-0.8,0.1L625.4,185.1z"/>
			<path class="st2" d="M627.7,187.2l7.3-4.2c0.3-0.2,0.7-0.2,1.1-0.1l8.2,2.2c0.4,0.1,0.7,0.3,0.8,0.7l1.9,3.3
				c0.4,0.7,0.2,1.5-0.5,1.9l-17.7,10.2c-0.7,0.4-1.5,0.2-1.9-0.5l-1.9-3.3c-0.2-0.3-0.2-0.7-0.1-1.1l2.2-8.2
				C627.1,187.7,627.4,187.4,627.7,187.2z"/>
			<path class="st7" d="M624.7,197.4l1.9,3.3c0.5,0.8,1.5,1.1,2.3,0.6l17.7-10.2c0.8-0.5,1.1-1.5,0.6-2.3l-1.9-3.3
				c-0.2-0.4-0.6-0.7-1-0.8l-8.2-2.2c-0.4-0.1-0.9-0.1-1.3,0.2l-7.3,4.2c-0.4,0.2-0.7,0.6-0.8,1l-2.2,8.2
				C624.5,196.6,624.5,197,624.7,197.4z M625.2,197.1c-0.1-0.3-0.2-0.6-0.1-0.8l2.2-8.2c0.1-0.3,0.3-0.5,0.5-0.7l7.3-4.2
				c0.3-0.1,0.6-0.2,0.8-0.1l8.2,2.2c0.3,0.1,0.5,0.3,0.7,0.5l1.9,3.3c0.3,0.5,0.1,1.2-0.4,1.5l-17.7,10.2c-0.5,0.3-1.2,0.1-1.5-0.4
				L625.2,197.1z"/>
			<g id="power_5_">
				<defs>
					<filter id="Adobe_OpacityMaskFilter" filterUnits="userSpaceOnUse" x="637.7" y="199.4" width="7.3" height="8">
						<feFlood  style="flood-color:white;flood-opacity:1" result="back"/>
						<feBlend  in="SourceGraphic" in2="back" mode="normal"/>
					</filter>
				</defs>
				<mask maskUnits="userSpaceOnUse" x="637.7" y="199.4" width="7.3" height="8" id="SVGID_1_">
					<g class="st9">
						<defs>
							<filter id="Adobe_OpacityMaskFilter_1_" filterUnits="userSpaceOnUse" x="637.7" y="199.4" width="7.3" height="8">
								<feFlood  style="flood-color:white;flood-opacity:1" result="back"/>
								<feBlend  in="SourceGraphic" in2="back" mode="normal"/>
							</filter>
						</defs>
						<mask maskUnits="userSpaceOnUse" x="637.7" y="199.4" width="7.3" height="8" id="SVGID_1_">
							<g class="st10">
							</g>
						</mask>
						
							<linearGradient id="SVGID_2_" gradientUnits="userSpaceOnUse" x1="-185.8085" y1="-40.3843" x2="-185.8085" y2="-33.1042" gradientTransform="matrix(-0.866 0.5 0.5 0.866 499.7932 328.8218)">
							<stop  offset="0" style="stop-color:#FFFFFF"/>
							<stop  offset="2.230006e-02" style="stop-color:#F9F9F9"/>
							<stop  offset="0.2898" style="stop-color:#B3B3B3"/>
							<stop  offset="0.5307" style="stop-color:#7C7C7C"/>
							<stop  offset="0.7368" style="stop-color:#545454"/>
							<stop  offset="0.9" style="stop-color:#3C3C3C"/>
							<stop  offset="1" style="stop-color:#333333"/>
						</linearGradient>
						<path class="st11" d="M641.9,206.6l-0.1-0.6c0-0.3,0.4-0.5,0.6-0.2l1.1,1.5c0.2,0.3,0.6,0.1,0.5-0.3l-0.1-0.3
							c-0.1-0.3,0.3-0.5,0.5-0.3l0,0c0.2,0.2,0.6,0,0.5-0.3l-1.4-6.5c0-0.2-0.3-0.3-0.5-0.2l-5.3,3.1c-0.2,0.1-0.2,0.3-0.1,0.5
							l3.6,3.9C641.6,207.1,642,206.9,641.9,206.6z"/>
					</g>
				</mask>
				
					<linearGradient id="SVGID_3_" gradientUnits="userSpaceOnUse" x1="-185.8085" y1="-40.3843" x2="-185.8085" y2="-33.1042" gradientTransform="matrix(-0.866 0.5 0.5 0.866 499.7932 328.8218)">
					<stop  offset="0" style="stop-color:#FFB600"/>
					<stop  offset="1" style="stop-color:#FFB600"/>
				</linearGradient>
				<path class="st12" d="M641.9,206.6l-0.1-0.6c0-0.3,0.4-0.5,0.6-0.2l1.1,1.5c0.2,0.3,0.6,0.1,0.5-0.3l-0.1-0.3
					c-0.1-0.3,0.3-0.5,0.5-0.3l0,0c0.2,0.2,0.6,0,0.5-0.3l-1.4-6.5c0-0.2-0.3-0.3-0.5-0.2l-5.3,3.1c-0.2,0.1-0.2,0.3-0.1,0.5
					l3.6,3.9C641.6,207.1,642,206.9,641.9,206.6z"/>
				<path class="st13" d="M637.6,203.1l3.6,3.9c0.2,0.2,0.4,0.2,0.7,0.1c0.2-0.1,0.4-0.3,0.3-0.6l-0.1-0.6c0,0,0,0,0,0c0,0,0,0,0,0
					l1.1,1.5c0.2,0.2,0.5,0.3,0.7,0.2c0,0,0,0,0,0c0.2-0.1,0.3-0.4,0.3-0.7l-0.1-0.3c0,0,0,0,0,0c0,0,0,0,0,0
					c0.2,0.2,0.5,0.2,0.7,0.1c0,0,0,0,0,0c0.2-0.1,0.3-0.4,0.3-0.6l-1.4-6.5c0-0.2-0.2-0.3-0.3-0.4c-0.2-0.1-0.4-0.1-0.5,0l-5.3,3.1
					c-0.2,0.1-0.3,0.2-0.3,0.4C637.4,202.8,637.5,203,637.6,203.1z M638,202.8L638,202.8l5.3-3.1l0,0l0,0l1.4,6.5c0,0,0,0,0,0l0,0
					c0,0,0,0,0,0c-0.2-0.2-0.5-0.2-0.7-0.1c0,0,0,0,0,0c-0.2,0.1-0.3,0.4-0.3,0.6l0.1,0.3c0,0,0,0,0,0c0,0,0,0,0,0l-1.1-1.5
					c-0.2-0.2-0.4-0.3-0.7-0.2c-0.2,0.1-0.4,0.3-0.4,0.6l0.1,0.6l0,0c0,0,0,0,0,0c0,0,0,0,0,0L638,202.8z"/>
			</g>
		</g>
		<g id="turbo_x5F_front_2_">
			<path class="st1" d="M737.8,179.1l6.3-3.6l6.2,0.5l1.7,10.6c0,0.5-0.3,1-0.7,1.3l-6.4,3.7c-0.4,0.3-1,0.2-1.4,0l-8.3-6.8
				L737.8,179.1z"/>
			<path class="st7" d="M743.4,191.8C743.3,191.8,743.3,191.8,743.4,191.8l-8.4-6.9c-0.1-0.1-0.1-0.2-0.1-0.3l2.7-5.6
				c0-0.1,0.1-0.1,0.1-0.1l6.3-3.6c0,0,0.1,0,0.2,0l6.2,0.5c0.1,0,0.2,0.1,0.3,0.2l1.7,10.6c0,0,0,0,0,0c0,0.6-0.3,1.2-0.8,1.5
				l-6.4,3.7C744.5,192.1,743.9,192.1,743.4,191.8z M750.1,176.2l-5.9-0.5l-6.1,3.5l-2.5,5.3l8.1,6.7c0.3,0.2,0.8,0.2,1.1,0l6.4-3.7
				c0.4-0.2,0.6-0.6,0.6-1L750.1,176.2z"/>
			<path class="st0" d="M733.9,175.3l8.9-5.1c0.3-0.2,0.7-0.2,1.1-0.1l9.9,2.7c0.4,0.1,0.7,0.3,0.8,0.7l1.8,3c0.2,0.4,0.3,0.9,0,1.4
				l-1.5,2.8c-0.2,0.4-0.7,0.7-1.2,0.7l-4.4,0c-0.2,0-0.5,0.1-0.7,0.2l-7.1,4.1c-0.2,0.1-0.3,0.3-0.5,0.4l-2.9,4.3
				c-0.3,0.4-0.7,0.6-1.2,0.6l-3.3-0.1c-0.5,0-0.9-0.3-1.2-0.7l-1.8-3c-0.2-0.3-0.2-0.7-0.1-1.1l2.7-9.9
				C733.3,175.8,733.6,175.5,733.9,175.3z"/>
			<path class="st7" d="M737.3,191.2l-3.6-0.1c-0.6,0-1.1-0.3-1.4-0.8l-1.8-3c-0.2-0.4-0.3-0.8-0.2-1.3l2.7-9.9
				c0.1-0.4,0.4-0.8,0.8-1l8.9-5.1c0.4-0.2,0.8-0.3,1.3-0.2l9.9,2.7c0.4,0.1,0.8,0.4,1,0.8l1.8,3c0.3,0.5,0.3,1.1,0,1.6l-1.7,3.2
				c-0.1,0.3-0.4,0.5-0.6,0.7l-16.1,9.3C737.9,191.2,737.6,191.3,737.3,191.2z M734,175.5c-0.3,0.1-0.4,0.4-0.5,0.7l-2.7,9.9
				c-0.1,0.3,0,0.6,0.1,0.8l1.8,3c0.2,0.3,0.6,0.6,0.9,0.6l3.6,0.1c0.2,0,0.4,0,0.6-0.1l16.1-9.3c0.2-0.1,0.3-0.3,0.4-0.4l1.7-3.2
				c0.2-0.3,0.2-0.8,0-1.1l-1.8-3c-0.1-0.3-0.4-0.4-0.7-0.5l-9.9-2.7c-0.3-0.1-0.6,0-0.8,0.1L734,175.5z"/>
			<path class="st2" d="M736.3,177.7l7.3-4.2c0.3-0.2,0.7-0.2,1.1-0.1l8.2,2.2c0.4,0.1,0.7,0.3,0.8,0.7l1.9,3.3
				c0.4,0.7,0.2,1.5-0.5,1.9l-17.7,10.2c-0.7,0.4-1.5,0.2-1.9-0.5l-1.9-3.3c-0.2-0.3-0.2-0.7-0.1-1.1l2.2-8.2
				C735.7,178.2,736,177.9,736.3,177.7z"/>
			<path class="st7" d="M735.3,191.2l-1.9-3.3c-0.2-0.4-0.3-0.8-0.2-1.3l2.2-8.2c0.1-0.4,0.4-0.8,0.8-1l7.3-4.2
				c0.4-0.2,0.8-0.3,1.3-0.2l8.2,2.2c0.4,0.1,0.8,0.4,1,0.8l1.9,3.3c0.5,0.8,0.2,1.8-0.6,2.3l-17.7,10.2
				C736.8,192.3,735.7,192,735.3,191.2z M736.4,177.9c-0.3,0.1-0.4,0.4-0.5,0.7l-2.2,8.2c-0.1,0.3,0,0.6,0.1,0.8l1.9,3.3
				c0.3,0.5,1,0.7,1.5,0.4l17.7-10.2c0.5-0.3,0.7-1,0.4-1.5l-1.9-3.3c-0.1-0.3-0.4-0.4-0.7-0.5l-8.2-2.2c-0.3-0.1-0.6,0-0.8,0.1
				L736.4,177.9z"/>
			<g id="power_4_">
				<defs>
					<filter id="Adobe_OpacityMaskFilter_2_" filterUnits="userSpaceOnUse" x="746.3" y="189.9" width="7.3" height="8">
						<feFlood  style="flood-color:white;flood-opacity:1" result="back"/>
						<feBlend  in="SourceGraphic" in2="back" mode="normal"/>
					</filter>
				</defs>
				<mask maskUnits="userSpaceOnUse" x="746.3" y="189.9" width="7.3" height="8" id="SVGID_4_">
					<g class="st14">
						<defs>
							<filter id="Adobe_OpacityMaskFilter_3_" filterUnits="userSpaceOnUse" x="746.3" y="189.9" width="7.3" height="8">
								<feFlood  style="flood-color:white;flood-opacity:1" result="back"/>
								<feBlend  in="SourceGraphic" in2="back" mode="normal"/>
							</filter>
						</defs>
						<mask maskUnits="userSpaceOnUse" x="746.3" y="189.9" width="7.3" height="8" id="SVGID_4_">
							<g class="st15">
							</g>
						</mask>
						
							<linearGradient id="SVGID_5_" gradientUnits="userSpaceOnUse" x1="834.1091" y1="-242.3365" x2="834.1091" y2="-235.0564" gradientTransform="matrix(-0.866 0.5 0.5 0.866 1592.631 -15.7487)">
							<stop  offset="0" style="stop-color:#FFFFFF"/>
							<stop  offset="2.230006e-02" style="stop-color:#F9F9F9"/>
							<stop  offset="0.2898" style="stop-color:#B3B3B3"/>
							<stop  offset="0.5307" style="stop-color:#7C7C7C"/>
							<stop  offset="0.7368" style="stop-color:#545454"/>
							<stop  offset="0.9" style="stop-color:#3C3C3C"/>
							<stop  offset="1" style="stop-color:#333333"/>
						</linearGradient>
						<path class="st16" d="M750.5,197.1l-0.1-0.6c0-0.3,0.4-0.5,0.6-0.2l1.1,1.5c0.2,0.3,0.6,0.1,0.5-0.3l-0.1-0.3
							c-0.1-0.3,0.3-0.5,0.5-0.3l0,0c0.2,0.2,0.6,0,0.5-0.3l-1.4-6.5c0-0.2-0.3-0.3-0.5-0.2l-5.3,3.1c-0.2,0.1-0.2,0.3-0.1,0.5
							l3.6,3.9C750.2,197.6,750.6,197.4,750.5,197.1z"/>
					</g>
				</mask>
				
					<linearGradient id="SVGID_6_" gradientUnits="userSpaceOnUse" x1="834.1091" y1="-242.3365" x2="834.1091" y2="-235.0564" gradientTransform="matrix(-0.866 0.5 0.5 0.866 1592.631 -15.7487)">
					<stop  offset="0" style="stop-color:#FFB600"/>
					<stop  offset="1" style="stop-color:#FFB600"/>
				</linearGradient>
				<path class="st17" d="M750.5,197.1l-0.1-0.6c0-0.3,0.4-0.5,0.6-0.2l1.1,1.5c0.2,0.3,0.6,0.1,0.5-0.3l-0.1-0.3
					c-0.1-0.3,0.3-0.5,0.5-0.3l0,0c0.2,0.2,0.6,0,0.5-0.3l-1.4-6.5c0-0.2-0.3-0.3-0.5-0.2l-5.3,3.1c-0.2,0.1-0.2,0.3-0.1,0.5
					l3.6,3.9C750.2,197.6,750.6,197.4,750.5,197.1z"/>
				<path class="st13" d="M746.2,193.6l3.6,3.9c0.2,0.2,0.4,0.2,0.7,0.1c0.2-0.1,0.4-0.3,0.3-0.6l-0.1-0.6c0,0,0,0,0,0c0,0,0,0,0,0
					l1.1,1.5c0.2,0.2,0.5,0.3,0.7,0.2c0,0,0,0,0,0c0.2-0.1,0.3-0.4,0.3-0.7l-0.1-0.3c0,0,0,0,0,0c0,0,0,0,0,0
					c0.2,0.2,0.5,0.2,0.7,0.1c0,0,0,0,0,0c0.2-0.1,0.3-0.4,0.3-0.6l-1.4-6.5c0-0.2-0.2-0.3-0.3-0.4c-0.2-0.1-0.4-0.1-0.5,0l-5.3,3.1
					c-0.2,0.1-0.3,0.2-0.3,0.4C746,193.3,746.1,193.5,746.2,193.6z M746.6,193.3L746.6,193.3l5.3-3.1l0,0l1.4,6.5c0,0,0,0,0,0
					c0,0,0,0,0,0c0,0,0,0,0,0c-0.2-0.2-0.5-0.2-0.7-0.1c0,0,0,0,0,0c-0.2,0.1-0.3,0.4-0.3,0.6l0.1,0.3c0,0,0,0,0,0c0,0,0,0,0,0
					l-1.1-1.5c-0.2-0.2-0.4-0.3-0.7-0.2c-0.2,0.1-0.4,0.3-0.4,0.6l0.1,0.6l0,0c0,0,0,0,0,0c0,0,0,0,0,0L746.6,193.3z"/>
			</g>
		</g>
	</g>
	<g id="moving_x5F_forward_1_">
		<path id="body_x5F_main_2_" class="st0" d="M516.8,175l1.7-5c0.3-0.8-0.2-1.6-1-1.8c-4.8-1.2-20.3-5.1-26.8-6.4l-52.4-9.6
			c-0.2,0-1.1-0.7-1.3-0.9l-20.9-16c-0.6-0.5-1.4-0.8-2.1-1c-8.7-2-20.1-3.1-20.1-3.1c-45.4-4-83.7,16.8-93.7,22.9
			c-1.4,0.8-1.8,2.7-0.8,4l9,12.3c0.7,1,1.7,1.7,2.8,2c24.9,8.2,57.3,11.3,57.3,11.3s62.2,5.4,94.2,8.2c25.6,2.2,41.4-2.3,46.7-4.2
			c1.4-0.5,2.5-1.5,3.1-2.8C515.2,180,516.8,175,516.8,175z"/>
		<path id="body_x5F_bottom_2_" class="st1" d="M311.2,172.7c13.1,7.1,31.3,9,31.3,9s88.2,7.7,120.3,10.5c20,1.7,34-0.6,41.7-2.7
			L311.2,172.7z"/>
		<path id="body_x5F_mid_2_" class="st2" d="M516.8,175L299,156c-0.2,0.8,0,1.6,0.5,2.3l9,12.3c0.7,1,1.7,1.7,2.8,2l193.3,16.9
			c2.2-0.6,3.9-1.1,5-1.5c1.4-0.5,2.5-1.5,3.1-2.8C515.2,180,516.8,175,516.8,175z"/>
		<path id="ligh_x5F_back_2_" class="st3" d="M317.1,145.5c0,0-0.7,6.7-10.2,5l0,0C309.7,149,313.1,147.3,317.1,145.5L317.1,145.5z"
			/>
		<path id="light_x5F_front_2_" class="st3" d="M508.2,166.8c0,0,1.6,6.5,9,7l0,0l1.3-3.9c0.3-0.7-0.2-1.5-0.9-1.7
			c-2.5-0.6-7.7-2-9.6-2.4L508.2,166.8z"/>
		<path id="front_x5F_color_2_" class="st3" d="M490.8,161.9l-52.4-9.6c0,0,0.9,0.7,3.7,1.5l18.2,3.8l46.9,8
			C501.8,164.2,496.4,162.9,490.8,161.9z"/>
		<path id="glass_x5F_front_2_" class="st4" d="M415.5,135.5l-0.4,0.6c-0.1,0.8,0.2,1.6,0.8,2.2L427,150c0.5,0.5,1.3,1.3,2.4,1.4
			l8.9,0.8l-0.7-0.6c-0.2,0-0.3-0.1-0.4-0.2l-20.9-16c-0.3-0.3-0.5-0.3-0.5-0.3L415.5,135.5z"/>
		<path id="glass_x5F_mid_2_" class="st4" d="M409.9,137.6l-1.2-1.1l-32.4-2.8c-1.9-0.2-3.4,1.5-3,3.3l1.3,7.6
			c0.2,1.2,1.3,2.1,2.5,2.2l43.6,3.8l0.8,0.1C416.8,144,413.4,140.8,409.9,137.6z"/>
		<path id="glass_x5F_back_2_" class="st4" d="M361.5,134.3c-10,1.6-20,4.5-26,6.4c-1.3,0.4-1.1,2.4,0.3,2.5l27.1,2.4
			c1.7,0.2,3.1-1.4,2.8-3.1l-1.3-6.2C364.1,135,362.9,134.1,361.5,134.3z"/>
		<path id="blink_x5F_front_2_" class="st5" d="M421.4,144l-3.6-3.9l1.1-2.8l4.1,3.2C422.4,141.7,421.9,142.9,421.4,144z
			 M437.5,151.7c-0.2,0-0.3-0.1-0.4-0.2l-10.3-7.9c-0.5,1-0.9,2.1-1.4,3.1c-0.2,0.4-0.4,0.7-0.5,1.1l2.2,2.3
			c0.5,0.5,1.3,1.3,2.4,1.4l8.9,0.8L437.5,151.7z"/>
		<path id="blink_x5F_mid_2_" class="st6" d="M384.1,134.4l-5.1,12.7l-1.9-0.2c-0.2,0-0.4-0.1-0.6-0.1l5.1-12.6L384.1,134.4z
			 M412.8,140.4l-3.8,9.3l2.1,0.2l3.2-7.9C413.8,141.4,413.3,140.9,412.8,140.4z M409.9,137.6l-0.8-0.8l-5,12.4l2.1,0.2l4.5-11.1
			C410.4,138.1,410.1,137.9,409.9,137.6z M393.3,135.2l-5.1,12.7l2.1,0.2l5.1-12.7L393.3,135.2z M386.6,134.6l-5.1,12.7l3.8,0.3
			l5.1-12.7L386.6,134.6z"/>
		<path id="blink_x5F_back_2_" class="st6" d="M363.8,135.2l-4.1,10.2l-2.1-0.2l4.4-10.9C362.6,134.3,363.3,134.6,363.8,135.2z
			 M343.8,138.3l-2.2,5.5l2.5,0.2l2.6-6.5C345.7,137.8,344.7,138,343.8,138.3z M350.5,136.5l-3.1,7.8l3.8,0.3l3.7-9.1
			C353.4,135.9,351.9,136.2,350.5,136.5z"/>
		<path id="main_x5F_stroke_2_" class="st7" d="M518.7,168.8c-0.2-0.4-0.6-0.7-1.1-0.8c-4.6-1.2-20.3-5.1-26.8-6.4l-52.4-9.6
			c-0.7-0.4-1.2-0.8-1.2-0.8c0,0,0,0,0,0l-20.8-16c-0.7-0.5-1.4-0.9-2.3-1.1c-8.6-2-20.2-3.1-20.3-3.1c-45.3-4-83.2,16.6-93.7,23
			c-0.7,0.4-1.3,1.2-1.4,2c-0.2,0.8,0,1.7,0.5,2.4l8.1,11.2c0.8,1.1,2.4,2.6,3.6,3.2c11.2,6.4,31.3,9.1,31.5,9.1l120.3,10.5
			c25.5,2.2,41.3-2.2,46.9-4.2c1.4-0.5,2.6-1.6,3.3-2.9c2.5-5.2,4.5-11.3,4.6-11.4l1.3-3.8C519,169.7,518.9,169.2,518.7,168.8z
			 M490.8,162.1c2.2,0.4,5.3,1.1,8.8,1.9c-1.6-0.3-3.2-0.5-4.7-0.8c-24.3-4.1-41.9-7-52.7-9.7c-0.7-0.2-1.3-0.4-1.8-0.6L490.8,162.1
			z M436.9,151.7C436.9,151.7,436.9,151.7,436.9,151.7C437,151.7,437,151.7,436.9,151.7l0.1,0.1c0.1,0,0.1,0.1,0.2,0.1l-7.8-0.7
			c-0.6-0.1-1.2-0.3-1.6-0.8L416.1,138c-0.4-0.4-0.6-0.9-0.7-1.4c0-0.3,0-0.5,0.2-0.8l0.3-0.4c0.1,0.1,0.2,0.1,0.3,0.2L436.9,151.7z
			 M415.4,135.2l-0.2,0.3c-0.2,0.3-0.3,0.8-0.3,1.2c0.1,0.6,0.4,1.2,0.8,1.7l11.8,12.4c0.5,0.5,1.2,0.9,2,1l8.8,0.8
			c0.9,0.5,2.1,1.1,3.6,1.5c10.8,2.8,28.4,5.7,52.8,9.7c4,0.7,8.2,1.4,12.5,2.1c0.2,0,0.4,0.1,0.6,0.1c0.2,1.2,1.5,7.1,9.1,8
			c-0.1,0.2-0.1,0.4-0.2,0.7l-85.3-7.5c-2.9-6.5-6.3-12-9.6-16.6c0-0.1-0.1-0.1-0.1-0.1c-7.4-10.2-14.6-15.8-17.2-17.7
			c3.1,0.5,6.5,1.1,9.6,1.8C414.5,134.8,415,135,415.4,135.2z M377.3,178.2l-3.1-15.3l56.6,5l-1.3,14.9L377.3,178.2z M420.9,150.5
			l-43.7-3.8c-1.1-0.1-2-0.9-2.2-2l-1.4-7.6c-0.2-0.8,0.1-1.6,0.6-2.2c0.5-0.6,1.3-0.9,2.1-0.8l32.3,2.8
			C411.8,139.7,416.3,144.2,420.9,150.5z M403.2,132.7c0.3,0.2,2,1.3,4.6,3.5l-31.5-2.8c-1-0.1-1.9,0.3-2.6,1
			c-0.7,0.7-0.9,1.7-0.7,2.7l1.4,7.6c0.3,1.3,1.4,2.3,2.7,2.5l44.2,3.9c3.2,4.5,6.5,9.8,9.3,16.2l-56.6-5l-6.2-30.5
			c8.2-0.8,16.9-1,25.9-0.2C393.9,131.6,398,132,403.2,132.7z M316.7,146c-0.2,0.7-0.7,2.1-2.1,3.1c-1.6,1.2-3.9,1.6-6.8,1.3
			C310.3,149,313.3,147.5,316.7,146z M300.4,154.5c1.6-0.9,3.7-2.2,6.4-3.7c0.5,0.1,1,0.2,1.5,0.2c2.7,0.2,4.9-0.2,6.5-1.4
			c1.9-1.4,2.3-3.3,2.4-3.9c12.4-5.6,29.9-11.7,50-13.8l6.1,30.3l-74.1-6.5C299.6,155.2,300,154.8,300.4,154.5z M307.8,169.3
			l-8.1-11.2c-0.4-0.5-0.5-1.2-0.5-1.8l74.4,6.5l3.1,15.3l-65.4-5.7c0,0,0,0-0.1,0C310.1,171.7,308.6,170.3,307.8,169.3z
			 M342.6,181.4c-0.2,0-18.7-2.6-30-8.4l190.3,16.6c-8,1.9-21.4,3.9-40,2.2L342.6,181.4z M512.4,185.1c-0.6,1.2-1.7,2.2-3,2.6
			c-1.2,0.4-2.8,1-5,1.5l-74.4-6.5l1.3-14.9l85.1,7.4C515.7,177.4,514.2,181.5,512.4,185.1z M518.3,169.9l-1.2,3.5
			c-7-0.7-8.4-5.8-8.7-7.3c3.9,1,7.4,1.8,9.1,2.3c0.3,0.1,0.6,0.3,0.7,0.6C518.4,169.3,518.4,169.6,518.3,169.9z"/>
		<path id="back_6_" class="st2" d="M385.2,161.3l-5.7-0.5c-0.7-0.1-1.2-0.6-1.3-1.3l-0.2-1.7c-0.1-0.9,0.6-1.6,1.5-1.5l5.7,0.5
			c0.7,0.1,1.2,0.6,1.3,1.3l0.2,1.7C386.8,160.7,386,161.4,385.2,161.3z"/>
		<path id="door_2_" class="st7" d="M385.1,161.6l-5.7-0.5c-0.8-0.1-1.4-0.7-1.5-1.5l-0.2-1.7c0-0.5,0.1-1,0.5-1.3
			c0.4-0.4,0.8-0.5,1.3-0.5l5.7,0.5c0.8,0.1,1.4,0.7,1.5,1.5l0.2,1.7c0,0.5-0.1,1-0.5,1.3C386.1,161.5,385.6,161.6,385.1,161.6z
			 M379.5,156.6c-0.3,0-0.7,0.1-0.9,0.3c-0.2,0.2-0.4,0.6-0.3,0.9l0.2,1.7c0.1,0.5,0.5,1,1,1l5.7,0.5c0.3,0,0.7-0.1,0.9-0.3
			c0.2-0.2,0.4-0.6,0.3-0.9l-0.2-1.7c-0.1-0.5-0.5-1-1-1L379.5,156.6z"/>
		<path id="back_2_" class="st8" d="M516.7,185.2l-9.8-0.9c-0.6,0-1-0.5-1.1-1l-0.1-1.3c-0.1-0.7,0.5-1.4,1.3-1.3l10.3,0.9
			c0.7,0.1,1.2,0.8,1,1.5l-0.4,1.3C517.8,184.9,517.3,185.3,516.7,185.2z"/>
		<path id="front-bmp_2_" class="st7" d="M516.7,185.5l-9.8-0.9c-0.7-0.1-1.2-0.6-1.3-1.3l-0.1-1.3c0-0.4,0.1-0.9,0.4-1.2
			c0.3-0.3,0.7-0.5,1.2-0.4l10.3,0.9c0.4,0,0.8,0.3,1.1,0.6c0.2,0.4,0.3,0.8,0.2,1.2l-0.4,1.3C518,185.1,517.4,185.6,516.7,185.5z
			 M507,181c-0.3,0-0.5,0.1-0.7,0.3c-0.2,0.2-0.3,0.5-0.3,0.7l0.1,1.3c0,0.4,0.4,0.8,0.8,0.8l9.8,0.9c0.4,0,0.8-0.2,0.9-0.6l0.4-1.3
			c0.1-0.3,0-0.5-0.1-0.7c-0.2-0.2-0.4-0.4-0.7-0.4L507,181z"/>
		<path id="back_1_" class="st8" d="M302,161.3c-1.7-2-5.1-0.5-5.1,1.6c0,1.5,1.4,3.2,4.2,3.5l9.5,0.8c0.6,0,0.8-0.7,0.3-0.8
			C304.5,164.7,304.1,163.8,302,161.3z"/>
		<path id="back_x5F_bmp_2_" class="st7" d="M310.6,167.5l-9.5-0.8c-2.9-0.3-4.5-2.1-4.5-3.7c0-1.1,0.8-2.1,2-2.6
			c1-0.4,2.5-0.4,3.5,0.8l0,0c0.2,0.2,0.3,0.4,0.5,0.5c1.7,2,2.5,2.9,8.3,4.4c0.4,0.1,0.6,0.4,0.5,0.7
			C311.4,167.2,311.1,167.5,310.6,167.5z M300.1,160.6c-0.5,0-0.9,0-1.3,0.2c-1,0.4-1.7,1.2-1.7,2.1c0,1.4,1.4,3,4,3.2l9.5,0.8
			c0.2,0,0.3-0.1,0.3-0.2c0,0,0-0.1-0.1-0.1c-6-1.6-6.8-2.5-8.6-4.6c-0.1-0.2-0.3-0.4-0.5-0.5C301.3,160.9,300.7,160.7,300.1,160.6z
			"/>
		<path id="window_x5F_back_2_" class="st7" d="M362.9,145.9l-27.1-2.4c-0.9-0.1-1.4-0.8-1.4-1.4c-0.1-0.6,0.2-1.4,1.1-1.7
			c6.4-2.1,16.1-4.9,26-6.4l0,0c1.5-0.2,2.9,0.8,3.2,2.3l1.3,6.2c0.2,0.9-0.1,1.8-0.7,2.5C364.7,145.7,363.8,146,362.9,145.9z
			 M361.5,134.6c-9.8,1.6-19.5,4.3-25.9,6.4c-0.6,0.2-0.7,0.7-0.7,1.1c0,0.4,0.3,0.8,0.9,0.9l27.1,2.4c0.7,0.1,1.4-0.2,1.9-0.8
			c0.5-0.5,0.7-1.3,0.5-2l-1.3-6.2C363.9,135.2,362.8,134.4,361.5,134.6L361.5,134.6z"/>
		<g id="turbo_x5F_back_1_">
			<path class="st1" d="M359.5,178.9l-6.3-3.6l-6.2,0.5l-1.7,10.6c0,0.5,0.3,1,0.7,1.3l6.4,3.7c0.4,0.3,1,0.2,1.4,0l8.3-6.8
				L359.5,178.9z"/>
			<path class="st7" d="M352.3,191.6l-6.4-3.7c-0.5-0.3-0.9-0.9-0.8-1.5c0,0,0,0,0,0l1.7-10.6c0-0.1,0.1-0.2,0.3-0.2l6.2-0.5
				c0.1,0,0.1,0,0.2,0l6.3,3.6c0,0,0.1,0.1,0.1,0.1l2.7,5.6c0.1,0.1,0,0.3-0.1,0.3l-8.3,6.8c0,0,0,0,0,0
				C353.5,191.9,352.8,191.9,352.3,191.6z M345.6,186.4c0,0.4,0.2,0.8,0.6,1l6.4,3.7c0.4,0.2,0.8,0.2,1.1,0l8.1-6.7l-2.5-5.3
				l-6.1-3.5l-5.9,0.5L345.6,186.4z"/>
			<path class="st0" d="M363.5,175.1l-8.9-5.1c-0.3-0.2-0.7-0.2-1.1-0.1l-9.9,2.7c-0.4,0.1-0.7,0.3-0.8,0.7l-1.8,3
				c-0.2,0.4-0.3,0.9,0,1.4l1.5,2.8c0.2,0.4,0.7,0.7,1.2,0.7l4.4,0c0.2,0,0.5,0.1,0.7,0.2l7.1,4.1c0.2,0.1,0.3,0.3,0.5,0.4l2.9,4.3
				c0.3,0.4,0.7,0.6,1.2,0.6l3.3-0.1c0.5,0,0.9-0.3,1.2-0.7l1.8-3c0.2-0.3,0.2-0.7,0.1-1.1l-2.7-9.9
				C364,175.6,363.8,175.3,363.5,175.1z"/>
			<path class="st7" d="M359.2,190.8l-16.1-9.3c-0.3-0.2-0.5-0.4-0.6-0.7l-1.7-3.2c-0.3-0.5-0.3-1.1,0-1.6l1.8-3
				c0.2-0.4,0.6-0.7,1-0.8l9.9-2.7c0.4-0.1,0.9-0.1,1.3,0.2l8.9,5.1c0.4,0.2,0.7,0.6,0.8,1l2.7,9.9c0.1,0.4,0.1,0.9-0.2,1.3l-1.8,3
				c-0.3,0.5-0.8,0.8-1.4,0.8l-3.6,0.1C359.8,191.1,359.5,191,359.2,190.8z M354.4,170.2c-0.3-0.1-0.6-0.2-0.8-0.1l-9.9,2.7
				c-0.3,0.1-0.5,0.3-0.7,0.5l-1.8,3c-0.2,0.3-0.2,0.8,0,1.1l1.7,3.2c0,0,0,0,0,0c0.1,0.2,0.2,0.3,0.4,0.4l16.1,9.3
				c0.2,0.1,0.4,0.2,0.6,0.1l3.6-0.1c0.4,0,0.7-0.2,0.9-0.6l1.8-3c0.1-0.3,0.2-0.6,0.1-0.8l-2.7-9.9c-0.1-0.3-0.3-0.5-0.5-0.7
				L354.4,170.2z"/>
			<path class="st2" d="M361.1,177.5l-7.3-4.2c-0.3-0.2-0.7-0.2-1.1-0.1l-8.2,2.2c-0.4,0.1-0.7,0.3-0.8,0.7l-1.9,3.3
				c-0.4,0.7-0.2,1.5,0.5,1.9l17.7,10.2c0.7,0.4,1.5,0.2,1.9-0.5l1.9-3.3c0.2-0.3,0.2-0.7,0.1-1.1l-2.2-8.2
				C361.6,178,361.4,177.7,361.1,177.5z"/>
			<path class="st7" d="M364.2,186.4l-2.2-8.2c-0.1-0.4-0.4-0.8-0.8-1l-7.3-4.2c-0.4-0.2-0.8-0.3-1.3-0.2l-8.2,2.2
				c-0.4,0.1-0.8,0.4-1,0.8l-1.9,3.3c-0.5,0.8-0.2,1.8,0.6,2.3l17.7,10.2c0.8,0.5,1.8,0.2,2.3-0.6l1.9-3.3
				C364.2,187.3,364.3,186.9,364.2,186.4z M361.6,190.8c-0.3,0.5-1,0.7-1.5,0.4l-17.7-10.2c-0.5-0.3-0.7-1-0.4-1.5l1.9-3.3
				c0.1-0.3,0.4-0.4,0.7-0.5l8.2-2.2c0.3-0.1,0.6,0,0.8,0.1l7.3,4.2c0.3,0.1,0.4,0.4,0.5,0.7l2.2,8.2c0.1,0.3,0,0.6-0.1,0.8
				L361.6,190.8z"/>
			<g id="power_3_">
				<defs>
					<filter id="Adobe_OpacityMaskFilter_4_" filterUnits="userSpaceOnUse" x="343.7" y="189.7" width="7.3" height="8">
						<feFlood  style="flood-color:white;flood-opacity:1" result="back"/>
						<feBlend  in="SourceGraphic" in2="back" mode="normal"/>
					</filter>
				</defs>
				<mask maskUnits="userSpaceOnUse" x="343.7" y="189.7" width="7.3" height="8" id="SVGID_7_">
					<g class="st18">
						<defs>
							<filter id="Adobe_OpacityMaskFilter_5_" filterUnits="userSpaceOnUse" x="343.7" y="189.7" width="7.3" height="8">
								<feFlood  style="flood-color:white;flood-opacity:1" result="back"/>
								<feBlend  in="SourceGraphic" in2="back" mode="normal"/>
							</filter>
						</defs>
						<mask maskUnits="userSpaceOnUse" x="343.7" y="189.7" width="7.3" height="8" id="SVGID_7_">
							<g class="st19">
							</g>
						</mask>
						
							<linearGradient id="SVGID_8_" gradientUnits="userSpaceOnUse" x1="657.7383" y1="-494.8092" x2="657.7383" y2="-487.5292" gradientTransform="matrix(0.866 0.5 -0.5 0.866 -468.7533 290.8749)">
							<stop  offset="0" style="stop-color:#FFFFFF"/>
							<stop  offset="2.230006e-02" style="stop-color:#F9F9F9"/>
							<stop  offset="0.2898" style="stop-color:#B3B3B3"/>
							<stop  offset="0.5307" style="stop-color:#7C7C7C"/>
							<stop  offset="0.7368" style="stop-color:#545454"/>
							<stop  offset="0.9" style="stop-color:#3C3C3C"/>
							<stop  offset="1" style="stop-color:#333333"/>
						</linearGradient>
						<path class="st20" d="M346.8,196.9l0.1-0.6c0-0.3-0.4-0.5-0.6-0.2l-1.1,1.5c-0.2,0.3-0.6,0.1-0.5-0.3l0.1-0.3
							c0.1-0.3-0.3-0.5-0.5-0.3l0,0c-0.2,0.2-0.6,0-0.5-0.3l1.4-6.5c0-0.2,0.3-0.3,0.5-0.2l5.3,3.1c0.2,0.1,0.2,0.3,0.1,0.5
							l-3.6,3.9C347.2,197.4,346.8,197.2,346.8,196.9z"/>
					</g>
				</mask>
				
					<linearGradient id="SVGID_9_" gradientUnits="userSpaceOnUse" x1="657.7383" y1="-494.8092" x2="657.7383" y2="-487.5292" gradientTransform="matrix(0.866 0.5 -0.5 0.866 -468.7533 290.8749)">
					<stop  offset="0" style="stop-color:#FFB600"/>
					<stop  offset="1" style="stop-color:#FFB600"/>
				</linearGradient>
				<path class="st21" d="M346.8,196.9l0.1-0.6c0-0.3-0.4-0.5-0.6-0.2l-1.1,1.5c-0.2,0.3-0.6,0.1-0.5-0.3l0.1-0.3
					c0.1-0.3-0.3-0.5-0.5-0.3l0,0c-0.2,0.2-0.6,0-0.5-0.3l1.4-6.5c0-0.2,0.3-0.3,0.5-0.2l5.3,3.1c0.2,0.1,0.2,0.3,0.1,0.5l-3.6,3.9
					C347.2,197.4,346.8,197.2,346.8,196.9z"/>
				<path class="st13" d="M351.3,192.9c0-0.2-0.1-0.3-0.3-0.4l-5.3-3.1c-0.2-0.1-0.4-0.1-0.5,0c-0.2,0.1-0.3,0.2-0.3,0.4l-1.4,6.5
					c-0.1,0.3,0.1,0.5,0.3,0.6c0,0,0,0,0,0c0.2,0.1,0.5,0.1,0.7-0.1c0,0,0,0,0,0c0,0,0,0,0,0l-0.1,0.3c-0.1,0.3,0,0.5,0.3,0.7
					c0,0,0,0,0,0c0.3,0.1,0.6,0.1,0.7-0.2l1.1-1.5c0,0,0,0,0,0c0,0,0,0,0,0l-0.1,0.6c0,0.3,0.1,0.5,0.3,0.6c0.2,0.1,0.5,0.1,0.7-0.1
					l3.6-3.9C351.3,193.3,351.3,193.1,351.3,192.9z M347.2,196.9C347.2,197,347.2,197,347.2,196.9
					C347.1,196.9,347.1,196.9,347.2,196.9L347.2,196.9l0-0.6c0-0.3-0.1-0.5-0.4-0.6c-0.2-0.1-0.5,0-0.7,0.2l-1.1,1.5c0,0,0,0,0,0
					c0,0,0,0,0,0l0.1-0.3c0.1-0.3,0-0.5-0.3-0.6c0,0,0,0,0,0c-0.2-0.1-0.5-0.1-0.7,0.1c0,0,0,0,0,0l0,0c0,0,0,0,0,0l1.4-6.5l0,0l0,0
					l5.3,3.1l0,0L347.2,196.9z"/>
			</g>
		</g>
		<g id="turbo_x5F_front_1_">
			<path class="st1" d="M468.2,188.4l-6.3-3.6l-6.2,0.5l-1.7,10.6c0,0.5,0.3,1,0.7,1.3l6.4,3.7c0.4,0.3,1,0.2,1.4,0l8.3-6.8
				L468.2,188.4z"/>
			<path class="st7" d="M460.9,201.1l-6.4-3.7c-0.5-0.3-0.9-0.9-0.8-1.5c0,0,0,0,0,0l1.7-10.6c0-0.1,0.1-0.2,0.3-0.2l6.2-0.5
				c0.1,0,0.1,0,0.2,0l6.3,3.6c0,0,0.1,0.1,0.1,0.1l2.7,5.6c0.1,0.1,0,0.3-0.1,0.3l-8.3,6.8c0,0,0,0,0,0
				C462.1,201.4,461.5,201.4,460.9,201.1z M454.2,195.9c0,0.4,0.2,0.8,0.6,1l6.4,3.7c0.4,0.2,0.8,0.2,1.1,0l8.1-6.7l-2.5-5.3
				l-6.1-3.5l-5.9,0.5L454.2,195.9z"/>
			<path class="st0" d="M472.1,184.6l-8.9-5.1c-0.3-0.2-0.7-0.2-1.1-0.1l-9.9,2.7c-0.4,0.1-0.7,0.3-0.8,0.7l-1.8,3
				c-0.2,0.4-0.3,0.9,0,1.4l1.5,2.8c0.2,0.4,0.7,0.7,1.2,0.7l4.4,0c0.2,0,0.5,0.1,0.7,0.2l7.1,4.1c0.2,0.1,0.3,0.3,0.5,0.4l2.9,4.3
				c0.3,0.4,0.7,0.6,1.2,0.6l3.3-0.1c0.5,0,0.9-0.3,1.2-0.7l1.8-3c0.2-0.3,0.2-0.7,0.1-1.1l-2.7-9.9
				C472.6,185.1,472.4,184.8,472.1,184.6z"/>
			<path class="st7" d="M467.8,200.3l-16.1-9.3c-0.3-0.2-0.5-0.4-0.6-0.7l-1.7-3.2c-0.3-0.5-0.3-1.1,0-1.6l1.8-3
				c0.2-0.4,0.6-0.7,1-0.8l9.9-2.7c0.4-0.1,0.9-0.1,1.3,0.2l8.9,5.1c0.4,0.2,0.7,0.6,0.8,1l2.7,9.9c0.1,0.4,0.1,0.9-0.2,1.3l-1.8,3
				c-0.3,0.5-0.8,0.8-1.4,0.8l-3.6,0.1C468.4,200.6,468.1,200.5,467.8,200.3z M463.1,179.7c-0.3-0.1-0.6-0.2-0.8-0.1l-9.9,2.7
				c-0.3,0.1-0.5,0.3-0.7,0.5l-1.8,3c-0.2,0.3-0.2,0.8,0,1.1l1.7,3.2c0.1,0.2,0.2,0.3,0.4,0.4l16.1,9.3c0.2,0.1,0.4,0.2,0.6,0.1
				l3.6-0.1c0.4,0,0.7-0.2,0.9-0.6l1.8-3c0.1-0.3,0.2-0.6,0.1-0.8l-2.7-9.9c-0.1-0.3-0.3-0.5-0.5-0.7L463.1,179.7z"/>
			<path class="st2" d="M469.7,187l-7.3-4.2c-0.3-0.2-0.7-0.2-1.1-0.1l-8.2,2.2c-0.4,0.1-0.7,0.3-0.8,0.7l-1.9,3.3
				c-0.4,0.7-0.2,1.5,0.5,1.9l17.7,10.2c0.7,0.4,1.5,0.2,1.9-0.5l1.9-3.3c0.2-0.3,0.2-0.7,0.1-1.1l-2.2-8.2
				C470.2,187.5,470,187.2,469.7,187z"/>
			<path class="st7" d="M468.4,201.2l-17.7-10.2c-0.8-0.5-1.1-1.5-0.6-2.3l1.9-3.3c0.2-0.4,0.6-0.7,1-0.8l8.2-2.2
				c0.4-0.1,0.9-0.1,1.3,0.2l7.3,4.2c0.4,0.2,0.7,0.6,0.8,1l2.2,8.2c0.1,0.4,0.1,0.9-0.2,1.3l-1.9,3.3
				C470.3,201.3,469.2,201.6,468.4,201.2z M462.2,183c-0.3-0.1-0.6-0.2-0.8-0.1l-8.2,2.2c-0.3,0.1-0.5,0.3-0.7,0.5l-1.9,3.3
				c-0.3,0.5-0.1,1.2,0.4,1.5l17.7,10.2c0.5,0.3,1.2,0.1,1.5-0.4l1.9-3.3c0.1-0.3,0.2-0.6,0.1-0.8l-2.2-8.2
				c-0.1-0.3-0.3-0.5-0.5-0.7L462.2,183z"/>
			<g id="power_2_">
				<defs>
					<filter id="Adobe_OpacityMaskFilter_6_" filterUnits="userSpaceOnUse" x="452.3" y="199.2" width="7.3" height="8">
						<feFlood  style="flood-color:white;flood-opacity:1" result="back"/>
						<feBlend  in="SourceGraphic" in2="back" mode="normal"/>
					</filter>
				</defs>
				<mask maskUnits="userSpaceOnUse" x="452.3" y="199.2" width="7.3" height="8" id="SVGID_10_">
					<g class="st22">
						<defs>
							<filter id="Adobe_OpacityMaskFilter_7_" filterUnits="userSpaceOnUse" x="452.3" y="199.2" width="7.3" height="8">
								<feFlood  style="flood-color:white;flood-opacity:1" result="back"/>
								<feBlend  in="SourceGraphic" in2="back" mode="normal"/>
							</filter>
						</defs>
						<mask maskUnits="userSpaceOnUse" x="452.3" y="199.2" width="7.3" height="8" id="SVGID_10_">
							<g class="st23">
							</g>
						</mask>
						
							<linearGradient id="SVGID_11_" gradientUnits="userSpaceOnUse" x1="811.5403" y1="-292.8719" x2="811.5403" y2="-285.5918" gradientTransform="matrix(0.866 0.5 -0.5 0.866 -392.3639 48.5986)">
							<stop  offset="0" style="stop-color:#FFFFFF"/>
							<stop  offset="2.230006e-02" style="stop-color:#F9F9F9"/>
							<stop  offset="0.2898" style="stop-color:#B3B3B3"/>
							<stop  offset="0.5307" style="stop-color:#7C7C7C"/>
							<stop  offset="0.7368" style="stop-color:#545454"/>
							<stop  offset="0.9" style="stop-color:#3C3C3C"/>
							<stop  offset="1" style="stop-color:#333333"/>
						</linearGradient>
						<path class="st24" d="M455.5,206.4l0.1-0.6c0-0.3-0.4-0.5-0.6-0.2l-1.1,1.5c-0.2,0.3-0.6,0.1-0.5-0.3l0.1-0.3
							c0.1-0.3-0.3-0.5-0.5-0.3l0,0c-0.2,0.2-0.6,0-0.5-0.3l1.4-6.5c0-0.2,0.3-0.3,0.5-0.2l5.3,3.1c0.2,0.1,0.2,0.3,0.1,0.5
							l-3.6,3.9C455.8,206.9,455.4,206.7,455.5,206.4z"/>
					</g>
				</mask>
				
					<linearGradient id="SVGID_12_" gradientUnits="userSpaceOnUse" x1="811.5403" y1="-292.8719" x2="811.5403" y2="-285.5918" gradientTransform="matrix(0.866 0.5 -0.5 0.866 -392.3639 48.5986)">
					<stop  offset="0" style="stop-color:#FFB600"/>
					<stop  offset="1" style="stop-color:#FFB600"/>
				</linearGradient>
				<path class="st25" d="M455.5,206.4l0.1-0.6c0-0.3-0.4-0.5-0.6-0.2l-1.1,1.5c-0.2,0.3-0.6,0.1-0.5-0.3l0.1-0.3
					c0.1-0.3-0.3-0.5-0.5-0.3l0,0c-0.2,0.2-0.6,0-0.5-0.3l1.4-6.5c0-0.2,0.3-0.3,0.5-0.2l5.3,3.1c0.2,0.1,0.2,0.3,0.1,0.5l-3.6,3.9
					C455.8,206.9,455.4,206.7,455.5,206.4z"/>
				<path class="st13" d="M459.9,202.4c0-0.2-0.1-0.3-0.3-0.4l-5.3-3.1c-0.2-0.1-0.4-0.1-0.5,0c-0.2,0.1-0.3,0.2-0.3,0.4l-1.4,6.5
					c-0.1,0.3,0.1,0.5,0.3,0.6c0,0,0,0,0,0c0.2,0.1,0.5,0.1,0.7-0.1c0,0,0,0,0,0c0,0,0,0,0,0l-0.1,0.3c-0.1,0.3,0,0.5,0.3,0.7
					c0,0,0,0,0,0c0.3,0.1,0.6,0.1,0.7-0.2l1.1-1.5c0,0,0,0,0,0c0,0,0,0,0,0l-0.1,0.6c0,0.3,0.1,0.5,0.3,0.6c0.2,0.1,0.5,0.1,0.7-0.1
					l3.6-3.9C459.9,202.8,460,202.6,459.9,202.4z M455.8,206.4C455.8,206.5,455.8,206.5,455.8,206.4
					C455.7,206.4,455.7,206.4,455.8,206.4L455.8,206.4l0-0.6c0-0.3-0.1-0.5-0.4-0.6c-0.2-0.1-0.5,0-0.7,0.2l-1.1,1.5c0,0,0,0,0,0
					c0,0,0,0,0,0l0.1-0.3c0.1-0.3,0-0.5-0.3-0.6c0,0,0,0,0,0c-0.2-0.1-0.5-0.1-0.7,0.1c0,0,0,0,0,0c0,0,0,0,0,0c0,0,0,0,0,0l1.4-6.5
					l0,0l5.3,3.1l0,0L455.8,206.4z"/>
			</g>
		</g>
	</g>
	<g id="normal">
		<path id="body_x5F_main_3_" class="st0" d="M237.9,166l1.3-5.1c0.2-0.8-0.3-1.6-1.1-1.7c-4.9-0.8-20.6-3.4-27.2-4l-53-5
			c-0.2,0-1.2-0.6-1.3-0.7l-22.2-14.1c-0.7-0.4-1.4-0.7-2.2-0.8c-8.8-1.2-20.3-1.3-20.3-1.3c-45.6,0-81.9,24.1-91.4,31
			c-1.3,1-1.5,2.9-0.5,4.1l10,11.5c0.8,0.9,1.8,1.5,2.9,1.8c25.5,6,58.1,6.3,58.1,6.3s62.4,0,94.6,0c25.7,0,41-5.9,46.2-8.3
			c1.3-0.6,2.3-1.7,2.9-3C236.8,171.1,237.9,166,237.9,166z"/>
		<path id="body_x5F_bottom_3_" class="st1" d="M33,181.6c13.7,5.9,31.9,6.3,31.9,6.3s88.6,0,120.7,0c20,0,33.8-3.6,41.3-6.3
			L33,181.6z"/>
		<path id="body_x5F_mid_3_" class="st2" d="M237.9,166l-218.6,0c-0.1,0.8,0.1,1.6,0.7,2.3l10,11.5c0.8,0.9,1.8,1.5,2.9,1.8l194,0
			c2.1-0.8,3.7-1.5,4.9-2c1.3-0.6,2.3-1.7,2.9-3C236.8,171.1,237.9,166,237.9,166z"/>
		<path id="ligh_x5F_back_3_" class="st3" d="M36.4,154c0,0-0.2,6.7-9.8,5.9l0,0C29.3,158.2,32.6,156.1,36.4,154L36.4,154z"/>
		<path id="light_x5F_front_3_" class="st3" d="M228.7,158.6c0,0,2.2,6.4,9.6,6.1l0,0l1-4c0.2-0.7-0.3-1.5-1.1-1.6
			c-2.6-0.4-7.9-1.3-9.8-1.6L228.7,158.6z"/>
		<path id="front_x5F_color_3_" class="st3" d="M210.9,155.2l-53-5c0,0,1,0.6,3.8,1.2l18.5,2.2l47.4,3.9
			C222,156.6,216.6,155.7,210.9,155.2z"/>
		<path id="glass_x5F_front_3_" class="st4" d="M133.6,135.5l-0.3,0.6c0,0.8,0.3,1.6,0.9,2.1l12.2,10.8c0.5,0.5,1.4,1.2,2.5,1.2h8.9
			l-0.8-0.5c-0.2,0-0.3-0.1-0.4-0.2l-22.2-14.1c-0.3-0.2-0.5-0.3-0.5-0.3L133.6,135.5z"/>
		<path id="glass_x5F_mid_3_" class="st4" d="M128.2,138.1l-1.3-1H94.3c-1.9,0-3.2,1.8-2.7,3.6l2,7.5c0.4,1.2,1.4,2,2.7,2H140h0.8
			C135.6,143.9,131.9,140.9,128.2,138.1z"/>
		<path id="glass_x5F_back_3_" class="st4" d="M79.7,139c-9.9,2.5-19.5,6.2-25.3,8.7c-1.3,0.5-0.9,2.5,0.5,2.5h27.2
			c1.7,0,3-1.7,2.5-3.3l-1.8-6.1C82.4,139.5,81,138.7,79.7,139z"/>
		<path id="blink_x5F_front_3_" class="st5" d="M140.2,143.5l-4-3.5l0.9-2.9l4.4,2.8C141,141,140.6,142.3,140.2,143.5z M156.9,149.7
			c-0.2,0-0.3-0.1-0.4-0.2l-11-7c-0.4,1.1-0.7,2.2-1.1,3.2c-0.1,0.4-0.3,0.8-0.4,1.1l2.4,2.1c0.5,0.5,1.4,1.2,2.5,1.2h8.9
			L156.9,149.7z"/>
		<path id="blink_x5F_mid_3_" class="st6" d="M102.2,137.1l-4,13.1h-1.9c-0.2,0-0.4,0-0.6-0.1l4-13H102.2z M131.3,140.5l-2.9,9.6
			h2.2l2.5-8.2C132.4,141.5,131.9,141,131.3,140.5z M128.2,138.1l-0.9-0.7l-3.9,12.8h2.2l3.5-11.5
			C128.7,138.5,128.4,138.3,128.2,138.1z M111.4,137.1l-4,13.1h2.2l4-13.1H111.4z M104.7,137.1l-4,13.1h3.8l4-13.1H104.7z"/>
		<path id="blink_x5F_back_3_" class="st6" d="M82,139.6l-3.2,10.5h-2.2l3.4-11.2C80.8,138.9,81.5,139.2,82,139.6z M62.4,144.5
			l-1.7,5.7h2.5l2-6.7C64.2,143.8,63.3,144.2,62.4,144.5z M68.9,142.2l-2.4,8h3.8l2.9-9.4C71.7,141.3,70.3,141.7,68.9,142.2z"/>
		<path id="main_x5F_stroke_3_" class="st7" d="M239.3,159.6c-0.3-0.4-0.7-0.7-1.1-0.7c-4.7-0.8-20.6-3.4-27.2-4l-53-5
			c-0.8-0.4-1.2-0.7-1.2-0.7c0,0,0,0,0,0l-22.2-14.1c-0.7-0.5-1.5-0.7-2.3-0.9c-8.8-1.2-20.4-1.3-20.5-1.3
			c-45.4,0-81.4,23.8-91.3,31.1c-0.7,0.5-1.1,1.3-1.2,2.1c-0.1,0.9,0.2,1.7,0.7,2.4l9.1,10.4c0.9,1,2.6,2.3,3.9,2.9
			c11.7,5.4,32,6.4,32.2,6.4h120.7c25.6,0,40.9-5.8,46.3-8.3c1.4-0.6,2.5-1.8,3-3.2c2.1-5.4,3.5-11.6,3.6-11.8l1-3.9
			C239.6,160.5,239.5,160,239.3,159.6z M210.9,155.4c2.2,0.2,5.4,0.6,8.9,1.1c-1.6-0.1-3.2-0.3-4.8-0.4c-24.6-1.9-42.4-3.3-53.4-5.1
			c-0.7-0.1-1.3-0.3-1.9-0.5L210.9,155.4z M156.3,149.7C156.3,149.7,156.3,149.7,156.3,149.7C156.4,149.7,156.4,149.7,156.3,149.7
			l0.1,0.1c0.1,0,0.1,0.1,0.2,0.1h-7.8c-0.6,0-1.2-0.2-1.7-0.6l-12.8-11.3c-0.4-0.4-0.7-0.8-0.8-1.3c-0.1-0.3,0-0.5,0.1-0.8l0.2-0.4
			c0.1,0.1,0.2,0.1,0.3,0.2L156.3,149.7z M133.4,135.2l-0.2,0.4c-0.2,0.4-0.3,0.8-0.2,1.2c0.1,0.6,0.5,1.2,1,1.6l12.8,11.3
			c0.6,0.5,1.3,0.8,2,0.8h8.9c0.9,0.4,2.2,1,3.8,1.2c11,1.8,28.8,3.2,53.4,5.1c4,0.3,8.3,0.6,12.6,1c0.2,0,0.4,0.1,0.6,0.1
			c0.3,1.2,2.1,7,9.8,7.2c0,0.2-0.1,0.4-0.2,0.8h-85.6c-3.5-6.2-7.3-11.4-11-15.7c0,0-0.1-0.1-0.1-0.1c-8.2-9.5-15.9-14.5-18.7-16.1
			c3.2,0.2,6.6,0.5,9.7,0.9C132.5,134.8,133,135,133.4,135.2z M99.2,181.3l-4.4-15h56.8v15H99.2z M140.2,149.9H96.3
			c-1.1,0-2.1-0.7-2.4-1.8l-2-7.5c-0.2-0.8-0.1-1.6,0.4-2.2c0.5-0.6,1.2-1,2-1h32.4C130.3,140,135.1,144.1,140.2,149.9z
			 M121.1,133.8c0.3,0.2,2.1,1.1,4.8,3.1H94.3c-1,0-1.9,0.5-2.5,1.2c-0.6,0.8-0.8,1.8-0.5,2.7l2,7.5c0.4,1.3,1.6,2.2,3,2.2h44.4
			c3.6,4.2,7.3,9.2,10.7,15.3H94.6l-8.8-29.8c8.1-1.6,16.8-2.5,25.8-2.5C111.7,133.4,115.9,133.5,121.1,133.8z M36,154.5
			c-0.1,0.7-0.6,2.2-1.8,3.3c-1.5,1.4-3.8,2-6.7,1.8C29.9,158.1,32.8,156.4,36,154.5z M20.6,164.4c1.5-1.1,3.5-2.5,6.1-4.2
			c0.5,0,1,0.1,1.5,0.1c2.7,0,4.8-0.7,6.3-2c1.7-1.6,2-3.5,2.1-4.1c11.9-6.6,28.7-14.2,48.6-18.1l8.8,29.7H19.7
			C19.8,165.2,20.2,164.7,20.6,164.4z M29.3,178.5l-9.1-10.4c-0.4-0.5-0.6-1.1-0.6-1.8h74.6l4.4,15H33c0,0,0,0-0.1,0
			C31.8,180.7,30.1,179.5,29.3,178.5z M64.9,187.6c-0.2,0-18.9-0.9-30.6-5.7h191c-7.8,2.6-21,5.7-39.7,5.7L64.9,187.6z M234.4,176.5
			c-0.5,1.3-1.5,2.3-2.7,2.9c-1.1,0.5-2.7,1.2-4.8,2h-74.7v-15h85.4C237,168.5,235.9,172.7,234.4,176.5z M239,160.8l-0.9,3.6
			c-7-0.1-8.9-5-9.3-6.5c4,0.6,7.5,1.2,9.3,1.5c0.3,0.1,0.6,0.2,0.8,0.5C239,160.2,239,160.5,239,160.8z"/>
		<path id="back_9_" class="st2" d="M105.6,163.8h-5.7c-0.7,0-1.3-0.5-1.4-1.1l-0.3-1.7c-0.2-0.9,0.5-1.7,1.4-1.7h5.7
			c0.7,0,1.3,0.5,1.4,1.1l0.3,1.7C107.1,163,106.5,163.8,105.6,163.8z"/>
		<path id="door_3_" class="st7" d="M105.6,164.1h-5.7c-0.8,0-1.5-0.6-1.7-1.4l-0.3-1.7c-0.1-0.5,0-1,0.4-1.4
			c0.3-0.4,0.8-0.6,1.3-0.6h5.7c0.8,0,1.5,0.6,1.7,1.4l0.3,1.7c0.1,0.5,0,1-0.4,1.4C106.6,163.9,106.1,164.1,105.6,164.1z
			 M99.6,159.6c-0.3,0-0.6,0.1-0.9,0.4c-0.2,0.3-0.3,0.6-0.2,0.9l0.3,1.7c0.1,0.5,0.6,0.9,1.1,0.9h5.7c0.3,0,0.6-0.1,0.9-0.4
			c0.2-0.3,0.3-0.6,0.2-0.9l-0.3-1.7c-0.1-0.5-0.6-0.9-1.1-0.9H99.6z"/>
		<path id="back_8_" class="st8" d="M238.7,176.2h-9.8c-0.6,0-1-0.4-1.1-0.9l-0.2-1.3c-0.1-0.7,0.4-1.4,1.1-1.4H239
			c0.7,0,1.3,0.7,1.1,1.4l-0.2,1.3C239.8,175.8,239.3,176.2,238.7,176.2z"/>
		<path id="front-bmp_3_" class="st7" d="M238.7,176.4h-9.8c-0.7,0-1.3-0.5-1.4-1.2l-0.2-1.3c-0.1-0.4,0-0.9,0.3-1.2
			c0.3-0.3,0.7-0.5,1.1-0.5H239c0.4,0,0.8,0.2,1.1,0.5c0.3,0.3,0.4,0.8,0.3,1.2l-0.2,1.3C240,176,239.4,176.4,238.7,176.4z
			 M228.7,172.8c-0.3,0-0.5,0.1-0.7,0.3c-0.2,0.2-0.2,0.5-0.2,0.7l0.2,1.3c0.1,0.4,0.4,0.7,0.9,0.7h9.8c0.4,0,0.8-0.3,0.9-0.7
			l0.2-1.3c0.1-0.3,0-0.5-0.2-0.7c-0.2-0.2-0.4-0.3-0.7-0.3H228.7z"/>
		<path id="back_7_" class="st8" d="M22.7,171.1c-1.9-1.8-5.1-0.1-4.9,2c0.1,1.5,1.7,3.1,4.5,3.1h9.6c0.6,0,0.7-0.8,0.2-0.8
			C25.5,174.2,25.1,173.3,22.7,171.1z"/>
		<path id="back_x5F_bmp_3_" class="st7" d="M31.9,176.4h-9.6c-2.9,0-4.6-1.7-4.8-3.3c-0.1-1.1,0.6-2.2,1.8-2.8
			c1-0.5,2.5-0.6,3.6,0.5l0,0c0.2,0.2,0.4,0.3,0.5,0.5c1.9,1.9,2.7,2.7,8.7,3.7c0.4,0.1,0.6,0.3,0.6,0.7
			C32.7,176.1,32.4,176.4,31.9,176.4z M20.8,170.6c-0.5,0-0.9,0.1-1.3,0.3c-1,0.5-1.6,1.4-1.5,2.2c0.1,1.4,1.6,2.8,4.2,2.8h9.6
			c0.2,0,0.2-0.1,0.3-0.2c0,0,0-0.1-0.1-0.1c-6.2-1.1-7-1.9-9-3.8c-0.2-0.2-0.3-0.3-0.5-0.5C22,170.8,21.4,170.6,20.8,170.6z"/>
		<path id="window_x5F_back_3_" class="st7" d="M82.1,150.5H54.9c-0.9,0-1.4-0.6-1.5-1.3c-0.1-0.6,0.1-1.4,0.9-1.8
			c6.2-2.6,15.7-6.3,25.3-8.7l0,0c1.5-0.4,3,0.5,3.4,2l1.8,6.1c0.3,0.9,0.1,1.8-0.5,2.5C83.8,150,83,150.5,82.1,150.5z M79.7,139.3
			c-9.7,2.4-19.1,6-25.3,8.7c-0.6,0.2-0.7,0.8-0.6,1.1c0.1,0.4,0.4,0.8,1,0.8h27.2c0.7,0,1.4-0.3,1.8-0.9c0.4-0.6,0.6-1.3,0.4-2
			l-1.8-6.1C82.1,139.7,80.9,139,79.7,139.3L79.7,139.3z"/>
		<g id="turbo_x5F_back">
			<path class="st1" d="M78.1,181.2h-7.2l-5.1,3.5l3.8,10.1c0.2,0.5,0.7,0.7,1.2,0.7h7.4c0.5,0,1-0.3,1.2-0.7l3.8-10.1L78.1,181.2z"
				/>
			<path class="st7" d="M78.1,195.8h-7.4c-0.6,0-1.2-0.3-1.5-0.9c0,0,0,0,0,0l-3.8-10.1c0-0.1,0-0.3,0.1-0.3l5.1-3.5
				c0,0,0.1,0,0.2,0h7.2c0.1,0,0.1,0,0.2,0l5.1,3.5c0.1,0.1,0.1,0.2,0.1,0.3l-3.8,10.1c0,0,0,0,0,0
				C79.3,195.5,78.8,195.8,78.1,195.8z M69.8,194.7c0.2,0.4,0.6,0.6,1,0.6h7.4c0.4,0,0.8-0.2,1-0.6l3.7-9.9l-4.9-3.3h-7.1l-4.9,3.3
				L69.8,194.7z"/>
			<path class="st0" d="M79.6,175.9H69.3c-0.4,0-0.7,0.1-1,0.4l-7.3,7.3c-0.3,0.3-0.4,0.6-0.4,1v3.5c0,0.5,0.3,0.9,0.7,1.2L64,191
				c0.4,0.3,1,0.3,1.4,0l3.8-2.2c0.2-0.1,0.5-0.2,0.7-0.2h8.2c0.2,0,0.4,0,0.6,0.1l4.7,2.3c0.4,0.2,0.9,0.2,1.3-0.1l2.8-1.7
				c0.4-0.3,0.7-0.7,0.7-1.2v-3.5c0-0.4-0.1-0.7-0.4-1l-7.3-7.3C80.3,176.1,79.9,175.9,79.6,175.9z"/>
			<path class="st7" d="M83.7,191.7H65.1c-0.3,0-0.6-0.1-0.9-0.2l-3.1-1.9c-0.5-0.3-0.8-0.9-0.8-1.4v-3.5c0-0.4,0.2-0.9,0.5-1.2
				l7.3-7.3c0.3-0.3,0.7-0.5,1.2-0.5h10.3c0.4,0,0.9,0.2,1.2,0.5l7.3,7.3c0.3,0.3,0.5,0.7,0.5,1.2v3.5c0,0.6-0.3,1.1-0.8,1.4
				l-3.1,1.9C84.4,191.6,84,191.7,83.7,191.7z M69.3,176.2c-0.3,0-0.6,0.1-0.8,0.3l-7.3,7.3c-0.2,0.2-0.3,0.5-0.3,0.8v3.5
				c0,0.4,0.2,0.8,0.5,1l3.1,1.9c0,0,0,0,0,0c0.2,0.1,0.4,0.2,0.6,0.2h18.6c0.2,0,0.4-0.1,0.6-0.2l3.1-1.9c0.3-0.2,0.5-0.6,0.5-1
				v-3.5c0-0.3-0.1-0.6-0.3-0.8l-7.3-7.3c-0.2-0.2-0.5-0.3-0.8-0.3H69.3z"/>
			<path class="st2" d="M78.7,179.2h-8.5c-0.4,0-0.7,0.1-1,0.4l-6,6c-0.3,0.3-0.4,0.6-0.4,1v3.8c0,0.8,0.6,1.4,1.4,1.4h20.5
				c0.8,0,1.4-0.6,1.4-1.4v-3.8c0-0.4-0.1-0.7-0.4-1l-6-6C79.4,179.3,79.1,179.2,78.7,179.2z"/>
			<path class="st7" d="M85.9,185.4l-6-6c-0.3-0.3-0.7-0.5-1.2-0.5h-8.5c-0.4,0-0.9,0.2-1.2,0.5l-6,6c-0.3,0.3-0.5,0.7-0.5,1.2v3.8
				c0,0.9,0.8,1.7,1.7,1.7h20.5c0.9,0,1.7-0.8,1.7-1.7v-3.8C86.4,186.1,86.2,185.7,85.9,185.4z M85.8,190.4c0,0.6-0.5,1.1-1.1,1.1
				H64.2c-0.6,0-1.1-0.5-1.1-1.1v-3.8c0-0.3,0.1-0.6,0.3-0.8l6-6c0.2-0.2,0.5-0.3,0.8-0.3h8.5c0.3,0,0.6,0.1,0.8,0.3l6,6
				c0.2,0.2,0.3,0.5,0.3,0.8V190.4z"/>
			<g id="power">
				<defs>
					<filter id="Adobe_OpacityMaskFilter_8_" filterUnits="userSpaceOnUse" x="71.1" y="197.5" width="6.7" height="7.3">
						<feFlood  style="flood-color:white;flood-opacity:1" result="back"/>
						<feBlend  in="SourceGraphic" in2="back" mode="normal"/>
					</filter>
				</defs>
				<mask maskUnits="userSpaceOnUse" x="71.1" y="197.5" width="6.7" height="7.3" id="SVGID_13_">
					<g class="st26">
						<defs>
							<filter id="Adobe_OpacityMaskFilter_9_" filterUnits="userSpaceOnUse" x="71.1" y="197.5" width="6.7" height="7.3">
								<feFlood  style="flood-color:white;flood-opacity:1" result="back"/>
								<feBlend  in="SourceGraphic" in2="back" mode="normal"/>
							</filter>
						</defs>
						<mask maskUnits="userSpaceOnUse" x="71.1" y="197.5" width="6.7" height="7.3" id="SVGID_13_">
							<g class="st27">
							</g>
						</mask>
						<linearGradient id="SVGID_14_" gradientUnits="userSpaceOnUse" x1="74.4624" y1="197.5185" x2="74.4624" y2="204.7984">
							<stop  offset="0" style="stop-color:#FFFFFF"/>
							<stop  offset="2.230006e-02" style="stop-color:#F9F9F9"/>
							<stop  offset="0.2898" style="stop-color:#B3B3B3"/>
							<stop  offset="0.5307" style="stop-color:#7C7C7C"/>
							<stop  offset="0.7368" style="stop-color:#545454"/>
							<stop  offset="0.9" style="stop-color:#3C3C3C"/>
							<stop  offset="1" style="stop-color:#333333"/>
						</linearGradient>
						<path class="st28" d="M76.1,203.1l-0.2-0.6c-0.1-0.3-0.5-0.2-0.6,0.1l-0.2,1.9c0,0.3-0.5,0.4-0.6,0l-0.1-0.3
							c-0.1-0.3-0.5-0.3-0.6,0l0,0c-0.1,0.3-0.5,0.3-0.6,0l-2-6.3c-0.1-0.2,0.1-0.4,0.3-0.4h6.1c0.2,0,0.3,0.2,0.3,0.4l-1.2,5.2
							C76.6,203.4,76.2,203.4,76.1,203.1z"/>
					</g>
				</mask>
				<linearGradient id="SVGID_15_" gradientUnits="userSpaceOnUse" x1="74.4624" y1="197.5185" x2="74.4624" y2="204.7984">
					<stop  offset="0" style="stop-color:#FFB600"/>
					<stop  offset="1" style="stop-color:#FFB600"/>
				</linearGradient>
				<path class="st29" d="M76.1,203.1l-0.2-0.6c-0.1-0.3-0.5-0.2-0.6,0.1l-0.2,1.9c0,0.3-0.5,0.4-0.6,0l-0.1-0.3
					c-0.1-0.3-0.5-0.3-0.6,0l0,0c-0.1,0.3-0.5,0.3-0.6,0l-2-6.3c-0.1-0.2,0.1-0.4,0.3-0.4h6.1c0.2,0,0.3,0.2,0.3,0.4l-1.2,5.2
					C76.6,203.4,76.2,203.4,76.1,203.1z"/>
				<path class="st13" d="M78,197.5c-0.1-0.1-0.3-0.2-0.5-0.2h-6.1c-0.2,0-0.4,0.1-0.5,0.2c-0.1,0.2-0.1,0.3-0.1,0.5l2,6.3
					c0.1,0.2,0.3,0.4,0.6,0.4c0,0,0,0,0,0c0.3,0,0.5-0.2,0.6-0.4c0,0,0,0,0,0c0,0,0,0,0,0l0.1,0.3c0.1,0.3,0.3,0.4,0.6,0.4
					c0,0,0,0,0,0c0.3,0,0.5-0.2,0.5-0.5l0.2-1.9c0,0,0,0,0,0c0,0,0,0,0,0l0.2,0.6c0.1,0.2,0.3,0.4,0.6,0.4c0.3,0,0.5-0.2,0.5-0.5
					l1.2-5.2C78.1,197.8,78.1,197.6,78,197.5z M76.4,203C76.4,203,76.4,203,76.4,203C76.3,203,76.3,203,76.4,203L76.4,203l-0.3-0.5
					c-0.1-0.2-0.4-0.4-0.6-0.4c-0.3,0-0.5,0.2-0.5,0.5l-0.2,1.9c0,0,0,0,0,0c0,0,0,0,0,0l-0.1-0.3c-0.1-0.3-0.3-0.4-0.6-0.4
					c0,0,0,0,0,0c-0.3,0-0.5,0.2-0.6,0.4c0,0,0,0,0,0h0c0,0,0,0,0,0l-2-6.3l0,0l0,0h6.1l0,0L76.4,203z"/>
			</g>
		</g>
		<g id="turbo_x5F_front">
			<path class="st1" d="M187.1,181.2h-7.2l-5.1,3.5l3.8,10.1c0.2,0.5,0.7,0.7,1.2,0.7h7.4c0.5,0,1-0.3,1.2-0.7l3.8-10.1L187.1,181.2
				z"/>
			<path class="st7" d="M187.2,195.8h-7.4c-0.6,0-1.2-0.3-1.5-0.9c0,0,0,0,0,0l-3.8-10.1c0-0.1,0-0.3,0.1-0.3l5.1-3.5
				c0,0,0.1,0,0.2,0h7.2c0.1,0,0.1,0,0.2,0l5.1,3.5c0.1,0.1,0.1,0.2,0.1,0.3l-3.8,10.1c0,0,0,0,0,0
				C188.4,195.5,187.8,195.8,187.2,195.8z M178.8,194.7c0.2,0.4,0.6,0.6,1,0.6h7.4c0.4,0,0.8-0.2,1-0.6l3.7-9.9l-4.9-3.3h-7.1
				l-4.9,3.3L178.8,194.7z"/>
			<path class="st0" d="M188.6,175.9h-10.3c-0.4,0-0.7,0.1-1,0.4l-7.3,7.3c-0.3,0.3-0.4,0.6-0.4,1v3.5c0,0.5,0.3,0.9,0.7,1.2
				l2.7,1.7c0.4,0.3,1,0.3,1.4,0l3.8-2.2c0.2-0.1,0.5-0.2,0.7-0.2h8.2c0.2,0,0.4,0,0.6,0.1l4.7,2.3c0.4,0.2,0.9,0.2,1.3-0.1l2.8-1.7
				c0.4-0.3,0.7-0.7,0.7-1.2v-3.5c0-0.4-0.1-0.7-0.4-1l-7.3-7.3C189.3,176.1,189,175.9,188.6,175.9z"/>
			<path class="st7" d="M192.8,191.7h-18.6c-0.3,0-0.6-0.1-0.9-0.2l-3.1-1.9c-0.5-0.3-0.8-0.9-0.8-1.4v-3.5c0-0.4,0.2-0.9,0.5-1.2
				l7.3-7.3c0.3-0.3,0.7-0.5,1.2-0.5h10.3c0.4,0,0.9,0.2,1.2,0.5l7.3,7.3c0.3,0.3,0.5,0.7,0.5,1.2v3.5c0,0.6-0.3,1.1-0.8,1.4
				l-3.1,1.9C193.4,191.6,193.1,191.7,192.8,191.7z M178.3,176.2c-0.3,0-0.6,0.1-0.8,0.3l-7.3,7.3c-0.2,0.2-0.3,0.5-0.3,0.8v3.5
				c0,0.4,0.2,0.8,0.5,1l3.1,1.9c0.2,0.1,0.4,0.2,0.6,0.2h18.6c0.2,0,0.4-0.1,0.6-0.2l3.1-1.9c0.3-0.2,0.5-0.6,0.5-1v-3.5
				c0-0.3-0.1-0.6-0.3-0.8l-7.3-7.3c-0.2-0.2-0.5-0.3-0.8-0.3H178.3z"/>
			<path class="st2" d="M187.7,179.2h-8.5c-0.4,0-0.7,0.1-1,0.4l-6,6c-0.3,0.3-0.4,0.6-0.4,1v3.8c0,0.8,0.6,1.4,1.4,1.4h20.5
				c0.8,0,1.4-0.6,1.4-1.4v-3.8c0-0.4-0.1-0.7-0.4-1l-6-6C188.4,179.3,188.1,179.2,187.7,179.2z"/>
			<path class="st7" d="M193.7,192.1h-20.5c-0.9,0-1.7-0.8-1.7-1.7v-3.8c0-0.4,0.2-0.9,0.5-1.2l6-6c0.3-0.3,0.7-0.5,1.2-0.5h8.5
				c0.4,0,0.9,0.2,1.2,0.5l6,6c0.3,0.3,0.5,0.7,0.5,1.2v3.8C195.4,191.3,194.6,192.1,193.7,192.1z M179.2,179.5
				c-0.3,0-0.6,0.1-0.8,0.3l-6,6c-0.2,0.2-0.3,0.5-0.3,0.8v3.8c0,0.6,0.5,1.1,1.1,1.1h20.5c0.6,0,1.1-0.5,1.1-1.1v-3.8
				c0-0.3-0.1-0.6-0.3-0.8l-6-6c-0.2-0.2-0.5-0.3-0.8-0.3H179.2z"/>
			<g id="power_1_">
				<defs>
					<filter id="Adobe_OpacityMaskFilter_10_" filterUnits="userSpaceOnUse" x="180.1" y="197.5" width="6.7" height="7.3">
						<feFlood  style="flood-color:white;flood-opacity:1" result="back"/>
						<feBlend  in="SourceGraphic" in2="back" mode="normal"/>
					</filter>
				</defs>
				<mask maskUnits="userSpaceOnUse" x="180.1" y="197.5" width="6.7" height="7.3" id="SVGID_16_">
					<g class="st30">
						<defs>
							<filter id="Adobe_OpacityMaskFilter_11_" filterUnits="userSpaceOnUse" x="180.1" y="197.5" width="6.7" height="7.3">
								<feFlood  style="flood-color:white;flood-opacity:1" result="back"/>
								<feBlend  in="SourceGraphic" in2="back" mode="normal"/>
							</filter>
						</defs>
						<mask maskUnits="userSpaceOnUse" x="180.1" y="197.5" width="6.7" height="7.3" id="SVGID_16_">
							<g class="st31">
							</g>
						</mask>
						<linearGradient id="SVGID_17_" gradientUnits="userSpaceOnUse" x1="183.4906" y1="197.5185" x2="183.4906" y2="204.7984">
							<stop  offset="0" style="stop-color:#FFFFFF"/>
							<stop  offset="2.230006e-02" style="stop-color:#F9F9F9"/>
							<stop  offset="0.2898" style="stop-color:#B3B3B3"/>
							<stop  offset="0.5307" style="stop-color:#7C7C7C"/>
							<stop  offset="0.7368" style="stop-color:#545454"/>
							<stop  offset="0.9" style="stop-color:#3C3C3C"/>
							<stop  offset="1" style="stop-color:#333333"/>
						</linearGradient>
						<path class="st32" d="M185.1,203.1l-0.2-0.6c-0.1-0.3-0.5-0.2-0.6,0.1l-0.2,1.9c0,0.3-0.5,0.4-0.6,0l-0.1-0.3
							c-0.1-0.3-0.5-0.3-0.6,0l0,0c-0.1,0.3-0.5,0.3-0.6,0l-2-6.3c-0.1-0.2,0.1-0.4,0.3-0.4h6.1c0.2,0,0.3,0.2,0.3,0.4l-1.2,5.2
							C185.6,203.4,185.2,203.4,185.1,203.1z"/>
					</g>
				</mask>
				<linearGradient id="SVGID_18_" gradientUnits="userSpaceOnUse" x1="183.4906" y1="197.5185" x2="183.4906" y2="204.7984">
					<stop  offset="0" style="stop-color:#FFB600"/>
					<stop  offset="1" style="stop-color:#FFB600"/>
				</linearGradient>
				<path class="st33" d="M185.1,203.1l-0.2-0.6c-0.1-0.3-0.5-0.2-0.6,0.1l-0.2,1.9c0,0.3-0.5,0.4-0.6,0l-0.1-0.3
					c-0.1-0.3-0.5-0.3-0.6,0l0,0c-0.1,0.3-0.5,0.3-0.6,0l-2-6.3c-0.1-0.2,0.1-0.4,0.3-0.4h6.1c0.2,0,0.3,0.2,0.3,0.4l-1.2,5.2
					C185.6,203.4,185.2,203.4,185.1,203.1z"/>
				<path class="st13" d="M187,197.5c-0.1-0.1-0.3-0.2-0.5-0.2h-6.1c-0.2,0-0.4,0.1-0.5,0.2c-0.1,0.2-0.1,0.3-0.1,0.5l2,6.3
					c0.1,0.2,0.3,0.4,0.6,0.4c0,0,0,0,0,0c0.3,0,0.5-0.2,0.6-0.4c0,0,0,0,0,0c0,0,0,0,0,0l0.1,0.3c0.1,0.3,0.3,0.4,0.6,0.4
					c0,0,0,0,0,0c0.3,0,0.5-0.2,0.5-0.5l0.2-1.9c0,0,0,0,0,0c0,0,0,0,0,0l0.2,0.6c0.1,0.2,0.3,0.4,0.6,0.4c0.3,0,0.5-0.2,0.5-0.5
					l1.2-5.2C187.2,197.8,187.1,197.6,187,197.5z M185.4,203C185.4,203,185.4,203,185.4,203C185.4,203,185.4,203,185.4,203
					L185.4,203l-0.3-0.5c-0.1-0.2-0.4-0.4-0.6-0.4c-0.3,0-0.5,0.2-0.5,0.5l-0.2,1.9c0,0,0,0,0,0c0,0,0,0,0,0l-0.1-0.3
					c-0.1-0.3-0.3-0.4-0.6-0.4c0,0,0,0,0,0c-0.3,0-0.5,0.2-0.6,0.4c0,0,0,0,0,0c0,0,0,0,0,0c0,0,0,0,0,0l-2-6.3l0,0h6.1l0,0
					L185.4,203z"/>
			</g>
		</g>
	</g>
</g>
</svg>
